<?xml version="1.0" encoding="utf-8"?>
<!-- Generator: Adobe Illustrator 25.4.1, SVG Export Plug-In . SVG Version: 6.00 Build 0)  -->
<svg version="1.1" id="Layer_1" xmlns="http://www.w3.org/2000/svg" xmlns:xlink="http://www.w3.org/1999/xlink" x="0px" y="0px"
	 viewBox="0 0 650 481.1" style="enable-background:new 0 0 650 481.1;" xml:space="preserve">
<style type="text/css">
	.st0{display:none;}
	.st1{display:inline;fill:none;stroke:#000000;stroke-width:5;stroke-opacity:5.000000e-02;}
	.st2{display:inline;fill:none;stroke:#000000;stroke-width:3;stroke-opacity:0.1;}
	.st3{display:inline;fill:none;stroke:#000000;stroke-opacity:0.15;}
	.st4{display:inline;fill:#F9F9F9;fill-opacity:0.85;}
	.st5{fill:#D8D8D8;}
	.st6{fill:#99C1B9;stroke:#FFFFFF;stroke-linejoin:round;}
	.st7{fill:#CD533B;stroke:#FFFFFF;stroke-linejoin:round;}
	.st8{fill:#8E7DBE;stroke:#FFFFFF;stroke-linejoin:round;}
	.st9{fill:#4BA3C3;stroke:#FFFFFF;stroke-linejoin:round;}
	.st10{fill:#E7A85F;stroke:#FFFFFF;stroke-linejoin:round;}
	.st11{fill:#175676;stroke:#FFFFFF;stroke-linejoin:round;}
	.st12{fill:none;stroke:#1C4E80;}
	.st13{fill:#1C4E80;}
	.st14{font-family:'Georgia';}
	.st15{font-size:15px;}
	.st16{fill:none;}
	.st17{fill:#0F2E7F;}
	.st18{font-size:16.9233px;}
	.st19{font-family:'Georgia-Bold';}
	.st20{fill:#3E3D3D;}
	.st21{font-size:16px;}
	.st22{font-size:14px;}
	.st23{font-size:18px;}
</style>
<desc>Created with Highcharts 4.2.7</desc>
<g transform="translate(0,0)" class="st0">
	<path class="st1" d="M29.5,57.6h10c3,0,3,0,3,3v10c0,3,0,3-3,3h-10c-3,0-3,0-3-3v-10C26.5,57.6,26.5,57.6,29.5,57.6"/>
	<path class="st2" d="M29.5,57.6h10c3,0,3,0,3,3v10c0,3,0,3-3,3h-10c-3,0-3,0-3-3v-10C26.5,57.6,26.5,57.6,29.5,57.6"/>
	<path class="st3" d="M29.5,57.6h10c3,0,3,0,3,3v10c0,3,0,3-3,3h-10c-3,0-3,0-3-3v-10C26.5,57.6,26.5,57.6,29.5,57.6"/>
	<path class="st4" d="M28.5,56.6h10c3,0,3,0,3,3v10c0,3,0,3-3,3h-10c-3,0-3,0-3-3v-10C25.5,56.6,25.5,56.6,28.5,56.6"/>
</g>
<g>
	<g transform="translate(10,10) scale(1 1)">
		<path class="st5" d="M277.1,283.9L277.1,283.9l54.4,167.9c-17.6,5.7-35.9,8.6-54.4,8.6c-97.5,0-176.5-79.1-176.5-176.5
			c0-97.5,79.1-176.5,176.5-176.5V283.9z"/>
		<path class="st6" d="M277.1,283.9L277.1,283.9L425.7,379c-22,34.4-55.3,60.1-94.1,72.7L277.1,283.9z"/>
		<path class="st7" d="M277.1,283.9L277.1,283.9L452.7,266c4,39.6-5.4,79.4-26.9,112.9L277.1,283.9z"/>
		<path class="st8" d="M277.1,283.9L277.1,283.9l144.4-101.5c17.3,24.7,28.1,53.4,31.2,83.4L277.1,283.9z"/>
		<path class="st9" d="M277.1,283.9L277.1,283.9L356,126c26.1,13.1,48.6,32.4,65.4,56.3L277.1,283.9z"/>
		<path class="st10" d="M277.1,283.9L277.1,283.9l37.7-172.4c14.2,3.1,28,8,41,14.5L277.1,283.9z"/>
		<path class="st11" d="M277.1,283.9L277.1,283.9l0.2-176.5c12.5,0,25.1,1.4,37.3,4L277.1,283.9z"/>
	</g>
	<g transform="translate(10,10) scale(1 1)">
	</g>
</g>
<path class="st12" d="M395.7,432.8l9.2,11.9c9.2,11.9,15.8,20.5,22.7,20.5"/>
<path class="st12" d="M459.5,333.9l14.6,3.5c14.6,3.5,25.2,6,32,6"/>
<path class="st12" d="M453.1,231.3l14-5.3c14-5.3,24.3-9.1,31.1-9.1"/>
<path class="st12" d="M402.8,159.3l9.8-11.4c9.8-11.4,22.8-14.4,29.6-14.4"/>
<path class="st12" d="M346.4,126.7l5-14.1c5-14.1,44.7-7.9,51.5-7.9"/>
<path class="st12" d="M303.2,118.7l1.6-14.9c1.6-14.9,2.8-27,9.6-27"/>
<g transform="translate(76,291)">
	<text transform="matrix(1 0 0 1 355.7066 179.1483)" class="st13 st14 st15">India: 658,869</text>
</g>
<g transform="translate(14,201)">
	<text transform="matrix(1 0 0 1 496.6647 147.3925)" class="st13 st14 st15">China: 642,986  </text>
</g>
<g transform="translate(0,109)">
	<text transform="matrix(1 0 0 1 501.1765 113.3276)" class="st13 st14 st15">Philippines: 489,608 </text>
</g>
<g transform="translate(80,47)">
	<text transform="matrix(1 0 0 1 366.3999 92.4216)" class="st13 st14 st15">UK: 474,024 </text>
</g>
<g transform="translate(82,26)">
	<text transform="matrix(1 0 0 1 324.778 85.9831)" class="st13 st14 st15">Pakistan: 237,549</text>
</g>
<g transform="translate(164,5)">
	<text transform="matrix(1 0 0 1 154.5193 76.7797)" class="st13 st14 st15">USA: 205,540 </text>
</g>
<rect x="154.7" y="286.3" class="st16" width="146.7" height="46.5"/>
<text transform="matrix(1 0 0 1 154.6616 299.0956)" class="st17 st14 st18">Other: 55.0%</text>
<rect x="334.4" y="370.7" class="st16" width="146.7" height="46.5"/>
<text transform="matrix(1 0 0 1 334.4432 383.4865)" class="st17 st19 st18">10.9%</text>
<rect x="374.6" y="310.2" class="st16" width="146.7" height="46.5"/>
<text transform="matrix(1 0 0 1 374.5824 322.969)" class="st17 st19 st18">10.7%</text>
<rect x="7.4" y="9.4" class="st16" width="522" height="43.8"/>
<text transform="matrix(1 0 0 1 7.3998 22.5122)" class="st20 st19 st21">Number of immigrants from the top 6 source countries</text>
<text transform="matrix(1 0 0 1 7.3998 40.5122)" class="st20 st14 st22">(1984 - 2013)</text>
<text transform="matrix(1 0 0 1 96.931 43.0405)" class="st13 st14 st23"> </text>
</svg>
