<?xml version="1.0" encoding="utf-8"?>
<!-- Generator: Adobe Illustrator 25.4.1, SVG Export Plug-In . SVG Version: 6.00 Build 0)  -->
<svg version="1.1" id="Layer_1" xmlns="http://www.w3.org/2000/svg" xmlns:xlink="http://www.w3.org/1999/xlink" x="0px" y="0px"
	 viewBox="0 0 650 655.3" style="enable-background:new 0 0 650 655.3;" xml:space="preserve">
<style type="text/css">
	.st0{fill:#CD533B;}
	.st1{fill:#1C4E80;}
	.st2{font-family:'Georgia-Bold';}
	.st3{font-size:13px;}
	.st4{fill:#175676;}
	.st5{fill:#52C1B9;}
	.st6{fill:#8E7DBE;}
	.st7{fill:#E7A85F;}
	.st8{fill:#4BA3C3;}
	.st9{fill:none;stroke:#CCCCCC;}
	.st10{fill:none;}
	.st11{fill:#FFFFFF;}
	.st12{font-size:16.5467px;}
	.st13{font-size:12.8696px;}
	.st14{font-size:9.1926px;}
	.st15{font-size:10.1119px;}
	.st16{font-size:7.3541px;}
	.st17{font-size:4.4124px;}
	.st18{fill:#3E3D3D;}
	.st19{font-size:16px;}
	.st20{font-family:'Georgia';}
	.st21{font-size:14px;}
	.st22{font-size:18px;}
	.st23{display:none;}
	.st24{display:inline;}
	.st25{fill:none;stroke:#000000;}
	.st26{font-family:'Helvetica';}
	.st27{font-size:8.9511px;}
	.st28{fill:none;stroke:#CD533B;stroke-width:1.5;}
	.st29{fill:none;stroke:#52C1B9;stroke-width:1.5;}
	.st30{fill:none;stroke:#8E7DBE;stroke-width:1.5;}
	.st31{fill:none;stroke:#E7A85F;stroke-width:1.5;}
	.st32{fill:none;stroke:#175676;stroke-width:1.5;}
	.st33{fill:none;stroke:#4BA3C3;stroke-width:1.5;}
	.st34{display:inline;fill:#A7A7A7;}
	.st35{font-family:'Arial-BoldMT';}
	.st36{font-size:17.7612px;}
	.st37{font-size:18.5746px;}
	.st38{display:inline;fill:none;}
	.st39{display:inline;fill:#1C4E80;}
	.st40{font-size:15px;}
	.st41{display:inline;fill:#CD533B;}
	.st42{display:inline;fill:#175676;}
	.st43{display:inline;fill:#52C1B9;}
	.st44{display:inline;fill:#E7A85F;}
	.st45{display:inline;fill:#4BA3C3;}
	.st46{display:inline;fill:#8E7DBE;}
	.st47{display:inline;fill:none;stroke:#000000;stroke-miterlimit:10;}
</style>
<g id="Layer_1_00000179646199123072347160000007613942630786290858_">
	<g transform="translate(0,15.734375)">
		<g transform="translate(0, 0)">
			<rect x="530.3" y="504.4" class="st0" width="15" height="15"/>
			<text transform="matrix(1 0 0 1 549.0713 515.2358)" class="st1 st2 st3">Asia</text>
		</g>
		<g transform="translate(0, 20.734375)">
			<rect x="530.3" y="505.4" class="st4" width="15" height="15"/>
			<text transform="matrix(1 0 0 1 549.0713 518.3577)" class="st1 st2 st3">Africa</text>
		</g>
		<g transform="translate(0, 41.46875)">
			<rect x="530.3" y="509.4" class="st5" width="15" height="15"/>
			<text transform="matrix(1 0 0 1 549.0713 521.4795)" class="st1 st2 st3">Europe</text>
		</g>
		<g transform="translate(0, 62.203125)">
			<rect x="530.3" y="512.4" class="st6" width="15" height="15"/>
			<text transform="matrix(1 0 0 1 549.0713 524.6014)" class="st1 st2 st3">North America</text>
		</g>
		<g transform="translate(0, 98.546875)">
			<rect x="530.3" y="500.4" class="st7" width="15" height="15"/>
			<text transform="matrix(1 0 0 1 549.0713 512.1139)" class="st1 st2 st3">South America</text>
		</g>
		<g transform="translate(0, 119.28125)">
			<rect x="530.3" y="503.4" class="st8" width="15" height="15"/>
			<text transform="matrix(1 0 0 1 549.0713 515.2358)" class="st1 st2 st3">Oceania</text>
		</g>
	</g>
	<g>
		<g id="viz" transform="translate(5,5)">
			<g id="nodes">
				<g transform="translate(321,296)">
					<path id="p_912" class="st9" d="M-47.9,301.4c-149.8,0-271.2-121.4-271.2-271.2S-197.7-241-47.9-241S223.3-119.6,223.3,30.2
						S101.9,301.4-47.9,301.4z"/>
				</g>
				<g id="Asia" transform="translate(204.83512066508726,290.7654797089133)">
					<path id="p_670.6531380211794" class="st9" d="M-38.5,191.5c-88.9,0-160.9-72-160.9-160.9s72-160.9,160.9-160.9l0,0
						c88.9,0,160.9,72,160.9,160.9C122.4,119.5,50.4,191.5-38.5,191.5L-38.5,191.5z"/>
				</g>
				<g id="Europe" transform="translate(497.90511601930245,290.7654797089133)">
					<path id="p_903.0233473000776" class="st9" d="M-62.2,135.7c-58.1,0-105.1-47.1-105.1-105.1S-120.2-74.5-62.2-74.5
						S42.9-27.4,42.9,30.6S-4.1,135.7-62.2,135.7z"/>
				</g>
				<g id="Latin_America_and_the_Caribbean" transform="translate(401.26910467713265,477.8536073221986)">
					<path id="p_971.6770619541207" class="st9" d="M-54.4,100.6c-47,0-85.1-38.1-85.1-85.1s38.1-85.1,85.1-85.1
						s85.1,38.1,85.1,85.1S-7.4,100.6-54.4,100.6z"/>
				</g>
				<g id="Africa" transform="translate(400.2019241844305,110.06916429209059)">
					<path id="p_597.6728900903616" class="st9" d="M-54.3,125.6c-44.4,0-80.4-36-80.4-80.3s36-80.4,80.3-80.4l0,0
						C-10-35.1,26,0.9,26,45.2C26.1,89.6-9.9,125.5-54.3,125.6L-54.3,125.6z"/>
				</g>
				<g id="Northern_America" transform="translate(269.4266919894609,78.07398634475354)">
					<path id="p_391.06645782540767" class="st9" d="M-43.7,87.8c-22.1,0-40.1-17.9-40.1-40s17.9-40.1,40-40.1l0,0
						c22.1,0,40.1,17.9,40.1,40C-3.7,69.9-21.6,87.8-43.7,87.8L-43.7,87.8z"/>
				</g>
				<g id="Oceania" transform="translate(276.3597611937877,485.7132770630245)">
					<path id="p_791.0103583443132" class="st9" d="M-44.3,41.5c-14.7,0-26.6-11.9-26.6-26.6S-59-11.7-44.3-11.7l0,0
						c14.7,0,26.6,11.9,26.6,26.6C-17.7,29.6-29.6,41.5-44.3,41.5L-44.3,41.5z"/>
				</g>
				<g id="India" transform="translate(132.72020015412653,288.85155055295655)">
					<path id="p_489.06442146542867" class="st0" d="M-32.7,92.8c-34.3,0-62-27.8-62-62s27.8-62,62-62s62,27.8,62,62
						S1.6,92.8-32.7,92.8z"/>
				</g>
				<g id="China" transform="translate(270.55178040194073,288.85155055295655)">
					<path id="p_626.0775343091914" class="st0" d="M-43.8,92.1c-33.9,0-61.3-27.4-61.3-61.3s27.4-61.3,61.3-61.3l0,0
						c33.9,0,61.3,27.4,61.3,61.3C17.5,64.6-10,92.1-43.8,92.1L-43.8,92.1z"/>
				</g>
				<g id="Philippines" transform="translate(202.40159361199167,397.8144996322329)">
					<path id="p_658.3971130714107" class="st0" d="M-38.3,75.5c-29.5,0-53.5-23.9-53.5-53.5c0-29.5,23.9-53.5,53.5-53.5l0,0
						c29.5,0,53.5,23.9,53.5,53.5C15.2,51.5-8.8,75.5-38.3,75.5L-38.3,75.5z"/>
				</g>
				<g id="Pakistan" transform="translate(202.29675506335366,201.48863833900919)">
					<path id="p_444.311387802597" class="st0" d="M-38.3,75.1c-20.6,0-37.3-16.7-37.3-37.3S-58.9,0.6-38.3,0.6S-1.1,17.2-1.1,37.8
						S-17.7,75.1-38.3,75.1z"/>
				</g>
				<g id="Iran" transform="translate(125.88870907718004,183.6417951940353)">
					<path id="p_343.8044410042382" class="st0" d="M-32.1,70.8c-17.4,0-31.5-14.1-31.5-31.5S-49.5,7.8-32.1,7.8S-0.6,21.9-0.6,39.3
						S-14.7,70.8-32.1,70.8z"/>
				</g>
				<g id="Sri_Lanka" transform="translate(276.97052631933195,186.80035262586375)">
					<path id="p_495.6848290612496" class="st0" d="M-44.3,68.3c-16.2,0-29.3-13.1-29.3-29.3S-60.5,9.7-44.3,9.7S-15,22.8-15,39
						S-28.1,68.3-44.3,68.3z"/>
				</g>
				<g id="South_Korea" transform="translate(110.21510133102981,388.3229484401919)">
					<path id="p_529.3661545438587" class="st0" d="M-30.9,51.1c-15.7,0-28.3-12.7-28.3-28.3S-46.5-5.6-30.9-5.6l0,0
						c15.7,0,28.3,12.7,28.3,28.3C-2.5,38.4-15.2,51.1-30.9,51.1L-30.9,51.1z"/>
				</g>
				<g id="Lebanon" transform="translate(290.97357403960115,384.7275121330442)">
					<path id="p_703.388957025518" class="st0" d="M-45.5,48.5C-59.6,48.5-71,37.1-71,23.1C-70.9,9-59.5-2.4-45.5-2.4l0,0
						C-31.4-2.4-20,9-20,23S-31.4,48.5-45.5,48.5L-45.5,48.5z"/>
				</g>
				<g id="Viet_Nam" transform="translate(330.33980269201635,214.91768285851597)">
					<path id="p_570.0018259088557" class="st0" d="M-48.7,59.5c-12.6,0-22.7-10.2-22.7-22.7c0-12.6,10.2-22.7,22.7-22.7l0,0
						c12.6,0,22.7,10.2,22.7,22.7C-25.9,49.3-36.1,59.5-48.7,59.5L-48.7,59.5z"/>
				</g>
				<g id="Iraq" transform="translate(75.46163234965397,215.6416445436046)">
					<path id="p_312.8879998518374" class="st0" d="M-28.1,56.7c-11.1,0-20-9-20-20s9-20,20-20s20,9,20,20S-17,56.7-28.1,56.7z"/>
				</g>
				<g id="Bangladesh" transform="translate(237.24786233946506,146.17851314737885)">
					<path id="p_404.6634202017499" class="st0" d="M-41.1,61.8c-10.8,0-19.5-8.7-19.5-19.5s8.7-19.5,19.5-19.5s19.5,8.7,19.5,19.5
						S-30.4,61.8-41.1,61.8z"/>
				</g>
				<g id="Israel" transform="translate(170.09966213036148,145.23720518696862)">
					<path id="p_335.96033595035425" class="st0" d="M-35.7,61.3c-10.5,0-19-8.5-19-19s8.5-19,19-19l0,0c10.5,0,19,8.5,19,19
						S-25.2,61.3-35.7,61.3L-35.7,61.3z"/>
				</g>
				<g id="Afghanistan" transform="translate(332.6844625712665,354.58331608972037)">
					<path id="p_707.3784971095841" class="st0" d="M-48.8,44c-10.2,0-18.5-8.3-18.5-18.5S-59.1,7-48.8,7l0,0
						c10.2,0,18.5,8.3,18.5,18.5C-30.4,35.7-38.6,43.9-48.8,44L-48.8,44z"/>
				</g>
				<g id="Jordan" transform="translate(74.64126526721125,353.18137434158217)">
					<path id="p_443.3341089420126" class="st0" d="M-28,39.8c-7.9,0-14.3-6.4-14.3-14.3s6.4-14.3,14.3-14.3l0,0
						c7.9,0,14.3,6.4,14.3,14.3C-13.7,33.5-20.1,39.8-28,39.8L-28,39.8z"/>
				</g>
				<g id="Syrian_Arab_Republic" transform="translate(272.94419967040693,426.79900203075175)">
					<path id="p_714.1625440781269" class="st0" d="M-44,32.9c-7.3,0-13.3-5.9-13.3-13.3s6-13.2,13.3-13.2s13.3,5.9,13.3,13.3
						S-36.7,32.9-44,32.9z"/>
				</g>
				<g id="Turkey" transform="translate(133.8821353950022,430.9535624792941)">
					<path id="p_579.1024783792124" class="st0" d="M-32.8,32.4c-7.2,0-13.1-5.9-13.1-13.1S-40,6.2-32.8,6.2s13.1,5.9,13.1,13.1
						S-25.5,32.4-32.8,32.4z"/>
				</g>
				<g id="Japan" transform="translate(57.775453524622435,250.04848495752043)">
					<path id="p_321.06083240699223" class="st0" d="M-26.6,46.1c-6.7,0-12.2-5.4-12.2-12.2s5.4-12.2,12.2-12.2s12.2,5.4,12.2,12.2
						S-19.9,46.1-26.6,46.1z"/>
				</g>
				<g id="Malaysia" transform="translate(344.8375978431115,252.85848848005597)">
					<path id="p_609.9034256296716" class="st0" d="M-49.8,44.9c-6.2,0-11.2-5-11.2-11.2s5-11.2,11.2-11.2l0,0
						c6.2,0,11.2,5,11.2,11.2S-43.6,44.9-49.8,44.9L-49.8,44.9z"/>
				</g>
				<g id="Singapore" transform="translate(203.456581943773,138.86397623029586)">
					<path id="p_351.9926859188417" class="st0" d="M-38.4,51.8c-4.9,0-8.9-4-8.9-8.9s4-8.9,8.9-8.9l0,0c4.9,0,8.9,4,8.9,8.9
						C-29.5,47.8-33.5,51.8-38.4,51.8L-38.4,51.8z"/>
				</g>
				<g id="Indonesia" transform="translate(62.23881933892011,327.58554451441603)">
					<path id="p_399.09053655708595" class="st0" d="M-27,36.2c-4.7,0-8.5-3.8-8.5-8.5s3.8-8.5,8.5-8.5l0,0c4.7,0,8.5,3.8,8.5,8.5
						S-22.3,36.2-27,36.2L-27,36.2z"/>
				</g>
				<g id="Nepal" transform="translate(341.2310872792755,323.56065595551263)">
					<path id="p_673.1947312237662" class="st0" d="M-49.5,35.7c-4.3,0-7.7-3.5-7.7-7.7s3.5-7.7,7.7-7.7s7.7,3.5,7.7,7.7
						S-45.3,35.7-49.5,35.7z"/>
				</g>
				<g id="China_x2C__Hong_Kong_Special_Administrative_Region" transform="translate(55.79376820688839,307.63988177081995)">
					<path id="p_371.46388147139237" class="st0" d="M-26.5,36.6c-4.1,0-7.4-3.3-7.4-7.4s3.3-7.4,7.4-7.4l0,0c4.1,0,7.4,3.3,7.4,7.4
						S-22.4,36.6-26.5,36.6L-26.5,36.6z"/>
				</g>
				<g id="Myanmar" transform="translate(54.94244152245244,274.68734132001094)">
					<path id="p_337.52937629920154" class="st0" d="M-26.4,39.2c-4,0-7.3-3.3-7.3-7.3s3.3-7.3,7.3-7.3l0,0c4,0,7.3,3.3,7.3,7.3
						C-19.2,35.9-22.4,39.2-26.4,39.2L-26.4,39.2z"/>
				</g>
				<g id="Thailand" transform="translate(347.13670934454603,304.5506213123677)">
					<path id="p_659.5258614162336" class="st0" d="M-50,36.7c-4,0-7.2-3.2-7.2-7.2s3.2-7.2,7.2-7.2l0,0c4,0,7.2,3.2,7.2,7.2
						S-46,36.7-50,36.7L-50,36.7z"/>
				</g>
				<g id="Kazakhstan" transform="translate(347.52550148057855,276.2379782193823)">
					<path id="p_631.4249288231694" class="st0" d="M-50,38.8c-3.9,0-7-3.2-7-7s3.2-7,7-7s7,3.2,7,7S-46.2,38.8-50,38.8z"/>
				</g>
				<g id="State_of_Palestine" transform="translate(81.2416793872069,184.00603580719317)">
					<path id="p_271.95758777029806" class="st0" d="M-28.5,45.4c-3.4,0-6.2-2.8-6.2-6.2s2.8-6.2,6.2-6.2l0,0c3.4,0,6.2,2.8,6.2,6.2
						C-22.4,42.6-25.1,45.4-28.5,45.4L-28.5,45.4z"/>
				</g>
				<g id="Cambodia" transform="translate(318.92209343707344,181.74157911134643)">
					<path id="p_507.3404913638092" class="st0" d="M-47.7,45.6c-3.4,0-6.1-2.7-6.1-6.1s2.7-6.1,6.1-6.1l0,0c3.4,0,6.1,2.7,6.1,6.1
						C-41.6,42.8-44.3,45.6-47.7,45.6L-47.7,45.6z"/>
				</g>
				<g id="Bhutan" transform="translate(268.51986462733043,145.70784315994476)">
					<path id="p_420.60150101446584" class="st0" d="M-43.7,48.2c-3.2,0-5.9-2.6-5.9-5.9c0-3.2,2.6-5.9,5.9-5.9l0,0
						c3.2,0,5.9,2.6,5.9,5.9C-37.8,45.6-40.4,48.2-43.7,48.2L-43.7,48.2z"/>
				</g>
				<g id="Saudi_Arabia" transform="translate(56.73373177564608,291.1090285512798)">
					<path id="p_352.70537806341554" class="st0" d="M-26.6,35.1c-2.5,0-4.5-2-4.5-4.5s2-4.5,4.5-4.5l0,0c2.5,0,4.5,2,4.5,4.5
						S-24.1,35.1-26.6,35.1L-26.6,35.1z"/>
				</g>
				<g id="Uzbekistan" transform="translate(355.28803996431986,290.40199072984745)">
					<path id="p_650.5155395639222" class="st0" d="M-50.7,35.1c-2.4,0-4.4-2-4.4-4.4s2-4.4,4.4-4.4s4.4,2,4.4,4.4
						S-48.2,35.1-50.7,35.1z"/>
				</g>
				<g id="Armenia" transform="translate(44.09853355262456,286.92128268160553)">
					<path id="p_335.80359485650007" class="st0" d="M-25.5,35.3c-2.4,0-4.4-2-4.4-4.4s2-4.4,4.4-4.4l0,0c2.4,0,4.4,2,4.4,4.4
						C-21.1,33.4-23.1,35.3-25.5,35.3L-25.5,35.3z"/>
				</g>
				<g id="Yemen" transform="translate(72.91761433243445,376.83006126758943)">
					<path id="p_454.28291860183697" class="st0" d="M-27.9,27.8c-2.3,0-4.2-1.9-4.2-4.2s1.9-4.2,4.2-4.2l0,0c2.3,0,4.2,1.9,4.2,4.2
						C-23.7,26-25.6,27.8-27.9,27.8L-27.9,27.8z"/>
				</g>
				<g id="Azerbaijan" transform="translate(141.54325293200634,144.43323713439517)">
					<path id="p_290.25603958512255" class="st0" d="M-33.4,46.4c-2.2,0-3.9-1.8-3.9-3.9c0-2.2,1.8-3.9,3.9-3.9s3.9,1.8,3.9,3.9
						C-29.5,44.6-31.2,46.4-33.4,46.4z"/>
				</g>
				<g id="Kyrgyzstan" transform="translate(326.2237963519474,381.6312150130854)">
					<path id="p_711.8883811486195" class="st0" d="M-48.3,27c-2,0-3.7-1.7-3.7-3.7s1.7-3.7,3.7-3.7l0,0c2,0,3.7,1.7,3.7,3.7
						S-46.3,27-48.3,27L-48.3,27z"/>
				</g>
				<g id="Georgia" transform="translate(54.40172041422389,342.34610831728696)">
					<path id="p_400.52905219403556" class="st0" d="M-26.4,29.9c-1.9,0-3.5-1.6-3.5-3.5s1.6-3.5,3.5-3.5s3.5,1.6,3.5,3.5
						S-24.5,29.9-26.4,29.9z"/>
				</g>
				<g id="Kuwait" transform="translate(254.22357968495837,437.999796884087)">
					<path id="p_695.9549054727328" class="st0" d="M-42.5,22.2c-1.9,0-3.4-1.5-3.4-3.4s1.5-3.4,3.4-3.4l0,0c1.9,0,3.4,1.5,3.4,3.4
						S-40.6,22.2-42.5,22.2L-42.5,22.2z"/>
				</g>
				<g id="Lao_People_x27_s_Democratic_Republic" transform="translate(350.5056109662771,335.02892518725145)">
					<path id="p_688.2160111175788" class="st0" d="M-50.3,29.5c-1.4,0-2.5-1.1-2.5-2.5s1.1-2.5,2.5-2.5s2.5,1.1,2.5,2.5
						S-48.9,29.5-50.3,29.5z"/>
				</g>
				<g id="Mongolia" transform="translate(152.78253443337383,438.884655269253)">
					<path id="p_594.2327105673555" class="st0" d="M-34.3,21c-1.3,0-2.4-1.1-2.4-2.4s1.1-2.4,2.4-2.4s2.4,1.1,2.4,2.4
						S-33,21-34.3,21z"/>
				</g>
				<g id="United_Arab_Emirates" transform="translate(45.88678642167861,297.61826547192214)">
					<path id="p_345.901994243468" class="st0" d="M-25.7,32.3c-1.2,0-2.2-1-2.2-2.2s1-2.2,2.2-2.2s2.2,1,2.2,2.2
						S-24.5,32.3-25.7,32.3z"/>
				</g>
				<g id="Cyprus" transform="translate(49.139639658695586,319.9014063821715)">
					<path id="p_371.29682210452813" class="st0" d="M-25.9,30.3c-1.1,0-2.1-0.9-2.1-2.1c0-1.1,0.9-2.1,2.1-2.1l0,0
						c1.1,0,2.1,0.9,2.1,2.1C-23.9,29.4-24.8,30.3-25.9,30.3L-25.9,30.3z"/>
				</g>
				<g id="Brunei_Darussalam" transform="translate(353.2214179331143,316.45779481795773)">
					<path id="p_671.5477543284198" class="st0" d="M-50.5,30.3c-0.9,0-1.7-0.8-1.7-1.7c0-0.9,0.8-1.7,1.7-1.7s1.7,0.8,1.7,1.7
						S-49.6,30.3-50.5,30.3z"/>
				</g>
				<g id="Tajikistan" transform="translate(290.8203615429846,417.9445736037126)">
					<path id="p_710.6297729709934" class="st0" d="M-45.5,22.1c-0.9,0-1.7-0.8-1.7-1.7c0-0.9,0.8-1.7,1.7-1.7s1.7,0.8,1.7,1.7
						C-43.7,21.3-44.5,22.1-45.5,22.1z"/>
				</g>
				<g id="Bahrain" transform="translate(53.53575138285021,231.82913371176187)">
					<path id="p_287.16942932108594" class="st0" d="M-26.3,37c-0.9,0-1.7-0.7-1.7-1.7c0-0.9,0.7-1.7,1.7-1.7l0,0
						c0.9,0,1.7,0.7,1.7,1.7C-24.6,36.3-25.4,37-26.3,37L-26.3,37z"/>
				</g>
				<g id="Democratic_People_x27_s_Republic_of_Korea" transform="translate(355.93374451642217,266.38722687880636)">
					<path id="p_623.9461038304947" class="st0" d="M-50.7,34.1c-0.8,0-1.5-0.7-1.5-1.5s0.7-1.5,1.5-1.5s1.5,0.7,1.5,1.5
						C-49.2,33.4-49.9,34.1-50.7,34.1z"/>
				</g>
				<g id="Turkmenistan" transform="translate(350.8793142756955,236.6093110981813)">
					<path id="p_588.9526147452511" class="st0" d="M-50.3,36.3c-0.7,0-1.3-0.6-1.3-1.3s0.6-1.3,1.3-1.3l0,0c0.7,0,1.3,0.6,1.3,1.3
						S-49.6,36.3-50.3,36.3L-50.3,36.3z"/>
				</g>
				<g id="China_x2C__Macao_Special_Administrative_Region" transform="translate(46.73735964307363,264.6483095165859)">
					<path id="p_312.78692116409206" class="st0" d="M-25.8,34c-0.7,0-1.3-0.6-1.3-1.3s0.6-1.3,1.3-1.3l0,0c0.7,0,1.3,0.6,1.3,1.3
						S-25,34-25.8,34L-25.8,34z"/>
				</g>
				<g id="Oman" transform="translate(191.23513454204704,130.95215522066277)">
					<path id="p_323.4093256287842" class="st0" d="M-37.4,44.6c-0.6,0-1.1-0.5-1.1-1.1s0.5-1.1,1.1-1.1l0,0c0.6,0,1.1,0.5,1.1,1.1
						C-36.3,44.1-36.8,44.6-37.4,44.6L-37.4,44.6z"/>
				</g>
				<g id="Qatar" transform="translate(215.82945156073245,131.5387618770981)">
					<path id="p_348.41006753274985" class="st0" d="M-39.4,44.4c-0.5,0-1-0.4-1-1s0.4-1,1-1l0,0c0.5,0,1,0.4,1,1
						S-38.9,44.4-39.4,44.4L-39.4,44.4z"/>
				</g>
				<g id="Maldives" transform="translate(117.57271307900666,422.4800827103576)">
					<path id="p_540.5005669056704" class="st0" d="M-31.5,20.4c-0.2,0-0.4-0.2-0.4-0.4c0-0.2,0.2-0.4,0.4-0.4
						c0.2,0,0.4,0.2,0.4,0.4C-31.1,20.2-31.2,20.4-31.5,20.4z"/>
				</g>
				<g id="UK" transform="translate(461.6335729503185,291.4294065007495)">
					<path id="p_810.310573885348" class="st5" d="M-59.3,83.2c-29.1,0-52.6-23.6-52.6-52.6S-88.3-22-59.3-22S-6.6,1.5-6.6,30.6
						S-30.2,83.2-59.3,83.2z"/>
				</g>
				<g id="Poland" transform="translate(551.9459568255355,291.4294065007495)">
					<path id="p_872.7754466320473" class="st5" d="M-66.5,57.6c-14.9,0-27-12.1-27-27s12.1-27,27-27l0,0c14.9,0,27,12.1,27,27
						S-51.6,57.6-66.5,57.6L-66.5,57.6z"/>
				</g>
				<g id="France" transform="translate(529.4518415057279,346.5910324880746)">
					<path id="p_902.5498077576407" class="st5" d="M-64.7,50.5c-13.5,0-24.4-10.9-24.4-24.4S-78.2,1.7-64.7,1.7
						s24.4,10.9,24.4,24.4S-51.3,50.5-64.7,50.5z"/>
				</g>
				<g id="Romania" transform="translate(529.0401497931839,237.88670023554644)">
					<path id="p_792.0986246176634" class="st5" d="M-64.7,58c-12.8,0-23.1-10.4-23.1-23.1s10.4-23.1,23.1-23.1l0,0
						c12.8,0,23.1,10.4,23.1,23.1S-51.9,58-64.7,58L-64.7,58z"/>
				</g>
				<g id="Russian_Federation" transform="translate(485.80769227440413,213.2417763467451)">
					<path id="p_719.9766056975785" class="st5" d="M-61.2,56.1c-10.6,0-19.2-8.6-19.2-19.2s8.6-19.2,19.2-19.2S-42,26.3-42,36.9
						S-50.6,56.1-61.2,56.1z"/>
				</g>
				<g id="Portugal" transform="translate(484.1805764789052,369.92896958667956)">
					<path id="p_874.8706730769535" class="st5" d="M-61.1,43.3c-10.5,0-19.1-8.5-19.1-19.1s8.5-19.1,19.1-19.1l0,0
						c10.5,0,19.1,8.5,19.1,19.1S-50.5,43.3-61.1,43.3L-61.1,43.3z"/>
				</g>
				<g id="Germany" transform="translate(576.8062325713354,245.14078235359523)">
					<path id="p_841.4243041980466" class="st5" d="M-68.6,52.2c-9.9,0-17.9-8-17.9-17.9s8-17.9,17.9-17.9l0,0
						c9.9,0,17.9,8,17.9,17.9C-50.6,44.2-58.7,52.2-68.6,52.2C-68.5,52.2-68.6,52.2-68.6,52.2z"/>
				</g>
				<g id="Ukraine" transform="translate(577.4573847791359,336.64694466718595)">
					<path id="p_932.9573472979206" class="st5" d="M-68.6,44.2c-9.6,0-17.3-7.8-17.3-17.3s7.8-17.3,17.3-17.3
						c9.6,0,17.3,7.8,17.3,17.3S-59,44.2-68.6,44.2z"/>
				</g>
				<g id="Bulgaria" transform="translate(448.9838110642237,218.94197099895172)">
					<path id="p_680.5963924269137" class="st5" d="M-58.2,48.1c-6.4,0-11.6-5.2-11.6-11.6s5.2-11.6,11.6-11.6l0,0
						c6.4,0,11.6,5.2,11.6,11.6S-51.8,48.1-58.2,48.1L-58.2,48.1z"/>
				</g>
				<g id="Bosnia_and_Herzegovina" transform="translate(448.0542103818906,363.363485252355)">
					<path id="p_823.7099767083398" class="st5" d="M-58.2,36.1c-6.2,0-11.3-5.1-11.3-11.3s5.1-11.3,11.3-11.3s11.3,5.1,11.3,11.3
						S-51.9,36.1-58.2,36.1z"/>
				</g>
				<g id="Netherlands" transform="translate(519.1474486577356,198.3437540843107)">
					<path id="p_729.4163476733862" class="st5" d="M-63.9,49c-6.1,0-11-4.9-11-11s4.9-11,11-11l0,0c6.1,0,11,4.9,11,11
						S-57.8,49-63.9,49L-63.9,49z"/>
				</g>
				<g id="Italy" transform="translate(515.8273559430546,385.08627046193396)">
					<path id="p_911.5771423586423" class="st5" d="M-63.6,32.8c-5.4,0-9.8-4.4-9.8-9.8s4.4-9.8,9.8-9.8s9.8,4.4,9.8,9.8
						S-58.2,32.8-63.6,32.8z"/>
				</g>
				<g id="Albania" transform="translate(424.7864280517065,230.35337035300114)">
					<path id="p_665.5576757314309" class="st5" d="M-56.3,45.1c-5.3,0-9.6-4.3-9.6-9.6s4.3-9.6,9.6-9.6l0,0c5.3,0,9.6,4.3,9.6,9.6
						S-51,45.1-56.3,45.1L-56.3,45.1z"/>
				</g>
				<g id="Hungary" transform="translate(424.24013457277294,352.12370375079945)">
					<path id="p_786.7401550248485" class="st5" d="M-56.2,35.2c-5.3,0-9.5-4.3-9.5-9.5s4.3-9.5,9.5-9.5s9.5,4.3,9.5,9.5
						S-51,35.2-56.2,35.2z"/>
				</g>
				<g id="Republic_of_Moldova" transform="translate(592.0568738365724,274.9165780685247)">
					<path id="p_877.2856052598252" class="st5" d="M-69.8,41.4c-5.2,0-9.5-4.2-9.5-9.5s4.2-9.5,9.5-9.5s9.5,4.2,9.5,9.5
						S-64.5,41.4-69.8,41.4z"/>
				</g>
				<g id="Ireland" transform="translate(591.8157170701951,307.54085440578024)">
					<path id="p_909.2938347251503" class="st5" d="M-69.8,38.4c-5,0-9.1-4.1-9.1-9.1s4.1-9.1,9.1-9.1l0,0c5,0,9.1,4.1,9.1,9.1
						S-64.7,38.4-69.8,38.4L-69.8,38.4z"/>
				</g>
				<g id="Switzerland" transform="translate(407.5017788899421,246.39818492669153)">
					<path id="p_663.4011707911646" class="st5" d="M-54.9,42.9c-4.8,0-8.7-3.9-8.7-8.7s3.9-8.7,8.7-8.7l0,0c4.8,0,8.7,3.9,8.7,8.7
						S-50.1,42.9-54.9,42.9L-54.9,42.9z"/>
				</g>
				<g id="Belgium" transform="translate(409.35412950959164,336.08387574274894)">
					<path id="p_753.2800633065896" class="st5" d="M-55,34.2c-4,0-7.2-3.2-7.2-7.2s3.2-7.2,7.2-7.2s7.2,3.2,7.2,7.2
						S-51.1,34.2-55,34.2z"/>
				</g>
				<g id="Greece" transform="translate(560.3921760579946,218.87886594852745)">
					<path id="p_787.0985397243696" class="st5" d="M-67.2,43.6c-4,0-7.2-3.2-7.2-7.2s3.2-7.2,7.2-7.2l0,0c4,0,7.2,3.2,7.2,7.2
						C-60,40.4-63.3,43.6-67.2,43.6L-67.2,43.6z"/>
				</g>
				<g id="Croatia" transform="translate(458.18811049112327,197.02326905761032)">
					<path id="p_662.6489177949578" class="st5" d="M-59,45c-3.8,0-6.8-3.1-6.8-6.8s3.1-6.8,6.8-6.8l0,0c3.8,0,6.8,3.1,6.8,6.8
						C-52.1,42-55.2,45-59,45L-59,45z"/>
				</g>
				<g id="Belarus" transform="translate(456.2608502189749,385.2584423948997)">
					<path id="p_848.9447365376059" class="st5" d="M-58.8,29.8c-3.8,0-6.8-3.1-6.8-6.8c0-3.8,3.1-6.8,6.8-6.8l0,0
						c3.8,0,6.8,3.1,6.8,6.8S-55,29.8-58.8,29.8L-58.8,29.8z"/>
				</g>
				<g id="Slovakia" transform="translate(562.8198199035893,361.61052123808355)">
					<path id="p_930.8511461551253" class="st5" d="M-67.4,30.8c-3.3,0-5.9-2.6-5.9-5.9s2.6-5.9,5.9-5.9l0,0c3.3,0,5.9,2.6,5.9,5.9
						S-64.2,30.8-67.4,30.8L-67.4,30.8z"/>
				</g>
				<g id="Sweden" transform="translate(539.5265375170619,204.86743468086433)">
					<path id="p_750.2019170754377" class="st5" d="M-65.5,42.9c-2.9,0-5.3-2.4-5.3-5.3c0-2.9,2.4-5.3,5.3-5.3l0,0
						c2.9,0,5.3,2.4,5.3,5.3S-62.6,42.9-65.5,42.9L-65.5,42.9z"/>
				</g>
				<g id="The_former_Yugoslav_Republic_of_Macedonia" transform="translate(401.81821296007564,320.65730762097957)">
					<path id="p_728.1375956726333" class="st5" d="M-54.4,33.4c-2.9,0-5.2-2.3-5.2-5.2s2.3-5.2,5.2-5.2s5.2,2.3,5.2,5.2
						S-51.5,33.4-54.4,33.4z"/>
				</g>
				<g id="Austria" transform="translate(401.3256466658339,263.89129649262725)">
					<path id="p_670.60240631867" class="st5" d="M-54.4,37.7c-2.7,0-5-2.2-5-5s2.2-5,5-5s5,2.2,5,5S-51.7,37.7-54.4,37.7z"/>
				</g>
				<g id="Czech_Republic" transform="translate(535.2411221268314,381.67172296623386)">
					<path id="p_922.2963822367041" class="st5" d="M-65.2,28.2c-2.7,0-4.9-2.2-4.9-4.9s2.2-4.9,4.9-4.9c2.7,0,4.9,2.2,4.9,4.9
						S-62.5,28.2-65.2,28.2z"/>
				</g>
				<g id="Spain" transform="translate(428.69403199033707,211.334193414889)">
					<path id="p_645.3620901237864" class="st5" d="M-56.6,41.9c-2.7,0-4.9-2.2-4.9-4.9s2.2-4.9,4.9-4.9l0,0c2.7,0,4.9,2.2,4.9,4.9
						C-51.7,39.7-53.9,41.9-56.6,41.9L-56.6,41.9z"/>
				</g>
				<g id="Denmark" transform="translate(428.7406760369487,370.111845723613)">
					<path id="p_803.3541018995528" class="st5" d="M-56.6,28.3c-2.3,0-4.1-1.9-4.1-4.1s1.9-4.1,4.1-4.1l0,0c2.3,0,4.1,1.9,4.1,4.1
						S-54.3,28.3-56.6,28.3L-56.6,28.3z"/>
				</g>
				<g id="Lithuania" transform="translate(398.6859365923634,307.6178364541898)">
					<path id="p_710.3873968678695" class="st5" d="M-54.2,33c-2.1,0-3.8-1.7-3.8-3.8s1.7-3.8,3.8-3.8s3.8,1.7,3.8,3.8
						S-52.1,33-54.2,33z"/>
				</g>
				<g id="Latvia" transform="translate(398.42165721180345,276.62468183739503)">
					<path id="p_679.0565011848113" class="st5" d="M-54.1,35.4c-2,0-3.7-1.7-3.7-3.7s1.7-3.7,3.7-3.7s3.7,1.7,3.7,3.7
						S-52.1,35.4-54.1,35.4z"/>
				</g>
				<g id="Finland" transform="translate(501.74877850839425,189.70444202365104)">
					<path id="p_695.2889051298838" class="st5" d="M-62.5,42.3c-1.9,0-3.5-1.6-3.5-3.5s1.6-3.5,3.5-3.5s3.5,1.6,3.5,3.5
						S-60.5,42.3-62.5,42.3z"/>
				</g>
				<g id="Norway" transform="translate(598.2332350594037,291.4762027482452)">
					<path id="p_893.406531115242" class="st5" d="M-70.3,34c-1.9,0-3.4-1.5-3.4-3.4s1.5-3.4,3.4-3.4s3.4,1.5,3.4,3.4
						S-68.4,34-70.3,34z"/>
				</g>
				<g id="Serbia" transform="translate(499.80619034923234,393.2684702382827)">
					<path id="p_896.7360505057524" class="st5" d="M-62.3,25.7c-1.9,0-3.4-1.5-3.4-3.4s1.5-3.4,3.4-3.4s3.4,1.5,3.4,3.4
						C-59,24.2-60.5,25.7-62.3,25.7z"/>
				</g>
				<g id="Estonia" transform="translate(398.4536658570646,297.3296168354558)">
					<path id="p_698.3257939367177" class="st5" d="M-54.2,32.4c-1.3,0-2.3-1-2.3-2.3s1-2.3,2.3-2.3s2.3,1,2.3,2.3
						C-51.8,31.4-52.9,32.4-54.2,32.4z"/>
				</g>
				<g id="Malta" transform="translate(398.402438033862,286.78845276283374)">
					<path id="p_687.6798116225787" class="st5" d="M-54.1,33.2c-1.3,0-2.3-1-2.3-2.3s1-2.3,2.3-2.3l0,0c1.3,0,2.3,1,2.3,2.3
						C-51.9,32.2-52.9,33.2-54.1,33.2L-54.1,33.2z"/>
				</g>
				<g id="Slovenia" transform="translate(548.0325479928491,213.7182209767263)">
					<path id="p_763.6523197221038" class="st5" d="M-66.2,38.6c-1,0-1.7-0.8-1.7-1.7c0-1,0.8-1.7,1.7-1.7c1,0,1.7,0.8,1.7,1.7
						S-65.3,38.6-66.2,38.6z"/>
				</g>
				<g id="Iceland" transform="translate(392.35455164088876,292.047668144833)">
					<path id="p_686.2633464862917" class="st5" d="M-53.7,32.2c-0.9,0-1.7-0.8-1.7-1.7s0.8-1.7,1.7-1.7l0,0c0.9,0,1.7,0.8,1.7,1.7
						C-51.9,31.5-52.7,32.2-53.7,32.2L-53.7,32.2z"/>
				</g>
				<g id="Luxembourg" transform="translate(549.8716452533688,207.26269165000042)">
					<path id="p_758.2804668952991" class="st5" d="M-66.4,38.4c-0.6,0-1.1-0.5-1.1-1.1s0.5-1.1,1.1-1.1s1.1,0.5,1.1,1.1
						S-65.8,38.4-66.4,38.4z"/>
				</g>
				<g id="Montenegro" transform="translate(553.1146975165495,366.6543561092387)">
					<path id="p_920.621077425901" class="st5" d="M-66.6,25.3c-0.4,0-0.8-0.4-0.8-0.8s0.4-0.8,0.8-0.8s0.8,0.4,0.8,0.8
						S-66.2,25.3-66.6,25.3z"/>
				</g>
				<g id="Liechtenstein" transform="translate(410.3105193806453,348.0300723886536)">
					<path id="p_758.818246459741" class="st5" d="M-55.1,26.4c-0.2,0-0.4-0.2-0.4-0.4s0.2-0.4,0.4-0.4s0.4,0.2,0.4,0.4
						S-54.9,26.4-55.1,26.4z"/>
				</g>
				<g id="Monaco" transform="translate(541.6583253704164,374.6721664143628)">
					<path id="p_916.7782629010853" class="st5" d="M-65.7,24.3c-0.2,0-0.4-0.2-0.4-0.4c0-0.2,0.2-0.4,0.4-0.4
						c0.2,0,0.4,0.2,0.4,0.4C-65.3,24.1-65.5,24.3-65.7,24.3z"/>
				</g>
				<g id="Andorra" transform="translate(410.68456540141017,233.2911407573397)">
					<path id="p_644.2977408853508" class="st5" d="M-55.1,35.6c-0.2,0-0.3-0.1-0.3-0.3s0.1-0.3,0.3-0.3l0,0c0.2,0,0.3,0.1,0.3,0.3
						C-54.8,35.4-55,35.6-55.1,35.6L-55.1,35.6z"/>
				</g>
				<g id="San_Marino" transform="translate(469.2433301107199,194.84103007812115)">
					<path id="p_664.2506582065779" class="st5" d="M-59.9,38.5c-0.1,0-0.2-0.1-0.2-0.2c0-0.1,0.1-0.2,0.2-0.2
						c0.1,0,0.2,0.1,0.2,0.2S-59.8,38.5-59.9,38.5z"/>
				</g>
				<g id="Jamaica" transform="translate(377.55721277121614,480.7797477086271)">
					<path id="p_884.0302733094121" class="st7" d="M-52.5,38.9c-13,0-23.6-10.6-23.6-23.6S-65.5-8.3-52.5-8.3s23.6,10.6,23.6,23.6
						S-39.4,38.9-52.5,38.9z"/>
				</g>
				<g id="Haiti" transform="translate(429.3957776552139,480.7797477086271)">
					<path id="p_932.6560712830953" class="st7" d="M-56.7,35.9c-11.4,0-20.7-9.3-20.7-20.7s9.3-20.7,20.7-20.7l0,0
						C-45.2-5.4-36,3.9-36,15.3S-45.2,35.9-56.7,35.9C-56.6,35.9-56.6,35.9-56.7,35.9z"/>
				</g>
				<g id="Colombia" transform="translate(406.5685292054958,523.3270667525853)">
					<path id="p_952.034478250387" class="st7" d="M-54.8,32.2c-11.2,0-20.4-9.1-20.4-20.3s9.1-20.4,20.3-20.4l0,0
						c11.2,0,20.4,9.1,20.4,20.3C-34.5,23.1-43.6,32.2-54.8,32.2L-54.8,32.2z"/>
				</g>
				<g id="Guyana" transform="translate(406.50300741207667,439.4723167466953)">
					<path id="p_867.0570006735379" class="st7" d="M-54.8,38c-10.7,0-19.4-8.7-19.4-19.4s8.7-19.4,19.4-19.4s19.4,8.7,19.4,19.4
						S-44.1,38-54.8,38z"/>
				</g>
				<g id="Mexico" transform="translate(362.2517434179538,434.02410138430946)">
					<path id="p_816.1148567980192" class="st7" d="M-51.2,37.3c-10.1,0-18.2-8.2-18.2-18.2s8.2-18.2,18.2-18.2S-33,9-33,19
						S-41.2,37.3-51.2,37.3z"/>
				</g>
				<g id="El_Salvador" transform="translate(362.09004288082986,526.3635608874957)">
					<path id="p_907.2320301266851" class="st7" d="M-51.2,28.9c-9.5,0-17.3-7.7-17.3-17.3s7.7-17.3,17.3-17.3l0,0
						c9.5,0,17.3,7.7,17.3,17.3S-41.7,28.9-51.2,28.9L-51.2,28.9z"/>
				</g>
				<g id="Trinidad_and_Tobago" transform="translate(449.11200381733363,441.38747842566966)">
					<path id="p_908.4051150075753" class="st7" d="M-58.2,34.9c-9.1,0-16.5-7.4-16.5-16.5c0-9,7.4-16.4,16.5-16.4l0,0
						c9.1,0,16.5,7.4,16.5,16.5C-41.8,27.5-49.1,34.9-58.2,34.9L-58.2,34.9z"/>
				</g>
				<g id="Peru" transform="translate(446.6862047043807,517.7801332059906)">
					<path id="p_979.1620872454293" class="st7" d="M-58,25.8c-7.5,0-13.5-6-13.5-13.5s6-13.5,13.5-13.5s13.5,6,13.5,13.5
						S-50.6,25.8-58,25.8z"/>
				</g>
				<g id="Brazil" transform="translate(337.96492800121536,462.7781171838491)">
					<path id="p_814.8776430059256" class="st7" d="M-49.3,29.7c-7.2,0-13-5.8-13-13s5.8-13,13-13s13,5.8,13,13
						S-42.1,29.7-49.3,29.7z"/>
				</g>
				<g id="Venezuela__x28_Bolivarian_Republic_of_x29_" transform="translate(340.66549265923413,499.4238388911525)">
					<path id="p_852.0665414932366" class="st7" d="M-49.5,24.8c-6.1,0-11-4.9-11-11s4.9-11,11-11l0,0c6.1,0,11,4.9,11,11
						S-43.4,24.8-49.5,24.8L-49.5,24.8z"/>
				</g>
				<g id="Cuba" transform="translate(464.912286349275,493.8677449571765)">
					<path id="p_970.4860416060493" class="st7" d="M-59.5,25c-5.9,0-10.8-4.8-10.8-10.8c0-5.9,4.8-10.8,10.8-10.8l0,0
						c5.9,0,10.8,4.8,10.8,10.8C-48.8,20.2-53.6,25-59.5,25L-59.5,25z"/>
				</g>
				<g id="Guatemala" transform="translate(469.27062472308296,467.4644249553586)">
					<path id="p_948.1249464746662" class="st7" d="M-59.9,26.8c-5.8,0-10.5-4.7-10.5-10.5s4.7-10.5,10.5-10.5s10.5,4.7,10.5,10.5
						S-54.1,26.8-59.9,26.8z"/>
				</g>
				<g id="Argentina" transform="translate(386.73901079382614,409.52418920904677)">
					<path id="p_807.3986498777282" class="st7" d="M-53.2,31.3c-5.7,0-10.2-4.6-10.2-10.2s4.6-10.2,10.2-10.2S-43,15.4-43,21
						S-47.6,31.3-53.2,31.3z"/>
				</g>
				<g id="Chile" transform="translate(383.5302026621797,551.9050542854732)">
					<path id="p_946.3395132041956" class="st7" d="M-52.9,19.6c-5.5,0-10-4.5-10-10s4.5-10,10-10s10,4.5,10,10
						S-47.4,19.6-52.9,19.6z"/>
				</g>
				<g id="Nicaragua" transform="translate(435.4960236179763,542.8556596510018)">
					<path id="p_987.4503279158466" class="st7" d="M-57.1,18.6c-4.6,0-8.4-3.7-8.4-8.4s3.7-8.4,8.4-8.4s8.4,3.7,8.4,8.4
						S-52.5,18.6-57.1,18.6z"/>
				</g>
				<g id="Ecuador" transform="translate(431.26368225319953,416.6955214047323)">
					<path id="p_856.8561476068502" class="st7" d="M-56.8,28.6c-4.5,0-8.2-3.7-8.2-8.2s3.7-8.2,8.2-8.2l0,0c4.5,0,8.2,3.7,8.2,8.2
						C-48.6,25-52.3,28.6-56.8,28.6L-56.8,28.6z"/>
				</g>
				<g id="Dominican_Republic" transform="translate(321.95670863793475,483.87581158031713)">
					<path id="p_814.5167167111687" class="st7" d="M-48,23c-4.4,0-8-3.6-8-8s3.6-8,8-8s8,3.6,8,8S-43.6,23-48,23z"/>
				</g>
				<g id="Saint_Vincent_and_the_Grenadines" transform="translate(472.8610528743992,515.7327851857939)">
					<path id="p_996.4881785449727" class="st7" d="M-60.2,19.7c-4,0-7.3-3.2-7.3-7.3c0-4,3.2-7.3,7.3-7.3l0,0c4,0,7.3,3.2,7.3,7.3
						S-56.1,19.7-60.2,19.7L-60.2,19.7z"/>
				</g>
				<g id="Grenada" transform="translate(332.4940461637866,521.1846620064553)">
					<path id="p_861.2812744586513" class="st7" d="M-48.8,19c-3.9,0-7-3.1-7-7s3.1-7,7-7l0,0c3.9,0,7,3.1,7,7S-45,19-48.8,19
						L-48.8,19z"/>
				</g>
				<g id="Honduras" transform="translate(413.35433403321525,408.2129945816395)">
					<path id="p_828.8222881037726" class="st7" d="M-55.4,27.8c-3.7,0-6.7-3-6.7-6.7s3-6.7,6.7-6.7s6.7,3,6.7,6.7
						S-51.7,27.8-55.4,27.8z"/>
				</g>
				<g id="Barbados" transform="translate(402.1584856446268,395.20880364058974)">
					<path id="p_803.607344030977" class="st7" d="M-54.5,27.9c-3.2,0-5.7-2.6-5.7-5.7s2.6-5.7,5.7-5.7l0,0c3.2,0,5.7,2.6,5.7,5.7
						S-51.3,27.9-54.5,27.9L-54.5,27.9z"/>
				</g>
				<g id="Saint_Lucia" transform="translate(419.55599870557245,551.8552180478376)">
					<path id="p_976.9529594031449" class="st7" d="M-55.9,14.6c-2.8,0-5.1-2.3-5.1-5.1s2.3-5.1,5.1-5.1s5.1,2.3,5.1,5.1
						S-53,14.6-55.9,14.6z"/>
				</g>
				<g id="Costa_Rica" transform="translate(333.8702058842405,439.8685423833644)">
					<path id="p_779.2120755928456" class="st7" d="M-48.9,23.6c-2.8,0-5-2.3-5-5s2.3-5,5-5c2.8,0,5,2.3,5,5S-46.2,23.6-48.9,23.6z"
						/>
				</g>
				<g id="Uruguay" transform="translate(403.3395596667414,554.3543272545078)">
					<path id="p_963.0851240027594" class="st7" d="M-54.5,14.3c-2.7,0-5-2.2-5-5c0-2.7,2.2-5,5-5l0,0c2.7,0,5,2.2,5,5
						C-49.6,12.1-51.8,14.3-54.5,14.3L-54.5,14.3z"/>
				</g>
				<g id="Panama" transform="translate(474.3581309490631,448.4367431188136)">
					<path id="p_927.4363467778883" class="st7" d="M-60.3,22.2c-2.4,0-4.3-1.9-4.3-4.3s1.9-4.3,4.3-4.3l0,0c2.4,0,4.3,1.9,4.3,4.3
						S-57.9,22.2-60.3,22.2L-60.3,22.2z"/>
				</g>
				<g id="Bolivia__x28_Plurinational_State_of_x29_" transform="translate(452.5799306627405,539.9380557253596)">
					<path id="p_997.0858875106677" class="st7" d="M-58.5,14.7c-2.3,0-4.2-1.9-4.2-4.2s1.9-4.2,4.2-4.2s4.2,1.9,4.2,4.2
						S-56.2,14.7-58.5,14.7z"/>
				</g>
				<g id="Dominica" transform="translate(480.50119006367123,482.6515660112754)">
					<path id="p_966.9866377657065" class="st7" d="M-60.8,18.6c-1.9,0-3.5-1.6-3.5-3.5s1.6-3.5,3.5-3.5l0,0c1.9,0,3.5,1.6,3.5,3.5
						S-58.8,18.6-60.8,18.6L-60.8,18.6z"/>
				</g>
				<g id="Paraguay" transform="translate(447.350323008143,416.3503478711746)">
					<path id="p_867.2293643449093" class="st7" d="M-58.1,23.7c-1.8,0-3.2-1.5-3.2-3.2s1.5-3.2,3.2-3.2s3.2,1.5,3.2,3.2
						S-56.3,23.7-58.1,23.7z"/>
				</g>
				<g id="Belize" transform="translate(412.62617276773744,561.4599772305625)">
					<path id="p_976.7234289410459" class="st7" d="M-55.3,11.2c-1.3,0-2.4-1.1-2.4-2.4s1.1-2.4,2.4-2.4l0,0c1.3,0,2.4,1.1,2.4,2.4
						C-52.9,10.1-54,11.2-55.3,11.2L-55.3,11.2z"/>
				</g>
				<g id="Antigua_and_Barbuda" transform="translate(369.3458069081754,408.89835657414915)">
					<path id="p_780.8484668978191" class="st7" d="M-51.8,23.5c-1.3,0-2.4-1.1-2.4-2.4s1.1-2.4,2.4-2.4s2.4,1.1,2.4,2.4
						C-49.4,22.4-50.5,23.5-51.8,23.5z"/>
				</g>
				<g id="Bahamas" transform="translate(366.80068764701025,550.5665494791921)">
					<path id="p_919.5812502680196" class="st7" d="M-51.6,11.7c-1.1,0-2-0.9-2-2s0.9-2,2-2l0,0c1.1,0,2,0.9,2,2
						S-50.5,11.7-51.6,11.7L-51.6,11.7z"/>
				</g>
				<g id="Suriname" transform="translate(465.0264304402537,527.0067117409701)">
					<path id="p_994.2029967793981" class="st7" d="M-59.5,13.5c-1.1,0-2-0.9-2-2s0.9-2,2-2s2,0.9,2,2S-58.4,13.5-59.5,13.5z"/>
				</g>
				<g id="Saint_Kitts_and_Nevis" transform="translate(425.3870964780363,403.27908240563835)">
					<path id="p_830.7515454169431" class="st7" d="M-56.3,23.4c-1.1,0-1.9-0.9-1.9-1.9s0.9-1.9,1.9-1.9l0,0c1.1,0,1.9,0.9,1.9,1.9
						S-55.3,23.4-56.3,23.4L-56.3,23.4z"/>
				</g>
				<g id="Morocco" transform="translate(374.2163479086543,110.12601553775609)">
					<path id="p_506.4495255515832" class="st4" d="M-52.2,65.5c-11.2,0-20.3-9.1-20.3-20.3s9.1-20.3,20.3-20.3s20.3,9.1,20.3,20.3
						S-41,65.5-52.2,65.5z"/>
				</g>
				<g id="Egypt" transform="translate(422.0286643199099,110.12601553775609)">
					<path id="p_554.1951280285743" class="st4" d="M-56.1,65.5c-11.2,0-20.3-9.1-20.3-20.3s9.1-20.3,20.3-20.3s20.3,9.1,20.3,20.3
						S-44.9,65.5-56.1,65.5z"/>
				</g>
				<g id="Algeria" transform="translate(398.188929396818,151.29195248984294)">
					<path id="p_571.3463837285279" class="st4" d="M-54.1,62c-11.1,0-20.1-9-20.1-20.1s9-20.1,20.1-20.1l0,0
						c11.1,0,20.1,9,20.1,20.1S-43,62-54.1,62L-54.1,62z"/>
				</g>
				<g id="Somalia" transform="translate(398.18221755049814,74.63233166013629)">
					<path id="p_489.869827768717" class="st4" d="M-54.1,63.7c-8.7,0-15.7-7-15.7-15.7s7-15.7,15.7-15.7l0,0
						c8.7,0,15.7,7,15.7,15.7C-38.4,56.7-45.5,63.7-54.1,63.7L-54.1,63.7z"/>
				</g>
				<g id="Nigeria" transform="translate(361.2475110203556,69.87135790695967)">
					<path id="p_447.6391771645144" class="st4" d="M-51.1,63.6c-8.4,0-15.2-6.8-15.2-15.2s6.8-15.2,15.2-15.2l0,0
						c8.4,0,15.2,6.8,15.2,15.2S-42.8,63.6-51.1,63.6L-51.1,63.6z"/>
				</g>
				<g id="South_Africa" transform="translate(434.7017459872279,70.33947821574901)">
					<path id="p_521.0922137684488" class="st4" d="M-57.1,63.2c-8.1,0-14.8-6.6-14.8-14.8s6.6-14.8,14.8-14.8s14.8,6.6,14.8,14.8
						S-48.9,63.2-57.1,63.2z"/>
				</g>
				<g id="Ethiopia" transform="translate(357.29138601990724,147.78684386847925)">
					<path id="p_520.5954924876651" class="st4" d="M-50.8,56.4c-7.9,0-14.3-6.4-14.3-14.3s6.4-14.3,14.3-14.3s14.3,6.4,14.3,14.3
						S-43,56.4-50.8,56.4z"/>
				</g>
				<g id="Democratic_Republic_of_the_Congo" transform="translate(436.6736026642201,146.25832838658877)">
					<path id="p_596.2141881862999" class="st4" d="M-57.2,54.5c-6.7,0-12.2-5.5-12.2-12.2s5.5-12.2,12.2-12.2S-45,35.5-45,42.3
						S-50.5,54.5-57.2,54.5z"/>
				</g>
				<g id="Ghana" transform="translate(457.55604024214193,94.11534244855939)">
					<path id="p_564.9346270261937" class="st4" d="M-58.9,58.7c-6.7,0-12.2-5.5-12.2-12.2s5.5-12.2,12.2-12.2s12.2,5.5,12.2,12.2
						S-52.2,58.7-58.9,58.7z"/>
				</g>
				<g id="Sudan" transform="translate(340.8943025933088,93.88808356630632)">
					<path id="p_446.0784169520883" class="st4" d="M-49.5,56.9c-5.7,0-10.4-4.6-10.4-10.4c0-5.7,4.6-10.4,10.4-10.4l0,0
						c5.7,0,10.4,4.6,10.4,10.4C-39.1,52.2-43.8,56.9-49.5,56.9L-49.5,56.9z"/>
				</g>
				<g id="Tunisia" transform="translate(455.3174982924053,125.49342714245049)">
					<path id="p_591.7705199575383" class="st4" d="M-58.7,54c-5.6,0-10.1-4.5-10.1-10.1s4.5-10.1,10.1-10.1l0,0
						c5.6,0,10.1,4.5,10.1,10.1S-53.2,54-58.7,54L-58.7,54z"/>
				</g>
				<g id="Kenya" transform="translate(340.3325479263128,123.3179052914653)">
					<path id="p_474.2397986056548" class="st4" d="M-49.5,53.9c-5.4,0-9.7-4.4-9.7-9.7s4.4-9.7,9.7-9.7s9.7,4.4,9.7,9.7
						S-44.1,53.9-49.5,53.9z"/>
				</g>
				<g id="Cameroon" transform="translate(414.40180903519376,47.94066247957393)">
					<path id="p_472.85580799577883" class="st4" d="M-55.4,59.9c-5.3,0-9.7-4.3-9.7-9.7s4.3-9.7,9.7-9.7s9.7,4.3,9.7,9.7
						S-50.1,59.9-55.4,59.9z"/>
				</g>
				<g id="Mauritius" transform="translate(382.3683050674674,48.23979980631209)">
					<path id="p_440.6557259644647" class="st4" d="M-52.9,59.4c-5.1,0-9.2-4.1-9.2-9.2S-58,41-52.9,41s9.2,4.1,9.2,9.2
						S-47.8,59.4-52.9,59.4z"/>
				</g>
				<g id="Eritrea" transform="translate(426.8023804281983,169.71260778460953)">
					<path id="p_605.0149157249737" class="st4" d="M-56.4,48.2c-4.3,0-7.8-3.5-7.8-7.8s3.5-7.8,7.8-7.8l0,0c4.3,0,7.8,3.5,7.8,7.8
						S-52.1,48.2-56.4,48.2L-56.4,48.2z"/>
				</g>
				<g id="United_Republic_of_Tanzania" transform="translate(371.09853793218736,171.53404727544458)">
					<path id="p_550.9200014968842" class="st4" d="M-51.9,47.9c-4.2,0-7.6-3.4-7.6-7.6s3.4-7.6,7.6-7.6l0,0c4.2,0,7.6,3.4,7.6,7.6
						S-47.7,47.9-51.9,47.9L-51.9,47.9z"/>
				</g>
				<g id="Zimbabwe" transform="translate(324.0347942895028,108.81883132209852)">
					<path id="p_440.4133293722083" class="st4" d="M-48.1,52.3c-3.8,0-6.9-3.1-6.9-6.9s3.1-6.9,6.9-6.9s6.9,3.1,6.9,6.9
						S-44.3,52.3-48.1,52.3z"/>
				</g>
				<g id="Côte_d_x27_Ivoire" transform="translate(473.4557107568421,112.73131594978838)">
					<path id="p_593.7407835268061" class="st4" d="M-60.2,51.9c-3.8,0-6.9-3.1-6.9-6.9c0-3.8,3.1-6.9,6.9-6.9l0,0
						c3.8,0,6.9,3.1,6.9,6.9C-53.3,48.8-56.4,51.9-60.2,51.9L-60.2,51.9z"/>
				</g>
				<g id="Burundi" transform="translate(397.9405077019621,33.85363982002619)">
					<path id="p_439.28217628466746" class="st4" d="M-54.1,58.2c-3.8,0-6.9-3.1-6.9-6.9c0-3.8,3.1-6.9,6.9-6.9l0,0
						c3.8,0,6.9,3.1,6.9,6.9C-47.2,55.2-50.3,58.2-54.1,58.2L-54.1,58.2z"/>
				</g>
				<g id="Senegal" transform="translate(460.73233972502857,146.5460088183643)">
					<path id="p_614.3918422299829" class="st4" d="M-59.2,48.8c-3.6,0-6.5-2.9-6.5-6.5s2.9-6.5,6.5-6.5s6.5,2.9,6.5,6.5
						S-55.6,48.8-59.2,48.8z"/>
				</g>
				<g id="Rwanda" transform="translate(334.4682522619301,73.1090520481229)">
					<path id="p_414.36656217999257" class="st4" d="M-49,54.4c-3.4,0-6.2-2.8-6.2-6.2S-52.4,42-49,42l0,0c3.4,0,6.2,2.8,6.2,6.2
						C-42.7,51.6-45.5,54.4-49,54.4L-49,54.4z"/>
				</g>
				<g id="Guinea" transform="translate(332.9841457467495,141.98564979859785)">
					<path id="p_480.7777404228588" class="st4" d="M-48.9,48c-2.9,0-5.3-2.4-5.3-5.3c0-2.9,2.4-5.3,5.3-5.3l0,0
						c2.9,0,5.3,2.4,5.3,5.3C-43.5,45.6-45.9,48-48.9,48L-48.9,48z"/>
				</g>
				<g id="Libya" transform="translate(460.18813065047993,71.54131237617815)">
					<path id="p_537.5284530572646" class="st4" d="M-59.1,53.6c-2.9,0-5.3-2.4-5.3-5.3S-62,43-59.1,43c2.9,0,5.3,2.4,5.3,5.3
						S-56.2,53.6-59.1,53.6z"/>
				</g>
				<g id="Togo" transform="translate(412.07604806953157,178.41378182839884)">
					<path id="p_595.4300287396331" class="st4" d="M-55.3,44.2c-2.5,0-4.5-2-4.5-4.5s2-4.5,4.5-4.5l0,0c2.5,0,4.5,2,4.5,4.5
						C-50.7,42.2-52.7,44.2-55.3,44.2L-55.3,44.2z"/>
				</g>
				<g id="Uganda" transform="translate(433.2875123989551,45.84049183237603)">
					<path id="p_483.95208013628235" class="st4" d="M-57,54.8c-2.4,0-4.4-2-4.4-4.4s2-4.4,4.4-4.4s4.4,2,4.4,4.4
						S-54.5,54.8-57,54.8z"/>
				</g>
				<g id="Sierra_Leone" transform="translate(386.049908761665,179.08427828465966)">
					<path id="p_569.9316759001655" class="st4" d="M-53.2,44c-2.4,0-4.4-2-4.4-4.4s2-4.4,4.4-4.4l0,0c2.4,0,4.4,2,4.4,4.4
						C-48.7,42.1-50.7,44-53.2,44L-53.2,44z"/>
				</g>
				<g id="Benin" transform="translate(364.439902347738,45.46465274968048)">
					<path id="p_414.3341424691621" class="st4" d="M-51.4,54.5c-2.2,0-4.1-1.8-4.1-4.1c0-2.2,1.8-4.1,4.1-4.1l0,0
						c2.2,0,4.1,1.8,4.1,4.1C-47.3,52.7-49.2,54.5-51.4,54.5L-51.4,54.5z"/>
				</g>
				<g id="Liberia" transform="translate(443.03341812407507,166.59687713163112)">
					<path id="p_613.9930438023758" class="st4" d="M-57.8,44.7c-2.2,0-4-1.8-4-4s1.8-4,4-4s4,1.8,4,4S-55.5,44.7-57.8,44.7z"/>
				</g>
				<g id="Mali" transform="translate(355.29223449132263,170.75532657962287)">
					<path id="p_529.9209128696436" class="st4" d="M-50.7,43.9c-2,0-3.6-1.6-3.6-3.6s1.6-3.6,3.6-3.6l0,0c2,0,3.6,1.6,3.6,3.6
						C-47.1,42.3-48.7,43.9-50.7,43.9L-50.7,43.9z"/>
				</g>
				<g id="Madagascar" transform="translate(399.8394087524714,180.6014844189889)">
					<path id="p_584.2666512662255" class="st4" d="M-54.3,43c-1.9,0-3.5-1.6-3.5-3.5s1.6-3.5,3.5-3.5s3.5,1.6,3.5,3.5
						S-52.3,43-54.3,43z"/>
				</g>
				<g id="Angola" transform="translate(392.7258418177148,189.37897871885826)">
					<path id="p_585.9124641446521" class="st4" d="M-53.7,42.3c-1.9,0-3.5-1.6-3.5-3.5s1.6-3.5,3.5-3.5s3.5,1.6,3.5,3.5
						S-51.8,42.3-53.7,42.3z"/>
				</g>
				<g id="Burkina_Faso" transform="translate(453.0698260126244,158.8903021698909)">
					<path id="p_615.7110609825327" class="st4" d="M-58.6,44.7c-1.9,0-3.4-1.5-3.4-3.4s1.5-3.4,3.4-3.4l0,0c1.9,0,3.4,1.5,3.4,3.4
						C-55.1,43.2-56.7,44.7-58.6,44.7L-58.6,44.7z"/>
				</g>
				<g id="Congo" transform="translate(454.0507505436106,169.6725495964443)">
					<path id="p_627.1344369254045" class="st4" d="M-58.6,43.5c-1.7,0-3.1-1.4-3.1-3.1c0-1.7,1.4-3.1,3.1-3.1l0,0
						c1.7,0,3.1,1.4,3.1,3.1S-56.9,43.5-58.6,43.5L-58.6,43.5z"/>
				</g>
				<g id="Chad" transform="translate(470.030567963865,135.86960766366684)">
					<path id="p_609.2797507014747" class="st4" d="M-59.9,46.2c-1.7,0-3.1-1.4-3.1-3.1s1.4-3.1,3.1-3.1s3.1,1.4,3.1,3.1
						S-58.2,46.2-59.9,46.2z"/>
				</g>
				<g id="Djibouti" transform="translate(335.7714167174163,154.51834851058084)">
					<path id="p_493.6560166788889" class="st4" d="M-49.1,44.7c-1.7,0-3.1-1.4-3.1-3.1c0-1.7,1.4-3.1,3.1-3.1s3.1,1.4,3.1,3.1
						S-47.4,44.7-49.1,44.7z"/>
				</g>
				<g id="Zambia" transform="translate(339.7221889929698,60.33535965496371)">
					<path id="p_403.4155746706475" class="st4" d="M-49.4,52.3c-1.7,0-3.1-1.4-3.1-3.1s1.4-3.1,3.1-3.1s3.1,1.4,3.1,3.1
						S-47.7,52.3-49.4,52.3z"/>
				</g>
				<g id="Seychelles" transform="translate(454.9931212130127,60.29245843603281)">
					<path id="p_518.2123775170768" class="st4" d="M-58.7,51.9c-1.5,0-2.7-1.2-2.7-2.7s1.2-2.7,2.7-2.7l0,0c1.5,0,2.7,1.2,2.7,2.7
						S-57.2,51.9-58.7,51.9L-58.7,51.9z"/>
				</g>
				<g id="Mauritania" transform="translate(325.9314698998173,132.1429665279295)">
					<path id="p_460.71040426976907" class="st4" d="M-48.3,45.8c-1.3,0-2.4-1.1-2.4-2.4c0-1.3,1.1-2.4,2.4-2.4l0,0
						c1.3,0,2.4,1.1,2.4,2.4C-45.9,44.8-47,45.8-48.3,45.8L-48.3,45.8z"/>
				</g>
				<g id="Niger" transform="translate(323.5311366767052,122.59686323186015)">
					<path id="p_448.690824481572" class="st4" d="M-48.1,46.5c-1.3,0-2.4-1.1-2.4-2.4c0-1.3,1.1-2.4,2.4-2.4l0,0
						c1.3,0,2.4,1.1,2.4,2.4C-45.7,45.5-46.8,46.5-48.1,46.5L-48.1,46.5z"/>
				</g>
				<g id="Gabon" transform="translate(323.4191059591909,95.05481982300014)">
					<path id="p_421.0272909124214" class="st4" d="M-48.1,48.8c-1.3,0-2.3-1.1-2.3-2.3s1.1-2.3,2.3-2.3s2.3,1.1,2.3,2.3
						S-46.8,48.8-48.1,48.8z"/>
				</g>
				<g id="Gambia" transform="translate(327.4686189716063,83.4583140042126)">
					<path id="p_412.9670511392667" class="st4" d="M-48.4,49.2c-1,0-1.9-0.8-1.9-1.9c0-1,0.8-1.9,1.9-1.9c1,0,1.9,0.8,1.9,1.9
						S-47.4,49.2-48.4,49.2z"/>
				</g>
				<g id="Central_African_Republic" transform="translate(442.7402949898843,50.23554155597208)">
					<path id="p_494.91161976209776" class="st4" d="M-57.7,51.8c-1,0-1.8-0.8-1.8-1.8s0.8-1.8,1.8-1.8s1.8,0.8,1.8,1.8
						S-56.7,51.8-57.7,51.8z"/>
				</g>
				<g id="Botswana" transform="translate(421.479248148052,182.4266004310369)">
					<path id="p_605.5245870258823" class="st4" d="M-56,40.9c-0.8,0-1.5-0.7-1.5-1.5s0.7-1.5,1.5-1.5l0,0c0.8,0,1.5,0.7,1.5,1.5
						S-55.2,40.9-56,40.9L-56,40.9z"/>
				</g>
				<g id="Namibia" transform="translate(355.56288847489543,48.98937957394985)">
					<path id="p_406.0091563789755" class="st4" d="M-50.7,51.5c-0.7,0-1.3-0.6-1.3-1.3s0.6-1.3,1.3-1.3s1.3,0.6,1.3,1.3
						S-49.9,51.5-50.7,51.5z"/>
				</g>
				<g id="Malawi" transform="translate(471.3194620786659,125.14873758895135)">
					<path id="p_597.8495747501056" class="st4" d="M-60,45.3c-0.7,0-1.3-0.6-1.3-1.3s0.6-1.3,1.3-1.3s1.3,0.6,1.3,1.3
						S-59.3,45.3-60,45.3z"/>
				</g>
				<g id="Cabo_Verde" transform="translate(377.296516495611,183.09682367583318)">
					<path id="p_561.5603921249286" class="st4" d="M-52.4,40.4c-0.6,0-1.1-0.5-1.1-1.1s0.5-1.1,1.1-1.1s1.1,0.5,1.1,1.1
						S-51.9,40.4-52.4,40.4z"/>
				</g>
				<g id="Comoros" transform="translate(467.6266534498465,79.10684038508788)">
					<path id="p_547.8796238268643" class="st4" d="M-59.7,48.8c-0.6,0-1.1-0.5-1.1-1.1s0.5-1.1,1.1-1.1s1.1,0.5,1.1,1.1
						S-59.2,48.8-59.7,48.8z"/>
				</g>
				<g id="Swaziland" transform="translate(348.12063992035286,165.90142538524776)">
					<path id="p_515.1438067628869" class="st4" d="M-50.1,41.7c-0.6,0-1-0.5-1-1c0-0.6,0.5-1,1-1s1,0.5,1,1
						C-49.1,41.3-49.5,41.7-50.1,41.7z"/>
				</g>
				<g id="Mozambique" transform="translate(370.88065347336266,39.01337280399623)">
					<path id="p_410.91577840436685" class="st4" d="M-51.9,51.9c-0.5,0-0.9-0.4-0.9-0.9s0.4-0.9,0.9-0.9S-51,50.5-51,51
						S-51.4,51.9-51.9,51.9z"/>
				</g>
				<g id="Lesotho" transform="translate(474.06320723207665,100.68840180347476)">
					<path id="p_575.5913728612377" class="st4" d="M-60.3,46.7c-0.4,0-0.8-0.3-0.8-0.8s0.3-0.8,0.8-0.8l0,0c0.4,0,0.8,0.3,0.8,0.8
						S-59.8,46.7-60.3,46.7L-60.3,46.7z"/>
				</g>
				<g id="Guinea-Bissau" transform="translate(438.87034858659473,174.33281237414246)">
					<path id="p_613.9606844832044" class="st4" d="M-57.4,40.7c-0.4,0-0.7-0.3-0.7-0.7s0.3-0.7,0.7-0.7l0,0c0.4,0,0.7,0.3,0.7,0.7
						S-57,40.7-57.4,40.7L-57.4,40.7z"/>
				</g>
				<g id="Equatorial_Guinea" transform="translate(426.6403469508191,39.56977992154192)">
					<path id="p_466.85954139192734" class="st4" d="M-56.4,51.5c-0.3,0-0.6-0.3-0.6-0.6s0.3-0.6,0.6-0.6l0,0c0.3,0,0.6,0.3,0.6,0.6
						C-55.8,51.2-56.1,51.5-56.4,51.5L-56.4,51.5z"/>
				</g>
				<g id="Sao_Tome_and_Principe" transform="translate(406.1913110732698,185.04767582134178)">
					<path id="p_591.5019271478212" class="st4" d="M-54.8,39.4c-0.1,0-0.2-0.1-0.2-0.2c0-0.1,0.1-0.2,0.2-0.2l0,0
						c0.1,0,0.2,0.1,0.2,0.2C-54.5,39.3-54.6,39.4-54.8,39.4L-54.8,39.4z"/>
				</g>
				<g id="Western_Sahara" transform="translate(386.74149944436886,35.11951802466015)">
					<path id="p_421.97860792506856" class="st4" d="M-53.2,51.4C-53.3,51.4-53.3,51.4-53.2,51.4c-0.1-0.2-0.1-0.2,0-0.2l0,0
						C-53.1,51.2-53.1,51.2-53.2,51.4C-53.1,51.3-53.1,51.4-53.2,51.4L-53.2,51.4z"/>
				</g>
				<g id="USA" transform="translate(267.2224852496907,78.07398634475354)">
					<path id="p_382.99333821069285" class="st6" d="M-43.6,82.4c-19.1,0-34.7-15.5-34.7-34.7S-62.8,13-43.6,13S-8.9,28.7-8.9,47.8
						S-24.4,82.4-43.6,82.4z"/>
				</g>
				<g id="Canada" transform="translate(308.9559116732967,78.07398634475354)">
					<path id="p_387.4017516902332" class="st6" d="M-46.9,48.1c-0.2,0-0.3-0.2-0.3-0.3c0-0.2,0.2-0.3,0.3-0.3l0,0
						c0.2,0,0.3,0.2,0.3,0.3C-46.6,48-46.7,48.1-46.9,48.1L-46.9,48.1z"/>
				</g>
				<g id="Australia" transform="translate(263.4044627175258,484.3419944368522)">
					<path id="p_759.9914015280777" class="st8" d="M-43.2,26.2c-6.2,0-11.3-5-11.3-11.3c0-6.2,5-11.3,11.3-11.3l0,0
						C-37,3.7-32,8.8-32,15S-37,26.2-43.2,26.2L-43.2,26.2z"/>
				</g>
				<g id="Fiji" transform="translate(290.4399353275961,484.3419944368522)">
					<path id="p_785.9077518656443" class="st8" d="M-45.4,25.2c-5.6,0-10.2-4.6-10.2-10.2S-51,4.8-45.4,4.8l0,0
						c5.6,0,10.2,4.6,10.2,10.2S-39.8,25.2-45.4,25.2L-45.4,25.2z"/>
				</g>
				<g id="New_Zealand" transform="translate(277.88049028622845,503.1195181845384)">
					<path id="p_788.8000769029672" class="st8" d="M-44.4,20.6c-4,0-7.2-3.2-7.2-7.2s3.2-7.2,7.2-7.2l0,0c4,0,7.2,3.2,7.2,7.2
						S-40.5,20.6-44.4,20.6L-44.4,20.6z"/>
				</g>
				<g id="Tonga" transform="translate(277.5965505292601,475.2579560848116)">
					<path id="p_753.7952302623883" class="st8" d="M-44.4,16.6c-0.5,0-0.9-0.4-0.9-0.9s0.4-0.9,0.9-0.9l0,0c0.5,0,0.9,0.4,0.9,0.9
						S-43.9,16.6-44.4,16.6L-44.4,16.6z"/>
				</g>
				<g id="Samoa" transform="translate(273.8933558217924,471.5148511755125)">
					<path id="p_746.0681817949867" class="st8" d="M-44.1,16.6c-0.3,0-0.6-0.3-0.6-0.6s0.3-0.6,0.6-0.6s0.6,0.3,0.6,0.6
						C-43.5,16.3-43.8,16.6-44.1,16.6z"/>
				</g>
				<g id="Papua_New_Guinea" transform="translate(281.5033874400415,471.7844773784995)">
					<path id="p_753.9100950250117" class="st8" d="M-44.7,16.6c-0.3,0-0.6-0.3-0.6-0.6c0-0.3,0.3-0.6,0.6-0.6l0,0
						c0.3,0,0.6,0.3,0.6,0.6C-44.1,16.3-44.4,16.6-44.7,16.6L-44.7,16.6z"/>
				</g>
				<g id="Nauru" transform="translate(277.81583597199614,468.9850630787151)">
					<path id="p_747.1437311969411" class="st8" d="M-44.4,16.5c-0.2,0-0.3-0.1-0.3-0.3c0-0.2,0.1-0.3,0.3-0.3l0,0
						c0.2,0,0.3,0.1,0.3,0.3S-44.2,16.5-44.4,16.5L-44.4,16.5z"/>
				</g>
				<g id="Kiribati" transform="translate(269.75901287560464,469.417754780124)">
					<path id="p_739.487882758964" class="st8" d="M-43.8,16.5c-0.2,0-0.3-0.1-0.3-0.3c0-0.2,0.1-0.3,0.3-0.3l0,0
						c0.2,0,0.3,0.1,0.3,0.3C-43.5,16.3-43.6,16.5-43.8,16.5L-43.8,16.5z"/>
				</g>
				<g id="Vanuatu" transform="translate(266.5014900492654,500.2283530603412)">
					<path id="p_767.005617173713" class="st8" d="M-43.5,14c-0.1,0-0.3-0.1-0.3-0.3c0-0.1,0.1-0.3,0.3-0.3s0.3,0.1,0.3,0.3
						C-43.2,13.8-43.4,14-43.5,14z"/>
				</g>
				<g id="Tuvalu" transform="translate(285.68544131425097,470.104350937595)">
					<path id="p_756.0097838510732" class="st8" d="M-45,16.3c-0.1,0-0.2-0.1-0.2-0.2s0.1-0.2,0.2-0.2s0.2,0.1,0.2,0.2
						C-44.8,16.2-44.9,16.3-45,16.3z"/>
				</g>
				<g id="American_Samoa" transform="translate(288.864672874289,499.23537399760585)">
					<path id="p_788.2859737079863" class="st8" d="M-45.3,14c-0.1,0-0.2-0.1-0.2-0.2s0.1-0.2,0.2-0.2l0,0c0.1,0,0.2,0.1,0.2,0.2
						S-45.2,14-45.3,14L-45.3,14z"/>
				</g>
				<g id="New_Caledonia" transform="translate(274.1167283362842,467.00977768387423)">
					<path id="p_741.3124328562499" class="st8" d="M-44.1,16.6c-0.1,0-0.2-0.1-0.2-0.2s0.1-0.2,0.2-0.2l0,0c0.1,0,0.2,0.1,0.2,0.2
						C-43.9,16.5-44,16.6-44.1,16.6L-44.1,16.6z"/>
				</g>
				<g id="Marshall_Islands" transform="translate(281.61648871802095,467.3814029511882)">
					<path id="p_749.1154821252487" class="st8" d="M-44.7,16.5c-0.1,0-0.1,0-0.1-0.1s0-0.1,0.1-0.1l0,0c0.1,0,0.1,0,0.1,0.1
						S-44.7,16.5-44.7,16.5L-44.7,16.5z"/>
				</g>
				<g id="Palau" transform="translate(270.5142454004852,465.4296645978873)">
					<path id="p_736.027059007241" class="st8" d="M-43.8,16.6C-43.9,16.6-43.9,16.6-43.8,16.6c-0.1-0.1,0-0.2,0-0.2
						S-43.7,16.5-43.8,16.6C-43.7,16.6-43.8,16.6-43.8,16.6z"/>
				</g>
			</g>
			<g id="labels">
				<g transform="translate(132.72020015412653,288.85155055295655)">
				</g>
				<g transform="translate(270.55178040194073,288.85155055295655)">
				</g>
				<g transform="translate(202.40159361199167,397.8144996322329)">
				</g>
				<g transform="translate(202.29675506335366,201.48863833900919)">
				</g>
				<g transform="translate(125.88870907718004,183.6417951940353)">
				</g>
				<g transform="translate(276.97052631933195,186.80035262586375)">
				</g>
				<g transform="translate(110.21510133102981,388.3229484401919)">
				</g>
				<g transform="translate(290.97357403960115,384.7275121330442)">
				</g>
				<g transform="translate(330.33980269201635,214.91768285851597)">
				</g>
				<g transform="translate(75.46163234965397,215.6416445436046)">
				</g>
				<g transform="translate(237.24786233946506,146.17851314737885)">
				</g>
				<g transform="translate(170.09966213036148,145.23720518696862)">
				</g>
				<g transform="translate(332.6844625712665,354.58331608972037)">
				</g>
				<g transform="translate(74.64126526721125,353.18137434158217)">
				</g>
				<g transform="translate(272.94419967040693,426.79900203075175)">
				</g>
				<g transform="translate(133.8821353950022,430.9535624792941)">
				</g>
				<g transform="translate(57.775453524622435,250.04848495752043)">
				</g>
				<g transform="translate(344.8375978431115,252.85848848005597)">
				</g>
				<g transform="translate(203.456581943773,138.86397623029586)">
				</g>
				<g transform="translate(62.23881933892011,327.58554451441603)">
				</g>
				<g transform="translate(341.2310872792755,323.56065595551263)">
				</g>
				<g transform="translate(55.79376820688839,307.63988177081995)">
				</g>
				<g transform="translate(54.94244152245244,274.68734132001094)">
				</g>
				<g transform="translate(347.13670934454603,304.5506213123677)">
				</g>
				<g transform="translate(347.52550148057855,276.2379782193823)">
				</g>
				<g transform="translate(81.2416793872069,184.00603580719317)">
				</g>
				<g transform="translate(318.92209343707344,181.74157911134643)">
				</g>
				<g transform="translate(268.51986462733043,145.70784315994476)">
				</g>
				<g transform="translate(56.73373177564608,291.1090285512798)">
				</g>
				<g transform="translate(355.28803996431986,290.40199072984745)">
				</g>
				<g transform="translate(44.09853355262456,286.92128268160553)">
				</g>
				<g transform="translate(72.91761433243445,376.83006126758943)">
				</g>
				<g transform="translate(141.54325293200634,144.43323713439517)">
				</g>
				<g transform="translate(326.2237963519474,381.6312150130854)">
				</g>
				<g transform="translate(54.40172041422389,342.34610831728696)">
				</g>
				<g transform="translate(254.22357968495837,437.999796884087)">
				</g>
				<g transform="translate(350.5056109662771,335.02892518725145)">
				</g>
				<g transform="translate(152.78253443337383,438.884655269253)">
				</g>
				<g transform="translate(45.88678642167861,297.61826547192214)">
				</g>
				<g transform="translate(49.139639658695586,319.9014063821715)">
				</g>
				<g transform="translate(353.2214179331143,316.45779481795773)">
				</g>
				<g transform="translate(290.8203615429846,417.9445736037126)">
				</g>
				<g transform="translate(53.53575138285021,231.82913371176187)">
				</g>
				<g transform="translate(355.93374451642217,266.38722687880636)">
				</g>
				<g transform="translate(350.8793142756955,236.6093110981813)">
				</g>
				<g transform="translate(46.73735964307363,264.6483095165859)">
				</g>
				<g transform="translate(191.23513454204704,130.95215522066277)">
				</g>
				<g transform="translate(215.82945156073245,131.5387618770981)">
				</g>
				<g transform="translate(117.57271307900666,422.4800827103576)">
				</g>
				<g transform="translate(461.6335729503185,291.4294065007495)">
				</g>
				<g transform="translate(551.9459568255355,291.4294065007495)">
				</g>
				<g transform="translate(529.4518415057279,346.5910324880746)">
				</g>
				<g transform="translate(529.0401497931839,237.88670023554644)">
				</g>
				<g transform="translate(485.80769227440413,213.2417763467451)">
				</g>
				<g transform="translate(484.1805764789052,369.92896958667956)">
				</g>
				<g transform="translate(576.8062325713354,245.14078235359523)">
				</g>
				<g transform="translate(577.4573847791359,336.64694466718595)">
				</g>
				<g transform="translate(448.9838110642237,218.94197099895172)">
				</g>
				<g transform="translate(448.0542103818906,363.363485252355)">
				</g>
				<g transform="translate(519.1474486577356,198.3437540843107)">
				</g>
				<g transform="translate(515.8273559430546,385.08627046193396)">
				</g>
				<g transform="translate(424.7864280517065,230.35337035300114)">
				</g>
				<g transform="translate(424.24013457277294,352.12370375079945)">
				</g>
				<g transform="translate(592.0568738365724,274.9165780685247)">
				</g>
				<g transform="translate(591.8157170701951,307.54085440578024)">
				</g>
				<g transform="translate(407.5017788899421,246.39818492669153)">
				</g>
				<g transform="translate(409.35412950959164,336.08387574274894)">
				</g>
				<g transform="translate(560.3921760579946,218.87886594852745)">
				</g>
				<g transform="translate(458.18811049112327,197.02326905761032)">
				</g>
				<g transform="translate(456.2608502189749,385.2584423948997)">
				</g>
				<g transform="translate(562.8198199035893,361.61052123808355)">
				</g>
				<g transform="translate(539.5265375170619,204.86743468086433)">
				</g>
				<g transform="translate(401.81821296007564,320.65730762097957)">
				</g>
				<g transform="translate(401.3256466658339,263.89129649262725)">
				</g>
				<g transform="translate(535.2411221268314,381.67172296623386)">
				</g>
				<g transform="translate(428.69403199033707,211.334193414889)">
				</g>
				<g transform="translate(428.7406760369487,370.111845723613)">
				</g>
				<g transform="translate(398.6859365923634,307.6178364541898)">
				</g>
				<g transform="translate(398.42165721180345,276.62468183739503)">
				</g>
				<g transform="translate(501.74877850839425,189.70444202365104)">
				</g>
				<g transform="translate(598.2332350594037,291.4762027482452)">
				</g>
				<g transform="translate(499.80619034923234,393.2684702382827)">
				</g>
				<g transform="translate(398.4536658570646,297.3296168354558)">
				</g>
				<g transform="translate(398.402438033862,286.78845276283374)">
				</g>
				<g transform="translate(548.0325479928491,213.7182209767263)">
				</g>
				<g transform="translate(392.35455164088876,292.047668144833)">
				</g>
				<g transform="translate(549.8716452533688,207.26269165000042)">
				</g>
				<g transform="translate(553.1146975165495,366.6543561092387)">
				</g>
				<g transform="translate(410.3105193806453,348.0300723886536)">
				</g>
				<g transform="translate(541.6583253704164,374.6721664143628)">
				</g>
				<g transform="translate(410.68456540141017,233.2911407573397)">
				</g>
				<g transform="translate(469.2433301107199,194.84103007812115)">
				</g>
				<g transform="translate(377.55721277121614,480.7797477086271)">
				</g>
				<g transform="translate(429.3957776552139,480.7797477086271)">
				</g>
				<g transform="translate(406.5685292054958,523.3270667525853)">
				</g>
				<g transform="translate(406.50300741207667,439.4723167466953)">
				</g>
				<g transform="translate(362.2517434179538,434.02410138430946)">
				</g>
				<g transform="translate(362.09004288082986,526.3635608874957)">
				</g>
				<g transform="translate(449.11200381733363,441.38747842566966)">
				</g>
				<g transform="translate(446.6862047043807,517.7801332059906)">
				</g>
				<g transform="translate(337.96492800121536,462.7781171838491)">
				</g>
				<g transform="translate(340.66549265923413,499.4238388911525)">
				</g>
				<g transform="translate(464.912286349275,493.8677449571765)">
				</g>
				<g transform="translate(469.27062472308296,467.4644249553586)">
				</g>
				<g transform="translate(386.73901079382614,409.52418920904677)">
				</g>
				<g transform="translate(383.5302026621797,551.9050542854732)">
				</g>
				<g transform="translate(435.4960236179763,542.8556596510018)">
				</g>
				<g transform="translate(431.26368225319953,416.6955214047323)">
				</g>
				<g transform="translate(321.95670863793475,483.87581158031713)">
				</g>
				<g transform="translate(472.8610528743992,515.7327851857939)">
				</g>
				<g transform="translate(332.4940461637866,521.1846620064553)">
				</g>
				<g transform="translate(413.35433403321525,408.2129945816395)">
				</g>
				<g transform="translate(402.1584856446268,395.20880364058974)">
				</g>
				<g transform="translate(419.55599870557245,551.8552180478376)">
				</g>
				<g transform="translate(333.8702058842405,439.8685423833644)">
				</g>
				<g transform="translate(403.3395596667414,554.3543272545078)">
				</g>
				<g transform="translate(474.3581309490631,448.4367431188136)">
				</g>
				<g transform="translate(452.5799306627405,539.9380557253596)">
				</g>
				<g transform="translate(480.50119006367123,482.6515660112754)">
				</g>
				<g transform="translate(447.350323008143,416.3503478711746)">
				</g>
				<g transform="translate(412.62617276773744,561.4599772305625)">
				</g>
				<g transform="translate(369.3458069081754,408.89835657414915)">
				</g>
				<g transform="translate(366.80068764701025,550.5665494791921)">
				</g>
				<g transform="translate(465.0264304402537,527.0067117409701)">
				</g>
				<g transform="translate(425.3870964780363,403.27908240563835)">
				</g>
				<g transform="translate(374.2163479086543,110.12601553775609)">
				</g>
				<g transform="translate(422.0286643199099,110.12601553775609)">
				</g>
				<g transform="translate(398.188929396818,151.29195248984294)">
				</g>
				<g transform="translate(398.18221755049814,74.63233166013629)">
				</g>
				<g transform="translate(361.2475110203556,69.87135790695967)">
				</g>
				<g transform="translate(434.7017459872279,70.33947821574901)">
				</g>
				<g transform="translate(357.29138601990724,147.78684386847925)">
				</g>
				<g transform="translate(436.6736026642201,146.25832838658877)">
				</g>
				<g transform="translate(457.55604024214193,94.11534244855939)">
				</g>
				<g transform="translate(340.8943025933088,93.88808356630632)">
				</g>
				<g transform="translate(455.3174982924053,125.49342714245049)">
				</g>
				<g transform="translate(340.3325479263128,123.3179052914653)">
				</g>
				<g transform="translate(414.40180903519376,47.94066247957393)">
				</g>
				<g transform="translate(382.3683050674674,48.23979980631209)">
				</g>
				<g transform="translate(426.8023804281983,169.71260778460953)">
				</g>
				<g transform="translate(371.09853793218736,171.53404727544458)">
				</g>
				<g transform="translate(324.0347942895028,108.81883132209852)">
				</g>
				<g transform="translate(473.4557107568421,112.73131594978838)">
				</g>
				<g transform="translate(397.9405077019621,33.85363982002619)">
				</g>
				<g transform="translate(460.73233972502857,146.5460088183643)">
				</g>
				<g transform="translate(334.4682522619301,73.1090520481229)">
				</g>
				<g transform="translate(332.9841457467495,141.98564979859785)">
				</g>
				<g transform="translate(460.18813065047993,71.54131237617815)">
				</g>
				<g transform="translate(412.07604806953157,178.41378182839884)">
				</g>
				<g transform="translate(433.2875123989551,45.84049183237603)">
				</g>
				<g transform="translate(386.049908761665,179.08427828465966)">
				</g>
				<g transform="translate(364.439902347738,45.46465274968048)">
				</g>
				<g transform="translate(443.03341812407507,166.59687713163112)">
				</g>
				<g transform="translate(355.29223449132263,170.75532657962287)">
				</g>
				<g transform="translate(399.8394087524714,180.6014844189889)">
				</g>
				<g transform="translate(392.7258418177148,189.37897871885826)">
				</g>
				<g transform="translate(453.0698260126244,158.8903021698909)">
				</g>
				<g transform="translate(454.0507505436106,169.6725495964443)">
				</g>
				<g transform="translate(470.030567963865,135.86960766366684)">
				</g>
				<g transform="translate(335.7714167174163,154.51834851058084)">
				</g>
				<g transform="translate(339.7221889929698,60.33535965496371)">
				</g>
				<g transform="translate(454.9931212130127,60.29245843603281)">
				</g>
				<g transform="translate(325.9314698998173,132.1429665279295)">
				</g>
				<g transform="translate(323.5311366767052,122.59686323186015)">
				</g>
				<g transform="translate(323.4191059591909,95.05481982300014)">
				</g>
				<g transform="translate(327.4686189716063,83.4583140042126)">
				</g>
				<g transform="translate(442.7402949898843,50.23554155597208)">
				</g>
				<g transform="translate(421.479248148052,182.4266004310369)">
				</g>
				<g transform="translate(355.56288847489543,48.98937957394985)">
				</g>
				<g transform="translate(471.3194620786659,125.14873758895135)">
				</g>
				<g transform="translate(377.296516495611,183.09682367583318)">
				</g>
				<g transform="translate(467.6266534498465,79.10684038508788)">
				</g>
				<g transform="translate(348.12063992035286,165.90142538524776)">
				</g>
				<g transform="translate(370.88065347336266,39.01337280399623)">
				</g>
				<g transform="translate(474.06320723207665,100.68840180347476)">
				</g>
				<g transform="translate(438.87034858659473,174.33281237414246)">
				</g>
				<g transform="translate(426.6403469508191,39.56977992154192)">
				</g>
				<g transform="translate(406.1913110732698,185.04767582134178)">
				</g>
				<g transform="translate(386.74149944436886,35.11951802466015)">
				</g>
				<g transform="translate(267.2224852496907,78.07398634475354)">
				</g>
				<g transform="translate(308.9559116732967,78.07398634475354)">
				</g>
				<g transform="translate(263.4044627175258,484.3419944368522)">
				</g>
				<g transform="translate(290.4399353275961,484.3419944368522)">
				</g>
				<g transform="translate(277.88049028622845,503.1195181845384)">
				</g>
				<g transform="translate(277.5965505292601,475.2579560848116)">
				</g>
				<g transform="translate(273.8933558217924,471.5148511755125)">
				</g>
				<g transform="translate(281.5033874400415,471.7844773784995)">
				</g>
				<g transform="translate(277.81583597199614,468.9850630787151)">
				</g>
				<g transform="translate(269.75901287560464,469.417754780124)">
				</g>
				<g transform="translate(266.5014900492654,500.2283530603412)">
				</g>
				<g transform="translate(285.68544131425097,470.104350937595)">
				</g>
				<g transform="translate(288.864672874289,499.23537399760585)">
				</g>
				<g transform="translate(274.1167283362842,467.00977768387423)">
				</g>
				<g transform="translate(281.61648871802095,467.3814029511882)">
				</g>
				<g transform="translate(270.5142454004852,465.4296645978873)">
				</g>
			</g>
		</g>
		<rect x="207.5" y="316.3" class="st10" width="57" height="31"/>
		<text transform="matrix(1 0 0 1 207.5278 328.7846)" class="st11 st2 st12">China</text>
		<rect x="394.8" y="319.9" class="st10" width="46.2" height="31"/>
		<text transform="matrix(1 0 0 1 394.7837 332.3925)" class="st11 st2 st12">UK</text>
		<rect x="80.5" y="314.3" class="st10" width="46.2" height="31"/>
		<text transform="matrix(1 0 0 1 80.5376 326.8437)" class="st11 st2 st12">India</text>
		<rect x="133.2" y="418.9" class="st10" width="76.2" height="31"/>
		<text transform="matrix(1 0 0 1 133.206 428.5981)" class="st11 st2 st13">Philippines</text>
		<rect x="448.2" y="273.4" class="st10" width="61.6" height="30.1"/>
		<text transform="matrix(1 0 0 1 448.1958 280.3965)" class="st11 st2 st14">Romania</text>
		<rect x="473.7" y="322.2" class="st10" width="61.6" height="30.1"/>
		<text transform="matrix(1 0 0 1 473.6538 329.8125)" class="st11 st2 st15">Poland</text>
		<rect x="452.5" y="372.8" class="st10" width="61.6" height="30.1"/>
		<text transform="matrix(1 0 0 1 452.5024 380.4419)" class="st11 st2 st15">France</text>
		<rect x="310.6" y="497.1" class="st10" width="61.6" height="30.1"/>
		<text transform="matrix(1 0 0 1 310.602 504.0835)" class="st11 st2 st14">Jamaica</text>
		<rect x="365.8" y="497.1" class="st10" width="61.6" height="30.1"/>
		<text transform="matrix(1 0 0 1 365.7866 504.0835)" class="st11 st2 st14">Haiti</text>
		<rect x="337.9" y="537.1" class="st10" width="61.6" height="30.1"/>
		<text transform="matrix(1 0 0 1 337.9116 542.683)" class="st11 st2 st16">Columbia</text>
		<rect x="208.6" y="123.7" class="st10" width="46.2" height="31"/>
		<text transform="matrix(1 0 0 1 208.6235 136.1777)" class="st11 st2 st12">USA</text>
		<rect x="310.6" y="156.2" class="st10" width="61.6" height="30.1"/>
		<text transform="matrix(1 0 0 1 310.6128 161.8008)" class="st11 st2 st16">Morocco</text>
		<rect x="214.6" y="502.8" class="st10" width="61.6" height="30.1"/>
		<text transform="matrix(1 0 0 1 214.6245 506.1518)" class="st11 st2 st17">Australia</text>
		<rect x="246.5" y="502.8" class="st10" width="61.6" height="30.1"/>
		<text transform="matrix(1 0 0 1 246.4751 506.1518)" class="st11 st2 st17">Fiji</text>
		<rect x="361.1" y="156.8" class="st10" width="61.6" height="30.1"/>
		<text transform="matrix(1 0 0 1 361.1382 162.3183)" class="st11 st2 st16">Egypt</text>
		<rect x="335.6" y="194.4" class="st10" width="61.6" height="30.1"/>
		<text transform="matrix(1 0 0 1 335.6147 200.0078)" class="st11 st2 st16">Algeria</text>
	</g>
	<rect x="4.8" y="3.7" class="st10" width="596.5" height="43.8"/>
	<text transform="matrix(1 0 0 1 4.7965 17.2859)" class="st18 st2 st19">Number of immigrants by continent </text>
	<text transform="matrix(1 0 0 1 4.7965 35.2859)" class="st18 st20 st21">(1984 - 2013)</text>
	<text transform="matrix(1 0 0 1 94.3311 37.2859)" class="st1 st20 st22"> </text>
	<text transform="matrix(1.0268 0 0 1 98.7451 37.2861)" class="st1 st2 st22"> </text>
</g>
<g id="Layer_2_00000132050263179551035350000006046659901929315471_" class="st23">
	<g id="viz_00000015319638262987086130000007796675632020541097_" class="st24">
		<g transform="translate(0,0)">
			<g>
				<g transform="translate(50,5)">
					<g id="axis">
						<g transform="translate(0,475)">
							<path class="st25" d="M3.9,117.6v-4.9h546.9v4.9"/>
							<g transform="translate(20.333333333333332,0)">
								<line class="st25" x1="1.7" y1="112.2" x2="1.7" y2="117.6"/>
								<text transform="matrix(1.0268 0 0 1 -9.7528 126.6299)" class="st26 st27">1,985</text>
							</g>
							<g transform="translate(119.5,0)">
								<line class="st25" x1="-6.3" y1="112.2" x2="-6.3" y2="117.6"/>
								<text transform="matrix(1.0268 0 0 1 -17.7744 126.6299)" class="st26 st27">1,990</text>
							</g>
							<g transform="translate(218.66666666666666,0)">
								<line class="st25" x1="-14.3" y1="112.2" x2="-14.3" y2="117.6"/>
								<text transform="matrix(1.0268 0 0 1 -25.7956 126.6299)" class="st26 st27">1,995</text>
							</g>
							<g transform="translate(317.8333333333333,0)">
								<line class="st25" x1="-22.3" y1="112.2" x2="-22.3" y2="117.6"/>
								<text transform="matrix(1.0268 0 0 1 -33.8163 126.6299)" class="st26 st27">2,000</text>
							</g>
							<g transform="translate(417,0)">
								<line class="st25" x1="-30.3" y1="112.2" x2="-30.3" y2="117.6"/>
								<text transform="matrix(1.0268 0 0 1 -41.8374 126.6299)" class="st26 st27">2,005</text>
							</g>
							<g transform="translate(516.1666666666666,0)">
								<line class="st25" x1="-38.4" y1="112.2" x2="-38.4" y2="117.6"/>
								<text transform="matrix(1.0268 0 0 1 -49.8586 126.6299)" class="st26 st27">2,010</text>
							</g>
							<g transform="translate(0.5,0)">
								<line class="st25" x1="3.4" y1="112.2" x2="3.4" y2="117.6"/>
								<text transform="matrix(1.0268 0 0 1 -18.4004 126.6299)" class="st26 st27">1,984</text>
							</g>
							<g transform="translate(595.5,0)">
								<line class="st25" x1="-44.8" y1="112.2" x2="-44.8" y2="117.6"/>
								<text transform="matrix(1.0268 0 0 1 -74.6147 126.6299)" class="st26 st27">2,013</text>
							</g>
						</g>
						<g transform="translate(0,0)">
							<path class="st25" d="M3.9,587.7V162.5"/>
							<g transform="translate(0,475.5)">
								<line class="st25" x1="3.4" y1="112.2" x2="-2.1" y2="112.2"/>
								<text transform="matrix(1.0268 0 0 1 -9.9922 115.0303)" class="st26 st27">0</text>
							</g>
							<g transform="translate(0,422.7222222222222)">
								<line class="st25" x1="3.4" y1="117.7" x2="-2.1" y2="117.7"/>
								<text transform="matrix(1.0268 0 0 1 -32.9922 120.5659)" class="st26 st27">20,000</text>
							</g>
							<g transform="translate(0,369.94444444444446)">
								<line class="st25" x1="3.4" y1="123.2" x2="-2.1" y2="123.2"/>
								<text transform="matrix(1.0268 0 0 1 -32.9922 126.1014)" class="st26 st27">40,000</text>
							</g>
							<g transform="translate(0,317.1666666666667)">
								<line class="st25" x1="3.4" y1="128.8" x2="-2.1" y2="128.8"/>
								<text transform="matrix(1.0268 0 0 1 -32.9922 131.638)" class="st26 st27">60,000</text>
							</g>
							<g transform="translate(0,264.3888888888889)">
								<line class="st25" x1="3.4" y1="134.3" x2="-2.1" y2="134.3"/>
								<text transform="matrix(1.0268 0 0 1 -32.9922 137.1736)" class="st26 st27">80,000</text>
							</g>
							<g transform="translate(0,211.6111111111111)">
								<line class="st25" x1="3.4" y1="139.8" x2="-2.1" y2="139.8"/>
								<text transform="matrix(1.0268 0 0 1 -38.1045 142.7087)" class="st26 st27">100,000</text>
							</g>
							<g transform="translate(0,158.83333333333334)">
								<line class="st25" x1="3.4" y1="145.4" x2="-2.1" y2="145.4"/>
								<text transform="matrix(1.0268 0 0 1 -38.1045 148.2453)" class="st26 st27">120,000</text>
							</g>
							<g transform="translate(0,106.05555555555554)">
								<line class="st25" x1="3.4" y1="150.9" x2="-2.1" y2="150.9"/>
								<text transform="matrix(1.0268 0 0 1 -38.1045 153.7814)" class="st26 st27">140,000</text>
							</g>
							<g transform="translate(0,53.2777777777778)">
								<line class="st25" x1="3.4" y1="156.5" x2="-2.1" y2="156.5"/>
								<text transform="matrix(1.0268 0 0 1 -38.1045 159.316)" class="st26 st27">160,000</text>
							</g>
							<g transform="translate(0,0.5)">
								<line class="st25" x1="3.4" y1="162" x2="-2.1" y2="162"/>
								<text transform="matrix(1.0268 0 0 1 -38.1045 164.8525)" class="st26 st27">180,000</text>
							</g>
						</g>
					</g>
					<g id="viz_00000114796602990326002190000013538752670493386382_">
						<g id="Asia_00000157299630443765252390000013292465789144281507_">
							<path class="st28" d="M3.4,522.8l3,1.3c3,1.3,9.1,4,15.2,3.5c6.1-0.6,12.2-4.4,18.2-12c6.1-7.6,12.2-19,18.2-26.4
								c6.1-7.4,12.2-10.7,18.2-17.4S88.5,455,94.5,445c6.1-10,12.2-19.9,18.2-31.6c6.1-11.7,12.2-25.2,18.2-32.2
								c6.1-7.1,12.2-7.7,18.2-11.1c6.1-3.5,12.2-9.7,18.2-9c6.1,0.7,12.2,8.5,18.2,11.8c6.1,3.3,12.2,2,18.2-3.5
								c6.1-5.6,12.2-15.5,18.2-21.8c6.1-6.3,12.2-8.9,18.2-4.2c6.1,4.8,12.2,16.9,18.2,16.8c6.1-0.2,12.2-12.7,18.2-29.9
								c6.1-17.2,12.2-39,18.2-55.2c6.1-16.2,12.2-26.9,18.2-28.1c6.1-1.2,12.2,7,18.2,13.4c6.1,6.4,12.2,11.1,18.2,12.2
								c6.1,1.1,12.2-1.3,18.2-12.1c6.1-10.8,12.2-30,18.2-35.6c6.1-5.6,12.2,2.4,18.2,12.6c6.1,10.2,12.2,22.4,18.2,26
								c6.1,3.6,12.2-1.5,18.2-4.6c6.1-3.1,12.2-4.4,18.2-13.8c6.1-9.4,12.2-27.1,18.2-29.2c6.1-2.1,12.2,11.2,18.2,15.8
								c6.1,4.6,12.2,0.4,18.2-2.8c6.1-3.2,12.2-5.5,15.2-6.6l3-1.1"/>
						</g>
						<g id="Europe_00000022555946608909727770000000843805660284908200_">
							<path class="st29" d="M3.4,534.6l3,0.6c3,0.6,9.1,1.7,15.2,0.9s12.2-3.6,18.2-13.8c6.1-10.2,12.2-27.8,18.2-39.7
								c6.1-12,12.2-18.3,18.2-23.9c6.1-5.6,12.2-10.4,18.2-15.8c6.1-5.3,12.2-11.2,18.2-10c6.1,1.2,12.2,9.3,18.2,11
								c6.1,1.6,12.2-3.2,18.2-5.2c6.1-2,12.2-1,18.2-0.4c6.1,0.6,12.2,0.9,18.2,3.8c6.1,2.8,12.2,8.2,18.2,10.9
								c6.1,2.7,12.2,2.8,18.2,5.5c6.1,2.7,12.2,8.1,18.2,15.5c6.1,7.4,12.2,17,18.2,22.2c6.1,5.2,12.2,6,18.2,5.5
								c6.1-0.6,12.2-2.6,18.2-5.4s12.2-6.4,18.2-5.8c6.1,0.6,12.2,5.3,18.2,8.5c6.1,3.2,12.2,5,18.2,4.5c6.1-0.5,12.2-3.3,18.2-3.8
								c6.1-0.6,12.2,1.1,18.2,3.1s12.2,4.3,18.2,5.2c6.1,1,12.2,0.6,18.2,0c6.1-0.6,12.2-1.6,18.2-2.2s12.2-0.9,18.2-0.4
								c6.1,0.5,12.2,1.8,18.2,5.1c6.1,3.3,12.2,8.5,18.2,10.2c6.1,1.7,12.2-0.2,18.2-1c6.1-0.8,12.2-0.4,15.2-0.2l3,0.2"/>
						</g>
						<g id="Northern_America_00000016766198637308288950000001408011421062238115_">
							<path class="st30" d="M3.4,571.5h3c3,0,9.1,0.1,15.2,0s12.2-0.6,18.2-1s12.2-1,18.2-0.7c6.1,0.2,12.2,1.2,18.2,1.6
								s12.2,0.1,18.2,0.3c6.1,0.2,12.2,0.9,18.2,1.2c6.1,0.3,12.2,0.2,18.2-0.2c6.1-0.4,12.2-1,18.2-1.5c6.1-0.5,12.2-1,18.2-0.6
								c6.1,0.4,12.2,1.6,18.2,2.6c6.1,1,12.2,1.8,18.2,2c6.1,0.2,12.2-0.3,18.2-0.3c6.1,0.1,12.2,0.7,18.2,1.1
								c6.1,0.4,12.2,0.7,18.2,0.5c6.1-0.2,12.2-0.8,18.2-1.2c6.1-0.4,12.2-0.6,18.2-0.7s12.2-0.3,18.2-0.1
								c6.1,0.2,12.2,0.7,18.2,0.7s12.2-0.4,18.2-1.2s12.2-1.9,18.2-3.1c6.1-1.1,12.2-2.2,18.2-3.3c6.1-1,12.2-2,18.2-2.4
								s12.2-0.3,18.2-0.5c6.1-0.2,12.2-0.8,18.2-0.6s12.2,1.1,18.2,1.9c6.1,0.8,12.2,1.5,18.2,2c6.1,0.5,12.2,0.9,18.2,1
								c6.1,0.1,12.2-0.1,18.2-0.4c6.1-0.3,12.2-0.8,15.2-1l3-0.2"/>
						</g>
						<g id="Latin_America_and_the_Caribbean_00000142146173510942051620000003960669552362800530_">
							<path class="st31" d="M3.4,554.9l3-0.6c3-0.6,9.1-1.8,15.2-4.7c6.1-3,12.2-7.7,18.2-12.9s12.2-11,18.2-11.3
								c6.1-0.3,12.2,4.9,18.2,6.2c6.1,1.3,12.2-1.1,18.2-3.5c6.1-2.4,12.2-4.6,18.2-9.3c6.1-4.6,12.2-11.6,18.2-15.5
								c6.1-3.9,12.2-4.7,18.2-3.5c6.1,1.2,12.2,4.3,18.2,10.8c6.1,6.5,12.2,16.3,18.2,21.7c6.1,5.3,12.2,6.2,18.2,7.3
								c6.1,1.1,12.2,2.3,18.2,3.6c6.1,1.2,12.2,2.4,18.2,4.3c6.1,1.9,12.2,4.5,18.2,5.3c6.1,0.8,12.2-0.2,18.2-1.4
								c6.1-1.2,12.2-2.6,18.2-4.6s12.2-4.5,18.2-5.4c6.1-1,12.2-0.4,18.2-0.4c6.1-0.1,12.2-0.8,18.2-1.9c6.1-1.1,12.2-2.6,18.2-4.4
								c6.1-1.8,12.2-3.8,18.2-4.8c6.1-1,12.2-0.9,18.2-1.4c6.1-0.5,12.2-1.5,18.2-2.3c6.1-0.7,12.2-1.2,18.2-1.5
								c6.1-0.3,12.2-0.6,18.2-1.5c6.1-0.9,12.2-2.4,18.2-2.8c6.1-0.4,12.2,0.4,18.2,1c6.1,0.6,12.2,1.2,18.2,2.3
								c6.1,1.1,12.2,2.9,15.2,3.8l3,0.9"/>
						</g>
						<g id="Africa_00000125571540751137936550000017518639954152351372_">
							<path class="st32" d="M3.4,581h3c3,0,9.1,0,15.2-0.5s12.2-1.3,18.2-3.2S52,572.5,58,571c6.1-1.5,12.2-1.5,18.2-2.5
								s12.2-2.8,18.2-4.2c6.1-1.4,12.2-2.2,18.2-3.9c6.1-1.7,12.2-4.2,18.2-7.5c6.1-3.2,12.2-7.2,18.2-8.1
								c6.1-0.9,12.2,1.2,18.2,3.7c6.1,2.4,12.2,5.2,18.2,5.8c6.1,0.7,12.2-0.7,18.2-1.7c6.1-1,12.2-1.7,18.2-1.6
								c6.1,0.1,12.2,1.1,18.2,1.9c6.1,0.8,12.2,1.3,18.2,0.7c6.1-0.6,12.2-2.3,18.2-4.9c6.1-2.6,12.2-6,18.2-9.3
								c6.1-3.3,12.2-6.4,18.2-7.3c6.1-0.9,12.2,0.3,18.2,0.7s12.2-0.2,18.2-2.3c6.1-2.2,12.2-6,18.2-7.6c6.1-1.6,12.2-1.1,18.2-1.5
								c6.1-0.4,12.2-1.7,18.2-2c6.1-0.3,12.2,0.4,18.2,0.1c6.1-0.3,12.2-1.5,18.2-4s12.2-6.1,18.2-10.4c6.1-4.3,12.2-9.3,18.2-9.7
								c6.1-0.4,12.2,3.9,18.2,5s12.2-1,18.2-2.2c6.1-1.2,12.2-1.6,15.2-1.8l3-0.2"/>
						</g>
						<g id="Oceania_00000135675781031740249330000000751596487983080883_">
							<path class="st33" d="M3.4,585.1h3c3,0,9.1,0,15.2-0.1c6.1,0,12.2,0,18.2-0.1c6.1-0.1,12.2-0.3,18.2-0.5s12.2-0.1,18.2-0.2
								c6.1-0.1,12.2-0.4,18.2-0.8c6.1-0.4,12.2-0.8,18.2-1.2c6.1-0.4,12.2-0.7,18.2-1c6.1-0.3,12.2-0.6,18.2-0.6
								c6.1,0,12.2,0.2,18.2,0.6c6.1,0.4,12.2,0.8,18.2,1.2c6.1,0.4,12.2,0.7,18.2,0.9c6.1,0.2,12.2,0.2,18.2,0.3
								c6.1,0.1,12.2,0.3,18.2,0.6c6.1,0.2,12.2,0.4,18.2,0.5c6.1,0.1,12.2,0.1,18.2,0c6.1-0.1,12.2-0.3,18.2-0.6
								c6.1-0.3,12.2-0.7,18.2-0.9c6.1-0.2,12.2-0.1,18.2,0s12.2-0.1,18.2-0.1c6.1,0,12.2,0,18.2,0.1c6.1,0.1,12.2,0.2,18.2,0.4
								s12.2,0.2,18.2,0.2c6.1,0,12.2-0.2,18.2-0.4c6.1-0.1,12.2-0.3,18.2-0.3s12.2-0.1,18.2-0.1c6.1,0,12.2,0,18.2,0.1
								c6.1,0.1,12.2,0.3,18.2,0.4s12.2,0,18.2-0.1c6.1-0.1,12.2-0.2,15.2-0.2h3"/>
						</g>
					</g>
				</g>
			</g>
		</g>
	</g>
	<text transform="matrix(1.0268 0 0 1 60.3965 182.5542)" class="st34 st35 st36">Total</text>
	<text transform="matrix(1.0268 0 0 1 606.8965 580.6787)" class="st34 st35 st37">Year</text>
	<rect x="5.1" y="106.3" class="st38" width="498.5" height="43.8"/>
	<text transform="matrix(1.0268 0 0 1 5.1221 119.8887)" class="st39 st2 st22">Annual total of immigrants by continent over time</text>
	<text transform="matrix(1 0 0 1 5.1218 139.8884)" class="st39 st20 st40">(1984 - 2013)</text>
	<text transform="matrix(1 0 0 1 94.6565 139.8884)" class="st39 st20 st22"> </text>
	<text transform="matrix(1.0268 0 0 1 99.0703 139.8887)" class="st39 st2 st22"> </text>
	<rect x="425.4" y="210.6" class="st38" width="50.3" height="33.7"/>
	<text transform="matrix(1 0 0 1 425.4477 220.4539)" class="st41 st2 st3">Asia</text>
	<rect x="510.5" y="484.2" class="st38" width="79.7" height="23.7"/>
	<text transform="matrix(1 0 0 1 510.496 493.992)" class="st42 st2 st3">Africa</text>
	<rect x="197.9" y="425.1" class="st38" width="63.8" height="27.4"/>
	<text transform="matrix(1 0 0 1 197.9037 434.9426)" class="st43 st2 st3">Europe</text>
	<rect x="152.6" y="487" class="st38" width="135.4" height="13"/>
	<text transform="matrix(1 0 0 1 152.6082 496.8579)" class="st44 st2 st3">South Ameria</text>
	<rect x="447.8" y="575.5" class="st38" width="94.7" height="15.3"/>
	<text transform="matrix(1 0 0 1 447.7664 585.3344)" class="st45 st2 st3">Oceania</text>
	<polygon class="st38" points="370.7,583.1 254.4,583.1 276.4,565.1 392.7,565.1 	"/>
	<text transform="matrix(1 0 0 1 275.1784 574.9315)" class="st46 st2 st3">North America</text>
	<line class="st47" x1="582" y1="592.2" x2="582" y2="597.6"/>
</g>
</svg>
