<?xml version="1.0" encoding="utf-8"?>
<!-- Generator: Adobe Illustrator 25.4.1, SVG Export Plug-In . SVG Version: 6.00 Build 0)  -->
<svg version="1.1" id="Layer_1" xmlns="http://www.w3.org/2000/svg" xmlns:xlink="http://www.w3.org/1999/xlink" x="0px" y="0px"
	 viewBox="0 0 650 510" style="enable-background:new 0 0 650 510;" xml:space="preserve">
<style type="text/css">
	.st0{fill:none;stroke:#000000;}
	.st1{font-family:'Helvetica';}
	.st2{font-size:9.3566px;}
	.st3{fill:#A7A7A7;}
	.st4{font-family:'Arial-BoldMT';}
	.st5{font-size:17.76px;}
	.st6{fill:none;stroke:#99C1B9;stroke-width:1.5;}
	.st7{fill:none;stroke:#CD533B;stroke-width:1.5;}
	.st8{fill:none;stroke:#8E7DBE;stroke-width:1.5;}
	.st9{fill:none;stroke:#4BA3C3;stroke-width:1.5;}
	.st10{fill:none;stroke:#E7A85F;stroke-width:1.5;}
	.st11{fill:none;stroke:#175676;stroke-width:1.5;}
	.st12{fill:none;stroke:#000000;stroke-miterlimit:10;}
	.st13{fill:none;}
	.st14{fill:#1C4E80;}
	.st15{font-family:'Georgia-Bold';}
	.st16{font-size:13px;}
	.st17{fill:#3E3D3D;}
	.st18{font-size:16px;}
	.st19{font-family:'Georgia';}
	.st20{font-size:14px;}
	.st21{font-size:18px;}
	.st22{display:none;}
	.st23{display:inline;}
	.st24{font-size:8.9511px;}
	.st25{fill:none;stroke:#52C1B9;stroke-width:1.5;}
	.st26{display:inline;fill:#A7A7A7;}
	.st27{font-size:17.7612px;}
	.st28{font-size:18.5746px;}
	.st29{display:inline;fill:none;}
	.st30{display:inline;fill:#1C4E80;}
	.st31{font-size:15px;}
	.st32{display:inline;fill:#CD533B;}
	.st33{display:inline;fill:#175676;}
	.st34{display:inline;fill:#52C1B9;}
	.st35{display:inline;fill:#E7A85F;}
	.st36{display:inline;fill:#4BA3C3;}
	.st37{display:inline;fill:#8E7DBE;}
	.st38{display:inline;fill:none;stroke:#000000;stroke-miterlimit:10;}
	.st39{fill:none;stroke:#FFFFFF;stroke-width:3;}
</style>
<g id="Layer_1_00000015317414148228257580000005428124559881042065_">
	<g id="viz_00000080894325515244210950000011577393078408354193_">
		<g transform="translate(0,0)">
			<g>
				<g transform="translate(45,5)">
					<g id="axis">
						<g transform="translate(0,455)">
							<polygon points="543.8,37.8 542.8,37.8 542.8,33.2 -4.4,33.2 -4.4,37.8 -5.4,37.8 -5.4,32.2 543.8,32.2 							"/>
							<g transform="translate(20.5,0)">
								<line class="st0" x1="-7.2" y1="32.2" x2="-7.2" y2="37.8"/>
								<text transform="matrix(0.9765 0 0 1 -17.603 47.2773)" class="st1 st2">1985</text>
							</g>
							<g transform="translate(120.5,0)">
								<line class="st0" x1="-15.8" y1="32.2" x2="-15.8" y2="37.8"/>
								<text transform="matrix(0.9765 0 0 1 -26.2334 47.2773)" class="st1 st2">1990</text>
							</g>
							<g transform="translate(220.49999999999997,0)">
								<line class="st0" x1="-24.4" y1="32.2" x2="-24.4" y2="37.8"/>
								<text transform="matrix(0.9765 0 0 1 -34.8647 47.2773)" class="st1 st2">1995</text>
							</g>
							<g transform="translate(320.5,0)">
								<line class="st0" x1="-33.1" y1="32.2" x2="-33.1" y2="37.8"/>
								<text transform="matrix(0.9765 0 0 1 -43.4941 47.2773)" class="st1 st2">2000</text>
							</g>
							<g transform="translate(420.5,0)">
								<line class="st0" x1="-41.7" y1="32.2" x2="-41.7" y2="37.8"/>
								<text transform="matrix(0.9765 0 0 1 -52.125 47.2773)" class="st1 st2">2005</text>
							</g>
							<g transform="translate(520.5,0)">
								<line class="st0" x1="-50.3" y1="32.2" x2="-50.3" y2="37.8"/>
								<text transform="matrix(0.9765 0 0 1 -60.7549 47.2773)" class="st1 st2">2010</text>
							</g>
							<g transform="translate(0.5,0)">
								<line class="st0" x1="-5.4" y1="32.2" x2="-5.4" y2="37.8"/>
								<text transform="matrix(0.9765 0 0 1 -23.8774 47.2773)" class="st1 st2">1984</text>
							</g>
							<g transform="translate(600.5,0)">
								<line class="st0" x1="-57.2" y1="32.2" x2="-57.2" y2="37.8"/>
								<text transform="matrix(0.9765 0 0 1 -85.6592 47.2773)" class="st1 st2">2013</text>
							</g>
							<text transform="matrix(0.9765 0 0 1 549.0635 20.3857)" class="st3 st4 st5">Year</text>
						</g>
						<g transform="translate(0,0)">
							<path class="st0" d="M-4.9,487.7V62"/>
							<g transform="translate(0,455.5)">
								<line class="st0" x1="-5.4" y1="32.2" x2="-10.9" y2="32.2"/>
								<text transform="matrix(0.9765 0 0 1 -18.7065 35.1748)" class="st1 st2">0</text>
							</g>
							<g transform="translate(0,404.9444444444444)">
								<line class="st0" x1="-5.4" y1="35.4" x2="-10.9" y2="35.4"/>
								<text transform="matrix(0.9765 0 0 1 -36.4897 38.4276)" class="st1 st2">5,000</text>
							</g>
							<g transform="translate(0,354.3888888888889)">
								<line class="st0" x1="-5.4" y1="38.7" x2="-10.9" y2="38.7"/>
								<text transform="matrix(0.9765 0 0 1 -41.5708 41.6824)" class="st1 st2">10,000</text>
							</g>
							<g transform="translate(0,303.83333333333337)">
								<line class="st0" x1="-5.4" y1="41.9" x2="-10.9" y2="41.9"/>
								<text transform="matrix(0.9765 0 0 1 -41.5708 44.9342)" class="st1 st2">15,000</text>
							</g>
							<g transform="translate(0,253.2777777777778)">
								<line class="st0" x1="-5.4" y1="45.2" x2="-10.9" y2="45.2"/>
								<text transform="matrix(0.9765 0 0 1 -41.5708 48.1871)" class="st1 st2">20,000</text>
							</g>
							<g transform="translate(0,202.7222222222222)">
								<line class="st0" x1="-5.4" y1="48.4" x2="-10.9" y2="48.4"/>
								<text transform="matrix(0.9765 0 0 1 -41.5708 51.4409)" class="st1 st2">25,000</text>
							</g>
							<g transform="translate(0,152.16666666666669)">
								<line class="st0" x1="-5.4" y1="51.7" x2="-10.9" y2="51.7"/>
								<text transform="matrix(0.9765 0 0 1 -41.5708 54.6937)" class="st1 st2">30,000</text>
							</g>
							<g transform="translate(0,101.6111111111111)">
								<line class="st0" x1="-5.4" y1="55" x2="-10.9" y2="55"/>
								<text transform="matrix(0.9765 0 0 1 -41.5708 57.9465)" class="st1 st2">35,000</text>
							</g>
							<g transform="translate(0,51.05555555555558)">
								<line class="st0" x1="-5.4" y1="58.2" x2="-10.9" y2="58.2"/>
								<text transform="matrix(0.9765 0 0 1 -41.5708 61.1993)" class="st1 st2">40,000</text>
							</g>
							<g transform="translate(0,0.5)">
								<line class="st0" x1="-5.4" y1="61.5" x2="-10.9" y2="61.5"/>
								<text transform="matrix(0.9765 0 0 1 -41.5708 64.4521)" class="st1 st2">45,000</text>
							</g>
							<text transform="matrix(0.9765 0 0 1 1.9888 77.4917)" class="st3 st4 st5">Total</text>
						</g>
					</g>
					<g id="viz">
						<g id="India">
							<path class="st6" d="M-5.4,433.3l3,2.4c3,2.4,9.1,7.1,15.2,4.8s12.2-11.5,18.3-21c6.1-9.4,12.2-19,18.3-25.9
								s12.2-11.1,18.3-11.3c6.1-0.2,12.2,3.5,18.3,2.7c6.1-0.8,12.2-6.2,18.3-11.5c6.1-5.3,12.2-10.7,18.3-13.3s12.2-2.4,18.3-14.6
								s12.2-36.9,18.3-44.7c6.1-7.8,12.2,1.3,18.3,6s12.2,5.2,18.3-3.1s12.2-25.2,18.3-31.2s12.2-0.9,18.3,9.5s12.2,26.3,18.3,31.5
								c6.1,5.2,12.2-0.3,18.3-18.1c6.1-17.9,12.2-48.1,18.3-67.4c6.1-19.3,12.2-27.7,18.3-32.9c6.1-5.2,12.2-7.3,18.3-0.9
								c6.1,6.4,12.2,21.3,18.3,27.1c6.1,5.8,12.2,2.4,18.3-11.9c6.1-14.3,12.2-39.4,18.3-48.3c6.1-8.9,12.2-1.4,18.3,10.4
								c6.1,11.8,12.2,27.9,18.3,36.7s12.2,10.3,18.3,9.2c6.1-1.1,12.2-4.9,18.3-14.3c6.1-9.4,12.2-24.5,18.3-21.4
								c6.1,3.1,12.2,24.3,18.3,29.5s12.2-5.6,18.3-14.4c6.1-8.8,12.2-15.6,15.2-19l3-3.4"/>
						</g>
						<g id="China">
							<path class="st7" d="M-5.4,472.8l3-0.5c3-0.5,9.1-1.4,15.2-2c6.1-0.7,12.2-1.1,18.3-2.4s12.2-3.5,18.3-4.7s12.2-1.6,18.3-4.3
								c6.1-2.6,12.2-7.6,18.3-16c6.1-8.4,12.2-20.2,18.3-35.9c6.1-15.7,12.2-35.1,18.3-39.5s12.2,6.4,18.3,13.4s12.2,10.2,18.3,6.6
								s12.2-14,18.3-21.3c6.1-7.2,12.2-11.2,18.3-21.1s12.2-25.7,18.3-35.3c6.1-9.6,12.2-12.9,18.3-15.5s12.2-4.4,18.3-19.5
								c6.1-15.1,12.2-43.6,18.3-66.4s12.2-40,18.3-50.1c6.1-10,12.2-12.9,18.3-7.3c6.1,5.6,12.2,19.7,18.3,19.7
								c6.1,0,12.2-14.1,18.3-21.5c6.1-7.3,12.2-7.9,18.3-17.6c6.1-9.7,12.2-28.5,18.3-23.6c6.1,4.9,12.2,33.5,18.3,57
								c6.1,23.6,12.2,42.1,18.3,47.6c6.1,5.5,12.2-2.1,18.3-5.2c6.1-3.1,12.2-1.8,18.3-2.4c6.1-0.6,12.2-3,18.3-1.2
								s12.2,7.7,18.3,3.6c6.1-4.2,12.2-18.4,18.3-27.3c6.1-8.9,12.2-12.4,15.2-14.1l3-1.7"/>
						</g>
						<g id="Philippines">
							<path class="st8" d="M-5.4,451.3l3,1c3,1,9.1,3.1,15.2,2.5S25,451,31.1,444.4s12.2-16.7,18.3-23.8s12.2-11.1,18.3-18.2
								S79.9,385.1,86,379s12.2-8.1,18.3-9.5s12.2-2,18.3-3.8s12.2-4.8,18.3-17.1c6.1-12.2,12.2-33.7,18.3-43
								c6.1-9.2,12.2-6.3,18.3,1s12.2,18.8,18.3,28.1c6.1,9.2,12.2,16.1,18.3,22.9s12.2,13.6,18.3,21.4s12.2,16.7,18.3,19.6
								c6.1,2.9,12.2-0.3,18.3-3.5s12.2-6.4,18.3-12.9c6.1-6.5,12.2-16.2,18.3-17.6c6.1-1.5,12.2,5.2,18.3,6.9
								c6.1,1.7,12.2-1.6,18.3-5.2c6.1-3.6,12.2-7.6,18.3-16c6.1-8.5,12.2-21.5,18.3-28.5c6.1-6.9,12.2-7.8,18.3-10.4
								c6.1-2.7,12.2-7.2,18.3-17.4c6.1-10.2,12.2-26.2,18.3-39.9c6.1-13.8,12.2-25.4,18.3-47s12.2-53.3,18.3-66.2
								s12.2-7.1,18.3-0.3s12.2,14.5,18.3,25.9c6.1,11.4,12.2,26.4,15.2,34l3,7.5"/>
						</g>
						<g id="UK">
							<path class="st9" d="M-5.4,391l3,1c3,1,9.1,2.9,15.2,4s12.2,1.4,18.3-17.2s12.2-56,18.3-84.2s12.2-47.2,18.3-51.1
								c6.1-3.9,12.2,7.4,18.3,0.6s12.2-31.6,18.3-31s12.2,26.8,18.3,22.9s12.2-37.7,18.3-54.1c6.1-16.3,12.2-15,18.3-23.1
								s12.2-25.4,18.3-19.8c6.1,5.6,12.2,34.3,18.3,49.9s12.2,18.2,18.3,29.5s12.2,31.4,18.3,61.3s12.2,69.6,18.3,94.7
								c6.1,25.1,12.2,35.6,18.3,38s12.2-3.3,18.3-10.6c6.1-7.4,12.2-16.5,18.3-15.2c6.1,1.3,12.2,12.9,18.3,20.6
								c6.1,7.8,12.2,11.7,18.3,12.5c6.1,0.8,12.2-1.5,18.3-2.2c6.1-0.7,12.2,0.1,18.3,0.8c6.1,0.6,12.2,1,18.3-0.5
								c6.1-1.5,12.2-4.9,18.3-7.8c6.1-2.9,12.2-5.3,18.3-6.3c6.1-1,12.2-0.7,18.3-0.3c6.1,0.4,12.2,0.9,18.3,5.1
								s12.2,12.2,18.3,16.1c6.1,4,12.2,4,18.3,4.6c6.1,0.6,12.2,1.8,15.2,2.3l3,0.6"/>
						</g>
						<g id="Pakistan">
							<path class="st10" d="M-5.4,480.9l3,0.2c3,0.2,9.1,0.7,15.2,0.7s12.2-0.6,18.3-1.5s12.2-2.1,18.3-3.1s12.2-1.8,18.3-3.7
								c6.1-1.9,12.2-4.8,18.3-6.6s12.2-2.5,18.3-3.7c6.1-1.3,12.2-3.2,18.3-5.7s12.2-5.7,18.3-8.3c6.1-2.7,12.2-4.9,18.3-5.8
								s12.2-0.6,18.3-0.9s12.2-1.4,18.3-8.4s12.2-20.1,18.3-32.8c6.1-12.7,12.2-25.2,18.3-25.1s12.2,12.7,18.3,17.6
								c6.1,4.9,12.2,2,18.3-8s12.2-27.1,18.3-37.7c6.1-10.6,12.2-14.7,18.3-14.3c6.1,0.5,12.2,5.5,18.3,11
								c6.1,5.5,12.2,11.5,18.3,14.2c6.1,2.7,12.2,2.1,18.3,0.3c6.1-1.7,12.2-4.6,18.3-4.2c6.1,0.4,12.2,4.2,18.3,10.8
								c6.1,6.6,12.2,16.1,18.3,22.6s12.2,10.1,18.3,14.7s12.2,10.2,18.3,13.6c6.1,3.4,12.2,4.7,18.3,4.3c6.1-0.4,12.2-2.5,18.3-9.4
								c6.1-7,12.2-18.8,18.3-26.9c6.1-8.1,12.2-12.4,15.2-14.6l3-2.2"/>
						</g>
						<g id="USA">
							<path class="st11" d="M-5.4,424.2l3,0.2c3,0.2,9.1,0.6,15.2-0.1s12.2-2.3,18.3-4.2c6.1-1.8,12.2-3.8,18.3-2.9
								c6.1,1,12.2,4.9,18.3,6.3s12.2,0.4,18.3,1.3s12.2,3.7,18.3,4.9s12.2,0.6,18.3-0.8s12.2-4,18.3-6.2s12.2-4,18.3-2.6
								c6.1,1.5,12.2,6.3,18.3,10.3s12.2,7.2,18.3,7.8c6.1,0.6,12.2-1.4,18.3-1.1c6.1,0.2,12.2,2.6,18.3,4.3
								c6.1,1.7,12.2,2.7,18.3,2c6.1-0.7,12.2-3.1,18.3-4.7s12.2-2.3,18.3-3c6.1-0.6,12.2-1.2,18.3-0.4c6.1,0.8,12.2,2.8,18.3,2.9
								c6.1,0.1,12.2-1.8,18.3-5c6.1-3.2,12.2-7.8,18.3-12.3c6.1-4.5,12.2-8.9,18.3-13.1c6.1-4.1,12.2-8,18.3-9.7
								c6.1-1.7,12.2-1.2,18.3-2.1s12.2-3.2,18.3-2.5s12.2,4.5,18.3,7.7s12.2,5.9,18.3,8s12.2,3.5,18.3,3.9s12.2-0.3,18.3-1.6
								c6.1-1.3,12.2-3.2,15.2-4.2l3-1"/>
						</g>
					</g>
				</g>
			</g>
		</g>
	</g>
	<line class="st12" x1="569.9" y1="492.7" x2="569.9" y2="497.8"/>
	<g>
		<rect x="572.7" y="160" class="st13" width="50.3" height="33.7"/>
		<text transform="matrix(1 0 0 1 572.7361 169.8269)" class="st14 st15 st16">China</text>
		<rect x="572.7" y="177.8" class="st13" width="50.3" height="33.7"/>
		<text transform="matrix(1 0 0 1 572.7361 187.6644)" class="st14 st15 st16">India</text>
		<rect x="572.7" y="211.9" class="st13" width="88.6" height="33.7"/>
		<text transform="matrix(1 0 0 1 572.7361 221.6884)" class="st14 st15 st16">Philippines</text>
		<rect x="572.7" y="363" class="st13" width="73.3" height="33.7"/>
		<text transform="matrix(1 0 0 1 572.7361 372.8507)" class="st14 st15 st16">Pakistan</text>
		<rect x="572.7" y="400.9" class="st13" width="50.3" height="33.7"/>
		<text transform="matrix(1 0 0 1 572.7361 410.6968)" class="st14 st15 st16">USA</text>
		<rect x="572.7" y="435.9" class="st13" width="50.3" height="33.7"/>
		<text transform="matrix(1 0 0 1 572.7361 445.7579)" class="st14 st15 st16">UK</text>
	</g>
	<rect x="2.3" y="6" class="st13" width="579" height="43.8"/>
	<text transform="matrix(1.0268 0 0 1 3.8796 14.0664)" class="st17 st15 st18">Annual totals from the top 6 source countries over time</text>
	<text transform="matrix(1 0 0 1 3.436 32.0667)" class="st17 st19 st20">(1984 - 2013)</text>
	<text transform="matrix(1 0 0 1 91.8489 39.595)" class="st14 st19 st21"> </text>
	<text transform="matrix(1.0268 0 0 1 96.2627 39.5947)" class="st14 st15 st21"> </text>
</g>
<g id="Layer_2_00000145037977693998383220000016569695498876225215_" class="st22">
	<g id="viz_00000015319638262987086130000007796675632020541097_" class="st23">
		<g transform="translate(0,0)">
			<g>
				<g transform="translate(50,5)">
					<g id="axis_00000145753739958624597670000005760415132482636417_">
						<g transform="translate(0,475)">
							<path class="st0" d="M1,17.3v-4.9h546.9v4.9"/>
							<g transform="translate(20.333333333333332,0)">
								<line class="st0" x1="-1.1" y1="11.9" x2="-1.1" y2="17.3"/>
								<text transform="matrix(1.0268 0 0 1 -12.5609 26.3359)" class="st1 st24">1,985</text>
							</g>
							<g transform="translate(119.5,0)">
								<line class="st0" x1="-9.1" y1="11.9" x2="-9.1" y2="17.3"/>
								<text transform="matrix(1.0268 0 0 1 -20.582 26.3359)" class="st1 st24">1,990</text>
							</g>
							<g transform="translate(218.66666666666666,0)">
								<line class="st0" x1="-17.1" y1="11.9" x2="-17.1" y2="17.3"/>
								<text transform="matrix(1.0268 0 0 1 -28.6037 26.3359)" class="st1 st24">1,995</text>
							</g>
							<g transform="translate(317.8333333333333,0)">
								<line class="st0" x1="-25.1" y1="11.9" x2="-25.1" y2="17.3"/>
								<text transform="matrix(1.0268 0 0 1 -36.6244 26.3359)" class="st1 st24">2,000</text>
							</g>
							<g transform="translate(417,0)">
								<line class="st0" x1="-33.1" y1="11.9" x2="-33.1" y2="17.3"/>
								<text transform="matrix(1.0268 0 0 1 -44.6455 26.3359)" class="st1 st24">2,005</text>
							</g>
							<g transform="translate(516.1666666666666,0)">
								<line class="st0" x1="-41.2" y1="11.9" x2="-41.2" y2="17.3"/>
								<text transform="matrix(1.0268 0 0 1 -52.6667 26.3359)" class="st1 st24">2,010</text>
							</g>
							<g transform="translate(0.5,0)">
								<line class="st0" x1="0.5" y1="11.9" x2="0.5" y2="17.3"/>
								<text transform="matrix(1.0268 0 0 1 -21.2085 26.3359)" class="st1 st24">1,984</text>
							</g>
							<g transform="translate(595.5,0)">
								<line class="st0" x1="-47.6" y1="11.9" x2="-47.6" y2="17.3"/>
								<text transform="matrix(1.0268 0 0 1 -77.4229 26.3359)" class="st1 st24">2,013</text>
							</g>
						</g>
						<g transform="translate(0,0)">
							<path class="st0" d="M1,487.4V62.2"/>
							<g transform="translate(0,475.5)">
								<line class="st0" x1="0.6" y1="11.9" x2="-4.9" y2="11.9"/>
								<text transform="matrix(1.0268 0 0 1 -12.8003 14.7363)" class="st1 st24">0</text>
							</g>
							<g transform="translate(0,422.7222222222222)">
								<line class="st0" x1="0.6" y1="17.4" x2="-4.9" y2="17.4"/>
								<text transform="matrix(1.0268 0 0 1 -35.8003 20.2719)" class="st1 st24">20,000</text>
							</g>
							<g transform="translate(0,369.94444444444446)">
								<line class="st0" x1="0.6" y1="22.9" x2="-4.9" y2="22.9"/>
								<text transform="matrix(1.0268 0 0 1 -35.8003 25.8075)" class="st1 st24">40,000</text>
							</g>
							<g transform="translate(0,317.1666666666667)">
								<line class="st0" x1="0.6" y1="28.5" x2="-4.9" y2="28.5"/>
								<text transform="matrix(1.0268 0 0 1 -35.8003 31.3441)" class="st1 st24">60,000</text>
							</g>
							<g transform="translate(0,264.3888888888889)">
								<line class="st0" x1="0.6" y1="34" x2="-4.9" y2="34"/>
								<text transform="matrix(1.0268 0 0 1 -35.8003 36.8797)" class="st1 st24">80,000</text>
							</g>
							<g transform="translate(0,211.6111111111111)">
								<line class="st0" x1="0.6" y1="39.6" x2="-4.9" y2="39.6"/>
								<text transform="matrix(1.0268 0 0 1 -40.9126 42.4153)" class="st1 st24">100,000</text>
							</g>
							<g transform="translate(0,158.83333333333334)">
								<line class="st0" x1="0.6" y1="45.1" x2="-4.9" y2="45.1"/>
								<text transform="matrix(1.0268 0 0 1 -40.9126 47.9518)" class="st1 st24">120,000</text>
							</g>
							<g transform="translate(0,106.05555555555554)">
								<line class="st0" x1="0.6" y1="50.6" x2="-4.9" y2="50.6"/>
								<text transform="matrix(1.0268 0 0 1 -40.9126 53.4879)" class="st1 st24">140,000</text>
							</g>
							<g transform="translate(0,53.2777777777778)">
								<line class="st0" x1="0.6" y1="56.2" x2="-4.9" y2="56.2"/>
								<text transform="matrix(1.0268 0 0 1 -40.9126 59.023)" class="st1 st24">160,000</text>
							</g>
							<g transform="translate(0,0.5)">
								<line class="st0" x1="0.6" y1="61.7" x2="-4.9" y2="61.7"/>
								<text transform="matrix(1.0268 0 0 1 -40.9126 64.5586)" class="st1 st24">180,000</text>
							</g>
						</g>
					</g>
					<g id="viz_00000135689760659068086580000007987438641047360915_">
						<g id="Asia">
							<path class="st7" d="M0.6,422.5l3,1.3c3,1.3,9.1,4,15.2,3.5s12.2-4.4,18.2-12c6.1-7.6,12.2-19,18.2-26.4
								c6.1-7.4,12.2-10.7,18.2-17.4c6.1-6.7,12.2-16.8,18.2-26.8c6.1-10,12.2-19.9,18.2-31.6c6.1-11.7,12.2-25.2,18.2-32.2
								s12.2-7.7,18.2-11.1s12.2-9.7,18.2-9c6.1,0.7,12.2,8.5,18.2,11.8s12.2,2,18.2-3.5c6.1-5.6,12.2-15.5,18.2-21.8
								c6.1-6.3,12.2-8.9,18.2-4.2c6.1,4.8,12.2,16.9,18.2,16.8c6-0.1,12.2-12.7,18.2-29.9c6.1-17.2,12.2-39,18.2-55.2
								s12.2-26.9,18.2-28.1s12.2,7,18.2,13.4c6.1,6.4,12.2,11.1,18.2,12.2s12.2-1.3,18.2-12.1c6.1-10.8,12.2-30,18.2-35.6
								c6.1-5.6,12.2,2.4,18.2,12.6c6.1,10.2,12.2,22.4,18.2,26c6.1,3.6,12.2-1.5,18.2-4.6s12.2-4.4,18.2-13.8
								c6.1-9.4,12.2-27.1,18.2-29.2c6.1-2.1,12.2,11.2,18.2,15.8c6.1,4.6,12.2,0.4,18.2-2.8c6.1-3.2,12.2-5.5,15.2-6.6l3-1.1"/>
						</g>
						<g id="Europe">
							<path class="st25" d="M0.6,434.3l3,0.6c3,0.6,9.1,1.7,15.2,0.9C24.9,435,31,432.2,37,422s12.2-27.8,18.2-39.7
								c6.1-12,12.2-18.3,18.2-23.9c6.1-5.6,12.2-10.4,18.2-15.8c6.1-5.3,12.2-11.2,18.2-10c6.1,1.2,12.2,9.3,18.2,11
								s12.2-3.2,18.2-5.2c6.1-2,12.2-1,18.2-0.4c6.1,0.6,12.2,0.9,18.2,3.8c6.1,2.8,12.2,8.2,18.2,10.9c6.1,2.7,12.2,2.8,18.2,5.5
								c6.1,2.7,12.2,8.1,18.2,15.5c6.1,7.4,12.2,17,18.2,22.2c6.1,5.2,12.2,6,18.2,5.5c6.1-0.6,12.2-2.6,18.2-5.4
								s12.2-6.4,18.2-5.8c6.1,0.6,12.2,5.3,18.2,8.5c6.1,3.2,12.2,5,18.2,4.5c6.1-0.5,12.2-3.3,18.2-3.8c6.1-0.6,12.2,1.1,18.2,3.1
								c6.1,2,12.2,4.3,18.2,5.2c6.1,1,12.2,0.6,18.2,0c6.1-0.6,12.2-1.6,18.2-2.2s12.2-0.9,18.2-0.4s12.2,1.8,18.2,5.1
								c6.1,3.3,12.2,8.5,18.2,10.2c6.1,1.7,12.2-0.2,18.2-1c6.1-0.8,12.2-0.4,15.2-0.2l3,0.2"/>
						</g>
						<g id="Northern_America">
							<path class="st8" d="M0.6,471.2h3c3,0,9.1,0.1,15.2,0c6.1-0.2,12.2-0.6,18.2-1c6.1-0.5,12.2-1,18.2-0.7
								c6.1,0.2,12.2,1.2,18.2,1.6c6.1,0.4,12.2,0.1,18.2,0.3c6.1,0.2,12.2,0.9,18.2,1.2c6.1,0.3,12.2,0.2,18.2-0.2
								c6.1-0.4,12.2-1,18.2-1.5c6.1-0.5,12.2-1,18.2-0.6c6.1,0.4,12.2,1.6,18.2,2.6s12.2,1.8,18.2,2c6.1,0.2,12.2-0.3,18.2-0.3
								c6.1,0.1,12.2,0.7,18.2,1.1c6.1,0.4,12.2,0.7,18.2,0.5c6.1-0.2,12.2-0.8,18.2-1.2c6.1-0.4,12.2-0.6,18.2-0.7
								s12.2-0.3,18.2-0.1c6.1,0.2,12.2,0.7,18.2,0.7c6.1,0,12.2-0.4,18.2-1.2c6.1-0.8,12.2-1.9,18.2-3.1c6.1-1.1,12.2-2.2,18.2-3.3
								c6.1-1,12.2-2,18.2-2.4c6.1-0.4,12.2-0.3,18.2-0.5c6.1-0.2,12.2-0.8,18.2-0.6c6.1,0.2,12.2,1.1,18.2,1.9
								c6.1,0.8,12.2,1.5,18.2,2c6.1,0.5,12.2,0.9,18.2,1s12.2-0.1,18.2-0.4c6.1-0.3,12.2-0.8,15.2-1l3-0.2"/>
						</g>
						<g id="Latin_America_and_the_Caribbean">
							<path class="st10" d="M0.6,454.6l3-0.6c3-0.6,9.1-1.8,15.2-4.7S31,441.6,37,436.4c6.1-5.2,12.2-11,18.2-11.3
								c6.1-0.3,12.2,4.9,18.2,6.2c6.1,1.3,12.2-1.1,18.2-3.5c6.1-2.4,12.2-4.6,18.2-9.3c6.1-4.6,12.2-11.6,18.2-15.5
								c6.1-3.9,12.2-4.7,18.2-3.5c6.1,1.2,12.2,4.3,18.2,10.8c6.1,6.5,12.2,16.3,18.2,21.7c6.1,5.3,12.2,6.2,18.2,7.3
								c6.1,1.1,12.2,2.3,18.2,3.6c6.1,1.2,12.2,2.4,18.2,4.3c6.1,1.9,12.2,4.5,18.2,5.3c6,0.8,12.2-0.2,18.2-1.4
								c6.1-1.2,12.2-2.6,18.2-4.6c6.1-2,12.2-4.5,18.2-5.4c6.1-1,12.2-0.4,18.2-0.4c6.1-0.1,12.2-0.8,18.2-1.9s12.2-2.6,18.2-4.4
								c6.1-1.8,12.2-3.8,18.2-4.8c6.1-1,12.2-0.9,18.2-1.4s12.2-1.5,18.2-2.3c6.1-0.7,12.2-1.2,18.2-1.5c6.1-0.3,12.2-0.6,18.2-1.5
								s12.2-2.4,18.2-2.8c6.1-0.4,12.2,0.4,18.2,1s12.2,1.2,18.2,2.3c6.1,1.1,12.2,2.9,15.2,3.8l3,0.9"/>
						</g>
						<g id="Africa">
							<path class="st11" d="M0.6,480.7h3c3,0,9.1,0,15.2-0.5S31,478.9,37,477s12.2-4.8,18.2-6.3c6.1-1.5,12.2-1.5,18.2-2.5
								c6.1-0.9,12.2-2.8,18.2-4.2c6.1-1.4,12.2-2.2,18.2-3.9c6.1-1.7,12.2-4.2,18.2-7.5c6.1-3.2,12.2-7.2,18.2-8.1
								c6.1-0.9,12.2,1.2,18.2,3.7c6.1,2.4,12.2,5.2,18.2,5.8s12.2-0.7,18.2-1.7c6.1-1,12.2-1.7,18.2-1.6c6.1,0.1,12.2,1.1,18.2,1.9
								c6.1,0.8,12.2,1.3,18.2,0.7c6.1-0.6,12.2-2.3,18.2-4.9c6.1-2.6,12.2-6,18.2-9.3s12.2-6.4,18.2-7.3c6.1-0.9,12.2,0.3,18.2,0.7
								c6.1,0.4,12.2-0.2,18.2-2.3s12.2-6,18.2-7.6c6.1-1.6,12.2-1.1,18.2-1.5c6.1-0.4,12.2-1.7,18.2-2s12.2,0.4,18.2,0.1
								c6.1-0.3,12.2-1.5,18.2-4c6.1-2.5,12.2-6.1,18.2-10.4s12.2-9.3,18.2-9.7c6.1-0.4,12.2,3.9,18.2,5s12.2-1,18.2-2.2
								c6.1-1.2,12.2-1.6,15.2-1.8l3-0.2"/>
						</g>
						<g id="Oceania">
							<path class="st9" d="M0.6,484.9h3c3,0,9.1,0,15.2-0.1c6.1,0,12.2,0,18.2-0.1s12.2-0.3,18.2-0.5c6.1-0.1,12.2-0.1,18.2-0.2
								c6.1-0.1,12.2-0.4,18.2-0.8c6.1-0.4,12.2-0.8,18.2-1.2c6.1-0.4,12.2-0.7,18.2-1s12.2-0.6,18.2-0.6c6.1,0,12.2,0.2,18.2,0.6
								c6.1,0.4,12.2,0.8,18.2,1.2c6.1,0.4,12.2,0.7,18.2,0.9c6.1,0.2,12.2,0.2,18.2,0.3c6.1,0.1,12.2,0.3,18.2,0.6
								c6.1,0.2,12.2,0.4,18.2,0.5c6.1,0.1,12.2,0.1,18.2,0c6.1-0.1,12.2-0.3,18.2-0.6c6.1-0.3,12.2-0.7,18.2-0.9
								c6.1-0.2,12.2-0.1,18.2,0c6.1,0,12.2-0.1,18.2-0.1c6.1,0,12.2,0,18.2,0.1c6.1,0.1,12.2,0.2,18.2,0.4
								c6.1,0.1,12.2,0.2,18.2,0.2c6.1,0,12.2-0.2,18.2-0.4c6.1-0.1,12.2-0.3,18.2-0.3s12.2-0.1,18.2-0.1s12.2,0,18.2,0.1
								c6.1,0.1,12.2,0.3,18.2,0.4s12.2,0,18.2-0.1c6.1-0.1,12.2-0.2,15.2-0.2h3"/>
						</g>
					</g>
				</g>
			</g>
		</g>
	</g>
	<text transform="matrix(1.0268 0 0 1 57.5889 82.2607)" class="st26 st4 st27">Total</text>
	<text transform="matrix(1.0268 0 0 1 604.0884 480.3857)" class="st26 st4 st28">Year</text>
	<rect x="2.3" y="6" class="st29" width="498.5" height="43.8"/>
	<text transform="matrix(1.0268 0 0 1 2.3145 19.5947)" class="st30 st15 st21">Annual total of immigrants by continent over time</text>
	<text transform="matrix(1 0 0 1 2.3137 39.595)" class="st30 st19 st31">(1984 - 2013)</text>
	<text transform="matrix(1 0 0 1 91.8484 39.595)" class="st30 st19 st21"> </text>
	<text transform="matrix(1.0268 0 0 1 96.2622 39.5947)" class="st30 st15 st21"> </text>
	<rect x="422.6" y="110.3" class="st29" width="50.3" height="33.7"/>
	<text transform="matrix(1 0 0 1 422.6396 120.1605)" class="st32 st15 st16">Asia</text>
	<rect x="507.7" y="383.9" class="st29" width="79.7" height="23.7"/>
	<text transform="matrix(1 0 0 1 507.6879 393.6985)" class="st33 st15 st16">Africa</text>
	<rect x="195.1" y="324.8" class="st29" width="63.8" height="27.4"/>
	<text transform="matrix(1 0 0 1 195.0956 334.6492)" class="st34 st15 st16">Europe</text>
	<rect x="149.8" y="386.7" class="st29" width="135.4" height="13"/>
	<text transform="matrix(1 0 0 1 149.8001 396.5645)" class="st35 st15 st16">South Ameria</text>
	<rect x="445" y="475.2" class="st29" width="94.7" height="15.3"/>
	<text transform="matrix(1 0 0 1 444.9583 485.041)" class="st36 st15 st16">Oceania</text>
	<polygon class="st29" points="367.9,482.8 251.6,482.8 273.6,464.8 389.9,464.8 	"/>
	<text transform="matrix(1 0 0 1 272.3704 474.6381)" class="st37 st15 st16">North America</text>
	<line class="st38" x1="579.2" y1="491.9" x2="579.2" y2="497.3"/>
</g>
<line class="st39" x1="588.3" y1="493.2" x2="588.3" y2="498.3"/>
</svg>
