<?xml version="1.0" encoding="utf-8"?>
<!-- Generator: Adobe Illustrator 25.4.1, SVG Export Plug-In . SVG Version: 6.00 Build 0)  -->
<svg version="1.1" id="Layer_1" xmlns="http://www.w3.org/2000/svg" xmlns:xlink="http://www.w3.org/1999/xlink" x="0px" y="0px"
	 viewBox="0 0 330 235" style="enable-background:new 0 0 330 235;" xml:space="preserve">
<style type="text/css">
	.st0{fill:none;stroke:#A7A7A7;}
	.st1{fill:none;stroke:#000000;}
	.st2{fill:#A7A7A7;stroke:#000000;}
	.st3{fill:none;stroke:#99C1B9;stroke-width:3;}
	.st4{fill:none;stroke:#CD533B;stroke-width:3;}
	.st5{fill:none;stroke:#A7A7A7;stroke-width:0.5;}
	.st6{fill:none;}
	.st7{fill:#CD533B;}
	.st8{font-family:'Georgia-Bold';}
	.st9{font-size:14px;}
	.st10{fill:#99C1B9;}
	.st11{fill:#A7A7A7;}
	.st12{font-size:6.9388px;}
</style>
<g>
	<g transform="translate(45,5)">
		<g id="axis">
			<g transform="translate(0,455)">
				<path class="st0" d="M-42.23-227.95"/>
				<g transform="translate(120.5,0)">
					<path class="st1" d="M-104.21-229.2"/>
				</g>
				<g transform="translate(220.49999999999997,0)">
					<path class="st1" d="M-155.44-229.2"/>
				</g>
				<g transform="translate(320.5,0)">
					<path class="st1" d="M-206.67-229.2"/>
				</g>
				<g transform="translate(420.5,0)">
					<path class="st1" d="M-257.9-229.2"/>
				</g>
				<g transform="translate(520.5,0)">
					<path class="st1" d="M-309.13-229.2"/>
				</g>
				<g transform="translate(0.5,0)">
					<path class="st1" d="M-42.73-229.2"/>
				</g>
			</g>
			<g transform="translate(0,0)">
				<path class="st0" d="M-42.23,226.05V-1.18"/>
				<path class="st0" d="M240,226.44H-42.85"/>
				<g transform="translate(0,455.5)">
					<path class="st1" d="M-42.47-229.45"/>
				</g>
				<g transform="translate(0,404.9444444444444)">
					<path class="st1" d="M-42.47-204.14"/>
				</g>
				<g transform="translate(0,354.3888888888889)">
					<path class="st1" d="M-42.47-178.83"/>
				</g>
				<g transform="translate(0,303.83333333333337)">
					<path class="st1" d="M-45.4-153.52"/>
					<path class="st1" d="M-42.47-153.52"/>
				</g>
				<g transform="translate(0,253.2777777777778)">
					<path class="st1" d="M-45.4-128.22"/>
					<path class="st1" d="M-42.47-128.22"/>
				</g>
				<g transform="translate(0,202.7222222222222)">
					<path class="st1" d="M-42.47-102.91"/>
				</g>
				<g transform="translate(0,152.16666666666669)">
					<path class="st1" d="M-42.47-77.6"/>
				</g>
				<g transform="translate(0,101.6111111111111)">
					<path class="st1" d="M-42.47-52.29"/>
				</g>
				<g transform="translate(0,51.05555555555558)">
					<path class="st1" d="M-45.4-26.99"/>
					<path class="st2" d="M-42.47-26.99"/>
				</g>
				<g transform="translate(0,0.5)">
					<path class="st1" d="M-42.47-1.68"/>
				</g>
			</g>
		</g>
		<g id="viz">
			<g id="India">
				<path class="st3" d="M-42.47,197l1.63,1.26c1.63,1.26,4.88,3.77,8.13,2.55s6.5-6.16,9.75-11.19c3.25-5.03,6.5-10.15,9.75-13.83
					c3.25-3.68,6.5-5.92,9.75-6.05s6.5,1.85,9.75,1.42s6.5-3.29,9.75-6.15c3.25-2.85,6.5-5.7,9.75-7.08s6.5-1.27,9.75-7.8
					s6.5-19.7,9.75-23.86c3.25-4.16,6.5,0.68,9.75,3.21c3.25,2.53,6.5,2.75,9.75-1.66c3.25-4.41,6.5-13.45,9.75-16.63
					s6.5-0.5,9.75,5.07c3.25,5.57,6.5,14.03,9.75,16.8c3.25,2.77,6.5-0.14,9.75-9.68c3.25-9.54,6.5-25.69,9.75-36
					c3.25-10.31,6.5-14.77,9.75-17.56c3.25-2.79,6.5-3.91,9.75-0.49c3.25,3.42,6.5,11.39,9.75,14.47s6.5,1.26,9.75-6.36
					s6.5-21.04,9.75-25.77c3.25-4.72,6.5-0.75,9.75,5.54c3.25,6.29,6.5,14.88,9.75,19.58c3.25,4.7,6.5,5.51,9.75,4.91
					c3.25-0.6,6.5-2.61,9.75-7.64c3.25-5.03,6.5-13.07,9.75-11.43c3.25,1.64,6.5,12.96,9.75,15.74s6.5-2.98,9.75-7.68
					c3.25-4.69,6.5-8.32,8.13-10.13l1.63-1.81"/>
			</g>
			<g id="China">
				<path class="st4" d="M-42.47,218.09l1.63-0.24c1.63-0.24,4.88-0.73,8.13-1.09c3.25-0.36,6.5-0.61,9.75-1.3
					c3.25-0.7,6.5-1.85,9.75-2.52s6.5-0.87,9.75-2.28s6.5-4.05,9.75-8.52c3.25-4.48,6.5-10.79,9.75-19.15
					c3.25-8.36,6.5-18.76,9.75-21.09c3.25-2.33,6.5,3.41,9.75,7.14s6.5,5.47,9.75,3.55c3.25-1.92,6.5-7.49,9.75-11.35
					s6.5-5.99,9.75-11.28c3.25-5.29,6.5-13.74,9.75-18.85c3.25-5.11,6.5-6.9,9.75-8.27c3.25-1.38,6.5-2.34,9.75-10.42
					c3.25-8.07,6.5-23.26,9.75-35.44c3.25-12.19,6.5-21.38,9.75-26.73c3.25-5.36,6.5-6.88,9.75-3.88c3.25,3,6.5,10.53,9.75,10.53
					s6.5-7.54,9.75-11.46s6.5-4.22,9.75-9.39s6.5-15.21,9.75-12.6c3.25,2.61,6.5,17.87,9.75,30.44c3.25,12.58,6.5,22.47,9.75,25.4
					c3.25,2.93,6.5-1.1,9.75-2.77c3.25-1.67,6.5-0.97,9.75-1.27c3.25-0.3,6.5-1.59,9.75-0.65c3.25,0.94,6.5,4.12,9.75,1.91
					c3.25-2.22,6.5-9.83,9.75-14.56s6.5-6.6,8.13-7.53l1.63-0.93"/>
			</g>
			<g id="Philippines">
				<path class="st5" d="M-42.47,206.61l1.63,0.55c1.63,0.55,4.88,1.64,8.13,1.34s6.5-2.02,9.75-5.56c3.25-3.54,6.5-8.92,9.75-12.68
					c3.25-3.76,6.5-5.92,9.75-9.71c3.25-3.79,6.5-9.22,9.75-12.48c3.25-3.26,6.5-4.34,9.75-5.06c3.25-0.72,6.5-1.07,9.75-2.05
					c3.25-0.98,6.5-2.58,9.75-9.11s6.5-17.99,9.75-22.93c3.25-4.93,6.5-3.34,9.75,0.54s6.5,10.06,9.75,14.97
					c3.25,4.91,6.5,8.57,9.75,12.2c3.25,3.63,6.5,7.24,9.75,11.41c3.25,4.17,6.5,8.91,9.75,10.44c3.25,1.53,6.5-0.15,9.75-1.86
					c3.25-1.71,6.5-3.44,9.75-6.89c3.25-3.45,6.5-8.62,9.75-9.42c3.25-0.79,6.5,2.79,9.75,3.7c3.25,0.91,6.5-0.86,9.75-2.79
					s6.5-4.03,9.75-8.56s6.5-11.49,9.75-15.19c3.25-3.7,6.5-4.14,9.75-5.57c3.25-1.43,6.5-3.85,9.75-9.31
					c3.25-5.46,6.5-13.96,9.75-21.31c3.25-7.35,6.5-13.56,9.75-25.11s6.5-28.46,9.75-35.36s6.5-3.78,9.75-0.16s6.5,7.74,9.75,13.82
					s6.5,14.11,8.13,18.12l1.63,4.02"/>
			</g>
			<g id="UK">
				<path class="st5" d="M-42.47,174.45l1.63,0.51c1.63,0.51,4.88,1.53,8.13,2.12c3.25,0.59,6.5,0.75,9.75-9.16
					s6.5-29.88,9.75-44.94s6.5-25.19,9.75-27.26s6.5,3.93,9.75,0.3s6.5-16.88,9.75-16.53s6.5,14.3,9.75,12.23s6.5-20.15,9.75-28.85
					s6.5-8.02,9.75-12.32s6.5-13.58,9.75-10.57c3.25,3.01,6.5,18.3,9.75,26.64c3.25,8.34,6.5,9.72,9.75,15.77
					c3.25,6.04,6.5,16.74,9.75,32.7c3.25,15.95,6.5,37.16,9.75,50.56c3.25,13.4,6.5,18.99,9.75,20.28c3.25,1.29,6.5-1.74,9.75-5.68
					c3.25-3.94,6.5-8.8,9.75-8.13c3.25,0.67,6.5,6.87,9.75,11.02s6.5,6.25,9.75,6.68c3.25,0.43,6.5-0.81,9.75-1.2
					c3.25-0.39,6.5,0.07,9.75,0.41c3.25,0.33,6.5,0.53,9.75-0.28c3.25-0.81,6.5-2.62,9.75-4.17c3.25-1.55,6.5-2.83,9.75-3.39
					c3.25-0.56,6.5-0.38,9.75-0.17s6.5,0.47,9.75,2.72c3.25,2.25,6.5,6.49,9.75,8.62c3.25,2.13,6.5,2.14,9.75,2.46
					c3.25,0.32,6.5,0.94,8.13,1.25l1.63,0.31"/>
			</g>
			<g id="Pakistan">
				<path class="st5" d="M-42.47,222.43l1.63,0.13c1.63,0.13,4.88,0.39,8.13,0.37c3.25-0.02,6.5-0.32,9.75-0.79
					c3.25-0.47,6.5-1.11,9.75-1.65c3.25-0.54,6.5-0.98,9.75-1.98c3.25-1,6.5-2.56,9.75-3.52c3.25-0.96,6.5-1.31,9.75-2
					s6.5-1.71,9.75-3.06c3.25-1.35,6.5-3.02,9.75-4.45c3.25-1.43,6.5-2.62,9.75-3.12c3.25-0.5,6.5-0.31,9.75-0.5
					c3.25-0.18,6.5-0.73,9.75-4.49c3.25-3.75,6.5-10.71,9.75-17.51c3.25-6.8,6.5-13.44,9.75-13.4c3.25,0.05,6.5,6.79,9.75,9.39
					c3.25,2.6,6.5,1.07,9.75-4.26c3.25-5.33,6.5-14.45,9.75-20.12c3.25-5.66,6.5-7.86,9.75-7.62c3.25,0.24,6.5,2.93,9.75,5.88
					c3.25,2.95,6.5,6.15,9.75,7.59c3.25,1.44,6.5,1.11,9.75,0.18s6.5-2.47,9.75-2.24c3.25,0.23,6.5,2.23,9.75,5.75
					c3.25,3.53,6.5,8.58,9.75,12.06c3.25,3.48,6.5,5.38,9.75,7.83c3.25,2.45,6.5,5.44,9.75,7.27c3.25,1.84,6.5,2.52,9.75,2.31
					c3.25-0.21,6.5-1.32,9.75-5.03c3.25-3.72,6.5-10.04,9.75-14.37c3.25-4.32,6.5-6.64,8.13-7.8l1.63-1.16"/>
			</g>
			<g id="USA">
				<path class="st5" d="M-42.47,192.17l1.63,0.1c1.63,0.1,4.88,0.3,8.13-0.05c3.25-0.35,6.5-1.24,9.75-2.22
					c3.25-0.98,6.5-2.04,9.75-1.53c3.25,0.51,6.5,2.59,9.75,3.36s6.5,0.23,9.75,0.72c3.25,0.49,6.5,2,9.75,2.62
					c3.25,0.62,6.5,0.35,9.75-0.45c3.25-0.8,6.5-2.13,9.75-3.29c3.25-1.16,6.5-2.16,9.75-1.37c3.25,0.79,6.5,3.37,9.75,5.52
					c3.25,2.14,6.5,3.84,9.75,4.17c3.25,0.32,6.5-0.73,9.75-0.61c3.25,0.12,6.5,1.4,9.75,2.31c3.25,0.91,6.5,1.44,9.75,1.07
					c3.25-0.37,6.5-1.65,9.75-2.49c3.25-0.84,6.5-1.24,9.75-1.58c3.25-0.34,6.5-0.63,9.75-0.22c3.25,0.41,6.5,1.51,9.75,1.56
					c3.25,0.05,6.5-0.95,9.75-2.67s6.5-4.15,9.75-6.55c3.25-2.4,6.5-4.76,9.75-6.97c3.25-2.21,6.5-4.26,9.75-5.16
					c3.25-0.9,6.5-0.65,9.75-1.13c3.25-0.49,6.5-1.71,9.75-1.32c3.25,0.39,6.5,2.41,9.75,4.13s6.5,3.16,9.75,4.27
					s6.5,1.89,9.75,2.11c3.25,0.21,6.5-0.15,9.75-0.84c3.25-0.69,6.5-1.72,8.13-2.23l1.63-0.51"/>
			</g>
		</g>
	</g>
</g>
<g>
	<rect x="184.09" y="10.48" class="st6" width="51.91" height="17.97"/>
	<text transform="matrix(1 0 0 1 184.0917 21.0669)" class="st7 st8 st9">China</text>
	<rect x="176" y="94" class="st6" width="60.92" height="17.97"/>
	<text transform="matrix(1 0 0 1 175.9999 104.5874)" class="st10 st8 st9">India</text>
	<rect x="287.09" y="81.16" class="st6" width="47.31" height="17.97"/>
	<text transform="matrix(1 0 0 1 287.0917 86.4107)" class="st11 st8 st12">Philippines</text>
	<rect x="287.09" y="161.85" class="st6" width="39.12" height="17.97"/>
	<text transform="matrix(1 0 0 1 287.0917 167.0943)" class="st11 st8 st12">Pakistan</text>
	<rect x="287.09" y="182.05" class="st6" width="26.83" height="17.97"/>
	<text transform="matrix(1 0 0 1 287.0917 187.2955)" class="st11 st8 st12">USA</text>
	<rect x="287.09" y="200.76" class="st6" width="26.83" height="17.97"/>
	<text transform="matrix(1 0 0 1 287.0917 206.0093)" class="st11 st8 st12">UK</text>
</g>
</svg>
