<?xml version="1.0" encoding="utf-8"?>
<!-- Generator: Adobe Illustrator 25.4.1, SVG Export Plug-In . SVG Version: 6.00 Build 0)  -->
<svg version="1.1" id="Layer_1" xmlns="http://www.w3.org/2000/svg" xmlns:xlink="http://www.w3.org/1999/xlink" x="0px" y="0px"
	 viewBox="0 0 650 510" style="enable-background:new 0 0 650 510;" xml:space="preserve">
<style type="text/css">
	.st0{fill:none;stroke:#000000;}
	.st1{font-family:'Helvetica';}
	.st2{font-size:8.9511px;}
	.st3{fill:none;stroke:#CD533B;stroke-width:1.5;}
	.st4{fill:none;stroke:#52C1B9;stroke-width:1.5;}
	.st5{fill:none;stroke:#8E7DBE;stroke-width:1.5;}
	.st6{fill:none;stroke:#E7A85F;stroke-width:1.5;}
	.st7{fill:none;stroke:#175676;stroke-width:1.5;}
	.st8{fill:none;stroke:#4BA3C3;stroke-width:1.5;}
	.st9{fill:#A7A7A7;}
	.st10{font-family:'Arial-BoldMT';}
	.st11{font-size:17.7612px;}
	.st12{font-size:18.5746px;}
	.st13{fill:none;}
	.st14{fill:#3E3D3D;}
	.st15{font-family:'Georgia-Bold';}
	.st16{font-size:16px;}
	.st17{font-family:'Georgia';}
	.st18{font-size:14px;}
	.st19{fill:#1C4E80;}
	.st20{font-size:18px;}
	.st21{fill:#CD533B;}
	.st22{font-size:13px;}
	.st23{fill:#175676;}
	.st24{fill:#52C1B9;}
	.st25{fill:#E7A85F;}
	.st26{fill:#4BA3C3;}
	.st27{fill:#8E7DBE;}
	.st28{fill:none;stroke:#000000;stroke-miterlimit:10;}
	.st29{display:none;}
	.st30{display:inline;}
	.st31{font-size:10px;}
	.st32{fill:none;stroke:#1C4E80;stroke-width:1.5;}
	.st33{fill:#1C4E80;stroke:#1C4E80;stroke-miterlimit:10;}
	.st34{fill:none;stroke:#CCCCCC;}
	.st35{display:inline;fill:none;}
	.st36{display:inline;fill:#1C4E80;}
	.st37{font-family:'MyriadPro-BoldCond';}
	.st38{fill:none;stroke:#FFFFFF;stroke-width:2;stroke-miterlimit:10;}
</style>
<g id="Layer_1_00000123438308302780557780000010871701522261400210_">
	<g id="viz_00000015319638262987086130000007796675632020541097_">
		<g transform="translate(0,0)">
			<g>
				<g transform="translate(50,5)">
					<g id="axis">
						<g transform="translate(0,475)">
							<polyline points="547.9,19.8 546.9,19.8 546.9,15.4 1,15.4 1,19.8 0,19.8 0,14.4 547.9,14.4 							"/>
							<g transform="translate(20.333333333333332,0)">
								<line class="st0" x1="-1.6" y1="14.4" x2="-1.6" y2="19.8"/>
								<text transform="matrix(1.0268 0 0 1 -12.0726 28.8057)" class="st1 st2">1985</text>
							</g>
							<g transform="translate(119.5,0)">
								<line class="st0" x1="-9.6" y1="14.4" x2="-9.6" y2="19.8"/>
								<text transform="matrix(1.0268 0 0 1 -20.0938 28.8057)" class="st1 st2">1990</text>
							</g>
							<g transform="translate(218.66666666666666,0)">
								<line class="st0" x1="-17.6" y1="14.4" x2="-17.6" y2="19.8"/>
								<text transform="matrix(1.0268 0 0 1 -28.1154 28.8057)" class="st1 st2">1995</text>
							</g>
							<g transform="translate(317.8333333333333,0)">
								<line class="st0" x1="-25.6" y1="14.4" x2="-25.6" y2="19.8"/>
								<text transform="matrix(1.0268 0 0 1 -36.1361 28.8057)" class="st1 st2">2000</text>
							</g>
							<g transform="translate(417,0)">
								<line class="st0" x1="-33.7" y1="14.4" x2="-33.7" y2="19.8"/>
								<text transform="matrix(1.0268 0 0 1 -44.1562 28.8057)" class="st1 st2">2005</text>
							</g>
							<g transform="translate(516.1666666666666,0)">
								<line class="st0" x1="-41.7" y1="14.4" x2="-41.7" y2="19.8"/>
								<text transform="matrix(1.0268 0 0 1 -52.1784 28.8057)" class="st1 st2">2010</text>
							</g>
							<g transform="translate(0.5,0)">
								<line class="st0" x1="0" y1="14.4" x2="0" y2="19.8"/>
								<text transform="matrix(1.0268 0 0 1 -18.7192 28.8057)" class="st1 st2">1984</text>
							</g>
							<g transform="translate(595.5,0)">
								<path class="st0" d="M-48.1,19.8"/>
								<path class="st0" d="M-48.1,14.4"/>
								<text transform="matrix(1.0268 0 0 1 -76.9346 28.8057)" class="st1 st2">2013</text>
							</g>
						</g>
						<g transform="translate(0,0)">
							<path class="st0" d="M0.5,489.8V64.7"/>
							<g transform="translate(0,475.5)">
								<line class="st0" x1="0.1" y1="14.3" x2="-5.4" y2="14.3"/>
								<text transform="matrix(1.0268 0 0 1 -13.3115 17.2061)" class="st1 st2">0</text>
							</g>
							<g transform="translate(0,422.7222222222222)">
								<line class="st0" x1="0.1" y1="19.9" x2="-5.4" y2="19.9"/>
								<text transform="matrix(1.0268 0 0 1 -36.3115 22.7416)" class="st1 st2">20,000</text>
							</g>
							<g transform="translate(0,369.94444444444446)">
								<line class="st0" x1="0.1" y1="25.4" x2="-5.4" y2="25.4"/>
								<text transform="matrix(1.0268 0 0 1 -36.3115 28.2772)" class="st1 st2">40,000</text>
							</g>
							<g transform="translate(0,317.1666666666667)">
								<line class="st0" x1="0.1" y1="30.9" x2="-5.4" y2="30.9"/>
								<text transform="matrix(1.0268 0 0 1 -36.3115 33.8138)" class="st1 st2">60,000</text>
							</g>
							<g transform="translate(0,264.3888888888889)">
								<line class="st0" x1="0.1" y1="36.5" x2="-5.4" y2="36.5"/>
								<text transform="matrix(1.0268 0 0 1 -36.3115 39.3494)" class="st1 st2">80,000</text>
							</g>
							<g transform="translate(0,211.6111111111111)">
								<line class="st0" x1="0.1" y1="42" x2="-5.4" y2="42"/>
								<text transform="matrix(1.0268 0 0 1 -41.4233 44.885)" class="st1 st2">100,000</text>
							</g>
							<g transform="translate(0,158.83333333333334)">
								<line class="st0" x1="0.1" y1="47.6" x2="-5.4" y2="47.6"/>
								<text transform="matrix(1.0268 0 0 1 -41.4233 50.4216)" class="st1 st2">120,000</text>
							</g>
							<g transform="translate(0,106.05555555555554)">
								<line class="st0" x1="0.1" y1="53.1" x2="-5.4" y2="53.1"/>
								<text transform="matrix(1.0268 0 0 1 -41.4233 55.9571)" class="st1 st2">140,000</text>
							</g>
							<g transform="translate(0,53.2777777777778)">
								<line class="st0" x1="0.1" y1="58.6" x2="-5.4" y2="58.6"/>
								<text transform="matrix(1.0268 0 0 1 -41.4233 61.4922)" class="st1 st2">160,000</text>
							</g>
							<g transform="translate(0,0.5)">
								<line class="st0" x1="0.1" y1="64.2" x2="-5.4" y2="64.2"/>
								<text transform="matrix(1.0268 0 0 1 -41.4233 67.0283)" class="st1 st2">180,000</text>
							</g>
						</g>
					</g>
					<g id="viz">
						<g id="Asia">
							<path class="st3" d="M0.1,425l3,1.3c3,1.3,9.1,4,15.2,3.5s12.2-4.4,18.2-12c6.1-7.6,12.2-19,18.2-26.4
								c6.1-7.4,12.2-10.7,18.2-17.4c6.1-6.7,12.2-16.8,18.2-26.8c6.1-10,12.2-19.9,18.2-31.6c6.1-11.7,12.2-25.2,18.2-32.2
								s12.2-7.7,18.2-11.1s12.2-9.7,18.2-9c6.1,0.7,12.2,8.5,18.2,11.8s12.2,2,18.2-3.5c6.1-5.6,12.2-15.5,18.2-21.8
								c6.1-6.3,12.2-8.9,18.2-4.2c6.1,4.8,12.2,16.9,18.2,16.8c6-0.1,12.2-12.7,18.2-29.9c6.1-17.2,12.2-39,18.2-55.2
								s12.2-26.9,18.2-28.1s12.2,7,18.2,13.4c6.1,6.4,12.2,11.1,18.2,12.2s12.2-1.3,18.2-12.1c6.1-10.8,12.2-30,18.2-35.6
								c6.1-5.6,12.2,2.4,18.2,12.6c6.1,10.2,12.2,22.4,18.2,26c6.1,3.6,12.2-1.5,18.2-4.6s12.2-4.4,18.2-13.8
								c6.1-9.4,12.2-27.1,18.2-29.2c6.1-2.1,12.2,11.2,18.2,15.8c6.1,4.6,12.2,0.4,18.2-2.8c6.1-3.2,12.2-5.5,15.2-6.6l3-1.1"/>
						</g>
						<g id="Europe">
							<path class="st4" d="M0.1,436.8l3,0.6c3,0.6,9.1,1.7,15.2,0.9c6.1-0.8,12.2-3.6,18.2-13.8s12.2-27.8,18.2-39.7
								c6.1-12,12.2-18.3,18.2-23.9c6.1-5.6,12.2-10.4,18.2-15.8c6.1-5.3,12.2-11.2,18.2-10c6.1,1.2,12.2,9.3,18.2,11
								s12.2-3.2,18.2-5.2c6.1-2,12.2-1,18.2-0.4c6.1,0.6,12.2,0.9,18.2,3.8c6.1,2.8,12.2,8.2,18.2,10.9c6.1,2.7,12.2,2.8,18.2,5.5
								c6.1,2.7,12.2,8.1,18.2,15.5c6.1,7.4,12.2,17,18.2,22.2c6.1,5.2,12.2,6,18.2,5.5c6.1-0.6,12.2-2.6,18.2-5.4
								s12.2-6.4,18.2-5.8c6.1,0.6,12.2,5.3,18.2,8.5c6.1,3.2,12.2,5,18.2,4.5c6.1-0.5,12.2-3.3,18.2-3.8c6.1-0.6,12.2,1.1,18.2,3.1
								c6.1,2,12.2,4.3,18.2,5.2c6.1,1,12.2,0.6,18.2,0c6.1-0.6,12.2-1.6,18.2-2.2s12.2-0.9,18.2-0.4s12.2,1.8,18.2,5.1
								c6.1,3.3,12.2,8.5,18.2,10.2c6.1,1.7,12.2-0.2,18.2-1c6.1-0.8,12.2-0.4,15.2-0.2l3,0.2"/>
						</g>
						<g id="Northern_America">
							<path class="st5" d="M0.1,473.7h3c3,0,9.1,0.1,15.2,0c6.1-0.2,12.2-0.6,18.2-1c6.1-0.5,12.2-1,18.2-0.7
								c6.1,0.2,12.2,1.2,18.2,1.6c6.1,0.4,12.2,0.1,18.2,0.3c6.1,0.2,12.2,0.9,18.2,1.2c6.1,0.3,12.2,0.2,18.2-0.2
								c6.1-0.4,12.2-1,18.2-1.5c6.1-0.5,12.2-1,18.2-0.6c6.1,0.4,12.2,1.6,18.2,2.6s12.2,1.8,18.2,2c6.1,0.2,12.2-0.3,18.2-0.3
								c6.1,0.1,12.2,0.7,18.2,1.1c6.1,0.4,12.2,0.7,18.2,0.5c6.1-0.2,12.2-0.8,18.2-1.2c6.1-0.4,12.2-0.6,18.2-0.7
								s12.2-0.3,18.2-0.1c6.1,0.2,12.2,0.7,18.2,0.7c6.1,0,12.2-0.4,18.2-1.2c6.1-0.8,12.2-1.9,18.2-3.1c6.1-1.1,12.2-2.2,18.2-3.3
								c6.1-1,12.2-2,18.2-2.4c6.1-0.4,12.2-0.3,18.2-0.5c6.1-0.2,12.2-0.8,18.2-0.6c6.1,0.2,12.2,1.1,18.2,1.9
								c6.1,0.8,12.2,1.5,18.2,2c6.1,0.5,12.2,0.9,18.2,1s12.2-0.1,18.2-0.4c6.1-0.3,12.2-0.8,15.2-1l3-0.2"/>
						</g>
						<g id="Latin_America_and_the_Caribbean">
							<path class="st6" d="M0.1,457.1l3-0.6c3-0.6,9.1-1.8,15.2-4.7s12.2-7.7,18.2-12.9c6.1-5.2,12.2-11,18.2-11.3
								c6.1-0.3,12.2,4.9,18.2,6.2c6.1,1.3,12.2-1.1,18.2-3.5c6.1-2.4,12.2-4.6,18.2-9.3c6.1-4.6,12.2-11.6,18.2-15.5
								c6.1-3.9,12.2-4.7,18.2-3.5c6.1,1.2,12.2,4.3,18.2,10.8c6.1,6.5,12.2,16.3,18.2,21.7c6.1,5.3,12.2,6.2,18.2,7.3
								c6.1,1.1,12.2,2.3,18.2,3.6c6.1,1.2,12.2,2.4,18.2,4.3c6.1,1.9,12.2,4.5,18.2,5.3c6,0.8,12.2-0.2,18.2-1.4
								c6.1-1.2,12.2-2.6,18.2-4.6c6.1-2,12.2-4.5,18.2-5.4c6.1-1,12.2-0.4,18.2-0.4c6.1-0.1,12.2-0.8,18.2-1.9s12.2-2.6,18.2-4.4
								c6.1-1.8,12.2-3.8,18.2-4.8c6.1-1,12.2-0.9,18.2-1.4s12.2-1.5,18.2-2.3c6.1-0.7,12.2-1.2,18.2-1.5c6.1-0.3,12.2-0.6,18.2-1.5
								s12.2-2.4,18.2-2.8c6.1-0.4,12.2,0.4,18.2,1s12.2,1.2,18.2,2.3c6.1,1.1,12.2,2.9,15.2,3.8l3,0.9"/>
						</g>
						<g id="Africa">
							<path class="st7" d="M0.1,483.2h3c3,0,9.1,0,15.2-0.5s12.2-1.3,18.2-3.2s12.2-4.8,18.2-6.3c6.1-1.5,12.2-1.5,18.2-2.5
								c6.1-0.9,12.2-2.8,18.2-4.2c6.1-1.4,12.2-2.2,18.2-3.9c6.1-1.7,12.2-4.2,18.2-7.5c6.1-3.2,12.2-7.2,18.2-8.1
								c6.1-0.9,12.2,1.2,18.2,3.7c6.1,2.4,12.2,5.2,18.2,5.8s12.2-0.7,18.2-1.7c6.1-1,12.2-1.7,18.2-1.6c6.1,0.1,12.2,1.1,18.2,1.9
								c6.1,0.8,12.2,1.3,18.2,0.7c6.1-0.6,12.2-2.3,18.2-4.9c6.1-2.6,12.2-6,18.2-9.3s12.2-6.4,18.2-7.3c6.1-0.9,12.2,0.3,18.2,0.7
								c6.1,0.4,12.2-0.2,18.2-2.3s12.2-6,18.2-7.6c6.1-1.6,12.2-1.1,18.2-1.5c6.1-0.4,12.2-1.7,18.2-2s12.2,0.4,18.2,0.1
								c6.1-0.3,12.2-1.5,18.2-4c6.1-2.5,12.2-6.1,18.2-10.4s12.2-9.3,18.2-9.7c6.1-0.4,12.2,3.9,18.2,5s12.2-1,18.2-2.2
								c6.1-1.2,12.2-1.6,15.2-1.8l3-0.2"/>
						</g>
						<g id="Oceania">
							<path class="st8" d="M0.1,487.3h3c3,0,9.1,0,15.2-0.1c6.1,0,12.2,0,18.2-0.1s12.2-0.3,18.2-0.5c6.1-0.1,12.2-0.1,18.2-0.2
								c6.1-0.1,12.2-0.4,18.2-0.8c6.1-0.4,12.2-0.8,18.2-1.2c6.1-0.4,12.2-0.7,18.2-1s12.2-0.6,18.2-0.6c6.1,0,12.2,0.2,18.2,0.6
								c6.1,0.4,12.2,0.8,18.2,1.2c6.1,0.4,12.2,0.7,18.2,0.9c6.1,0.2,12.2,0.2,18.2,0.3c6.1,0.1,12.2,0.3,18.2,0.6
								c6.1,0.2,12.2,0.4,18.2,0.5c6.1,0.1,12.2,0.1,18.2,0c6.1-0.1,12.2-0.3,18.2-0.6c6.1-0.3,12.2-0.7,18.2-0.9
								c6.1-0.2,12.2-0.1,18.2,0c6.1,0,12.2-0.1,18.2-0.1c6.1,0,12.2,0,18.2,0.1c6.1,0.1,12.2,0.2,18.2,0.4
								c6.1,0.1,12.2,0.2,18.2,0.2c6.1,0,12.2-0.2,18.2-0.4c6.1-0.1,12.2-0.3,18.2-0.3s12.2-0.1,18.2-0.1s12.2,0,18.2,0.1
								c6.1,0.1,12.2,0.3,18.2,0.4s12.2,0,18.2-0.1c6.1-0.1,12.2-0.2,15.2-0.2h3"/>
						</g>
					</g>
				</g>
			</g>
		</g>
	</g>
	<text transform="matrix(1.0268 0 0 1 57.0771 84.7305)" class="st9 st10 st11">Total</text>
	<text transform="matrix(1.0268 0 0 1 603.5771 482.8555)" class="st9 st10 st12">Year</text>
	<rect x="1.8" y="8.5" class="st13" width="498.5" height="43.8"/>
	<text transform="matrix(1.0268 0 0 1 9.7085 16.0361)" class="st14 st15 st16">Annual total of immigrants by continent over time</text>
	<text transform="matrix(1 0 0 1 9.2094 35.0362)" class="st14 st17 st18">(1984 - 2013)</text>
	<text transform="matrix(1 0 0 1 91.3369 42.0645)" class="st19 st17 st20"> </text>
	<text transform="matrix(1.0268 0 0 1 95.7515 42.0645)" class="st19 st15 st20"> </text>
	<rect x="422.1" y="112.8" class="st13" width="50.3" height="33.7"/>
	<text transform="matrix(1 0 0 1 422.1281 122.63)" class="st21 st15 st22">Asia</text>
	<rect x="507.2" y="386.3" class="st13" width="79.7" height="23.7"/>
	<text transform="matrix(1 0 0 1 507.1764 396.168)" class="st23 st15 st22">Africa</text>
	<rect x="194.6" y="327.3" class="st13" width="63.8" height="27.4"/>
	<text transform="matrix(1 0 0 1 194.5842 337.1187)" class="st24 st15 st22">Europe</text>
	<rect x="149.3" y="389.2" class="st13" width="135.4" height="13"/>
	<text transform="matrix(1 0 0 1 149.2886 399.0339)" class="st25 st15 st22">South Ameria</text>
	<rect x="444.4" y="477.7" class="st13" width="94.7" height="15.3"/>
	<text transform="matrix(1 0 0 1 444.4468 487.5105)" class="st26 st15 st22">Oceania</text>
	<polygon class="st13" points="367.4,485.3 251.1,485.3 273.1,467.3 389.4,467.3 	"/>
	<text transform="matrix(1 0 0 1 271.8589 477.1076)" class="st27 st15 st22">North America</text>
	<line class="st28" x1="578.7" y1="494.4" x2="578.7" y2="499.8"/>
</g>
<g id="Layer_2_00000158737584323607071030000000486156807464353679_" class="st29">
	<g id="viz_00000169520830402181730540000004313220529821034893_" class="st30">
		<g transform="translate(0,0)">
			<g>
				<g transform="translate(50,5)">
					<g id="axis_00000054263344655938634580000012979527129898446976_">
						<g transform="translate(0,425)">
							<path class="st0" d="M-0.3,63.3v-5.5h595v5.5"/>
							<g transform="translate(20.333333333333332,0)">
								<line class="st0" x1="-0.8" y1="57.3" x2="-0.8" y2="63.3"/>
								<text transform="matrix(1 0 0 1 -13.2693 73.3619)" class="st1 st31">1,985</text>
								<text transform="matrix(1 0 0 1 -44.3386 73.3613)" class="st1 st31">1,984</text>
							</g>
							<g transform="translate(119.5,0)">
								<line class="st0" x1="-0.8" y1="57.3" x2="-0.8" y2="63.3"/>
								<text transform="matrix(1 0 0 1 -13.2693 73.3619)" class="st1 st31">1,990</text>
							</g>
							<g transform="translate(218.66666666666666,0)">
								<line class="st0" x1="-0.8" y1="57.3" x2="-0.8" y2="63.3"/>
								<text transform="matrix(1 0 0 1 -13.2693 73.3619)" class="st1 st31">1,995</text>
							</g>
							<g transform="translate(317.8333333333333,0)">
								<line class="st0" x1="-0.8" y1="57.3" x2="-0.8" y2="63.3"/>
								<text transform="matrix(1 0 0 1 -13.2693 73.3619)" class="st1 st31">2,000</text>
							</g>
							<g transform="translate(417,0)">
								<line class="st0" x1="-0.8" y1="57.3" x2="-0.8" y2="63.3"/>
								<text transform="matrix(1 0 0 1 -13.2693 73.3619)" class="st1 st31">2,005</text>
							</g>
							<g transform="translate(516.1666666666666,0)">
								<line class="st0" x1="-0.8" y1="57.3" x2="-0.8" y2="63.3"/>
								<text transform="matrix(1 0 0 1 -13.2692 73.3619)" class="st1 st31">2,010</text>
							</g>
							<g transform="translate(0.5,0)">
								<line class="st0" x1="-0.8" y1="57.3" x2="-0.8" y2="63.3"/>
							</g>
							<g transform="translate(595.5,0)">
								<line class="st0" x1="-0.8" y1="57.3" x2="-0.8" y2="63.3"/>
								<text transform="matrix(1 0 0 1 -24.2693 73.3619)" class="st1 st31">2,014</text>
							</g>
							<text transform="matrix(1 0 0 1 555.4418 45.6135)" class="st9 st10 st12">Year</text>
						</g>
						<g transform="translate(0,0)">
							<path class="st0" d="M-0.3,482.8v-425"/>
							<g transform="translate(0,425.5)">
								<line class="st0" x1="-0.8" y1="57.3" x2="-6.8" y2="57.3"/>
							</g>
							<g transform="translate(0,386.8636363636364)">
								<line class="st0" x1="-0.8" y1="57.3" x2="-6.8" y2="57.3"/>
								<text transform="matrix(1 0 0 1 -40.343 60.462)" class="st1 st31">80,000</text>
							</g>
							<g transform="translate(0,348.2272727272727)">
								<line class="st0" x1="-0.8" y1="57.3" x2="-6.8" y2="57.3"/>
								<text transform="matrix(1 0 0 1 -45.9045 60.4619)" class="st1 st31">100,000</text>
							</g>
							<g transform="translate(0,309.5909090909091)">
								<line class="st0" x1="-0.8" y1="57.3" x2="-6.8" y2="57.3"/>
								<text transform="matrix(1 0 0 1 -45.9045 60.4619)" class="st1 st31">120,000</text>
							</g>
							<g transform="translate(0,270.95454545454544)">
								<line class="st0" x1="-0.8" y1="57.3" x2="-6.8" y2="57.3"/>
								<text transform="matrix(1 0 0 1 -45.9045 60.4619)" class="st1 st31">140,000</text>
							</g>
							<g transform="translate(0,232.3181818181818)">
								<line class="st0" x1="-0.8" y1="57.3" x2="-6.8" y2="57.3"/>
								<text transform="matrix(1 0 0 1 -45.9045 60.462)" class="st1 st31">160,000</text>
							</g>
							<g transform="translate(0,193.6818181818182)">
								<line class="st0" x1="-0.8" y1="57.3" x2="-6.8" y2="57.3"/>
								<text transform="matrix(1 0 0 1 -45.9045 60.462)" class="st1 st31">180,000</text>
							</g>
							<g transform="translate(0,155.04545454545456)">
								<line class="st0" x1="-0.8" y1="57.3" x2="-6.8" y2="57.3"/>
								<text transform="matrix(1 0 0 1 -45.9045 60.462)" class="st1 st31">200,000</text>
							</g>
							<g transform="translate(0,116.4090909090909)">
								<line class="st0" x1="-0.8" y1="57.3" x2="-6.8" y2="57.3"/>
								<text transform="matrix(1 0 0 1 -45.9045 60.4619)" class="st1 st31">220,000</text>
							</g>
							<g transform="translate(0,77.77272727272725)">
								<line class="st0" x1="-0.8" y1="57.3" x2="-6.8" y2="57.3"/>
								<text transform="matrix(1 0 0 1 -45.9045 60.462)" class="st1 st31">240,000</text>
							</g>
							<g transform="translate(0,39.13636363636365)">
								<line class="st0" x1="-0.8" y1="57.3" x2="-6.8" y2="57.3"/>
								<text transform="matrix(1 0 0 1 -45.9045 60.4619)" class="st1 st31">260,000</text>
							</g>
							<g transform="translate(0,0.5)">
								<line class="st0" x1="-0.8" y1="57.3" x2="-6.8" y2="57.3"/>
								<text transform="matrix(1 0 0 1 -45.9045 60.4619)" class="st1 st31">280,000</text>
							</g>
							<text transform="matrix(1 0 0 1 6.2429 72.4998)" class="st9 st10 st11">Total</text>
						</g>
					</g>
					<g id="viz_00000180361901616893674780000013724609209641268142_">
						<g>
							<path class="st32" d="M-0.8,456.3l19.8,6.6l19.8-31l19.8-94.1l19.8-8.8l19.8-48.5l19.8-45.6l19.8-37.6l19.8-27.4l19.8-0.7
								l19.8,54.8l19.8,11.5l19.8-23.9l19.8,13.9l19.8,62.1l19.8-36.9l19.8-71.3l19.8-50.1l19.8,37.7l19.8,11.2l19.8-28.6l19.8-49
								l19.8,20.1l19.8,28.3l19.8-20.6l19.8-11.1L514,62.8l19.8,59.4l19.8-19.4l19.8-2.5"/>
							<g>
								<circle class="st19" cx="-0.8" cy="456.3" r="4"/>
								<circle class="st19" cx="19.1" cy="463" r="4"/>
								<circle class="st19" cx="38.9" cy="431.9" r="4"/>
								<circle class="st19" cx="58.7" cy="337.8" r="4"/>
								<circle class="st19" cx="78.6" cy="329.1" r="4"/>
								<circle class="st19" cx="98.4" cy="280.5" r="4"/>
								<circle class="st19" cx="118.2" cy="234.9" r="4"/>
								<circle class="st19" cx="138.1" cy="197.3" r="4"/>
								<circle class="st19" cx="157.9" cy="169.9" r="4"/>
								<circle class="st19" cx="177.7" cy="169.2" r="4"/>
								<circle class="st19" cx="197.6" cy="224" r="4"/>
								<circle class="st33" cx="217.4" cy="235.5" r="4"/>
								<circle class="st19" cx="237.2" cy="211.6" r="4"/>
								<circle class="st19" cx="257.1" cy="225.6" r="4"/>
								<circle class="st19" cx="276.9" cy="287.7" r="4"/>
								<circle class="st19" cx="296.7" cy="250.8" r="4"/>
								<circle class="st19" cx="316.6" cy="179.5" r="4"/>
								<circle class="st19" cx="336.4" cy="129.4" r="4"/>
								<circle class="st19" cx="356.2" cy="167.2" r="4"/>
								<circle class="st19" cx="376.1" cy="178.4" r="4"/>
								<circle class="st19" cx="395.9" cy="149.8" r="4"/>
								<circle class="st19" cx="415.7" cy="100.8" r="4"/>
								<circle class="st19" cx="435.6" cy="120.9" r="4"/>
								<circle class="st19" cx="455.4" cy="149.2" r="4"/>
								<circle class="st19" cx="475.2" cy="128.6" r="4"/>
								<circle class="st19" cx="495.1" cy="117.6" r="4"/>
								<circle class="st19" cx="514.9" cy="63.1" r="4"/>
								<circle class="st19" cx="534.7" cy="122.6" r="4"/>
								<circle class="st19" cx="554.6" cy="103.2" r="4"/>
								<circle class="st19" cx="574.4" cy="100.7" r="4"/>
							</g>
						</g>
					</g>
				</g>
			</g>
		</g>
		<g id="grid_00000085957570913301214550000018256153555979561089_">
			<path class="st34" d="M649.2,57.3"/>
			<path class="st34" d="M-0.8,57.3"/>
			<path class="st34" d="M-0.8,507.3"/>
			<path class="st34" d="M649.2,507.3"/>
		</g>
	</g>
	<rect x="210.4" y="153.8" class="st35" width="34.7" height="9.1"/>
	<text transform="matrix(1 0 0 1 210.4093 162.8244)" class="st36 st37 st22">222049</text>
	<rect x="309.6" y="303.5" class="st35" width="34.7" height="9.1"/>
	<text transform="matrix(1 0 0 1 309.5759 312.4794)" class="st36 st37 st22">160727</text>
	<rect x="369.1" y="114" class="st35" width="34.7" height="9.1"/>
	<text transform="matrix(1 0 0 1 369.0759 123.0423)" class="st36 st37 st22">242643</text>
	<rect x="408.7" y="194.8" class="st35" width="34.7" height="9.1"/>
	<text transform="matrix(1 0 0 1 408.7426 203.7471)" class="st36 st37 st22">217297</text>
	<rect x="448.4" y="83.9" class="st35" width="34.7" height="9.1"/>
	<text transform="matrix(1 0 0 1 448.4093 92.8967)" class="st36 st37 st22">257457</text>
	<rect x="488.1" y="165.7" class="st35" width="34.7" height="9.1"/>
	<text transform="matrix(1 0 0 1 488.0759 174.6585)" class="st36 st37 st22">232405</text>
	<rect x="547.6" y="47.2" class="st35" width="34.7" height="9.1"/>
	<text transform="matrix(1 0 0 1 547.5759 56.158)" class="st36 st37 st22">246194</text>
	<rect x="3.2" y="8.5" class="st35" width="401.4" height="43.8"/>
	<text transform="matrix(1 0 0 1 3.2272 22.0647)" class="st36 st15 st20">Annual total of immigrants to Canada</text>
</g>
<line class="st13" x1="597.2" y1="495.4" x2="599.4" y2="495.4"/>
<line class="st38" x1="597.3" y1="495.4" x2="597.4" y2="500.9"/>
</svg>
