<?xml version="1.0" encoding="utf-8"?>
<!-- Generator: Adobe Illustrator 25.4.1, SVG Export Plug-In . SVG Version: 6.00 Build 0)  -->
<svg version="1.1" id="Layer_1" xmlns="http://www.w3.org/2000/svg" xmlns:xlink="http://www.w3.org/1999/xlink" x="0px" y="0px"
	 viewBox="0 0 650 512" style="enable-background:new 0 0 650 512;" xml:space="preserve">
<style type="text/css">
	.st0{opacity:0.3;fill:#D8D8D8;enable-background:new    ;}
	.st1{fill:none;stroke:#A7A7A7;}
	.st2{fill:none;stroke:#D8D8D8;}
	.st3{fill:none;}
	.st4{font-family:'Georgia';}
	.st5{font-size:11px;}
	.st6{fill:#1C4E80;}
	.st7{font-family:'Georgia-Bold';}
	.st8{font-size:13px;}
	.st9{fill:none;stroke:#CCCCCC;}
	.st10{fill:#A7A7A7;}
	.st11{font-family:'Arial-BoldMT';}
	.st12{font-size:17.7612px;}
	.st13{font-size:18.5746px;}
	.st14{fill:#3E3D3D;}
	.st15{font-size:16px;}
	.st16{font-size:14px;}
	.st17{font-size:18px;}
	.st18{fill:none;stroke:#000000;}
	.st19{font-family:'Helvetica';}
	.st20{font-size:10px;}
	.st21{fill:none;stroke:#CD533B;stroke-width:1.5;}
	.st22{fill:#CD533B;}
</style>
<g id="SHADE">
	<polyline class="st0" points="455.6,112.4 397.1,276.5 338.6,376.2 338.6,491.6 455.6,491.6 	"/>
	<line class="st1" x1="338.6" y1="491.6" x2="338.6" y2="190.4"/>
	<path class="st1" d="M338.6,190.6c0-7.5-6.1-13.6-13.6-13.6"/>
	<g>
		<rect x="108.1" y="106.4" class="st2" width="216.4" height="89.4"/>
		<rect x="111.6" y="112.1" class="st3" width="211.3" height="99.9"/>
		<text transform="matrix(1 0 0 1 111.6392 120.4482)" class="st4 st5">Following the Tiananmen Square massacre </text>
		<text transform="matrix(1 0 0 1 111.6392 137.4482)" class="st4 st5">in 1989, the Canadian government relaxed </text>
		<text transform="matrix(1 0 0 1 111.6392 154.4482)" class="st4 st5">requirements for Chinese immigrants. </text>
		<text transform="matrix(1 0 0 1 111.6392 171.4482)" class="st4 st5">About 8,000 acquired permanent </text>
		<text transform="matrix(1 0 0 1 111.6392 188.4482)" class="st4 st5">residence in 1990.</text>
	</g>
	<text transform="matrix(1 0 0 1 295.412 376.2001)" class="st6 st7 st8">4,323</text>
	<text transform="matrix(1 0 0 1 352.5999 279.4999)" class="st6 st7 st8">8,076</text>
	<text transform="matrix(1 0 0 1 405.3345 114.5706)" class="st6 st7 st8">14,255</text>
</g>
<g id="Layer_1_00000180335794034381987400000006957735951008349093_">
	<g id="grid">
		<path class="st9" d="M-3,510"/>
		<path class="st9" d="M647,510"/>
		<path class="st9" d="M647,60"/>
	</g>
	<text transform="matrix(1 0 0 1 53.2943 80.2653)" class="st10 st11 st12">Total</text>
	<text transform="matrix(1 0 0 1 591.9517 480.8681)" class="st10 st11 st13">Year</text>
	<rect x="2.4" y="1.5" class="st3" width="582.8" height="48.4"/>
	<text transform="matrix(1.0268 0 0 1 7.7268 13.142)" class="st14 st7 st15">Annual number of Chinese immigrants to Canada</text>
	<text transform="matrix(1 0 0 1 7.2837 30.1418)" class="st14 st4 st16">(1984 - 1994)</text>
	<text transform="matrix(1 0 0 1 91.4987 35.1)" class="st6 st4 st17"> </text>
	<text transform="matrix(1.0268 0 0 1 95.9126 35.1001)" class="st6 st7 st17"> </text>
	<g id="viz_00000010291371593151573240000008726548412916204475_">
		<g transform="translate(0,0)">
			<g>
				<g transform="translate(45,5)">
					<g id="axis">
						<g transform="translate(0,425)">
							<path class="st18" d="M1.6,67.1v-5.5h585v5.5"/>
							<g transform="translate(0.5,0)">
								<line class="st18" x1="1.1" y1="61.1" x2="1.1" y2="67.1"/>
								<text transform="matrix(1 0 0 1 -11.3811 77.1656)" class="st19 st20">1984</text>
							</g>
							<g transform="translate(59,0)">
								<line class="st18" x1="1.1" y1="61.1" x2="1.1" y2="67.1"/>
								<text transform="matrix(1 0 0 1 -11.3811 77.1656)" class="st19 st20">1985</text>
							</g>
							<g transform="translate(117.5,0)">
								<line class="st18" x1="1.1" y1="61.1" x2="1.1" y2="67.1"/>
								<text transform="matrix(1 0 0 1 -11.3811 77.1656)" class="st19 st20">1986</text>
							</g>
							<g transform="translate(176,0)">
								<line class="st18" x1="1.1" y1="61.1" x2="1.1" y2="67.1"/>
								<text transform="matrix(1 0 0 1 -11.3811 77.1656)" class="st19 st20">1987</text>
							</g>
							<g transform="translate(234.5,0)">
								<line class="st18" x1="1.1" y1="61.1" x2="1.1" y2="67.1"/>
								<text transform="matrix(1 0 0 1 -11.3811 77.1656)" class="st19 st20">1988</text>
							</g>
							<g transform="translate(293,0)">
								<text transform="matrix(1 0 0 1 -11.3811 77.1656)" class="st19 st20">1989</text>
							</g>
							<g transform="translate(351.5,0)">
								<line class="st18" x1="1.1" y1="61.1" x2="1.1" y2="67.1"/>
								<text transform="matrix(1 0 0 1 -11.3811 77.1656)" class="st19 st20">1990</text>
							</g>
							<g transform="translate(410,0)">
								<text transform="matrix(1 0 0 1 -11.3811 77.1656)" class="st19 st20">1991</text>
							</g>
							<g transform="translate(468.5,0)">
								<line class="st18" x1="1.1" y1="61.1" x2="1.1" y2="67.1"/>
								<text transform="matrix(1 0 0 1 -11.3811 77.1656)" class="st19 st20">1992</text>
							</g>
							<g transform="translate(527,0)">
								<line class="st18" x1="1.1" y1="61.1" x2="1.1" y2="67.1"/>
								<text transform="matrix(1 0 0 1 -11.3811 77.1656)" class="st19 st20">1993</text>
							</g>
							<g transform="translate(585.5,0)">
								<line class="st18" x1="1.1" y1="61.1" x2="1.1" y2="67.1"/>
								<text transform="matrix(1 0 0 1 -11.3811 77.1656)" class="st19 st20">1994</text>
							</g>
						</g>
						<g transform="translate(0,0)">
							<path class="st18" d="M1.6,486.6v-425"/>
							<g transform="translate(0,425.5)">
								<line class="st18" x1="1.1" y1="61.1" x2="-4.9" y2="61.1"/>
								<text transform="matrix(1 0 0 1 -13.4304 64.2656)" class="st19 st20">0</text>
							</g>
							<g transform="translate(0,372.375)">
								<line class="st18" x1="1.1" y1="61.1" x2="-4.9" y2="61.1"/>
								<text transform="matrix(1 0 0 1 -32.8933 64.2656)" class="st19 st20">2,000</text>
							</g>
							<g transform="translate(0,319.25)">
								<line class="st18" x1="1.1" y1="61.1" x2="-4.9" y2="61.1"/>
								<text transform="matrix(1 0 0 1 -32.8933 64.2656)" class="st19 st20">4,000</text>
							</g>
							<g transform="translate(0,266.125)">
								<line class="st18" x1="1.1" y1="61.1" x2="-4.9" y2="61.1"/>
								<text transform="matrix(1 0 0 1 -32.8933 64.2656)" class="st19 st20">6,000</text>
							</g>
							<g transform="translate(0,213)">
								<line class="st18" x1="1.1" y1="61.1" x2="-4.9" y2="61.1"/>
								<text transform="matrix(1 0 0 1 -32.8933 64.2656)" class="st19 st20">8,000</text>
							</g>
							<g transform="translate(0,159.875)">
								<line class="st18" x1="1.1" y1="61.1" x2="-4.9" y2="61.1"/>
								<text transform="matrix(1 0 0 1 -38.4548 64.2656)" class="st19 st20">10,000</text>
							</g>
							<g transform="translate(0,106.75)">
								<line class="st18" x1="1.1" y1="61.1" x2="-4.9" y2="61.1"/>
								<text transform="matrix(1 0 0 1 -38.4548 64.2656)" class="st19 st20">12,000</text>
							</g>
							<g transform="translate(0,53.625)">
								<line class="st18" x1="1.1" y1="61.1" x2="-4.9" y2="61.1"/>
								<text transform="matrix(1 0 0 1 -38.4548 64.2657)" class="st19 st20">14,000</text>
							</g>
							<g transform="translate(0,0.5)">
								<line class="st18" x1="1.1" y1="61.1" x2="-4.9" y2="61.1"/>
								<text transform="matrix(1 0 0 1 -38.4548 64.2657)" class="st19 st20">16,000</text>
							</g>
						</g>
					</g>
					<g id="viz">
						<g>
							<path class="st21" d="M1.1,445.5l58.5-7.7l58.5-3.8l58.5-18.1l58.5-3.1l58.5-41.6l58.5-99.7l58.5-164.1l58.5,90.6l58.5,27.3
								l58.5-87.9"/>
							<g>
								<circle class="st22" cx="1.1" cy="445.5" r="4"/>
								<circle class="st22" cx="59.6" cy="437.8" r="4"/>
								<circle class="st22" cx="118.1" cy="434" r="4"/>
								<circle class="st22" cx="176.6" cy="415.9" r="4"/>
								<circle class="st22" cx="235.1" cy="412.8" r="4"/>
								<circle class="st22" cx="293.6" cy="371.2" r="4"/>
								<circle class="st22" cx="352.1" cy="271.5" r="4"/>
								<circle class="st22" cx="410.6" cy="107.4" r="4"/>
								<circle class="st22" cx="469.1" cy="198" r="4"/>
								<circle class="st22" cx="527.6" cy="225.3" r="4"/>
								<circle class="st22" cx="586.1" cy="137.4" r="4"/>
							</g>
						</g>
					</g>
				</g>
			</g>
		</g>
	</g>
</g>
</svg>
