<?xml version="1.0" encoding="utf-8"?>
<!-- Generator: Adobe Illustrator 25.4.1, SVG Export Plug-In . SVG Version: 6.00 Build 0)  -->
<svg version="1.0" id="Layer_1" xmlns="http://www.w3.org/2000/svg" xmlns:xlink="http://www.w3.org/1999/xlink" x="0px" y="0px"
	 viewBox="0 0 650 478" style="enable-background:new 0 0 650 478;" xml:space="preserve">
<style type="text/css">
	.st0{fill:#3E3D3D;}
	.st1{font-family:'Georgia-Bold';}
	.st2{font-size:16px;}
	.st3{font-family:'Georgia';}
	.st4{font-size:14px;}
	.st5{fill:none;stroke:#000000;stroke-width:0.5;stroke-miterlimit:10;}
	.st6{fill:#99C1B9;}
	.st7{fill:#CD533B;}
	.st8{fill:#8E7DBE;}
	.st9{fill:#4BA3C3;}
	.st10{fill:#E7A85F;}
	.st11{fill:#175676;}
	.st12{fill:#D8D8D8;}
	.st13{fill:#1C4E80;}
	.st14{fill:#FFFFFF;}
	.st15{font-size:13px;}
	.st16{fill:none;}
</style>
<text transform="matrix(1 0 0 1 7.3998 15.512)" class="st0 st1 st2">Number of immigrants from the top 6 source countries</text>
<text transform="matrix(1 0 0 1 7.3998 33.512)" class="st0 st3 st4">(1984 - 2013)</text>
<rect x="6.9" y="56.5" class="st5" width="539.5" height="398.3"/>
<g transform="translate(2,2)">
	<rect x="5.2" y="54.8" class="st6" width="122.1" height="190.4"/>
</g>
<g transform="translate(180,2)">
	<rect x="-50" y="54.8" class="st7" width="118.7" height="190.4"/>
</g>
<g transform="translate(2,279)">
	<rect x="5.2" y="-31" class="st8" width="83.5" height="206.3"/>
</g>
<g transform="translate(124,279)">
	<rect x="-32.6" y="-31" class="st9" width="157.3" height="106.3"/>
</g>
<g transform="translate(124,434)">
	<rect x="-32.6" y="-79.1" class="st10" width="84.2" height="99.4"/>
</g>
<g transform="translate(247,434)">
	<rect x="-70.8" y="-79.1" class="st11" width="72.4" height="99.4"/>
</g>
<g transform="translate(355,2)">
	<rect x="-104.2" y="54.8" class="st12" width="57.3" height="102.8"/>
	<g>
		<rect id="gc" x="-104.2" y="54.8" class="st12" width="57.3" height="102.8"/>
	</g>
</g>
<g transform="translate(439,2)">
	<rect x="-130.3" y="54.8" class="st12" width="97.3" height="53.1"/>
	<g>
		<rect id="eu" x="-130.3" y="54.8" class="st12" width="97.3" height="53.1"/>
	</g>
</g>
<g transform="translate(439,80)">
	<rect x="-130.3" y="30.6" class="st12" width="97.3" height="49"/>
	<g>
		<rect id="ei" x="-130.3" y="30.6" class="st12" width="97.3" height="49"/>
	</g>
</g>
<g transform="translate(355,152)">
	<rect x="-104.2" y="8.3" class="st12" width="84.2" height="51.7"/>
	<g>
		<rect id="fi" x="-104.2" y="8.3" class="st12" width="84.2" height="51.7"/>
	</g>
</g>
<g transform="translate(355,228)">
	<rect x="-104.2" y="-15.2" class="st12" width="84.2" height="45.5"/>
	<g>
		<rect id="df" x="-104.2" y="-15.2" class="st12" width="84.2" height="45.5"/>
	</g>
</g>
<g transform="translate(478,152)">
	<rect x="-142.4" y="8.3" class="st12" width="70.4" height="50.4"/>
	<g>
		<rect id="x" x="-142.4" y="8.3" class="st12" width="70.4" height="50.4"/>
	</g>
</g>
<g transform="translate(478,226)">
	<rect x="-142.4" y="-14.6" class="st12" width="70.4" height="46.9"/>
	<g>
		<rect id="ew" x="-142.4" y="-14.6" class="st12" width="70.4" height="46.9"/>
	</g>
</g>
<g transform="translate(581,2)">
	<rect x="-174.3" y="54.8" class="st12" width="63.5" height="50.4"/>
	<g>
		<rect id="ab" x="-174.3" y="54.8" class="st12" width="63.5" height="50.4"/>
	</g>
</g>
<g transform="translate(581,76)">
	<rect x="-174.3" y="31.9" class="st12" width="63.5" height="49"/>
	<g>
		<rect id="bc" x="-174.3" y="31.9" class="st12" width="63.5" height="49"/>
	</g>
</g>
<g transform="translate(674,2)">
	<rect x="-203.1" y="54.8" class="st12" width="75.2" height="33.8"/>
	<g>
		<rect id="bv" x="-203.1" y="54.8" class="st12" width="75.2" height="33.8"/>
	</g>
</g>
<g transform="translate(674,52)">
	<rect x="-203.1" y="39.3" class="st12" width="37.3" height="65.5"/>
	<g>
		<rect id="cg" x="-203.1" y="39.3" class="st12" width="37.3" height="65.5"/>
	</g>
</g>
<g transform="translate(729,52)">
	<rect x="-220.2" y="39.3" class="st12" width="37.3" height="65.5"/>
	<g>
		<rect id="ba" x="-220.2" y="39.3" class="st12" width="37.3" height="65.5"/>
	</g>
</g>
<g transform="translate(581,148)">
	<rect x="-174.3" y="9.6" class="st12" width="71.8" height="33.1"/>
	<g>
		<rect id="fq" x="-174.3" y="9.6" class="st12" width="71.8" height="33.1"/>
	</g>
</g>
<g transform="translate(581,197)">
	<rect x="-174.3" y="-5.6" class="st12" width="35.9" height="66.9"/>
	<g>
		<rect id="dh" x="-174.3" y="-5.6" class="st12" width="35.9" height="66.9"/>
	</g>
</g>
<g transform="translate(634,197)">
	<rect x="-190.7" y="-5.6" class="st12" width="35.2" height="66.9"/>
	<g>
		<rect id="cp" x="-190.7" y="-5.6" class="st12" width="35.2" height="66.9"/>
	</g>
</g>
<g transform="translate(686,148)">
	<rect x="-206.9" y="9.6" class="st12" width="66.9" height="33.8"/>
	<g>
		<rect id="l" x="-206.9" y="9.6" class="st12" width="66.9" height="33.8"/>
	</g>
</g>
<g transform="translate(686,198)">
	<rect x="-206.9" y="-5.9" class="st12" width="66.9" height="33.1"/>
	<g>
		<rect id="h" x="-206.9" y="-5.9" class="st12" width="66.9" height="33.1"/>
	</g>
</g>
<g transform="translate(686,247)">
	<rect x="-206.9" y="-21.1" class="st12" width="66.9" height="32.4"/>
	<g>
		<rect id="fu" x="-206.9" y="-21.1" class="st12" width="66.9" height="32.4"/>
	</g>
</g>
<g transform="translate(355,295)">
	<rect x="-104.2" y="-36" class="st12" width="66.2" height="32.4"/>
	<g>
		<rect id="d" x="-104.2" y="-36" class="st12" width="66.2" height="32.4"/>
	</g>
</g>
<g transform="translate(355,343)">
	<rect x="-104.2" y="-50.9" class="st12" width="33.8" height="63.5"/>
	<g>
		<rect id="do" x="-104.2" y="-50.9" class="st12" width="33.8" height="63.5"/>
	</g>
</g>
<g transform="translate(405,343)">
	<rect x="-119.7" y="-50.9" class="st12" width="31.7" height="63.5"/>
	<g>
		<rect id="er" x="-119.7" y="-50.9" class="st12" width="31.7" height="63.5"/>
	</g>
</g>
<g transform="translate(452,295)">
	<rect x="-134.3" y="-36" class="st12" width="39.3" height="50.4"/>
	<g>
		<rect id="bx" x="-134.3" y="-36" class="st12" width="39.3" height="50.4"/>
	</g>
</g>
<g transform="translate(510,295)">
	<rect x="-152.3" y="-36" class="st12" width="37.9" height="50.4"/>
	<g>
		<rect id="j" x="-152.3" y="-36" class="st12" width="37.9" height="50.4"/>
	</g>
</g>
<g transform="translate(452,369)">
	<rect x="-134.3" y="-58.9" class="st12" width="38.6" height="45.5"/>
	<g>
		<rect id="cv" x="-134.3" y="-58.9" class="st12" width="38.6" height="45.5"/>
	</g>
</g>
<g transform="translate(509,369)">
	<rect x="-152" y="-58.9" class="st12" width="38.6" height="45.5"/>
	<g>
		<rect id="t" x="-152" y="-58.9" class="st12" width="38.6" height="45.5"/>
	</g>
</g>
<g transform="translate(355,436)">
	<rect x="-104.2" y="-79.7" class="st12" width="36.6" height="42.8"/>
	<g>
		<rect id="cq" x="-104.2" y="-79.7" class="st12" width="36.6" height="42.8"/>
	</g>
</g>
<g transform="translate(409,436)">
	<rect x="-121" y="-79.7" class="st12" width="33.8" height="42.8"/>
	<g>
		<rect id="bj" x="-121" y="-79.7" class="st12" width="33.8" height="42.8"/>
	</g>
</g>
<g transform="translate(355,499)">
	<rect x="-104.2" y="-99.2" class="st12" width="24.8" height="54.5"/>
	<g>
		<rect id="ai" x="-104.2" y="-99.2" class="st12" width="24.8" height="54.5"/>
	</g>
</g>
<g transform="translate(392,499)">
	<rect x="-115.7" y="-99.2" class="st12" width="45.5" height="27.6"/>
	<g>
		<rect id="fy" x="-115.7" y="-99.2" class="st12" width="45.5" height="27.6"/>
	</g>
</g>
<g transform="translate(392,540)">
	<rect x="-115.7" y="-112" class="st12" width="45.5" height="26.2"/>
	<g>
		<rect id="ay" x="-115.7" y="-112" class="st12" width="45.5" height="26.2"/>
	</g>
</g>
<g transform="translate(459,436)">
	<rect x="-136.5" y="-79.7" class="st12" width="26.2" height="45.5"/>
	<g>
		<rect id="dd" x="-136.5" y="-79.7" class="st12" width="26.2" height="45.5"/>
	</g>
</g>
<g transform="translate(498,436)">
	<rect x="-148.6" y="-79.7" class="st12" width="23.5" height="45.5"/>
	<g>
		<rect id="n" x="-148.6" y="-79.7" class="st12" width="23.5" height="45.5"/>
	</g>
</g>
<g transform="translate(533,436)">
	<rect x="-159.4" y="-79.7" class="st12" width="22.1" height="45.5"/>
	<g>
		<rect id="ds" x="-159.4" y="-79.7" class="st12" width="22.1" height="45.5"/>
	</g>
</g>
<g transform="translate(459,503)">
	<rect x="-136.5" y="-100.5" class="st12" width="38.6" height="25.5"/>
	<g>
		<rect id="br" x="-136.5" y="-100.5" class="st12" width="38.6" height="25.5"/>
	</g>
</g>
<g transform="translate(459,541)">
	<rect x="-136.5" y="-112.3" class="st12" width="38.6" height="25.5"/>
	<g>
		<rect id="dg" x="-136.5" y="-112.3" class="st12" width="38.6" height="25.5"/>
	</g>
</g>
<g transform="translate(516,503)">
	<rect x="-154.2" y="-100.5" class="st12" width="33.8" height="25.5"/>
	<g>
		<rect id="gf" x="-154.2" y="-100.5" class="st12" width="33.8" height="25.5"/>
	</g>
</g>
<g transform="translate(516,541)">
	<rect x="-154.2" y="-112.3" class="st12" width="33.8" height="25.5"/>
	<g>
		<rect id="bz" x="-154.2" y="-112.3" class="st12" width="33.8" height="25.5"/>
	</g>
</g>
<g transform="translate(566,295)">
	<rect x="-169.7" y="-36" class="st12" width="33.1" height="26.2"/>
	<g>
		<rect id="bq" x="-169.7" y="-36" class="st12" width="33.1" height="26.2"/>
	</g>
</g>
<g transform="translate(566,334)">
	<rect x="-169.7" y="-48.1" class="st12" width="33.1" height="24.1"/>
	<g>
		<rect id="bn" x="-169.7" y="-48.1" class="st12" width="33.1" height="24.1"/>
	</g>
</g>
<g transform="translate(615,295)">
	<rect x="-184.8" y="-36" class="st12" width="44.2" height="17.2"/>
	<g>
		<rect id="ci" x="-184.8" y="-36" class="st12" width="44.2" height="17.2"/>
	</g>
</g>
<g transform="translate(615,321)">
	<rect x="-184.8" y="-44.1" class="st12" width="21.4" height="33.1"/>
	<g>
		<rect id="as" x="-184.8" y="-44.1" class="st12" width="21.4" height="33.1"/>
	</g>
</g>
<g transform="translate(647,321)">
	<rect x="-194.8" y="-44.1" class="st12" width="22.1" height="33.1"/>
	<g>
		<rect id="dn" x="-194.8" y="-44.1" class="st12" width="22.1" height="33.1"/>
	</g>
</g>
<g transform="translate(566,370)">
	<rect x="-169.7" y="-59.3" class="st12" width="32.4" height="22.1"/>
	<g>
		<rect id="cn" x="-169.7" y="-59.3" class="st12" width="32.4" height="22.1"/>
	</g>
</g>
<g transform="translate(566,403)">
	<rect x="-169.7" y="-69.5" class="st12" width="32.4" height="21.4"/>
	<g>
		<rect id="fw" x="-169.7" y="-69.5" class="st12" width="32.4" height="21.4"/>
	</g>
</g>
<g transform="translate(614,370)">
	<rect x="-184.5" y="-59.3" class="st12" width="15.2" height="44.2"/>
	<g>
		<rect id="z" x="-184.5" y="-59.3" class="st12" width="15.2" height="44.2"/>
	</g>
</g>
<g transform="translate(637,370)">
	<rect x="-191.7" y="-59.3" class="st12" width="29" height="22.1"/>
	<g>
		<rect id="ag" x="-191.7" y="-59.3" class="st12" width="29" height="22.1"/>
	</g>
</g>
<g transform="translate(637,403)">
	<rect x="-191.7" y="-69.5" class="st12" width="29" height="21.4"/>
	<g>
		<rect id="dk" x="-191.7" y="-69.5" class="st12" width="29" height="21.4"/>
	</g>
</g>
<g transform="translate(680,295)">
	<rect x="-205" y="-36" class="st12" width="36.6" height="16.6"/>
	<g>
		<rect id="ex" x="-205" y="-36" class="st12" width="36.6" height="16.6"/>
	</g>
</g>
<g transform="translate(680,320)">
	<rect x="-205" y="-43.8" class="st12" width="17.9" height="33.1"/>
	<g>
		<rect id="ev" x="-205" y="-43.8" class="st12" width="17.9" height="33.1"/>
	</g>
</g>
<g transform="translate(707,320)">
	<rect x="-213.4" y="-43.8" class="st12" width="17.9" height="33.1"/>
	<g>
		<rect id="ek" x="-213.4" y="-43.8" class="st12" width="17.9" height="33.1"/>
	</g>
</g>
<g transform="translate(734,295)">
	<rect x="-221.7" y="-36" class="st12" width="33.8" height="17.2"/>
	<g>
		<rect id="bt" x="-221.7" y="-36" class="st12" width="33.8" height="17.2"/>
	</g>
</g>
<g transform="translate(734,321)">
	<rect x="-221.7" y="-44.1" class="st12" width="16.6" height="32.4"/>
	<g>
		<rect id="dp" x="-221.7" y="-44.1" class="st12" width="16.6" height="32.4"/>
	</g>
</g>
<g transform="translate(759,321)">
	<rect x="-229.5" y="-44.1" class="st12" width="16.6" height="32.4"/>
	<g>
		<rect id="bd" x="-229.5" y="-44.1" class="st12" width="16.6" height="32.4"/>
	</g>
</g>
<g transform="translate(680,369)">
	<rect x="-205" y="-58.9" class="st12" width="36.6" height="15.2"/>
	<g>
		<rect id="ej" x="-205" y="-58.9" class="st12" width="36.6" height="15.2"/>
	</g>
</g>
<g transform="translate(680,392)">
	<rect x="-205" y="-66.1" class="st12" width="17.9" height="29"/>
	<g>
		<rect id="cf" x="-205" y="-66.1" class="st12" width="17.9" height="29"/>
	</g>
</g>
<g transform="translate(707,392)">
	<rect x="-213.4" y="-66.1" class="st12" width="17.9" height="29"/>
	<g>
		<rect id="bw" x="-213.4" y="-66.1" class="st12" width="17.9" height="29"/>
	</g>
</g>
<g transform="translate(734,369)">
	<rect x="-221.7" y="-58.9" class="st12" width="33.8" height="15.2"/>
	<g>
		<rect id="ge" x="-221.7" y="-58.9" class="st12" width="33.8" height="15.2"/>
	</g>
</g>
<g transform="translate(734,392)">
	<rect x="-221.7" y="-66.1" class="st12" width="16.6" height="29"/>
	<g>
		<rect id="be" x="-221.7" y="-66.1" class="st12" width="16.6" height="29"/>
	</g>
</g>
<g transform="translate(759,392)">
	<rect x="-229.5" y="-66.1" class="st12" width="16.6" height="29"/>
	<g>
		<rect id="bm" x="-229.5" y="-66.1" class="st12" width="16.6" height="29"/>
	</g>
</g>
<g transform="translate(566,435)">
	<rect x="-169.7" y="-79.4" class="st12" width="17.9" height="25.5"/>
	<g>
		<rect id="u" x="-169.7" y="-79.4" class="st12" width="17.9" height="25.5"/>
	</g>
</g>
<g transform="translate(593,435)">
	<rect x="-178" y="-79.4" class="st12" width="17.2" height="25.5"/>
	<g>
		<rect id="al" x="-178" y="-79.4" class="st12" width="17.2" height="25.5"/>
	</g>
</g>
<g transform="translate(566,473)">
	<rect x="-169.7" y="-91.2" class="st12" width="17.9" height="22.8"/>
	<g>
		<rect id="cm" x="-169.7" y="-91.2" class="st12" width="17.9" height="22.8"/>
	</g>
</g>
<g transform="translate(593,473)">
	<rect x="-178" y="-91.2" class="st12" width="17.2" height="22.8"/>
	<g>
		<rect id="fh" x="-178" y="-91.2" class="st12" width="17.2" height="22.8"/>
	</g>
</g>
<g transform="translate(619,435)">
	<rect x="-186.1" y="-79.4" class="st12" width="19.3" height="20"/>
	<g>
		<rect id="eg" x="-186.1" y="-79.4" class="st12" width="19.3" height="20"/>
	</g>
</g>
<g transform="translate(648,435)">
	<rect x="-195.1" y="-79.4" class="st12" width="17.2" height="20"/>
	<g>
		<rect id="fa" x="-195.1" y="-79.4" class="st12" width="17.2" height="20"/>
	</g>
</g>
<g transform="translate(619,465)">
	<rect x="-186.1" y="-88.7" class="st12" width="12.4" height="28.3"/>
	<g>
		<rect id="fm" x="-186.1" y="-88.7" class="st12" width="12.4" height="28.3"/>
	</g>
</g>
<g transform="translate(638,465)">
	<rect x="-192" y="-88.7" class="st12" width="24.1" height="13.8"/>
	<g>
		<rect id="gb" x="-192" y="-88.7" class="st12" width="24.1" height="13.8"/>
	</g>
</g>
<g transform="translate(638,486)">
	<rect x="-192" y="-95.2" class="st12" width="24.1" height="13.8"/>
	<g>
		<rect id="fl" x="-192" y="-95.2" class="st12" width="24.1" height="13.8"/>
	</g>
</g>
<g transform="translate(566,507)">
	<rect x="-169.7" y="-101.7" class="st12" width="12.4" height="24.1"/>
	<g>
		<rect id="ap" x="-169.7" y="-101.7" class="st12" width="12.4" height="24.1"/>
	</g>
</g>
<g transform="translate(585,507)">
	<rect x="-175.5" y="-101.7" class="st12" width="12.4" height="24.1"/>
	<g>
		<rect id="dz" x="-175.5" y="-101.7" class="st12" width="12.4" height="24.1"/>
	</g>
</g>
<g transform="translate(604,507)">
	<rect x="-181.4" y="-101.7" class="st12" width="11.7" height="24.1"/>
	<g>
		<rect id="fp" x="-181.4" y="-101.7" class="st12" width="11.7" height="24.1"/>
	</g>
</g>
<g transform="translate(566,543)">
	<rect x="-169.7" y="-112.9" class="st12" width="12.4" height="24.1"/>
	<g>
		<rect id="es" x="-169.7" y="-112.9" class="st12" width="12.4" height="24.1"/>
	</g>
</g>
<g transform="translate(585,543)">
	<rect x="-175.5" y="-112.9" class="st12" width="12.4" height="24.1"/>
	<g>
		<rect id="v" x="-175.5" y="-112.9" class="st12" width="12.4" height="24.1"/>
	</g>
</g>
<g transform="translate(604,543)">
	<rect x="-181.4" y="-112.9" class="st12" width="11.7" height="24.1"/>
	<g>
		<rect id="ae" x="-181.4" y="-112.9" class="st12" width="11.7" height="24.1"/>
	</g>
</g>
<g transform="translate(622,507)">
	<rect x="-187" y="-101.7" class="st12" width="11.7" height="24.8"/>
	<g>
		<rect id="ez" x="-187" y="-101.7" class="st12" width="11.7" height="24.8"/>
	</g>
</g>
<g transform="translate(640,507)">
	<rect x="-192.6" y="-101.7" class="st12" width="22.8" height="11.7"/>
	<g>
		<rect id="aq" x="-192.6" y="-101.7" class="st12" width="22.8" height="11.7"/>
	</g>
</g>
<g transform="translate(640,525)">
	<rect x="-192.6" y="-107.3" class="st12" width="22.8" height="12.4"/>
	<g>
		<rect id="cw" x="-192.6" y="-107.3" class="st12" width="22.8" height="12.4"/>
	</g>
</g>
<g transform="translate(622,544)">
	<rect x="-187" y="-113.2" class="st12" width="11.7" height="23.5"/>
	<g>
		<rect id="ak" x="-187" y="-113.2" class="st12" width="11.7" height="23.5"/>
	</g>
</g>
<g transform="translate(640,544)">
	<rect x="-192.6" y="-113.2" class="st12" width="22.8" height="11"/>
	<g>
		<rect id="af" x="-192.6" y="-113.2" class="st12" width="22.8" height="11"/>
	</g>
</g>
<g transform="translate(640,561)">
	<rect x="-192.6" y="-118.5" class="st12" width="22.8" height="11.7"/>
	<g>
		<rect id="ar" x="-192.6" y="-118.5" class="st12" width="22.8" height="11.7"/>
	</g>
</g>
<g transform="translate(674,435)">
	<rect x="-203.1" y="-79.4" class="st12" width="11.7" height="22.1"/>
	<g>
		<rect id="ec" x="-203.1" y="-79.4" class="st12" width="11.7" height="22.1"/>
	</g>
</g>
<g transform="translate(692,435)">
	<rect x="-208.7" y="-79.4" class="st12" width="11.7" height="22.1"/>
	<g>
		<rect id="fo" x="-208.7" y="-79.4" class="st12" width="11.7" height="22.1"/>
	</g>
</g>
<g transform="translate(710,435)">
	<rect x="-214.3" y="-79.4" class="st12" width="11" height="22.1"/>
	<g>
		<rect id="aj" x="-214.3" y="-79.4" class="st12" width="11" height="22.1"/>
	</g>
</g>
<g transform="translate(674,468)">
	<rect x="-203.1" y="-89.6" class="st12" width="18.6" height="13.1"/>
	<g>
		<rect id="fk" x="-203.1" y="-89.6" class="st12" width="18.6" height="13.1"/>
	</g>
</g>
<g transform="translate(674,488)">
	<rect x="-203.1" y="-95.8" class="st12" width="18.6" height="11.7"/>
	<g>
		<rect id="gd" x="-203.1" y="-95.8" class="st12" width="18.6" height="11.7"/>
	</g>
</g>
<g transform="translate(702,468)">
	<rect x="-211.8" y="-89.6" class="st12" width="16.6" height="12.4"/>
	<g>
		<rect id="fv" x="-211.8" y="-89.6" class="st12" width="16.6" height="12.4"/>
	</g>
</g>
<g transform="translate(702,487)">
	<rect x="-211.8" y="-95.5" class="st12" width="16.6" height="12.4"/>
	<g>
		<rect id="cr" x="-211.8" y="-95.5" class="st12" width="16.6" height="12.4"/>
	</g>
</g>
<g transform="translate(727,435)">
	<rect x="-219.6" y="-79.4" class="st12" width="16.6" height="11.7"/>
	<g>
		<rect id="ct" x="-219.6" y="-79.4" class="st12" width="16.6" height="11.7"/>
	</g>
</g>
<g transform="translate(727,453)">
	<rect x="-219.6" y="-85" class="st12" width="16.6" height="11.7"/>
	<g>
		<rect id="bi" x="-219.6" y="-85" class="st12" width="16.6" height="11.7"/>
	</g>
</g>
<g transform="translate(752,435)">
	<rect x="-227.3" y="-79.4" class="st12" width="21.4" height="8.3"/>
	<g>
		<rect id="dt" x="-227.3" y="-79.4" class="st12" width="21.4" height="8.3"/>
	</g>
</g>
<g transform="translate(752,448)">
	<rect x="-227.3" y="-83.4" class="st12" width="10.3" height="15.2"/>
	<g>
		<rect id="fx" x="-227.3" y="-83.4" class="st12" width="10.3" height="15.2"/>
	</g>
</g>
<g transform="translate(768,448)">
	<rect x="-232.3" y="-83.4" class="st12" width="10.3" height="15.2"/>
	<g>
		<rect id="c" x="-232.3" y="-83.4" class="st12" width="10.3" height="15.2"/>
	</g>
</g>
<g transform="translate(727,471)">
	<rect x="-219.6" y="-90.6" class="st12" width="20" height="7.6"/>
	<g>
		<rect id="w" x="-219.6" y="-90.6" class="st12" width="20" height="7.6"/>
	</g>
</g>
<g transform="translate(727,483)">
	<rect x="-219.6" y="-94.3" class="st12" width="10.3" height="15.2"/>
	<g>
		<rect id="da" x="-219.6" y="-94.3" class="st12" width="10.3" height="15.2"/>
	</g>
</g>
<g transform="translate(743,483)">
	<rect x="-224.5" y="-94.3" class="st12" width="9" height="15.2"/>
	<g>
		<rect id="q" x="-224.5" y="-94.3" class="st12" width="9" height="15.2"/>
	</g>
</g>
<g transform="translate(757,471)">
	<rect x="-228.9" y="-90.6" class="st12" width="17.9" height="7.6"/>
	<g>
		<rect id="bg" x="-228.9" y="-90.6" class="st12" width="17.9" height="7.6"/>
	</g>
</g>
<g transform="translate(757,483)">
	<rect x="-228.9" y="-94.3" class="st12" width="9" height="15.2"/>
	<g>
		<rect id="av" x="-228.9" y="-94.3" class="st12" width="9" height="15.2"/>
	</g>
</g>
<g transform="translate(771,483)">
	<rect x="-233.2" y="-94.3" class="st12" width="8.3" height="15.2"/>
	<g>
		<rect id="fn" x="-233.2" y="-94.3" class="st12" width="8.3" height="15.2"/>
	</g>
</g>
<g transform="translate(674,506)">
	<rect x="-203.1" y="-101.4" class="st12" width="17.2" height="8.3"/>
	<g>
		<rect id="bu" x="-203.1" y="-101.4" class="st12" width="17.2" height="8.3"/>
	</g>
</g>
<g transform="translate(674,519)">
	<rect x="-203.1" y="-105.4" class="st12" width="9" height="14.5"/>
	<g>
		<rect id="bs" x="-203.1" y="-105.4" class="st12" width="9" height="14.5"/>
	</g>
</g>
<g transform="translate(688,519)">
	<rect x="-207.5" y="-105.4" class="st12" width="7.6" height="14.5"/>
	<g>
		<rect id="i" x="-207.5" y="-105.4" class="st12" width="7.6" height="14.5"/>
	</g>
</g>
<g transform="translate(700,506)">
	<rect x="-211.2" y="-101.4" class="st12" width="9.7" height="11.7"/>
	<g>
		<rect id="db" x="-211.2" y="-101.4" class="st12" width="9.7" height="11.7"/>
	</g>
</g>
<g transform="translate(715,506)">
	<rect x="-215.8" y="-101.4" class="st12" width="9.7" height="11.7"/>
	<g>
		<rect id="dw" x="-215.8" y="-101.4" class="st12" width="9.7" height="11.7"/>
	</g>
</g>
<g transform="translate(700,524)">
	<rect x="-211.2" y="-107" class="st12" width="9.7" height="11"/>
	<g>
		<rect id="g" x="-211.2" y="-107" class="st12" width="9.7" height="11"/>
	</g>
</g>
<g transform="translate(715,524)">
	<rect x="-215.8" y="-107" class="st12" width="9.7" height="11"/>
	<g>
		<rect id="cb" x="-215.8" y="-107" class="st12" width="9.7" height="11"/>
	</g>
</g>
<g transform="translate(674,541)">
	<rect x="-203.1" y="-112.3" class="st12" width="10.3" height="10.3"/>
	<g>
		<rect id="o" x="-203.1" y="-112.3" class="st12" width="10.3" height="10.3"/>
	</g>
</g>
<g transform="translate(690,541)">
	<rect x="-208.1" y="-112.3" class="st12" width="9" height="10.3"/>
	<g>
		<rect id="du" x="-208.1" y="-112.3" class="st12" width="9" height="10.3"/>
	</g>
</g>
<g transform="translate(674,557)">
	<rect x="-203.1" y="-117.2" class="st12" width="6.9" height="14.5"/>
	<g>
		<rect id="b" x="-203.1" y="-117.2" class="st12" width="6.9" height="14.5"/>
	</g>
</g>
<g transform="translate(685,557)">
	<rect x="-206.5" y="-117.2" class="st12" width="12.4" height="6.9"/>
	<g>
		<rect id="ef" x="-206.5" y="-117.2" class="st12" width="12.4" height="6.9"/>
	</g>
</g>
<g transform="translate(685,568)">
	<rect x="-206.5" y="-120.6" class="st12" width="12.4" height="6.9"/>
	<g>
		<rect id="k" x="-206.5" y="-120.6" class="st12" width="12.4" height="6.9"/>
	</g>
</g>
<g transform="translate(704,541)">
	<rect x="-212.4" y="-112.3" class="st12" width="8.3" height="10.3"/>
	<g>
		<rect id="cd" x="-212.4" y="-112.3" class="st12" width="8.3" height="10.3"/>
	</g>
</g>
<g transform="translate(717,541)">
	<rect x="-216.5" y="-112.3" class="st12" width="8.3" height="10.3"/>
	<g>
		<rect id="fg" x="-216.5" y="-112.3" class="st12" width="8.3" height="10.3"/>
	</g>
</g>
<g transform="translate(704,557)">
	<rect x="-212.4" y="-117.2" class="st12" width="5.5" height="14.5"/>
	<g>
		<rect id="cc" x="-212.4" y="-117.2" class="st12" width="5.5" height="14.5"/>
	</g>
</g>
<g transform="translate(713,557)">
	<rect x="-215.2" y="-117.2" class="st12" width="11" height="6.9"/>
	<g>
		<rect id="cj" x="-215.2" y="-117.2" class="st12" width="11" height="6.9"/>
	</g>
</g>
<g transform="translate(713,568)">
	<rect x="-215.2" y="-120.6" class="st12" width="11" height="6.9"/>
	<g>
		<rect id="ao" x="-215.2" y="-120.6" class="st12" width="11" height="6.9"/>
	</g>
</g>
<g transform="translate(730,506)">
	<rect x="-220.5" y="-101.4" class="st12" width="5.5" height="12.4"/>
	<g>
		<rect id="ff" x="-220.5" y="-101.4" class="st12" width="5.5" height="12.4"/>
	</g>
</g>
<g transform="translate(739,506)">
	<rect x="-223.3" y="-101.4" class="st12" width="11" height="6.2"/>
	<g>
		<rect id="bp" x="-223.3" y="-101.4" class="st12" width="11" height="6.2"/>
	</g>
</g>
<g transform="translate(739,516)">
	<rect x="-223.3" y="-104.5" class="st12" width="11" height="5.5"/>
	<g>
		<rect id="dr" x="-223.3" y="-104.5" class="st12" width="11" height="5.5"/>
	</g>
</g>
<g transform="translate(730,525)">
	<rect x="-220.5" y="-107.3" class="st12" width="5.5" height="11.7"/>
	<g>
		<rect id="dv" x="-220.5" y="-107.3" class="st12" width="5.5" height="11.7"/>
	</g>
</g>
<g transform="translate(739,525)">
	<rect x="-223.3" y="-107.3" class="st12" width="11" height="5.5"/>
	<g>
		<rect id="cu" x="-223.3" y="-107.3" class="st12" width="11" height="5.5"/>
	</g>
</g>
<g transform="translate(739,534)">
	<rect x="-223.3" y="-110.1" class="st12" width="11" height="5.5"/>
	<g>
		<rect id="aa" x="-223.3" y="-110.1" class="st12" width="11" height="5.5"/>
	</g>
</g>
<g transform="translate(756,506)">
	<rect x="-228.6" y="-101.4" class="st12" width="6.2" height="11"/>
	<g>
		<rect id="bf" x="-228.6" y="-101.4" class="st12" width="6.2" height="11"/>
	</g>
</g>
<g transform="translate(766,506)">
	<rect x="-231.7" y="-101.4" class="st12" width="5.5" height="11"/>
	<g>
		<rect id="cl" x="-231.7" y="-101.4" class="st12" width="5.5" height="11"/>
	</g>
</g>
<g transform="translate(775,506)">
	<rect x="-234.4" y="-101.4" class="st12" width="5.5" height="11"/>
	<g>
		<rect id="ga" x="-234.4" y="-101.4" class="st12" width="5.5" height="11"/>
	</g>
</g>
<g transform="translate(756,523)">
	<rect x="-228.6" y="-106.7" class="st12" width="9.7" height="6.2"/>
	<g>
		<rect id="dj" x="-228.6" y="-106.7" class="st12" width="9.7" height="6.2"/>
	</g>
</g>
<g transform="translate(756,533)">
	<rect x="-228.6" y="-109.8" class="st12" width="9.7" height="6.2"/>
	<g>
		<rect id="bb" x="-228.6" y="-109.8" class="st12" width="9.7" height="6.2"/>
	</g>
</g>
<g transform="translate(771,523)">
	<rect x="-233.2" y="-106.7" class="st12" width="8.3" height="6.2"/>
	<g>
		<rect id="cx" x="-233.2" y="-106.7" class="st12" width="8.3" height="6.2"/>
	</g>
</g>
<g transform="translate(771,533)">
	<rect x="-233.2" y="-109.8" class="st12" width="8.3" height="6.2"/>
	<g>
		<rect id="en" x="-233.2" y="-109.8" class="st12" width="8.3" height="6.2"/>
	</g>
</g>
<g transform="translate(730,543)">
	<rect x="-220.5" y="-112.9" class="st12" width="9" height="5.5"/>
	<g>
		<rect id="by" x="-220.5" y="-112.9" class="st12" width="9" height="5.5"/>
	</g>
</g>
<g transform="translate(730,552)">
	<rect x="-220.5" y="-115.7" class="st12" width="9" height="4.8"/>
	<g>
		<rect id="fb" x="-220.5" y="-115.7" class="st12" width="9" height="4.8"/>
	</g>
</g>
<g transform="translate(744,543)">
	<rect x="-224.8" y="-112.9" class="st12" width="8.3" height="6.2"/>
	<g>
		<rect id="ee" x="-224.8" y="-112.9" class="st12" width="8.3" height="6.2"/>
	</g>
</g>
<g transform="translate(744,553)">
	<rect x="-224.8" y="-116" class="st12" width="8.3" height="4.1"/>
	<g>
		<rect id="ft" x="-224.8" y="-116" class="st12" width="8.3" height="4.1"/>
	</g>
</g>
<g transform="translate(730,560)">
	<rect x="-220.5" y="-118.2" class="st12" width="7.6" height="3.4"/>
	<g>
		<rect id="dx" x="-220.5" y="-118.2" class="st12" width="7.6" height="3.4"/>
	</g>
</g>
<g transform="translate(730,566)">
	<rect x="-220.5" y="-120" class="st12" width="7.6" height="4.1"/>
	<g>
		<rect id="eq" x="-220.5" y="-120" class="st12" width="7.6" height="4.1"/>
	</g>
</g>
<g transform="translate(730,573)">
	<rect x="-220.5" y="-122.2" class="st12" width="7.6" height="3.4"/>
	<g>
		<rect id="dc" x="-220.5" y="-122.2" class="st12" width="7.6" height="3.4"/>
	</g>
</g>
<g transform="translate(742,560)">
	<rect x="-224.2" y="-118.2" class="st12" width="4.1" height="6.2"/>
	<g>
		<rect id="eo" x="-224.2" y="-118.2" class="st12" width="4.1" height="6.2"/>
	</g>
</g>
<g transform="translate(749,560)">
	<rect x="-226.4" y="-118.2" class="st12" width="4.8" height="6.2"/>
	<g>
		<rect id="ey" x="-226.4" y="-118.2" class="st12" width="4.8" height="6.2"/>
	</g>
</g>
<g transform="translate(742,570)">
	<rect x="-224.2" y="-121.3" class="st12" width="4.1" height="5.5"/>
	<g>
		<rect id="dl" x="-224.2" y="-121.3" class="st12" width="4.1" height="5.5"/>
	</g>
</g>
<g transform="translate(749,570)">
	<rect x="-226.4" y="-121.3" class="st12" width="4.8" height="5.5"/>
	<g>
		<rect id="e" x="-226.4" y="-121.3" class="st12" width="4.8" height="5.5"/>
	</g>
</g>
<g transform="translate(757,543)">
	<rect x="-228.9" y="-112.9" class="st12" width="4.1" height="6.2"/>
	<g>
		<rect id="am" x="-228.9" y="-112.9" class="st12" width="4.1" height="6.2"/>
	</g>
</g>
<g transform="translate(764,543)">
	<rect x="-231" y="-112.9" class="st12" width="4.1" height="6.2"/>
	<g>
		<rect id="ce" x="-231" y="-112.9" class="st12" width="4.1" height="6.2"/>
	</g>
</g>
<g transform="translate(757,553)">
	<rect x="-228.9" y="-116" class="st12" width="4.1" height="4.8"/>
	<g>
		<rect id="gg" x="-228.9" y="-116" class="st12" width="4.1" height="4.8"/>
	</g>
</g>
<g transform="translate(764,553)">
	<rect x="-231" y="-116" class="st12" width="4.1" height="4.8"/>
	<g>
		<rect id="bh" x="-231" y="-116" class="st12" width="4.1" height="4.8"/>
	</g>
</g>
<g transform="translate(771,543)">
	<rect x="-233.2" y="-112.9" class="st12" width="4.1" height="4.8"/>
	<g>
		<rect id="fr" x="-233.2" y="-112.9" class="st12" width="4.1" height="4.8"/>
	</g>
</g>
<g transform="translate(778,543)">
	<rect x="-235.4" y="-112.9" class="st12" width="3.4" height="4.8"/>
	<g>
		<rect id="at" x="-235.4" y="-112.9" class="st12" width="3.4" height="4.8"/>
	</g>
</g>
<g transform="translate(771,551)">
	<rect x="-233.2" y="-115.4" class="st12" width="2.8" height="6.2"/>
	<g>
		<rect id="eh" x="-233.2" y="-115.4" class="st12" width="2.8" height="6.2"/>
	</g>
</g>
<g transform="translate(776,551)">
	<rect x="-234.8" y="-115.4" class="st12" width="4.8" height="2.8"/>
	<g>
		<rect id="ac" x="-234.8" y="-115.4" class="st12" width="4.8" height="2.8"/>
	</g>
</g>
<g transform="translate(776,556)">
	<rect x="-234.8" y="-116.9" class="st12" width="4.8" height="2.8"/>
	<g>
		<rect id="bo" x="-234.8" y="-116.9" class="st12" width="4.8" height="2.8"/>
	</g>
</g>
<g transform="translate(757,561)">
	<rect x="-228.9" y="-118.5" class="st12" width="2.1" height="4.8"/>
	<g>
		<rect id="ax" x="-228.9" y="-118.5" class="st12" width="2.1" height="4.8"/>
	</g>
</g>
<g transform="translate(761,561)">
	<rect x="-230.1" y="-118.5" class="st12" width="2.8" height="4.8"/>
	<g>
		<rect id="fe" x="-230.1" y="-118.5" class="st12" width="2.8" height="4.8"/>
	</g>
</g>
<g transform="translate(766,561)">
	<rect x="-231.7" y="-118.5" class="st12" width="2.1" height="4.8"/>
	<g>
		<rect id="s" x="-231.7" y="-118.5" class="st12" width="2.1" height="4.8"/>
	</g>
</g>
<g transform="translate(757,569)">
	<rect x="-228.9" y="-121" class="st12" width="4.1" height="2.8"/>
	<g>
		<rect id="fd" x="-228.9" y="-121" class="st12" width="4.1" height="2.8"/>
	</g>
</g>
<g transform="translate(757,574)">
	<rect x="-228.9" y="-122.5" class="st12" width="4.1" height="2.8"/>
	<g>
		<rect id="p" x="-228.9" y="-122.5" class="st12" width="4.1" height="2.8"/>
	</g>
</g>
<g transform="translate(764,569)">
	<rect x="-231" y="-121" class="st12" width="3.4" height="2.8"/>
	<g>
		<rect id="ch" x="-231" y="-121" class="st12" width="3.4" height="2.8"/>
	</g>
</g>
<g transform="translate(764,574)">
	<rect x="-231" y="-122.5" class="st12" width="3.4" height="2.8"/>
	<g>
		<rect id="dm" x="-231" y="-122.5" class="st12" width="3.4" height="2.8"/>
	</g>
</g>
<g transform="translate(770,561)">
	<rect x="-232.9" y="-118.5" class="st12" width="4.8" height="1.4"/>
	<g>
		<rect id="y" x="-232.9" y="-118.5" class="st12" width="4.8" height="1.4"/>
	</g>
</g>
<g transform="translate(770,564)">
	<rect x="-232.9" y="-119.4" class="st12" width="2.1" height="3.4"/>
	<g>
		<rect id="fz" x="-232.9" y="-119.4" class="st12" width="2.1" height="3.4"/>
	</g>
</g>
<g transform="translate(774,564)">
	<rect x="-234.1" y="-119.4" class="st12" width="2.1" height="3.4"/>
	<g>
		<rect id="ea" x="-234.1" y="-119.4" class="st12" width="2.1" height="3.4"/>
	</g>
</g>
<g transform="translate(778,561)">
	<rect x="-235.4" y="-118.5" class="st12" width="3.4" height="2.1"/>
	<g>
		<rect id="dq" x="-235.4" y="-118.5" class="st12" width="3.4" height="2.1"/>
	</g>
</g>
<g transform="translate(778,565)">
	<rect x="-235.4" y="-119.7" class="st12" width="1.4" height="2.8"/>
	<g>
		<rect id="ep" x="-235.4" y="-119.7" class="st12" width="1.4" height="2.8"/>
	</g>
</g>
<g transform="translate(781,565)">
	<rect x="-236.3" y="-119.7" class="st12" width="1.4" height="2.8"/>
	<g>
		<rect id="di" x="-236.3" y="-119.7" class="st12" width="1.4" height="2.8"/>
	</g>
</g>
<g transform="translate(770,570)">
	<rect x="-232.9" y="-121.3" class="st12" width="2.1" height="2.1"/>
	<g>
		<rect id="a" x="-232.9" y="-121.3" class="st12" width="2.1" height="2.1"/>
	</g>
</g>
<g transform="translate(774,570)">
	<rect x="-234.1" y="-121.3" class="st12" width="1.4" height="2.1"/>
	<g>
		<rect id="fc" x="-234.1" y="-121.3" class="st12" width="1.4" height="2.1"/>
	</g>
</g>
<g transform="translate(770,574)">
	<rect x="-232.9" y="-122.5" class="st12" width="1.4" height="2.8"/>
	<g>
		<rect id="dy" x="-232.9" y="-122.5" class="st12" width="1.4" height="2.8"/>
	</g>
</g>
<g transform="translate(773,574)">
	<rect x="-233.8" y="-122.5" class="st12" width="2.1" height="0.7"/>
	<g>
		<rect id="bl" x="-233.8" y="-122.5" class="st12" width="2.1" height="0.7"/>
	</g>
</g>
<g transform="translate(773,576)">
	<rect x="-233.8" y="-123.1" class="st12" width="2.1" height="1.4"/>
	<g>
		<rect id="cz" x="-233.8" y="-123.1" class="st12" width="2.1" height="1.4"/>
	</g>
</g>
<g transform="translate(777,570)">
	<rect x="-235.1" y="-121.3" class="st12" width="2.1" height="0.7"/>
	<g>
		<rect id="ed" x="-235.1" y="-121.3" class="st12" width="2.1" height="0.7"/>
	</g>
</g>
<g transform="translate(777,572)">
	<rect x="-235.1" y="-121.9" class="st12" width="2.1" height="1.4"/>
	<g>
		<rect id="eb" x="-235.1" y="-121.9" class="st12" width="2.1" height="1.4"/>
	</g>
</g>
<g transform="translate(781,570)">
	<rect x="-236.3" y="-121.3" class="st12" width="1.4" height="0.7"/>
	<g>
		<rect id="co" x="-236.3" y="-121.3" class="st12" width="1.4" height="0.7"/>
	</g>
</g>
<g transform="translate(781,572)">
	<rect x="-236.3" y="-121.9" class="st12" width="1.4" height="1.4"/>
	<g>
		<rect id="cs" x="-236.3" y="-121.9" class="st12" width="1.4" height="1.4"/>
	</g>
</g>
<g transform="translate(777,575)">
	<polygon class="st12" points="-235.1,-122.8 -233,-122.8 -233,-122.8 	"/>
	<g>
		<polygon id="fj" class="st12" points="-235.1,-122.8 -233,-122.8 -233,-122.8 		"/>
	</g>
</g>
<g transform="translate(777,576)">
	<rect x="-235.1" y="-123.1" class="st12" width="0.7" height="1.4"/>
	<g>
		<rect id="au" x="-235.1" y="-123.1" class="st12" width="0.7" height="1.4"/>
	</g>
</g>
<g transform="translate(779,576)">
	<rect x="-235.7" y="-123.1" class="st12" width="0.7" height="1.4"/>
	<g>
		<rect id="an" x="-235.7" y="-123.1" class="st12" width="0.7" height="1.4"/>
	</g>
</g>
<g transform="translate(781,575)">
	<path class="st12" d="M-236.3-122.8L-236.3-122.8z"/>
	<g>
		<path id="et" class="st12" d="M-236.3-122.8L-236.3-122.8z"/>
	</g>
</g>
<g transform="translate(781,576)">
	<path class="st12" d="M-236.3-123.1L-236.3-123.1z"/>
	<g>
		<path id="ck" class="st12" d="M-236.3-123.1L-236.3-123.1z"/>
	</g>
</g>
<g transform="translate(782,575)">
	<polygon class="st12" points="-236.6,-122.8 -235.9,-122.8 -235.9,-122.8 	"/>
	<g>
		<polygon id="f" class="st12" points="-236.6,-122.8 -235.9,-122.8 -235.9,-122.8 		"/>
	</g>
</g>
<g transform="translate(782,576)">
	<polygon class="st12" points="-236.6,-123.1 -235.9,-123.1 -235.9,-123.1 	"/>
	<g>
		<polygon id="m" class="st12" points="-236.6,-123.1 -235.9,-123.1 -235.9,-123.1 		"/>
	</g>
</g>
<g transform="translate(781,577)">
	<path class="st12" d="M-236.3-123.4L-236.3-123.4z"/>
	<g>
		<path id="de" class="st12" d="M-236.3-123.4L-236.3-123.4z"/>
	</g>
</g>
<g transform="translate(780,578)">
	<path class="st12" d="M-236-123.7L-236-123.7z"/>
	<g>
		<path id="bk" class="st12" d="M-236-123.7L-236-123.7z"/>
	</g>
</g>
<g transform="translate(781,578)">
	<path class="st12" d="M-236.3-123.7L-236.3-123.7z"/>
	<g>
		<path id="fs" class="st12" d="M-236.3-123.7L-236.3-123.7z"/>
	</g>
</g>
<g transform="translate(782,577)">
	<path class="st12" d="M-236.6-123.4L-236.6-123.4z"/>
	<g>
		<path id="aw" class="st12" d="M-236.6-123.4L-236.6-123.4z"/>
	</g>
</g>
<g transform="translate(783,577)">
	<path class="st12" d="M-236.9-123.4L-236.9-123.4z"/>
	<g>
		<path id="ad" class="st12" d="M-236.9-123.4L-236.9-123.4z"/>
	</g>
</g>
<g transform="translate(782,578)">
	<path class="st12" d="M-236.6-123.7L-236.6-123.7z"/>
	<g>
		<path id="em" class="st12" d="M-236.6-123.7L-236.6-123.7z"/>
	</g>
</g>
<g transform="translate(782,578)">
	<path class="st12" d="M-236.6-123.7L-236.6-123.7z"/>
	<g>
		<path id="ah" class="st12" d="M-236.6-123.7L-236.6-123.7z"/>
	</g>
</g>
<g transform="translate(783,578)">
	<path class="st12" d="M-236.9-123.7L-236.9-123.7z"/>
	<g>
		<path id="el" class="st12" d="M-236.9-123.7L-236.9-123.7z"/>
	</g>
</g>
<g transform="translate(783,578)">
	<path class="st12" d="M-236.9-123.7L-236.9-123.7z"/>
	<g>
		<path id="cy" class="st12" d="M-236.9-123.7L-236.9-123.7z"/>
	</g>
</g>
<g transform="translate(783,578)">
	<path class="st12" d="M-236.9-123.7L-236.9-123.7z"/>
	<g>
		<path id="ca" class="st12" d="M-236.9-123.7L-236.9-123.7z"/>
	</g>
</g>
<g transform="translate(783,578)">
	<path class="st12" d="M-236.9-123.7L-236.9-123.7z"/>
	<g>
		<path id="r" class="st12" d="M-236.9-123.7L-236.9-123.7z"/>
	</g>
</g>
<g transform="translate(783,578)">
	<path class="st12" d="M-236.9-123.7L-236.9-123.7z"/>
	<g>
		<path id="az" class="st12" d="M-236.9-123.7L-236.9-123.7z"/>
	</g>
</g>
<text transform="matrix(1 0 0 1 252.15 473.01)" class="st13 st3 st4">Other Countries</text>
<text transform="matrix(1 0 0 1 7.5609 473.01)" class="st13 st3 st4">Top 6 Countries</text>
<g transform="translate(164,5)">
	<text transform="matrix(1 0 0 1 38.036 396.86)" class="st14 st3 st15">USA</text>
	<text transform="matrix(1 0 0 1 25.536 412.46)" class="st14 st3 st15">205,540 </text>
</g>
<g transform="translate(76,291)">
	<text transform="matrix(1 0 0 1 -23.494 -147.66)" class="st14 st3 st15">India</text>
	<text transform="matrix(1 0 0 1 -32.194 -132.06)" class="st14 st3 st15">658,869</text>
</g>
<g transform="translate(14,201)">
	<text transform="matrix(1 0 0 1 161.11 -57.399)" class="st14 st3 st15">China</text>
	<text transform="matrix(1 0 0 1 151.01 -41.799)" class="st14 st3 st15">642,986  </text>
</g>
<g transform="translate(0,109)">
	<text transform="matrix(1 0 0 1 15.728 236.85)" class="st14 st3 st15">Philippines</text>
	<text transform="matrix(1 0 0 1 22.128 252.45)" class="st14 st3 st15">489,608 </text>
</g>
<g transform="translate(80,47)">
	<text transform="matrix(1 0 0 1 78.143 248.37)" class="st14 st3 st15">UK</text>
	<text transform="matrix(1 0 0 1 62.343 263.97)" class="st14 st3 st15">474,024 </text>
</g>
<g transform="translate(82,26)">
	<text transform="matrix(1 0 0 1 27.457 375.33)" class="st14 st3 st15">Pakistan</text>
	<text transform="matrix(1 0 0 1 29.257 390.93)" class="st14 st3 st15">237,549</text>
</g>
<rect x="258.1" y="60.8" class="st16" width="73.2" height="23.1"/>
<text transform="matrix(1 0 0 1 258.14 76.892)" class="st13 st1 st2">55%</text>
<text transform="matrix(1 0 0 1 14.22 76.74)" class="st13 st1 st2">45%</text>
</svg>
