<?xml version="1.0" encoding="utf-8"?>
<!-- Generator: Adobe Illustrator 26.2.1, SVG Export Plug-In . SVG Version: 6.00 Build 0)  -->
<svg version="1.1" id="Layer_1" xmlns="http://www.w3.org/2000/svg" xmlns:xlink="http://www.w3.org/1999/xlink" x="0px" y="0px"
	 viewBox="0 0 800 600" style="enable-background:new 0 0 800 600;" xml:space="preserve">
<style type="text/css">
	.st0{fill:#363636;}
	.st1{fill:none;stroke:#E6E6E6;stroke-width:3;}
	.st2{opacity:0.2;fill:none;stroke:#00B190;enable-background:new    ;}
	.st3{opacity:0.2;fill:#00B190;enable-background:new    ;}
	.st4{fill:#0071DF;stroke:#0071DF;}
	.st5{fill:none;stroke:#FFFFFF;stroke-width:1.5;}
	.st6{fill:#FFFFFF;}
	.st7{fill:none;}
	.st8{enable-background:new    ;}
	.st9{fill:#0071DF;}
</style>
<g id="Layer_2_00000118383706124503141940000000158820169431077800_">
	<rect id="backgorund" class="st0" width="800" height="600"/>
</g>
<g>
	<path id="p_989" class="st1" d="M400,747.8c-246.1,0-445.5-199.4-445.5-445.5S153.9-143.1,400-143.1S845.5,56.4,845.5,302.4
		S646.1,747.8,400,747.8z"/>
	<path id="p_762.7951817288568" class="st2" d="M432.9,373.4c-9.4,0-16.9-7.6-16.9-16.9c0-9.4,7.6-16.9,16.9-16.9l0,0
		c9.4,0,16.9,7.6,16.9,16.9C449.9,365.8,442.3,373.4,432.9,373.4L432.9,373.4z"/>
	<path id="p_763.5346414017791" class="st3" d="M438.7,368.7c-2.3,0-4.1-1.8-4.1-4.1c0-2.3,1.8-4.1,4.1-4.1c2.3,0,4.1,1.8,4.1,4.1
		C442.8,366.9,440.9,368.7,438.7,368.7z"/>
	<path id="p_752.1049459131756" class="st3" d="M427.5,362.6c-4.5,0-8.3-3.8-8.3-8.3s3.8-8.3,8.3-8.3s8.3,3.8,8.3,8.3
		S432,362.6,427.5,362.6z"/>
	<path id="p_759.4560699584389" class="st3" d="M442.7,358.4c-2.3,0-4.1-1.8-4.1-4.1s1.8-4.1,4.1-4.1c2.3,0,4.1,1.8,4.1,4.1
		S445,358.4,442.7,358.4z"/>
	<path id="p_749.8836044427812" class="st3" d="M438.2,348.5c-1.3,0-2.3-1.1-2.3-2.3s1.1-2.3,2.3-2.3c1.3,0,2.3,1.1,2.3,2.3
		S439.4,348.5,438.2,348.5z"/>
	<path id="p_743.5569096752089" class="st3" d="M432.8,344.4c-0.5,0-0.9-0.4-0.9-0.9s0.4-0.9,0.9-0.9s0.9,0.4,0.9,0.9
		S433.1,344.4,432.8,344.4z"/>
	<path id="p_765.7835627334273" class="st4" d="M465.2,345.5c-23.9,0-43.2-19.3-43.2-43.2s19.3-43.2,43.2-43.2l0,0
		c23.9,0,43.2,19.3,43.2,43.2C508.4,326.2,489.1,345.5,465.2,345.5L465.2,345.5z"/>
</g>
<g>
	<g>
		<path class="st5" d="M499.1,218.4c-17.9,0.8-32.1,14.4-32.1,31"/>
		<g>
			<polygon class="st6" points="500.7,218.4 494.6,225 493.5,224 498.5,218.6 492.7,214 493.6,212.8 			"/>
		</g>
	</g>
</g>
<rect x="474.5" y="210.6" class="st7" width="145.5" height="97"/>
<rect x="508.9" y="210.4" class="st7" width="222.8" height="83.2"/>
<g class="st8">
	<path class="st6" d="M509.2,210.7h8.5l0.1,2.5h-0.4c-0.2-0.8-0.4-1.3-0.7-1.6c-0.3-0.2-0.8-0.4-1.7-0.4h-0.8v7.7
		c0,0.6,0.1,0.9,0.3,1.1c0.2,0.1,0.6,0.2,1.2,0.3v0.3h-4.4v-0.3c0.6,0,1-0.2,1.2-0.3s0.2-0.6,0.2-1.2v-7.5h-0.8
		c-0.8,0-1.4,0.1-1.7,0.4c-0.3,0.2-0.5,0.8-0.7,1.6h-0.4L509.2,210.7z"/>
	<path class="st6" d="M518.2,220.4c0.4-0.1,0.7-0.2,0.8-0.3c0.1-0.1,0.2-0.5,0.2-1v-7c0-0.3,0-0.5-0.1-0.6c-0.1-0.1-0.2-0.2-0.5-0.2
		c-0.1,0-0.1,0-0.2,0c-0.1,0-0.1,0-0.2,0v-0.3c0.2-0.1,0.5-0.1,0.8-0.2c0.3-0.1,0.5-0.2,0.7-0.2l0.7-0.2l0,0.1v4.5
		c0.3-0.4,0.6-0.6,0.8-0.8c0.4-0.3,0.9-0.4,1.4-0.4c0.8,0,1.3,0.3,1.6,1c0.2,0.4,0.2,0.8,0.2,1.4v3c0,0.5,0.1,0.9,0.2,1
		c0.1,0.2,0.4,0.3,0.7,0.3v0.2h-3.2v-0.2c0.4-0.1,0.7-0.2,0.8-0.3c0.1-0.1,0.2-0.5,0.2-1v-3c0-0.5-0.1-0.9-0.2-1.1
		c-0.2-0.3-0.5-0.4-0.9-0.4c-0.4,0-0.7,0.1-1.1,0.4s-0.5,0.5-0.5,0.5v3.6c0,0.5,0.1,0.9,0.2,1s0.4,0.2,0.8,0.3v0.2h-3.2V220.4z"/>
	<path class="st6" d="M530.8,214.5c0.5,0.5,0.8,1.2,0.8,2h-4.7c0,1.1,0.3,2,0.8,2.5c0.5,0.5,1,0.8,1.6,0.8c0.5,0,0.9-0.1,1.3-0.4
		s0.7-0.6,1-1.1l0.3,0.1c-0.2,0.6-0.6,1.2-1.1,1.7c-0.6,0.5-1.2,0.8-2,0.8c-0.9,0-1.6-0.3-2.1-1s-0.8-1.5-0.8-2.4
		c0-1,0.3-1.8,0.9-2.5s1.3-1.1,2.3-1.1C529.7,213.8,530.3,214,530.8,214.5z M527.3,215c-0.2,0.3-0.3,0.6-0.3,1h3.1
		c-0.1-0.5-0.1-0.9-0.3-1.1c-0.2-0.4-0.6-0.6-1.2-0.6C528,214.3,527.6,214.5,527.3,215z"/>
	<path class="st6" d="M536,210.7h8.5l0.1,2.5h-0.4c-0.2-0.8-0.4-1.3-0.7-1.6c-0.3-0.2-0.8-0.4-1.7-0.4H541v7.7
		c0,0.6,0.1,0.9,0.3,1.1c0.2,0.1,0.6,0.2,1.2,0.3v0.3H538v-0.3c0.6,0,1-0.2,1.2-0.3s0.2-0.6,0.2-1.2v-7.5h-0.8
		c-0.8,0-1.4,0.1-1.7,0.4c-0.3,0.2-0.5,0.8-0.7,1.6h-0.4L536,210.7z"/>
	<path class="st6" d="M544.4,220.4c0.4,0,0.7-0.1,0.9-0.2c0.1-0.1,0.2-0.4,0.2-0.8v-3.3c0-0.5,0-0.8-0.1-1c-0.1-0.2-0.3-0.3-0.5-0.3
		c0,0-0.1,0-0.2,0c-0.1,0-0.2,0-0.3,0v-0.2c0.3-0.1,0.6-0.2,0.9-0.3c0.3-0.1,0.5-0.2,0.6-0.2c0.2-0.1,0.5-0.2,0.8-0.3
		c0,0,0.1,0,0.1,0c0,0,0,0.1,0,0.2v1.2c0.3-0.4,0.6-0.8,0.9-1c0.3-0.2,0.6-0.4,0.9-0.4c0.2,0,0.5,0.1,0.6,0.2
		c0.2,0.1,0.2,0.3,0.2,0.6c0,0.2-0.1,0.4-0.2,0.5c-0.1,0.1-0.3,0.2-0.5,0.2c-0.2,0-0.4-0.1-0.6-0.3c-0.2-0.2-0.3-0.3-0.4-0.3
		c-0.2,0-0.4,0.1-0.6,0.4c-0.2,0.3-0.4,0.6-0.4,0.9v3.3c0,0.4,0.1,0.7,0.3,0.9c0.2,0.2,0.5,0.2,1,0.2v0.2h-3.6V220.4z"/>
	<path class="st6" d="M551.6,213.9v4.7c0,0.3,0,0.6,0.1,0.8c0.2,0.4,0.5,0.6,1,0.6c0.3,0,0.7-0.1,1-0.3c0.2-0.1,0.4-0.3,0.5-0.5v-4
		c0-0.4-0.1-0.6-0.2-0.7s-0.4-0.2-0.9-0.2v-0.2h2.4v5.2c0,0.3,0.1,0.6,0.2,0.7c0.1,0.1,0.4,0.2,0.8,0.2v0.2
		c-0.3,0.1-0.5,0.1-0.6,0.2c-0.1,0-0.3,0.1-0.6,0.2c-0.1,0-0.4,0.1-0.8,0.3c0,0,0,0,0,0c0,0,0,0,0-0.1v-1.2
		c-0.3,0.4-0.6,0.7-0.9,0.9c-0.4,0.3-0.9,0.4-1.3,0.4c-0.4,0-0.8-0.2-1.2-0.5c-0.4-0.3-0.6-0.8-0.6-1.5V215c0-0.4-0.1-0.6-0.2-0.8
		c-0.1-0.1-0.3-0.1-0.7-0.2v-0.2H551.6z"/>
	<path class="st6" d="M557.1,220.4c0.4,0,0.6-0.1,0.8-0.2c0.2-0.1,0.3-0.4,0.3-0.8v-3.8c0-0.4,0-0.6-0.1-0.7
		c-0.1-0.1-0.3-0.2-0.5-0.2c-0.1,0-0.2,0-0.2,0c-0.1,0-0.1,0-0.2,0.1v-0.3l0.5-0.2c0.2-0.1,0.5-0.2,0.9-0.3c0.4-0.2,0.7-0.2,0.7-0.2
		c0,0,0,0,0,0c0,0,0,0.1,0,0.1v1c0.5-0.4,0.9-0.7,1.3-0.9c0.4-0.2,0.7-0.3,1.1-0.3c0.5,0,0.9,0.2,1.2,0.5c0.2,0.2,0.3,0.4,0.4,0.8
		c0.4-0.4,0.7-0.6,0.9-0.8c0.5-0.3,0.9-0.5,1.4-0.5c0.8,0,1.3,0.3,1.6,1c0.2,0.4,0.2,0.9,0.2,1.7v3c0,0.3,0.1,0.6,0.2,0.7
		c0.2,0.1,0.4,0.2,0.8,0.2v0.2h-3.3v-0.2c0.4,0,0.7-0.1,0.8-0.3c0.1-0.1,0.2-0.4,0.2-0.8v-3.2c0-0.5-0.1-0.8-0.2-1
		c-0.2-0.4-0.5-0.6-1.1-0.6c-0.3,0-0.6,0.1-0.9,0.3c-0.2,0.1-0.4,0.3-0.7,0.6v3.8c0,0.4,0.1,0.7,0.2,0.9c0.1,0.2,0.4,0.3,0.9,0.3
		v0.2h-3.4v-0.2c0.5-0.1,0.8-0.2,0.9-0.3s0.2-0.6,0.2-1.2v-2c0-0.8,0-1.3-0.1-1.5c-0.2-0.5-0.5-0.7-1-0.7c-0.3,0-0.6,0.1-0.9,0.2
		c-0.3,0.2-0.5,0.4-0.8,0.6v4c0,0.4,0.1,0.6,0.2,0.8c0.1,0.1,0.4,0.2,0.8,0.2v0.2h-3.3V220.4z"/>
	<path class="st6" d="M568.6,223.7c0.5,0,0.7-0.1,0.9-0.3c0.1-0.2,0.2-0.4,0.2-0.8v-7c0-0.4,0-0.6-0.1-0.7c-0.1-0.1-0.3-0.2-0.5-0.2
		c-0.1,0-0.1,0-0.2,0c0,0-0.1,0-0.2,0v-0.2l0.7-0.2c0,0,0.5-0.2,1.5-0.5c0,0,0,0,0.1,0c0,0,0,0,0,0.1v1c0.3-0.3,0.6-0.6,0.8-0.7
		c0.4-0.3,0.9-0.4,1.4-0.4c0.7,0,1.3,0.3,1.7,0.9s0.7,1.4,0.7,2.4c0,1-0.3,1.9-0.9,2.7c-0.6,0.8-1.3,1.2-2.2,1.2
		c-0.3,0-0.5,0-0.7-0.1c-0.3-0.1-0.6-0.3-0.9-0.6v2.4c0,0.5,0.1,0.8,0.2,0.9c0.2,0.1,0.5,0.2,1.1,0.2v0.3h-3.6V223.7z M571.4,220
		c0.2,0.2,0.5,0.2,0.9,0.2c0.5,0,1-0.3,1.4-0.8s0.6-1.3,0.6-2.2c0-0.9-0.2-1.6-0.6-2c-0.4-0.4-0.8-0.7-1.4-0.7c-0.4,0-0.7,0.1-1,0.3
		c-0.3,0.2-0.4,0.4-0.4,0.7v3.7C571,219.6,571.2,219.9,571.4,220z"/>
	<path class="st6" d="M585,214.2c0.4,0.3,0.7,0.7,0.7,1c0,0.2-0.1,0.3-0.2,0.4c-0.1,0.1-0.3,0.2-0.5,0.2c-0.2,0-0.3-0.1-0.5-0.2
		c-0.1-0.1-0.2-0.3-0.3-0.5l-0.1-0.4c-0.1-0.3-0.2-0.4-0.3-0.5c-0.2-0.1-0.4-0.2-0.6-0.2c-0.6,0-1,0.2-1.4,0.7
		c-0.4,0.5-0.6,1.1-0.6,1.9c0,0.7,0.2,1.4,0.6,2c0.4,0.6,1,0.9,1.7,0.9c0.5,0,1-0.2,1.4-0.5c0.2-0.2,0.5-0.5,0.8-0.9l0.2,0.1
		c-0.3,0.6-0.6,1.1-0.9,1.4c-0.6,0.7-1.3,1-2.1,1c-0.8,0-1.4-0.3-2-0.9s-0.9-1.4-0.9-2.4c0-1,0.3-1.9,1-2.6c0.6-0.7,1.4-1.1,2.4-1.1
		C584.1,213.7,584.6,213.9,585,214.2z"/>
	<path class="st6" d="M588,217.4c0.4-0.3,1.3-0.7,2.7-1.2v-0.6c0-0.5,0-0.8-0.1-1c-0.2-0.3-0.5-0.5-1-0.5c-0.2,0-0.5,0.1-0.7,0.2
		c-0.2,0.1-0.3,0.3-0.3,0.5c0,0.1,0,0.2,0,0.3c0,0.1,0,0.2,0,0.3c0,0.3-0.1,0.5-0.3,0.6c-0.1,0.1-0.2,0.1-0.4,0.1
		c-0.2,0-0.4-0.1-0.5-0.2c-0.1-0.1-0.2-0.3-0.2-0.5c0-0.3,0.2-0.7,0.6-1.1c0.4-0.4,1-0.6,1.9-0.6c0.9,0,1.6,0.3,1.9,0.9
		c0.2,0.3,0.3,0.8,0.3,1.5v2.9c0,0.3,0,0.5,0.1,0.6c0.1,0.2,0.2,0.3,0.4,0.3c0.1,0,0.2,0,0.3-0.1c0.1,0,0.2-0.1,0.4-0.2v0.4
		c-0.2,0.2-0.3,0.3-0.5,0.5c-0.3,0.2-0.6,0.3-0.8,0.3c-0.3,0-0.6-0.1-0.7-0.3s-0.2-0.5-0.2-0.8c-0.4,0.3-0.7,0.6-1,0.7
		c-0.4,0.3-0.9,0.4-1.3,0.4c-0.4,0-0.8-0.1-1.1-0.4c-0.3-0.3-0.5-0.7-0.5-1.1C586.9,218.5,587.3,217.9,588,217.4z M590.7,216.6
		c-0.6,0.2-1,0.4-1.4,0.6c-0.7,0.4-1.1,0.9-1.1,1.5c0,0.4,0.1,0.8,0.4,1c0.2,0.1,0.4,0.2,0.6,0.2c0.3,0,0.6-0.1,0.9-0.3
		c0.3-0.2,0.4-0.4,0.4-0.7V216.6z"/>
	<path class="st6" d="M593.3,220.4c0.4,0,0.6-0.1,0.8-0.2c0.2-0.1,0.3-0.4,0.3-0.8v-3.8c0-0.4,0-0.6-0.1-0.7s-0.3-0.2-0.5-0.2
		c-0.1,0-0.2,0-0.2,0s-0.1,0-0.2,0.1v-0.3l0.5-0.2c0.2-0.1,0.5-0.2,0.9-0.3s0.7-0.2,0.7-0.2s0,0,0,0s0,0.1,0,0.1v1
		c0.5-0.4,0.9-0.7,1.3-0.9c0.4-0.2,0.7-0.3,1.1-0.3c0.5,0,0.9,0.2,1.2,0.5c0.2,0.2,0.3,0.4,0.4,0.8c0.4-0.4,0.7-0.6,0.9-0.8
		c0.5-0.3,0.9-0.5,1.4-0.5c0.8,0,1.3,0.3,1.6,1c0.2,0.4,0.2,0.9,0.2,1.7v3c0,0.3,0.1,0.6,0.2,0.7c0.2,0.1,0.4,0.2,0.8,0.2v0.2h-3.3
		v-0.2c0.4,0,0.7-0.1,0.8-0.3c0.1-0.1,0.2-0.4,0.2-0.8v-3.2c0-0.5-0.1-0.8-0.2-1c-0.2-0.4-0.5-0.6-1.1-0.6c-0.3,0-0.6,0.1-0.9,0.3
		c-0.2,0.1-0.4,0.3-0.7,0.6v3.8c0,0.4,0.1,0.7,0.2,0.9s0.4,0.3,0.9,0.3v0.2h-3.4v-0.2c0.5-0.1,0.8-0.2,0.9-0.3s0.2-0.6,0.2-1.2v-2
		c0-0.8,0-1.3-0.1-1.5c-0.2-0.5-0.5-0.7-1-0.7c-0.3,0-0.6,0.1-0.9,0.2c-0.3,0.2-0.5,0.4-0.8,0.6v4c0,0.4,0.1,0.6,0.2,0.8
		s0.4,0.2,0.8,0.2v0.2h-3.3V220.4z"/>
	<path class="st6" d="M604.8,223.7c0.5,0,0.7-0.1,0.9-0.3c0.1-0.2,0.2-0.4,0.2-0.8v-7c0-0.4,0-0.6-0.1-0.7c-0.1-0.1-0.3-0.2-0.5-0.2
		c-0.1,0-0.1,0-0.2,0s-0.1,0-0.2,0v-0.2l0.7-0.2c0,0,0.5-0.2,1.5-0.5c0,0,0,0,0.1,0c0,0,0,0,0,0.1v1c0.3-0.3,0.6-0.6,0.8-0.7
		c0.4-0.3,0.9-0.4,1.4-0.4c0.7,0,1.3,0.3,1.7,0.9c0.5,0.6,0.7,1.4,0.7,2.4c0,1-0.3,1.9-0.9,2.7c-0.6,0.8-1.3,1.2-2.2,1.2
		c-0.3,0-0.5,0-0.7-0.1c-0.3-0.1-0.6-0.3-0.9-0.6v2.4c0,0.5,0.1,0.8,0.2,0.9s0.5,0.2,1.1,0.2v0.3h-3.6V223.7z M607.7,220
		c0.3,0.2,0.5,0.2,0.9,0.2c0.5,0,1-0.3,1.4-0.8c0.4-0.5,0.6-1.3,0.6-2.2c0-0.9-0.2-1.6-0.6-2c-0.4-0.4-0.8-0.7-1.4-0.7
		c-0.4,0-0.7,0.1-1,0.3s-0.4,0.4-0.4,0.7v3.7C607.2,219.6,607.4,219.9,607.7,220z"/>
	<path class="st6" d="M613.8,217.4c0.4-0.3,1.3-0.7,2.7-1.2v-0.6c0-0.5,0-0.8-0.1-1c-0.2-0.3-0.5-0.5-1-0.5c-0.2,0-0.5,0.1-0.7,0.2
		c-0.2,0.1-0.3,0.3-0.3,0.5c0,0.1,0,0.2,0,0.3c0,0.1,0,0.2,0,0.3c0,0.3-0.1,0.5-0.3,0.6c-0.1,0.1-0.2,0.1-0.4,0.1
		c-0.2,0-0.4-0.1-0.5-0.2c-0.1-0.1-0.2-0.3-0.2-0.5c0-0.3,0.2-0.7,0.6-1.1c0.4-0.4,1-0.6,1.9-0.6c0.9,0,1.6,0.3,1.9,0.9
		c0.2,0.3,0.3,0.8,0.3,1.5v2.9c0,0.3,0,0.5,0.1,0.6c0.1,0.2,0.2,0.3,0.4,0.3c0.1,0,0.2,0,0.3-0.1c0.1,0,0.2-0.1,0.4-0.2v0.4
		c-0.2,0.2-0.3,0.3-0.5,0.5c-0.3,0.2-0.6,0.3-0.8,0.3c-0.3,0-0.6-0.1-0.7-0.3s-0.2-0.5-0.2-0.8c-0.4,0.3-0.7,0.6-1,0.7
		c-0.4,0.3-0.9,0.4-1.3,0.4c-0.4,0-0.8-0.1-1.1-0.4c-0.3-0.3-0.5-0.7-0.5-1.1C612.8,218.5,613.1,217.9,613.8,217.4z M616.5,216.6
		c-0.6,0.2-1,0.4-1.4,0.6c-0.7,0.4-1.1,0.9-1.1,1.5c0,0.4,0.1,0.8,0.4,1c0.2,0.1,0.4,0.2,0.6,0.2c0.3,0,0.6-0.1,0.9-0.3
		c0.3-0.2,0.4-0.4,0.4-0.7V216.6z"/>
	<path class="st6" d="M619.2,220.4c0.5,0,0.9-0.1,1-0.3c0.1-0.1,0.2-0.5,0.2-1.1v-3.5c0-0.3,0-0.5-0.1-0.7c-0.1-0.2-0.2-0.3-0.5-0.3
		c-0.1,0-0.1,0-0.2,0c-0.1,0-0.2,0-0.4,0.1v-0.2l0.3-0.1c0.9-0.3,1.4-0.5,1.8-0.6c0.1-0.1,0.2-0.1,0.3-0.1c0,0,0,0.1,0,0.1v5.3
		c0,0.6,0.1,0.9,0.2,1c0.1,0.1,0.4,0.2,0.9,0.3v0.2h-3.6V220.4z M620.3,210.6c0.1-0.2,0.3-0.2,0.5-0.2c0.2,0,0.4,0.1,0.5,0.2
		c0.1,0.1,0.2,0.3,0.2,0.5c0,0.2-0.1,0.4-0.2,0.5c-0.1,0.1-0.3,0.2-0.5,0.2c-0.2,0-0.4-0.1-0.5-0.2c-0.1-0.1-0.2-0.3-0.2-0.5
		S620.2,210.8,620.3,210.6z"/>
	<path class="st6" d="M624.4,217.4c-0.2-0.4-0.4-0.8-0.4-1.3c0-0.6,0.2-1.1,0.7-1.6s1.1-0.8,1.9-0.8c0.4,0,0.7,0.1,1.2,0.3
		c0.4,0.2,0.8,0.3,1.2,0.3c0.1,0,0.3,0,0.5,0c0.2,0,0.4,0,0.5,0h0.1v0.6h-1.3c0.1,0.2,0.2,0.4,0.2,0.5c0.1,0.3,0.1,0.6,0.1,0.8
		c0,0.6-0.2,1.1-0.7,1.5c-0.5,0.5-1.1,0.7-1.9,0.7c-0.1,0-0.3,0-0.7-0.1c-0.1,0-0.3,0.1-0.6,0.4s-0.4,0.4-0.4,0.6
		c0,0.2,0.2,0.3,0.5,0.3c0.2,0,0.5,0.1,0.7,0.1c1.3,0,2.1,0.1,2.6,0.2c0.7,0.2,1.1,0.7,1.1,1.5c0,0.8-0.4,1.4-1.3,1.8
		c-0.9,0.5-1.7,0.7-2.6,0.7c-0.8,0-1.4-0.2-1.9-0.5c-0.5-0.3-0.7-0.7-0.7-1c0-0.2,0.1-0.3,0.2-0.5c0.1-0.2,0.4-0.4,0.7-0.8l0.5-0.4
		l0.1-0.1c-0.2-0.1-0.4-0.2-0.5-0.3c-0.2-0.2-0.3-0.3-0.3-0.5c0-0.2,0.1-0.4,0.3-0.6c0.2-0.2,0.5-0.6,1.1-1.1
		C625,218,624.7,217.8,624.4,217.4z M625.2,222.8c0.5,0.2,1,0.2,1.6,0.2c0.8,0,1.5-0.1,2-0.4c0.5-0.3,0.8-0.6,0.8-1
		c0-0.3-0.2-0.5-0.6-0.7c-0.3-0.1-0.7-0.1-1.4-0.1c-0.2,0-0.4,0-0.6,0c-0.2,0-0.4,0-0.6,0c-0.1,0-0.3,0-0.5-0.1s-0.4-0.1-0.5-0.1
		c-0.1,0-0.2,0.2-0.4,0.5c-0.2,0.3-0.3,0.6-0.3,0.9C624.5,222.4,624.7,222.7,625.2,222.8z M627.5,217.8c0.3-0.2,0.4-0.6,0.4-1.2
		c0-0.5-0.1-1-0.4-1.6c-0.2-0.6-0.6-0.9-1.2-0.9c-0.5,0-0.8,0.2-1,0.7c-0.1,0.2-0.1,0.5-0.1,0.9c0,0.6,0.1,1.1,0.4,1.6
		c0.3,0.5,0.7,0.7,1.1,0.7C627.1,218,627.3,218,627.5,217.8z"/>
	<path class="st6" d="M630.8,220.4c0.3,0,0.6-0.1,0.7-0.3c0.1-0.1,0.2-0.4,0.2-0.9v-3.7c0-0.3,0-0.5-0.1-0.7
		c-0.1-0.2-0.3-0.3-0.6-0.3c0,0-0.1,0-0.1,0c0,0-0.1,0-0.2,0v-0.3c0.2-0.1,0.7-0.2,1.4-0.5l0.7-0.2c0,0,0.1,0,0.1,0c0,0,0,0.1,0,0.1
		v1.1c0.4-0.4,0.8-0.7,1.1-0.9c0.4-0.2,0.8-0.4,1.2-0.4c0.3,0,0.6,0.1,0.9,0.3c0.5,0.4,0.8,1,0.8,2v3.4c0,0.4,0.1,0.6,0.2,0.8
		c0.1,0.2,0.4,0.2,0.7,0.2v0.2h-3.1v-0.2c0.4,0,0.6-0.1,0.7-0.3c0.1-0.1,0.2-0.5,0.2-1V216c0-0.4-0.1-0.8-0.2-1
		c-0.2-0.3-0.4-0.4-0.9-0.4c-0.3,0-0.6,0.1-0.9,0.3c-0.2,0.1-0.4,0.3-0.6,0.6v4.1c0,0.4,0.1,0.6,0.2,0.7c0.2,0.1,0.4,0.2,0.7,0.2
		v0.2h-3.2V220.4z"/>
	<path class="st6" d="M642.6,218.3h0.2c0.1,0.6,0.3,1,0.5,1.3c0.3,0.5,0.8,0.8,1.5,0.8c0.4,0,0.7-0.1,0.9-0.3
		c0.2-0.2,0.3-0.5,0.3-0.8c0-0.2-0.1-0.4-0.2-0.6c-0.1-0.2-0.3-0.4-0.6-0.6l-0.8-0.5c-0.6-0.3-1-0.6-1.3-1s-0.4-0.7-0.4-1.2
		c0-0.5,0.2-1,0.6-1.3s0.9-0.5,1.5-0.5c0.3,0,0.5,0,0.9,0.1c0.3,0.1,0.5,0.1,0.5,0.1c0.1,0,0.2,0,0.2,0s0.1-0.1,0.1-0.1h0.2l0.1,2
		h-0.2c-0.1-0.5-0.2-0.8-0.4-1.1c-0.3-0.5-0.7-0.7-1.3-0.7c-0.3,0-0.6,0.1-0.8,0.3s-0.3,0.5-0.3,0.7c0,0.4,0.3,0.8,1,1.2l1,0.5
		c1,0.6,1.6,1.2,1.6,2c0,0.6-0.2,1-0.6,1.4s-1,0.5-1.7,0.5c-0.3,0-0.6,0-1-0.1c-0.4-0.1-0.6-0.1-0.7-0.1c-0.1,0-0.1,0-0.2,0.1
		c0,0-0.1,0.1-0.1,0.2h-0.2V218.3z"/>
	<path class="st6" d="M647.7,223.7c0.5,0,0.7-0.1,0.9-0.3c0.1-0.2,0.2-0.4,0.2-0.8v-7c0-0.4,0-0.6-0.1-0.7c-0.1-0.1-0.3-0.2-0.5-0.2
		c-0.1,0-0.1,0-0.2,0c0,0-0.1,0-0.2,0v-0.2l0.7-0.2c0,0,0.5-0.2,1.5-0.5c0,0,0,0,0.1,0c0,0,0,0,0,0.1v1c0.3-0.3,0.6-0.6,0.8-0.7
		c0.4-0.3,0.9-0.4,1.4-0.4c0.7,0,1.3,0.3,1.7,0.9c0.5,0.6,0.7,1.4,0.7,2.4c0,1-0.3,1.9-0.9,2.7c-0.6,0.8-1.3,1.2-2.2,1.2
		c-0.3,0-0.5,0-0.7-0.1c-0.3-0.1-0.6-0.3-0.9-0.6v2.4c0,0.5,0.1,0.8,0.2,0.9c0.2,0.1,0.5,0.2,1.1,0.2v0.3h-3.6V223.7z M650.6,220
		c0.3,0.2,0.5,0.2,0.9,0.2c0.5,0,1-0.3,1.4-0.8c0.4-0.5,0.6-1.3,0.6-2.2c0-0.9-0.2-1.6-0.6-2c-0.4-0.4-0.8-0.7-1.4-0.7
		c-0.4,0-0.7,0.1-1,0.3c-0.3,0.2-0.4,0.4-0.4,0.7v3.7C650.1,219.6,650.3,219.9,650.6,220z"/>
	<path class="st6" d="M660.4,214.5c0.5,0.5,0.8,1.2,0.8,2h-4.7c0,1.1,0.3,2,0.8,2.5c0.5,0.5,1,0.8,1.6,0.8c0.5,0,0.9-0.1,1.3-0.4
		s0.7-0.6,1-1.1l0.3,0.1c-0.2,0.6-0.6,1.2-1.1,1.7s-1.2,0.8-2,0.8c-0.9,0-1.6-0.3-2.1-1c-0.5-0.7-0.8-1.5-0.8-2.4
		c0-1,0.3-1.8,0.9-2.5s1.3-1.1,2.3-1.1C659.2,213.8,659.8,214,660.4,214.5z M656.9,215c-0.2,0.3-0.3,0.6-0.3,1h3.1
		c-0.1-0.5-0.1-0.9-0.3-1.1c-0.2-0.4-0.6-0.6-1.2-0.6C657.6,214.3,657.2,214.5,656.9,215z"/>
	<path class="st6" d="M662.1,220.4c0.3,0,0.6-0.1,0.7-0.3c0.1-0.1,0.2-0.4,0.2-0.9v-3.7c0-0.3,0-0.5-0.1-0.7
		c-0.1-0.2-0.3-0.3-0.6-0.3c0,0-0.1,0-0.1,0c0,0-0.1,0-0.2,0v-0.3c0.2-0.1,0.7-0.2,1.4-0.5l0.7-0.2c0,0,0.1,0,0.1,0c0,0,0,0.1,0,0.1
		v1.1c0.4-0.4,0.8-0.7,1.1-0.9c0.4-0.2,0.8-0.4,1.2-0.4c0.3,0,0.6,0.1,0.9,0.3c0.5,0.4,0.8,1,0.8,2v3.4c0,0.4,0.1,0.6,0.2,0.8
		c0.1,0.2,0.4,0.2,0.7,0.2v0.2h-3.1v-0.2c0.4,0,0.6-0.1,0.7-0.3c0.1-0.1,0.2-0.5,0.2-1V216c0-0.4-0.1-0.8-0.2-1
		c-0.2-0.3-0.4-0.4-0.9-0.4c-0.3,0-0.6,0.1-0.9,0.3c-0.2,0.1-0.4,0.3-0.6,0.6v4.1c0,0.4,0.1,0.6,0.2,0.7c0.2,0.1,0.4,0.2,0.7,0.2
		v0.2h-3.2V220.4z"/>
	<path class="st6" d="M673.1,213.9v0.5h-1.5l0,4.2c0,0.4,0,0.7,0.1,0.8c0.1,0.3,0.3,0.5,0.7,0.5c0.2,0,0.3,0,0.5-0.1
		c0.1-0.1,0.3-0.2,0.4-0.4l0.2,0.2l-0.2,0.2c-0.3,0.3-0.5,0.6-0.8,0.7s-0.6,0.2-0.8,0.2c-0.6,0-1-0.3-1.2-0.8
		c-0.1-0.3-0.2-0.7-0.2-1.2v-4.4h-0.8c0,0,0,0-0.1,0s0,0,0-0.1c0,0,0-0.1,0-0.1c0,0,0.1-0.1,0.2-0.2c0.3-0.3,0.6-0.5,0.7-0.7
		c0.1-0.2,0.5-0.6,1.1-1.4c0.1,0,0.1,0,0.1,0c0,0,0,0,0,0.1v1.8H673.1z"/>
	<path class="st6" d="M678.8,217.4c0.4-0.3,1.3-0.7,2.7-1.2v-0.6c0-0.5,0-0.8-0.1-1c-0.2-0.3-0.5-0.5-1-0.5c-0.2,0-0.5,0.1-0.7,0.2
		c-0.2,0.1-0.3,0.3-0.3,0.5c0,0.1,0,0.2,0,0.3c0,0.1,0,0.2,0,0.3c0,0.3-0.1,0.5-0.3,0.6c-0.1,0.1-0.2,0.1-0.4,0.1
		c-0.2,0-0.4-0.1-0.5-0.2c-0.1-0.1-0.2-0.3-0.2-0.5c0-0.3,0.2-0.7,0.6-1.1c0.4-0.4,1-0.6,1.9-0.6c0.9,0,1.6,0.3,1.9,0.9
		c0.2,0.3,0.3,0.8,0.3,1.5v2.9c0,0.3,0,0.5,0.1,0.6c0.1,0.2,0.2,0.3,0.4,0.3c0.1,0,0.2,0,0.3-0.1s0.2-0.1,0.4-0.2v0.4
		c-0.2,0.2-0.3,0.3-0.5,0.5c-0.3,0.2-0.6,0.3-0.8,0.3c-0.3,0-0.6-0.1-0.7-0.3c-0.1-0.2-0.2-0.5-0.2-0.8c-0.4,0.3-0.7,0.6-1,0.7
		c-0.4,0.3-0.9,0.4-1.3,0.4c-0.4,0-0.8-0.1-1.1-0.4c-0.3-0.3-0.5-0.7-0.5-1.1C677.7,218.5,678.1,217.9,678.8,217.4z M681.5,216.6
		c-0.6,0.2-1,0.4-1.4,0.6c-0.7,0.4-1.1,0.9-1.1,1.5c0,0.4,0.1,0.8,0.4,1c0.2,0.1,0.4,0.2,0.6,0.2c0.3,0,0.6-0.1,0.9-0.3
		s0.4-0.4,0.4-0.7V216.6z"/>
	<path class="st6" d="M691.4,213.9v0.5h-1.5l0,4.2c0,0.4,0,0.7,0.1,0.8c0.1,0.3,0.3,0.5,0.7,0.5c0.2,0,0.3,0,0.5-0.1
		c0.1-0.1,0.3-0.2,0.4-0.4l0.2,0.2l-0.2,0.2c-0.3,0.3-0.5,0.6-0.8,0.7s-0.6,0.2-0.8,0.2c-0.6,0-1-0.3-1.2-0.8
		c-0.1-0.3-0.2-0.7-0.2-1.2v-4.4h-0.8c0,0,0,0-0.1,0s0,0,0-0.1c0,0,0-0.1,0-0.1c0,0,0.1-0.1,0.2-0.2c0.3-0.3,0.6-0.5,0.7-0.7
		c0.1-0.2,0.5-0.6,1.1-1.4c0.1,0,0.1,0,0.1,0c0,0,0,0,0,0.1v1.8H691.4z"/>
	<path class="st6" d="M693.1,214.8c0.6-0.7,1.4-1,2.4-1c1,0,1.8,0.3,2.4,1s1,1.5,1,2.5c0,1-0.3,1.8-0.9,2.5s-1.4,1.1-2.4,1.1
		c-0.9,0-1.7-0.3-2.4-1s-1-1.6-1-2.6C692.2,216.3,692.5,215.4,693.1,214.8z M694.3,214.6c-0.5,0.4-0.7,1.2-0.7,2.3
		c0,0.9,0.2,1.7,0.6,2.4c0.4,0.8,0.9,1.1,1.6,1.1c0.5,0,1-0.3,1.3-0.8c0.3-0.5,0.4-1.2,0.4-2c0-0.8-0.2-1.6-0.6-2.4
		c-0.4-0.7-0.9-1.1-1.6-1.1C694.9,214.2,694.5,214.3,694.3,214.6z"/>
	<path class="st6" d="M703.1,213.9v0.5h-1.5l0,4.2c0,0.4,0,0.7,0.1,0.8c0.1,0.3,0.3,0.5,0.7,0.5c0.2,0,0.3,0,0.5-0.1
		s0.3-0.2,0.4-0.4l0.2,0.2l-0.2,0.2c-0.3,0.3-0.5,0.6-0.8,0.7s-0.6,0.2-0.8,0.2c-0.6,0-1-0.3-1.2-0.8c-0.1-0.3-0.2-0.7-0.2-1.2v-4.4
		h-0.8c0,0,0,0-0.1,0c0,0,0,0,0-0.1c0,0,0-0.1,0-0.1c0,0,0.1-0.1,0.2-0.2c0.3-0.3,0.6-0.5,0.7-0.7c0.1-0.2,0.5-0.6,1.1-1.4
		c0.1,0,0.1,0,0.1,0s0,0,0,0.1v1.8H703.1z"/>
	<path class="st6" d="M705.1,217.4c0.4-0.3,1.3-0.7,2.7-1.2v-0.6c0-0.5,0-0.8-0.1-1c-0.2-0.3-0.5-0.5-1-0.5c-0.2,0-0.5,0.1-0.7,0.2
		c-0.2,0.1-0.3,0.3-0.3,0.5c0,0.1,0,0.2,0,0.3c0,0.1,0,0.2,0,0.3c0,0.3-0.1,0.5-0.3,0.6c-0.1,0.1-0.2,0.1-0.4,0.1
		c-0.2,0-0.4-0.1-0.5-0.2c-0.1-0.1-0.2-0.3-0.2-0.5c0-0.3,0.2-0.7,0.6-1.1c0.4-0.4,1-0.6,1.9-0.6c0.9,0,1.6,0.3,1.9,0.9
		c0.2,0.3,0.3,0.8,0.3,1.5v2.9c0,0.3,0,0.5,0.1,0.6c0.1,0.2,0.2,0.3,0.4,0.3c0.1,0,0.2,0,0.3-0.1c0.1,0,0.2-0.1,0.4-0.2v0.4
		c-0.2,0.2-0.3,0.3-0.5,0.5c-0.3,0.2-0.6,0.3-0.8,0.3c-0.3,0-0.6-0.1-0.7-0.3s-0.2-0.5-0.2-0.8c-0.4,0.3-0.7,0.6-1,0.7
		c-0.4,0.3-0.9,0.4-1.3,0.4c-0.4,0-0.8-0.1-1.1-0.4c-0.3-0.3-0.5-0.7-0.5-1.1C704,218.5,704.3,217.9,705.1,217.4z M707.7,216.6
		c-0.6,0.2-1,0.4-1.4,0.6c-0.7,0.4-1.1,0.9-1.1,1.5c0,0.4,0.1,0.8,0.4,1c0.2,0.1,0.4,0.2,0.6,0.2c0.3,0,0.6-0.1,0.9-0.3
		c0.3-0.2,0.4-0.4,0.4-0.7V216.6z"/>
	<path class="st6" d="M710.4,220.4c0.5,0,0.8-0.1,0.9-0.3c0.2-0.1,0.2-0.4,0.2-0.8v-7.2c0-0.3,0-0.5-0.1-0.7
		c-0.1-0.2-0.3-0.3-0.6-0.3c-0.1,0-0.1,0-0.2,0s-0.2,0-0.3,0.1v-0.2c0.7-0.2,1.5-0.4,2.4-0.7c0,0,0.1,0,0.1,0s0,0.1,0,0.2v8.8
		c0,0.4,0.1,0.7,0.2,0.8c0.1,0.1,0.4,0.2,0.9,0.2v0.2h-3.5V220.4z"/>
	<path class="st6" d="M719.3,214.8c0.6-0.7,1.4-1,2.4-1c1,0,1.8,0.3,2.4,1s1,1.5,1,2.5c0,1-0.3,1.8-0.9,2.5s-1.4,1.1-2.4,1.1
		c-0.9,0-1.7-0.3-2.4-1c-0.6-0.7-1-1.6-1-2.6C718.4,216.3,718.7,215.4,719.3,214.8z M720.5,214.6c-0.5,0.4-0.7,1.2-0.7,2.3
		c0,0.9,0.2,1.7,0.6,2.4s0.9,1.1,1.6,1.1c0.5,0,1-0.3,1.3-0.8c0.3-0.5,0.4-1.2,0.4-2c0-0.8-0.2-1.6-0.6-2.4
		c-0.4-0.7-0.9-1.1-1.6-1.1C721.1,214.2,720.8,214.3,720.5,214.6z"/>
	<path class="st6" d="M725.8,220.4c0.5,0,0.9-0.1,1-0.3c0.2-0.2,0.2-0.5,0.2-1.1v-4.7h-1.3v-0.5h1.3c0-0.8,0.1-1.4,0.3-2
		c0.4-1,1.1-1.5,2.2-1.5c0.4,0,0.8,0.1,1.2,0.3s0.5,0.4,0.5,0.7c0,0.2-0.1,0.3-0.2,0.4c-0.1,0.1-0.3,0.2-0.4,0.2
		c-0.1,0-0.3,0-0.4-0.1c-0.1-0.1-0.2-0.2-0.4-0.5l-0.1-0.2c-0.1-0.1-0.1-0.2-0.2-0.3c-0.1-0.1-0.2-0.1-0.4-0.1
		c-0.4,0-0.6,0.2-0.8,0.5c-0.1,0.2-0.1,0.5-0.1,0.8v1.7h1.8v0.5h-1.8v4.7c0,0.6,0.1,0.9,0.2,1.1c0.1,0.2,0.5,0.3,1.2,0.3v0.2h-3.9
		V220.4z"/>
</g>
<g class="st8">
	<path class="st6" d="M509.7,235.9c0.1,0.6,0.3,1.1,0.6,1.4c0.4,0.6,1.1,0.9,2,0.9V234c-1-0.6-1.6-1-1.9-1.3
		c-0.5-0.5-0.8-1.1-0.8-1.7c0-0.6,0.2-1.1,0.7-1.5c0.5-0.5,1.1-0.7,1.9-0.7v-0.9h0.5v0.9c0.4,0,0.9,0.1,1.3,0.2
		c0.5,0.1,0.8,0.3,1.1,0.6v1.7H515c-0.1-0.6-0.4-1.1-0.8-1.5s-0.9-0.5-1.4-0.6v3.7c1.1,0.6,1.8,1,2.3,1.5s0.6,1,0.6,1.8
		c0,0.3,0,0.6-0.1,0.8c-0.1,0.4-0.4,0.8-0.7,1.1c-0.3,0.2-0.6,0.4-1,0.5c-0.4,0.1-0.7,0.2-1,0.2v1.3h-0.5v-1.3
		c-0.6,0-1.2-0.1-1.6-0.2c-0.3-0.1-0.7-0.3-1.2-0.5v-1.9H509.7z M512.3,229.1c-0.5,0.1-0.8,0.2-1.1,0.5c-0.3,0.3-0.4,0.6-0.4,1.1
		c0,0.4,0.2,0.8,0.6,1.2c0.3,0.2,0.6,0.5,0.9,0.7V229.1z M513.8,237.8c0.5-0.3,0.7-0.8,0.7-1.5c0-0.5-0.2-0.9-0.5-1.2
		c-0.2-0.2-0.6-0.5-1.2-0.9v4C513.2,238.1,513.6,238,513.8,237.8z"/>
	<path class="st6" d="M526.1,229.8c0.6,0.9,0.9,1.8,0.9,2.9c0,0.7-0.1,1.5-0.4,2.3s-0.7,1.4-1.2,2.1c-0.6,0.7-1.4,1.2-2.4,1.5
		c-0.5,0.2-1.2,0.3-2,0.4l-0.1-0.3c0.5-0.1,0.9-0.2,1.3-0.4c0.6-0.2,1.1-0.5,1.5-0.9c0.5-0.5,0.9-1,1.2-1.7c0.3-0.6,0.5-1.1,0.6-1.5
		l-0.3,0.2c-0.4,0.3-0.8,0.5-1.3,0.6c-0.3,0.1-0.5,0.1-0.7,0.1c-0.8,0-1.5-0.3-2-0.9s-0.7-1.3-0.7-2.1c0-1,0.3-1.9,0.9-2.6
		c0.6-0.7,1.3-1,2.2-1C524.7,228.5,525.6,229,526.1,229.8z M524.9,234.2c0.4-0.2,0.6-0.3,0.6-0.5c0,0,0-0.2,0.1-0.5
		c0-0.3,0-0.6,0-0.8c0-1-0.2-1.8-0.5-2.5c-0.3-0.6-0.8-1-1.5-1c-0.5,0-0.9,0.2-1.2,0.7c-0.3,0.4-0.4,1.1-0.4,1.9
		c0,0.7,0.1,1.4,0.4,2c0.3,0.6,0.8,0.9,1.5,0.9C524.2,234.4,524.5,234.3,524.9,234.2z"/>
	<path class="st6" d="M530.8,239.9c-0.4,0.4-0.7,0.7-1.1,0.9l-0.1-0.3c0.5-0.3,0.8-0.5,1-0.9c0.2-0.3,0.3-0.6,0.3-0.8
		c0-0.1,0-0.1-0.1-0.1c0,0-0.1,0-0.1,0l-0.5,0.1c-0.2,0-0.4-0.1-0.6-0.2c-0.2-0.1-0.3-0.3-0.3-0.6c0-0.2,0.1-0.4,0.2-0.6
		s0.4-0.3,0.7-0.3c0.3,0,0.6,0.1,0.8,0.4c0.2,0.2,0.4,0.6,0.4,1C531.3,239,531.1,239.4,530.8,239.9z"/>
	<path class="st6" d="M535.8,228.6C535.8,228.6,535.8,228.7,535.8,228.6l0,8.9c0,0.4,0.1,0.6,0.3,0.7c0.2,0.1,0.6,0.2,1.1,0.2v0.2
		h-4.1v-0.2c0.6,0,1-0.1,1.2-0.2c0.2-0.1,0.3-0.4,0.3-0.9v-6.8c0-0.2,0-0.4-0.1-0.5s-0.2-0.2-0.4-0.2c-0.1,0-0.3,0-0.5,0.1
		c-0.2,0.1-0.4,0.1-0.6,0.2v-0.2l2.7-1.4L535.8,228.6C535.8,228.6,535.8,228.6,535.8,228.6z"/>
	<path class="st6" d="M541.1,237.8c0.5,0.3,0.8,0.5,1,0.5c0.6,0,1.1-0.2,1.5-0.7c0.4-0.5,0.6-1.1,0.6-1.8c0-1.3-0.7-2.2-2-2.7
		c-0.7-0.3-1.4-0.5-2.1-0.5c-0.1,0-0.2,0-0.2,0c0,0-0.1,0-0.1-0.1c0,0,0-0.1,0-0.1c0,0,0-0.1,0-0.1l1.6-3.5h3.1c0.2,0,0.3,0,0.4-0.1
		c0.1-0.1,0.2-0.2,0.3-0.3l0.1,0.1l-0.6,1.4c0,0-0.1,0.1-0.2,0.1c-0.1,0-0.2,0-0.3,0h-2.8l-0.6,1.3c0.8,0.1,1.4,0.3,1.8,0.4
		c0.6,0.2,1.1,0.5,1.5,0.9c0.4,0.3,0.6,0.7,0.8,1.2c0.2,0.4,0.3,0.9,0.3,1.4c0,1.1-0.4,2-1.2,2.7s-1.7,1.1-2.9,1.1
		c-0.5,0-0.9,0-1.2-0.1c-0.5-0.2-0.7-0.4-0.7-0.8c0-0.1,0.1-0.3,0.2-0.4c0.1-0.1,0.3-0.2,0.5-0.2
		C540.3,237.3,540.6,237.5,541.1,237.8z"/>
	<path class="st6" d="M546.8,238.5c1.8-1.9,3-3.2,3.6-4.1c0.6-0.9,1-1.7,1-2.5c0-0.7-0.2-1.3-0.6-1.6s-0.9-0.6-1.4-0.6
		c-0.7,0-1.2,0.2-1.6,0.7c-0.2,0.3-0.4,0.7-0.7,1.2l-0.3-0.1c0.2-1.1,0.7-1.9,1.2-2.3c0.6-0.4,1.2-0.7,1.9-0.7c0.8,0,1.5,0.3,2,0.8
		c0.5,0.5,0.8,1.2,0.8,1.9c0,0.8-0.3,1.6-0.8,2.3c-0.6,0.7-1.8,2.1-3.6,4h3.4c0.5,0,0.8-0.1,1-0.2c0.2-0.1,0.4-0.4,0.6-0.8l0.2,0.1
		l-0.8,2h-5.9V238.5z"/>
	<path class="st6" d="M557,239.9c-0.4,0.4-0.7,0.7-1.1,0.9l-0.1-0.3c0.5-0.3,0.8-0.5,1-0.9c0.2-0.3,0.3-0.6,0.3-0.8
		c0-0.1,0-0.1-0.1-0.1c0,0-0.1,0-0.1,0l-0.5,0.1c-0.2,0-0.4-0.1-0.6-0.2c-0.2-0.1-0.3-0.3-0.3-0.6c0-0.2,0.1-0.4,0.2-0.6
		s0.4-0.3,0.7-0.3c0.3,0,0.6,0.1,0.8,0.4c0.2,0.2,0.4,0.6,0.4,1C557.5,239,557.4,239.4,557,239.9z"/>
	<path class="st6" d="M562.5,228.6h0.7v6.6h1.5v1h-1.5v2.5H562v-2.5h-4.2v-1L562.5,228.6z M562,230.1l-3.6,5.1h3.6V230.1z"/>
	<path class="st6" d="M571.3,237.7c-0.6,0.7-1.3,1.1-2.2,1.1c-0.9,0-1.6-0.4-2.3-1.2c-0.7-0.8-1.1-1.9-1.1-3.2
		c0-1.7,0.7-3.2,2.1-4.4c1.2-1,2.6-1.6,4.1-1.6l0,0.2c-0.6,0.1-1.1,0.3-1.6,0.5c-0.4,0.2-0.8,0.5-1.2,0.8c-0.4,0.4-0.7,0.8-1,1.3
		c-0.3,0.5-0.5,1.1-0.6,1.6c0.3-0.2,0.6-0.3,0.8-0.4c0.4-0.2,0.8-0.2,1.2-0.2c0.8,0,1.4,0.3,2,0.8c0.5,0.5,0.8,1.3,0.8,2.3
		C572.1,236.2,571.8,237,571.3,237.7z M570.5,234.1c-0.3-0.8-0.9-1.3-1.7-1.3c-0.8,0-1.3,0.2-1.5,0.7c-0.1,0.3-0.2,0.7-0.2,1.3
		c0,0.8,0.2,1.6,0.5,2.3c0.3,0.8,0.9,1.1,1.6,1.1c0.6,0,1-0.2,1.3-0.7c0.3-0.5,0.4-1.1,0.4-1.7C570.8,235.2,570.7,234.6,570.5,234.1
		z"/>
	<path class="st6" d="M573.1,238.5c1.8-1.9,3-3.2,3.6-4.1c0.6-0.9,1-1.7,1-2.5c0-0.7-0.2-1.3-0.6-1.6s-0.9-0.6-1.4-0.6
		c-0.7,0-1.2,0.2-1.6,0.7c-0.2,0.3-0.4,0.7-0.7,1.2l-0.3-0.1c0.2-1.1,0.7-1.9,1.2-2.3c0.6-0.4,1.2-0.7,1.9-0.7c0.8,0,1.5,0.3,2,0.8
		c0.5,0.5,0.8,1.2,0.8,1.9c0,0.8-0.3,1.6-0.8,2.3c-0.6,0.7-1.8,2.1-3.6,4h3.4c0.5,0,0.8-0.1,1-0.2c0.2-0.1,0.4-0.4,0.6-0.8l0.2,0.1
		l-0.8,2h-5.9V238.5z"/>
	<path class="st6" d="M585.2,232.8c0.6-0.7,1.4-1,2.4-1c1,0,1.8,0.3,2.4,1s1,1.5,1,2.5c0,1-0.3,1.8-0.9,2.5s-1.4,1.1-2.4,1.1
		c-0.9,0-1.7-0.3-2.4-1c-0.6-0.7-1-1.6-1-2.6C584.2,234.3,584.6,233.4,585.2,232.8z M586.3,232.6c-0.5,0.4-0.7,1.2-0.7,2.3
		c0,0.9,0.2,1.7,0.6,2.4s0.9,1.1,1.6,1.1c0.5,0,1-0.3,1.3-0.8c0.3-0.5,0.4-1.2,0.4-2c0-0.8-0.2-1.6-0.6-2.4
		c-0.4-0.7-0.9-1.1-1.6-1.1C587,232.2,586.6,232.3,586.3,232.6z"/>
	<path class="st6" d="M591.6,238.4c0.3,0,0.6-0.1,0.7-0.3c0.1-0.1,0.2-0.4,0.2-0.9v-3.7c0-0.3,0-0.5-0.1-0.7
		c-0.1-0.2-0.3-0.3-0.6-0.3c0,0-0.1,0-0.1,0c0,0-0.1,0-0.2,0v-0.3c0.2-0.1,0.7-0.2,1.4-0.5l0.7-0.2c0,0,0.1,0,0.1,0c0,0,0,0.1,0,0.1
		v1.1c0.4-0.4,0.8-0.7,1.1-0.9c0.4-0.2,0.8-0.4,1.2-0.4c0.3,0,0.6,0.1,0.9,0.3c0.5,0.4,0.8,1,0.8,2v3.4c0,0.4,0.1,0.6,0.2,0.8
		c0.1,0.2,0.4,0.2,0.7,0.2v0.2h-3.1v-0.2c0.4,0,0.6-0.1,0.7-0.3c0.1-0.1,0.2-0.5,0.2-1V234c0-0.4-0.1-0.8-0.2-1
		c-0.2-0.3-0.4-0.4-0.9-0.4c-0.3,0-0.6,0.1-0.9,0.3c-0.2,0.1-0.4,0.3-0.6,0.6v4.1c0,0.4,0.1,0.6,0.2,0.7c0.2,0.1,0.4,0.2,0.7,0.2
		v0.2h-3.2V238.4z"/>
	<path class="st6" d="M607.2,232c0.2,0.1,0.4,0.2,0.6,0.4V230c0-0.3,0-0.5-0.1-0.6c-0.1-0.1-0.2-0.2-0.5-0.2c-0.1,0-0.1,0-0.2,0
		c0,0-0.1,0-0.3,0v-0.2l0.6-0.2c0.2-0.1,0.4-0.1,0.7-0.2c0.2-0.1,0.4-0.1,0.6-0.2c0.1,0,0.2-0.1,0.4-0.1l0,0l0,0.8
		c0,0.3,0,0.6,0,0.9c0,0.3,0,0.6,0,0.9l0,6c0,0.3,0,0.5,0.1,0.7s0.3,0.2,0.6,0.2c0.1,0,0.1,0,0.2,0c0.1,0,0.1,0,0.2,0v0.2
		c0,0-0.4,0.1-1.1,0.4l-1.1,0.4l-0.1-0.1v-0.9c-0.3,0.3-0.5,0.5-0.7,0.6c-0.4,0.2-0.8,0.3-1.2,0.3c-0.8,0-1.5-0.3-2-1
		c-0.5-0.6-0.8-1.4-0.8-2.2c0-1.1,0.3-2,0.9-2.7c0.6-0.8,1.4-1.1,2.3-1.1C606.5,231.7,606.9,231.8,607.2,232z M607.4,237.6
		c0.2-0.2,0.4-0.4,0.4-0.6v-3.1c0-0.6-0.2-1.1-0.5-1.3c-0.3-0.3-0.7-0.4-1-0.4c-0.6,0-1.1,0.3-1.4,0.8c-0.3,0.5-0.5,1.2-0.5,2
		c0,0.8,0.2,1.5,0.5,2.1s0.9,0.9,1.6,0.9C606.8,238,607.1,237.9,607.4,237.6z"/>
	<path class="st6" d="M611.7,235.4c0.4-0.3,1.3-0.7,2.7-1.2v-0.6c0-0.5,0-0.8-0.1-1c-0.2-0.3-0.5-0.5-1-0.5c-0.2,0-0.5,0.1-0.7,0.2
		c-0.2,0.1-0.3,0.3-0.3,0.5c0,0.1,0,0.2,0,0.3c0,0.1,0,0.2,0,0.3c0,0.3-0.1,0.5-0.3,0.6c-0.1,0.1-0.2,0.1-0.4,0.1
		c-0.2,0-0.4-0.1-0.5-0.2c-0.1-0.1-0.2-0.3-0.2-0.5c0-0.3,0.2-0.7,0.6-1.1c0.4-0.4,1-0.6,1.9-0.6c0.9,0,1.6,0.3,1.9,0.9
		c0.2,0.3,0.3,0.8,0.3,1.5v2.9c0,0.3,0,0.5,0.1,0.6c0.1,0.2,0.2,0.3,0.4,0.3c0.1,0,0.2,0,0.3-0.1c0.1,0,0.2-0.1,0.4-0.2v0.4
		c-0.2,0.2-0.3,0.3-0.5,0.5c-0.3,0.2-0.6,0.3-0.8,0.3c-0.3,0-0.6-0.1-0.7-0.3s-0.2-0.5-0.2-0.8c-0.4,0.3-0.7,0.6-1,0.7
		c-0.4,0.3-0.9,0.4-1.3,0.4c-0.4,0-0.8-0.1-1.1-0.4c-0.3-0.3-0.5-0.7-0.5-1.1C610.7,236.5,611,235.9,611.7,235.4z M614.4,234.6
		c-0.6,0.2-1,0.4-1.4,0.6c-0.7,0.4-1.1,0.9-1.1,1.5c0,0.4,0.1,0.8,0.4,1c0.2,0.1,0.4,0.2,0.6,0.2c0.3,0,0.6-0.1,0.9-0.3
		c0.3-0.2,0.4-0.4,0.4-0.7V234.6z"/>
	<path class="st6" d="M620.6,231.9v0.5h-1.5l0,4.2c0,0.4,0,0.7,0.1,0.8c0.1,0.3,0.3,0.5,0.7,0.5c0.2,0,0.3,0,0.5-0.1
		s0.3-0.2,0.4-0.4l0.2,0.2l-0.2,0.2c-0.3,0.3-0.5,0.6-0.8,0.7s-0.6,0.2-0.8,0.2c-0.6,0-1-0.3-1.2-0.8c-0.1-0.3-0.2-0.7-0.2-1.2v-4.4
		H617c0,0,0,0-0.1,0c0,0,0,0,0-0.1c0,0,0-0.1,0-0.1c0,0,0.1-0.1,0.2-0.2c0.3-0.3,0.6-0.5,0.7-0.7c0.1-0.2,0.5-0.6,1.1-1.4
		c0.1,0,0.1,0,0.1,0s0,0,0,0.1v1.8H620.6z"/>
	<path class="st6" d="M622.6,235.4c0.4-0.3,1.3-0.7,2.7-1.2v-0.6c0-0.5,0-0.8-0.1-1c-0.2-0.3-0.5-0.5-1-0.5c-0.2,0-0.5,0.1-0.7,0.2
		c-0.2,0.1-0.3,0.3-0.3,0.5c0,0.1,0,0.2,0,0.3c0,0.1,0,0.2,0,0.3c0,0.3-0.1,0.5-0.3,0.6c-0.1,0.1-0.2,0.1-0.4,0.1
		c-0.2,0-0.4-0.1-0.5-0.2c-0.1-0.1-0.2-0.3-0.2-0.5c0-0.3,0.2-0.7,0.6-1.1c0.4-0.4,1-0.6,1.9-0.6c0.9,0,1.6,0.3,1.9,0.9
		c0.2,0.3,0.3,0.8,0.3,1.5v2.9c0,0.3,0,0.5,0.1,0.6c0.1,0.2,0.2,0.3,0.4,0.3c0.1,0,0.2,0,0.3-0.1c0.1,0,0.2-0.1,0.4-0.2v0.4
		c-0.2,0.2-0.3,0.3-0.5,0.5c-0.3,0.2-0.6,0.3-0.8,0.3c-0.3,0-0.6-0.1-0.7-0.3s-0.2-0.5-0.2-0.8c-0.4,0.3-0.7,0.6-1,0.7
		c-0.4,0.3-0.9,0.4-1.3,0.4c-0.4,0-0.8-0.1-1.1-0.4c-0.3-0.3-0.5-0.7-0.5-1.1C621.5,236.5,621.8,235.9,622.6,235.4z M625.2,234.6
		c-0.6,0.2-1,0.4-1.4,0.6c-0.7,0.4-1.1,0.9-1.1,1.5c0,0.4,0.1,0.8,0.4,1c0.2,0.1,0.4,0.2,0.6,0.2c0.3,0,0.6-0.1,0.9-0.3
		c0.3-0.2,0.4-0.4,0.4-0.7V234.6z"/>
	<path class="st6" d="M628.2,234.8h3.7v0.9h-3.7V234.8z"/>
	<path class="st6" d="M637.1,232c0.2,0.1,0.4,0.2,0.6,0.4V230c0-0.3,0-0.5-0.1-0.6c-0.1-0.1-0.2-0.2-0.5-0.2c-0.1,0-0.1,0-0.2,0
		s-0.1,0-0.3,0v-0.2l0.6-0.2c0.2-0.1,0.4-0.1,0.7-0.2s0.4-0.1,0.6-0.2c0.1,0,0.2-0.1,0.4-0.1l0,0l0,0.8c0,0.3,0,0.6,0,0.9
		c0,0.3,0,0.6,0,0.9l0,6c0,0.3,0,0.5,0.1,0.7s0.3,0.2,0.6,0.2c0.1,0,0.1,0,0.2,0c0.1,0,0.1,0,0.2,0v0.2c0,0-0.4,0.1-1.1,0.4
		l-1.1,0.4l-0.1-0.1v-0.9c-0.3,0.3-0.5,0.5-0.7,0.6c-0.4,0.2-0.8,0.3-1.2,0.3c-0.8,0-1.5-0.3-2-1c-0.5-0.6-0.8-1.4-0.8-2.2
		c0-1.1,0.3-2,0.9-2.7c0.6-0.8,1.4-1.1,2.3-1.1C636.5,231.7,636.8,231.8,637.1,232z M637.3,237.6c0.2-0.2,0.4-0.4,0.4-0.6v-3.1
		c0-0.6-0.2-1.1-0.5-1.3c-0.3-0.3-0.7-0.4-1-0.4c-0.6,0-1.1,0.3-1.4,0.8c-0.3,0.5-0.5,1.2-0.5,2c0,0.8,0.2,1.5,0.5,2.1
		c0.4,0.6,0.9,0.9,1.6,0.9C636.8,238,637.1,237.9,637.3,237.6z"/>
	<path class="st6" d="M640.2,238.4c0.4,0,0.7-0.1,0.9-0.2c0.1-0.1,0.2-0.4,0.2-0.8v-3.3c0-0.5,0-0.8-0.1-1c-0.1-0.2-0.3-0.3-0.5-0.3
		c0,0-0.1,0-0.2,0c-0.1,0-0.2,0-0.3,0v-0.2c0.3-0.1,0.6-0.2,0.9-0.3c0.3-0.1,0.5-0.2,0.6-0.2c0.2-0.1,0.5-0.2,0.8-0.3
		c0,0,0.1,0,0.1,0s0,0.1,0,0.2v1.2c0.3-0.4,0.6-0.8,0.9-1s0.6-0.4,0.9-0.4c0.2,0,0.5,0.1,0.6,0.2c0.2,0.1,0.2,0.3,0.2,0.6
		c0,0.2-0.1,0.4-0.2,0.5s-0.3,0.2-0.5,0.2c-0.2,0-0.4-0.1-0.6-0.3c-0.2-0.2-0.3-0.3-0.4-0.3c-0.2,0-0.4,0.1-0.6,0.4
		c-0.2,0.3-0.4,0.6-0.4,0.9v3.3c0,0.4,0.1,0.7,0.3,0.9c0.2,0.2,0.5,0.2,1,0.2v0.2h-3.6V238.4z"/>
	<path class="st6" d="M645.4,238.4c0.5,0,0.9-0.1,1-0.3c0.1-0.1,0.2-0.5,0.2-1.1v-3.5c0-0.3,0-0.5-0.1-0.7c-0.1-0.2-0.2-0.3-0.5-0.3
		c-0.1,0-0.1,0-0.2,0c-0.1,0-0.2,0-0.4,0.1v-0.2l0.3-0.1c0.9-0.3,1.4-0.5,1.8-0.6c0.1-0.1,0.2-0.1,0.3-0.1c0,0,0,0.1,0,0.1v5.3
		c0,0.6,0.1,0.9,0.2,1c0.1,0.1,0.4,0.2,0.9,0.3v0.2h-3.6V238.4z M646.5,228.6c0.1-0.2,0.3-0.2,0.5-0.2c0.2,0,0.4,0.1,0.5,0.2
		c0.1,0.1,0.2,0.3,0.2,0.5c0,0.2-0.1,0.4-0.2,0.5c-0.1,0.1-0.3,0.2-0.5,0.2c-0.2,0-0.4-0.1-0.5-0.2c-0.1-0.1-0.2-0.3-0.2-0.5
		S646.4,228.8,646.5,228.6z"/>
	<path class="st6" d="M652.5,231.8v0.2c-0.3,0-0.4,0.1-0.5,0.1c-0.1,0-0.2,0.2-0.2,0.3c0,0.1,0,0.2,0,0.2c0,0.1,0.1,0.2,0.1,0.3
		l1.5,3.7l1.3-3.2c0.1-0.2,0.1-0.3,0.2-0.5s0.1-0.3,0.1-0.4c0-0.2-0.1-0.3-0.3-0.4c-0.1,0-0.3-0.1-0.4-0.1v-0.2h2.1v0.2
		c-0.2,0-0.4,0.1-0.5,0.2c-0.1,0.1-0.3,0.5-0.5,1l-2.1,5.3c0,0.1-0.1,0.2-0.1,0.2c0,0-0.1,0.1-0.1,0.1c0,0-0.1,0-0.1-0.1
		c0-0.1-0.1-0.1-0.1-0.2l-2.2-5.4c-0.2-0.4-0.4-0.7-0.6-0.9c-0.1-0.1-0.3-0.1-0.5-0.2v-0.2H652.5z"/>
	<path class="st6" d="M662,232.5c0.5,0.5,0.8,1.2,0.8,2h-4.7c0,1.1,0.3,2,0.8,2.5c0.5,0.5,1,0.8,1.6,0.8c0.5,0,0.9-0.1,1.3-0.4
		s0.7-0.6,1-1.1l0.3,0.1c-0.2,0.6-0.6,1.2-1.1,1.7c-0.5,0.5-1.2,0.8-2,0.8c-0.9,0-1.6-0.3-2.1-1c-0.5-0.7-0.8-1.5-0.8-2.4
		c0-1,0.3-1.8,0.9-2.5c0.6-0.7,1.3-1.1,2.3-1.1C660.9,231.8,661.5,232,662,232.5z M658.5,233c-0.2,0.3-0.3,0.6-0.3,1h3.1
		c-0.1-0.5-0.1-0.9-0.3-1.1c-0.2-0.4-0.6-0.6-1.2-0.6C659.2,232.3,658.8,232.5,658.5,233z"/>
	<path class="st6" d="M663.7,238.4c0.3,0,0.6-0.1,0.7-0.3c0.1-0.1,0.2-0.4,0.2-0.9v-3.7c0-0.3,0-0.5-0.1-0.7
		c-0.1-0.2-0.3-0.3-0.6-0.3c0,0-0.1,0-0.1,0s-0.1,0-0.2,0v-0.3c0.2-0.1,0.7-0.2,1.4-0.5l0.7-0.2c0,0,0.1,0,0.1,0s0,0.1,0,0.1v1.1
		c0.4-0.4,0.8-0.7,1.1-0.9c0.4-0.2,0.8-0.4,1.2-0.4c0.3,0,0.6,0.1,0.9,0.3c0.5,0.4,0.8,1,0.8,2v3.4c0,0.4,0.1,0.6,0.2,0.8
		c0.1,0.2,0.4,0.2,0.7,0.2v0.2h-3.1v-0.2c0.4,0,0.6-0.1,0.7-0.3c0.1-0.1,0.2-0.5,0.2-1V234c0-0.4-0.1-0.8-0.2-1
		c-0.2-0.3-0.4-0.4-0.9-0.4c-0.3,0-0.6,0.1-0.9,0.3c-0.2,0.1-0.4,0.3-0.6,0.6v4.1c0,0.4,0.1,0.6,0.2,0.7c0.2,0.1,0.4,0.2,0.7,0.2
		v0.2h-3.2V238.4z"/>
	<path class="st6" d="M674.7,238.4c0.4,0,0.7-0.1,0.9-0.2c0.1-0.1,0.2-0.4,0.2-0.8v-3.3c0-0.5,0-0.8-0.1-1c-0.1-0.2-0.3-0.3-0.5-0.3
		c0,0-0.1,0-0.2,0c-0.1,0-0.2,0-0.3,0v-0.2c0.3-0.1,0.6-0.2,0.9-0.3c0.3-0.1,0.5-0.2,0.6-0.2c0.2-0.1,0.5-0.2,0.8-0.3
		c0,0,0.1,0,0.1,0s0,0.1,0,0.2v1.2c0.3-0.4,0.6-0.8,0.9-1s0.6-0.4,0.9-0.4c0.2,0,0.5,0.1,0.6,0.2c0.2,0.1,0.2,0.3,0.2,0.6
		c0,0.2-0.1,0.4-0.2,0.5s-0.3,0.2-0.5,0.2c-0.2,0-0.4-0.1-0.6-0.3c-0.2-0.2-0.3-0.3-0.4-0.3c-0.2,0-0.4,0.1-0.6,0.4
		c-0.2,0.3-0.4,0.6-0.4,0.9v3.3c0,0.4,0.1,0.7,0.3,0.9c0.2,0.2,0.5,0.2,1,0.2v0.2h-3.6V238.4z"/>
	<path class="st6" d="M684.9,232.5c0.5,0.5,0.8,1.2,0.8,2H681c0,1.1,0.3,2,0.8,2.5c0.5,0.5,1,0.8,1.6,0.8c0.5,0,0.9-0.1,1.3-0.4
		s0.7-0.6,1-1.1l0.3,0.1c-0.2,0.6-0.6,1.2-1.1,1.7c-0.6,0.5-1.2,0.8-2,0.8c-0.9,0-1.6-0.3-2.1-1s-0.8-1.5-0.8-2.4
		c0-1,0.3-1.8,0.9-2.5s1.3-1.1,2.3-1.1C683.8,231.8,684.4,232,684.9,232.5z M681.4,233c-0.2,0.3-0.3,0.6-0.3,1h3.1
		c-0.1-0.5-0.1-0.9-0.3-1.1c-0.2-0.4-0.6-0.6-1.2-0.6C682.1,232.3,681.7,232.5,681.4,233z"/>
	<path class="st6" d="M686.6,238.4c0.5,0,0.8-0.1,0.9-0.3c0.2-0.1,0.2-0.4,0.2-0.8v-7.2c0-0.3,0-0.5-0.1-0.7
		c-0.1-0.2-0.3-0.3-0.6-0.3c-0.1,0-0.1,0-0.2,0c-0.1,0-0.2,0-0.3,0.1v-0.2c0.7-0.2,1.5-0.4,2.4-0.7c0,0,0.1,0,0.1,0c0,0,0,0.1,0,0.2
		v8.8c0,0.4,0.1,0.7,0.2,0.8c0.1,0.1,0.4,0.2,0.9,0.2v0.2h-3.5V238.4z"/>
	<path class="st6" d="M692.1,235.4c0.4-0.3,1.3-0.7,2.7-1.2v-0.6c0-0.5,0-0.8-0.1-1c-0.2-0.3-0.5-0.5-1-0.5c-0.2,0-0.5,0.1-0.7,0.2
		c-0.2,0.1-0.3,0.3-0.3,0.5c0,0.1,0,0.2,0,0.3c0,0.1,0,0.2,0,0.3c0,0.3-0.1,0.5-0.3,0.6c-0.1,0.1-0.2,0.1-0.4,0.1
		c-0.2,0-0.4-0.1-0.5-0.2c-0.1-0.1-0.2-0.3-0.2-0.5c0-0.3,0.2-0.7,0.6-1.1c0.4-0.4,1-0.6,1.9-0.6c0.9,0,1.6,0.3,1.9,0.9
		c0.2,0.3,0.3,0.8,0.3,1.5v2.9c0,0.3,0,0.5,0.1,0.6c0.1,0.2,0.2,0.3,0.4,0.3c0.1,0,0.2,0,0.3-0.1s0.2-0.1,0.4-0.2v0.4
		c-0.2,0.2-0.3,0.3-0.5,0.5c-0.3,0.2-0.6,0.3-0.8,0.3c-0.3,0-0.6-0.1-0.7-0.3c-0.1-0.2-0.2-0.5-0.2-0.8c-0.4,0.3-0.7,0.6-1,0.7
		c-0.4,0.3-0.9,0.4-1.3,0.4c-0.4,0-0.8-0.1-1.1-0.4c-0.3-0.3-0.5-0.7-0.5-1.1C691,236.5,691.4,235.9,692.1,235.4z M694.8,234.6
		c-0.6,0.2-1,0.4-1.4,0.6c-0.7,0.4-1.1,0.9-1.1,1.5c0,0.4,0.1,0.8,0.4,1c0.2,0.1,0.4,0.2,0.6,0.2c0.3,0,0.6-0.1,0.9-0.3
		c0.3-0.2,0.4-0.4,0.4-0.7V234.6z"/>
	<path class="st6" d="M701,231.9v0.5h-1.5l0,4.2c0,0.4,0,0.7,0.1,0.8c0.1,0.3,0.3,0.5,0.7,0.5c0.2,0,0.3,0,0.5-0.1
		c0.1-0.1,0.3-0.2,0.4-0.4l0.2,0.2l-0.2,0.2c-0.3,0.3-0.5,0.6-0.8,0.7s-0.6,0.2-0.8,0.2c-0.6,0-1-0.3-1.2-0.8
		c-0.1-0.3-0.2-0.7-0.2-1.2v-4.4h-0.8c0,0,0,0-0.1,0s0,0,0-0.1c0,0,0-0.1,0-0.1c0,0,0.1-0.1,0.2-0.2c0.3-0.3,0.6-0.5,0.7-0.7
		c0.1-0.2,0.5-0.6,1.1-1.4c0.1,0,0.1,0,0.1,0c0,0,0,0,0,0.1v1.8H701z"/>
	<path class="st6" d="M706.6,232.5c0.5,0.5,0.8,1.2,0.8,2h-4.7c0,1.1,0.3,2,0.8,2.5c0.5,0.5,1,0.8,1.6,0.8c0.5,0,0.9-0.1,1.3-0.4
		s0.7-0.6,1-1.1l0.3,0.1c-0.2,0.6-0.6,1.2-1.1,1.7c-0.6,0.5-1.2,0.8-2,0.8c-0.9,0-1.6-0.3-2.1-1s-0.8-1.5-0.8-2.4
		c0-1,0.3-1.8,0.9-2.5s1.3-1.1,2.3-1.1C705.4,231.8,706,232,706.6,232.5z M703,233c-0.2,0.3-0.3,0.6-0.3,1h3.1
		c-0.1-0.5-0.1-0.9-0.3-1.1c-0.2-0.4-0.6-0.6-1.2-0.6C703.8,232.3,703.3,232.5,703,233z"/>
	<path class="st6" d="M712.5,232c0.2,0.1,0.4,0.2,0.6,0.4V230c0-0.3,0-0.5-0.1-0.6c-0.1-0.1-0.2-0.2-0.5-0.2c-0.1,0-0.1,0-0.2,0
		c0,0-0.1,0-0.3,0v-0.2l0.6-0.2c0.2-0.1,0.4-0.1,0.7-0.2c0.2-0.1,0.4-0.1,0.6-0.2c0.1,0,0.2-0.1,0.4-0.1l0,0l0,0.8
		c0,0.3,0,0.6,0,0.9c0,0.3,0,0.6,0,0.9l0,6c0,0.3,0,0.5,0.1,0.7s0.3,0.2,0.6,0.2c0.1,0,0.1,0,0.2,0c0.1,0,0.1,0,0.2,0v0.2
		c0,0-0.4,0.1-1.1,0.4l-1.1,0.4l-0.1-0.1v-0.9c-0.3,0.3-0.5,0.5-0.7,0.6c-0.4,0.2-0.8,0.3-1.2,0.3c-0.8,0-1.5-0.3-2-1
		c-0.5-0.6-0.8-1.4-0.8-2.2c0-1.1,0.3-2,0.9-2.7c0.6-0.8,1.4-1.1,2.3-1.1C711.9,231.7,712.2,231.8,712.5,232z M712.7,237.6
		c0.2-0.2,0.4-0.4,0.4-0.6v-3.1c0-0.6-0.2-1.1-0.5-1.3c-0.3-0.3-0.7-0.4-1-0.4c-0.6,0-1.1,0.3-1.4,0.8c-0.3,0.5-0.5,1.2-0.5,2
		c0,0.8,0.2,1.5,0.5,2.1s0.9,0.9,1.6,0.9C712.2,238,712.5,237.9,712.7,237.6z"/>
</g>
<g class="st8">
	<path class="st9" d="M514.4,250c0.5,0.3,0.7,0.7,0.7,1.2c0,0.3-0.1,0.5-0.3,0.7c-0.2,0.2-0.4,0.3-0.7,0.3c-0.2,0-0.4,0-0.5-0.1
		c-0.3-0.2-0.4-0.4-0.4-0.8c0,0,0-0.1,0-0.2c0-0.1,0-0.2,0-0.3c0-0.3-0.1-0.4-0.2-0.5c-0.1-0.1-0.3-0.1-0.4-0.1
		c-0.5,0-0.8,0.3-1,0.8c-0.2,0.5-0.3,1.1-0.3,1.8c0,0.9,0.2,1.7,0.6,2.4s0.9,1,1.5,1c0.4,0,0.7-0.1,1-0.3c0.2-0.1,0.4-0.3,0.6-0.6
		l0.3,0.3c-0.5,0.7-1.1,1.1-1.7,1.4c-0.3,0.1-0.7,0.2-1.1,0.2c-1,0-1.7-0.3-2.4-1c-0.6-0.7-0.9-1.5-0.9-2.5c0-1,0.3-1.9,1-2.7
		c0.6-0.7,1.5-1.1,2.6-1.1C513.4,249.5,513.9,249.7,514.4,250z"/>
	<path class="st9" d="M516.8,250.6c0.6-0.7,1.4-1,2.4-1c1,0,1.8,0.4,2.4,1.1c0.6,0.7,0.9,1.6,0.9,2.6c0,1-0.3,1.9-0.9,2.6
		c-0.6,0.7-1.4,1.1-2.4,1.1c-1,0-1.8-0.3-2.4-1.1c-0.6-0.7-1-1.6-1-2.6C515.9,252.2,516.2,251.3,516.8,250.6z M518.2,255.4
		c0.2,0.6,0.5,1,1,1c0.5,0,0.8-0.2,1-0.7s0.2-1.3,0.2-2.4c0-1.1-0.1-1.9-0.2-2.4c-0.2-0.5-0.5-0.8-0.9-0.8c-0.5,0-0.8,0.3-1,1
		c-0.1,0.4-0.2,1.2-0.2,2.2C518.1,254.3,518.1,255,518.2,255.4z"/>
	<path class="st9" d="M523.3,256.3c0.3,0,0.5-0.1,0.6-0.2c0.1-0.1,0.2-0.3,0.2-0.7V251c0-0.3-0.1-0.5-0.2-0.6s-0.3-0.2-0.6-0.2v-0.4
		h2.8v1.1c0.2-0.4,0.5-0.7,0.9-0.9c0.4-0.2,0.8-0.4,1.2-0.4c0.6,0,1.1,0.2,1.5,0.5c0.4,0.3,0.5,0.9,0.5,1.8v3.6
		c0,0.3,0.1,0.6,0.2,0.7c0.1,0.1,0.3,0.2,0.6,0.2v0.4h-3.5v-0.4c0.3-0.1,0.5-0.1,0.5-0.2s0.1-0.3,0.1-0.6v-3.6c0-0.3,0-0.6-0.1-0.8
		c-0.1-0.3-0.3-0.5-0.7-0.5c-0.3,0-0.5,0.1-0.7,0.3c-0.2,0.2-0.4,0.4-0.5,0.6v4c0,0.3,0,0.5,0.1,0.6s0.3,0.2,0.5,0.2v0.4h-3.6V256.3
		z"/>
	<path class="st9" d="M531.7,254.4h0.4c0.1,0.7,0.4,1.2,0.8,1.5c0.4,0.3,0.8,0.4,1.2,0.4c0.4,0,0.7-0.1,0.8-0.3
		c0.2-0.2,0.3-0.4,0.3-0.7c0-0.3-0.1-0.5-0.3-0.7c-0.1-0.1-0.3-0.2-0.5-0.3l-1.1-0.5c-0.6-0.3-1-0.6-1.3-0.9
		c-0.3-0.3-0.4-0.7-0.4-1.2c0-0.6,0.2-1.1,0.6-1.5c0.4-0.4,1-0.6,1.7-0.6c0.3,0,0.7,0.1,1,0.2c0.4,0.1,0.6,0.2,0.7,0.2
		c0.1,0,0.2,0,0.3-0.1c0.1-0.1,0.1-0.1,0.1-0.2h0.3v2.2h-0.4c-0.1-0.5-0.4-0.9-0.7-1.2c-0.3-0.3-0.7-0.5-1.1-0.5
		c-0.3,0-0.6,0.1-0.7,0.3s-0.2,0.4-0.2,0.6c0,0.2,0.1,0.4,0.2,0.5c0.1,0.2,0.4,0.4,0.8,0.6l0.8,0.4c0.5,0.2,0.9,0.5,1.1,0.7
		c0.4,0.4,0.6,0.9,0.6,1.4c0,0.6-0.2,1.1-0.6,1.6c-0.4,0.5-1,0.7-1.8,0.7c-0.2,0-0.4,0-0.6-0.1c-0.2,0-0.5-0.1-0.8-0.2l-0.3-0.1
		c-0.1,0-0.2-0.1-0.2-0.1c0,0-0.1,0-0.1,0c-0.1,0-0.2,0-0.2,0.1c-0.1,0.1-0.1,0.2-0.2,0.3h-0.4V254.4z"/>
	<path class="st9" d="M540.3,249.7v5.1c0,0.3,0,0.5,0.1,0.7c0.1,0.2,0.4,0.4,0.8,0.4c0.2,0,0.5-0.1,0.7-0.2c0.1-0.1,0.3-0.2,0.5-0.4
		V251c0-0.3-0.1-0.5-0.2-0.7c-0.1-0.1-0.4-0.2-0.8-0.2v-0.4h3v5.4c0,0.3,0.1,0.5,0.2,0.6c0.1,0.1,0.3,0.2,0.7,0.2v0.3
		c-0.9,0.1-1.5,0.2-1.8,0.2c-0.2,0-0.6,0.1-1.2,0.3v-1c-0.4,0.3-0.7,0.5-0.9,0.7c-0.4,0.2-0.8,0.3-1.3,0.3c-0.5,0-0.9-0.2-1.4-0.5
		s-0.6-0.9-0.6-1.6V251c0-0.3-0.1-0.5-0.2-0.6c-0.1-0.1-0.3-0.2-0.6-0.2v-0.4H540.3z"/>
	<path class="st9" d="M545.8,256.3c0.3-0.1,0.5-0.1,0.6-0.3c0.1-0.1,0.2-0.3,0.2-0.7v-7.6c0-0.3-0.1-0.5-0.2-0.6
		c-0.1-0.1-0.3-0.2-0.6-0.2v-0.4h2.8v8.9c0,0.3,0.1,0.5,0.2,0.7s0.3,0.2,0.6,0.3v0.4h-3.6V256.3z"/>
	<path class="st9" d="M550,250.4V250c0.1-0.1,0.3-0.3,0.5-0.4c0.3-0.2,0.5-0.5,0.7-0.7c0.5-0.5,0.9-1,1.2-1.6h0.4v2.5h1.4v0.7h-1.4
		v4.5c0,0.2,0,0.4,0.1,0.5c0.1,0.2,0.3,0.3,0.5,0.3c0.2,0,0.4-0.1,0.5-0.2c0.1-0.1,0.3-0.3,0.4-0.6l0.4,0.2c-0.2,0.4-0.4,0.7-0.6,1
		c-0.4,0.5-1,0.7-1.6,0.7c-0.4,0-0.7-0.1-0.9-0.2c-0.5-0.3-0.8-0.7-0.8-1.4v-4.9H550z"/>
	<path class="st9" d="M555,256.3c0.3,0,0.4-0.1,0.5-0.2c0.1-0.1,0.2-0.4,0.2-0.7V251c0-0.3-0.1-0.5-0.2-0.6
		c-0.1-0.1-0.3-0.2-0.6-0.2v-0.4h2.9v5.7c0,0.3,0,0.5,0.1,0.6s0.3,0.2,0.5,0.2v0.4H555V256.3z M555.9,246.6c0.2-0.2,0.5-0.3,0.8-0.3
		c0.3,0,0.6,0.1,0.8,0.3c0.2,0.2,0.3,0.5,0.3,0.8s-0.1,0.6-0.3,0.8c-0.2,0.2-0.5,0.3-0.8,0.3c-0.3,0-0.6-0.1-0.8-0.3
		c-0.2-0.2-0.3-0.5-0.3-0.8S555.7,246.8,555.9,246.6z"/>
	<path class="st9" d="M559.1,256.3c0.3,0,0.5-0.1,0.6-0.2c0.1-0.1,0.2-0.3,0.2-0.7V251c0-0.3-0.1-0.5-0.2-0.6
		c-0.1-0.1-0.3-0.2-0.6-0.2v-0.4h2.8v1.1c0.2-0.4,0.5-0.7,0.9-0.9c0.4-0.2,0.8-0.4,1.2-0.4c0.6,0,1.1,0.2,1.5,0.5s0.5,0.9,0.5,1.8
		v3.6c0,0.3,0.1,0.6,0.2,0.7s0.3,0.2,0.6,0.2v0.4h-3.5v-0.4c0.3-0.1,0.5-0.1,0.5-0.2s0.1-0.3,0.1-0.6v-3.6c0-0.3,0-0.6-0.1-0.8
		c-0.1-0.3-0.3-0.5-0.7-0.5c-0.3,0-0.5,0.1-0.7,0.3c-0.2,0.2-0.4,0.4-0.5,0.6v4c0,0.3,0,0.5,0.1,0.6s0.3,0.2,0.5,0.2v0.4h-3.6V256.3
		z"/>
	<path class="st9" d="M567.8,257.7c0.2-0.2,0.5-0.4,0.9-0.4v-0.1c-0.3-0.1-0.5-0.2-0.6-0.3c-0.2-0.2-0.4-0.5-0.4-0.8
		c0-0.4,0.2-0.8,0.6-1.1c0.4-0.3,0.7-0.5,1.1-0.6v-0.1c-0.5-0.2-0.9-0.5-1.2-0.9s-0.5-0.8-0.5-1.4c0-0.7,0.3-1.2,0.8-1.7
		s1.3-0.7,2.2-0.7c0.4,0,0.7,0,1,0.1c0.3,0.1,0.5,0.1,0.7,0.2h2v0.8h-1.2c0.2,0.2,0.3,0.4,0.5,0.7c0.1,0.3,0.2,0.5,0.2,0.8
		c0,0.9-0.4,1.6-1.3,1.9c-0.5,0.2-1.1,0.3-1.8,0.3c-0.2,0-0.2,0-0.3,0s-0.1,0-0.2,0c-0.1,0-0.3,0.1-0.5,0.2
		c-0.2,0.1-0.2,0.3-0.2,0.5c0,0.2,0,0.3,0.1,0.4c0.1,0.1,0.2,0.1,0.3,0.2c0.1,0,0.2,0,0.5,0c0.2,0,0.4,0,0.6,0l1,0
		c0.6,0,1,0.1,1.4,0.2c0.7,0.3,1.1,0.8,1.1,1.6c0,1-0.5,1.6-1.6,2c-0.6,0.2-1.3,0.3-2.1,0.3c-0.7,0-1.3-0.1-1.8-0.2
		c-0.8-0.2-1.3-0.6-1.3-1.2C567.6,258.2,567.7,257.9,567.8,257.7z M569.4,259c0.3,0.2,0.8,0.3,1.4,0.3c0.6,0,1,0,1.4-0.1
		c0.7-0.2,1-0.5,1-0.9c0-0.3-0.1-0.5-0.3-0.6c-0.2-0.1-0.5-0.2-1.1-0.2h-2.5c-0.2,0.1-0.3,0.2-0.3,0.3c-0.1,0.2-0.2,0.3-0.2,0.5
		C568.9,258.6,569,258.8,569.4,259z M569.9,253.3c0.1,0.4,0.4,0.7,0.8,0.7c0.4,0,0.6-0.2,0.8-0.5c0.1-0.3,0.2-0.8,0.2-1.4
		c0-0.7-0.1-1.2-0.2-1.5c-0.1-0.3-0.4-0.5-0.8-0.5c-0.4,0-0.7,0.2-0.8,0.5c-0.1,0.3-0.2,0.8-0.2,1.4
		C569.8,252.5,569.8,253,569.9,253.3z"/>
</g>
<g class="st8">
	<path class="st6" d="M579.3,254.3h0.2c0.1,0.6,0.3,1,0.5,1.3c0.3,0.5,0.8,0.8,1.5,0.8c0.4,0,0.7-0.1,0.9-0.3
		c0.2-0.2,0.3-0.5,0.3-0.8c0-0.2-0.1-0.4-0.2-0.6s-0.3-0.4-0.6-0.6l-0.8-0.5c-0.6-0.3-1-0.6-1.3-1s-0.4-0.7-0.4-1.2
		c0-0.5,0.2-1,0.6-1.3s0.9-0.5,1.5-0.5c0.3,0,0.5,0,0.9,0.1c0.3,0.1,0.5,0.1,0.5,0.1c0.1,0,0.2,0,0.2,0s0.1-0.1,0.1-0.1h0.2l0.1,2
		H583c-0.1-0.5-0.2-0.8-0.4-1.1c-0.3-0.5-0.7-0.7-1.3-0.7c-0.3,0-0.6,0.1-0.8,0.3s-0.3,0.5-0.3,0.7c0,0.4,0.3,0.8,1,1.2l1,0.5
		c1,0.6,1.6,1.2,1.6,2c0,0.6-0.2,1-0.6,1.4c-0.4,0.4-1,0.5-1.7,0.5c-0.3,0-0.6,0-1-0.1c-0.4-0.1-0.6-0.1-0.7-0.1
		c-0.1,0-0.1,0-0.2,0.1c0,0-0.1,0.1-0.1,0.2h-0.2V254.3z"/>
	<path class="st6" d="M589.6,250.5c0.5,0.5,0.8,1.2,0.8,2h-4.7c0,1.1,0.3,2,0.8,2.5c0.5,0.5,1,0.8,1.6,0.8c0.5,0,0.9-0.1,1.3-0.4
		s0.7-0.6,1-1.1l0.3,0.1c-0.2,0.6-0.6,1.2-1.1,1.7c-0.5,0.5-1.2,0.8-2,0.8c-0.9,0-1.6-0.3-2.1-1c-0.5-0.7-0.8-1.5-0.8-2.4
		c0-1,0.3-1.8,0.9-2.5s1.3-1.1,2.3-1.1C588.5,249.8,589.1,250,589.6,250.5z M586.1,251c-0.2,0.3-0.3,0.6-0.3,1h3.1
		c-0.1-0.5-0.1-0.9-0.3-1.1c-0.2-0.4-0.6-0.6-1.2-0.6C586.8,250.3,586.4,250.5,586.1,251z"/>
	<path class="st6" d="M591.1,256.4c0.4,0,0.7-0.1,0.9-0.2c0.1-0.1,0.2-0.4,0.2-0.8v-3.3c0-0.5,0-0.8-0.1-1c-0.1-0.2-0.3-0.3-0.5-0.3
		c0,0-0.1,0-0.2,0c-0.1,0-0.2,0-0.3,0v-0.2c0.3-0.1,0.6-0.2,0.9-0.3c0.3-0.1,0.5-0.2,0.6-0.2c0.2-0.1,0.5-0.2,0.8-0.3
		c0,0,0.1,0,0.1,0c0,0,0,0.1,0,0.2v1.2c0.3-0.4,0.6-0.8,0.9-1c0.3-0.2,0.6-0.4,0.9-0.4c0.2,0,0.5,0.1,0.6,0.2
		c0.2,0.1,0.2,0.3,0.2,0.6c0,0.2-0.1,0.4-0.2,0.5c-0.1,0.1-0.3,0.2-0.5,0.2c-0.2,0-0.4-0.1-0.6-0.3c-0.2-0.2-0.3-0.3-0.4-0.3
		c-0.2,0-0.4,0.1-0.6,0.4c-0.2,0.3-0.4,0.6-0.4,0.9v3.3c0,0.4,0.1,0.7,0.3,0.9c0.2,0.2,0.5,0.2,1,0.2v0.2h-3.6V256.4z"/>
	<path class="st6" d="M599.2,249.8v0.2c-0.3,0-0.4,0.1-0.5,0.1c-0.1,0-0.2,0.2-0.2,0.3c0,0.1,0,0.2,0,0.2c0,0.1,0.1,0.2,0.1,0.3
		l1.5,3.7l1.3-3.2c0.1-0.2,0.1-0.3,0.2-0.5c0.1-0.2,0.1-0.3,0.1-0.4c0-0.2-0.1-0.3-0.3-0.4c-0.1,0-0.3-0.1-0.4-0.1v-0.2h2.1v0.2
		c-0.2,0-0.4,0.1-0.5,0.2c-0.1,0.1-0.3,0.5-0.5,1l-2.1,5.3c0,0.1-0.1,0.2-0.1,0.2s-0.1,0.1-0.1,0.1c0,0-0.1,0-0.1-0.1
		c0-0.1-0.1-0.1-0.1-0.2l-2.2-5.4c-0.2-0.4-0.4-0.7-0.6-0.9c-0.1-0.1-0.3-0.1-0.5-0.2v-0.2H599.2z"/>
	<path class="st6" d="M603.8,256.4c0.5,0,0.9-0.1,1-0.3c0.1-0.1,0.2-0.5,0.2-1.1v-3.5c0-0.3,0-0.5-0.1-0.7c-0.1-0.2-0.2-0.3-0.5-0.3
		c-0.1,0-0.1,0-0.2,0c-0.1,0-0.2,0-0.4,0.1v-0.2l0.3-0.1c0.9-0.3,1.5-0.5,1.8-0.6c0.1-0.1,0.2-0.1,0.3-0.1c0,0,0,0.1,0,0.1v5.3
		c0,0.6,0.1,0.9,0.2,1c0.1,0.1,0.4,0.2,0.9,0.3v0.2h-3.6V256.4z M605,246.6c0.1-0.2,0.3-0.2,0.5-0.2c0.2,0,0.4,0.1,0.5,0.2
		c0.1,0.1,0.2,0.3,0.2,0.5c0,0.2-0.1,0.4-0.2,0.5c-0.1,0.1-0.3,0.2-0.5,0.2c-0.2,0-0.4-0.1-0.5-0.2c-0.1-0.1-0.2-0.3-0.2-0.5
		S604.8,246.8,605,246.6z"/>
	<path class="st6" d="M613,250.2c0.4,0.3,0.7,0.7,0.7,1c0,0.2-0.1,0.3-0.2,0.4s-0.3,0.2-0.5,0.2c-0.2,0-0.3-0.1-0.5-0.2
		c-0.1-0.1-0.2-0.3-0.3-0.5l-0.1-0.4c-0.1-0.3-0.2-0.4-0.3-0.5c-0.2-0.1-0.4-0.2-0.6-0.2c-0.6,0-1,0.2-1.4,0.7
		c-0.4,0.5-0.6,1.1-0.6,1.9c0,0.7,0.2,1.4,0.6,2c0.4,0.6,1,0.9,1.7,0.9c0.5,0,1-0.2,1.4-0.5c0.2-0.2,0.5-0.5,0.8-0.9l0.2,0.1
		c-0.3,0.6-0.6,1.1-0.9,1.4c-0.6,0.7-1.3,1-2.1,1c-0.8,0-1.4-0.3-2-0.9s-0.9-1.4-0.9-2.4c0-1,0.3-1.9,1-2.6s1.4-1.1,2.4-1.1
		C612,249.7,612.5,249.9,613,250.2z"/>
	<path class="st6" d="M619.6,250.5c0.5,0.5,0.8,1.2,0.8,2h-4.7c0,1.1,0.3,2,0.8,2.5c0.5,0.5,1,0.8,1.6,0.8c0.5,0,0.9-0.1,1.3-0.4
		s0.7-0.6,1-1.1l0.3,0.1c-0.2,0.6-0.6,1.2-1.1,1.7c-0.5,0.5-1.2,0.8-2,0.8c-0.9,0-1.6-0.3-2.1-1c-0.5-0.7-0.8-1.5-0.8-2.4
		c0-1,0.3-1.8,0.9-2.5s1.3-1.1,2.3-1.1C618.5,249.8,619.1,250,619.6,250.5z M616.1,251c-0.2,0.3-0.3,0.6-0.3,1h3.1
		c-0.1-0.5-0.1-0.9-0.3-1.1c-0.2-0.4-0.6-0.6-1.2-0.6C616.8,250.3,616.4,250.5,616.1,251z"/>
	<path class="st6" d="M621.8,254.3h0.2c0.1,0.6,0.3,1,0.5,1.3c0.3,0.5,0.8,0.8,1.5,0.8c0.4,0,0.7-0.1,0.9-0.3
		c0.2-0.2,0.3-0.5,0.3-0.8c0-0.2-0.1-0.4-0.2-0.6s-0.3-0.4-0.6-0.6l-0.8-0.5c-0.6-0.3-1-0.6-1.3-1c-0.3-0.3-0.4-0.7-0.4-1.2
		c0-0.5,0.2-1,0.6-1.3s0.9-0.5,1.5-0.5c0.3,0,0.5,0,0.9,0.1c0.3,0.1,0.5,0.1,0.5,0.1c0.1,0,0.2,0,0.2,0s0.1-0.1,0.1-0.1h0.2l0.1,2
		h-0.2c-0.1-0.5-0.2-0.8-0.4-1.1c-0.3-0.5-0.7-0.7-1.3-0.7c-0.3,0-0.6,0.1-0.8,0.3s-0.3,0.5-0.3,0.7c0,0.4,0.3,0.8,1,1.2l1,0.5
		c1,0.6,1.6,1.2,1.6,2c0,0.6-0.2,1-0.6,1.4s-1,0.5-1.7,0.5c-0.3,0-0.6,0-1-0.1c-0.4-0.1-0.6-0.1-0.7-0.1c-0.1,0-0.1,0-0.2,0.1
		c0,0-0.1,0.1-0.1,0.2h-0.2V254.3z"/>
</g>
</svg>
