<?xml version="1.0" encoding="utf-8"?>
<!-- Generator: Adobe Illustrator 26.2.1, SVG Export Plug-In . SVG Version: 6.00 Build 0)  -->
<svg version="1.1" id="Layer_1" xmlns="http://www.w3.org/2000/svg" xmlns:xlink="http://www.w3.org/1999/xlink" x="0px" y="0px"
	 viewBox="0 0 800 600" style="enable-background:new 0 0 800 600;" xml:space="preserve">
<style type="text/css">
	.st0{fill:#363636;}
	.st1{fill:none;stroke:#E6E6E6;stroke-width:3;}
	.st2{opacity:0.2;fill:none;stroke:#00B190;enable-background:new    ;}
	.st3{opacity:0.2;fill:#00B190;enable-background:new    ;}
	.st4{fill:#0071DF;}
	.st5{fill:none;stroke:#0071DF;}
	.st6{fill:none;stroke:#FFFFFF;stroke-width:1.5;}
	.st7{fill:#FFFFFF;}
	.st8{fill:none;}
	.st9{enable-background:new    ;}
</style>
<g id="Layer_2_00000176045262256395707300000014960732755527047062_">
	<rect id="backgorund" class="st0" width="800" height="600"/>
</g>
<g id="Layer_1_00000083085591465942829910000006955200858475458997_">
	<g>
		<path id="p_989" class="st1" d="M400,747.8c-246,0-445.5-199.5-445.5-445.5S154-143.1,400-143.1S845.5,56.3,845.5,302.3
			S646,747.8,400,747.8z"/>
		<path id="p_762.7951817288568" class="st2" d="M432.9,373.3c-9.3,0-16.9-7.6-16.9-16.9s7.6-16.9,16.9-16.9l0,0
			c9.3,0,16.9,7.6,16.9,16.9S442.3,373.3,432.9,373.3L432.9,373.3z"/>
		<path id="p_763.5346414017791" class="st3" d="M438.6,368.7c-2.3,0-4.1-1.8-4.1-4.1s1.8-4.1,4.1-4.1c2.3,0,4.1,1.8,4.1,4.1
			S440.9,368.7,438.6,368.7z"/>
		<path id="p_752.1049459131756" class="st3" d="M427.5,362.6c-4.6,0-8.3-3.7-8.3-8.3s3.7-8.3,8.3-8.3s8.3,3.7,8.3,8.3
			S432,362.6,427.5,362.6z"/>
		<path id="p_759.4560699584389" class="st3" d="M442.7,358.5c-2.3,0-4.1-1.9-4.1-4.1s1.9-4.1,4.1-4.1s4.1,1.9,4.1,4.1
			S445,358.5,442.7,358.5z"/>
		<path id="p_749.8836044427812" class="st3" d="M438.2,348.6c-1.3,0-2.4-1.1-2.4-2.4s1.1-2.4,2.4-2.4s2.4,1.1,2.4,2.4
			C440.5,347.5,439.5,348.6,438.2,348.6z"/>
		<path id="p_743.5569096752089" class="st3" d="M432.7,344.5c-0.5,0-0.9-0.4-0.9-0.9s0.4-0.9,0.9-0.9s0.9,0.4,0.9,0.9
			S433.2,344.5,432.7,344.5z"/>
		<path id="p_736.9234809258031" class="st4" d="M450.6,316.6c-7.8,0-14.1-6.3-14.1-14.1c0-7.8,6.3-14.1,14.1-14.1
			s14.1,6.3,14.1,14.1C464.7,310.3,458.4,316.6,450.6,316.6z"/>
		<path id="p_755.683367322478" class="st4" d="M480.3,315.2c-7,0-12.8-5.7-12.8-12.8c0-7,5.7-12.8,12.8-12.8s12.8,5.7,12.8,12.8
			C493,309.5,487.3,315.2,480.3,315.2z"/>
		<path id="p_758.2352222835394" class="st4" d="M466.6,332.7c-5.2,0-9.4-4.2-9.4-9.4c0-5.2,4.2-9.4,9.4-9.4s9.4,4.2,9.4,9.4
			S471.8,332.7,466.6,332.7z"/>
		<path id="p_730.6730012227229" class="st4" d="M466.6,291.2c-4.7,0-8.6-3.8-8.6-8.6s3.8-8.6,8.6-8.6l0,0c4.7,0,8.6,3.8,8.6,8.6
			C475.1,287.3,471.3,291.2,466.6,291.2L466.6,291.2z"/>
		<path id="p_715.7005903537216" class="st4" d="M449.6,285.5c-3.2,0-5.9-2.6-5.9-5.9s2.6-5.9,5.9-5.9l0,0c3.2,0,5.9,2.6,5.9,5.9
			C455.4,282.9,452.8,285.5,449.6,285.5L449.6,285.5z"/>
		<path id="p_745.1577656089249" class="st4" d="M448.7,330.9c-3.2,0-5.8-2.6-5.8-5.8s2.6-5.8,5.8-5.8l0,0c3.2,0,5.8,2.6,5.8,5.8
			S451.9,330.9,448.7,330.9L448.7,330.9z"/>
		<path id="p_739.1395770597233" class="st4" d="M483.4,287.1c-3,0-5.5-2.4-5.5-5.5s2.4-5.5,5.5-5.5s5.5,2.4,5.5,5.5
			S486.4,287.1,483.4,287.1z"/>
		<path id="p_766.1892971586858" class="st4" d="M483.7,327.6c-2.7,0-4.9-2.2-4.9-4.9c0-2.7,2.2-4.9,4.9-4.9c2.7,0,4.9,2.2,4.9,4.9
			C488.7,325.4,486.5,327.6,483.7,327.6z"/>
		<path id="p_710.5847391957514" class="st4" d="M437.4,290c-2.6,0-4.7-2.1-4.7-4.7s2.1-4.7,4.7-4.7s4.7,2.1,4.7,4.7
			S440,290,437.4,290z"/>
		<path id="p_732.6194042806351" class="st4" d="M437,323.7c-2.5,0-4.6-2.1-4.6-4.6s2.1-4.6,4.6-4.6s4.6,2.1,4.6,4.6
			C441.5,321.7,439.5,323.7,437,323.7z"/>
		<path id="p_748.6396045899162" class="st4" d="M493,291.8c-1.9,0-3.5-1.6-3.5-3.5s1.6-3.5,3.5-3.5s3.5,1.6,3.5,3.5
			C496.5,290.3,495,291.8,493,291.8z"/>
		<path id="p_767.2166923165111" class="st4" d="M493,319.9c-1.9,0-3.4-1.5-3.4-3.4s1.5-3.4,3.4-3.4l0,0c1.9,0,3.4,1.5,3.4,3.4
			S494.9,319.9,493,319.9L493,319.9z"/>
		<path id="p_713.5549907627715" class="st4" d="M457.7,274.2c-1.8,0-3.3-1.5-3.3-3.3s1.5-3.3,3.3-3.3s3.3,1.5,3.3,3.3
			C460.9,272.7,459.5,274.2,457.7,274.2z"/>
		<path id="p_727.0863550931502" class="st4" d="M476.8,275.5c-1.7,0-3.1-1.4-3.1-3.1s1.4-3.1,3.1-3.1l0,0c1.7,0,3.1,1.4,3.1,3.1
			C480,274.1,478.6,275.5,476.8,275.5L476.8,275.5z"/>
		<path id="p_754.0385260170602" class="st4" d="M455.9,337.1c-1.6,0-3-1.3-3-3c0-1.6,1.3-3,3-3l0,0c1.6,0,3,1.3,3,3
			C458.9,335.8,457.6,337.1,455.9,337.1L455.9,337.1z"/>
		<path id="p_767.9131501845512" class="st4" d="M478.9,335.1c-1.6,0-2.9-1.3-2.9-2.9s1.3-2.9,2.9-2.9s2.9,1.3,2.9,2.9
			C481.8,333.8,480.5,335.1,478.9,335.1z"/>
		<path id="p_712.1631428853328" class="st4" d="M432.4,297.3c-1.6,0-2.9-1.3-2.9-2.9s1.3-2.9,2.9-2.9l0,0c1.6,0,2.9,1.3,2.9,2.9
			S434,297.3,432.4,297.3L432.4,297.3z"/>
		<path id="p_722.393748701205" class="st4" d="M432.4,312.8c-1.5,0-2.8-1.2-2.8-2.8c0-1.5,1.2-2.8,2.8-2.8l0,0
			c1.5,0,2.8,1.2,2.8,2.8S433.9,312.8,432.4,312.8L432.4,312.8z"/>
		<path id="p_756.179113075554" class="st4" d="M497.4,298.8c-1.5,0-2.7-1.2-2.7-2.7s1.2-2.7,2.7-2.7l0,0c1.5,0,2.7,1.2,2.7,2.7
			C500.1,297.6,498.9,298.8,497.4,298.8L497.4,298.8z"/>
		<path id="p_764.4760547899426" class="st4" d="M497.3,311.4c-1.5,0-2.6-1.2-2.6-2.6s1.2-2.6,2.6-2.6l0,0c1.5,0,2.6,1.2,2.6,2.6
			C500,310.3,498.8,311.4,497.3,311.4L497.3,311.4z"/>
		<path id="p_717.0199188472118" class="st4" d="M465.9,271.2c-1.3,0-2.4-1.1-2.4-2.4s1.1-2.4,2.4-2.4l0,0c1.3,0,2.4,1.1,2.4,2.4
			S467.2,271.2,465.9,271.2L465.9,271.2z"/>
		<path id="p_719.0276746349833" class="st4" d="M472.6,267.5c-1.3,0-2.4-1.1-2.4-2.4s1.1-2.4,2.4-2.4s2.4,1.1,2.4,2.4
			S474,267.5,472.6,267.5z"/>
		<path id="p_715.8654360467084" class="st4" d="M430.7,304.7c-1.3,0-2.4-1.1-2.4-2.4s1.1-2.4,2.4-2.4s2.4,1.1,2.4,2.4
			S432,304.7,430.7,304.7z"/>
		<path id="p_760.2555339377926" class="st4" d="M463.1,339.3c-1.1,0-2.1-0.9-2.1-2.1c0-1.1,0.9-2.1,2.1-2.1l0,0
			c1.1,0,2.1,0.9,2.1,2.1C465.2,338.3,464.3,339.3,463.1,339.3L463.1,339.3z"/>
		<path id="p_765.7581606623559" class="st4" d="M472.4,338.3c-1.1,0-2-0.9-2-2s0.9-2,2-2l0,0c1.1,0,2,0.9,2,2
			S473.5,338.3,472.4,338.3L472.4,338.3z"/>
		<path id="p_762.4174745880222" class="st4" d="M501.2,304.5c-1.1,0-1.9-0.9-1.9-1.9c0-1.1,0.9-1.9,1.9-1.9c1.1,0,1.9,0.9,1.9,1.9
			S502.3,304.5,501.2,304.5z"/>
		<path id="p_704.1305606759555" class="st4" d="M439.6,278c-1,0-1.9-0.8-1.9-1.9s0.8-1.9,1.9-1.9s1.9,0.8,1.9,1.9
			S440.7,278,439.6,278z"/>
		<path id="p_771.5970351522174" class="st4" d="M493.1,326.4c-1,0-1.8-0.8-1.8-1.8s0.8-1.8,1.8-1.8s1.8,0.8,1.8,1.8
			S494.2,326.4,493.1,326.4z"/>
		<path id="p_742.3574477750865" class="st4" d="M493.3,282.1c-1,0-1.8-0.8-1.8-1.8s0.8-1.8,1.8-1.8s1.8,0.8,1.8,1.8
			C495.1,281.3,494.3,282.1,493.3,282.1z"/>
		<path id="p_737.8642137138779" class="st4" d="M438.8,329.8c-1,0-1.7-0.8-1.7-1.7s0.8-1.7,1.7-1.7s1.7,0.8,1.7,1.7
			S439.8,329.8,438.8,329.8z"/>
		<path id="p_706.424273679859" class="st4" d="M450.1,271c-0.9,0-1.7-0.8-1.7-1.7c0-0.9,0.8-1.7,1.7-1.7l0,0c0.9,0,1.7,0.8,1.7,1.7
			C451.8,270.3,451,271,450.1,271L450.1,271z"/>
		<path id="p_730.7567454167595" class="st4" d="M484.4,273.5c-0.9,0-1.6-0.7-1.6-1.6s0.7-1.6,1.6-1.6l0,0c0.9,0,1.6,0.7,1.6,1.6
			C486,272.7,485.3,273.5,484.4,273.5L484.4,273.5z"/>
		<path id="p_771.5237452064868" class="st4" d="M486.2,333.3c-0.9,0-1.6-0.7-1.6-1.6s0.7-1.6,1.6-1.6l0,0c0.9,0,1.6,0.7,1.6,1.6
			C487.7,332.6,487,333.3,486.2,333.3L486.2,333.3z"/>
		<path id="p_749.0852019557859" class="st4" d="M448.7,336.8c-0.9,0-1.6-0.7-1.6-1.6s0.7-1.6,1.6-1.6l0,0c0.9,0,1.6,0.7,1.6,1.6
			S449.6,336.8,448.7,336.8L448.7,336.8z"/>
		<path id="p_765.8396598130706" class="st4" d="M468.2,342.6c-0.8,0-1.5-0.7-1.5-1.5s0.7-1.5,1.5-1.5s1.5,0.7,1.5,1.5
			C469.7,342,469,342.6,468.2,342.6z"/>
		<path id="p_769.9252307904112" class="st4" d="M500.6,316.4c-0.8,0-1.5-0.7-1.5-1.5s0.7-1.5,1.5-1.5l0,0c0.8,0,1.5,0.7,1.5,1.5
			C502.1,315.8,501.4,316.4,500.6,316.4L500.6,316.4z"/>
		<path id="p_753.4014693255094" class="st4" d="M500.6,291.5c-0.8,0-1.4-0.6-1.4-1.4s0.6-1.4,1.4-1.4l0,0c0.8,0,1.4,0.6,1.4,1.4
			S501.4,291.5,500.6,291.5L500.6,291.5z"/>
		<path id="p_704.75445829711" class="st4" d="M428.9,289.7c-0.8,0-1.4-0.6-1.4-1.4s0.6-1.4,1.4-1.4l0,0c0.8,0,1.4,0.6,1.4,1.4
			S429.7,289.7,428.9,289.7L428.9,289.7z"/>
		<path id="p_723.0151087170335" class="st4" d="M428.7,317.4c-0.8,0-1.4-0.6-1.4-1.4s0.6-1.4,1.4-1.4l0,0c0.8,0,1.4,0.6,1.4,1.4
			C430.2,316.8,429.5,317.4,428.7,317.4L428.7,317.4z"/>
		<path id="p_710.1303398599226" class="st4" d="M461,265.7c-0.8,0-1.4-0.6-1.4-1.4s0.6-1.4,1.4-1.4s1.4,0.6,1.4,1.4
			S461.8,265.7,461,265.7z"/>
		<path id="p_773.76857738835" class="st4" d="M491.5,331.3c-0.7,0-1.2-0.5-1.2-1.2s0.5-1.2,1.2-1.2s1.2,0.5,1.2,1.2
			S492.1,331.3,491.5,331.3z"/>
		<path id="p_715.3292524033452" class="st4" d="M426.6,308c-0.6,0-1-0.5-1-1s0.5-1,1-1c0.6,0,1,0.5,1,1S427.1,308,426.6,308z"/>
		<path id="p_709.2074822810471" class="st4" d="M426.6,298.7c-0.5,0-1-0.4-1-1s0.4-1,1-1s1,0.4,1,1S427.2,298.7,426.6,298.7z"/>
		<path id="p_736.803629434874" class="st4" d="M490.4,276.6c-0.5,0-0.9-0.4-0.9-0.9s0.4-0.9,0.9-0.9s0.9,0.4,0.9,0.9
			S490.9,276.6,490.4,276.6z"/>
		<path id="p_703.5466466371211" class="st4" d="M443.6,273.1c-0.4,0-0.8-0.3-0.8-0.8c0-0.4,0.3-0.8,0.8-0.8l0,0
			c0.4,0,0.8,0.3,0.8,0.8C444.4,272.8,444,273.1,443.6,273.1L443.6,273.1z"/>
		<path id="p_701.6724385974278" class="st4" d="M444.9,269c-0.4,0-0.7-0.3-0.7-0.7s0.3-0.7,0.7-0.7s0.7,0.3,0.7,0.7
			S445.3,269,444.9,269z"/>
		<path id="p_741.8095462262706" class="st4" d="M442.4,332.2c-0.3,0-0.5-0.2-0.5-0.5s0.2-0.5,0.5-0.5l0,0c0.3,0,0.5,0.2,0.5,0.5
			S442.6,332.2,442.4,332.2L442.4,332.2z"/>
		<path id="p_765.7835627334273" class="st5" d="M465.2,345.6c-23.9,0-43.2-19.3-43.2-43.2c0-23.9,19.3-43.2,43.2-43.2l0,0
			c23.9,0,43.2,19.3,43.2,43.2S489.1,345.5,465.2,345.6L465.2,345.6z"/>
	</g>
</g>
<g>
	<g>
		<path class="st6" d="M464.1,249.7c0-16.6-14.2-30.2-32.1-31"/>
		<g>
			<polygon class="st7" points="437.5,213.1 438.4,214.3 432.6,218.9 437.6,224.3 436.5,225.3 430.4,218.7 			"/>
		</g>
	</g>
</g>
<rect x="273.8" y="197.2" class="st8" width="157.6" height="63"/>
<g class="st9">
	<path class="st7" d="M261.7,201.6v1h-1.3v2.6h-1.2v-2.6H255v-0.9l4.6-6.6h0.8v6.5H261.7z M259.2,201.6v-4.9l-3.5,4.9H259.2z"/>
	<path class="st7" d="M263.8,195.3h5.3v0.3l-3.3,9.9H265l3-8.9h-2.7c-0.6,0-0.9,0.1-1.2,0.2c-0.4,0.2-0.7,0.6-1,1l-0.2-0.1
		L263.8,195.3z"/>
	<path class="st7" d="M278.7,204.5c-0.3,0.3-0.6,0.6-1,0.7c-0.3,0.1-0.6,0.2-1,0.2c-0.7,0-1.4-0.3-1.9-0.9c-0.5-0.6-0.8-1.4-0.8-2.4
		s0.3-1.8,0.9-2.6c0.6-0.8,1.4-1.2,2.3-1.2c0.6,0,1.1,0.2,1.5,0.6v-1.2c0-0.8,0-1.2-0.1-1.4c0-0.2-0.1-0.3-0.2-0.4s-0.2-0.1-0.3-0.1
		c-0.1,0-0.3,0-0.5,0.1l-0.1-0.3l2-0.8h0.3v7.8c0,0.8,0,1.3,0.1,1.4c0,0.2,0.1,0.3,0.2,0.4c0.1,0.1,0.2,0.1,0.3,0.1
		c0.1,0,0.3,0,0.5-0.1l0.1,0.3l-2,0.8h-0.3V204.5z M278.7,204v-3.5c0-0.3-0.1-0.6-0.3-0.9c-0.1-0.3-0.3-0.5-0.6-0.6
		c-0.2-0.1-0.5-0.2-0.7-0.2c-0.4,0-0.8,0.2-1.1,0.6c-0.4,0.5-0.7,1.2-0.7,2.2c0,1,0.2,1.7,0.6,2.3c0.4,0.5,0.9,0.8,1.4,0.8
		C277.9,204.6,278.3,204.4,278.7,204z"/>
	<path class="st7" d="M283.8,198.3v5.4c0,0.4,0,0.7,0.1,0.8c0.1,0.1,0.2,0.2,0.3,0.3s0.3,0.1,0.7,0.1v0.3h-3.3V205
		c0.3,0,0.5,0,0.7-0.1c0.1-0.1,0.2-0.2,0.3-0.3c0.1-0.1,0.1-0.4,0.1-0.8v-2.6c0-0.7,0-1.2-0.1-1.4c0-0.2-0.1-0.3-0.2-0.3
		c-0.1-0.1-0.2-0.1-0.3-0.1c-0.1,0-0.3,0-0.5,0.1l-0.1-0.3l2-0.8H283.8z M283.2,194.8c0.2,0,0.4,0.1,0.5,0.2
		c0.1,0.1,0.2,0.3,0.2,0.5s-0.1,0.4-0.2,0.5c-0.1,0.1-0.3,0.2-0.5,0.2s-0.4-0.1-0.5-0.2s-0.2-0.3-0.2-0.5s0.1-0.4,0.2-0.5
		C282.8,194.9,283,194.8,283.2,194.8z"/>
	<path class="st7" d="M288.3,199.1v4.4c0,0.6,0.1,1,0.2,1.2c0.2,0.2,0.4,0.3,0.7,0.3h0.6v0.3h-4V205h0.3c0.2,0,0.4,0,0.5-0.1
		s0.3-0.2,0.3-0.4c0.1-0.2,0.1-0.5,0.1-1v-4.4h-1.3v-0.5h1.3v-0.4c0-0.7,0.1-1.2,0.3-1.7s0.5-0.8,1-1.1c0.4-0.3,0.9-0.4,1.5-0.4
		c0.5,0,1,0.2,1.4,0.5c0.3,0.2,0.4,0.5,0.4,0.7c0,0.1-0.1,0.3-0.2,0.4c-0.1,0.1-0.3,0.2-0.4,0.2c-0.1,0-0.2,0-0.4-0.1
		c-0.1-0.1-0.3-0.3-0.5-0.5c-0.2-0.3-0.3-0.4-0.5-0.5c-0.2-0.1-0.3-0.1-0.5-0.1c-0.2,0-0.4,0.1-0.6,0.2c-0.2,0.1-0.3,0.3-0.3,0.6
		c-0.1,0.3-0.1,0.9-0.1,1.9v0.5h1.7v0.5H288.3z"/>
	<path class="st7" d="M293,199.1v4.4c0,0.6,0.1,1,0.2,1.2c0.2,0.2,0.4,0.3,0.7,0.3h0.6v0.3h-4V205h0.3c0.2,0,0.4,0,0.5-0.1
		s0.3-0.2,0.3-0.4c0.1-0.2,0.1-0.5,0.1-1v-4.4h-1.3v-0.5h1.3v-0.4c0-0.7,0.1-1.2,0.3-1.7s0.5-0.8,1-1.1c0.4-0.3,0.9-0.4,1.5-0.4
		c0.5,0,1,0.2,1.4,0.5c0.3,0.2,0.4,0.5,0.4,0.7c0,0.1-0.1,0.3-0.2,0.4c-0.1,0.1-0.3,0.2-0.4,0.2c-0.1,0-0.2,0-0.4-0.1
		c-0.1-0.1-0.3-0.3-0.5-0.5c-0.2-0.3-0.3-0.4-0.5-0.5c-0.2-0.1-0.3-0.1-0.5-0.1c-0.2,0-0.4,0.1-0.6,0.2c-0.2,0.1-0.3,0.3-0.3,0.6
		c-0.1,0.3-0.1,0.9-0.1,1.9v0.5h1.7v0.5H293z"/>
	<path class="st7" d="M296.5,201.1c0,1,0.2,1.8,0.7,2.3s1.1,0.8,1.7,0.8c0.4,0,0.8-0.1,1.1-0.4c0.3-0.2,0.6-0.7,0.8-1.2l0.2,0.1
		c-0.1,0.7-0.4,1.3-0.9,1.8c-0.5,0.5-1.1,0.8-1.9,0.8c-0.8,0-1.5-0.3-2.1-0.9c-0.6-0.6-0.9-1.5-0.9-2.5c0-1.1,0.3-2,0.9-2.7
		c0.6-0.6,1.3-1,2.2-1c0.8,0,1.4,0.2,1.9,0.7c0.5,0.5,0.7,1.2,0.7,2H296.5z M296.5,200.6h3.1c0-0.4-0.1-0.7-0.2-0.9
		c-0.1-0.3-0.3-0.5-0.5-0.6c-0.2-0.2-0.5-0.2-0.8-0.2c-0.4,0-0.8,0.2-1.1,0.5C296.7,199.6,296.5,200.1,296.5,200.6z"/>
	<path class="st7" d="M304,198.3v1.5c0.6-1,1.1-1.5,1.7-1.5c0.3,0,0.5,0.1,0.7,0.2c0.2,0.2,0.3,0.4,0.3,0.6c0,0.2-0.1,0.4-0.2,0.5
		s-0.3,0.2-0.5,0.2c-0.2,0-0.4-0.1-0.6-0.3c-0.2-0.2-0.4-0.3-0.5-0.3c-0.1,0-0.2,0-0.3,0.1c-0.2,0.2-0.4,0.5-0.7,1v3.2
		c0,0.4,0,0.7,0.1,0.8c0.1,0.1,0.2,0.2,0.3,0.3s0.4,0.1,0.7,0.1v0.3h-3.4V205c0.3,0,0.6-0.1,0.8-0.2c0.1-0.1,0.2-0.2,0.3-0.4
		c0-0.1,0-0.3,0-0.7v-2.6c0-0.8,0-1.2,0-1.4c0-0.1-0.1-0.3-0.2-0.3c-0.1-0.1-0.2-0.1-0.3-0.1c-0.2,0-0.3,0-0.5,0.1l-0.1-0.3l2-0.8
		H304z"/>
	<path class="st7" d="M308.1,201.1c0,1,0.2,1.8,0.7,2.3s1.1,0.8,1.7,0.8c0.4,0,0.8-0.1,1.1-0.4c0.3-0.2,0.6-0.7,0.8-1.2l0.2,0.1
		c-0.1,0.7-0.4,1.3-0.9,1.8c-0.5,0.5-1.1,0.8-1.9,0.8c-0.8,0-1.5-0.3-2.1-0.9c-0.6-0.6-0.9-1.5-0.9-2.5c0-1.1,0.3-2,0.9-2.7
		c0.6-0.6,1.3-1,2.2-1c0.8,0,1.4,0.2,1.9,0.7c0.5,0.5,0.7,1.2,0.7,2H308.1z M308.1,200.6h3.1c0-0.4-0.1-0.7-0.2-0.9
		c-0.1-0.3-0.3-0.5-0.5-0.6c-0.2-0.2-0.5-0.2-0.8-0.2c-0.4,0-0.8,0.2-1.1,0.5C308.4,199.6,308.2,200.1,308.1,200.6z"/>
	<path class="st7" d="M315.6,199.7c0.8-0.9,1.5-1.4,2.2-1.4c0.4,0,0.7,0.1,0.9,0.3c0.3,0.2,0.5,0.5,0.6,0.9c0.1,0.3,0.2,0.7,0.2,1.3
		v2.9c0,0.4,0,0.7,0.1,0.9c0.1,0.1,0.1,0.2,0.3,0.3c0.1,0.1,0.3,0.1,0.7,0.1v0.3h-3.3V205h0.1c0.3,0,0.5,0,0.7-0.1
		c0.1-0.1,0.2-0.2,0.3-0.4c0-0.1,0-0.3,0-0.7V201c0-0.6-0.1-1.1-0.2-1.3c-0.2-0.3-0.4-0.4-0.8-0.4c-0.6,0-1.2,0.3-1.7,1v3.5
		c0,0.5,0,0.7,0.1,0.8c0.1,0.1,0.2,0.2,0.3,0.3c0.1,0.1,0.4,0.1,0.7,0.1v0.3h-3.3V205h0.1c0.3,0,0.6-0.1,0.7-0.3
		c0.1-0.2,0.2-0.5,0.2-1v-2.5c0-0.8,0-1.3-0.1-1.5c0-0.2-0.1-0.3-0.2-0.4c-0.1-0.1-0.2-0.1-0.3-0.1c-0.1,0-0.3,0-0.5,0.1l-0.1-0.3
		l2-0.8h0.3V199.7z"/>
	<path class="st7" d="M323.1,196.3v2.2h1.6v0.5h-1.6v4.4c0,0.4,0.1,0.7,0.2,0.9c0.1,0.2,0.3,0.2,0.5,0.2c0.2,0,0.3,0,0.5-0.1
		c0.2-0.1,0.3-0.2,0.4-0.4h0.3c-0.2,0.5-0.4,0.8-0.7,1.1c-0.3,0.2-0.6,0.4-1,0.4c-0.2,0-0.4-0.1-0.7-0.2c-0.2-0.1-0.4-0.3-0.5-0.5
		c-0.1-0.2-0.2-0.6-0.2-1.1V199h-1.1v-0.2c0.3-0.1,0.5-0.3,0.8-0.5c0.3-0.3,0.5-0.6,0.8-0.9c0.1-0.2,0.3-0.5,0.5-1H323.1z"/>
	<path class="st7" d="M334.8,202.7c-0.2,0.9-0.5,1.6-1.1,2c-0.5,0.5-1.1,0.7-1.8,0.7c-0.8,0-1.4-0.3-2-1s-0.8-1.5-0.8-2.6
		c0-1.1,0.3-1.9,0.9-2.6c0.6-0.7,1.4-1,2.3-1c0.7,0,1.2,0.2,1.6,0.5c0.4,0.3,0.6,0.7,0.6,1.1c0,0.2-0.1,0.3-0.2,0.5
		c-0.1,0.1-0.3,0.2-0.5,0.2c-0.3,0-0.5-0.1-0.7-0.3c-0.1-0.1-0.1-0.3-0.2-0.6s-0.1-0.5-0.3-0.7c-0.2-0.1-0.4-0.2-0.7-0.2
		c-0.5,0-0.9,0.2-1.2,0.5c-0.4,0.5-0.6,1.1-0.6,1.9c0,0.8,0.2,1.5,0.6,2.1c0.4,0.6,0.9,0.9,1.6,0.9c0.5,0,0.9-0.2,1.3-0.5
		c0.3-0.2,0.5-0.6,0.8-1.2L334.8,202.7z"/>
	<path class="st7" d="M339,198.3c1,0,1.8,0.4,2.4,1.2c0.5,0.7,0.8,1.4,0.8,2.3c0,0.6-0.1,1.2-0.4,1.8s-0.7,1.1-1.2,1.4
		c-0.5,0.3-1.1,0.5-1.7,0.5c-1,0-1.8-0.4-2.4-1.2c-0.5-0.7-0.8-1.4-0.8-2.3c0-0.6,0.2-1.2,0.5-1.8c0.3-0.6,0.7-1.1,1.2-1.3
		C337.9,198.5,338.5,198.3,339,198.3z M338.8,198.8c-0.3,0-0.5,0.1-0.8,0.2c-0.3,0.2-0.5,0.4-0.6,0.8s-0.2,0.9-0.2,1.5
		c0,1,0.2,1.8,0.6,2.5c0.4,0.7,0.9,1.1,1.5,1.1c0.5,0,0.9-0.2,1.2-0.6s0.5-1.1,0.5-2c0-1.2-0.3-2.1-0.8-2.8
		C339.8,199,339.3,198.8,338.8,198.8z"/>
	<path class="st7" d="M345.2,199.8c0.5-0.5,0.8-0.8,0.9-0.8c0.2-0.2,0.5-0.3,0.7-0.4s0.5-0.2,0.8-0.2c0.4,0,0.8,0.1,1.1,0.4
		c0.3,0.2,0.5,0.6,0.6,1.1c0.5-0.6,0.9-1,1.3-1.2c0.3-0.2,0.7-0.3,1.1-0.3c0.4,0,0.7,0.1,0.9,0.3c0.3,0.2,0.5,0.5,0.7,0.9
		c0.1,0.3,0.2,0.7,0.2,1.3v2.9c0,0.4,0,0.7,0.1,0.9c0,0.1,0.1,0.2,0.3,0.3c0.1,0.1,0.3,0.1,0.6,0.1v0.3h-3.3V205h0.1
		c0.3,0,0.5-0.1,0.7-0.2c0.1-0.1,0.2-0.2,0.2-0.4c0-0.1,0-0.3,0-0.7v-2.9c0-0.5-0.1-0.9-0.2-1.2c-0.2-0.3-0.5-0.5-0.9-0.5
		c-0.3,0-0.5,0.1-0.8,0.2c-0.3,0.1-0.6,0.4-0.9,0.7l0,0.1l0,0.3v3.2c0,0.5,0,0.7,0.1,0.9c0.1,0.1,0.1,0.2,0.3,0.3
		c0.1,0.1,0.4,0.1,0.7,0.1v0.3H347V205c0.4,0,0.6,0,0.8-0.1c0.1-0.1,0.2-0.2,0.3-0.4c0-0.1,0-0.3,0-0.7v-2.9c0-0.5-0.1-0.9-0.2-1.2
		c-0.2-0.3-0.5-0.5-0.9-0.5c-0.3,0-0.5,0.1-0.8,0.2c-0.4,0.2-0.7,0.5-0.9,0.7v3.6c0,0.4,0,0.7,0.1,0.9c0.1,0.1,0.2,0.2,0.3,0.3
		c0.1,0.1,0.4,0.1,0.7,0.1v0.3H343V205c0.3,0,0.5,0,0.6-0.1c0.1-0.1,0.2-0.2,0.3-0.3c0.1-0.1,0.1-0.4,0.1-0.8v-2.6
		c0-0.7,0-1.2-0.1-1.4c0-0.2-0.1-0.3-0.2-0.3c-0.1-0.1-0.2-0.1-0.3-0.1c-0.1,0-0.3,0-0.5,0.1l-0.1-0.3l2-0.8h0.3V199.8z"/>
	<path class="st7" d="M354.4,199.2l2.1-0.8h0.3v1.6c0.3-0.6,0.7-1,1-1.2c0.3-0.2,0.7-0.4,1.1-0.4c0.7,0,1.2,0.3,1.7,0.8
		c0.6,0.6,0.8,1.5,0.8,2.5c0,1.2-0.3,2.1-1,2.9c-0.5,0.6-1.2,0.9-2.1,0.9c-0.4,0-0.7-0.1-0.9-0.2c-0.2-0.1-0.4-0.2-0.7-0.4v2
		c0,0.5,0,0.8,0.1,0.9c0.1,0.1,0.2,0.2,0.3,0.3c0.1,0.1,0.4,0.1,0.8,0.1v0.3h-3.5v-0.3h0.2c0.3,0,0.5,0,0.7-0.2
		c0.1-0.1,0.2-0.1,0.2-0.3c0.1-0.1,0.1-0.4,0.1-0.9v-6.3c0-0.4,0-0.7-0.1-0.8s-0.1-0.2-0.2-0.3c-0.1-0.1-0.2-0.1-0.3-0.1
		c-0.1,0-0.3,0-0.4,0.1L354.4,199.2z M356.8,200.4v2.5c0,0.5,0,0.9,0.1,1.1c0.1,0.3,0.2,0.5,0.5,0.7s0.6,0.3,1,0.3
		c0.5,0,0.9-0.2,1.2-0.6c0.4-0.5,0.6-1.2,0.6-2.1c0-1-0.2-1.8-0.7-2.4c-0.3-0.4-0.7-0.6-1.1-0.6c-0.2,0-0.5,0.1-0.7,0.2
		C357.5,199.7,357.2,199.9,356.8,200.4z"/>
	<path class="st7" d="M366.2,204.3c-0.7,0.5-1.1,0.8-1.3,0.9c-0.3,0.1-0.5,0.2-0.8,0.2c-0.5,0-0.8-0.2-1.1-0.5
		c-0.3-0.3-0.5-0.7-0.5-1.3c0-0.3,0.1-0.6,0.2-0.8c0.2-0.3,0.5-0.6,1-0.9s1.3-0.6,2.5-1.1v-0.3c0-0.7-0.1-1.1-0.3-1.4
		c-0.2-0.2-0.5-0.4-0.9-0.4c-0.3,0-0.6,0.1-0.7,0.2c-0.2,0.2-0.3,0.4-0.3,0.6l0,0.4c0,0.2-0.1,0.4-0.2,0.5c-0.1,0.1-0.3,0.2-0.5,0.2
		c-0.2,0-0.3-0.1-0.4-0.2s-0.2-0.3-0.2-0.5c0-0.4,0.2-0.8,0.6-1.2s1-0.5,1.8-0.5c0.6,0,1.1,0.1,1.5,0.3c0.3,0.2,0.5,0.4,0.6,0.7
		c0.1,0.2,0.1,0.6,0.1,1.3v2.3c0,0.6,0,1,0,1.2c0,0.1,0.1,0.2,0.1,0.3s0.1,0.1,0.2,0.1c0.1,0,0.1,0,0.2-0.1c0.1-0.1,0.3-0.2,0.6-0.5
		v0.4c-0.5,0.7-1.1,1.1-1.6,1.1c-0.2,0-0.4-0.1-0.6-0.2S366.2,204.7,366.2,204.3z M366.2,203.8v-2.6c-0.7,0.3-1.2,0.5-1.4,0.6
		c-0.4,0.2-0.7,0.4-0.8,0.7s-0.2,0.5-0.2,0.8c0,0.4,0.1,0.6,0.3,0.9c0.2,0.2,0.5,0.3,0.7,0.3C365.1,204.5,365.6,204.3,366.2,203.8z"
		/>
	<path class="st7" d="M371,199.7c0.8-0.9,1.5-1.4,2.2-1.4c0.4,0,0.7,0.1,0.9,0.3c0.3,0.2,0.5,0.5,0.6,0.9c0.1,0.3,0.2,0.7,0.2,1.3
		v2.9c0,0.4,0,0.7,0.1,0.9c0.1,0.1,0.1,0.2,0.3,0.3c0.1,0.1,0.3,0.1,0.7,0.1v0.3h-3.3V205h0.1c0.3,0,0.5,0,0.7-0.1
		c0.1-0.1,0.2-0.2,0.3-0.4c0-0.1,0-0.3,0-0.7V201c0-0.6-0.1-1.1-0.2-1.3c-0.2-0.3-0.4-0.4-0.8-0.4c-0.6,0-1.2,0.3-1.7,1v3.5
		c0,0.5,0,0.7,0.1,0.8c0.1,0.1,0.2,0.2,0.3,0.3c0.1,0.1,0.4,0.1,0.7,0.1v0.3h-3.3V205h0.1c0.3,0,0.6-0.1,0.7-0.3
		c0.1-0.2,0.2-0.5,0.2-1v-2.5c0-0.8,0-1.3-0.1-1.5c0-0.2-0.1-0.3-0.2-0.4c-0.1-0.1-0.2-0.1-0.3-0.1c-0.1,0-0.3,0-0.5,0.1l-0.1-0.3
		l2-0.8h0.3V199.7z"/>
	<path class="st7" d="M378.9,198.3v5.4c0,0.4,0,0.7,0.1,0.8c0.1,0.1,0.2,0.2,0.3,0.3s0.3,0.1,0.7,0.1v0.3h-3.3V205
		c0.3,0,0.5,0,0.7-0.1c0.1-0.1,0.2-0.2,0.3-0.3c0.1-0.1,0.1-0.4,0.1-0.8v-2.6c0-0.7,0-1.2-0.1-1.4c0-0.2-0.1-0.3-0.2-0.3
		c-0.1-0.1-0.2-0.1-0.3-0.1c-0.1,0-0.3,0-0.5,0.1l-0.1-0.3l2-0.8H378.9z M378.3,194.8c0.2,0,0.4,0.1,0.5,0.2
		c0.1,0.1,0.2,0.3,0.2,0.5s-0.1,0.4-0.2,0.5c-0.1,0.1-0.3,0.2-0.5,0.2s-0.4-0.1-0.5-0.2s-0.2-0.3-0.2-0.5s0.1-0.4,0.2-0.5
		C377.9,194.9,378.1,194.8,378.3,194.8z"/>
	<path class="st7" d="M381.9,201.1c0,1,0.2,1.8,0.7,2.3s1.1,0.8,1.7,0.8c0.4,0,0.8-0.1,1.1-0.4c0.3-0.2,0.6-0.7,0.8-1.2l0.2,0.1
		c-0.1,0.7-0.4,1.3-0.9,1.8c-0.5,0.5-1.1,0.8-1.9,0.8c-0.8,0-1.5-0.3-2.1-0.9c-0.6-0.6-0.9-1.5-0.9-2.5c0-1.1,0.3-2,0.9-2.7
		c0.6-0.6,1.3-1,2.2-1c0.8,0,1.4,0.2,1.9,0.7c0.5,0.5,0.7,1.2,0.7,2H381.9z M381.9,200.6h3.1c0-0.4-0.1-0.7-0.2-0.9
		c-0.1-0.3-0.3-0.5-0.5-0.6c-0.2-0.2-0.5-0.2-0.8-0.2c-0.4,0-0.8,0.2-1.1,0.5C382.1,199.6,381.9,200.1,381.9,200.6z"/>
	<path class="st7" d="M391.7,198.3v2.3h-0.2c-0.2-0.7-0.4-1.2-0.7-1.5s-0.7-0.4-1.1-0.4c-0.3,0-0.6,0.1-0.8,0.3s-0.3,0.4-0.3,0.6
		c0,0.3,0.1,0.5,0.2,0.7c0.2,0.2,0.5,0.4,0.9,0.6l1.1,0.5c1,0.5,1.5,1.1,1.5,1.9c0,0.6-0.2,1.1-0.7,1.5c-0.5,0.4-1,0.6-1.5,0.6
		c-0.4,0-0.9-0.1-1.4-0.2c-0.2,0-0.3-0.1-0.4-0.1c-0.1,0-0.2,0.1-0.3,0.2h-0.2v-2.4h0.2c0.1,0.7,0.4,1.2,0.8,1.5s0.8,0.5,1.3,0.5
		c0.3,0,0.6-0.1,0.8-0.3c0.2-0.2,0.3-0.4,0.3-0.7c0-0.3-0.1-0.6-0.4-0.8c-0.2-0.2-0.7-0.5-1.4-0.9s-1.2-0.7-1.4-1
		c-0.2-0.3-0.3-0.6-0.3-1.1c0-0.6,0.2-1,0.6-1.4s0.9-0.6,1.5-0.6c0.3,0,0.6,0.1,1,0.2c0.2,0.1,0.4,0.1,0.5,0.1c0.1,0,0.1,0,0.2-0.1
		s0.1-0.1,0.2-0.2H391.7z"/>
	<path class="st7" d="M396.6,198.5h2.8v0.3c-0.3,0-0.4,0.1-0.5,0.1c-0.1,0.1-0.1,0.2-0.1,0.3c0,0.2,0,0.3,0.1,0.5l1.4,3.9l1.4-3.1
		l-0.4-1c-0.1-0.3-0.3-0.5-0.5-0.6c-0.1-0.1-0.3-0.1-0.6-0.1v-0.3h3.2v0.3c-0.4,0-0.6,0.1-0.7,0.2c-0.1,0.1-0.1,0.2-0.1,0.4
		c0,0.1,0,0.2,0.1,0.3l1.5,3.9l1.4-3.7c0.1-0.3,0.1-0.5,0.1-0.6c0-0.1,0-0.2-0.1-0.2c-0.1-0.1-0.3-0.1-0.6-0.1v-0.3h2.1v0.3
		c-0.4,0.1-0.7,0.4-0.9,0.9l-2.2,5.8h-0.3l-1.7-4.3l-2,4.3h-0.3l-2.2-5.6c-0.1-0.4-0.3-0.6-0.4-0.7c-0.1-0.1-0.4-0.2-0.6-0.3V198.5z
		"/>
	<path class="st7" d="M408.9,201.1c0,1,0.2,1.8,0.7,2.3s1.1,0.8,1.7,0.8c0.4,0,0.8-0.1,1.1-0.4c0.3-0.2,0.6-0.7,0.8-1.2l0.2,0.1
		c-0.1,0.7-0.4,1.3-0.9,1.8c-0.5,0.5-1.1,0.8-1.9,0.8c-0.8,0-1.5-0.3-2.1-0.9c-0.6-0.6-0.9-1.5-0.9-2.5c0-1.1,0.3-2,0.9-2.7
		c0.6-0.6,1.3-1,2.2-1c0.8,0,1.4,0.2,1.9,0.7c0.5,0.5,0.7,1.2,0.7,2H408.9z M408.9,200.6h3.1c0-0.4-0.1-0.7-0.2-0.9
		c-0.1-0.3-0.3-0.5-0.5-0.6c-0.2-0.2-0.5-0.2-0.8-0.2c-0.4,0-0.8,0.2-1.1,0.5C409.2,199.6,409,200.1,408.9,200.6z"/>
	<path class="st7" d="M416.4,198.3v1.5c0.6-1,1.1-1.5,1.7-1.5c0.3,0,0.5,0.1,0.7,0.2c0.2,0.2,0.3,0.4,0.3,0.6c0,0.2-0.1,0.4-0.2,0.5
		s-0.3,0.2-0.5,0.2c-0.2,0-0.4-0.1-0.6-0.3c-0.2-0.2-0.4-0.3-0.5-0.3c-0.1,0-0.2,0-0.3,0.1c-0.2,0.2-0.4,0.5-0.7,1v3.2
		c0,0.4,0,0.7,0.1,0.8c0.1,0.1,0.2,0.2,0.3,0.3s0.4,0.1,0.7,0.1v0.3h-3.4V205c0.3,0,0.6-0.1,0.8-0.2c0.1-0.1,0.2-0.2,0.3-0.4
		c0-0.1,0-0.3,0-0.7v-2.6c0-0.8,0-1.2,0-1.4c0-0.1-0.1-0.3-0.2-0.3s-0.2-0.1-0.3-0.1c-0.2,0-0.3,0-0.5,0.1l-0.1-0.3l2-0.8H416.4z"/>
	<path class="st7" d="M420.6,201.1c0,1,0.2,1.8,0.7,2.3s1.1,0.8,1.7,0.8c0.4,0,0.8-0.1,1.1-0.4c0.3-0.2,0.6-0.7,0.8-1.2l0.2,0.1
		c-0.1,0.7-0.4,1.3-0.9,1.8c-0.5,0.5-1.1,0.8-1.9,0.8c-0.8,0-1.5-0.3-2.1-0.9c-0.6-0.6-0.9-1.5-0.9-2.5c0-1.1,0.3-2,0.9-2.7
		c0.6-0.6,1.3-1,2.2-1c0.8,0,1.4,0.2,1.9,0.7c0.5,0.5,0.7,1.2,0.7,2H420.6z M420.6,200.6h3.1c0-0.4-0.1-0.7-0.2-0.9
		c-0.1-0.3-0.3-0.5-0.5-0.6c-0.2-0.2-0.5-0.2-0.8-0.2c-0.4,0-0.8,0.2-1.1,0.5C420.8,199.6,420.6,200.1,420.6,200.6z"/>
</g>
<g class="st9">
	<path class="st7" d="M257.5,213.9v5.4c0,0.4,0,0.7,0.1,0.8c0.1,0.1,0.2,0.2,0.3,0.3s0.3,0.1,0.7,0.1v0.3h-3.3v-0.3
		c0.3,0,0.5,0,0.7-0.1c0.1-0.1,0.2-0.2,0.3-0.3c0.1-0.1,0.1-0.4,0.1-0.8v-2.6c0-0.7,0-1.2-0.1-1.4c0-0.2-0.1-0.3-0.2-0.3
		c-0.1-0.1-0.2-0.1-0.3-0.1c-0.1,0-0.3,0-0.5,0.1l-0.1-0.3l2-0.8H257.5z M256.9,210.4c0.2,0,0.4,0.1,0.5,0.2
		c0.1,0.1,0.2,0.3,0.2,0.5s-0.1,0.4-0.2,0.5c-0.1,0.1-0.3,0.2-0.5,0.2s-0.4-0.1-0.5-0.2s-0.2-0.3-0.2-0.5s0.1-0.4,0.2-0.5
		C256.5,210.5,256.7,210.4,256.9,210.4z"/>
	<path class="st7" d="M264.1,220.1c-0.3,0.3-0.6,0.6-1,0.7c-0.3,0.1-0.6,0.2-1,0.2c-0.7,0-1.4-0.3-1.9-0.9c-0.5-0.6-0.8-1.4-0.8-2.4
		s0.3-1.8,0.9-2.6c0.6-0.8,1.4-1.2,2.3-1.2c0.6,0,1.1,0.2,1.5,0.6v-1.2c0-0.8,0-1.2-0.1-1.4c0-0.2-0.1-0.3-0.2-0.4s-0.2-0.1-0.3-0.1
		c-0.1,0-0.3,0-0.5,0.1l-0.1-0.3l2-0.8h0.3v7.8c0,0.8,0,1.3,0.1,1.4c0,0.2,0.1,0.3,0.2,0.4c0.1,0.1,0.2,0.1,0.3,0.1
		c0.1,0,0.3,0,0.5-0.1l0.1,0.3l-2,0.8h-0.3V220.1z M264.1,219.6v-3.5c0-0.3-0.1-0.6-0.3-0.9c-0.1-0.3-0.3-0.5-0.6-0.6
		c-0.2-0.1-0.5-0.2-0.7-0.2c-0.4,0-0.8,0.2-1.1,0.6c-0.4,0.5-0.7,1.2-0.7,2.2c0,1,0.2,1.7,0.6,2.3c0.4,0.5,0.9,0.8,1.4,0.8
		C263.3,220.2,263.7,220,264.1,219.6z"/>
	<path class="st7" d="M268,216.7c0,1,0.2,1.8,0.7,2.3s1.1,0.8,1.7,0.8c0.4,0,0.8-0.1,1.1-0.4c0.3-0.2,0.6-0.7,0.8-1.2l0.2,0.1
		c-0.1,0.7-0.4,1.3-0.9,1.8c-0.5,0.5-1.1,0.8-1.9,0.8c-0.8,0-1.5-0.3-2.1-0.9c-0.6-0.6-0.9-1.5-0.9-2.5c0-1.1,0.3-2,0.9-2.7
		c0.6-0.6,1.3-1,2.2-1c0.8,0,1.4,0.2,1.9,0.7c0.5,0.5,0.7,1.2,0.7,2H268z M268,216.2h3.1c0-0.4-0.1-0.7-0.2-0.9
		c-0.1-0.3-0.3-0.5-0.5-0.6c-0.2-0.2-0.5-0.2-0.8-0.2c-0.4,0-0.8,0.2-1.1,0.5C268.3,215.2,268.1,215.7,268,216.2z"/>
	<path class="st7" d="M275.5,215.3c0.8-0.9,1.5-1.4,2.2-1.4c0.4,0,0.7,0.1,0.9,0.3c0.3,0.2,0.5,0.5,0.6,0.9c0.1,0.3,0.2,0.7,0.2,1.3
		v2.9c0,0.4,0,0.7,0.1,0.9c0.1,0.1,0.1,0.2,0.3,0.3c0.1,0.1,0.3,0.1,0.7,0.1v0.3h-3.3v-0.3h0.1c0.3,0,0.5,0,0.7-0.1
		c0.1-0.1,0.2-0.2,0.3-0.4c0-0.1,0-0.3,0-0.7v-2.7c0-0.6-0.1-1.1-0.2-1.3c-0.2-0.3-0.4-0.4-0.8-0.4c-0.6,0-1.2,0.3-1.7,1v3.5
		c0,0.5,0,0.7,0.1,0.8c0.1,0.1,0.2,0.2,0.3,0.3c0.1,0.1,0.4,0.1,0.7,0.1v0.3h-3.3v-0.3h0.1c0.3,0,0.6-0.1,0.7-0.3
		c0.1-0.2,0.2-0.5,0.2-1v-2.5c0-0.8,0-1.3-0.1-1.5c0-0.2-0.1-0.3-0.2-0.4c-0.1-0.1-0.2-0.1-0.3-0.1c-0.1,0-0.3,0-0.5,0.1l-0.1-0.3
		l2-0.8h0.3V215.3z"/>
	<path class="st7" d="M283,211.9v2.2h1.6v0.5H283v4.4c0,0.4,0.1,0.7,0.2,0.9c0.1,0.2,0.3,0.2,0.5,0.2c0.2,0,0.3,0,0.5-0.1
		c0.2-0.1,0.3-0.2,0.4-0.4h0.3c-0.2,0.5-0.4,0.8-0.7,1.1c-0.3,0.2-0.6,0.4-1,0.4c-0.2,0-0.4-0.1-0.7-0.2c-0.2-0.1-0.4-0.3-0.5-0.5
		c-0.1-0.2-0.2-0.6-0.2-1.1v-4.5h-1.1v-0.2c0.3-0.1,0.5-0.3,0.8-0.5c0.3-0.3,0.5-0.6,0.8-0.9c0.1-0.2,0.3-0.5,0.5-1H283z"/>
	<path class="st7" d="M287.5,213.9v5.4c0,0.4,0,0.7,0.1,0.8c0.1,0.1,0.2,0.2,0.3,0.3s0.3,0.1,0.7,0.1v0.3h-3.3v-0.3
		c0.3,0,0.5,0,0.7-0.1c0.1-0.1,0.2-0.2,0.3-0.3c0.1-0.1,0.1-0.4,0.1-0.8v-2.6c0-0.7,0-1.2-0.1-1.4c0-0.2-0.1-0.3-0.2-0.3
		c-0.1-0.1-0.2-0.1-0.3-0.1c-0.1,0-0.3,0-0.5,0.1l-0.1-0.3l2-0.8H287.5z M286.9,210.4c0.2,0,0.4,0.1,0.5,0.2
		c0.1,0.1,0.2,0.3,0.2,0.5s-0.1,0.4-0.2,0.5c-0.1,0.1-0.3,0.2-0.5,0.2s-0.4-0.1-0.5-0.2s-0.2-0.3-0.2-0.5s0.1-0.4,0.2-0.5
		C286.5,210.5,286.7,210.4,286.9,210.4z"/>
	<path class="st7" d="M292,214.7v4.4c0,0.6,0.1,1,0.2,1.2c0.2,0.2,0.4,0.3,0.7,0.3h0.6v0.3h-4v-0.3h0.3c0.2,0,0.4,0,0.5-0.1
		s0.3-0.2,0.3-0.4c0.1-0.2,0.1-0.5,0.1-1v-4.4h-1.3v-0.5h1.3v-0.4c0-0.7,0.1-1.2,0.3-1.7s0.5-0.8,1-1.1c0.4-0.3,0.9-0.4,1.5-0.4
		c0.5,0,1,0.2,1.4,0.5c0.3,0.2,0.4,0.5,0.4,0.7c0,0.1-0.1,0.3-0.2,0.4c-0.1,0.1-0.3,0.2-0.4,0.2c-0.1,0-0.2,0-0.4-0.1
		c-0.1-0.1-0.3-0.3-0.5-0.5c-0.2-0.3-0.3-0.4-0.5-0.5c-0.2-0.1-0.3-0.1-0.5-0.1c-0.2,0-0.4,0.1-0.6,0.2c-0.2,0.1-0.3,0.3-0.3,0.6
		c-0.1,0.3-0.1,0.9-0.1,1.9v0.5h1.7v0.5H292z"/>
	<path class="st7" d="M296.7,213.9v5.4c0,0.4,0,0.7,0.1,0.8c0.1,0.1,0.2,0.2,0.3,0.3s0.3,0.1,0.7,0.1v0.3h-3.3v-0.3
		c0.3,0,0.5,0,0.7-0.1c0.1-0.1,0.2-0.2,0.3-0.3c0.1-0.1,0.1-0.4,0.1-0.8v-2.6c0-0.7,0-1.2-0.1-1.4c0-0.2-0.1-0.3-0.2-0.3
		c-0.1-0.1-0.2-0.1-0.3-0.1c-0.1,0-0.3,0-0.5,0.1l-0.1-0.3l2-0.8H296.7z M296.1,210.4c0.2,0,0.4,0.1,0.5,0.2
		c0.1,0.1,0.2,0.3,0.2,0.5s-0.1,0.4-0.2,0.5c-0.1,0.1-0.3,0.2-0.5,0.2s-0.4-0.1-0.5-0.2s-0.2-0.3-0.2-0.5s0.1-0.4,0.2-0.5
		C295.7,210.5,295.9,210.4,296.1,210.4z"/>
	<path class="st7" d="M299.7,216.7c0,1,0.2,1.8,0.7,2.3s1.1,0.8,1.7,0.8c0.4,0,0.8-0.1,1.1-0.4c0.3-0.2,0.6-0.7,0.8-1.2l0.2,0.1
		c-0.1,0.7-0.4,1.3-0.9,1.8c-0.5,0.5-1.1,0.8-1.9,0.8c-0.8,0-1.5-0.3-2.1-0.9c-0.6-0.6-0.9-1.5-0.9-2.5c0-1.1,0.3-2,0.9-2.7
		c0.6-0.6,1.3-1,2.2-1c0.8,0,1.4,0.2,1.9,0.7c0.5,0.5,0.7,1.2,0.7,2H299.7z M299.7,216.2h3.1c0-0.4-0.1-0.7-0.2-0.9
		c-0.1-0.3-0.3-0.5-0.5-0.6c-0.2-0.2-0.5-0.2-0.8-0.2c-0.4,0-0.8,0.2-1.1,0.5C299.9,215.2,299.7,215.7,299.7,216.2z"/>
	<path class="st7" d="M309.9,220.1c-0.3,0.3-0.6,0.6-1,0.7c-0.3,0.1-0.6,0.2-1,0.2c-0.7,0-1.4-0.3-1.9-0.9c-0.5-0.6-0.8-1.4-0.8-2.4
		s0.3-1.8,0.9-2.6c0.6-0.8,1.4-1.2,2.3-1.2c0.6,0,1.1,0.2,1.5,0.6v-1.2c0-0.8,0-1.2-0.1-1.4c0-0.2-0.1-0.3-0.2-0.4s-0.2-0.1-0.3-0.1
		c-0.1,0-0.3,0-0.5,0.1l-0.1-0.3l2-0.8h0.3v7.8c0,0.8,0,1.3,0.1,1.4c0,0.2,0.1,0.3,0.2,0.4c0.1,0.1,0.2,0.1,0.3,0.1
		c0.1,0,0.3,0,0.5-0.1l0.1,0.3l-2,0.8h-0.3V220.1z M309.9,219.6v-3.5c0-0.3-0.1-0.6-0.3-0.9c-0.1-0.3-0.3-0.5-0.6-0.6
		c-0.2-0.1-0.5-0.2-0.7-0.2c-0.4,0-0.8,0.2-1.1,0.6c-0.4,0.5-0.7,1.2-0.7,2.2c0,1,0.2,1.7,0.6,2.3c0.4,0.5,0.9,0.8,1.4,0.8
		C309.1,220.2,309.5,220,309.9,219.6z"/>
	<path class="st7" d="M318.8,213.9v5.4c0,0.4,0,0.7,0.1,0.8c0.1,0.1,0.2,0.2,0.3,0.3s0.3,0.1,0.7,0.1v0.3h-3.3v-0.3
		c0.3,0,0.5,0,0.7-0.1c0.1-0.1,0.2-0.2,0.3-0.3c0.1-0.1,0.1-0.4,0.1-0.8v-2.6c0-0.7,0-1.2-0.1-1.4c0-0.2-0.1-0.3-0.2-0.3
		c-0.1-0.1-0.2-0.1-0.3-0.1c-0.1,0-0.3,0-0.5,0.1l-0.1-0.3l2-0.8H318.8z M318.2,210.4c0.2,0,0.4,0.1,0.5,0.2
		c0.1,0.1,0.2,0.3,0.2,0.5s-0.1,0.4-0.2,0.5c-0.1,0.1-0.3,0.2-0.5,0.2s-0.4-0.1-0.5-0.2s-0.2-0.3-0.2-0.5s0.1-0.4,0.2-0.5
		C317.8,210.5,317.9,210.4,318.2,210.4z"/>
	<path class="st7" d="M322.6,215.3c0.8-0.9,1.5-1.4,2.2-1.4c0.4,0,0.7,0.1,0.9,0.3c0.3,0.2,0.5,0.5,0.6,0.9c0.1,0.3,0.2,0.7,0.2,1.3
		v2.9c0,0.4,0,0.7,0.1,0.9c0.1,0.1,0.1,0.2,0.3,0.3c0.1,0.1,0.3,0.1,0.7,0.1v0.3h-3.3v-0.3h0.1c0.3,0,0.5,0,0.7-0.1
		c0.1-0.1,0.2-0.2,0.3-0.4c0-0.1,0-0.3,0-0.7v-2.7c0-0.6-0.1-1.1-0.2-1.3c-0.2-0.3-0.4-0.4-0.8-0.4c-0.6,0-1.2,0.3-1.7,1v3.5
		c0,0.5,0,0.7,0.1,0.8c0.1,0.1,0.2,0.2,0.3,0.3c0.1,0.1,0.4,0.1,0.7,0.1v0.3h-3.3v-0.3h0.1c0.3,0,0.6-0.1,0.7-0.3
		c0.1-0.2,0.2-0.5,0.2-1v-2.5c0-0.8,0-1.3-0.1-1.5c0-0.2-0.1-0.3-0.2-0.4c-0.1-0.1-0.2-0.1-0.3-0.1c-0.1,0-0.3,0-0.5,0.1l-0.1-0.3
		l2-0.8h0.3V215.3z"/>
	<path class="st7" d="M333.8,211.9v2.2h1.6v0.5h-1.6v4.4c0,0.4,0.1,0.7,0.2,0.9c0.1,0.2,0.3,0.2,0.5,0.2c0.2,0,0.3,0,0.5-0.1
		c0.2-0.1,0.3-0.2,0.4-0.4h0.3c-0.2,0.5-0.4,0.8-0.7,1.1c-0.3,0.2-0.6,0.4-1,0.4c-0.2,0-0.4-0.1-0.7-0.2c-0.2-0.1-0.4-0.3-0.5-0.5
		c-0.1-0.2-0.2-0.6-0.2-1.1v-4.5h-1.1v-0.2c0.3-0.1,0.5-0.3,0.8-0.5c0.3-0.3,0.5-0.6,0.8-0.9c0.1-0.2,0.3-0.5,0.5-1H333.8z"/>
	<path class="st7" d="M338,210.4v4.9c0.5-0.6,1-1,1.3-1.1c0.3-0.2,0.6-0.3,1-0.3c0.4,0,0.7,0.1,1,0.3s0.5,0.5,0.6,1
		c0.1,0.3,0.1,0.9,0.1,1.7v2.4c0,0.4,0,0.7,0.1,0.9c0,0.1,0.1,0.2,0.2,0.3s0.3,0.1,0.6,0.1v0.3h-3.3v-0.3h0.2c0.3,0,0.5,0,0.7-0.1
		c0.1-0.1,0.2-0.2,0.3-0.4c0-0.1,0-0.3,0-0.7v-2.4c0-0.7,0-1.2-0.1-1.4s-0.2-0.4-0.4-0.5c-0.2-0.1-0.4-0.2-0.6-0.2
		c-0.2,0-0.5,0.1-0.7,0.2s-0.6,0.4-0.9,0.8v3.5c0,0.5,0,0.7,0.1,0.9c0.1,0.1,0.1,0.2,0.3,0.3c0.1,0.1,0.4,0.1,0.7,0.1v0.3h-3.3v-0.3
		c0.3,0,0.5,0,0.7-0.1c0.1,0,0.2-0.1,0.2-0.3c0.1-0.1,0.1-0.4,0.1-0.8v-6.1c0-0.8,0-1.2-0.1-1.4c0-0.2-0.1-0.3-0.2-0.4
		c-0.1-0.1-0.2-0.1-0.3-0.1c-0.1,0-0.3,0-0.5,0.1l-0.1-0.3l2-0.8H338z"/>
	<path class="st7" d="M344.7,216.7c0,1,0.2,1.8,0.7,2.3s1.1,0.8,1.7,0.8c0.4,0,0.8-0.1,1.1-0.4c0.3-0.2,0.6-0.7,0.8-1.2l0.2,0.1
		c-0.1,0.7-0.4,1.3-0.9,1.8c-0.5,0.5-1.1,0.8-1.9,0.8c-0.8,0-1.5-0.3-2.1-0.9c-0.6-0.6-0.9-1.5-0.9-2.5c0-1.1,0.3-2,0.9-2.7
		c0.6-0.6,1.3-1,2.2-1c0.8,0,1.4,0.2,1.9,0.7c0.5,0.5,0.7,1.2,0.7,2H344.7z M344.7,216.2h3.1c0-0.4-0.1-0.7-0.2-0.9
		c-0.1-0.3-0.3-0.5-0.5-0.6c-0.2-0.2-0.5-0.2-0.8-0.2c-0.4,0-0.8,0.2-1.1,0.5C344.9,215.2,344.7,215.7,344.7,216.2z"/>
	<path class="st7" d="M359.6,218.3c-0.2,0.9-0.5,1.6-1.1,2c-0.5,0.5-1.1,0.7-1.8,0.7c-0.8,0-1.4-0.3-2-1s-0.8-1.5-0.8-2.6
		c0-1.1,0.3-1.9,0.9-2.6c0.6-0.7,1.4-1,2.3-1c0.7,0,1.2,0.2,1.6,0.5c0.4,0.3,0.6,0.7,0.6,1.1c0,0.2-0.1,0.3-0.2,0.5
		c-0.1,0.1-0.3,0.2-0.5,0.2c-0.3,0-0.5-0.1-0.7-0.3c-0.1-0.1-0.1-0.3-0.2-0.6s-0.1-0.5-0.3-0.7c-0.2-0.1-0.4-0.2-0.7-0.2
		c-0.5,0-0.9,0.2-1.2,0.5c-0.4,0.5-0.6,1.1-0.6,1.9c0,0.8,0.2,1.5,0.6,2.1c0.4,0.6,0.9,0.9,1.6,0.9c0.5,0,0.9-0.2,1.3-0.5
		c0.3-0.2,0.5-0.6,0.8-1.2L359.6,218.3z"/>
	<path class="st7" d="M363.9,213.9c1,0,1.8,0.4,2.4,1.2c0.5,0.7,0.8,1.4,0.8,2.3c0,0.6-0.1,1.2-0.4,1.8s-0.7,1.1-1.2,1.4
		c-0.5,0.3-1.1,0.5-1.7,0.5c-1,0-1.8-0.4-2.4-1.2c-0.5-0.7-0.8-1.4-0.8-2.3c0-0.6,0.2-1.2,0.5-1.8c0.3-0.6,0.7-1.1,1.2-1.3
		C362.8,214.1,363.3,213.9,363.9,213.9z M363.7,214.4c-0.3,0-0.5,0.1-0.8,0.2c-0.3,0.2-0.5,0.4-0.6,0.8s-0.2,0.9-0.2,1.5
		c0,1,0.2,1.8,0.6,2.5c0.4,0.7,0.9,1.1,1.5,1.1c0.5,0,0.9-0.2,1.2-0.6s0.5-1.1,0.5-2c0-1.2-0.3-2.1-0.8-2.8
		C364.6,214.6,364.2,214.4,363.7,214.4z"/>
	<path class="st7" d="M370.1,215.3c0.8-0.9,1.5-1.4,2.2-1.4c0.4,0,0.7,0.1,0.9,0.3c0.3,0.2,0.5,0.5,0.6,0.9c0.1,0.3,0.2,0.7,0.2,1.3
		v2.9c0,0.4,0,0.7,0.1,0.9c0.1,0.1,0.1,0.2,0.3,0.3c0.1,0.1,0.3,0.1,0.7,0.1v0.3h-3.3v-0.3h0.1c0.3,0,0.5,0,0.7-0.1
		c0.1-0.1,0.2-0.2,0.3-0.4c0-0.1,0-0.3,0-0.7v-2.7c0-0.6-0.1-1.1-0.2-1.3c-0.2-0.3-0.4-0.4-0.8-0.4c-0.6,0-1.2,0.3-1.7,1v3.5
		c0,0.5,0,0.7,0.1,0.8c0.1,0.1,0.2,0.2,0.3,0.3c0.1,0.1,0.4,0.1,0.7,0.1v0.3h-3.3v-0.3h0.1c0.3,0,0.6-0.1,0.7-0.3
		c0.1-0.2,0.2-0.5,0.2-1v-2.5c0-0.8,0-1.3-0.1-1.5c0-0.2-0.1-0.3-0.2-0.4c-0.1-0.1-0.2-0.1-0.3-0.1c-0.1,0-0.3,0-0.5,0.1l-0.1-0.3
		l2-0.8h0.3V215.3z"/>
	<path class="st7" d="M379.9,213.9v2.3h-0.2c-0.2-0.7-0.4-1.2-0.7-1.5s-0.7-0.4-1.1-0.4c-0.3,0-0.6,0.1-0.8,0.3s-0.3,0.4-0.3,0.6
		c0,0.3,0.1,0.5,0.2,0.7c0.2,0.2,0.5,0.4,0.9,0.6l1.1,0.5c1,0.5,1.5,1.1,1.5,1.9c0,0.6-0.2,1.1-0.7,1.5c-0.5,0.4-1,0.6-1.5,0.6
		c-0.4,0-0.9-0.1-1.4-0.2c-0.2,0-0.3-0.1-0.4-0.1c-0.1,0-0.2,0.1-0.3,0.2h-0.2v-2.4h0.2c0.1,0.7,0.4,1.2,0.8,1.5s0.8,0.5,1.3,0.5
		c0.3,0,0.6-0.1,0.8-0.3c0.2-0.2,0.3-0.4,0.3-0.7c0-0.3-0.1-0.6-0.4-0.8c-0.2-0.2-0.7-0.5-1.4-0.9s-1.2-0.7-1.4-1
		c-0.2-0.3-0.3-0.6-0.3-1.1c0-0.6,0.2-1,0.6-1.4s0.9-0.6,1.5-0.6c0.3,0,0.6,0.1,1,0.2c0.2,0.1,0.4,0.1,0.5,0.1c0.1,0,0.1,0,0.2-0.1
		s0.1-0.1,0.2-0.2H379.9z"/>
	<path class="st7" d="M387.3,214.1v4.1c0,0.8,0,1.3,0.1,1.4c0,0.2,0.1,0.3,0.2,0.4c0.1,0.1,0.2,0.1,0.3,0.1c0.2,0,0.3,0,0.5-0.1
		l0.1,0.3l-2,0.8h-0.3v-1.4c-0.6,0.6-1,1-1.3,1.2c-0.3,0.2-0.6,0.2-1,0.2c-0.4,0-0.7-0.1-1-0.3c-0.3-0.2-0.5-0.5-0.6-0.8
		s-0.2-0.8-0.2-1.5v-3c0-0.3,0-0.5-0.1-0.7s-0.2-0.2-0.3-0.3c-0.1-0.1-0.4-0.1-0.7-0.1v-0.3h2.4v4.5c0,0.6,0.1,1,0.3,1.2
		s0.5,0.3,0.8,0.3c0.2,0,0.4-0.1,0.7-0.2c0.3-0.1,0.6-0.4,0.9-0.8v-3.8c0-0.4-0.1-0.6-0.2-0.8c-0.1-0.1-0.4-0.2-0.9-0.2v-0.3H387.3z
		"/>
	<path class="st7" d="M391.2,210.4v8.9c0,0.4,0,0.7,0.1,0.8c0.1,0.1,0.2,0.2,0.3,0.3c0.1,0.1,0.4,0.1,0.7,0.1v0.3H389v-0.3
		c0.3,0,0.5,0,0.6-0.1c0.1-0.1,0.2-0.2,0.3-0.3s0.1-0.4,0.1-0.8v-6.1c0-0.8,0-1.2-0.1-1.4c0-0.2-0.1-0.3-0.2-0.4s-0.2-0.1-0.3-0.1
		c-0.1,0-0.3,0-0.5,0.1l-0.1-0.3l2-0.8H391.2z"/>
	<path class="st7" d="M395.1,211.9v2.2h1.6v0.5h-1.6v4.4c0,0.4,0.1,0.7,0.2,0.9c0.1,0.2,0.3,0.2,0.5,0.2c0.2,0,0.3,0,0.5-0.1
		c0.2-0.1,0.3-0.2,0.4-0.4h0.3c-0.2,0.5-0.4,0.8-0.7,1.1c-0.3,0.2-0.6,0.4-1,0.4c-0.2,0-0.4-0.1-0.7-0.2c-0.2-0.1-0.4-0.3-0.5-0.5
		c-0.1-0.2-0.2-0.6-0.2-1.1v-4.5h-1.1v-0.2c0.3-0.1,0.5-0.3,0.8-0.5c0.3-0.3,0.5-0.6,0.8-0.9c0.1-0.2,0.3-0.5,0.5-1H395.1z"/>
	<path class="st7" d="M399.6,213.9v5.4c0,0.4,0,0.7,0.1,0.8c0.1,0.1,0.2,0.2,0.3,0.3s0.3,0.1,0.7,0.1v0.3h-3.3v-0.3
		c0.3,0,0.5,0,0.7-0.1c0.1-0.1,0.2-0.2,0.3-0.3c0.1-0.1,0.1-0.4,0.1-0.8v-2.6c0-0.7,0-1.2-0.1-1.4c0-0.2-0.1-0.3-0.2-0.3
		c-0.1-0.1-0.2-0.1-0.3-0.1c-0.1,0-0.3,0-0.5,0.1l-0.1-0.3l2-0.8H399.6z M399,210.4c0.2,0,0.4,0.1,0.5,0.2c0.1,0.1,0.2,0.3,0.2,0.5
		s-0.1,0.4-0.2,0.5c-0.1,0.1-0.3,0.2-0.5,0.2s-0.4-0.1-0.5-0.2s-0.2-0.3-0.2-0.5s0.1-0.4,0.2-0.5C398.6,210.5,398.8,210.4,399,210.4
		z"/>
	<path class="st7" d="M403.4,215.3c0.8-0.9,1.5-1.4,2.2-1.4c0.4,0,0.7,0.1,0.9,0.3c0.3,0.2,0.5,0.5,0.6,0.9c0.1,0.3,0.2,0.7,0.2,1.3
		v2.9c0,0.4,0,0.7,0.1,0.9c0.1,0.1,0.1,0.2,0.3,0.3c0.1,0.1,0.3,0.1,0.7,0.1v0.3h-3.3v-0.3h0.1c0.3,0,0.5,0,0.7-0.1
		c0.1-0.1,0.2-0.2,0.3-0.4c0-0.1,0-0.3,0-0.7v-2.7c0-0.6-0.1-1.1-0.2-1.3c-0.2-0.3-0.4-0.4-0.8-0.4c-0.6,0-1.2,0.3-1.7,1v3.5
		c0,0.5,0,0.7,0.1,0.8c0.1,0.1,0.2,0.2,0.3,0.3c0.1,0.1,0.4,0.1,0.7,0.1v0.3h-3.3v-0.3h0.1c0.3,0,0.6-0.1,0.7-0.3
		c0.1-0.2,0.2-0.5,0.2-1v-2.5c0-0.8,0-1.3-0.1-1.5c0-0.2-0.1-0.3-0.2-0.4c-0.1-0.1-0.2-0.1-0.3-0.1c-0.1,0-0.3,0-0.5,0.1l-0.1-0.3
		l2-0.8h0.3V215.3z"/>
	<path class="st7" d="M410.7,218.4c-0.4-0.2-0.7-0.5-0.9-0.8c-0.2-0.4-0.3-0.8-0.3-1.2c0-0.7,0.2-1.2,0.8-1.7
		c0.5-0.5,1.1-0.7,1.9-0.7c0.6,0,1.2,0.2,1.7,0.5h1.4c0.2,0,0.3,0,0.4,0c0,0,0.1,0,0.1,0.1c0,0,0,0.1,0,0.2c0,0.1,0,0.2,0,0.3
		c0,0,0,0-0.1,0.1c0,0-0.2,0-0.4,0h-0.9c0.3,0.4,0.4,0.8,0.4,1.3c0,0.6-0.2,1.2-0.7,1.6s-1.1,0.7-1.9,0.7c-0.3,0-0.7,0-1-0.1
		c-0.2,0.2-0.4,0.3-0.4,0.5c-0.1,0.1-0.1,0.3-0.1,0.4c0,0.1,0,0.2,0.1,0.2c0.1,0.1,0.2,0.1,0.5,0.2c0.1,0,0.5,0,1,0.1
		c1,0,1.7,0.1,2,0.1c0.5,0.1,0.8,0.2,1.1,0.5c0.3,0.3,0.4,0.6,0.4,1c0,0.6-0.3,1.1-0.8,1.6c-0.8,0.7-1.8,1.1-3,1.1
		c-0.9,0-1.7-0.2-2.4-0.6c-0.4-0.2-0.5-0.5-0.5-0.8c0-0.1,0-0.2,0.1-0.4c0.1-0.2,0.3-0.4,0.5-0.8c0,0,0.3-0.3,0.7-0.8
		c-0.3-0.2-0.4-0.3-0.5-0.4c-0.1-0.1-0.2-0.3-0.2-0.4c0-0.2,0.1-0.4,0.2-0.6C409.9,219.1,410.2,218.8,410.7,218.4z M410.7,220.8
		c-0.2,0.2-0.4,0.5-0.5,0.7s-0.2,0.4-0.2,0.6c0,0.2,0.1,0.4,0.4,0.6c0.5,0.3,1.2,0.5,2.1,0.5c0.9,0,1.5-0.2,1.9-0.5
		c0.4-0.3,0.6-0.6,0.6-1c0-0.3-0.1-0.4-0.4-0.5c-0.3-0.1-0.8-0.2-1.5-0.2C412.1,221,411.3,220.9,410.7,220.8z M412,214.3
		c-0.4,0-0.7,0.1-0.9,0.4s-0.4,0.7-0.4,1.3c0,0.8,0.2,1.4,0.5,1.8c0.3,0.3,0.6,0.5,1,0.5c0.4,0,0.7-0.1,0.9-0.4
		c0.2-0.3,0.4-0.7,0.4-1.3c0-0.8-0.2-1.4-0.5-1.8C412.7,214.4,412.4,214.3,412,214.3z"/>
</g>
<g class="st9">
	<path class="st7" d="M259.6,229.5v2.3h-0.2c-0.2-0.7-0.4-1.2-0.7-1.5s-0.7-0.4-1.1-0.4c-0.3,0-0.6,0.1-0.8,0.3s-0.3,0.4-0.3,0.6
		c0,0.3,0.1,0.5,0.2,0.7c0.2,0.2,0.5,0.4,0.9,0.6l1.1,0.5c1,0.5,1.5,1.1,1.5,1.9c0,0.6-0.2,1.1-0.7,1.5c-0.5,0.4-1,0.6-1.5,0.6
		c-0.4,0-0.9-0.1-1.4-0.2c-0.2,0-0.3-0.1-0.4-0.1c-0.1,0-0.2,0.1-0.3,0.2h-0.2v-2.4h0.2c0.1,0.7,0.4,1.2,0.8,1.5s0.8,0.5,1.3,0.5
		c0.3,0,0.6-0.1,0.8-0.3c0.2-0.2,0.3-0.4,0.3-0.7c0-0.3-0.1-0.6-0.4-0.8c-0.2-0.2-0.7-0.5-1.4-0.9s-1.2-0.7-1.4-1
		c-0.2-0.3-0.3-0.6-0.3-1.1c0-0.6,0.2-1,0.6-1.4s0.9-0.6,1.5-0.6c0.3,0,0.6,0.1,1,0.2c0.2,0.1,0.4,0.1,0.5,0.1c0.1,0,0.1,0,0.2-0.1
		s0.1-0.1,0.2-0.2H259.6z"/>
	<path class="st7" d="M260.6,230.4l2.1-0.8h0.3v1.6c0.3-0.6,0.7-1,1-1.2c0.3-0.2,0.7-0.4,1.1-0.4c0.7,0,1.2,0.3,1.7,0.8
		c0.6,0.6,0.8,1.5,0.8,2.5c0,1.2-0.3,2.1-1,2.9c-0.5,0.6-1.2,0.9-2.1,0.9c-0.4,0-0.7-0.1-0.9-0.2c-0.2-0.1-0.4-0.2-0.7-0.4v2
		c0,0.5,0,0.8,0.1,0.9c0.1,0.1,0.2,0.2,0.3,0.3c0.1,0.1,0.4,0.1,0.8,0.1v0.3h-3.5v-0.3h0.2c0.3,0,0.5,0,0.7-0.2
		c0.1-0.1,0.2-0.1,0.2-0.3c0.1-0.1,0.1-0.4,0.1-0.9v-6.3c0-0.4,0-0.7-0.1-0.8s-0.1-0.2-0.2-0.3c-0.1-0.1-0.2-0.1-0.3-0.1
		c-0.1,0-0.3,0-0.4,0.1L260.6,230.4z M262.9,231.6v2.5c0,0.5,0,0.9,0.1,1.1c0.1,0.3,0.2,0.5,0.5,0.7s0.6,0.3,1,0.3
		c0.5,0,0.9-0.2,1.2-0.6c0.4-0.5,0.6-1.2,0.6-2.1c0-1-0.2-1.8-0.7-2.4c-0.3-0.4-0.7-0.6-1.1-0.6c-0.2,0-0.5,0.1-0.7,0.2
		C263.6,230.9,263.3,231.1,262.9,231.6z"/>
	<path class="st7" d="M269.7,232.3c0,1,0.2,1.8,0.7,2.3s1.1,0.8,1.7,0.8c0.4,0,0.8-0.1,1.1-0.4c0.3-0.2,0.6-0.7,0.8-1.2l0.2,0.1
		c-0.1,0.7-0.4,1.3-0.9,1.8c-0.5,0.5-1.1,0.8-1.9,0.8c-0.8,0-1.5-0.3-2.1-0.9c-0.6-0.6-0.9-1.5-0.9-2.5c0-1.1,0.3-2,0.9-2.7
		c0.6-0.6,1.3-1,2.2-1c0.8,0,1.4,0.2,1.9,0.7c0.5,0.5,0.7,1.2,0.7,2H269.7z M269.7,231.8h3.1c0-0.4-0.1-0.7-0.2-0.9
		c-0.1-0.3-0.3-0.5-0.5-0.6c-0.2-0.2-0.5-0.2-0.8-0.2c-0.4,0-0.8,0.2-1.1,0.5C269.9,230.8,269.7,231.3,269.7,231.8z"/>
	<path class="st7" d="M277.2,230.9c0.8-0.9,1.5-1.4,2.2-1.4c0.4,0,0.7,0.1,0.9,0.3c0.3,0.2,0.5,0.5,0.6,0.9c0.1,0.3,0.2,0.7,0.2,1.3
		v2.9c0,0.4,0,0.7,0.1,0.9c0.1,0.1,0.1,0.2,0.3,0.3c0.1,0.1,0.3,0.1,0.7,0.1v0.3h-3.3v-0.3h0.1c0.3,0,0.5,0,0.7-0.1
		c0.1-0.1,0.2-0.2,0.3-0.4c0-0.1,0-0.3,0-0.7v-2.7c0-0.6-0.1-1.1-0.2-1.3c-0.2-0.3-0.4-0.4-0.8-0.4c-0.6,0-1.2,0.3-1.7,1v3.5
		c0,0.5,0,0.7,0.1,0.8c0.1,0.1,0.2,0.2,0.3,0.3c0.1,0.1,0.4,0.1,0.7,0.1v0.3h-3.3v-0.3h0.1c0.3,0,0.6-0.1,0.7-0.3
		c0.1-0.2,0.2-0.5,0.2-1v-2.5c0-0.8,0-1.3-0.1-1.5c0-0.2-0.1-0.3-0.2-0.4c-0.1-0.1-0.2-0.1-0.3-0.1c-0.1,0-0.3,0-0.5,0.1l-0.1-0.3
		l2-0.8h0.3V230.9z"/>
	<path class="st7" d="M287.5,235.7c-0.3,0.3-0.6,0.6-1,0.7c-0.3,0.1-0.6,0.2-1,0.2c-0.7,0-1.4-0.3-1.9-0.9c-0.5-0.6-0.8-1.4-0.8-2.4
		s0.3-1.8,0.9-2.6c0.6-0.8,1.4-1.2,2.3-1.2c0.6,0,1.1,0.2,1.5,0.6v-1.2c0-0.8,0-1.2-0.1-1.4c0-0.2-0.1-0.3-0.2-0.4s-0.2-0.1-0.3-0.1
		c-0.1,0-0.3,0-0.5,0.1l-0.1-0.3l2-0.8h0.3v7.8c0,0.8,0,1.3,0.1,1.4c0,0.2,0.1,0.3,0.2,0.4c0.1,0.1,0.2,0.1,0.3,0.1
		c0.1,0,0.3,0,0.5-0.1l0.1,0.3l-2,0.8h-0.3V235.7z M287.5,235.2v-3.5c0-0.3-0.1-0.6-0.3-0.9c-0.1-0.3-0.3-0.5-0.6-0.6
		c-0.2-0.1-0.5-0.2-0.7-0.2c-0.4,0-0.8,0.2-1.1,0.6c-0.4,0.5-0.7,1.2-0.7,2.2c0,1,0.2,1.7,0.6,2.3c0.4,0.5,0.9,0.8,1.4,0.8
		C286.6,235.8,287,235.6,287.5,235.2z"/>
	<path class="st7" d="M292.5,229.5v5.4c0,0.4,0,0.7,0.1,0.8c0.1,0.1,0.2,0.2,0.3,0.3s0.3,0.1,0.7,0.1v0.3h-3.3v-0.3
		c0.3,0,0.5,0,0.7-0.1c0.1-0.1,0.2-0.2,0.3-0.3c0.1-0.1,0.1-0.4,0.1-0.8v-2.6c0-0.7,0-1.2-0.1-1.4c0-0.2-0.1-0.3-0.2-0.3
		c-0.1-0.1-0.2-0.1-0.3-0.1c-0.1,0-0.3,0-0.5,0.1l-0.1-0.3l2-0.8H292.5z M291.9,226c0.2,0,0.4,0.1,0.5,0.2c0.1,0.1,0.2,0.3,0.2,0.5
		s-0.1,0.4-0.2,0.5c-0.1,0.1-0.3,0.2-0.5,0.2s-0.4-0.1-0.5-0.2s-0.2-0.3-0.2-0.5s0.1-0.4,0.2-0.5C291.5,226.1,291.7,226,291.9,226z"
		/>
	<path class="st7" d="M296.3,230.9c0.8-0.9,1.5-1.4,2.2-1.4c0.4,0,0.7,0.1,0.9,0.3c0.3,0.2,0.5,0.5,0.6,0.9c0.1,0.3,0.2,0.7,0.2,1.3
		v2.9c0,0.4,0,0.7,0.1,0.9c0.1,0.1,0.1,0.2,0.3,0.3c0.1,0.1,0.3,0.1,0.7,0.1v0.3H298v-0.3h0.1c0.3,0,0.5,0,0.7-0.1
		c0.1-0.1,0.2-0.2,0.3-0.4c0-0.1,0-0.3,0-0.7v-2.7c0-0.6-0.1-1.1-0.2-1.3c-0.2-0.3-0.4-0.4-0.8-0.4c-0.6,0-1.2,0.3-1.7,1v3.5
		c0,0.5,0,0.7,0.1,0.8c0.1,0.1,0.2,0.2,0.3,0.3c0.1,0.1,0.4,0.1,0.7,0.1v0.3h-3.3v-0.3h0.1c0.3,0,0.6-0.1,0.7-0.3
		c0.1-0.2,0.2-0.5,0.2-1v-2.5c0-0.8,0-1.3-0.1-1.5c0-0.2-0.1-0.3-0.2-0.4c-0.1-0.1-0.2-0.1-0.3-0.1c-0.1,0-0.3,0-0.5,0.1l-0.1-0.3
		l2-0.8h0.3V230.9z"/>
	<path class="st7" d="M303.7,234c-0.4-0.2-0.7-0.5-0.9-0.8c-0.2-0.4-0.3-0.8-0.3-1.2c0-0.7,0.2-1.2,0.8-1.7c0.5-0.5,1.1-0.7,1.9-0.7
		c0.6,0,1.2,0.2,1.7,0.5h1.4c0.2,0,0.3,0,0.4,0c0,0,0.1,0,0.1,0.1c0,0,0,0.1,0,0.2c0,0.1,0,0.2,0,0.3c0,0,0,0-0.1,0.1
		c0,0-0.2,0-0.4,0h-0.9c0.3,0.4,0.4,0.8,0.4,1.3c0,0.6-0.2,1.2-0.7,1.6s-1.1,0.7-1.9,0.7c-0.3,0-0.7,0-1-0.1
		c-0.2,0.2-0.4,0.3-0.4,0.5c-0.1,0.1-0.1,0.3-0.1,0.4c0,0.1,0,0.2,0.1,0.2c0.1,0.1,0.2,0.1,0.5,0.2c0.1,0,0.5,0,1,0.1
		c1,0,1.7,0.1,2,0.1c0.5,0.1,0.8,0.2,1.1,0.5c0.3,0.3,0.4,0.6,0.4,1c0,0.6-0.3,1.1-0.8,1.6c-0.8,0.7-1.8,1.1-3,1.1
		c-0.9,0-1.7-0.2-2.4-0.6c-0.4-0.2-0.5-0.5-0.5-0.8c0-0.1,0-0.2,0.1-0.4c0.1-0.2,0.3-0.4,0.5-0.8c0,0,0.3-0.3,0.7-0.8
		c-0.3-0.2-0.4-0.3-0.5-0.4c-0.1-0.1-0.2-0.3-0.2-0.4c0-0.2,0.1-0.4,0.2-0.6C302.9,234.7,303.2,234.4,303.7,234z M303.6,236.4
		c-0.2,0.2-0.4,0.5-0.5,0.7s-0.2,0.4-0.2,0.6c0,0.2,0.1,0.4,0.4,0.6c0.5,0.3,1.2,0.5,2.1,0.5c0.9,0,1.5-0.2,1.9-0.5
		c0.4-0.3,0.6-0.6,0.6-1c0-0.3-0.1-0.4-0.4-0.5c-0.3-0.1-0.8-0.2-1.5-0.2C305,236.6,304.2,236.5,303.6,236.4z M305,229.9
		c-0.4,0-0.7,0.1-0.9,0.4s-0.4,0.7-0.4,1.3c0,0.8,0.2,1.4,0.5,1.8c0.3,0.3,0.6,0.5,1,0.5c0.4,0,0.7-0.1,0.9-0.4
		c0.2-0.3,0.4-0.7,0.4-1.3c0-0.8-0.2-1.4-0.5-1.8C305.7,230,305.3,229.9,305,229.9z"/>
	<path class="st7" d="M318.8,233.9c-0.2,0.9-0.5,1.6-1.1,2c-0.5,0.5-1.1,0.7-1.8,0.7c-0.8,0-1.4-0.3-2-1s-0.8-1.5-0.8-2.6
		c0-1.1,0.3-1.9,0.9-2.6c0.6-0.7,1.4-1,2.3-1c0.7,0,1.2,0.2,1.6,0.5c0.4,0.3,0.6,0.7,0.6,1.1c0,0.2-0.1,0.3-0.2,0.5
		c-0.1,0.1-0.3,0.2-0.5,0.2c-0.3,0-0.5-0.1-0.7-0.3c-0.1-0.1-0.1-0.3-0.2-0.6s-0.1-0.5-0.3-0.7c-0.2-0.1-0.4-0.2-0.7-0.2
		c-0.5,0-0.9,0.2-1.2,0.5c-0.4,0.5-0.6,1.1-0.6,1.9c0,0.8,0.2,1.5,0.6,2.1c0.4,0.6,0.9,0.9,1.6,0.9c0.5,0,0.9-0.2,1.3-0.5
		c0.3-0.2,0.5-0.6,0.8-1.2L318.8,233.9z"/>
	<path class="st7" d="M323.6,235.5c-0.7,0.5-1.1,0.8-1.3,0.9c-0.3,0.1-0.5,0.2-0.8,0.2c-0.5,0-0.8-0.2-1.1-0.5
		c-0.3-0.3-0.5-0.7-0.5-1.3c0-0.3,0.1-0.6,0.2-0.8c0.2-0.3,0.5-0.6,1-0.9s1.3-0.6,2.5-1.1v-0.3c0-0.7-0.1-1.1-0.3-1.4
		c-0.2-0.2-0.5-0.4-0.9-0.4c-0.3,0-0.6,0.1-0.7,0.2c-0.2,0.2-0.3,0.4-0.3,0.6l0,0.4c0,0.2-0.1,0.4-0.2,0.5c-0.1,0.1-0.3,0.2-0.5,0.2
		c-0.2,0-0.3-0.1-0.4-0.2s-0.2-0.3-0.2-0.5c0-0.4,0.2-0.8,0.6-1.2s1-0.5,1.8-0.5c0.6,0,1.1,0.1,1.5,0.3c0.3,0.2,0.5,0.4,0.6,0.7
		c0.1,0.2,0.1,0.6,0.1,1.3v2.3c0,0.6,0,1,0,1.2c0,0.1,0.1,0.2,0.1,0.3s0.1,0.1,0.2,0.1c0.1,0,0.1,0,0.2-0.1c0.1-0.1,0.3-0.2,0.6-0.5
		v0.4c-0.5,0.7-1.1,1.1-1.6,1.1c-0.2,0-0.4-0.1-0.6-0.2S323.6,235.9,323.6,235.5z M323.6,235v-2.6c-0.7,0.3-1.2,0.5-1.4,0.6
		c-0.4,0.2-0.7,0.4-0.8,0.7s-0.2,0.5-0.2,0.8c0,0.4,0.1,0.6,0.3,0.9c0.2,0.2,0.5,0.3,0.7,0.3C322.5,235.7,323,235.5,323.6,235z"/>
	<path class="st7" d="M328.4,227.5v2.2h1.6v0.5h-1.6v4.4c0,0.4,0.1,0.7,0.2,0.9c0.1,0.2,0.3,0.2,0.5,0.2c0.2,0,0.3,0,0.5-0.1
		c0.2-0.1,0.3-0.2,0.4-0.4h0.3c-0.2,0.5-0.4,0.8-0.7,1.1c-0.3,0.2-0.6,0.4-1,0.4c-0.2,0-0.4-0.1-0.7-0.2c-0.2-0.1-0.4-0.3-0.5-0.5
		c-0.1-0.2-0.2-0.6-0.2-1.1v-4.5h-1.1V230c0.3-0.1,0.5-0.3,0.8-0.5c0.3-0.3,0.5-0.6,0.8-0.9c0.1-0.2,0.3-0.5,0.5-1H328.4z"/>
	<path class="st7" d="M331.7,232.3c0,1,0.2,1.8,0.7,2.3s1.1,0.8,1.7,0.8c0.4,0,0.8-0.1,1.1-0.4c0.3-0.2,0.6-0.7,0.8-1.2l0.2,0.1
		c-0.1,0.7-0.4,1.3-0.9,1.8c-0.5,0.5-1.1,0.8-1.9,0.8c-0.8,0-1.5-0.3-2.1-0.9c-0.6-0.6-0.9-1.5-0.9-2.5c0-1.1,0.3-2,0.9-2.7
		c0.6-0.6,1.3-1,2.2-1c0.8,0,1.4,0.2,1.9,0.7c0.5,0.5,0.7,1.2,0.7,2H331.7z M331.7,231.8h3.1c0-0.4-0.1-0.7-0.2-0.9
		c-0.1-0.3-0.3-0.5-0.5-0.6c-0.2-0.2-0.5-0.2-0.8-0.2c-0.4,0-0.8,0.2-1.1,0.5C332,230.8,331.8,231.3,331.7,231.8z"/>
	<path class="st7" d="M339.1,234c-0.4-0.2-0.7-0.5-0.9-0.8c-0.2-0.4-0.3-0.8-0.3-1.2c0-0.7,0.2-1.2,0.8-1.7c0.5-0.5,1.1-0.7,1.9-0.7
		c0.6,0,1.2,0.2,1.7,0.5h1.4c0.2,0,0.3,0,0.4,0c0,0,0.1,0,0.1,0.1c0,0,0,0.1,0,0.2c0,0.1,0,0.2,0,0.3c0,0,0,0-0.1,0.1
		c0,0-0.2,0-0.4,0h-0.9c0.3,0.4,0.4,0.8,0.4,1.3c0,0.6-0.2,1.2-0.7,1.6s-1.1,0.7-1.9,0.7c-0.3,0-0.7,0-1-0.1
		c-0.2,0.2-0.4,0.3-0.4,0.5c-0.1,0.1-0.1,0.3-0.1,0.4c0,0.1,0,0.2,0.1,0.2c0.1,0.1,0.2,0.1,0.5,0.2c0.1,0,0.5,0,1,0.1
		c1,0,1.7,0.1,2,0.1c0.5,0.1,0.8,0.2,1.1,0.5c0.3,0.3,0.4,0.6,0.4,1c0,0.6-0.3,1.1-0.8,1.6c-0.8,0.7-1.8,1.1-3,1.1
		c-0.9,0-1.7-0.2-2.4-0.6c-0.4-0.2-0.5-0.5-0.5-0.8c0-0.1,0-0.2,0.1-0.4c0.1-0.2,0.3-0.4,0.5-0.8c0,0,0.3-0.3,0.7-0.8
		c-0.3-0.2-0.4-0.3-0.5-0.4c-0.1-0.1-0.2-0.3-0.2-0.4c0-0.2,0.1-0.4,0.2-0.6C338.2,234.7,338.6,234.4,339.1,234z M339,236.4
		c-0.2,0.2-0.4,0.5-0.5,0.7s-0.2,0.4-0.2,0.6c0,0.2,0.1,0.4,0.4,0.6c0.5,0.3,1.2,0.5,2.1,0.5c0.9,0,1.5-0.2,1.9-0.5
		c0.4-0.3,0.6-0.6,0.6-1c0-0.3-0.1-0.4-0.4-0.5c-0.3-0.1-0.8-0.2-1.5-0.2C340.4,236.6,339.6,236.5,339,236.4z M340.3,229.9
		c-0.4,0-0.7,0.1-0.9,0.4s-0.4,0.7-0.4,1.3c0,0.8,0.2,1.4,0.5,1.8c0.3,0.3,0.6,0.5,1,0.5c0.4,0,0.7-0.1,0.9-0.4
		c0.2-0.3,0.4-0.7,0.4-1.3c0-0.8-0.2-1.4-0.5-1.8C341.1,230,340.7,229.9,340.3,229.9z"/>
	<path class="st7" d="M348.1,229.5c1,0,1.8,0.4,2.4,1.2c0.5,0.7,0.8,1.4,0.8,2.3c0,0.6-0.1,1.2-0.4,1.8s-0.7,1.1-1.2,1.4
		c-0.5,0.3-1.1,0.5-1.7,0.5c-1,0-1.8-0.4-2.4-1.2c-0.5-0.7-0.8-1.4-0.8-2.3c0-0.6,0.2-1.2,0.5-1.8c0.3-0.6,0.7-1.1,1.2-1.3
		C347,229.7,347.5,229.5,348.1,229.5z M347.8,230c-0.3,0-0.5,0.1-0.8,0.2c-0.3,0.2-0.5,0.4-0.6,0.8s-0.2,0.9-0.2,1.5
		c0,1,0.2,1.8,0.6,2.5c0.4,0.7,0.9,1.1,1.5,1.1c0.5,0,0.9-0.2,1.2-0.6s0.5-1.1,0.5-2c0-1.2-0.3-2.1-0.8-2.8
		C348.8,230.2,348.4,230,347.8,230z"/>
	<path class="st7" d="M354.2,229.5v1.5c0.6-1,1.1-1.5,1.7-1.5c0.3,0,0.5,0.1,0.7,0.2c0.2,0.2,0.3,0.4,0.3,0.6c0,0.2-0.1,0.4-0.2,0.5
		s-0.3,0.2-0.5,0.2c-0.2,0-0.4-0.1-0.6-0.3c-0.2-0.2-0.4-0.3-0.5-0.3c-0.1,0-0.2,0-0.3,0.1c-0.2,0.2-0.4,0.5-0.7,1v3.2
		c0,0.4,0,0.7,0.1,0.8c0.1,0.1,0.2,0.2,0.3,0.3s0.4,0.1,0.7,0.1v0.3H352v-0.3c0.3,0,0.6-0.1,0.8-0.2c0.1-0.1,0.2-0.2,0.3-0.4
		c0-0.1,0-0.3,0-0.7v-2.6c0-0.8,0-1.2,0-1.4c0-0.1-0.1-0.3-0.2-0.3c-0.1-0.1-0.2-0.1-0.3-0.1c-0.2,0-0.3,0-0.5,0.1l-0.1-0.3l2-0.8
		H354.2z"/>
	<path class="st7" d="M356.9,229.7h3.1v0.3h-0.2c-0.2,0-0.4,0-0.5,0.1c-0.1,0.1-0.2,0.2-0.2,0.4c0,0.2,0.1,0.5,0.2,0.8l1.6,3.4
		l1.5-3.7c0.1-0.2,0.1-0.4,0.1-0.6c0-0.1,0-0.2-0.1-0.2c0-0.1-0.1-0.1-0.2-0.1c-0.1,0-0.2,0-0.4,0v-0.3h2.2v0.3
		c-0.2,0-0.3,0.1-0.4,0.1s-0.2,0.2-0.3,0.3c0,0.1-0.1,0.3-0.2,0.6l-2.7,6.7c-0.3,0.6-0.6,1.1-1,1.5c-0.4,0.3-0.8,0.5-1.2,0.5
		c-0.3,0-0.5-0.1-0.7-0.2s-0.3-0.4-0.3-0.6c0-0.2,0.1-0.4,0.2-0.5c0.1-0.1,0.3-0.2,0.6-0.2c0.2,0,0.4,0.1,0.7,0.2
		c0.2,0.1,0.3,0.1,0.4,0.1c0.1,0,0.3-0.1,0.5-0.2s0.3-0.4,0.5-0.9l0.5-1.2l-2.4-5.1c-0.1-0.2-0.2-0.3-0.4-0.6
		c-0.1-0.2-0.2-0.3-0.3-0.3c-0.1-0.1-0.3-0.1-0.5-0.2V229.7z"/>
</g>
</svg>
