<?xml version="1.0" encoding="utf-8"?>
<!-- Generator: Adobe Illustrator 26.2.1, SVG Export Plug-In . SVG Version: 6.00 Build 0)  -->
<svg version="1.1" id="Layer_1" xmlns="http://www.w3.org/2000/svg" xmlns:xlink="http://www.w3.org/1999/xlink" x="0px" y="0px"
	 viewBox="0 0 800 600" style="enable-background:new 0 0 800 600;" xml:space="preserve">
<style type="text/css">
	.st0{fill:#363636;}
	.st1{fill:#EA3F05;}
	.st2{fill:none;stroke:#E6E6E6;stroke-width:3;}
	.st3{fill:none;stroke:#00B190;}
	.st4{fill:#00B190;}
	.st5{fill:#0071DF;}
	.st6{fill:none;stroke:#0071DF;}
	.st7{fill:none;stroke:#EA3F05;}
	.st8{enable-background:new    ;}
	.st9{fill:#FFFFFF;}
	.st10{fill:none;stroke:#FFFFFF;stroke-miterlimit:10;}
</style>
<g id="Layer_2_00000008843439384769940880000002224194998207054524_">
	<g id="Layer_2_00000080188617945151028970000001596932952332621999_">
		<g id="Layer_2_00000029762480262777009960000010639018597749282470_">
			
				<rect id="backgorund_00000067931014337164981590000007550842361317689000_" x="-1" y="-1" class="st0" width="800" height="600"/>
		</g>
	</g>
</g>
<g id="Layer_3">
	<path id="p_689.9466261923606" class="st1" d="M218.3,479c-97.5,0-176.6-79.1-176.6-176.6s79-176.6,176.6-176.7c0,0,0,0,0.1,0
		c97.5,0,176.6,79.1,176.6,176.6C395,399.9,315.9,479,218.3,479C218.4,479,218.4,479,218.3,479z"/>
	<path id="p_704.8488990439379" class="st1" d="M405.4,310.5c-4.5,0-8.1-3.6-8.1-8.1s3.6-8.1,8.1-8.1s8.1,3.6,8.1,8.1
		C413.5,306.8,409.9,310.5,405.4,310.5z"/>
	<path id="p_707.3997194758008" class="st1" d="M400.3,318.8c-1.9,0-3.5-1.6-3.5-3.5s1.6-3.5,3.5-3.5l0,0c1.9,0,3.5,1.6,3.5,3.5
		C403.8,317.2,402.2,318.8,400.3,318.8L400.3,318.8z"/>
	<path id="p_686.5570471010649" class="st1" d="M400.1,293c-1.8,0-3.3-1.5-3.3-3.3s1.5-3.3,3.3-3.3s3.3,1.5,3.3,3.3
		S401.9,293,400.1,293z"/>
</g>
<g id="Layer_1_00000161612941070009897000000010663315246810183604_">
	<g>
		<path id="p_989" class="st2" d="M400,669.9c-203,0-367.5-164.5-367.5-367.5S197-65.2,400-65.2S767.5,99.4,767.5,302.3
			S603,669.9,400,669.9z"/>
		<path id="p_762.7951817288568" class="st3" d="M427.2,360.9c-7.7,0-14-6.2-14-14s6.2-14,14-14l0,0c7.7,0,14,6.2,14,14
			S434.9,360.9,427.2,360.9L427.2,360.9z"/>
		<path id="p_763.5346414017791" class="st4" d="M431.9,357.1c-1.9,0-3.4-1.5-3.4-3.4s1.5-3.4,3.4-3.4s3.4,1.5,3.4,3.4
			S433.7,357.1,431.9,357.1z"/>
		<path id="p_752.1049459131756" class="st4" d="M422.7,352.1c-3.8,0-6.8-3.1-6.8-6.8c0-3.8,3.1-6.8,6.8-6.8s6.8,3.1,6.8,6.8
			S426.4,352.1,422.7,352.1z"/>
		<path id="p_759.4560699584389" class="st4" d="M435.2,348.7c-1.9,0-3.4-1.5-3.4-3.4s1.5-3.4,3.4-3.4s3.4,1.5,3.4,3.4
			S437.1,348.7,435.2,348.7z"/>
		<path id="p_749.8836044427812" class="st4" d="M431.5,340.5c-1.1,0-2-0.9-2-2s0.9-2,2-2s2,0.9,2,2
			C433.4,339.6,432.6,340.5,431.5,340.5z"/>
		<path id="p_743.5569096752089" class="st4" d="M427,337.1c-0.4,0-0.7-0.3-0.7-0.7c0-0.4,0.3-0.7,0.7-0.7c0.4,0,0.7,0.3,0.7,0.7
			C427.7,336.8,427.4,337.1,427,337.1z"/>
		<path id="p_736.9234809258031" class="st5" d="M441.7,314.1c-6.4,0-11.7-5.2-11.7-11.7c0-6.4,5.2-11.7,11.7-11.7
			s11.7,5.2,11.7,11.7C453.4,308.9,448.2,314.1,441.7,314.1z"/>
		<path id="p_755.683367322478" class="st5" d="M466.2,313c-5.8,0-10.5-4.7-10.5-10.5s4.7-10.5,10.5-10.5s10.5,4.7,10.5,10.5
			S472,313,466.2,313z"/>
		<path id="p_758.2352222835394" class="st5" d="M454.9,327.4c-4.3,0-7.8-3.5-7.8-7.8s3.5-7.8,7.8-7.8s7.8,3.5,7.8,7.8
			S459.2,327.4,454.9,327.4z"/>
		<path id="p_730.6730012227229" class="st5" d="M454.9,293.1c-3.9,0-7.1-3.2-7.1-7.1s3.2-7.1,7.1-7.1l0,0c3.9,0,7.1,3.2,7.1,7.1
			S458.8,293.1,454.9,293.1L454.9,293.1z"/>
		<path id="p_715.7005903537216" class="st5" d="M440.9,288.5c-2.7,0-4.8-2.2-4.8-4.8c0-2.7,2.2-4.8,4.8-4.8l0,0
			c2.7,0,4.8,2.2,4.8,4.8S443.6,288.5,440.9,288.5L440.9,288.5z"/>
		<path id="p_745.1577656089249" class="st5" d="M440.2,325.9c-2.6,0-4.8-2.1-4.8-4.8c0-2.6,2.1-4.8,4.8-4.8l0,0
			c2.6,0,4.8,2.1,4.8,4.8S442.8,325.9,440.2,325.9L440.2,325.9z"/>
		<path id="p_739.1395770597233" class="st5" d="M468.8,289.8c-2.5,0-4.5-2-4.5-4.5s2-4.5,4.5-4.5s4.5,2,4.5,4.5
			S471.3,289.8,468.8,289.8z"/>
		<path id="p_766.1892971586858" class="st5" d="M469.1,323.2c-2.3,0-4.1-1.8-4.1-4.1c0-2.3,1.8-4.1,4.1-4.1s4.1,1.8,4.1,4.1
			C473.2,321.4,471.3,323.2,469.1,323.2z"/>
		<path id="p_710.5847391957514" class="st5" d="M430.8,292.2c-2.2,0-3.9-1.7-3.9-3.9s1.7-3.9,3.9-3.9s3.9,1.7,3.9,3.9
			S433,292.2,430.8,292.2z"/>
		<path id="p_732.6194042806351" class="st5" d="M430.5,320c-2.1,0-3.8-1.7-3.8-3.8c0-2.1,1.7-3.8,3.8-3.8s3.8,1.7,3.8,3.8
			S432.6,320,430.5,320z"/>
		<path id="p_748.6396045899162" class="st5" d="M476.8,293.7c-1.6,0-2.9-1.3-2.9-2.9s1.3-2.9,2.9-2.9s2.9,1.3,2.9,2.9
			S478.3,293.7,476.8,293.7z"/>
		<path id="p_767.2166923165111" class="st5" d="M476.7,316.8c-1.5,0-2.8-1.3-2.8-2.8s1.3-2.8,2.8-2.8l0,0c1.5,0,2.8,1.3,2.8,2.8
			C479.5,315.6,478.3,316.8,476.7,316.8L476.7,316.8z"/>
		<path id="p_713.5549907627715" class="st5" d="M447.6,279.1c-1.5,0-2.7-1.2-2.7-2.7s1.2-2.7,2.7-2.7s2.7,1.2,2.7,2.7
			S449.1,279.1,447.6,279.1z"/>
		<path id="p_727.0863550931502" class="st5" d="M463.4,280.2c-1.4,0-2.6-1.2-2.6-2.6s1.2-2.6,2.6-2.6l0,0c1.4,0,2.6,1.2,2.6,2.6
			S464.8,280.2,463.4,280.2L463.4,280.2z"/>
		<path id="p_754.0385260170602" class="st5" d="M446.1,331c-1.3,0-2.4-1.1-2.4-2.4s1.1-2.4,2.4-2.4l0,0c1.3,0,2.4,1.1,2.4,2.4
			C448.6,329.9,447.5,331,446.1,331L446.1,331z"/>
		<path id="p_767.9131501845512" class="st5" d="M465.1,329.4c-1.3,0-2.4-1.1-2.4-2.4s1.1-2.4,2.4-2.4s2.4,1.1,2.4,2.4
			S466.4,329.4,465.1,329.4z"/>
		<path id="p_712.1631428853328" class="st5" d="M426.8,298.2c-1.3,0-2.4-1.1-2.4-2.4s1.1-2.4,2.4-2.4l0,0c1.3,0,2.4,1.1,2.4,2.4
			C429.1,297.1,428.1,298.2,426.8,298.2L426.8,298.2z"/>
		<path id="p_722.393748701205" class="st5" d="M426.7,311c-1.3,0-2.3-1-2.3-2.3s1-2.3,2.3-2.3l0,0c1.3,0,2.3,1,2.3,2.3
			S428,311,426.7,311L426.7,311z"/>
		<path id="p_756.179113075554" class="st5" d="M480.4,299.5c-1.2,0-2.2-1-2.2-2.2s1-2.2,2.2-2.2l0,0c1.2,0,2.2,1,2.2,2.2
			S481.6,299.5,480.4,299.5L480.4,299.5z"/>
		<path id="p_764.4760547899426" class="st5" d="M480.3,309.8c-1.2,0-2.2-1-2.2-2.2s1-2.2,2.2-2.2l0,0c1.2,0,2.2,1,2.2,2.2
			C482.5,308.9,481.5,309.8,480.3,309.8L480.3,309.8z"/>
		<path id="p_717.0199188472118" class="st5" d="M454.4,276.7c-1.1,0-2-0.9-2-2s0.9-2,2-2l0,0c1.1,0,2,0.9,2,2
			S455.5,276.7,454.4,276.7L454.4,276.7z"/>
		<path id="p_719.0276746349833" class="st5" d="M459.9,273.6c-1.1,0-2-0.9-2-2s0.9-2,2-2s2,0.9,2,2S461,273.6,459.9,273.6z"/>
		<path id="p_715.8654360467084" class="st5" d="M425.3,304.3c-1.1,0-2-0.9-2-2s0.9-2,2-2s2,0.9,2,2S426.4,304.3,425.3,304.3z"/>
		<path id="p_760.2555339377926" class="st5" d="M452.1,332.8c-0.9,0-1.7-0.8-1.7-1.7c0-0.9,0.8-1.7,1.7-1.7l0,0
			c0.9,0,1.7,0.8,1.7,1.7C453.8,332,453,332.8,452.1,332.8L452.1,332.8z"/>
		<path id="p_765.7581606623559" class="st5" d="M459.7,332c-0.9,0-1.7-0.7-1.7-1.7c0-0.9,0.7-1.7,1.7-1.7l0,0
			c0.9,0,1.7,0.7,1.7,1.7C461.4,331.3,460.6,332,459.7,332L459.7,332z"/>
		<path id="p_762.4174745880222" class="st5" d="M483.5,304.1c-0.9,0-1.6-0.7-1.6-1.6s0.7-1.6,1.6-1.6s1.6,0.7,1.6,1.6
			S484.4,304.1,483.5,304.1z"/>
		<path id="p_704.1305606759555" class="st5" d="M432.7,282.3c-0.9,0-1.6-0.7-1.6-1.6s0.7-1.6,1.6-1.6s1.6,0.7,1.6,1.6
			S433.6,282.3,432.7,282.3z"/>
		<path id="p_771.5970351522174" class="st5" d="M476.8,322.2c-0.8,0-1.5-0.7-1.5-1.5s0.7-1.5,1.5-1.5s1.5,0.7,1.5,1.5
			S477.7,322.2,476.8,322.2z"/>
		<path id="p_742.3574477750865" class="st5" d="M477,285.6c-0.8,0-1.4-0.6-1.4-1.4s0.6-1.4,1.4-1.4s1.4,0.6,1.4,1.4
			S477.8,285.6,477,285.6z"/>
		<path id="p_737.8642137138779" class="st5" d="M432,325c-0.8,0-1.4-0.6-1.4-1.4s0.6-1.4,1.4-1.4s1.4,0.6,1.4,1.4
			S432.8,325,432,325z"/>
		<path id="p_706.424273679859" class="st5" d="M441.3,276.5c-0.8,0-1.4-0.6-1.4-1.4s0.6-1.4,1.4-1.4l0,0c0.8,0,1.4,0.6,1.4,1.4
			C442.7,275.9,442.1,276.5,441.3,276.5L441.3,276.5z"/>
		<path id="p_730.7567454167595" class="st5" d="M469.6,278.5c-0.7,0-1.3-0.6-1.3-1.3s0.6-1.3,1.3-1.3l0,0c0.7,0,1.3,0.6,1.3,1.3
			C471,277.9,470.4,278.5,469.6,278.5L469.6,278.5z"/>
		<path id="p_771.5237452064868" class="st5" d="M471.1,327.9c-0.7,0-1.3-0.6-1.3-1.3c0-0.7,0.6-1.3,1.3-1.3l0,0
			c0.7,0,1.3,0.6,1.3,1.3S471.8,327.9,471.1,327.9L471.1,327.9z"/>
		<path id="p_749.0852019557859" class="st5" d="M440.2,330.8c-0.7,0-1.3-0.6-1.3-1.3c0-0.7,0.6-1.3,1.3-1.3l0,0
			c0.7,0,1.3,0.6,1.3,1.3S440.9,330.8,440.2,330.8L440.2,330.8z"/>
		<path id="p_765.8396598130706" class="st5" d="M456.3,335.6c-0.7,0-1.3-0.6-1.3-1.3c0-0.7,0.6-1.3,1.3-1.3c0.7,0,1.3,0.6,1.3,1.3
			C457.5,335,457,335.6,456.3,335.6z"/>
		<path id="p_769.9252307904112" class="st5" d="M483,314c-0.7,0-1.2-0.6-1.2-1.2c0-0.7,0.6-1.2,1.2-1.2l0,0c0.7,0,1.2,0.6,1.2,1.2
			S483.6,314,483,314L483,314z"/>
		<path id="p_753.4014693255094" class="st5" d="M483,293.4c-0.7,0-1.2-0.5-1.2-1.2s0.5-1.2,1.2-1.2l0,0c0.7,0,1.2,0.5,1.2,1.2
			C484.2,292.8,483.6,293.4,483,293.4L483,293.4z"/>
		<path id="p_704.75445829711" class="st5" d="M423.9,291.9c-0.7,0-1.2-0.5-1.2-1.2s0.5-1.2,1.2-1.2l0,0c0.7,0,1.2,0.5,1.2,1.2
			S424.5,291.9,423.9,291.9L423.9,291.9z"/>
		<path id="p_723.0151087170335" class="st5" d="M423.7,314.8c-0.6,0-1.2-0.5-1.2-1.2c0-0.6,0.5-1.2,1.2-1.2l0,0
			c0.6,0,1.2,0.5,1.2,1.2C424.9,314.3,424.4,314.8,423.7,314.8L423.7,314.8z"/>
		<path id="p_710.1303398599226" class="st5" d="M450.3,272.1c-0.6,0-1.1-0.5-1.1-1.1s0.5-1.1,1.1-1.1s1.1,0.5,1.1,1.1
			C451.5,271.6,451,272.1,450.3,272.1z"/>
		<path id="p_773.76857738835" class="st5" d="M475.5,326.2c-0.5,0-1-0.4-1-1s0.4-1,1-1s1,0.4,1,1S476,326.2,475.5,326.2z"/>
		<path id="p_715.3292524033452" class="st5" d="M421.9,307c-0.5,0-0.8-0.4-0.8-0.8c0-0.5,0.4-0.8,0.8-0.8c0.5,0,0.8,0.4,0.8,0.8
			C422.8,306.6,422.4,307,421.9,307z"/>
		<path id="p_709.2074822810471" class="st5" d="M422,299.3c-0.4,0-0.8-0.4-0.8-0.8s0.4-0.8,0.8-0.8s0.8,0.4,0.8,0.8
			C422.8,299,422.4,299.3,422,299.3z"/>
		<path id="p_736.803629434874" class="st5" d="M474.6,281.1c-0.4,0-0.8-0.3-0.8-0.8c0-0.4,0.3-0.8,0.8-0.8s0.8,0.3,0.8,0.8
			C475.3,280.8,475,281.1,474.6,281.1z"/>
		<path id="p_703.5466466371211" class="st5" d="M436,278.3c-0.3,0-0.6-0.3-0.6-0.6c0-0.3,0.3-0.6,0.6-0.6l0,0
			c0.3,0,0.6,0.3,0.6,0.6S436.3,278.3,436,278.3L436,278.3z"/>
		<path id="p_701.6724385974278" class="st5" d="M437.1,274.8c-0.3,0-0.6-0.3-0.6-0.6c0-0.3,0.3-0.6,0.6-0.6c0.3,0,0.6,0.3,0.6,0.6
			C437.7,274.6,437.4,274.8,437.1,274.8z"/>
		<path id="p_741.8095462262706" class="st5" d="M434.9,327c-0.2,0-0.4-0.2-0.4-0.4c0-0.2,0.2-0.4,0.4-0.4l0,0
			c0.2,0,0.4,0.2,0.4,0.4C435.4,326.8,435.2,327,434.9,327L434.9,327z"/>
		<path id="p_765.7835627334273" class="st6" d="M453.8,338c-19.7,0-35.6-16-35.7-35.6c0-19.7,16-35.6,35.6-35.7l0,0
			c19.7,0,35.6,16,35.7,35.6C489.4,322,473.5,338,453.8,338L453.8,338z"/>
	</g>
	<path id="p_706.7043493088528" class="st7" d="M227.6,490.6c-103.9,0-188.2-84.2-188.2-188.2s84.2-188.2,188.2-188.3h0.1
		c103.9,0,188.2,84.2,188.2,188.2S331.6,490.5,227.6,490.6C227.7,490.6,227.7,490.6,227.6,490.6z"/>
	<g class="st8">
		<path class="st9" d="M268.2,67.5c0.6,0,0.9-0.1,1.2-0.2c0.4-0.2,0.6-0.6,0.6-1.2V55.2c0-0.6-0.2-1-0.6-1.2
			c-0.2-0.1-0.6-0.2-1.2-0.3v-0.6h6.7c2.7,0,4.8,0.7,6.2,2.2c1.3,1.3,1.9,3.1,1.9,5.3c0,2-0.7,3.7-2,5.1c-1.5,1.6-3.5,2.3-6,2.3h-7
			V67.5z M273.9,67c0.1,0.2,0.5,0.3,0.9,0.3c1.3,0,2.4-0.5,3.2-1.4c0.8-0.9,1.3-2.7,1.3-5.3c0-1.6-0.2-2.9-0.7-4
			c-0.7-1.8-2-2.7-3.7-2.7c-0.6,0-0.9,0.1-1.1,0.4c-0.1,0.2-0.2,0.5-0.2,0.9v10.8C273.6,66.5,273.7,66.8,273.9,67z"/>
		<path class="st9" d="M284.2,67.6c0.4-0.1,0.7-0.2,0.8-0.3c0.2-0.2,0.3-0.5,0.3-1v-6.5c0-0.4-0.1-0.8-0.2-0.9
			c-0.2-0.2-0.4-0.3-0.9-0.4v-0.5h4.2v8.4c0,0.5,0.1,0.8,0.2,0.9c0.1,0.1,0.4,0.2,0.8,0.3v0.5h-5.2V67.6z M285.6,53.4
			c0.3-0.3,0.7-0.5,1.2-0.5c0.5,0,0.9,0.2,1.2,0.5c0.3,0.3,0.5,0.7,0.5,1.2s-0.2,0.9-0.5,1.2c-0.3,0.3-0.7,0.5-1.2,0.5
			c-0.5,0-0.9-0.2-1.2-0.5c-0.3-0.3-0.5-0.7-0.5-1.2S285.3,53.7,285.6,53.4z"/>
		<path class="st9" d="M290.8,69.7c0.3-0.3,0.7-0.5,1.4-0.7v-0.2c-0.4-0.2-0.7-0.3-0.9-0.5c-0.3-0.3-0.5-0.7-0.5-1.2
			c0-0.6,0.3-1.1,0.8-1.6c0.5-0.4,1.1-0.7,1.6-0.9v-0.2c-0.7-0.3-1.3-0.7-1.8-1.3c-0.5-0.6-0.7-1.2-0.7-2c0-1,0.4-1.8,1.2-2.5
			c0.8-0.7,1.9-1,3.3-1c0.5,0,1,0,1.4,0.2s0.8,0.2,1,0.3h2.9v1.2h-1.8c0.3,0.3,0.5,0.6,0.7,1c0.2,0.4,0.2,0.8,0.2,1.2
			c0,1.4-0.7,2.3-2,2.8c-0.7,0.3-1.5,0.4-2.6,0.4c-0.2,0-0.4,0-0.4,0c-0.1,0-0.2,0-0.3,0c-0.2,0-0.4,0.2-0.7,0.3
			c-0.2,0.2-0.4,0.4-0.4,0.7c0,0.2,0.1,0.4,0.2,0.5c0.1,0.1,0.3,0.2,0.5,0.2c0.1,0,0.3,0,0.7,0c0.4,0,0.6,0,0.8,0l1.4,0
			c0.8,0,1.5,0.1,2,0.4c1.1,0.4,1.6,1.2,1.6,2.3c0,1.4-0.8,2.4-2.4,3c-0.8,0.3-1.9,0.4-3.1,0.4c-1,0-1.9-0.1-2.7-0.3
			c-1.2-0.3-1.8-0.9-1.8-1.7C290.4,70.3,290.6,70,290.8,69.7z M293.1,71.5c0.5,0.3,1.2,0.4,2.1,0.4c0.8,0,1.5-0.1,2-0.2
			c1-0.2,1.5-0.7,1.5-1.3c0-0.4-0.1-0.7-0.4-0.9c-0.3-0.2-0.8-0.3-1.5-0.3h-3.6c-0.2,0.2-0.4,0.3-0.5,0.5c-0.2,0.2-0.3,0.5-0.3,0.8
			C292.4,70.9,292.6,71.3,293.1,71.5z M293.9,63.1c0.2,0.6,0.6,1,1.2,1c0.6,0,0.9-0.2,1.1-0.7c0.2-0.5,0.3-1.2,0.3-2.1
			c0-1-0.1-1.7-0.3-2.2c-0.2-0.5-0.6-0.7-1.1-0.7c-0.6,0-1,0.2-1.2,0.7c-0.2,0.5-0.3,1.2-0.3,2.1C293.7,62.1,293.7,62.7,293.9,63.1z
			"/>
		<path class="st9" d="M301.3,67.6c0.4-0.1,0.7-0.2,0.8-0.3c0.2-0.2,0.3-0.5,0.3-1v-6.5c0-0.4-0.1-0.8-0.2-0.9
			c-0.2-0.2-0.4-0.3-0.9-0.4v-0.5h4.2v8.4c0,0.5,0.1,0.8,0.2,0.9c0.1,0.1,0.4,0.2,0.8,0.3v0.5h-5.2V67.6z M302.8,53.4
			c0.3-0.3,0.7-0.5,1.2-0.5c0.5,0,0.9,0.2,1.2,0.5c0.3,0.3,0.5,0.7,0.5,1.2s-0.2,0.9-0.5,1.2c-0.3,0.3-0.7,0.5-1.2,0.5
			c-0.5,0-0.9-0.2-1.2-0.5c-0.3-0.3-0.5-0.7-0.5-1.2S302.4,53.7,302.8,53.4z"/>
		<path class="st9" d="M307.4,58.9v-0.6c0.2-0.2,0.4-0.4,0.7-0.6c0.4-0.4,0.7-0.7,1.1-1.1c0.7-0.7,1.3-1.5,1.8-2.4h0.6v3.7h2.1v1
			h-2.1v6.6c0,0.3,0,0.6,0.1,0.8c0.1,0.3,0.4,0.5,0.7,0.5c0.3,0,0.5-0.1,0.7-0.3c0.2-0.2,0.4-0.5,0.6-0.8l0.5,0.3
			c-0.3,0.6-0.6,1.1-0.9,1.5c-0.6,0.7-1.4,1-2.3,1c-0.5,0-1-0.1-1.4-0.3c-0.7-0.4-1.1-1-1.1-2v-7.1H307.4z"/>
		<path class="st9" d="M316.4,63.7c1-0.6,2.4-1.2,4.5-1.8v-1.6c0-0.7-0.1-1.1-0.4-1.4c-0.3-0.3-0.8-0.5-1.5-0.5
			c-0.4,0-0.7,0.1-1,0.2c-0.3,0.1-0.4,0.3-0.4,0.6c0,0.1,0,0.2,0,0.2c0,0.1,0.1,0.1,0.1,0.2l0.1,0.2c0.1,0.1,0.2,0.3,0.2,0.4
			c0.1,0.1,0.1,0.3,0.1,0.5c0,0.4-0.1,0.7-0.4,1c-0.3,0.2-0.6,0.3-1,0.3c-0.4,0-0.8-0.1-1.1-0.4c-0.3-0.2-0.4-0.6-0.4-1.1
			c0-0.8,0.4-1.5,1.2-2s1.8-0.7,2.9-0.7c1.2,0,2.3,0.2,3.1,0.7c0.8,0.5,1.2,1.4,1.2,2.7v5.3c0,0.2,0,0.3,0.1,0.4
			c0.1,0.1,0.2,0.2,0.3,0.2c0.1,0,0.2,0,0.2,0c0.1,0,0.2-0.1,0.3-0.3l0.3,0.5c-0.4,0.5-0.9,0.9-1.4,1.1c-0.3,0.1-0.7,0.2-1,0.2
			c-0.7,0-1.1-0.2-1.4-0.6c-0.2-0.2-0.3-0.5-0.4-1c-0.6,0.6-1.3,1-2.1,1.3c-0.5,0.2-0.9,0.2-1.4,0.2c-0.6,0-1.2-0.2-1.7-0.6
			c-0.5-0.4-0.8-1-0.8-1.8C314.9,65,315.4,64.2,316.4,63.7z M320.2,66.5c0.2-0.1,0.4-0.3,0.6-0.6v-3.2c-0.6,0.1-1.1,0.4-1.5,0.7
			c-0.8,0.5-1.1,1.2-1.1,2c0,0.5,0.1,0.8,0.3,1.1c0.2,0.2,0.5,0.4,0.7,0.4C319.6,66.8,319.9,66.7,320.2,66.5z"/>
		<path class="st9" d="M325.7,67.6c0.4-0.1,0.7-0.2,0.8-0.4c0.2-0.2,0.2-0.5,0.2-1V55c0-0.5-0.1-0.8-0.2-0.9s-0.4-0.3-0.8-0.4v-0.5
			h4.2v13c0,0.5,0.1,0.8,0.2,1c0.2,0.2,0.4,0.3,0.8,0.4v0.5h-5.2V67.6z"/>
		<path class="st9" d="M336.2,67.5c0.5,0,1-0.3,1.3-0.7c0.2-0.3,0.5-0.9,0.9-1.8l4.9-12h0.6l4.9,11.6c0.6,1.3,1,2.1,1.2,2.5
			c0.3,0.4,0.7,0.6,1.2,0.5v0.6H344v-0.6c0.7,0,1.2-0.1,1.4-0.2s0.3-0.3,0.3-0.7c0-0.2-0.1-0.4-0.2-0.8c-0.1-0.2-0.2-0.5-0.3-0.8
			l-0.6-1.3h-4.9c-0.3,0.9-0.5,1.4-0.6,1.7c-0.2,0.6-0.3,1-0.3,1.2c0,0.3,0.2,0.5,0.6,0.7c0.3,0.1,0.6,0.1,1.1,0.1v0.6h-4.5V67.5z
			 M344.4,62.9l-2.1-5.1h-0.2l-2,5.1H344.4z"/>
		<path class="st9" d="M353.5,59.2c0.8-1,1.8-1.5,3-1.5c0.6,0,1.1,0.1,1.5,0.4c0.3,0.2,0.6,0.5,1.1,0.9v-4c0-0.6-0.1-0.9-0.3-1
			c-0.2-0.1-0.7-0.2-1.3-0.2v-0.5h4.7v12.7c0,0.5,0.1,0.8,0.3,0.9s0.5,0.3,1,0.3v0.5c-1.2,0.1-2,0.2-2.4,0.3c-0.4,0.1-1,0.2-1.9,0.5
			v-1.5c-0.4,0.4-0.8,0.7-1.1,1c-0.5,0.3-1.1,0.5-1.8,0.5c-1.1,0-2-0.5-2.8-1.4s-1.2-2.1-1.2-3.7C352.2,61.6,352.6,60.2,353.5,59.2z
			 M358.5,66.5c0.4-0.4,0.6-0.7,0.6-0.9v-5.3c0-0.2-0.2-0.4-0.5-0.8s-0.8-0.5-1.3-0.5c-0.8,0-1.3,0.5-1.6,1.6
			c-0.2,0.6-0.2,1.4-0.2,2.5c0,1.1,0.1,2,0.2,2.6c0.3,1,0.8,1.6,1.5,1.6C357.7,67.1,358.1,66.9,358.5,66.5z"/>
		<path class="st9" d="M369.8,57.9v0.5c-0.4,0-0.7,0.1-0.9,0.1c-0.2,0.1-0.3,0.2-0.3,0.5c0,0.1,0,0.2,0.1,0.3
			c0.1,0.2,0.1,0.3,0.1,0.3l1.7,4.2h0.1l1.5-3.8c0.1-0.2,0.1-0.4,0.2-0.5c0-0.2,0.1-0.3,0.1-0.4c0-0.3-0.1-0.5-0.3-0.6
			c-0.2-0.1-0.5-0.1-0.9-0.1v-0.5h3.3v0.5c-0.3,0-0.5,0.1-0.7,0.3c-0.2,0.2-0.4,0.5-0.5,0.9l-3.5,8.7h-0.6l-2.6-6.5
			c-0.2-0.5-0.4-0.9-0.5-1.3c-0.2-0.4-0.4-0.8-0.6-1.2c-0.2-0.4-0.4-0.6-0.5-0.7c-0.1-0.1-0.3-0.2-0.6-0.2v-0.5H369.8z"/>
		<path class="st9" d="M376.7,59.1c0.9-0.9,2-1.4,3.3-1.4c0.7,0,1.4,0.2,2,0.6s1.1,0.9,1.5,1.6c0.3,0.5,0.4,1.2,0.5,2
			c0,0.4,0.1,0.7,0.1,0.9h-5.6c0.1,0.9,0.2,1.6,0.4,2.3c0.4,1.2,1.2,1.8,2.3,1.8c0.5,0,1-0.2,1.5-0.5c0.3-0.2,0.6-0.5,1-1l0.5,0.3
			c-0.7,1.1-1.5,1.9-2.4,2.3c-0.6,0.3-1.2,0.4-2,0.4c-1.1,0-2.1-0.4-3-1.3c-0.9-0.9-1.4-2.2-1.4-4.1C375.4,61.3,375.8,60,376.7,59.1
			z M381.4,61.9c0-1.3-0.1-2.2-0.3-2.7s-0.6-0.8-1.1-0.8c-0.6,0-1,0.3-1.2,0.9c-0.2,0.6-0.3,1.5-0.4,2.6H381.4z"/>
		<path class="st9" d="M385.1,67.6c0.4,0,0.7-0.2,0.9-0.3c0.2-0.2,0.3-0.4,0.3-0.9l0-0.6v-6c0-0.5-0.1-0.8-0.2-0.9
			c-0.2-0.2-0.5-0.3-0.9-0.3v-0.5h4.2v1.7c0.5-0.6,0.9-1.1,1.4-1.5s1-0.5,1.6-0.5c0.5,0,0.9,0.1,1.2,0.4c0.4,0.3,0.5,0.7,0.5,1.3
			c0,0.4-0.1,0.8-0.4,1.1s-0.6,0.4-1,0.4c-0.5,0-0.9-0.2-1.2-0.7c-0.3-0.4-0.6-0.7-0.7-0.7c-0.3,0-0.6,0.2-0.9,0.5
			c-0.3,0.4-0.4,0.9-0.4,1.6v4.2c0,0.7,0.1,1.2,0.3,1.4c0.2,0.2,0.6,0.3,1.3,0.4v0.5h-5.9V67.6z"/>
		<path class="st9" d="M394.8,58.9v-0.6c0.2-0.2,0.4-0.4,0.7-0.6c0.4-0.4,0.7-0.7,1.1-1.1c0.7-0.7,1.3-1.5,1.8-2.4h0.6v3.7h2.1v1
			H399v6.6c0,0.3,0,0.6,0.1,0.8c0.1,0.3,0.4,0.5,0.7,0.5c0.3,0,0.5-0.1,0.7-0.3c0.2-0.2,0.4-0.5,0.6-0.8l0.5,0.3
			c-0.3,0.6-0.6,1.1-0.9,1.5c-0.6,0.7-1.4,1-2.3,1c-0.5,0-1-0.1-1.4-0.3c-0.7-0.4-1.1-1-1.1-2v-7.1H394.8z"/>
		<path class="st9" d="M402.1,67.6c0.4-0.1,0.7-0.2,0.8-0.3c0.2-0.2,0.3-0.5,0.3-1v-6.5c0-0.4-0.1-0.8-0.2-0.9
			c-0.2-0.2-0.4-0.3-0.9-0.4v-0.5h4.2v8.4c0,0.5,0.1,0.8,0.2,0.9c0.1,0.1,0.4,0.2,0.8,0.3v0.5h-5.2V67.6z M403.6,53.4
			c0.3-0.3,0.7-0.5,1.2-0.5c0.5,0,0.9,0.2,1.2,0.5c0.3,0.3,0.5,0.7,0.5,1.2s-0.2,0.9-0.5,1.2c-0.3,0.3-0.7,0.5-1.2,0.5
			c-0.5,0-0.9-0.2-1.2-0.5c-0.3-0.3-0.5-0.7-0.5-1.2S403.2,53.7,403.6,53.4z"/>
		<path class="st9" d="M408.4,64.7h0.6c0.2,1.1,0.6,1.8,1.2,2.2c0.6,0.4,1.2,0.7,1.8,0.7c0.6,0,1-0.1,1.2-0.4c0.3-0.3,0.4-0.6,0.4-1
			c0-0.4-0.1-0.7-0.4-1c-0.2-0.2-0.4-0.3-0.8-0.5l-1.6-0.8c-0.9-0.4-1.5-0.9-1.8-1.4c-0.4-0.5-0.6-1.1-0.6-1.8
			c0-0.9,0.3-1.6,0.9-2.2c0.6-0.6,1.4-0.9,2.5-0.9c0.5,0,1,0.1,1.5,0.2c0.5,0.2,0.8,0.2,1,0.2c0.2,0,0.3,0,0.4-0.1
			c0.1-0.1,0.1-0.2,0.2-0.3h0.5v3.2h-0.6c-0.2-0.7-0.5-1.3-1-1.8s-1-0.7-1.7-0.7c-0.5,0-0.9,0.1-1.1,0.4s-0.4,0.6-0.4,0.9
			c0,0.3,0.1,0.5,0.3,0.8c0.2,0.3,0.6,0.5,1.2,0.8l1.2,0.6c0.7,0.4,1.3,0.7,1.6,1c0.6,0.6,0.9,1.3,0.9,2.1c0,0.8-0.3,1.6-0.9,2.3
			c-0.6,0.7-1.5,1.1-2.7,1.1c-0.3,0-0.6,0-0.9-0.1c-0.3-0.1-0.7-0.2-1.1-0.3l-0.4-0.1c-0.1,0-0.2-0.1-0.3-0.1s-0.1,0-0.1,0
			c-0.1,0-0.2,0-0.3,0.1c-0.1,0.1-0.2,0.3-0.3,0.5h-0.5V64.7z"/>
		<path class="st9" d="M416.8,67.6c0.4-0.1,0.7-0.2,0.8-0.3c0.2-0.2,0.3-0.5,0.3-1v-6.5c0-0.4-0.1-0.8-0.2-0.9
			c-0.2-0.2-0.4-0.3-0.9-0.4v-0.5h4.2v8.4c0,0.5,0.1,0.8,0.2,0.9c0.1,0.1,0.4,0.2,0.8,0.3v0.5h-5.2V67.6z M418.3,53.4
			c0.3-0.3,0.7-0.5,1.2-0.5c0.5,0,0.9,0.2,1.2,0.5c0.3,0.3,0.5,0.7,0.5,1.2s-0.2,0.9-0.5,1.2c-0.3,0.3-0.7,0.5-1.2,0.5
			c-0.5,0-0.9-0.2-1.2-0.5c-0.3-0.3-0.5-0.7-0.5-1.2S417.9,53.7,418.3,53.4z"/>
		<path class="st9" d="M422.9,67.6c0.4,0,0.7-0.2,0.9-0.3c0.2-0.2,0.3-0.5,0.3-1v-6.5c0-0.4-0.1-0.8-0.2-0.9s-0.5-0.3-0.9-0.3v-0.5
			h4.2v1.6c0.4-0.5,0.8-1,1.3-1.3c0.5-0.3,1.1-0.5,1.8-0.5c0.9,0,1.7,0.2,2.2,0.7s0.8,1.3,0.8,2.6v5.3c0,0.5,0.1,0.8,0.3,1
			s0.4,0.2,0.8,0.3v0.5h-5.2v-0.5c0.4-0.1,0.7-0.2,0.8-0.3c0.1-0.1,0.2-0.4,0.2-0.9V61c0-0.5-0.1-0.9-0.2-1.1
			c-0.2-0.5-0.5-0.7-1-0.7c-0.4,0-0.7,0.1-1,0.4c-0.3,0.3-0.6,0.6-0.7,0.8v5.9c0,0.5,0.1,0.8,0.2,0.9c0.1,0.1,0.4,0.2,0.8,0.3v0.5
			h-5.3V67.6z"/>
		<path class="st9" d="M435.7,69.7c0.3-0.3,0.7-0.5,1.4-0.7v-0.2c-0.4-0.2-0.7-0.3-0.9-0.5c-0.3-0.3-0.5-0.7-0.5-1.2
			c0-0.6,0.3-1.1,0.8-1.6s1.1-0.7,1.6-0.9v-0.2c-0.7-0.3-1.3-0.7-1.8-1.3c-0.5-0.6-0.7-1.2-0.7-2c0-1,0.4-1.8,1.2-2.5
			c0.8-0.7,1.9-1,3.3-1c0.5,0,1,0,1.4,0.2s0.8,0.2,1,0.3h2.9v1.2h-1.8c0.3,0.3,0.5,0.6,0.7,1s0.2,0.8,0.2,1.2c0,1.4-0.7,2.3-2,2.8
			c-0.7,0.3-1.5,0.4-2.6,0.4c-0.2,0-0.4,0-0.4,0s-0.2,0-0.3,0c-0.2,0-0.4,0.2-0.7,0.3c-0.2,0.2-0.4,0.4-0.4,0.7
			c0,0.2,0.1,0.4,0.2,0.5c0.1,0.1,0.3,0.2,0.5,0.2c0.1,0,0.3,0,0.7,0c0.4,0,0.6,0,0.8,0l1.4,0c0.8,0,1.5,0.1,2,0.4
			c1.1,0.4,1.6,1.2,1.6,2.3c0,1.4-0.8,2.4-2.4,3c-0.8,0.3-1.9,0.4-3.1,0.4c-1,0-1.9-0.1-2.7-0.3c-1.2-0.3-1.8-0.9-1.8-1.7
			C435.3,70.3,435.4,70,435.7,69.7z M437.9,71.5c0.5,0.3,1.2,0.4,2.1,0.4c0.8,0,1.5-0.1,2-0.2c1-0.2,1.5-0.7,1.5-1.3
			c0-0.4-0.1-0.7-0.4-0.9c-0.3-0.2-0.8-0.3-1.5-0.3H438c-0.2,0.2-0.4,0.3-0.5,0.5c-0.2,0.2-0.3,0.5-0.3,0.8
			C437.2,70.9,437.5,71.3,437.9,71.5z M438.7,63.1c0.2,0.6,0.6,1,1.2,1c0.6,0,0.9-0.2,1.1-0.7c0.2-0.5,0.3-1.2,0.3-2.1
			c0-1-0.1-1.7-0.3-2.2s-0.6-0.7-1.1-0.7c-0.6,0-1,0.2-1.2,0.7c-0.2,0.5-0.3,1.2-0.3,2.1C438.5,62.1,438.6,62.7,438.7,63.1z"/>
		<path class="st9" d="M452.1,62.9h0.6c0.3,1.6,0.9,2.8,1.7,3.6c0.8,0.7,1.7,1.1,2.7,1.1c1,0,1.7-0.3,2.1-0.8s0.6-1.1,0.6-1.6
			c0-0.7-0.2-1.2-0.6-1.6c-0.3-0.3-0.9-0.6-1.7-1.1l-1.4-0.7c-1.4-0.7-2.4-1.4-2.9-2.1c-0.6-0.7-0.9-1.5-0.9-2.5
			c0-1.1,0.4-2.1,1.1-3c0.8-0.9,1.9-1.4,3.5-1.4c0.8,0,1.6,0.1,2.3,0.4c0.7,0.2,1.2,0.4,1.3,0.4c0.2,0,0.4-0.1,0.5-0.2
			c0.1-0.1,0.2-0.3,0.2-0.6h0.7v4.8h-0.6c-0.3-1.1-0.8-2.1-1.5-2.9s-1.6-1.2-2.6-1.2c-0.7,0-1.3,0.2-1.7,0.6s-0.6,0.9-0.6,1.5
			c0,0.7,0.2,1.2,0.6,1.6c0.4,0.4,1.3,0.9,2.6,1.5l1.6,0.8c0.7,0.4,1.3,0.8,1.7,1.2c0.8,0.8,1.2,1.8,1.2,3c0,1.1-0.4,2.2-1.3,3.1
			c-0.9,1-2.2,1.5-4.1,1.5c-0.4,0-0.9,0-1.3-0.1c-0.4-0.1-0.9-0.2-1.3-0.4l-0.4-0.2c-0.1,0-0.2-0.1-0.3-0.1c-0.1,0-0.2,0-0.2,0
			c-0.2,0-0.4,0.1-0.5,0.2c-0.1,0.1-0.2,0.3-0.2,0.6h-0.6V62.9z"/>
		<path class="st9" d="M463.9,72.1c0.5,0,0.8-0.2,1-0.3c0.2-0.2,0.3-0.5,0.3-1V59.8c0-0.5-0.1-0.8-0.2-0.9c-0.2-0.2-0.5-0.3-0.9-0.3
			v-0.5h4.2v1.5c0.3-0.5,0.6-0.9,0.9-1.1c0.5-0.4,1.2-0.6,2-0.6c1.2,0,2.1,0.4,2.9,1.3s1.1,2.2,1.1,3.9c0,1.6-0.4,2.9-1.2,4
			c-0.8,1-1.8,1.6-3,1.6c-0.6,0-1.2-0.2-1.7-0.5c-0.3-0.2-0.6-0.5-0.9-0.8v1.9c0,1,0,1.5,0,1.7c0,0.6,0.2,1,0.4,1.2s0.7,0.3,1.2,0.4
			v0.5h-6V72.1z M471.6,65.6c0.2-0.6,0.2-1.4,0.2-2.5c0-1.3-0.1-2.3-0.3-3c-0.2-0.7-0.7-1.1-1.4-1.1c-0.5,0-0.9,0.2-1.3,0.6
			c-0.4,0.4-0.6,0.7-0.6,0.9v5.3c0,0.2,0.2,0.5,0.5,0.8c0.4,0.3,0.8,0.5,1.2,0.5C470.7,67.2,471.3,66.6,471.6,65.6z"/>
		<path class="st9" d="M477.6,59.1c0.9-0.9,2-1.4,3.3-1.4c0.7,0,1.4,0.2,2,0.6c0.6,0.4,1.1,0.9,1.5,1.6c0.3,0.5,0.4,1.2,0.5,2
			c0,0.4,0.1,0.7,0.1,0.9h-5.6c0,0.9,0.2,1.6,0.4,2.3c0.4,1.2,1.2,1.8,2.3,1.8c0.5,0,1-0.2,1.5-0.5c0.3-0.2,0.6-0.5,1-1l0.5,0.3
			c-0.7,1.1-1.5,1.9-2.4,2.3c-0.6,0.3-1.2,0.4-2,0.4c-1.1,0-2.1-0.4-3-1.3c-0.9-0.9-1.4-2.2-1.4-4.1C476.2,61.3,476.7,60,477.6,59.1
			z M482.3,61.9c0-1.3-0.1-2.2-0.3-2.7c-0.2-0.5-0.6-0.8-1.1-0.8c-0.6,0-1,0.3-1.2,0.9c-0.2,0.6-0.3,1.5-0.4,2.6H482.3z"/>
		<path class="st9" d="M485.9,67.6c0.4,0,0.7-0.2,0.9-0.3c0.2-0.2,0.3-0.5,0.3-1v-6.5c0-0.4-0.1-0.8-0.2-0.9s-0.5-0.3-0.9-0.3v-0.5
			h4.2v1.6c0.4-0.5,0.8-1,1.3-1.3c0.5-0.3,1.1-0.5,1.8-0.5c0.9,0,1.7,0.2,2.2,0.7s0.8,1.3,0.8,2.6v5.3c0,0.5,0.1,0.8,0.3,1
			s0.4,0.2,0.8,0.3v0.5h-5.2v-0.5c0.4-0.1,0.7-0.2,0.8-0.3c0.1-0.1,0.2-0.4,0.2-0.9V61c0-0.5-0.1-0.9-0.2-1.1
			c-0.2-0.5-0.5-0.7-1-0.7c-0.4,0-0.7,0.1-1,0.4c-0.3,0.3-0.6,0.6-0.7,0.8v5.9c0,0.5,0.1,0.8,0.2,0.9c0.1,0.1,0.4,0.2,0.8,0.3v0.5
			h-5.3V67.6z"/>
		<path class="st9" d="M499.6,59.2c0.8-1,1.8-1.5,3-1.5c0.6,0,1.1,0.1,1.5,0.4c0.3,0.2,0.6,0.5,1.1,0.9v-4c0-0.6-0.1-0.9-0.3-1
			c-0.2-0.1-0.7-0.2-1.3-0.2v-0.5h4.7v12.7c0,0.5,0.1,0.8,0.3,0.9s0.5,0.3,1,0.3v0.5c-1.2,0.1-2,0.2-2.4,0.3c-0.4,0.1-1,0.2-1.9,0.5
			v-1.5c-0.4,0.4-0.8,0.7-1.1,1c-0.5,0.3-1.1,0.5-1.8,0.5c-1.1,0-2-0.5-2.8-1.4s-1.2-2.1-1.2-3.7C498.3,61.6,498.7,60.2,499.6,59.2z
			 M504.6,66.5c0.4-0.4,0.6-0.7,0.6-0.9v-5.3c0-0.2-0.2-0.4-0.5-0.8s-0.8-0.5-1.3-0.5c-0.8,0-1.3,0.5-1.6,1.6
			c-0.2,0.6-0.2,1.4-0.2,2.5c0,1.1,0.1,2,0.2,2.6c0.3,1,0.8,1.6,1.5,1.6C503.8,67.1,504.2,66.9,504.6,66.5z"/>
		<path class="st9" d="M510.3,67.6c0.4-0.1,0.7-0.2,0.8-0.3c0.2-0.2,0.3-0.5,0.3-1v-6.5c0-0.4-0.1-0.8-0.2-0.9
			c-0.2-0.2-0.4-0.3-0.9-0.4v-0.5h4.2v8.4c0,0.5,0.1,0.8,0.2,0.9c0.1,0.1,0.4,0.2,0.8,0.3v0.5h-5.2V67.6z M511.8,53.4
			c0.3-0.3,0.7-0.5,1.2-0.5c0.5,0,0.9,0.2,1.2,0.5c0.3,0.3,0.5,0.7,0.5,1.2s-0.2,0.9-0.5,1.2c-0.3,0.3-0.7,0.5-1.2,0.5
			c-0.5,0-0.9-0.2-1.2-0.5c-0.3-0.3-0.5-0.7-0.5-1.2S511.5,53.7,511.8,53.4z"/>
		<path class="st9" d="M516.5,67.6c0.4,0,0.7-0.2,0.9-0.3c0.2-0.2,0.3-0.5,0.3-1v-6.5c0-0.4-0.1-0.8-0.2-0.9s-0.5-0.3-0.9-0.3v-0.5
			h4.2v1.6c0.4-0.5,0.8-1,1.3-1.3c0.5-0.3,1.1-0.5,1.8-0.5c0.9,0,1.7,0.2,2.2,0.7s0.8,1.3,0.8,2.6v5.3c0,0.5,0.1,0.8,0.3,1
			s0.4,0.2,0.8,0.3v0.5h-5.2v-0.5c0.4-0.1,0.7-0.2,0.8-0.3c0.1-0.1,0.2-0.4,0.2-0.9V61c0-0.5-0.1-0.9-0.2-1.1
			c-0.2-0.5-0.5-0.7-1-0.7c-0.4,0-0.7,0.1-1,0.4c-0.3,0.3-0.6,0.6-0.7,0.8v5.9c0,0.5,0.1,0.8,0.2,0.9c0.1,0.1,0.4,0.2,0.8,0.3v0.5
			h-5.3V67.6z"/>
		<path class="st9" d="M529.2,69.7c0.3-0.3,0.7-0.5,1.4-0.7v-0.2c-0.4-0.2-0.7-0.3-0.9-0.5c-0.3-0.3-0.5-0.7-0.5-1.2
			c0-0.6,0.3-1.1,0.8-1.6s1.1-0.7,1.6-0.9v-0.2c-0.7-0.3-1.3-0.7-1.8-1.3c-0.5-0.6-0.7-1.2-0.7-2c0-1,0.4-1.8,1.2-2.5
			c0.8-0.7,1.9-1,3.3-1c0.5,0,1,0,1.4,0.2s0.8,0.2,1,0.3h2.9v1.2H537c0.3,0.3,0.5,0.6,0.7,1s0.2,0.8,0.2,1.2c0,1.4-0.7,2.3-2,2.8
			c-0.7,0.3-1.5,0.4-2.6,0.4c-0.2,0-0.4,0-0.4,0s-0.2,0-0.3,0c-0.2,0-0.4,0.2-0.7,0.3c-0.2,0.2-0.4,0.4-0.4,0.7
			c0,0.2,0.1,0.4,0.2,0.5c0.1,0.1,0.3,0.2,0.5,0.2c0.1,0,0.3,0,0.7,0c0.4,0,0.6,0,0.8,0l1.4,0c0.8,0,1.5,0.1,2,0.4
			c1.1,0.4,1.6,1.2,1.6,2.3c0,1.4-0.8,2.4-2.4,3c-0.8,0.3-1.9,0.4-3.1,0.4c-1,0-1.9-0.1-2.7-0.3c-1.2-0.3-1.8-0.9-1.8-1.7
			C528.8,70.3,529,70,529.2,69.7z M531.5,71.5c0.5,0.3,1.2,0.4,2.1,0.4c0.8,0,1.5-0.1,2-0.2c1-0.2,1.5-0.7,1.5-1.3
			c0-0.4-0.1-0.7-0.4-0.9c-0.3-0.2-0.8-0.3-1.5-0.3h-3.6c-0.2,0.2-0.4,0.3-0.5,0.5c-0.2,0.2-0.3,0.5-0.3,0.8
			C530.8,70.9,531,71.3,531.5,71.5z M532.3,63.1c0.2,0.6,0.6,1,1.2,1c0.6,0,0.9-0.2,1.1-0.7c0.2-0.5,0.3-1.2,0.3-2.1
			c0-1-0.1-1.7-0.3-2.2s-0.6-0.7-1.1-0.7c-0.6,0-1,0.2-1.2,0.7c-0.2,0.5-0.3,1.2-0.3,2.1C532.1,62.1,532.1,62.7,532.3,63.1z"/>
	</g>
	<g class="st8">
		<path class="st9" d="M496.7,421.8c0.4,0,0.7-0.1,0.9-0.2c0.3-0.2,0.5-0.5,0.5-0.9v-8.4c0-0.4-0.2-0.7-0.5-0.9
			c-0.2-0.1-0.5-0.2-0.9-0.2v-0.4h5.2c2.1,0,3.7,0.6,4.8,1.7c1,1,1.5,2.4,1.5,4.1c0,1.5-0.5,2.8-1.5,3.9c-1.1,1.2-2.7,1.8-4.6,1.8
			h-5.4V421.8z M501,421.4c0.1,0.2,0.4,0.2,0.7,0.2c1,0,1.8-0.4,2.5-1.1s1-2.1,1-4.1c0-1.2-0.2-2.2-0.5-3.1
			c-0.6-1.4-1.5-2.1-2.9-2.1c-0.4,0-0.7,0.1-0.9,0.3c-0.1,0.1-0.1,0.4-0.1,0.7v8.4C500.8,421,500.9,421.3,501,421.4z"/>
		<path class="st9" d="M510.2,418.8c0.7-0.4,1.9-0.9,3.5-1.4v-1.2c0-0.5-0.1-0.9-0.3-1.1c-0.2-0.2-0.6-0.4-1.1-0.4
			c-0.3,0-0.6,0.1-0.8,0.2s-0.3,0.3-0.3,0.4c0,0.1,0,0.1,0,0.2c0,0,0.1,0.1,0.1,0.1l0.1,0.1c0.1,0.1,0.1,0.2,0.2,0.3
			c0,0.1,0.1,0.2,0.1,0.4c0,0.3-0.1,0.6-0.3,0.7c-0.2,0.2-0.5,0.3-0.7,0.3c-0.3,0-0.6-0.1-0.8-0.3c-0.2-0.2-0.3-0.5-0.3-0.8
			c0-0.7,0.3-1.2,0.9-1.5c0.6-0.4,1.4-0.6,2.3-0.6c1,0,1.8,0.2,2.4,0.6c0.6,0.4,1,1.1,1,2.1v4.1c0,0.1,0,0.2,0.1,0.3
			s0.1,0.1,0.2,0.1c0.1,0,0.1,0,0.2,0c0.1,0,0.1-0.1,0.2-0.2l0.3,0.4c-0.3,0.4-0.7,0.7-1.1,0.8c-0.3,0.1-0.5,0.1-0.8,0.1
			c-0.5,0-0.9-0.1-1.1-0.4c-0.1-0.2-0.2-0.4-0.3-0.7c-0.5,0.5-1,0.8-1.6,1c-0.4,0.1-0.7,0.2-1.1,0.2c-0.5,0-0.9-0.1-1.3-0.4
			c-0.4-0.3-0.6-0.8-0.6-1.4C509.1,419.9,509.5,419.3,510.2,418.8z M513.2,421c0.1-0.1,0.3-0.3,0.5-0.5V418
			c-0.5,0.1-0.9,0.3-1.2,0.5c-0.6,0.4-0.9,0.9-0.9,1.5c0,0.4,0.1,0.7,0.3,0.8s0.4,0.3,0.6,0.3C512.7,421.2,513,421.2,513.2,421z"/>
		<path class="st9" d="M517.5,415.1v-0.5c0.1-0.1,0.3-0.3,0.6-0.5c0.3-0.3,0.6-0.6,0.8-0.8c0.5-0.6,1-1.2,1.4-1.8h0.4v2.9h1.6v0.7
			h-1.6v5.1c0,0.2,0,0.4,0.1,0.6c0.1,0.2,0.3,0.4,0.5,0.4c0.2,0,0.4-0.1,0.6-0.2c0.1-0.2,0.3-0.4,0.4-0.7l0.4,0.2
			c-0.2,0.5-0.4,0.8-0.7,1.1c-0.5,0.5-1.1,0.8-1.8,0.8c-0.4,0-0.7-0.1-1-0.2c-0.6-0.3-0.9-0.8-0.9-1.6v-5.5H517.5z"/>
		<path class="st9" d="M524.4,418.8c0.7-0.4,1.9-0.9,3.5-1.4v-1.2c0-0.5-0.1-0.9-0.3-1.1c-0.2-0.2-0.6-0.4-1.1-0.4
			c-0.3,0-0.6,0.1-0.8,0.2s-0.3,0.3-0.3,0.4c0,0.1,0,0.1,0,0.2c0,0,0.1,0.1,0.1,0.1l0.1,0.1c0.1,0.1,0.1,0.2,0.2,0.3
			c0,0.1,0.1,0.2,0.1,0.4c0,0.3-0.1,0.6-0.3,0.7c-0.2,0.2-0.5,0.3-0.7,0.3c-0.3,0-0.6-0.1-0.8-0.3c-0.2-0.2-0.3-0.5-0.3-0.8
			c0-0.7,0.3-1.2,0.9-1.5c0.6-0.4,1.4-0.6,2.3-0.6c1,0,1.8,0.2,2.4,0.6c0.6,0.4,1,1.1,1,2.1v4.1c0,0.1,0,0.2,0.1,0.3
			s0.1,0.1,0.2,0.1c0.1,0,0.1,0,0.2,0c0.1,0,0.1-0.1,0.2-0.2l0.3,0.4c-0.3,0.4-0.7,0.7-1.1,0.8c-0.3,0.1-0.5,0.1-0.8,0.1
			c-0.5,0-0.9-0.1-1.1-0.4c-0.1-0.2-0.2-0.4-0.3-0.7c-0.5,0.5-1,0.8-1.6,1c-0.4,0.1-0.7,0.2-1.1,0.2c-0.5,0-0.9-0.1-1.3-0.4
			c-0.4-0.3-0.6-0.8-0.6-1.4C523.3,419.9,523.7,419.3,524.4,418.8z M527.4,421c0.1-0.1,0.3-0.3,0.5-0.5V418
			c-0.5,0.1-0.9,0.3-1.2,0.5c-0.6,0.4-0.9,0.9-0.9,1.5c0,0.4,0.1,0.7,0.3,0.8s0.4,0.3,0.6,0.3C526.9,421.2,527.1,421.2,527.4,421z"
			/>
		<path class="st9" d="M536.2,418.2h0.5c0.3,1.3,0.7,2.2,1.3,2.8c0.6,0.6,1.3,0.9,2.1,0.9c0.8,0,1.3-0.2,1.6-0.6
			c0.3-0.4,0.5-0.8,0.5-1.2c0-0.5-0.2-0.9-0.5-1.2c-0.2-0.2-0.7-0.5-1.3-0.8l-1.1-0.5c-1.1-0.5-1.8-1.1-2.3-1.6
			c-0.4-0.5-0.7-1.2-0.7-2c0-0.8,0.3-1.6,0.9-2.3c0.6-0.7,1.5-1.1,2.7-1.1c0.6,0,1.2,0.1,1.8,0.3c0.6,0.2,0.9,0.3,1,0.3
			c0.2,0,0.3-0.1,0.4-0.2c0.1-0.1,0.1-0.3,0.2-0.4h0.5v3.7h-0.5c-0.2-0.9-0.6-1.6-1.2-2.2c-0.6-0.6-1.2-0.9-2-0.9
			c-0.6,0-1,0.2-1.3,0.5c-0.3,0.3-0.5,0.7-0.5,1.1c0,0.5,0.2,0.9,0.5,1.2c0.3,0.3,1,0.7,2,1.2l1.3,0.6c0.6,0.3,1,0.6,1.3,0.9
			c0.6,0.6,0.9,1.4,0.9,2.3c0,0.9-0.3,1.7-1,2.4c-0.7,0.8-1.7,1.1-3.2,1.1c-0.3,0-0.7,0-1-0.1s-0.7-0.2-1-0.3l-0.3-0.1
			c-0.1,0-0.1,0-0.2-0.1c-0.1,0-0.1,0-0.2,0c-0.2,0-0.3,0.1-0.4,0.2s-0.1,0.2-0.2,0.4h-0.5V418.2z"/>
		<path class="st9" d="M546.5,415.3c0.7-0.7,1.5-1.1,2.5-1.1c0.6,0,1.1,0.1,1.6,0.4s0.9,0.7,1.1,1.2c0.2,0.4,0.3,0.9,0.4,1.5
			c0,0.3,0.1,0.5,0.1,0.7h-4.3c0,0.7,0.1,1.3,0.3,1.8c0.3,0.9,0.9,1.4,1.8,1.4c0.4,0,0.8-0.1,1.1-0.4c0.2-0.2,0.5-0.4,0.8-0.8
			l0.4,0.2c-0.5,0.9-1.1,1.5-1.8,1.8c-0.4,0.2-1,0.3-1.5,0.3c-0.8,0-1.6-0.3-2.4-1s-1.1-1.7-1.1-3.2
			C545.4,417,545.8,416,546.5,415.3z M550.1,417.4c0-1-0.1-1.7-0.2-2.1s-0.4-0.6-0.9-0.6c-0.4,0-0.7,0.2-0.9,0.7s-0.3,1.1-0.3,2
			H550.1z"/>
		<path class="st9" d="M552.9,421.8c0.3,0,0.6-0.1,0.7-0.2c0.1-0.1,0.2-0.3,0.2-0.7l0-0.5v-4.6c0-0.4-0.1-0.6-0.2-0.7
			c-0.1-0.1-0.4-0.2-0.7-0.3v-0.4h3.2v1.3c0.4-0.5,0.7-0.8,1.1-1.1c0.4-0.3,0.8-0.4,1.2-0.4c0.3,0,0.7,0.1,0.9,0.3
			c0.3,0.2,0.4,0.6,0.4,1c0,0.3-0.1,0.6-0.3,0.8c-0.2,0.2-0.5,0.3-0.8,0.3c-0.4,0-0.7-0.2-0.9-0.5c-0.3-0.3-0.4-0.5-0.6-0.5
			c-0.2,0-0.5,0.1-0.7,0.4c-0.2,0.3-0.3,0.7-0.3,1.2v3.2c0,0.6,0.1,0.9,0.2,1.1c0.2,0.1,0.5,0.2,1,0.3v0.4h-4.5V421.8z"/>
		<path class="st9" d="M564.7,414.4v0.4c-0.3,0-0.5,0-0.7,0.1s-0.2,0.2-0.2,0.4c0,0,0,0.1,0.1,0.2c0,0.1,0.1,0.2,0.1,0.3l1.3,3.3
			h0.1l1.2-2.9c0.1-0.1,0.1-0.3,0.1-0.4c0-0.1,0.1-0.3,0.1-0.3c0-0.2-0.1-0.4-0.2-0.5c-0.2-0.1-0.4-0.1-0.7-0.1v-0.4h2.6v0.4
			c-0.2,0-0.4,0.1-0.6,0.2c-0.1,0.1-0.3,0.4-0.4,0.7l-2.7,6.7h-0.4l-2-5c-0.1-0.4-0.3-0.7-0.4-1c-0.1-0.3-0.3-0.6-0.4-0.9
			c-0.2-0.3-0.3-0.5-0.4-0.6c-0.1-0.1-0.2-0.1-0.5-0.1v-0.4H564.7z"/>
		<path class="st9" d="M568.9,421.8c0.3-0.1,0.5-0.1,0.6-0.2c0.2-0.1,0.2-0.4,0.2-0.8v-5c0-0.3-0.1-0.6-0.2-0.7
			c-0.1-0.1-0.3-0.2-0.7-0.3v-0.4h3.3v6.5c0,0.4,0.1,0.6,0.2,0.7c0.1,0.1,0.3,0.2,0.6,0.2v0.4h-4.1V421.8z M570.1,410.9
			c0.3-0.3,0.6-0.4,0.9-0.4c0.4,0,0.7,0.1,0.9,0.4c0.3,0.3,0.4,0.6,0.4,0.9s-0.1,0.7-0.4,0.9c-0.3,0.3-0.6,0.4-0.9,0.4
			c-0.4,0-0.7-0.1-0.9-0.4c-0.3-0.3-0.4-0.6-0.4-0.9S569.8,411.1,570.1,410.9z"/>
		<path class="st9" d="M579.6,414.7c0.5,0.3,0.8,0.8,0.8,1.3c0,0.3-0.1,0.5-0.3,0.8c-0.2,0.2-0.5,0.3-0.8,0.3
			c-0.2,0-0.4-0.1-0.6-0.2c-0.3-0.2-0.5-0.5-0.5-1c0,0,0-0.1,0-0.2c0-0.1,0-0.2,0-0.3c0-0.3-0.1-0.5-0.2-0.6
			c-0.1-0.1-0.3-0.2-0.5-0.2c-0.5,0-0.9,0.3-1.1,0.9c-0.2,0.6-0.3,1.2-0.3,2c0,1.1,0.2,2,0.6,2.7c0.4,0.7,1,1.1,1.7,1.1
			c0.4,0,0.8-0.1,1.1-0.3c0.2-0.1,0.4-0.3,0.7-0.6l0.3,0.3c-0.6,0.8-1.2,1.3-1.9,1.6c-0.4,0.1-0.8,0.2-1.3,0.2c-1.1,0-2-0.4-2.7-1.2
			c-0.7-0.8-1-1.7-1-2.9c0-1.2,0.4-2.2,1.1-3s1.7-1.2,2.9-1.2C578.5,414.2,579.1,414.3,579.6,414.7z"/>
		<path class="st9" d="M582.4,415.3c0.7-0.7,1.5-1.1,2.5-1.1c0.6,0,1.1,0.1,1.6,0.4s0.9,0.7,1.1,1.2c0.2,0.4,0.3,0.9,0.4,1.5
			c0,0.3,0.1,0.5,0.1,0.7h-4.3c0,0.7,0.1,1.3,0.3,1.8c0.3,0.9,0.9,1.4,1.8,1.4c0.4,0,0.8-0.1,1.1-0.4c0.2-0.2,0.5-0.4,0.8-0.8
			l0.4,0.2c-0.5,0.9-1.1,1.5-1.8,1.8c-0.4,0.2-1,0.3-1.5,0.3c-0.8,0-1.6-0.3-2.4-1s-1.1-1.7-1.1-3.2
			C581.3,417,581.7,416,582.4,415.3z M586,417.4c0-1-0.1-1.7-0.2-2.1s-0.4-0.6-0.9-0.6c-0.4,0-0.7,0.2-0.9,0.7s-0.3,1.1-0.3,2H586z"
			/>
		<path class="st9" d="M593.3,418.2h0.5c0.3,1.3,0.7,2.2,1.3,2.8c0.6,0.6,1.3,0.9,2.1,0.9c0.8,0,1.3-0.2,1.6-0.6
			c0.3-0.4,0.5-0.8,0.5-1.2c0-0.5-0.2-0.9-0.5-1.2c-0.2-0.2-0.7-0.5-1.3-0.8l-1.1-0.5c-1.1-0.5-1.8-1.1-2.3-1.6
			c-0.4-0.5-0.7-1.2-0.7-2c0-0.8,0.3-1.6,0.9-2.3c0.6-0.7,1.5-1.1,2.7-1.1c0.6,0,1.2,0.1,1.8,0.3c0.6,0.2,0.9,0.3,1,0.3
			c0.2,0,0.3-0.1,0.4-0.2c0.1-0.1,0.1-0.3,0.2-0.4h0.5v3.7h-0.5c-0.2-0.9-0.6-1.6-1.2-2.2c-0.6-0.6-1.2-0.9-2-0.9
			c-0.6,0-1,0.2-1.3,0.5c-0.3,0.3-0.5,0.7-0.5,1.1c0,0.5,0.2,0.9,0.5,1.2c0.3,0.3,1,0.7,2,1.2l1.3,0.6c0.6,0.3,1,0.6,1.3,0.9
			c0.6,0.6,0.9,1.4,0.9,2.3c0,0.9-0.3,1.7-1,2.4c-0.7,0.8-1.7,1.1-3.2,1.1c-0.3,0-0.7,0-1-0.1s-0.7-0.2-1-0.3l-0.3-0.1
			c-0.1,0-0.1,0-0.2-0.1c-0.1,0-0.1,0-0.2,0c-0.2,0-0.3,0.1-0.4,0.2s-0.1,0.2-0.2,0.4h-0.5V418.2z"/>
		<path class="st9" d="M602.5,425.3c0.4,0,0.6-0.1,0.7-0.3s0.2-0.4,0.2-0.7v-8.5c0-0.4-0.1-0.6-0.2-0.7c-0.1-0.1-0.4-0.2-0.7-0.3
			v-0.4h3.2v1.1c0.2-0.4,0.5-0.7,0.7-0.9c0.4-0.3,0.9-0.5,1.5-0.5c0.9,0,1.6,0.3,2.2,1c0.6,0.7,0.9,1.7,0.9,3c0,1.2-0.3,2.3-1,3.1
			c-0.6,0.8-1.4,1.2-2.3,1.2c-0.5,0-0.9-0.1-1.3-0.4c-0.2-0.1-0.5-0.3-0.7-0.6v1.4c0,0.8,0,1.2,0,1.3c0,0.4,0.2,0.8,0.3,0.9
			c0.2,0.2,0.5,0.3,1,0.3v0.3h-4.6V425.3z M608.4,420.3c0.1-0.4,0.2-1.1,0.2-1.9c0-1-0.1-1.8-0.3-2.3c-0.2-0.6-0.5-0.9-1.1-0.9
			c-0.4,0-0.7,0.2-1,0.5c-0.3,0.3-0.4,0.6-0.4,0.7v4.1c0,0.2,0.1,0.4,0.4,0.6c0.3,0.3,0.6,0.4,0.9,0.4
			C607.8,421.5,608.2,421.1,608.4,420.3z"/>
		<path class="st9" d="M613.1,415.3c0.7-0.7,1.5-1.1,2.5-1.1c0.6,0,1.1,0.1,1.6,0.4s0.9,0.7,1.1,1.2c0.2,0.4,0.3,0.9,0.4,1.5
			c0,0.3,0.1,0.5,0.1,0.7h-4.3c0,0.7,0.2,1.3,0.3,1.8c0.3,0.9,0.9,1.4,1.8,1.4c0.4,0,0.8-0.1,1.1-0.4c0.2-0.2,0.5-0.4,0.8-0.8
			l0.4,0.2c-0.5,0.9-1.1,1.5-1.8,1.8c-0.4,0.2-1,0.3-1.5,0.3c-0.8,0-1.6-0.3-2.4-1s-1.1-1.7-1.1-3.2C612,417,612.4,416,613.1,415.3z
			 M616.7,417.4c0-1-0.1-1.7-0.2-2.1s-0.4-0.6-0.9-0.6c-0.4,0-0.7,0.2-0.9,0.7c-0.2,0.5-0.3,1.1-0.3,2H616.7z"/>
		<path class="st9" d="M619.5,421.8c0.3,0,0.5-0.1,0.7-0.3s0.2-0.4,0.2-0.8v-5c0-0.3-0.1-0.6-0.2-0.7c-0.1-0.1-0.4-0.2-0.7-0.3v-0.4
			h3.2v1.2c0.3-0.4,0.6-0.7,1-1s0.9-0.4,1.4-0.4c0.7,0,1.3,0.2,1.7,0.6c0.4,0.4,0.6,1,0.6,2v4.1c0,0.4,0.1,0.6,0.2,0.7
			s0.3,0.2,0.7,0.2v0.4h-4v-0.4c0.3-0.1,0.5-0.1,0.6-0.2c0.1-0.1,0.2-0.3,0.2-0.7v-4.1c0-0.4,0-0.7-0.1-0.9
			c-0.1-0.3-0.4-0.5-0.8-0.5c-0.3,0-0.6,0.1-0.8,0.3s-0.4,0.4-0.6,0.6v4.5c0,0.4,0.1,0.6,0.2,0.7c0.1,0.1,0.3,0.2,0.6,0.2v0.4h-4.1
			V421.8z"/>
		<path class="st9" d="M630,415.4c0.6-0.8,1.4-1.2,2.3-1.2c0.4,0,0.8,0.1,1.2,0.3c0.2,0.1,0.5,0.4,0.8,0.7v-3.1
			c0-0.4-0.1-0.7-0.2-0.8c-0.2-0.1-0.5-0.2-1-0.2v-0.4h3.7v9.8c0,0.4,0.1,0.6,0.2,0.7c0.1,0.1,0.4,0.2,0.8,0.2v0.4
			c-1,0.1-1.6,0.2-1.8,0.2c-0.3,0-0.8,0.2-1.5,0.4v-1.1c-0.3,0.3-0.6,0.6-0.9,0.7c-0.4,0.3-0.9,0.4-1.4,0.4c-0.8,0-1.6-0.4-2.2-1.1
			s-0.9-1.7-0.9-2.9C629.1,417.2,629.4,416.1,630,415.4z M633.9,421c0.3-0.3,0.4-0.6,0.4-0.7v-4.1c0-0.1-0.1-0.3-0.4-0.6
			c-0.2-0.3-0.6-0.4-1-0.4c-0.6,0-1,0.4-1.2,1.3c-0.1,0.4-0.2,1.1-0.2,1.9c0,0.9,0.1,1.5,0.2,2c0.2,0.8,0.6,1.2,1.2,1.2
			C633.3,421.5,633.6,421.3,633.9,421z"/>
		<path class="st9" d="M638.4,421.8c0.3-0.1,0.5-0.1,0.6-0.2c0.2-0.1,0.2-0.4,0.2-0.8v-5c0-0.3-0.1-0.6-0.2-0.7
			c-0.1-0.1-0.3-0.2-0.7-0.3v-0.4h3.3v6.5c0,0.4,0.1,0.6,0.2,0.7c0.1,0.1,0.3,0.2,0.6,0.2v0.4h-4.1V421.8z M639.5,410.9
			c0.3-0.3,0.6-0.4,0.9-0.4c0.4,0,0.7,0.1,0.9,0.4c0.3,0.3,0.4,0.6,0.4,0.9s-0.1,0.7-0.4,0.9c-0.3,0.3-0.6,0.4-0.9,0.4
			c-0.4,0-0.7-0.1-0.9-0.4c-0.3-0.3-0.4-0.6-0.4-0.9S639.2,411.1,639.5,410.9z"/>
		<path class="st9" d="M643.1,421.8c0.3,0,0.5-0.1,0.7-0.3c0.1-0.1,0.2-0.4,0.2-0.8v-5c0-0.3-0.1-0.6-0.2-0.7s-0.4-0.2-0.7-0.3v-0.4
			h3.2v1.2c0.3-0.4,0.6-0.7,1-1c0.4-0.3,0.9-0.4,1.4-0.4c0.7,0,1.3,0.2,1.7,0.6c0.4,0.4,0.6,1,0.6,2v4.1c0,0.4,0.1,0.6,0.2,0.7
			c0.1,0.1,0.3,0.2,0.7,0.2v0.4h-4v-0.4c0.3-0.1,0.5-0.1,0.6-0.2c0.1-0.1,0.2-0.3,0.2-0.7v-4.1c0-0.4,0-0.7-0.1-0.9
			c-0.1-0.3-0.4-0.5-0.8-0.5c-0.3,0-0.6,0.1-0.8,0.3c-0.2,0.2-0.4,0.4-0.6,0.6v4.5c0,0.4,0.1,0.6,0.2,0.7c0.1,0.1,0.3,0.2,0.6,0.2
			v0.4h-4.1V421.8z"/>
		<path class="st9" d="M653,423.4c0.2-0.3,0.6-0.4,1-0.5v-0.1c-0.3-0.1-0.6-0.3-0.7-0.4c-0.3-0.2-0.4-0.6-0.4-1
			c0-0.5,0.2-0.9,0.6-1.2c0.4-0.3,0.8-0.6,1.2-0.7v-0.1c-0.6-0.2-1-0.6-1.4-1c-0.4-0.4-0.5-1-0.5-1.6c0-0.8,0.3-1.4,0.9-1.9
			c0.6-0.5,1.5-0.8,2.5-0.8c0.4,0,0.8,0,1.1,0.1c0.3,0.1,0.6,0.2,0.8,0.2h2.2v0.9H659c0.2,0.2,0.4,0.5,0.5,0.8s0.2,0.6,0.2,0.9
			c0,1.1-0.5,1.8-1.5,2.2c-0.5,0.2-1.2,0.3-2,0.3c-0.2,0-0.3,0-0.3,0c-0.1,0-0.1,0-0.2,0c-0.2,0-0.3,0.1-0.5,0.3
			c-0.2,0.2-0.3,0.3-0.3,0.6c0,0.2,0,0.3,0.1,0.4c0.1,0.1,0.2,0.2,0.4,0.2c0.1,0,0.3,0,0.5,0c0.3,0,0.5,0,0.6,0l1.1,0
			c0.6,0,1.2,0.1,1.6,0.3c0.8,0.3,1.2,0.9,1.2,1.8c0,1.1-0.6,1.9-1.8,2.3c-0.6,0.2-1.5,0.3-2.4,0.3c-0.8,0-1.5-0.1-2.1-0.2
			c-1-0.3-1.4-0.7-1.4-1.3C652.7,423.9,652.8,423.7,653,423.4z M654.7,424.9c0.4,0.2,0.9,0.3,1.6,0.3c0.6,0,1.2-0.1,1.6-0.2
			c0.8-0.2,1.2-0.5,1.2-1c0-0.3-0.1-0.5-0.3-0.7c-0.2-0.1-0.6-0.2-1.2-0.2h-2.8c-0.2,0.1-0.3,0.3-0.4,0.4c-0.1,0.2-0.2,0.4-0.2,0.6
			C654.2,424.4,654.3,424.7,654.7,424.9z M655.3,418.4c0.2,0.5,0.5,0.7,1,0.7c0.4,0,0.7-0.2,0.9-0.6c0.2-0.4,0.2-0.9,0.2-1.6
			c0-0.8-0.1-1.3-0.3-1.7s-0.5-0.5-0.9-0.5c-0.4,0-0.7,0.2-0.9,0.6c-0.1,0.4-0.2,0.9-0.2,1.6C655.1,417.6,655.2,418.1,655.3,418.4z"
			/>
	</g>
	<g class="st8">
		<path class="st9" d="M548.5,294.8c0.7,0.3,1.1,0.4,1.2,0.4c0.2,0,0.4-0.1,0.5-0.2c0.1-0.2,0.2-0.3,0.2-0.5h0.5v4h-0.4
			c-0.4-0.9-0.8-1.5-1.3-2c-0.8-0.9-1.7-1.4-2.7-1.4c-1.1,0-1.9,0.5-2.4,1.5c-0.5,1-0.7,2.3-0.7,4c0,1.2,0.1,2.2,0.4,3
			c0.5,1.5,1.5,2.2,2.9,2.2c0.9,0,1.7-0.2,2.4-0.7c0.4-0.3,0.9-0.7,1.5-1.4l0.5,0.4c-0.7,0.7-1.2,1.3-1.8,1.6
			c-0.9,0.6-1.9,0.9-3,0.9c-1.7,0-3.1-0.5-4.2-1.5c-1.3-1.1-1.9-2.6-1.9-4.4c0-1.8,0.6-3.3,1.8-4.5c1.1-1.1,2.5-1.6,4.2-1.6
			C547.1,294.4,547.8,294.5,548.5,294.8z"/>
		<path class="st9" d="M553.5,299.2c0.7-0.8,1.6-1.2,2.7-1.2c1.1,0,2,0.4,2.8,1.2c0.7,0.8,1.1,1.8,1.1,2.9c0,1.1-0.4,2.1-1.1,2.9
			c-0.7,0.8-1.6,1.2-2.8,1.2c-1.1,0-2-0.4-2.7-1.2c-0.7-0.8-1.1-1.8-1.1-3C552.4,301,552.8,300,553.5,299.2z M555.1,304.7
			c0.2,0.7,0.6,1.1,1.2,1.1c0.5,0,0.9-0.3,1.1-0.8c0.2-0.6,0.3-1.5,0.3-2.8c0-1.3-0.1-2.2-0.3-2.8s-0.5-0.9-1.1-0.9
			c-0.6,0-1,0.4-1.2,1.1c-0.1,0.5-0.2,1.3-0.2,2.5C554.9,303.4,555,304.2,555.1,304.7z"/>
		<path class="st9" d="M560.8,305.7c0.3,0,0.5-0.1,0.7-0.3s0.2-0.4,0.2-0.8v-5c0-0.3-0.1-0.6-0.2-0.7c-0.1-0.1-0.4-0.2-0.7-0.3v-0.4
			h3.2v1.2c0.3-0.4,0.6-0.7,1-1s0.9-0.4,1.4-0.4c0.7,0,1.3,0.2,1.7,0.6c0.4,0.4,0.6,1,0.6,2v4.1c0,0.4,0.1,0.6,0.2,0.7
			s0.3,0.2,0.7,0.2v0.4h-4v-0.4c0.3-0.1,0.5-0.1,0.6-0.2c0.1-0.1,0.2-0.3,0.2-0.7v-4.1c0-0.4,0-0.7-0.1-0.9
			c-0.1-0.3-0.4-0.5-0.8-0.5c-0.3,0-0.6,0.1-0.8,0.3s-0.4,0.4-0.6,0.6v4.5c0,0.4,0.1,0.6,0.2,0.7c0.1,0.1,0.3,0.2,0.6,0.2v0.4h-4.1
			V305.7z"/>
		<path class="st9" d="M570.5,303.5h0.5c0.2,0.8,0.5,1.4,0.9,1.7c0.5,0.3,0.9,0.5,1.4,0.5c0.4,0,0.8-0.1,1-0.3
			c0.2-0.2,0.3-0.5,0.3-0.8c0-0.3-0.1-0.6-0.3-0.8c-0.1-0.1-0.3-0.2-0.6-0.4l-1.3-0.6c-0.7-0.3-1.1-0.7-1.4-1.1
			c-0.3-0.4-0.4-0.8-0.4-1.4c0-0.7,0.2-1.2,0.7-1.7c0.5-0.5,1.1-0.7,1.9-0.7c0.4,0,0.7,0.1,1.1,0.2c0.4,0.1,0.7,0.2,0.8,0.2
			c0.1,0,0.2,0,0.3-0.1c0.1-0.1,0.1-0.1,0.1-0.2h0.4v2.5h-0.4c-0.2-0.6-0.4-1-0.8-1.4c-0.4-0.3-0.8-0.5-1.3-0.5
			c-0.4,0-0.7,0.1-0.8,0.3c-0.2,0.2-0.3,0.4-0.3,0.7c0,0.2,0.1,0.4,0.2,0.6c0.2,0.2,0.5,0.4,0.9,0.6l0.9,0.4c0.6,0.3,1,0.5,1.3,0.8
			c0.4,0.4,0.7,1,0.7,1.6c0,0.6-0.2,1.2-0.7,1.8c-0.5,0.5-1.1,0.8-2.1,0.8c-0.2,0-0.5,0-0.7-0.1c-0.2,0-0.5-0.1-0.9-0.2l-0.3-0.1
			c-0.1,0-0.2-0.1-0.2-0.1c0,0-0.1,0-0.1,0c-0.1,0-0.2,0-0.2,0.1c-0.1,0.1-0.1,0.2-0.2,0.4h-0.4V303.5z"/>
		<path class="st9" d="M580.1,298.2v5.8c0,0.3,0,0.6,0.1,0.8c0.1,0.3,0.4,0.4,0.9,0.4c0.3,0,0.5-0.1,0.8-0.3
			c0.1-0.1,0.3-0.3,0.6-0.5v-4.8c0-0.4-0.1-0.6-0.2-0.7c-0.1-0.1-0.4-0.2-0.9-0.2v-0.4h3.4v6.1c0,0.4,0.1,0.6,0.2,0.7
			c0.1,0.1,0.4,0.2,0.8,0.2v0.4c-1.1,0.1-1.7,0.2-2,0.2c-0.3,0-0.7,0.2-1.3,0.4v-1.1c-0.4,0.3-0.7,0.6-1,0.7
			c-0.5,0.3-0.9,0.4-1.5,0.4c-0.5,0-1.1-0.2-1.5-0.5c-0.5-0.3-0.7-1-0.7-1.9v-4.3c0-0.4-0.1-0.6-0.2-0.7c-0.1-0.1-0.3-0.2-0.7-0.3
			v-0.4H580.1z"/>
		<path class="st9" d="M586.4,305.7c0.3-0.1,0.5-0.2,0.6-0.3c0.1-0.1,0.2-0.4,0.2-0.7V296c0-0.4-0.1-0.6-0.2-0.7
			c-0.1-0.1-0.3-0.2-0.6-0.3v-0.4h3.2v10.1c0,0.4,0.1,0.6,0.2,0.7c0.1,0.1,0.3,0.2,0.6,0.3v0.4h-4.1V305.7z"/>
		<path class="st9" d="M591.1,299v-0.5c0.1-0.1,0.3-0.3,0.6-0.5c0.3-0.3,0.6-0.6,0.8-0.8c0.5-0.6,1-1.2,1.4-1.8h0.4v2.9h1.6v0.7
			h-1.6v5.1c0,0.2,0,0.4,0.1,0.6c0.1,0.2,0.3,0.4,0.5,0.4c0.2,0,0.4-0.1,0.6-0.2c0.1-0.2,0.3-0.4,0.4-0.7l0.4,0.2
			c-0.2,0.5-0.4,0.8-0.7,1.1c-0.5,0.5-1.1,0.8-1.8,0.8c-0.4,0-0.7-0.1-1-0.2c-0.6-0.3-0.9-0.8-0.9-1.6V299H591.1z"/>
		<path class="st9" d="M596.8,305.7c0.3-0.1,0.5-0.1,0.6-0.2c0.2-0.1,0.2-0.4,0.2-0.8v-5c0-0.3-0.1-0.6-0.2-0.7
			c-0.1-0.1-0.3-0.2-0.7-0.3v-0.4h3.3v6.5c0,0.4,0.1,0.6,0.2,0.7c0.1,0.1,0.3,0.2,0.6,0.2v0.4h-4.1V305.7z M597.9,294.7
			c0.3-0.3,0.6-0.4,0.9-0.4c0.4,0,0.7,0.1,0.9,0.4c0.3,0.3,0.4,0.6,0.4,0.9s-0.1,0.7-0.4,0.9c-0.3,0.3-0.6,0.4-0.9,0.4
			c-0.4,0-0.7-0.1-0.9-0.4c-0.3-0.3-0.4-0.6-0.4-0.9S597.6,295,597.9,294.7z"/>
		<path class="st9" d="M601.5,305.7c0.3,0,0.5-0.1,0.7-0.3c0.1-0.1,0.2-0.4,0.2-0.8v-5c0-0.3-0.1-0.6-0.2-0.7s-0.4-0.2-0.7-0.3v-0.4
			h3.2v1.2c0.3-0.4,0.6-0.7,1-1c0.4-0.3,0.9-0.4,1.4-0.4c0.7,0,1.3,0.2,1.7,0.6c0.4,0.4,0.6,1,0.6,2v4.1c0,0.4,0.1,0.6,0.2,0.7
			c0.1,0.1,0.3,0.2,0.7,0.2v0.4h-4v-0.4c0.3-0.1,0.5-0.1,0.6-0.2c0.1-0.1,0.2-0.3,0.2-0.7v-4.1c0-0.4,0-0.7-0.1-0.9
			c-0.1-0.3-0.4-0.5-0.8-0.5c-0.3,0-0.6,0.1-0.8,0.3c-0.2,0.2-0.4,0.4-0.6,0.6v4.5c0,0.4,0.1,0.6,0.2,0.7c0.1,0.1,0.3,0.2,0.6,0.2
			v0.4h-4.1V305.7z"/>
		<path class="st9" d="M611.4,307.3c0.2-0.3,0.6-0.4,1-0.5v-0.1c-0.3-0.1-0.6-0.3-0.7-0.4c-0.3-0.2-0.4-0.6-0.4-1
			c0-0.5,0.2-0.9,0.6-1.2c0.4-0.3,0.8-0.6,1.2-0.7v-0.1c-0.6-0.2-1-0.6-1.4-1c-0.4-0.4-0.5-1-0.5-1.6c0-0.8,0.3-1.4,0.9-1.9
			c0.6-0.5,1.5-0.8,2.5-0.8c0.4,0,0.8,0,1.1,0.1c0.3,0.1,0.6,0.2,0.8,0.2h2.2v0.9h-1.4c0.2,0.2,0.4,0.5,0.5,0.8s0.2,0.6,0.2,0.9
			c0,1.1-0.5,1.8-1.5,2.2c-0.5,0.2-1.2,0.3-2,0.3c-0.2,0-0.3,0-0.3,0c-0.1,0-0.1,0-0.2,0c-0.2,0-0.3,0.1-0.5,0.3
			c-0.2,0.2-0.3,0.3-0.3,0.6c0,0.2,0,0.3,0.1,0.4c0.1,0.1,0.2,0.2,0.4,0.2c0.1,0,0.3,0,0.5,0c0.3,0,0.5,0,0.6,0l1.1,0
			c0.6,0,1.2,0.1,1.6,0.3c0.8,0.3,1.2,0.9,1.2,1.8c0,1.1-0.6,1.9-1.8,2.3c-0.6,0.2-1.5,0.3-2.4,0.3c-0.8,0-1.5-0.1-2.1-0.2
			c-1-0.3-1.4-0.7-1.4-1.3C611.1,307.8,611.2,307.5,611.4,307.3z M613.1,308.7c0.4,0.2,0.9,0.3,1.6,0.3c0.6,0,1.2-0.1,1.6-0.2
			c0.8-0.2,1.2-0.5,1.2-1c0-0.3-0.1-0.5-0.3-0.7c-0.2-0.1-0.6-0.2-1.2-0.2h-2.8c-0.2,0.1-0.3,0.3-0.4,0.4c-0.1,0.2-0.2,0.4-0.2,0.6
			C612.5,308.3,612.7,308.5,613.1,308.7z M613.7,302.2c0.2,0.5,0.5,0.7,1,0.7c0.4,0,0.7-0.2,0.9-0.6c0.2-0.4,0.2-0.9,0.2-1.6
			c0-0.8-0.1-1.3-0.3-1.7s-0.5-0.5-0.9-0.5c-0.4,0-0.7,0.2-0.9,0.6c-0.1,0.4-0.2,0.9-0.2,1.6C613.5,301.4,613.6,301.9,613.7,302.2z"
			/>
		<path class="st9" d="M624,302.1h0.5c0.3,1.3,0.7,2.2,1.3,2.8s1.3,0.9,2.1,0.9c0.8,0,1.3-0.2,1.6-0.6c0.3-0.4,0.5-0.8,0.5-1.2
			c0-0.5-0.2-0.9-0.5-1.2c-0.2-0.2-0.7-0.5-1.3-0.8l-1.1-0.5c-1.1-0.5-1.8-1.1-2.3-1.6c-0.4-0.5-0.7-1.2-0.7-2
			c0-0.8,0.3-1.6,0.9-2.3c0.6-0.7,1.5-1.1,2.7-1.1c0.6,0,1.2,0.1,1.8,0.3c0.6,0.2,0.9,0.3,1,0.3c0.2,0,0.3-0.1,0.4-0.2
			c0.1-0.1,0.1-0.3,0.2-0.4h0.5v3.7H631c-0.2-0.9-0.6-1.6-1.2-2.2c-0.6-0.6-1.2-0.9-2-0.9c-0.6,0-1,0.2-1.3,0.5
			c-0.3,0.3-0.5,0.7-0.5,1.1c0,0.5,0.2,0.9,0.5,1.2c0.3,0.3,1,0.7,2,1.2l1.3,0.6c0.6,0.3,1,0.6,1.3,0.9c0.6,0.6,0.9,1.4,0.9,2.3
			c0,0.9-0.3,1.7-1,2.4c-0.7,0.8-1.7,1.1-3.2,1.1c-0.3,0-0.7,0-1-0.1s-0.7-0.2-1-0.3l-0.3-0.1c-0.1,0-0.1,0-0.2-0.1
			c-0.1,0-0.1,0-0.2,0c-0.2,0-0.3,0.1-0.4,0.2s-0.1,0.2-0.2,0.4H624V302.1z"/>
		<path class="st9" d="M634.3,299.1c0.7-0.7,1.5-1.1,2.5-1.1c0.6,0,1.1,0.1,1.6,0.4s0.9,0.7,1.1,1.2c0.2,0.4,0.3,0.9,0.4,1.5
			c0,0.3,0.1,0.5,0.1,0.7h-4.3c0,0.7,0.2,1.3,0.3,1.8c0.3,0.9,0.9,1.4,1.8,1.4c0.4,0,0.8-0.1,1.1-0.4c0.2-0.2,0.5-0.4,0.8-0.8
			l0.4,0.2c-0.5,0.9-1.1,1.5-1.8,1.8c-0.4,0.2-1,0.3-1.5,0.3c-0.8,0-1.6-0.3-2.4-1s-1.1-1.7-1.1-3.2
			C633.2,300.9,633.6,299.8,634.3,299.1z M637.9,301.3c0-1-0.1-1.7-0.2-2.1s-0.4-0.6-0.9-0.6c-0.4,0-0.7,0.2-0.9,0.7
			c-0.2,0.5-0.3,1.1-0.3,2H637.9z"/>
		<path class="st9" d="M640.7,305.7c0.3,0,0.6-0.1,0.7-0.2c0.1-0.1,0.2-0.3,0.2-0.7l0-0.5v-4.6c0-0.4-0.1-0.6-0.2-0.7
			c-0.1-0.1-0.4-0.2-0.7-0.3v-0.4h3.2v1.3c0.4-0.5,0.7-0.8,1.1-1.1c0.4-0.3,0.8-0.4,1.2-0.4c0.3,0,0.7,0.1,0.9,0.3
			c0.3,0.2,0.4,0.6,0.4,1c0,0.3-0.1,0.6-0.3,0.8c-0.2,0.2-0.5,0.3-0.8,0.3c-0.4,0-0.7-0.2-0.9-0.5c-0.3-0.3-0.4-0.5-0.6-0.5
			c-0.2,0-0.5,0.1-0.7,0.4c-0.2,0.3-0.3,0.7-0.3,1.2v3.2c0,0.6,0.1,0.9,0.2,1.1c0.2,0.1,0.5,0.2,1,0.3v0.4h-4.5V305.7z"/>
		<path class="st9" d="M652.5,298.2v0.4c-0.3,0-0.5,0-0.7,0.1s-0.2,0.2-0.2,0.4c0,0,0,0.1,0.1,0.2c0,0.1,0.1,0.2,0.1,0.3l1.3,3.3
			h0.1l1.2-2.9c0.1-0.1,0.1-0.3,0.1-0.4s0.1-0.3,0.1-0.3c0-0.2-0.1-0.4-0.2-0.5c-0.2-0.1-0.4-0.1-0.7-0.1v-0.4h2.6v0.4
			c-0.2,0-0.4,0.1-0.6,0.2c-0.1,0.1-0.3,0.4-0.4,0.7l-2.7,6.7H652l-2-5c-0.1-0.4-0.3-0.7-0.4-1c-0.1-0.3-0.3-0.6-0.4-0.9
			c-0.2-0.3-0.3-0.5-0.4-0.6c-0.1-0.1-0.2-0.1-0.5-0.1v-0.4H652.5z"/>
		<path class="st9" d="M656.7,305.7c0.3-0.1,0.5-0.1,0.6-0.2c0.2-0.1,0.2-0.4,0.2-0.8v-5c0-0.3-0.1-0.6-0.2-0.7
			c-0.1-0.1-0.3-0.2-0.7-0.3v-0.4h3.3v6.5c0,0.4,0.1,0.6,0.2,0.7c0.1,0.1,0.3,0.2,0.6,0.2v0.4h-4.1V305.7z M657.9,294.7
			c0.3-0.3,0.6-0.4,0.9-0.4c0.4,0,0.7,0.1,0.9,0.4c0.3,0.3,0.4,0.6,0.4,0.9s-0.1,0.7-0.4,0.9c-0.3,0.3-0.6,0.4-0.9,0.4
			c-0.4,0-0.7-0.1-0.9-0.4c-0.3-0.3-0.4-0.6-0.4-0.9S657.6,295,657.9,294.7z"/>
		<path class="st9" d="M667.4,298.5c0.5,0.3,0.8,0.8,0.8,1.3c0,0.3-0.1,0.5-0.3,0.8c-0.2,0.2-0.5,0.3-0.8,0.3
			c-0.2,0-0.4-0.1-0.6-0.2c-0.3-0.2-0.5-0.5-0.5-1c0,0,0-0.1,0-0.2c0-0.1,0-0.2,0-0.3c0-0.3-0.1-0.5-0.2-0.6
			c-0.1-0.1-0.3-0.2-0.5-0.2c-0.5,0-0.9,0.3-1.1,0.9c-0.2,0.6-0.3,1.2-0.3,2c0,1.1,0.2,2,0.6,2.7c0.4,0.7,1,1.1,1.7,1.1
			c0.4,0,0.8-0.1,1.1-0.3c0.2-0.1,0.4-0.3,0.7-0.6l0.3,0.3c-0.6,0.8-1.2,1.3-1.9,1.6c-0.4,0.1-0.8,0.2-1.3,0.2c-1.1,0-2-0.4-2.7-1.2
			c-0.7-0.8-1-1.7-1-2.9c0-1.2,0.4-2.2,1.1-3c0.7-0.8,1.7-1.2,2.9-1.2C666.3,298,666.9,298.2,667.4,298.5z"/>
		<path class="st9" d="M670.1,299.1c0.7-0.7,1.5-1.1,2.5-1.1c0.6,0,1.1,0.1,1.6,0.4s0.9,0.7,1.1,1.2c0.2,0.4,0.3,0.9,0.4,1.5
			c0,0.3,0.1,0.5,0.1,0.7h-4.3c0,0.7,0.2,1.3,0.3,1.8c0.3,0.9,0.9,1.4,1.8,1.4c0.4,0,0.8-0.1,1.1-0.4c0.2-0.2,0.5-0.4,0.8-0.8
			l0.4,0.2c-0.5,0.9-1.1,1.5-1.8,1.8c-0.4,0.2-1,0.3-1.5,0.3c-0.8,0-1.6-0.3-2.4-1s-1.1-1.7-1.1-3.2
			C669.1,300.9,669.4,299.8,670.1,299.1z M673.8,301.3c0-1-0.1-1.7-0.2-2.1s-0.4-0.6-0.9-0.6c-0.4,0-0.7,0.2-0.9,0.7
			c-0.2,0.5-0.3,1.1-0.3,2H673.8z"/>
		<path class="st9" d="M681.1,302.1h0.5c0.3,1.3,0.7,2.2,1.3,2.8s1.3,0.9,2.1,0.9c0.8,0,1.3-0.2,1.6-0.6c0.3-0.4,0.5-0.8,0.5-1.2
			c0-0.5-0.2-0.9-0.5-1.2c-0.2-0.2-0.7-0.5-1.3-0.8l-1.1-0.5c-1.1-0.5-1.8-1.1-2.3-1.6c-0.4-0.5-0.7-1.2-0.7-2
			c0-0.8,0.3-1.6,0.9-2.3c0.6-0.7,1.5-1.1,2.7-1.1c0.6,0,1.2,0.1,1.8,0.3c0.6,0.2,0.9,0.3,1,0.3c0.2,0,0.3-0.1,0.4-0.2
			c0.1-0.1,0.1-0.3,0.2-0.4h0.5v3.7h-0.5c-0.2-0.9-0.6-1.6-1.2-2.2c-0.6-0.6-1.2-0.9-2-0.9c-0.6,0-1,0.2-1.3,0.5
			c-0.3,0.3-0.5,0.7-0.5,1.1c0,0.5,0.2,0.9,0.5,1.2c0.3,0.3,1,0.7,2,1.2l1.3,0.6c0.6,0.3,1,0.6,1.3,0.9c0.6,0.6,0.9,1.4,0.9,2.3
			c0,0.9-0.3,1.7-1,2.4c-0.7,0.8-1.7,1.1-3.2,1.1c-0.3,0-0.7,0-1-0.1s-0.7-0.2-1-0.3l-0.3-0.1c-0.1,0-0.1,0-0.2-0.1
			c-0.1,0-0.1,0-0.2,0c-0.2,0-0.3,0.1-0.4,0.2s-0.1,0.2-0.2,0.4h-0.5V302.1z"/>
		<path class="st9" d="M690.3,309.2c0.4,0,0.6-0.1,0.7-0.3s0.2-0.4,0.2-0.7v-8.5c0-0.4-0.1-0.6-0.2-0.7c-0.1-0.1-0.4-0.2-0.7-0.3
			v-0.4h3.2v1.1c0.2-0.4,0.5-0.7,0.7-0.9c0.4-0.3,0.9-0.5,1.5-0.5c0.9,0,1.6,0.3,2.2,1c0.6,0.7,0.9,1.7,0.9,3c0,1.2-0.3,2.3-1,3.1
			s-1.4,1.2-2.3,1.2c-0.5,0-0.9-0.1-1.3-0.4c-0.2-0.1-0.5-0.3-0.7-0.6v1.4c0,0.8,0,1.2,0,1.3c0,0.4,0.2,0.8,0.3,0.9
			c0.2,0.2,0.5,0.3,1,0.3v0.3h-4.6V309.2z M696.2,304.1c0.1-0.4,0.2-1.1,0.2-1.9c0-1-0.1-1.8-0.3-2.3c-0.2-0.6-0.5-0.9-1.1-0.9
			c-0.4,0-0.7,0.2-1,0.5c-0.3,0.3-0.4,0.6-0.4,0.7v4.1c0,0.2,0.1,0.4,0.4,0.6c0.3,0.3,0.6,0.4,0.9,0.4
			C695.6,305.4,696,304.9,696.2,304.1z"/>
		<path class="st9" d="M700.8,299.1c0.7-0.7,1.5-1.1,2.5-1.1c0.6,0,1.1,0.1,1.6,0.4s0.9,0.7,1.1,1.2c0.2,0.4,0.3,0.9,0.4,1.5
			c0,0.3,0.1,0.5,0.1,0.7h-4.3c0,0.7,0.1,1.3,0.3,1.8c0.3,0.9,0.9,1.4,1.8,1.4c0.4,0,0.8-0.1,1.1-0.4c0.2-0.2,0.5-0.4,0.8-0.8
			l0.4,0.2c-0.5,0.9-1.1,1.5-1.8,1.8c-0.4,0.2-1,0.3-1.5,0.3c-0.8,0-1.6-0.3-2.4-1s-1.1-1.7-1.1-3.2
			C699.8,300.9,700.2,299.8,700.8,299.1z M704.5,301.3c0-1-0.1-1.7-0.2-2.1s-0.4-0.6-0.9-0.6c-0.4,0-0.7,0.2-0.9,0.7s-0.3,1.1-0.3,2
			H704.5z"/>
		<path class="st9" d="M707.2,305.7c0.3,0,0.5-0.1,0.7-0.3c0.1-0.1,0.2-0.4,0.2-0.8v-5c0-0.3-0.1-0.6-0.2-0.7s-0.4-0.2-0.7-0.3v-0.4
			h3.2v1.2c0.3-0.4,0.6-0.7,1-1c0.4-0.3,0.9-0.4,1.4-0.4c0.7,0,1.3,0.2,1.7,0.6c0.4,0.4,0.6,1,0.6,2v4.1c0,0.4,0.1,0.6,0.2,0.7
			c0.1,0.1,0.3,0.2,0.7,0.2v0.4h-4v-0.4c0.3-0.1,0.5-0.1,0.6-0.2c0.1-0.1,0.2-0.3,0.2-0.7v-4.1c0-0.4,0-0.7-0.1-0.9
			c-0.1-0.3-0.4-0.5-0.8-0.5c-0.3,0-0.6,0.1-0.8,0.3c-0.2,0.2-0.4,0.4-0.6,0.6v4.5c0,0.4,0.1,0.6,0.2,0.7c0.1,0.1,0.3,0.2,0.6,0.2
			v0.4h-4.1V305.7z"/>
		<path class="st9" d="M717.8,299.2c0.6-0.8,1.4-1.2,2.3-1.2c0.4,0,0.8,0.1,1.2,0.3c0.2,0.1,0.5,0.4,0.8,0.7V296
			c0-0.4-0.1-0.7-0.2-0.8c-0.2-0.1-0.5-0.2-1-0.2v-0.4h3.7v9.8c0,0.4,0.1,0.6,0.2,0.7c0.1,0.1,0.4,0.2,0.8,0.2v0.4
			c-1,0.1-1.6,0.2-1.8,0.2c-0.3,0-0.8,0.2-1.5,0.4v-1.1c-0.3,0.3-0.6,0.6-0.9,0.7c-0.4,0.3-0.9,0.4-1.4,0.4c-0.8,0-1.6-0.4-2.2-1.1
			s-0.9-1.7-0.9-2.9C716.9,301,717.2,300,717.8,299.2z M721.7,304.8c0.3-0.3,0.4-0.6,0.4-0.7V300c0-0.1-0.1-0.3-0.4-0.6
			c-0.2-0.3-0.6-0.4-1-0.4c-0.6,0-1,0.4-1.2,1.3c-0.1,0.4-0.2,1.1-0.2,1.9c0,0.9,0.1,1.5,0.2,2c0.2,0.8,0.6,1.2,1.2,1.2
			C721.1,305.3,721.4,305.2,721.7,304.8z"/>
		<path class="st9" d="M726.2,305.7c0.3-0.1,0.5-0.1,0.6-0.2c0.2-0.1,0.2-0.4,0.2-0.8v-5c0-0.3-0.1-0.6-0.2-0.7
			c-0.1-0.1-0.3-0.2-0.7-0.3v-0.4h3.3v6.5c0,0.4,0.1,0.6,0.2,0.7c0.1,0.1,0.3,0.2,0.6,0.2v0.4h-4.1V305.7z M727.3,294.7
			c0.3-0.3,0.6-0.4,0.9-0.4c0.4,0,0.7,0.1,0.9,0.4c0.3,0.3,0.4,0.6,0.4,0.9s-0.1,0.7-0.4,0.9c-0.3,0.3-0.6,0.4-0.9,0.4
			c-0.4,0-0.7-0.1-0.9-0.4c-0.3-0.3-0.4-0.6-0.4-0.9S727,295,727.3,294.7z"/>
		<path class="st9" d="M730.9,305.7c0.3,0,0.5-0.1,0.7-0.3s0.2-0.4,0.2-0.8v-5c0-0.3-0.1-0.6-0.2-0.7c-0.1-0.1-0.4-0.2-0.7-0.3v-0.4
			h3.2v1.2c0.3-0.4,0.6-0.7,1-1s0.9-0.4,1.4-0.4c0.7,0,1.3,0.2,1.7,0.6c0.4,0.4,0.6,1,0.6,2v4.1c0,0.4,0.1,0.6,0.2,0.7
			s0.3,0.2,0.7,0.2v0.4h-4v-0.4c0.3-0.1,0.5-0.1,0.6-0.2c0.1-0.1,0.2-0.3,0.2-0.7v-4.1c0-0.4,0-0.7-0.1-0.9
			c-0.1-0.3-0.4-0.5-0.8-0.5c-0.3,0-0.6,0.1-0.8,0.3s-0.4,0.4-0.6,0.6v4.5c0,0.4,0.1,0.6,0.2,0.7c0.1,0.1,0.3,0.2,0.6,0.2v0.4h-4.1
			V305.7z"/>
		<path class="st9" d="M740.8,307.3c0.2-0.3,0.6-0.4,1-0.5v-0.1c-0.3-0.1-0.6-0.3-0.7-0.4c-0.3-0.2-0.4-0.6-0.4-1
			c0-0.5,0.2-0.9,0.6-1.2c0.4-0.3,0.8-0.6,1.2-0.7v-0.1c-0.6-0.2-1-0.6-1.4-1c-0.4-0.4-0.5-1-0.5-1.6c0-0.8,0.3-1.4,0.9-1.9
			c0.6-0.5,1.5-0.8,2.5-0.8c0.4,0,0.8,0,1.1,0.1c0.3,0.1,0.6,0.2,0.8,0.2h2.2v0.9h-1.4c0.2,0.2,0.4,0.5,0.5,0.8
			c0.1,0.3,0.2,0.6,0.2,0.9c0,1.1-0.5,1.8-1.5,2.2c-0.5,0.2-1.2,0.3-2,0.3c-0.2,0-0.3,0-0.3,0c-0.1,0-0.1,0-0.2,0
			c-0.2,0-0.3,0.1-0.5,0.3c-0.2,0.2-0.3,0.3-0.3,0.6c0,0.2,0,0.3,0.1,0.4c0.1,0.1,0.2,0.2,0.4,0.2c0.1,0,0.3,0,0.5,0
			c0.3,0,0.5,0,0.6,0l1.1,0c0.6,0,1.2,0.1,1.6,0.3c0.8,0.3,1.2,0.9,1.2,1.8c0,1.1-0.6,1.9-1.8,2.3c-0.6,0.2-1.4,0.3-2.4,0.3
			c-0.8,0-1.5-0.1-2.1-0.2c-1-0.3-1.4-0.7-1.4-1.3C740.5,307.8,740.6,307.5,740.8,307.3z M742.5,308.7c0.4,0.2,0.9,0.3,1.6,0.3
			c0.6,0,1.2-0.1,1.6-0.2c0.8-0.2,1.2-0.5,1.2-1c0-0.3-0.1-0.5-0.3-0.7c-0.2-0.1-0.6-0.2-1.2-0.2h-2.8c-0.2,0.1-0.3,0.3-0.4,0.4
			c-0.1,0.2-0.2,0.4-0.2,0.6C741.9,308.3,742.1,308.5,742.5,308.7z M743.1,302.2c0.2,0.5,0.5,0.7,1,0.7c0.4,0,0.7-0.2,0.9-0.6
			c0.2-0.4,0.2-0.9,0.2-1.6c0-0.8-0.1-1.3-0.3-1.7c-0.2-0.3-0.5-0.5-0.9-0.5c-0.4,0-0.7,0.2-0.9,0.6c-0.1,0.4-0.2,0.9-0.2,1.6
			C742.9,301.4,743,301.9,743.1,302.2z"/>
	</g>
	<g>
		<g>
			<path class="st10" d="M424.9,369.4c0,27.4,25.5,45.9,63.4,46.2"/>
			<g>
				<polygon class="st9" points="484.9,419.6 484.2,418.8 487.9,415.6 484.4,412.1 485.1,411.4 489.4,415.6 				"/>
			</g>
		</g>
	</g>
	<g>
		<g>
			<line class="st10" x1="494.9" y1="300.9" x2="530.9" y2="300.9"/>
			<g>
				<polygon class="st9" points="527.6,305 526.9,304.3 530.5,300.9 526.9,297.5 527.6,296.8 532,300.9 				"/>
			</g>
		</g>
	</g>
	<g>
		<g>
			<path class="st10" d="M227.7,106.7c0-27.4,12.1-46,30.1-46.7"/>
			<g>
				<polygon class="st9" points="254.7,64.4 254,63.7 257.4,60.1 253.5,57 254.2,56.2 258.8,60 				"/>
			</g>
		</g>
	</g>
</g>
<g id="Layer_4">
</g>
</svg>
