<?xml version="1.0" encoding="utf-8"?>
<!-- Generator: Adobe Illustrator 26.2.1, SVG Export Plug-In . SVG Version: 6.00 Build 0)  -->
<svg version="1.1" id="Layer_1" xmlns="http://www.w3.org/2000/svg" xmlns:xlink="http://www.w3.org/1999/xlink" x="0px" y="0px"
	 viewBox="0 0 800 600" style="enable-background:new 0 0 800 600;" xml:space="preserve">
<style type="text/css">
	.st0{fill:#363636;}
	.st1{opacity:0.2;fill:none;stroke:#00B190;enable-background:new    ;}
	.st2{opacity:0.2;fill:#EA3F05;enable-background:new    ;}
	.st3{opacity:0.2;fill:#0071DF;enable-background:new    ;}
	.st4{opacity:0.2;fill:#00B190;enable-background:new    ;}
	.st5{fill:#288197;stroke:#288197;stroke-width:1.5;}
	.st6{fill:none;stroke:#E6E6E6;stroke-width:3;}
	.st7{enable-background:new    ;}
	.st8{fill:#FFFFFF;}
	.st9{fill:none;}
</style>
<g id="Layer_2_00000129889628088125037440000009398717462328149165_">
	<g id="Layer_3_00000060731047167680794220000014845704592168324750_">
		<g id="Layer_2_00000134218153568104495580000017888189410301901223_">
			<g id="Layer_1_00000099663924970637041040000017571507284291408793_">
				<g id="Layer_2_00000137122515416361888850000000553579347018848671_">
					<g id="Layer_2_00000160912438165169224760000015005302745502489491_">
						<rect id="backgorund_00000029732311992683323440000013031801331165680038_" y="-1" class="st0" width="800" height="600"/>
					</g>
				</g>
			</g>
		</g>
	</g>
</g>
<g id="Layer_1_00000130612356534706662350000009277053494871712145_">
	<g id="Layer_2_00000108268927183326300270000016932906260037681846_">
	</g>
	<g id="Layer_1_00000183954035107114926500000001847892624246315649_">
		<path id="p_762.7951817288568" class="st1" d="M420.8,347.2c-5.9,0-10.7-4.8-10.7-10.7c0-5.9,4.8-10.7,10.7-10.7l0,0
			c5.9,0,10.7,4.8,10.7,10.7C431.6,342.3,426.7,347.2,420.8,347.2L420.8,347.2z"/>
		<path id="p_704.8488990439379" class="st2" d="M404.1,308.5c-3.5,0-6.2-2.8-6.2-6.2s2.8-6.2,6.2-6.2s6.2,2.8,6.2,6.2
			S407.6,308.5,404.1,308.5z"/>
		<path id="p_707.3997194758008" class="st2" d="M400.2,315c-1.4,0-2.7-1.2-2.7-2.7s1.2-2.7,2.7-2.7l0,0c1.5,0,2.7,1.2,2.7,2.7
			C402.9,313.8,401.7,315,400.2,315L400.2,315z"/>
		<path id="p_686.5570471010649" class="st2" d="M400.1,295.2c-1.4,0-2.5-1.1-2.5-2.5s1.1-2.5,2.5-2.5s2.5,1.1,2.5,2.5
			S401.4,295.2,400.1,295.2z"/>
		<path id="p_736.9234809258031" class="st3" d="M432,311.3c-5,0-8.9-4-8.9-8.9s4-8.9,8.9-8.9s8.9,4,8.9,8.9S436.9,311.3,432,311.3z
			"/>
		<path id="p_755.683367322478" class="st3" d="M450.8,310.5c-4.5,0-8.1-3.7-8.1-8.1c0-4.5,3.7-8.1,8.1-8.1s8.1,3.7,8.1,8.1
			C459,306.9,455.3,310.5,450.8,310.5z"/>
		<path id="p_758.2352222835394" class="st3" d="M442.2,321.6c-3.2,0-5.9-2.7-5.9-5.9c0-3.2,2.7-5.9,5.9-5.9c3.2,0,5.9,2.7,5.9,5.9
			S445.5,321.6,442.2,321.6z"/>
		<path id="p_730.6730012227229" class="st3" d="M442.1,295.3c-3,0-5.4-2.5-5.4-5.4c0-3,2.5-5.5,5.4-5.5l0,0c3,0,5.4,2.5,5.4,5.5
			C447.5,292.8,445.2,295.3,442.1,295.3L442.1,295.3z"/>
		<path id="p_715.7005903537216" class="st3" d="M431.4,291.7c-2.1,0-3.7-1.7-3.7-3.7s1.7-3.7,3.7-3.7l0,0c2.1,0,3.7,1.7,3.7,3.7
			C435,290.1,433.4,291.7,431.4,291.7L431.4,291.7z"/>
		<path id="p_745.1577656089249" class="st3" d="M430.8,320.4c-2,0-3.7-1.7-3.7-3.7s1.7-3.7,3.7-3.7l0,0c2,0,3.7,1.7,3.7,3.7
			C434.5,318.8,432.9,320.4,430.8,320.4L430.8,320.4z"/>
		<path id="p_739.1395770597233" class="st3" d="M452.7,292.7c-1.9,0-3.4-1.6-3.4-3.5s1.6-3.4,3.4-3.4c1.9,0,3.5,1.6,3.5,3.4
			C456.2,291.1,454.6,292.7,452.7,292.7z"/>
		<path id="p_766.1892971586858" class="st3" d="M453,318.3c-1.7,0-3.2-1.4-3.2-3.1c0-1.8,1.4-3.1,3.2-3.1c1.8,0,3.1,1.3,3.1,3.1
			C456.2,317,454.6,318.3,453,318.3z"/>
		<path id="p_710.5847391957514" class="st3" d="M423.7,294.6c-1.7,0-3-1.3-3-3s1.3-3,3-3s3,1.4,3,3S425.4,294.6,423.7,294.6z"/>
		<path id="p_732.6194042806351" class="st3" d="M423.4,315.9c-1.6,0-2.9-1.3-2.9-2.9s1.3-2.9,2.9-2.9s2.9,1.3,2.9,2.9
			S424.9,315.9,423.4,315.9z"/>
		<path id="p_748.6396045899162" class="st3" d="M458.8,295.6c-1.2,0-2.2-1-2.2-2.2s1-2.2,2.2-2.2s2.2,1,2.2,2.2
			S460.1,295.6,458.8,295.6z"/>
		<path id="p_767.2166923165111" class="st3" d="M458.8,313.5c-1.2,0-2.2-1-2.2-2.2s1-2.2,2.2-2.2l0,0c1.2,0,2.2,1,2.2,2.2
			S460,313.5,458.8,313.5L458.8,313.5z"/>
		<path id="p_713.5549907627715" class="st3" d="M436.5,284.6c-1.2,0-2.1-0.9-2.1-2.1s0.9-2.1,2.1-2.1s2.1,0.9,2.1,2.1
			C438.5,283.6,437.6,284.6,436.5,284.6z"/>
		<path id="p_727.0863550931502" class="st3" d="M448.6,285.4c-1.1,0-2-0.9-2-2s0.9-2,2-2l0,0c1.1,0,2,0.9,2,2
			S449.7,285.4,448.6,285.4L448.6,285.4z"/>
		<path id="p_754.0385260170602" class="st3" d="M435.4,324.3c-1,0-1.9-0.8-1.9-1.9c0-1,0.8-1.9,1.9-1.9l0,0c1,0,1.9,0.8,1.9,1.9
			C437.3,323.4,436.5,324.3,435.4,324.3L435.4,324.3z"/>
		<path id="p_767.9131501845512" class="st3" d="M449.9,323.1c-1,0-1.9-0.8-1.9-1.9c0-1,0.8-1.9,1.9-1.9c1,0,1.9,0.8,1.9,1.9
			C451.8,322.2,450.9,323.1,449.9,323.1z"/>
		<path id="p_712.1631428853328" class="st3" d="M420.5,299.1c-1,0-1.9-0.8-1.9-1.9c0-1,0.8-1.9,1.9-1.9l0,0c1,0,1.9,0.8,1.9,1.9
			S421.5,299.1,420.5,299.1L420.5,299.1z"/>
		<path id="p_722.393748701205" class="st3" d="M420.5,309c-1,0-1.8-0.8-1.8-1.8s0.8-1.8,1.8-1.8l0,0c1,0,1.8,0.8,1.8,1.8
			S421.5,309,420.5,309L420.5,309z"/>
		<path id="p_717.0199188472118" class="st3" d="M441.7,282.7c-0.9,0-1.6-0.7-1.6-1.6s0.7-1.6,1.6-1.6l0,0c0.9,0,1.6,0.7,1.6,1.6
			C443.3,282,442.6,282.7,441.7,282.7L441.7,282.7z"/>
		<path id="p_719.0276746349833" class="st3" d="M445.9,280.3c-0.9,0-1.5-0.7-1.5-1.4c0-0.9,0.7-1.4,1.5-1.4c0.9,0,1.4,0.7,1.4,1.4
			C447.3,279.6,446.8,280.3,445.9,280.3z"/>
		<path id="p_715.8654360467084" class="st3" d="M419.4,303.7c-0.8,0-1.4-0.7-1.4-1.4c0-0.8,0.7-1.4,1.4-1.4c0.8,0,1.5,0.7,1.5,1.4
			C420.9,303.1,420.2,303.7,419.4,303.7z"/>
		<path id="p_760.2555339377926" class="st3" d="M439.9,325.7c-0.7,0-1.3-0.6-1.3-1.3c0-0.7,0.6-1.3,1.3-1.3l0,0
			c0.7,0,1.3,0.6,1.3,1.3C441.3,325.1,440.7,325.7,439.9,325.7L439.9,325.7z"/>
		<path id="p_765.7581606623559" class="st3" d="M445.7,325.1c-0.7,0-1.3-0.6-1.3-1.3c0-0.7,0.6-1.3,1.3-1.3l0,0
			c0.7,0,1.3,0.6,1.3,1.3S446.4,325.1,445.7,325.1L445.7,325.1z"/>
		<path id="p_704.1305606759555" class="st3" d="M425,286.9c-0.7,0-1.2-0.5-1.2-1.2s0.4-1.2,1.2-1.2s1.2,0.5,1.2,1.2
			C426.2,286.5,425.7,286.9,425,286.9z"/>
		<path id="p_771.5970351522174" class="st3" d="M459,317.5c-0.6,0-1.2-0.5-1.2-1.2c0-0.6,0.5-1.2,1.2-1.2s1.2,0.4,1.2,1.2
			C460.1,317.1,459.6,317.5,459,317.5z"/>
		<path id="p_742.3574477750865" class="st3" d="M459,289.5c-0.6,0-1.1-0.5-1.1-1.1s0.5-1.1,1.1-1.1s1.1,0.5,1.1,1.1
			S459.6,289.5,459,289.5z"/>
		<path id="p_737.8642137138779" class="st3" d="M424.6,319.8c-0.6,0-1.1-0.5-1.1-1.1s0.5-1.1,1.1-1.1s1.1,0.5,1.1,1.1
			S425.1,319.8,424.6,319.8z"/>
		<path id="p_706.424273679859" class="st3" d="M431.7,282.5c-0.6,0-1.1-0.5-1.1-1.1s0.5-1.1,1.1-1.1l0,0c0.6,0,1.1,0.5,1.1,1.1
			C432.8,282.1,432.3,282.5,431.7,282.5L431.7,282.5z"/>
		<path id="p_730.7567454167595" class="st3" d="M453.4,284.1c-0.6,0-1-0.4-1-1s0.5-1,1-1l0,0c0.6,0,1,0.5,1,1
			C454.5,283.6,454,284.1,453.4,284.1L453.4,284.1z"/>
		<path id="p_771.5237452064868" class="st3" d="M454.5,321.9c-0.6,0-1-0.5-1-1c0-0.6,0.5-1,1-1l0,0c0.6,0,1,0.5,1,1
			C455.4,321.4,455.1,321.9,454.5,321.9L454.5,321.9z"/>
		<path id="p_749.0852019557859" class="st3" d="M430.8,324.2c-0.6,0-1-0.4-1-1s0.4-1,1-1l0,0c0.6,0,1,0.4,1,1
			C431.8,323.7,431.4,324.2,430.8,324.2L430.8,324.2z"/>
		<path id="p_765.8396598130706" class="st3" d="M443.2,327.9c-0.5,0-1-0.4-1-1c0-0.5,0.4-1,1-1c0.4,0,1,0.4,1,1
			C444.1,327.3,443.6,327.9,443.2,327.9z"/>
		<path id="p_704.75445829711" class="st3" d="M418.4,294.3c-0.5,0-0.9-0.4-0.9-0.9s0.4-0.9,0.9-0.9l0,0c0.5,0,0.9,0.4,0.9,0.9
			C419.2,293.8,418.8,294.3,418.4,294.3L418.4,294.3z"/>
		<path id="p_723.0151087170335" class="st3" d="M418.2,311.9c-0.5,0-0.9-0.4-0.9-0.9s0.4-0.9,0.9-0.9l0,0c0.5,0,0.9,0.4,0.9,0.9
			S418.7,311.9,418.2,311.9L418.2,311.9z"/>
		<path id="p_710.1303398599226" class="st3" d="M438.6,279.2c-0.4,0-0.9-0.4-0.9-0.9s0.4-0.9,0.9-0.9s0.9,0.4,0.9,0.9
			C439.5,278.8,439.1,279.2,438.6,279.2z"/>
		<path id="p_773.76857738835" class="st3" d="M458,320.8c-0.4,0-0.8-0.3-0.8-0.8c0-0.4,0.3-0.8,0.8-0.8c0.4,0,0.8,0.3,0.8,0.8
			C458.6,320.3,458.3,320.8,458,320.8z"/>
		<path id="p_715.3292524033452" class="st3" d="M416.8,305.9c-0.4,0-0.7-0.3-0.7-0.7c0-0.4,0.3-0.7,0.7-0.7c0.4,0,0.7,0.3,0.7,0.7
			C417.5,305.5,417.1,305.9,416.8,305.9z"/>
		<path id="p_709.2074822810471" class="st3" d="M416.8,300c-0.3,0-0.6-0.3-0.6-0.6c0-0.3,0.3-0.6,0.6-0.6s0.6,0.3,0.6,0.6
			C417.5,299.7,417.2,300,416.8,300z"/>
		<path id="p_736.803629434874" class="st3" d="M457.1,286.1c-0.3,0-0.6-0.3-0.6-0.6c0-0.3,0.3-0.6,0.6-0.6c0.3,0,0.6,0.3,0.6,0.6
			C457.7,285.7,457.5,286.1,457.1,286.1z"/>
		<path id="p_703.5466466371211" class="st3" d="M427.6,283.8c-0.3,0-0.5-0.2-0.5-0.5c0-0.4,0.2-0.5,0.5-0.5l0,0
			c0.3,0,0.5,0.2,0.5,0.5C428.1,283.6,427.8,283.8,427.6,283.8L427.6,283.8z"/>
		<path id="p_701.6724385974278" class="st3" d="M428.4,281.2c-0.3,0-0.5-0.2-0.5-0.5s0.2-0.4,0.5-0.4s0.5,0.2,0.5,0.4
			C429,281.1,428.7,281.2,428.4,281.2z"/>
		<path id="p_741.8095462262706" class="st3" d="M426.8,321.2c-0.2,0-0.3-0.2-0.3-0.3c0-0.2,0.2-0.3,0.3-0.3l0,0
			c0.2,0,0.3,0.2,0.3,0.3C427.1,321.1,426.9,321.2,426.8,321.2L426.8,321.2z"/>
		<path id="p_752.1049459131756" class="st4" d="M417.3,340.5c-2.9,0-5.2-2.3-5.2-5.2s2.3-5.2,5.2-5.2c2.9,0,5.2,2.3,5.2,5.2
			C422.6,338.1,420.2,340.5,417.3,340.5z"/>
		<path id="p_759.4560699584389" class="st4" d="M427,337.8c-1.5,0-2.7-1.2-2.7-2.7s1.2-2.7,2.7-2.7c1.4,0,2.7,1.2,2.7,2.7
			C429.7,336.7,428.4,337.8,427,337.8z"/>
		<path id="p_763.5346414017791" class="st4" d="M424.5,344.2c-1.4,0-2.6-1.2-2.6-2.6s1.2-2.6,2.6-2.6s2.6,1.2,2.6,2.6
			C427,343.1,425.8,344.2,424.5,344.2z"/>
		<path id="p_749.8836044427812" class="st4" d="M424.1,331.6c-0.8,0-1.4-0.7-1.4-1.4c0-0.8,0.7-1.4,1.4-1.4c0.7,0,1.4,0.7,1.4,1.4
			C425.6,330.9,424.9,331.6,424.1,331.6z"/>
		<path id="p_743.5569096752089" class="st4" d="M420.7,329c-0.3,0-0.6-0.3-0.6-0.6c0-0.3,0.3-0.6,0.6-0.6c0.3,0,0.6,0.3,0.6,0.6
			S421,329,420.7,329z"/>
		<g id="Layer_3">
			<path id="p_767.6390129983421_00000118397570328917944430000002949759489156791723_" class="st5" d="M308.7,455.4
				c-84.5,0-153-68.5-153-153s68.5-153,153-153s153,68.5,153,153S393.2,455.4,308.7,455.4z"/>
		</g>
		<path id="p_989" class="st6" d="M400,549.8c-136.7,0-247.5-110.7-247.5-247.5S263.3,54.8,400,54.8s247.5,110.7,247.5,247.5
			S536.7,549.8,400,549.8z"/>
		<g>
			<g class="st7">
				<path class="st8" d="M240.7,276.2c0,1.1-0.5,2-1.4,2.8c-0.9,0.8-2.1,1.2-3.6,1.3v3.5H234v-3.5c-0.7,0-1.6-0.1-2.5-0.3
					c-0.9-0.2-1.7-0.4-2.2-0.6v-2.8h0.4c0.6,0.3,1.3,0.6,2,0.8s1.5,0.3,2.3,0.4v-2.6l-0.9-0.2c-0.6-0.1-1.1-0.3-1.6-0.5
					c-0.5-0.2-0.9-0.4-1.3-0.7c-0.4-0.3-0.6-0.7-0.8-1.1c-0.2-0.4-0.3-1-0.3-1.6c0-1,0.4-1.8,1.3-2.5c0.9-0.7,2.1-1.1,3.6-1.2v-2.3
					h1.7v2.2c0.6,0,1.3,0.1,2.1,0.3c0.8,0.1,1.4,0.3,1.9,0.5v2.8h-0.4c-0.5-0.3-1-0.5-1.6-0.7c-0.6-0.2-1.3-0.3-1.9-0.3v2.5l0.8,0.2
					c1.5,0.3,2.5,0.7,3.2,1.3C240.4,274.4,240.7,275.2,240.7,276.2z M234.2,272.1v-2.2c-0.4,0-0.8,0.1-1.1,0.3s-0.5,0.4-0.5,0.8
					c0,0.3,0.1,0.5,0.3,0.7C233.1,271.9,233.5,272,234.2,272.1z M237.2,276.6c0-0.4-0.2-0.7-0.5-0.8s-0.7-0.3-1-0.4v2.4
					c0.4-0.1,0.8-0.2,1.1-0.4C237.1,277.2,237.2,277,237.2,276.6z"/>
				<path class="st8" d="M261.4,275.5c0,0.7-0.1,1.4-0.4,2.1s-0.7,1.2-1.2,1.6c-0.6,0.5-1.3,0.9-2,1.1c-0.8,0.2-1.6,0.4-2.6,0.4
					c-1.2,0-2.1-0.1-2.9-0.3c-0.8-0.2-1.4-0.4-1.9-0.6v-3.2h0.4c0.6,0.3,1.2,0.6,1.9,0.9c0.7,0.2,1.4,0.3,2,0.3c0.4,0,0.8,0,1.3-0.1
					c0.5-0.1,0.8-0.3,1.1-0.5c0.2-0.2,0.4-0.4,0.5-0.6c0.1-0.2,0.2-0.5,0.2-1c0-0.3-0.1-0.6-0.2-0.9c-0.2-0.2-0.3-0.4-0.6-0.6
					c-0.3-0.2-0.8-0.4-1.3-0.4c-0.5-0.1-0.9-0.1-1.3-0.1c-0.6,0-1.1,0-1.7,0.1s-1,0.2-1.4,0.3h-0.4V266H261v2.8h-6.7v2.3
					c0.2,0,0.5,0,0.8,0c0.3,0,0.6,0,0.8,0c0.8,0,1.5,0.1,2.1,0.2c0.6,0.2,1.2,0.4,1.6,0.6c0.6,0.4,1,0.8,1.4,1.4
					C261.2,273.9,261.4,274.6,261.4,275.5z"/>
				<path class="st8" d="M275.7,273.2c0,1.2-0.1,2.3-0.3,3.3s-0.6,1.7-1,2.4c-0.5,0.6-1.1,1.1-1.8,1.4c-0.7,0.3-1.7,0.5-2.8,0.5
					c-1.1,0-2-0.2-2.8-0.5c-0.8-0.3-1.4-0.8-1.8-1.4c-0.5-0.6-0.8-1.4-1-2.4s-0.3-2-0.3-3.2c0-1.3,0.1-2.3,0.3-3.3
					c0.2-0.9,0.6-1.7,1-2.3c0.5-0.6,1.1-1.1,1.9-1.4c0.8-0.3,1.7-0.5,2.7-0.5c1.1,0,2,0.2,2.8,0.5c0.7,0.3,1.4,0.8,1.8,1.5
					c0.5,0.6,0.8,1.4,1,2.3C275.6,270.9,275.7,271.9,275.7,273.2z M272,273.2c0-1.7-0.2-3-0.5-3.7c-0.3-0.7-0.9-1.1-1.7-1.1
					c-0.8,0-1.4,0.4-1.7,1.1c-0.3,0.7-0.5,2-0.5,3.7c0,1.7,0.2,2.9,0.5,3.7c0.3,0.8,0.9,1.1,1.7,1.1s1.3-0.4,1.7-1.1
					C271.8,276.1,272,274.9,272,273.2z"/>
				<path class="st8" d="M288.5,273.6c0.3,0.3,0.6,0.6,0.8,0.9c0.2,0.4,0.3,0.8,0.3,1.4c0,0.7-0.1,1.3-0.4,1.9
					c-0.3,0.6-0.7,1.1-1.2,1.5c-0.5,0.4-1.2,0.7-1.9,0.9s-1.6,0.3-2.7,0.3c-1.2,0-2.2-0.1-3.1-0.3c-0.9-0.2-1.5-0.4-2.1-0.6v-3.2
					h0.4c0.6,0.3,1.2,0.6,2,0.9s1.5,0.4,2.1,0.4c0.4,0,0.8,0,1.2-0.1c0.4-0.1,0.8-0.2,1.1-0.4c0.2-0.2,0.4-0.4,0.6-0.6
					c0.1-0.2,0.2-0.6,0.2-1c0-0.4-0.1-0.7-0.3-1c-0.2-0.2-0.4-0.4-0.8-0.5c-0.3-0.1-0.7-0.2-1.1-0.2c-0.4,0-0.9,0-1.2,0h-0.8v-2.6
					h0.8c0.5,0,0.9,0,1.3,0s0.7-0.1,1-0.2c0.3-0.1,0.5-0.3,0.6-0.5s0.2-0.5,0.2-0.9c0-0.3-0.1-0.5-0.2-0.7c-0.1-0.2-0.3-0.3-0.6-0.4
					c-0.3-0.1-0.5-0.2-0.9-0.2c-0.3,0-0.6-0.1-0.9-0.1c-0.6,0-1.3,0.1-2,0.3c-0.7,0.2-1.4,0.5-2.1,0.9h-0.4v-3.1
					c0.5-0.2,1.2-0.4,2.2-0.6s1.8-0.3,2.8-0.3c0.9,0,1.7,0.1,2.4,0.2c0.7,0.2,1.2,0.4,1.7,0.6c0.5,0.3,0.9,0.7,1.2,1.2
					s0.4,1,0.4,1.6c0,0.8-0.2,1.5-0.7,2.1c-0.5,0.6-1.2,1-2,1.2v0.1c0.3,0,0.7,0.1,1,0.3C287.8,273.2,288.2,273.4,288.5,273.6z"/>
				<path class="st8" d="M296.8,276.6l-3.5,7.4h-2.2l1.9-7.4H296.8z"/>
				<path class="st8" d="M311.3,277h-2v3.4h-3.5V277h-7v-2.7l6.7-8.4h3.8v8.5h2V277z M305.8,274.4v-5.2l-4.2,5.2H305.8z"/>
				<path class="st8" d="M324.9,268.8l-6.5,11.5h-4.1l6.8-11.6h-7.4V266h11.3V268.8z"/>
				<path class="st8" d="M339,268.8l-6.5,11.5h-4.1l6.8-11.6h-7.4V266H339V268.8z"/>
				<path class="st8" d="M346.2,276.6l-3.5,7.4h-2.2l1.9-7.4H346.2z"/>
				<path class="st8" d="M359.6,280.4H350v-2.5h3v-7.6h-3v-2.3c0.5,0,0.9,0,1.3-0.1s0.8-0.2,1.1-0.3c0.3-0.2,0.6-0.4,0.8-0.6
					c0.2-0.3,0.3-0.6,0.3-1h3.2v11.9h3V280.4z"/>
				<path class="st8" d="M374.2,272.4c0,1.2-0.2,2.3-0.5,3.4c-0.3,1-0.8,1.9-1.4,2.6c-0.7,0.8-1.5,1.3-2.5,1.7
					c-1,0.4-2.2,0.6-3.5,0.6c-0.5,0-1,0-1.5-0.1s-0.9-0.1-1.1-0.2v-2.8h0.4c0.2,0.1,0.5,0.2,0.8,0.3c0.4,0.1,0.8,0.2,1.5,0.2
					c0.5,0,1-0.1,1.5-0.2c0.5-0.1,0.9-0.3,1.2-0.6c0.4-0.3,0.7-0.7,0.9-1.1c0.2-0.4,0.4-1,0.5-1.6c-0.6,0.3-1.1,0.6-1.6,0.7
					c-0.5,0.2-1.1,0.3-1.8,0.3c-0.5,0-1.1-0.1-1.6-0.2c-0.5-0.1-0.9-0.3-1.3-0.6c-0.5-0.4-1-0.9-1.3-1.5c-0.3-0.6-0.5-1.4-0.5-2.4
					c0-1.5,0.5-2.8,1.6-3.8c1.1-1,2.5-1.5,4.2-1.5c0.9,0,1.7,0.1,2.4,0.4s1.3,0.6,1.8,1.1c0.6,0.6,1,1.3,1.3,2.1
					C374.1,270.1,374.2,271.1,374.2,272.4z M370.5,271.8c0-0.8-0.1-1.4-0.2-1.9s-0.4-0.9-0.6-1.2c-0.2-0.2-0.4-0.4-0.6-0.4
					c-0.2-0.1-0.5-0.1-0.8-0.1c-0.3,0-0.5,0-0.7,0.1c-0.2,0.1-0.4,0.2-0.7,0.5c-0.2,0.2-0.4,0.5-0.5,0.8c-0.1,0.3-0.2,0.7-0.2,1.2
					c0,0.5,0.1,0.8,0.2,1.1c0.1,0.3,0.3,0.5,0.6,0.7c0.2,0.2,0.5,0.3,0.8,0.4c0.3,0.1,0.6,0.1,1,0.1c0.3,0,0.6,0,0.9-0.1
					c0.3-0.1,0.6-0.2,0.8-0.2c0-0.1,0-0.2,0-0.3C370.5,272.3,370.5,272.1,370.5,271.8z"/>
				<path class="st8" d="M388.6,280.4h-11.3V278c0.9-0.6,1.7-1.3,2.6-2c0.9-0.7,1.6-1.3,2.1-1.8c0.8-0.8,1.3-1.4,1.7-2
					c0.3-0.6,0.5-1.1,0.5-1.7c0-0.7-0.2-1.2-0.6-1.5c-0.4-0.4-1-0.5-1.8-0.5c-0.6,0-1.2,0.1-1.9,0.4s-1.3,0.6-1.8,0.9h-0.3v-3.2
					c0.5-0.2,1.1-0.4,2-0.6c0.9-0.2,1.8-0.3,2.7-0.3c1.8,0,3.2,0.4,4.1,1.1c0.9,0.8,1.4,1.8,1.4,3.2c0,0.9-0.2,1.8-0.7,2.6
					s-1.1,1.7-2.1,2.5c-0.6,0.5-1.2,1-1.8,1.5c-0.6,0.5-1,0.8-1.3,1h6.5V280.4z"/>
			</g>
			<rect x="210.2" y="296.7" class="st9" width="197" height="76.5"/>
			<g class="st7">
				<path class="st8" d="M218.6,297.1h10.7l0.1,3.2H229c-0.2-1-0.5-1.7-0.8-2c-0.3-0.3-1.1-0.5-2.2-0.5h-1.1v9.7
					c0,0.7,0.1,1.2,0.3,1.4c0.2,0.2,0.7,0.3,1.5,0.3v0.4h-5.5v-0.4c0.8-0.1,1.3-0.2,1.5-0.4c0.2-0.2,0.3-0.7,0.3-1.5v-9.5H222
					c-1,0-1.8,0.2-2.1,0.5c-0.4,0.3-0.7,1-0.9,2h-0.5L218.6,297.1z"/>
				<path class="st8" d="M229.2,309.3c0.6,0,0.9-0.1,1.1-0.3s0.3-0.5,0.3-1v-4.2c0-0.6-0.1-1-0.2-1.3c-0.1-0.3-0.3-0.4-0.6-0.4
					c-0.1,0-0.1,0-0.2,0c-0.1,0-0.2,0-0.3,0.1v-0.3c0.3-0.1,0.7-0.2,1.1-0.4c0.4-0.1,0.6-0.2,0.8-0.3c0.3-0.1,0.6-0.2,0.9-0.4
					c0,0,0.1,0,0.1,0c0,0,0,0.1,0,0.2v1.5c0.4-0.5,0.8-1,1.1-1.3s0.7-0.5,1.1-0.5c0.3,0,0.6,0.1,0.8,0.3c0.2,0.2,0.3,0.4,0.3,0.7
					c0,0.3-0.1,0.5-0.2,0.6c-0.2,0.2-0.3,0.3-0.6,0.3c-0.2,0-0.5-0.1-0.7-0.3c-0.2-0.2-0.4-0.3-0.6-0.3c-0.2,0-0.5,0.2-0.8,0.5
					s-0.5,0.7-0.5,1.1v4.2c0,0.5,0.1,0.9,0.4,1.1c0.2,0.2,0.7,0.3,1.2,0.3v0.3h-4.5V309.3z"/>
				<path class="st8" d="M238.4,301.1v5.9c0,0.4,0.1,0.8,0.2,1c0.2,0.5,0.6,0.7,1.3,0.7c0.4,0,0.8-0.1,1.2-0.4
					c0.2-0.2,0.5-0.4,0.7-0.6v-5.1c0-0.5-0.1-0.8-0.3-0.9s-0.6-0.2-1.1-0.3v-0.3h3v6.5c0,0.4,0.1,0.7,0.2,0.9c0.2,0.2,0.5,0.2,1,0.2
					v0.3c-0.3,0.1-0.6,0.2-0.7,0.2c-0.2,0-0.4,0.1-0.8,0.3c-0.2,0.1-0.5,0.2-1.1,0.4c0,0,0,0-0.1,0c0,0,0-0.1,0-0.1v-1.5
					c-0.4,0.5-0.8,0.9-1.1,1.1c-0.5,0.4-1.1,0.6-1.7,0.6c-0.5,0-1-0.2-1.5-0.6c-0.5-0.4-0.7-1-0.7-1.9v-4.8c0-0.5-0.1-0.8-0.3-1
					c-0.1-0.1-0.4-0.2-0.9-0.2v-0.3H238.4z"/>
				<path class="st8" d="M245.2,309.4c0.5,0,0.8-0.1,1-0.2c0.2-0.2,0.4-0.5,0.4-1.1v-4.8c0-0.5-0.1-0.8-0.2-0.9
					c-0.1-0.1-0.3-0.2-0.6-0.2c-0.1,0-0.2,0-0.3,0c-0.1,0-0.1,0-0.2,0.1v-0.3l0.7-0.2c0.2-0.1,0.6-0.2,1.2-0.4
					c0.5-0.2,0.8-0.3,0.9-0.3s0,0,0.1,0c0,0,0,0.1,0,0.2v1.2c0.6-0.6,1.1-0.9,1.6-1.1c0.4-0.2,0.9-0.3,1.4-0.3
					c0.6,0,1.1,0.2,1.5,0.6c0.2,0.2,0.4,0.6,0.5,1c0.5-0.5,0.9-0.8,1.2-1c0.6-0.4,1.2-0.6,1.8-0.6c1,0,1.7,0.4,2,1.2
					c0.2,0.5,0.3,1.2,0.3,2.2v3.8c0,0.4,0.1,0.7,0.3,0.9c0.2,0.2,0.5,0.3,1,0.3v0.2h-4.2v-0.3c0.5,0,0.9-0.2,1.1-0.3
					c0.2-0.2,0.3-0.5,0.3-1v-4c0-0.6-0.1-1-0.2-1.3c-0.2-0.5-0.7-0.8-1.3-0.8c-0.4,0-0.8,0.1-1.2,0.4c-0.2,0.2-0.5,0.4-0.8,0.7v4.7
					c0,0.5,0.1,0.9,0.3,1.1s0.5,0.4,1.1,0.4v0.2h-4.2v-0.2c0.6-0.1,1-0.2,1.1-0.4c0.2-0.2,0.2-0.7,0.2-1.6v-2.6c0-0.9-0.1-1.6-0.2-2
					c-0.2-0.6-0.6-0.9-1.3-0.9c-0.4,0-0.7,0.1-1.1,0.3c-0.4,0.2-0.7,0.5-1,0.8v5c0,0.5,0.1,0.8,0.2,1s0.5,0.3,1.1,0.3v0.2h-4.2
					V309.4z"/>
				<path class="st8" d="M259.7,313.4c0.6,0,0.9-0.2,1.1-0.4s0.2-0.5,0.2-1v-8.9c0-0.5-0.1-0.8-0.2-0.9c-0.1-0.1-0.3-0.2-0.6-0.2
					c-0.1,0-0.1,0-0.2,0c-0.1,0-0.1,0-0.3,0v-0.3l0.9-0.3c0,0,0.6-0.2,1.9-0.6c0,0,0.1,0,0.1,0c0,0,0,0.1,0,0.1v1.2
					c0.4-0.4,0.8-0.7,1.1-0.9c0.6-0.3,1.1-0.5,1.7-0.5c0.8,0,1.6,0.4,2.2,1.1c0.6,0.7,0.9,1.7,0.9,3c0,1.2-0.4,2.3-1.1,3.3
					s-1.7,1.5-2.8,1.5c-0.3,0-0.6,0-0.9-0.1c-0.4-0.1-0.8-0.4-1.1-0.7v3c0,0.6,0.1,1,0.3,1.1s0.6,0.2,1.3,0.3v0.3h-4.6V313.4z
					 M263.3,308.8c0.3,0.2,0.7,0.3,1.1,0.3c0.7,0,1.2-0.3,1.7-1c0.5-0.7,0.7-1.6,0.7-2.8c0-1.1-0.2-2-0.7-2.5
					c-0.5-0.6-1.1-0.8-1.7-0.8c-0.5,0-0.9,0.1-1.2,0.4c-0.4,0.3-0.6,0.6-0.6,0.8v4.6C262.8,308.3,263,308.6,263.3,308.8z"/>
				<path class="st8" d="M278.6,301.1v0.7h-1.9l0,5.3c0,0.5,0,0.8,0.1,1.1c0.1,0.4,0.4,0.6,0.9,0.6c0.2,0,0.4-0.1,0.6-0.2
					s0.3-0.3,0.6-0.5l0.2,0.2l-0.2,0.3c-0.3,0.4-0.7,0.7-1,0.9c-0.4,0.2-0.7,0.3-1,0.3c-0.7,0-1.2-0.3-1.5-1
					c-0.1-0.4-0.2-0.8-0.2-1.5v-5.6h-1c0,0-0.1,0-0.1-0.1c0,0,0,0,0-0.1c0-0.1,0-0.1,0-0.1c0,0,0.1-0.1,0.3-0.2
					c0.4-0.4,0.7-0.6,0.9-0.9c0.2-0.2,0.6-0.8,1.3-1.7c0.1,0,0.1,0,0.1,0c0,0,0,0.1,0,0.1v2.3H278.6z"/>
				<path class="st8" d="M280.7,302.2c0.8-0.8,1.8-1.3,3-1.3c1.2,0,2.2,0.4,3,1.2s1.2,1.9,1.2,3.2c0,1.2-0.4,2.3-1.2,3.2
					c-0.8,0.9-1.8,1.4-3,1.4c-1.2,0-2.2-0.4-3-1.3c-0.8-0.9-1.2-2-1.2-3.3C279.5,304.1,279.9,303.1,280.7,302.2z M282.1,302
					c-0.6,0.6-0.9,1.5-0.9,2.9c0,1.1,0.2,2.1,0.7,3.1s1.2,1.4,2.1,1.4c0.7,0,1.2-0.3,1.6-1s0.6-1.5,0.6-2.5c0-1.1-0.2-2.1-0.7-3
					s-1.2-1.4-2.1-1.4C282.9,301.5,282.5,301.7,282.1,302z"/>
				<path class="st8" d="M293.3,301.1v0.7h-1.9l0,5.3c0,0.5,0,0.8,0.1,1.1c0.1,0.4,0.4,0.6,0.9,0.6c0.2,0,0.4-0.1,0.6-0.2
					s0.3-0.3,0.6-0.5l0.2,0.2l-0.2,0.3c-0.3,0.4-0.7,0.7-1,0.9c-0.4,0.2-0.7,0.3-1,0.3c-0.7,0-1.2-0.3-1.5-1
					c-0.1-0.4-0.2-0.8-0.2-1.5v-5.6h-1c0,0-0.1,0-0.1-0.1c0,0,0,0,0-0.1c0-0.1,0-0.1,0-0.1c0,0,0.1-0.1,0.3-0.2
					c0.4-0.4,0.7-0.6,0.9-0.9c0.2-0.2,0.6-0.8,1.3-1.7c0.1,0,0.1,0,0.1,0c0,0,0,0.1,0,0.1v2.3H293.3z"/>
				<path class="st8" d="M295.8,305.5c0.6-0.4,1.7-0.9,3.4-1.5v-0.8c0-0.6-0.1-1.1-0.2-1.3c-0.2-0.4-0.6-0.6-1.3-0.6
					c-0.3,0-0.6,0.1-0.9,0.2c-0.3,0.2-0.4,0.4-0.4,0.7c0,0.1,0,0.2,0,0.4c0,0.2,0,0.3,0,0.3c0,0.3-0.1,0.6-0.3,0.7
					c-0.1,0.1-0.3,0.1-0.5,0.1c-0.3,0-0.5-0.1-0.6-0.3c-0.1-0.2-0.2-0.4-0.2-0.6c0-0.4,0.3-0.9,0.8-1.4c0.5-0.5,1.3-0.7,2.3-0.7
					c1.2,0,2,0.4,2.4,1.2c0.2,0.4,0.3,1,0.3,1.9v3.7c0,0.4,0,0.6,0.1,0.7c0.1,0.2,0.2,0.4,0.5,0.4c0.1,0,0.3,0,0.4-0.1
					c0.1,0,0.3-0.1,0.5-0.3v0.5c-0.2,0.2-0.4,0.4-0.6,0.6c-0.3,0.2-0.7,0.4-1.1,0.4c-0.4,0-0.7-0.1-0.9-0.4c-0.2-0.3-0.3-0.6-0.3-1
					c-0.5,0.4-0.9,0.7-1.2,0.9c-0.6,0.3-1.1,0.5-1.6,0.5c-0.5,0-1-0.2-1.4-0.6s-0.6-0.8-0.6-1.4
					C294.4,306.9,294.9,306.1,295.8,305.5z M299.1,304.5c-0.7,0.2-1.3,0.5-1.8,0.8c-0.9,0.5-1.3,1.2-1.3,1.9c0,0.6,0.2,1,0.6,1.2
					c0.2,0.2,0.5,0.3,0.8,0.3c0.4,0,0.8-0.1,1.2-0.3c0.4-0.2,0.6-0.5,0.6-0.9V304.5z"/>
				<path class="st8" d="M302.5,309.3c0.6-0.1,1-0.2,1.2-0.3s0.3-0.5,0.3-1v-9c0-0.4,0-0.7-0.1-0.8c-0.1-0.3-0.4-0.4-0.7-0.4
					c-0.1,0-0.2,0-0.3,0s-0.2,0-0.4,0.1v-0.3c0.8-0.2,1.8-0.5,3-0.9c0,0,0.1,0,0.1,0.1c0,0,0,0.1,0,0.2V308c0,0.5,0.1,0.9,0.3,1
					c0.2,0.2,0.6,0.3,1.1,0.3v0.3h-4.5V309.3z"/>
				<path class="st8" d="M313.1,306.7h0.3c0.1,0.7,0.3,1.2,0.6,1.6c0.4,0.7,1.1,1,1.9,1c0.5,0,0.8-0.1,1.1-0.4
					c0.3-0.3,0.4-0.6,0.4-1c0-0.3-0.1-0.5-0.2-0.7s-0.4-0.5-0.8-0.7l-1-0.6c-0.8-0.4-1.3-0.8-1.7-1.2c-0.4-0.4-0.5-0.9-0.5-1.5
					c0-0.7,0.2-1.3,0.7-1.7c0.5-0.4,1.1-0.7,1.9-0.7c0.3,0,0.7,0.1,1.1,0.2s0.6,0.2,0.7,0.2c0.1,0,0.2,0,0.2,0c0,0,0.1-0.1,0.1-0.1
					h0.2l0.1,2.6h-0.3c-0.1-0.6-0.3-1.1-0.5-1.4c-0.4-0.6-0.9-0.9-1.7-0.9c-0.4,0-0.8,0.1-1,0.4s-0.4,0.6-0.4,0.9
					c0,0.6,0.4,1.1,1.3,1.5l1.2,0.7c1.3,0.7,2,1.5,2,2.5c0,0.7-0.3,1.3-0.8,1.8c-0.5,0.5-1.3,0.7-2.1,0.7c-0.4,0-0.8-0.1-1.3-0.2
					s-0.7-0.2-0.8-0.2c-0.1,0-0.1,0-0.2,0.1c-0.1,0.1-0.1,0.1-0.1,0.2h-0.2V306.7z"/>
				<path class="st8" d="M319.5,313.4c0.6,0,0.9-0.2,1.1-0.4s0.2-0.5,0.2-1v-8.9c0-0.5-0.1-0.8-0.2-0.9c-0.1-0.1-0.3-0.2-0.6-0.2
					c-0.1,0-0.1,0-0.2,0c-0.1,0-0.1,0-0.3,0v-0.3l0.9-0.3c0,0,0.6-0.2,1.9-0.6c0,0,0.1,0,0.1,0c0,0,0,0.1,0,0.1v1.2
					c0.4-0.4,0.8-0.7,1.1-0.9c0.6-0.3,1.1-0.5,1.7-0.5c0.8,0,1.6,0.4,2.2,1.1c0.6,0.7,0.9,1.7,0.9,3c0,1.2-0.4,2.3-1.1,3.3
					s-1.7,1.5-2.8,1.5c-0.3,0-0.6,0-0.9-0.1c-0.4-0.1-0.8-0.4-1.1-0.7v3c0,0.6,0.1,1,0.3,1.1s0.6,0.2,1.3,0.3v0.3h-4.6V313.4z
					 M323.2,308.8c0.3,0.2,0.7,0.3,1.1,0.3c0.7,0,1.2-0.3,1.7-1c0.5-0.7,0.7-1.6,0.7-2.8c0-1.1-0.2-2-0.7-2.5
					c-0.5-0.6-1.1-0.8-1.7-0.8c-0.5,0-0.9,0.1-1.2,0.4c-0.4,0.3-0.6,0.6-0.6,0.8v4.6C322.6,308.3,322.9,308.6,323.2,308.8z"/>
				<path class="st8" d="M335.5,301.8c0.7,0.6,1,1.5,1,2.6h-5.9c0.1,1.4,0.4,2.5,1,3.1s1.3,1,2.1,1c0.6,0,1.2-0.2,1.6-0.5
					c0.4-0.3,0.9-0.8,1.2-1.4l0.3,0.1c-0.3,0.8-0.7,1.5-1.4,2.2c-0.7,0.7-1.5,1-2.5,1c-1.2,0-2.1-0.4-2.7-1.3
					c-0.6-0.9-0.9-1.9-0.9-3c0-1.2,0.4-2.3,1.1-3.2c0.7-0.9,1.7-1.3,2.9-1.3C334.1,300.9,334.9,301.2,335.5,301.8z M331.1,302.5
					c-0.2,0.3-0.3,0.8-0.4,1.3h3.9c-0.1-0.6-0.2-1.1-0.4-1.4c-0.3-0.5-0.8-0.8-1.5-0.8C332,301.6,331.5,301.9,331.1,302.5z"/>
				<path class="st8" d="M337.6,309.3c0.4-0.1,0.7-0.2,0.9-0.3s0.3-0.5,0.3-1.1v-4.7c0-0.4,0-0.7-0.1-0.8c-0.1-0.2-0.4-0.3-0.7-0.3
					c-0.1,0-0.1,0-0.2,0c-0.1,0-0.1,0-0.2,0v-0.3c0.3-0.1,0.8-0.3,1.8-0.6l0.9-0.3c0,0,0.1,0,0.1,0c0,0,0,0.1,0,0.1v1.4
					c0.6-0.5,1-0.9,1.3-1.1c0.5-0.3,1-0.5,1.5-0.5c0.4,0,0.8,0.1,1.1,0.4c0.7,0.5,1,1.3,1,2.5v4.3c0,0.4,0.1,0.8,0.3,1
					c0.2,0.2,0.5,0.3,0.9,0.3v0.3h-3.9v-0.3c0.4-0.1,0.8-0.2,0.9-0.4c0.2-0.2,0.3-0.6,0.3-1.2v-3.9c0-0.5-0.1-1-0.3-1.3
					s-0.6-0.5-1.1-0.5c-0.4,0-0.7,0.1-1.1,0.4c-0.2,0.1-0.5,0.4-0.8,0.7v5.2c0,0.4,0.1,0.7,0.3,0.9c0.2,0.2,0.5,0.2,0.9,0.2v0.3h-4
					V309.3z"/>
				<path class="st8" d="M347.1,309.3c0.7-0.1,1.1-0.2,1.2-0.3c0.2-0.2,0.3-0.6,0.3-1.3v-4.4c0-0.4,0-0.7-0.1-0.8
					c-0.1-0.3-0.3-0.4-0.6-0.4c-0.1,0-0.1,0-0.2,0c-0.1,0-0.3,0.1-0.6,0.1v-0.3l0.4-0.1c1.1-0.4,1.8-0.6,2.3-0.8
					c0.2-0.1,0.3-0.1,0.3-0.1c0,0,0,0.1,0,0.1v6.6c0,0.7,0.1,1.1,0.3,1.3c0.2,0.2,0.6,0.3,1.1,0.3v0.3h-4.5V309.3z M348.6,297
					c0.2-0.2,0.4-0.3,0.7-0.3c0.3,0,0.5,0.1,0.7,0.3c0.2,0.2,0.3,0.4,0.3,0.7c0,0.3-0.1,0.5-0.3,0.7c-0.2,0.2-0.4,0.3-0.7,0.3
					c-0.3,0-0.5-0.1-0.7-0.3c-0.2-0.2-0.3-0.4-0.3-0.7C348.3,297.4,348.4,297.2,348.6,297z"/>
				<path class="st8" d="M352.3,309.3c0.4-0.1,0.7-0.2,0.9-0.3s0.3-0.5,0.3-1.1v-4.7c0-0.4,0-0.7-0.1-0.8c-0.1-0.2-0.4-0.3-0.7-0.3
					c-0.1,0-0.1,0-0.2,0c-0.1,0-0.1,0-0.2,0v-0.3c0.3-0.1,0.8-0.3,1.8-0.6l0.9-0.3c0,0,0.1,0,0.1,0c0,0,0,0.1,0,0.1v1.4
					c0.6-0.5,1-0.9,1.3-1.1c0.5-0.3,1-0.5,1.5-0.5c0.4,0,0.8,0.1,1.1,0.4c0.7,0.5,1,1.3,1,2.5v4.3c0,0.4,0.1,0.8,0.3,1
					c0.2,0.2,0.5,0.3,0.9,0.3v0.3h-3.9v-0.3c0.4-0.1,0.8-0.2,0.9-0.4c0.2-0.2,0.3-0.6,0.3-1.2v-3.9c0-0.5-0.1-1-0.3-1.3
					s-0.6-0.5-1.1-0.5c-0.4,0-0.7,0.1-1.1,0.4c-0.2,0.1-0.5,0.4-0.8,0.7v5.2c0,0.4,0.1,0.7,0.3,0.9c0.2,0.2,0.5,0.2,0.9,0.2v0.3h-4
					V309.3z"/>
				<path class="st8" d="M363.2,305.5c-0.3-0.5-0.5-1-0.5-1.6c0-0.7,0.3-1.4,0.9-2c0.6-0.6,1.4-1,2.4-1c0.4,0,0.9,0.1,1.5,0.3
					c0.5,0.2,1.1,0.3,1.6,0.3c0.1,0,0.3,0,0.6,0c0.3,0,0.5,0,0.6,0h0.1v0.7h-1.6c0.1,0.3,0.2,0.5,0.3,0.7c0.1,0.4,0.2,0.7,0.2,1
					c0,0.7-0.3,1.3-0.9,1.9c-0.6,0.6-1.4,0.9-2.3,0.9c-0.2,0-0.4,0-0.8-0.1c-0.2,0-0.4,0.2-0.7,0.5c-0.3,0.3-0.4,0.5-0.4,0.7
					c0,0.2,0.2,0.3,0.6,0.4c0.3,0.1,0.6,0.1,0.9,0.1c1.6,0,2.7,0.1,3.2,0.3c0.9,0.3,1.4,0.9,1.4,1.9c0,1-0.5,1.7-1.6,2.3
					c-1.1,0.6-2.2,0.9-3.3,0.9c-1,0-1.8-0.2-2.4-0.6s-0.9-0.8-0.9-1.3c0-0.2,0.1-0.4,0.2-0.7c0.2-0.2,0.5-0.5,0.9-0.9l0.6-0.5
					l0.1-0.1c-0.3-0.1-0.5-0.2-0.6-0.3c-0.2-0.2-0.4-0.4-0.4-0.7c0-0.2,0.1-0.5,0.3-0.8c0.2-0.3,0.7-0.7,1.4-1.3
					C363.9,306.3,363.5,306,363.2,305.5z M364.2,312.4c0.6,0.2,1.2,0.3,2,0.3c1,0,1.9-0.2,2.5-0.5c0.6-0.4,1-0.8,1-1.3
					c0-0.4-0.3-0.7-0.8-0.8c-0.3-0.1-0.9-0.1-1.8-0.1c-0.2,0-0.5,0-0.7,0c-0.3,0-0.5,0-0.7,0c-0.1,0-0.4,0-0.7-0.1
					c-0.3,0-0.5-0.1-0.7-0.1c-0.1,0-0.3,0.2-0.5,0.6c-0.3,0.4-0.4,0.8-0.4,1.1C363.3,311.8,363.6,312.2,364.2,312.4z M367.1,306
					c0.4-0.3,0.6-0.8,0.6-1.5c0-0.6-0.1-1.2-0.4-2s-0.8-1.1-1.5-1.1c-0.6,0-1,0.3-1.2,0.9c-0.1,0.3-0.2,0.7-0.2,1.1
					c0,0.8,0.2,1.4,0.5,2c0.4,0.6,0.8,0.9,1.4,0.9C366.6,306.3,366.9,306.2,367.1,306z"/>
				<path class="st8" d="M377.3,302.2c0.8-0.8,1.8-1.3,3-1.3c1.2,0,2.2,0.4,3,1.2s1.2,1.9,1.2,3.2c0,1.2-0.4,2.3-1.2,3.2
					c-0.8,0.9-1.8,1.4-3,1.4c-1.2,0-2.2-0.4-3-1.3c-0.8-0.9-1.2-2-1.2-3.3C376.1,304.1,376.5,303.1,377.3,302.2z M378.7,302
					c-0.6,0.6-0.9,1.5-0.9,2.9c0,1.1,0.2,2.1,0.7,3.1s1.2,1.4,2.1,1.4c0.7,0,1.2-0.3,1.6-1s0.6-1.5,0.6-2.5c0-1.1-0.2-2.1-0.7-3
					s-1.2-1.4-2.1-1.4C379.5,301.5,379.1,301.7,378.7,302z"/>
				<path class="st8" d="M385.4,309.3c0.4-0.1,0.7-0.2,0.9-0.3s0.3-0.5,0.3-1.1v-4.7c0-0.4,0-0.7-0.1-0.8c-0.1-0.2-0.4-0.3-0.7-0.3
					c-0.1,0-0.1,0-0.2,0c-0.1,0-0.1,0-0.2,0v-0.3c0.3-0.1,0.8-0.3,1.8-0.6l0.9-0.3c0,0,0.1,0,0.1,0c0,0,0,0.1,0,0.1v1.4
					c0.6-0.5,1-0.9,1.3-1.1c0.5-0.3,1-0.5,1.5-0.5c0.4,0,0.8,0.1,1.1,0.4c0.7,0.5,1,1.3,1,2.5v4.3c0,0.4,0.1,0.8,0.3,1
					c0.2,0.2,0.5,0.3,0.9,0.3v0.3h-3.9v-0.3c0.4-0.1,0.8-0.2,0.9-0.4c0.2-0.2,0.3-0.6,0.3-1.2v-3.9c0-0.5-0.1-1-0.3-1.3
					s-0.6-0.5-1.1-0.5c-0.4,0-0.7,0.1-1.1,0.4c-0.2,0.1-0.5,0.4-0.8,0.7v5.2c0,0.4,0.1,0.7,0.3,0.9c0.2,0.2,0.5,0.2,0.9,0.2v0.3h-4
					V309.3z"/>
			</g>
			<g class="st7">
				<path class="st8" d="M228.1,321.8v0.7h-1.9l0,5.3c0,0.5,0,0.8,0.1,1.1c0.1,0.4,0.4,0.6,0.9,0.6c0.2,0,0.4-0.1,0.6-0.2
					s0.3-0.3,0.6-0.5l0.2,0.2l-0.2,0.3c-0.3,0.4-0.7,0.7-1,0.9c-0.4,0.2-0.7,0.3-1,0.3c-0.7,0-1.2-0.3-1.5-1
					c-0.1-0.4-0.2-0.8-0.2-1.5v-5.6h-1c0,0-0.1,0-0.1-0.1c0,0,0,0,0-0.1c0-0.1,0-0.1,0-0.1c0,0,0.1-0.1,0.3-0.2
					c0.4-0.4,0.7-0.6,0.9-0.9c0.2-0.2,0.6-0.8,1.3-1.7c0.1,0,0.1,0,0.1,0c0,0,0,0.1,0,0.1v2.3H228.1z"/>
				<path class="st8" d="M228.7,330c0.5-0.1,0.8-0.2,1-0.4s0.2-0.6,0.2-1.3v-8.9c0-0.3,0-0.6-0.1-0.8c-0.1-0.2-0.3-0.2-0.7-0.2
					c-0.1,0-0.1,0-0.2,0c-0.1,0-0.1,0-0.2,0v-0.3c0.3-0.1,0.6-0.2,1-0.3c0.4-0.1,0.7-0.2,0.8-0.2l0.9-0.3l0,0.1v5.7
					c0.4-0.4,0.7-0.8,1-1c0.5-0.4,1.1-0.6,1.8-0.6c1,0,1.7,0.4,2,1.3c0.2,0.4,0.3,1,0.3,1.7v3.8c0,0.7,0.1,1.1,0.2,1.3
					c0.2,0.2,0.5,0.3,0.9,0.4v0.3h-4V330c0.5-0.1,0.9-0.2,1-0.4s0.2-0.6,0.2-1.3v-3.7c0-0.6-0.1-1.1-0.3-1.4
					c-0.2-0.4-0.6-0.6-1.1-0.6c-0.5,0-0.9,0.2-1.4,0.5c-0.4,0.3-0.7,0.6-0.7,0.7v4.5c0,0.7,0.1,1.1,0.2,1.3c0.2,0.2,0.5,0.3,1,0.4
					v0.3h-4.1V330z"/>
				<path class="st8" d="M244.6,322.5c0.7,0.6,1,1.5,1,2.6h-5.9c0.1,1.4,0.4,2.5,1,3.1s1.3,1,2.1,1c0.6,0,1.2-0.2,1.6-0.5
					c0.4-0.3,0.9-0.8,1.2-1.4l0.3,0.1c-0.3,0.8-0.7,1.5-1.4,2.2c-0.7,0.7-1.5,1-2.5,1c-1.2,0-2.1-0.4-2.7-1.3
					c-0.6-0.9-0.9-1.9-0.9-3c0-1.2,0.4-2.3,1.1-3.2c0.7-0.9,1.7-1.3,2.9-1.3C243.2,321.6,244,321.9,244.6,322.5z M240.2,323.2
					c-0.2,0.3-0.3,0.8-0.4,1.3h3.9c-0.1-0.6-0.2-1.1-0.4-1.4c-0.3-0.5-0.8-0.8-1.5-0.8C241.1,322.3,240.6,322.6,240.2,323.2z"/>
				<path class="st8" d="M251.4,329.9c0.8-0.1,1.3-0.2,1.5-0.3c0.2-0.2,0.3-0.6,0.3-1.4v-8.4c0-0.7-0.1-1.1-0.3-1.3
					c-0.2-0.2-0.7-0.3-1.5-0.4v-0.4h5.6v0.4c-0.8,0-1.3,0.2-1.5,0.4c-0.2,0.2-0.3,0.6-0.3,1.3v8.4c0,0.7,0.1,1.2,0.3,1.4
					c0.2,0.2,0.7,0.3,1.5,0.3v0.4h-5.6V329.9z"/>
				<path class="st8" d="M257.8,330c0.4-0.1,0.7-0.2,0.9-0.3s0.3-0.5,0.3-1.1v-4.7c0-0.4,0-0.7-0.1-0.8c-0.1-0.2-0.4-0.3-0.7-0.3
					c-0.1,0-0.1,0-0.2,0c-0.1,0-0.1,0-0.2,0v-0.3c0.3-0.1,0.8-0.3,1.8-0.6l0.9-0.3c0,0,0.1,0,0.1,0c0,0,0,0.1,0,0.1v1.4
					c0.6-0.5,1-0.9,1.3-1.1c0.5-0.3,1-0.5,1.5-0.5c0.4,0,0.8,0.1,1.1,0.4c0.7,0.5,1,1.3,1,2.5v4.3c0,0.4,0.1,0.8,0.3,1
					c0.2,0.2,0.5,0.3,0.9,0.3v0.3h-3.9V330c0.4-0.1,0.8-0.2,0.9-0.4c0.2-0.2,0.3-0.6,0.3-1.2v-3.9c0-0.5-0.1-1-0.3-1.3
					s-0.6-0.5-1.1-0.5c-0.4,0-0.7,0.1-1.1,0.4c-0.2,0.1-0.5,0.4-0.8,0.7v5.2c0,0.4,0.1,0.7,0.3,0.9c0.2,0.2,0.5,0.2,0.9,0.2v0.3h-4
					V330z"/>
				<path class="st8" d="M267.2,330c0.7,0,1.1-0.2,1.3-0.4c0.2-0.2,0.3-0.7,0.3-1.3v-5.9h-1.6v-0.6h1.6c0-1,0.1-1.8,0.4-2.5
					c0.5-1.3,1.4-1.9,2.8-1.9c0.5,0,1,0.1,1.5,0.3c0.4,0.2,0.6,0.5,0.6,0.9c0,0.2-0.1,0.4-0.2,0.5c-0.1,0.2-0.3,0.2-0.5,0.2
					c-0.2,0-0.3-0.1-0.5-0.2s-0.3-0.3-0.5-0.6l-0.2-0.2c-0.1-0.1-0.2-0.2-0.3-0.3c-0.1-0.1-0.3-0.1-0.5-0.1c-0.5,0-0.8,0.2-0.9,0.7
					c-0.1,0.2-0.1,0.6-0.1,1v2.2h2.3v0.6h-2.3v5.9c0,0.7,0.1,1.1,0.3,1.3c0.2,0.2,0.7,0.3,1.5,0.4v0.3h-4.9V330z"/>
				<path class="st8" d="M273.5,330c0.6-0.1,1-0.2,1.2-0.3s0.3-0.5,0.3-1v-9c0-0.4,0-0.7-0.1-0.8c-0.1-0.3-0.4-0.4-0.7-0.4
					c-0.1,0-0.2,0-0.3,0s-0.2,0-0.4,0.1v-0.3c0.8-0.2,1.8-0.5,3-0.9c0,0,0.1,0,0.1,0.1c0,0,0,0.1,0,0.2v11.1c0,0.5,0.1,0.9,0.3,1
					c0.2,0.2,0.6,0.3,1.1,0.3v0.3h-4.5V330z"/>
				<path class="st8" d="M281.3,321.8v5.9c0,0.4,0.1,0.8,0.2,1c0.2,0.5,0.6,0.7,1.3,0.7c0.4,0,0.8-0.1,1.2-0.4
					c0.2-0.2,0.5-0.4,0.7-0.6v-5.1c0-0.5-0.1-0.8-0.3-0.9s-0.6-0.2-1.1-0.3v-0.3h3v6.5c0,0.4,0.1,0.7,0.2,0.9c0.2,0.2,0.5,0.2,1,0.2
					v0.3c-0.3,0.1-0.6,0.2-0.7,0.2c-0.2,0-0.4,0.1-0.8,0.3c-0.2,0.1-0.5,0.2-1.1,0.4c0,0,0,0-0.1,0c0,0,0-0.1,0-0.1v-1.5
					c-0.4,0.5-0.8,0.9-1.1,1.1c-0.5,0.4-1.1,0.6-1.7,0.6c-0.5,0-1-0.2-1.5-0.6c-0.5-0.4-0.7-1-0.7-1.9v-4.8c0-0.5-0.1-0.8-0.3-1
					c-0.1-0.1-0.4-0.2-0.9-0.2v-0.3H281.3z"/>
				<path class="st8" d="M294.5,322.5c0.7,0.6,1,1.5,1,2.6h-5.9c0.1,1.4,0.4,2.5,1,3.1s1.3,1,2.1,1c0.6,0,1.2-0.2,1.6-0.5
					c0.4-0.3,0.9-0.8,1.2-1.4l0.3,0.1c-0.3,0.8-0.7,1.5-1.4,2.2c-0.7,0.7-1.5,1-2.5,1c-1.2,0-2.1-0.4-2.7-1.3
					c-0.6-0.9-0.9-1.9-0.9-3c0-1.2,0.4-2.3,1.1-3.2c0.7-0.9,1.7-1.3,2.9-1.3C293.1,321.6,293.8,321.9,294.5,322.5z M290,323.2
					c-0.2,0.3-0.3,0.8-0.4,1.3h3.9c-0.1-0.6-0.2-1.1-0.4-1.4c-0.3-0.5-0.8-0.8-1.5-0.8C290.9,322.3,290.4,322.6,290,323.2z"/>
				<path class="st8" d="M296.6,330c0.4-0.1,0.7-0.2,0.9-0.3s0.3-0.5,0.3-1.1v-4.7c0-0.4,0-0.7-0.1-0.8c-0.1-0.2-0.4-0.3-0.7-0.3
					c-0.1,0-0.1,0-0.2,0c-0.1,0-0.1,0-0.2,0v-0.3c0.3-0.1,0.8-0.3,1.8-0.6l0.9-0.3c0,0,0.1,0,0.1,0c0,0,0,0.1,0,0.1v1.4
					c0.6-0.5,1-0.9,1.3-1.1c0.5-0.3,1-0.5,1.5-0.5c0.4,0,0.8,0.1,1.1,0.4c0.7,0.5,1,1.3,1,2.5v4.3c0,0.4,0.1,0.8,0.3,1
					c0.2,0.2,0.5,0.3,0.9,0.3v0.3h-3.9V330c0.4-0.1,0.8-0.2,0.9-0.4c0.2-0.2,0.3-0.6,0.3-1.2v-3.9c0-0.5-0.1-1-0.3-1.3
					s-0.6-0.5-1.1-0.5c-0.4,0-0.7,0.1-1.1,0.4c-0.2,0.1-0.5,0.4-0.8,0.7v5.2c0,0.4,0.1,0.7,0.3,0.9c0.2,0.2,0.5,0.2,0.9,0.2v0.3h-4
					V330z"/>
				<path class="st8" d="M312.4,322.2c0.6,0.4,0.8,0.8,0.8,1.3c0,0.2-0.1,0.4-0.2,0.6s-0.4,0.3-0.7,0.3c-0.2,0-0.4-0.1-0.6-0.2
					c-0.2-0.1-0.3-0.4-0.4-0.6l-0.1-0.4c-0.1-0.3-0.2-0.6-0.4-0.7c-0.2-0.1-0.5-0.2-0.8-0.2c-0.7,0-1.3,0.3-1.8,0.9
					s-0.7,1.4-0.7,2.4c0,0.9,0.3,1.8,0.8,2.5s1.3,1.1,2.2,1.1c0.6,0,1.2-0.2,1.7-0.6c0.3-0.2,0.6-0.6,1-1.1l0.3,0.2
					c-0.4,0.7-0.7,1.3-1.1,1.8c-0.7,0.8-1.6,1.2-2.6,1.2c-1,0-1.8-0.4-2.5-1.1s-1.1-1.8-1.1-3.1c0-1.3,0.4-2.4,1.2-3.3
					c0.8-0.9,1.8-1.4,3.1-1.4C311.2,321.6,311.8,321.8,312.4,322.2z"/>
				<path class="st8" d="M320.7,322.5c0.7,0.6,1,1.5,1,2.6h-5.9c0.1,1.4,0.4,2.5,1,3.1s1.3,1,2.1,1c0.6,0,1.2-0.2,1.6-0.5
					c0.4-0.3,0.9-0.8,1.2-1.4l0.3,0.1c-0.3,0.8-0.7,1.5-1.4,2.2c-0.7,0.7-1.5,1-2.5,1c-1.2,0-2.1-0.4-2.7-1.3
					c-0.6-0.9-0.9-1.9-0.9-3c0-1.2,0.4-2.3,1.1-3.2c0.7-0.9,1.7-1.3,2.9-1.3C319.3,321.6,320,321.9,320.7,322.5z M316.3,323.2
					c-0.2,0.3-0.3,0.8-0.4,1.3h3.9c-0.1-0.6-0.2-1.1-0.4-1.4c-0.3-0.5-0.8-0.8-1.5-0.8C317.2,322.3,316.6,322.6,316.3,323.2z"/>
				<path class="st8" d="M327.5,329.9c0.8-0.1,1.3-0.2,1.5-0.3c0.2-0.2,0.3-0.6,0.3-1.4v-8.4c0-0.7-0.1-1.1-0.3-1.3
					c-0.2-0.2-0.7-0.3-1.5-0.4v-0.4h5.6v0.4c-0.8,0-1.3,0.2-1.5,0.4c-0.2,0.2-0.3,0.6-0.3,1.3v8.4c0,0.7,0.1,1.2,0.3,1.4
					c0.2,0.2,0.7,0.3,1.5,0.3v0.4h-5.6V329.9z"/>
				<path class="st8" d="M333.8,330c0.4-0.1,0.7-0.2,0.9-0.3s0.3-0.5,0.3-1.1v-4.7c0-0.4,0-0.7-0.1-0.8c-0.1-0.2-0.4-0.3-0.7-0.3
					c-0.1,0-0.1,0-0.2,0c-0.1,0-0.1,0-0.2,0v-0.3c0.3-0.1,0.8-0.3,1.8-0.6l0.9-0.3c0,0,0.1,0,0.1,0c0,0,0,0.1,0,0.1v1.4
					c0.6-0.5,1-0.9,1.3-1.1c0.5-0.3,1-0.5,1.5-0.5c0.4,0,0.8,0.1,1.1,0.4c0.7,0.5,1,1.3,1,2.5v4.3c0,0.4,0.1,0.8,0.3,1
					c0.2,0.2,0.5,0.3,0.9,0.3v0.3h-3.9V330c0.4-0.1,0.8-0.2,0.9-0.4c0.2-0.2,0.3-0.6,0.3-1.2v-3.9c0-0.5-0.1-1-0.3-1.3
					s-0.6-0.5-1.1-0.5c-0.4,0-0.7,0.1-1.1,0.4c-0.2,0.1-0.5,0.4-0.8,0.7v5.2c0,0.4,0.1,0.7,0.3,0.9c0.2,0.2,0.5,0.2,0.9,0.2v0.3h-4
					V330z"/>
				<path class="st8" d="M348.7,321.9c0.2,0.1,0.5,0.3,0.7,0.5v-2.9c0-0.4,0-0.6-0.1-0.8s-0.3-0.2-0.6-0.2c-0.1,0-0.1,0-0.2,0
					c-0.1,0-0.2,0-0.4,0v-0.3l0.8-0.2c0.3-0.1,0.6-0.2,0.8-0.2s0.5-0.2,0.7-0.2c0.1,0,0.3-0.1,0.5-0.2l0.1,0l0,1c0,0.4,0,0.7,0,1.1
					c0,0.4,0,0.7,0,1.1l0,7.5c0,0.4,0,0.7,0.1,0.8c0.1,0.2,0.4,0.2,0.8,0.2c0.1,0,0.1,0,0.2,0c0.1,0,0.1,0,0.2,0v0.3
					c0,0-0.5,0.2-1.3,0.5l-1.4,0.5l-0.1-0.1v-1.1c-0.3,0.4-0.6,0.6-0.9,0.8c-0.4,0.3-1,0.4-1.6,0.4c-1,0-1.9-0.4-2.5-1.2
					s-1-1.7-1-2.8c0-1.3,0.4-2.5,1.2-3.4c0.8-1,1.7-1.4,2.9-1.4C347.9,321.6,348.3,321.7,348.7,321.9z M348.9,329.1
					c0.3-0.3,0.4-0.6,0.4-0.8v-4c0-0.8-0.2-1.4-0.6-1.7c-0.4-0.3-0.8-0.5-1.3-0.5c-0.8,0-1.4,0.3-1.8,1c-0.4,0.7-0.6,1.5-0.6,2.5
					c0,1,0.2,1.9,0.7,2.6c0.5,0.8,1.1,1.2,2.1,1.2C348.2,329.5,348.6,329.3,348.9,329.1z"/>
				<path class="st8" d="M355.3,321.8v5.9c0,0.4,0.1,0.8,0.2,1c0.2,0.5,0.6,0.7,1.3,0.7c0.4,0,0.8-0.1,1.2-0.4
					c0.2-0.2,0.5-0.4,0.7-0.6v-5.1c0-0.5-0.1-0.8-0.3-0.9s-0.6-0.2-1.1-0.3v-0.3h3v6.5c0,0.4,0.1,0.7,0.2,0.9c0.2,0.2,0.5,0.2,1,0.2
					v0.3c-0.3,0.1-0.6,0.2-0.7,0.2c-0.2,0-0.4,0.1-0.8,0.3c-0.2,0.1-0.5,0.2-1.1,0.4c0,0,0,0-0.1,0c0,0,0-0.1,0-0.1v-1.5
					c-0.4,0.5-0.8,0.9-1.1,1.1c-0.5,0.4-1.1,0.6-1.7,0.6c-0.5,0-1-0.2-1.5-0.6c-0.5-0.4-0.7-1-0.7-1.9v-4.8c0-0.5-0.1-0.8-0.3-1
					c-0.1-0.1-0.4-0.2-0.9-0.2v-0.3H355.3z"/>
				<path class="st8" d="M362.8,327.4h0.3c0.1,0.7,0.3,1.2,0.6,1.6c0.4,0.7,1.1,1,1.9,1c0.5,0,0.8-0.1,1.1-0.4
					c0.3-0.3,0.4-0.6,0.4-1c0-0.3-0.1-0.5-0.2-0.7s-0.4-0.5-0.8-0.7l-1-0.6c-0.8-0.4-1.3-0.8-1.7-1.2c-0.4-0.4-0.5-0.9-0.5-1.5
					c0-0.7,0.2-1.3,0.7-1.7c0.5-0.4,1.1-0.7,1.9-0.7c0.3,0,0.7,0.1,1.1,0.2s0.6,0.2,0.7,0.2c0.1,0,0.2,0,0.2,0c0,0,0.1-0.1,0.1-0.1
					h0.2l0.1,2.6h-0.3c-0.1-0.6-0.3-1.1-0.5-1.4c-0.4-0.6-0.9-0.9-1.7-0.9c-0.4,0-0.8,0.1-1,0.4s-0.4,0.6-0.4,0.9
					c0,0.6,0.4,1.1,1.3,1.5l1.2,0.7c1.3,0.7,2,1.5,2,2.5c0,0.7-0.3,1.3-0.8,1.8c-0.5,0.5-1.3,0.7-2.1,0.7c-0.4,0-0.8-0.1-1.3-0.2
					s-0.7-0.2-0.8-0.2c-0.1,0-0.1,0-0.2,0.1c-0.1,0.1-0.1,0.1-0.1,0.2h-0.2V327.4z"/>
				<path class="st8" d="M374,321.8v0.7h-1.9l0,5.3c0,0.5,0,0.8,0.1,1.1c0.1,0.4,0.4,0.6,0.9,0.6c0.2,0,0.4-0.1,0.6-0.2
					s0.3-0.3,0.6-0.5l0.2,0.2l-0.2,0.3c-0.3,0.4-0.7,0.7-1,0.9c-0.4,0.2-0.7,0.3-1,0.3c-0.7,0-1.2-0.3-1.5-1
					c-0.1-0.4-0.2-0.8-0.2-1.5v-5.6h-1c0,0-0.1,0-0.1-0.1c0,0,0,0,0-0.1c0-0.1,0-0.1,0-0.1c0,0,0.1-0.1,0.3-0.2
					c0.4-0.4,0.7-0.6,0.9-0.9c0.2-0.2,0.6-0.8,1.3-1.7c0.1,0,0.1,0,0.1,0c0,0,0,0.1,0,0.1v2.3H374z"/>
				<path class="st8" d="M374.5,330c0.6,0,0.9-0.1,1.1-0.3s0.3-0.5,0.3-1v-4.2c0-0.6-0.1-1-0.2-1.3c-0.1-0.3-0.3-0.4-0.6-0.4
					c-0.1,0-0.1,0-0.2,0c-0.1,0-0.2,0-0.3,0.1v-0.3c0.3-0.1,0.7-0.2,1.1-0.4c0.4-0.1,0.6-0.2,0.8-0.3c0.3-0.1,0.6-0.2,0.9-0.4
					c0,0,0.1,0,0.1,0c0,0,0,0.1,0,0.2v1.5c0.4-0.5,0.8-1,1.1-1.3s0.7-0.5,1.1-0.5c0.3,0,0.6,0.1,0.8,0.3c0.2,0.2,0.3,0.4,0.3,0.7
					c0,0.3-0.1,0.5-0.2,0.6c-0.2,0.2-0.3,0.3-0.6,0.3c-0.2,0-0.5-0.1-0.7-0.3c-0.2-0.2-0.4-0.3-0.6-0.3c-0.2,0-0.5,0.2-0.8,0.5
					s-0.5,0.7-0.5,1.1v4.2c0,0.5,0.1,0.9,0.4,1.1c0.2,0.2,0.7,0.3,1.2,0.3v0.3h-4.5V330z"/>
				<path class="st8" d="M381,321.8h3.9v0.3c-0.3,0-0.5,0-0.7,0.1c-0.3,0.1-0.4,0.2-0.4,0.5c0,0.1,0,0.2,0,0.3
					c0,0.1,0.1,0.2,0.2,0.4l2.1,4.6l1.8-4.7c0-0.1,0-0.2,0.1-0.3c0-0.2,0.1-0.3,0.1-0.4c0-0.2-0.1-0.3-0.2-0.4
					c-0.1-0.1-0.3-0.1-0.4-0.1l-0.3,0v-0.3h2.5v0.3c-0.3,0-0.4,0.1-0.6,0.3c-0.1,0.1-0.2,0.3-0.3,0.6l-2.9,7.7
					c-0.5,1.3-1,2.3-1.4,2.9s-1,0.9-1.8,0.9c-0.3,0-0.7-0.1-1-0.3c-0.3-0.2-0.5-0.4-0.5-0.8c0-0.2,0.1-0.4,0.3-0.6s0.4-0.2,0.7-0.2
					c0.2,0,0.4,0.1,0.7,0.2c0.3,0.1,0.5,0.2,0.7,0.2c0.3,0,0.7-0.4,1.1-1.3c0.4-0.8,0.6-1.4,0.6-1.7c0-0.1,0-0.1,0-0.2
					s0-0.1-0.1-0.2l-2.9-6.3c-0.2-0.5-0.4-0.8-0.5-0.9s-0.4-0.2-0.7-0.3V321.8z"/>
			</g>
		</g>
	</g>
</g>
</svg>
