<?xml version="1.0" encoding="utf-8"?>
<!-- Generator: Adobe Illustrator 26.2.1, SVG Export Plug-In . SVG Version: 6.00 Build 0)  -->
<svg version="1.1" id="Layer_1" xmlns="http://www.w3.org/2000/svg" xmlns:xlink="http://www.w3.org/1999/xlink" x="0px" y="0px"
	 viewBox="0 0 800 600" style="enable-background:new 0 0 800 600;" xml:space="preserve">
<style type="text/css">
	.st0{fill:#363636;}
	.st1{opacity:0.2;fill:none;stroke:#00B190;enable-background:new    ;}
	.st2{opacity:0.2;fill:#EA3F05;enable-background:new    ;}
	.st3{opacity:0.2;fill:#0071DF;enable-background:new    ;}
	.st4{opacity:0.2;fill:#00B190;enable-background:new    ;}
	.st5{fill:#288197;stroke:#288197;stroke-width:1.5;}
	.st6{fill:none;stroke:#E6E6E6;stroke-width:3;}
	.st7{fill:#CE800C;}
	.st8{enable-background:new    ;}
	.st9{fill:#FFFFFF;}
	.st10{fill:none;}
</style>
<g id="Layer_3_00000060731047167680794220000014845704592168324750_">
	<g id="Layer_2_00000134218153568104495580000017888189410301901223_">
		<g id="Layer_1_00000099663924970637041040000017571507284291408793_">
			<g id="Layer_2_00000137122515416361888850000000553579347018848671_">
				<g id="Layer_2_00000160912438165169224760000015005302745502489491_">
					
						<rect id="backgorund_00000029732311992683323440000013031801331165680038_" x="-1.1" y="0.1" class="st0" width="800" height="600"/>
				</g>
			</g>
		</g>
	</g>
</g>
<g id="Layer_2_00000152964854334002048900000005804459307219661191_">
</g>
<path id="p_762.7951817288568" class="st1" d="M423.1,352.2c-6.6,0-11.9-5.3-11.9-11.9s5.3-11.9,11.9-11.9l0,0
	c6.6,0,11.9,5.3,11.9,11.9C435.1,346.8,429.7,352.2,423.1,352.2L423.1,352.2z"/>
<path id="p_704.8488990439379" class="st2" d="M404.6,309.2c-3.9,0-6.9-3.1-6.9-6.9s3.1-6.9,6.9-6.9s6.9,3.1,6.9,6.9
	S408.4,309.2,404.6,309.2z"/>
<path id="p_707.3997194758008" class="st2" d="M400.2,316.4c-1.6,0-3-1.3-3-3s1.3-3,3-3l0,0c1.7,0,3,1.3,3,3
	S401.9,316.4,400.2,316.4L400.2,316.4z"/>
<path id="p_686.5570471010649" class="st2" d="M400.1,294.4c-1.5,0-2.8-1.2-2.8-2.8c0-1.5,1.2-2.8,2.8-2.8c1.5,0,2.8,1.2,2.8,2.8
	C402.9,293.2,401.6,294.4,400.1,294.4z"/>
<path id="p_736.9234809258031" class="st3" d="M435.5,312.3c-5.5,0-9.9-4.4-9.9-9.9s4.4-9.9,9.9-9.9s9.9,4.4,9.9,9.9
	S441,312.3,435.5,312.3z"/>
<path id="p_755.683367322478" class="st3" d="M456.4,311.4c-5,0-9-4.1-9-9c0-5,4.1-9,9-9s9,4.1,9,9
	C465.5,307.4,461.4,311.4,456.4,311.4z"/>
<path id="p_758.2352222835394" class="st3" d="M446.9,323.7c-3.6,0-6.6-3-6.6-6.6s3-6.6,6.6-6.6s6.6,3,6.6,6.6
	S450.5,323.7,446.9,323.7z"/>
<path id="p_730.6730012227229" class="st3" d="M446.8,294.5c-3.3,0-6-2.8-6-6c0-3.3,2.8-6.1,6-6.1l0,0c3.3,0,6,2.8,6,6.1
	C452.8,291.7,450.2,294.5,446.8,294.5L446.8,294.5z"/>
<path id="p_715.7005903537216" class="st3" d="M434.9,290.5c-2.3,0-4.1-1.9-4.1-4.1s1.9-4.1,4.1-4.1l0,0c2.3,0,4.1,1.9,4.1,4.1
	C438.9,288.7,437.1,290.5,434.9,290.5L434.9,290.5z"/>
<path id="p_745.1577656089249" class="st3" d="M434.2,322.4c-2.2,0-4.1-1.9-4.1-4.1s1.9-4.1,4.1-4.1l0,0c2.2,0,4.1,1.9,4.1,4.1
	C438.3,320.6,436.5,322.4,434.2,322.4L434.2,322.4z"/>
<path id="p_739.1395770597233" class="st3" d="M458.6,291.6c-2.1,0-3.8-1.8-3.8-3.9s1.8-3.8,3.8-3.8c2.1,0,3.9,1.8,3.9,3.8
	C462.5,289.9,460.7,291.6,458.6,291.6z"/>
<path id="p_766.1892971586858" class="st3" d="M458.9,320.1c-1.9,0-3.5-1.5-3.5-3.5s1.5-3.5,3.5-3.5s3.5,1.5,3.5,3.5
	S460.7,320.1,458.9,320.1z"/>
<path id="p_710.5847391957514" class="st3" d="M426.3,293.7c-1.9,0-3.3-1.5-3.3-3.3s1.5-3.3,3.3-3.3s3.3,1.5,3.3,3.3
	S428.2,293.7,426.3,293.7z"/>
<path id="p_732.6194042806351" class="st3" d="M426,317.4c-1.8,0-3.2-1.4-3.2-3.2s1.4-3.2,3.2-3.2c1.8,0,3.2,1.4,3.2,3.2
	S427.7,317.4,426,317.4z"/>
<path id="p_748.6396045899162" class="st3" d="M465.3,294.9c-1.3,0-2.4-1.1-2.4-2.4s1.1-2.4,2.4-2.4s2.4,1.1,2.4,2.4
	C467.8,293.8,466.8,294.9,465.3,294.9z"/>
<path id="p_767.2166923165111" class="st3" d="M465.3,314.7c-1.3,0-2.4-1.1-2.4-2.4s1.1-2.4,2.4-2.4l0,0c1.3,0,2.4,1.1,2.4,2.4
	S466.7,314.7,465.3,314.7L465.3,314.7z"/>
<path id="p_713.5549907627715" class="st3" d="M440.5,282.6c-1.3,0-2.3-1-2.3-2.3s1-2.3,2.3-2.3s2.3,1,2.3,2.3
	C442.8,281.5,441.8,282.6,440.5,282.6z"/>
<path id="p_727.0863550931502" class="st3" d="M454,283.5c-1.2,0-2.2-1-2.2-2.2s1-2.2,2.2-2.2l0,0c1.2,0,2.2,1,2.2,2.2
	S455.2,283.5,454,283.5L454,283.5z"/>
<path id="p_754.0385260170602" class="st3" d="M439.3,326.7c-1.1,0-2.1-0.9-2.1-2.1c0-1.1,0.9-2.1,2.1-2.1l0,0
	c1.1,0,2.1,0.9,2.1,2.1C441.4,325.8,440.5,326.7,439.3,326.7L439.3,326.7z"/>
<path id="p_767.9131501845512" class="st3" d="M455.4,325.4c-1.1,0-2.1-0.9-2.1-2.1c0-1.1,0.9-2.1,2.1-2.1c1.1,0,2.1,0.9,2.1,2.1
	C457.5,324.4,456.5,325.4,455.4,325.4z"/>
<path id="p_712.1631428853328" class="st3" d="M422.8,298.8c-1.1,0-2.1-0.9-2.1-2.1c0-1.1,0.9-2.1,2.1-2.1l0,0
	c1.1,0,2.1,0.9,2.1,2.1S423.9,298.8,422.8,298.8L422.8,298.8z"/>
<path id="p_722.393748701205" class="st3" d="M422.8,309.7c-1.1,0-2-0.9-2-2s0.9-2,2-2l0,0c1.1,0,2,0.9,2,2
	C424.8,308.8,423.9,309.7,422.8,309.7L422.8,309.7z"/>
<path id="p_717.0199188472118" class="st3" d="M446.3,280.5c-1,0-1.8-0.8-1.8-1.8s0.8-1.8,1.8-1.8l0,0c1,0,1.8,0.8,1.8,1.8
	S447.3,280.5,446.3,280.5L446.3,280.5z"/>
<path id="p_719.0276746349833" class="st3" d="M451,277.9c-1,0-1.7-0.8-1.7-1.6c0-1,0.8-1.6,1.7-1.6c1,0,1.6,0.8,1.6,1.6
	S452,277.9,451,277.9z"/>
<path id="p_715.8654360467084" class="st3" d="M421.6,303.9c-0.9,0-1.6-0.8-1.6-1.6c0-0.9,0.8-1.6,1.6-1.6c0.9,0,1.7,0.8,1.7,1.6
	C423.2,303.2,422.4,303.9,421.6,303.9z"/>
<path id="p_760.2555339377926" class="st3" d="M444.3,328.3c-0.8,0-1.4-0.7-1.4-1.4c0-0.8,0.7-1.4,1.4-1.4l0,0
	c0.8,0,1.4,0.7,1.4,1.4C445.9,327.6,445.2,328.3,444.3,328.3L444.3,328.3z"/>
<path id="p_765.7581606623559" class="st3" d="M450.8,327.6c-0.8,0-1.4-0.7-1.4-1.4c0-0.8,0.7-1.4,1.4-1.4l0,0
	c0.8,0,1.4,0.7,1.4,1.4C452.2,327,451.6,327.6,450.8,327.6L450.8,327.6z"/>
<path id="p_704.1305606759555" class="st3" d="M427.8,285.2c-0.8,0-1.3-0.6-1.3-1.3c0-0.8,0.5-1.3,1.3-1.3s1.3,0.6,1.3,1.3
	C429.1,284.7,428.6,285.2,427.8,285.2z"/>
<path id="p_771.5970351522174" class="st3" d="M465.5,319.2c-0.7,0-1.3-0.5-1.3-1.3c0-0.7,0.6-1.3,1.3-1.3c0.7,0,1.3,0.5,1.3,1.3
	S466.2,319.2,465.5,319.2z"/>
<path id="p_742.3574477750865" class="st3" d="M465.6,288.1c-0.7,0-1.2-0.5-1.2-1.2s0.5-1.2,1.2-1.2s1.2,0.6,1.2,1.2
	S466.2,288.1,465.6,288.1z"/>
<path id="p_737.8642137138779" class="st3" d="M427.3,321.7c-0.7,0-1.2-0.6-1.2-1.2s0.6-1.2,1.2-1.2s1.2,0.5,1.2,1.2
	S427.9,321.7,427.3,321.7z"/>
<path id="p_706.424273679859" class="st3" d="M435.2,280.3c-0.7,0-1.2-0.5-1.2-1.2s0.6-1.2,1.2-1.2l0,0c0.7,0,1.2,0.6,1.2,1.2
	C436.4,279.9,435.9,280.3,435.2,280.3L435.2,280.3z"/>
<path id="p_730.7567454167595" class="st3" d="M459.3,282.1c-0.7,0-1.1-0.5-1.1-1.1c0-0.7,0.5-1.1,1.1-1.1l0,0
	c0.7,0,1.1,0.6,1.1,1.1C460.5,281.5,460,282.1,459.3,282.1L459.3,282.1z"/>
<path id="p_771.5237452064868" class="st3" d="M460.5,324.1c-0.7,0-1.1-0.6-1.1-1.1c0-0.7,0.6-1.1,1.1-1.1l0,0
	c0.7,0,1.1,0.6,1.1,1.1S461.2,324.1,460.5,324.1L460.5,324.1z"/>
<path id="p_749.0852019557859" class="st3" d="M434.2,326.6c-0.7,0-1.1-0.4-1.1-1.1s0.4-1.1,1.1-1.1l0,0c0.7,0,1.1,0.4,1.1,1.1
	C435.3,326.1,434.9,326.6,434.2,326.6L434.2,326.6z"/>
<path id="p_765.8396598130706" class="st3" d="M448,330.7c-0.6,0-1.1-0.4-1.1-1.1c0-0.6,0.4-1.1,1.1-1.1c0.5,0,1.1,0.4,1.1,1.1
	C449,330.1,448.5,330.7,448,330.7z"/>
<path id="p_704.75445829711" class="st3" d="M420.4,293.4c-0.6,0-1-0.4-1-1s0.4-1,1-1l0,0c0.5,0,1,0.4,1,1
	C421.3,292.9,420.9,293.4,420.4,293.4L420.4,293.4z"/>
<path id="p_723.0151087170335" class="st3" d="M420.2,313c-0.5,0-1-0.4-1-1s0.4-1,1-1l0,0c0.6,0,1,0.4,1,1S420.8,313,420.2,313
	L420.2,313z"/>
<path id="p_710.1303398599226" class="st3" d="M442.9,276.6c-0.5,0-1-0.4-1-1s0.4-1,1-1s1,0.4,1,1S443.5,276.6,442.9,276.6z"/>
<path id="p_773.76857738835" class="st3" d="M464.4,322.8c-0.4,0-0.9-0.3-0.9-0.9c0-0.4,0.3-0.9,0.9-0.9c0.4,0,0.9,0.3,0.9,0.9
	C465.1,322.3,464.8,322.8,464.4,322.8z"/>
<path id="p_715.3292524033452" class="st3" d="M418.7,306.3c-0.4,0-0.8-0.3-0.8-0.8c0-0.4,0.3-0.8,0.8-0.8c0.4,0,0.8,0.3,0.8,0.8
	C419.4,305.9,419,306.3,418.7,306.3z"/>
<path id="p_709.2074822810471" class="st3" d="M418.7,299.8c-0.3,0-0.7-0.3-0.7-0.7c0-0.3,0.3-0.7,0.7-0.7s0.7,0.3,0.7,0.7
	C419.4,299.4,419.1,299.8,418.7,299.8z"/>
<path id="p_736.803629434874" class="st3" d="M463.5,284.3c-0.3,0-0.7-0.3-0.7-0.7c0-0.3,0.3-0.7,0.7-0.7c0.3,0,0.7,0.3,0.7,0.7
	C464.1,283.9,463.9,284.3,463.5,284.3z"/>
<path id="p_703.5466466371211" class="st3" d="M430.7,281.8c-0.3,0-0.6-0.2-0.6-0.6s0.2-0.5,0.6-0.5l0,0c0.3,0,0.5,0.2,0.5,0.5
	S430.9,281.8,430.7,281.8L430.7,281.8z"/>
<path id="p_701.6724385974278" class="st3" d="M431.6,278.9c-0.3,0-0.5-0.2-0.5-0.5s0.2-0.5,0.5-0.5s0.6,0.2,0.6,0.5
	S431.9,278.9,431.6,278.9z"/>
<path id="p_741.8095462262706" class="st3" d="M429.8,323.3c-0.2,0-0.3-0.2-0.3-0.3c0-0.2,0.2-0.3,0.3-0.3l0,0
	c0.2,0,0.3,0.2,0.3,0.3C430.1,323.2,429.9,323.3,429.8,323.3L429.8,323.3z"/>
<path id="p_752.1049459131756" class="st4" d="M419.2,344.8c-3.2,0-5.8-2.6-5.8-5.8c0-3.2,2.6-5.8,5.8-5.8s5.8,2.6,5.8,5.8
	C425.1,342.1,422.5,344.8,419.2,344.8z"/>
<path id="p_759.4560699584389" class="st4" d="M430,341.8c-1.7,0-3-1.3-3-3s1.3-3,3-3c1.6,0,3,1.3,3,3S431.6,341.8,430,341.8z"/>
<path id="p_763.5346414017791" class="st4" d="M427.2,348.9c-1.5,0-2.9-1.3-2.9-2.9c0-1.5,1.3-2.9,2.9-2.9c1.5,0,2.9,1.3,2.9,2.9
	C430,347.6,428.7,348.9,427.2,348.9z"/>
<path id="p_749.8836044427812" class="st4" d="M426.8,334.9c-0.9,0-1.6-0.8-1.6-1.6c0-0.9,0.8-1.6,1.6-1.6s1.6,0.8,1.6,1.6
	C428.5,334.1,427.7,334.9,426.8,334.9z"/>
<path id="p_743.5569096752089" class="st4" d="M423,332c-0.3,0-0.7-0.3-0.7-0.7c0-0.3,0.3-0.7,0.7-0.7c0.3,0,0.7,0.3,0.7,0.7
	S423.3,332,423,332z"/>
<g id="Layer_3">
	<path id="p_767.6390129983421_00000118397570328917944430000002949759489156791723_" class="st5" d="M308.7,455.4
		c-84.5,0-153-68.5-153-153s68.5-153,153-153s153,68.5,153,153S393.2,455.4,308.7,455.4z"/>
</g>
<path id="p_989" class="st6" d="M400,549.8c-136.7,0-247.5-110.7-247.5-247.4S263.3,54.9,400,54.9s247.5,110.7,247.5,247.4
	S536.7,549.8,400,549.8z"/>
<path id="p_981.5781989403404" class="st7" d="M553.9,389.8c-48.3,0-87.4-39.1-87.4-87.4s39.1-87.4,87.4-87.4l0,0
	c48.3,0,87.4,39.1,87.4,87.4C641.3,350.6,602.2,389.7,553.9,389.8L553.9,389.8z"/>
<g id="Layer_4">
	<g>
		<g class="st8">
			<path class="st9" d="M512.9,293.7c0,0.7-0.3,1.2-0.8,1.6c-0.5,0.4-1.2,0.7-2,0.8v2.3h-0.7v-2.3c-0.6,0-1.1-0.1-1.6-0.2
				c-0.5-0.1-0.9-0.2-1.3-0.4v-1.3h0.1c0.1,0.1,0.2,0.1,0.4,0.3c0.2,0.1,0.4,0.2,0.6,0.3c0.2,0.1,0.5,0.2,0.8,0.2
				c0.3,0.1,0.6,0.1,0.9,0.1v-2.7c-0.2,0-0.3-0.1-0.5-0.1c-0.1,0-0.3-0.1-0.4-0.1c-0.7-0.2-1.2-0.4-1.5-0.8
				c-0.3-0.3-0.5-0.8-0.5-1.3c0-0.6,0.2-1.2,0.7-1.6s1.2-0.7,2.1-0.8v-1.7h0.7v1.7c0.4,0,0.9,0.1,1.3,0.2c0.4,0.1,0.8,0.2,1.1,0.3
				v1.2h-0.1c-0.3-0.2-0.6-0.4-1-0.5s-0.8-0.2-1.4-0.3v2.7c0.1,0,0.3,0,0.4,0.1c0.1,0,0.3,0.1,0.4,0.1c0.6,0.1,1.1,0.4,1.5,0.7
				S512.9,293.1,512.9,293.7z M509.4,291.3v-2.6c-0.5,0-0.8,0.2-1.1,0.4c-0.3,0.2-0.5,0.5-0.5,0.9c0,0.4,0.1,0.7,0.3,0.9
				S508.7,291.2,509.4,291.3z M511.7,293.8c0-0.4-0.1-0.7-0.4-0.9c-0.2-0.2-0.7-0.3-1.2-0.4v2.6c0.5-0.1,0.9-0.2,1.2-0.4
				C511.5,294.6,511.7,294.2,511.7,293.8z"/>
			<path class="st9" d="M525.8,296.1h-6.4v-1.3c0.4-0.4,0.9-0.8,1.3-1.1c0.4-0.4,0.9-0.8,1.2-1.1c0.8-0.8,1.4-1.4,1.7-1.9
				c0.3-0.5,0.5-1,0.5-1.5c0-0.5-0.2-0.9-0.5-1.2c-0.3-0.3-0.8-0.4-1.4-0.4c-0.4,0-0.8,0.1-1.3,0.2c-0.4,0.1-0.9,0.3-1.3,0.6h-0.1
				V287c0.3-0.1,0.7-0.3,1.2-0.4c0.5-0.1,1-0.2,1.5-0.2c1,0,1.7,0.2,2.3,0.7c0.5,0.5,0.8,1.1,0.8,1.9c0,0.4,0,0.7-0.1,1
				c-0.1,0.3-0.2,0.6-0.4,0.9c-0.2,0.3-0.4,0.5-0.6,0.8c-0.2,0.3-0.5,0.5-0.8,0.8c-0.5,0.4-0.9,0.9-1.4,1.3s-0.9,0.8-1.4,1.2h5.1
				V296.1z"/>
			<path class="st9" d="M534.2,293c0,1-0.3,1.7-0.9,2.4c-0.6,0.6-1.4,0.9-2.3,0.9c-0.5,0-0.9-0.1-1.3-0.2c-0.4-0.1-0.7-0.4-1-0.6
				c-0.4-0.4-0.6-0.8-0.8-1.4c-0.2-0.6-0.3-1.3-0.3-2.1c0-0.8,0.1-1.6,0.3-2.2c0.2-0.6,0.5-1.2,0.9-1.7c0.4-0.5,0.9-0.9,1.4-1.1
				c0.6-0.3,1.3-0.4,2.1-0.4c0.2,0,0.5,0,0.6,0c0.2,0,0.3,0.1,0.5,0.1v1.2h-0.1c-0.1-0.1-0.3-0.1-0.5-0.2c-0.2-0.1-0.5-0.1-0.7-0.1
				c-0.9,0-1.6,0.3-2.2,0.9c-0.5,0.6-0.9,1.3-0.9,2.3c0.4-0.2,0.7-0.4,1.1-0.5c0.3-0.1,0.7-0.2,1.2-0.2c0.4,0,0.8,0,1.1,0.1
				c0.3,0.1,0.6,0.2,0.9,0.4c0.4,0.3,0.7,0.6,0.8,1C534.1,292,534.2,292.4,534.2,293z M532.9,293.1c0-0.4-0.1-0.7-0.2-1
				c-0.1-0.3-0.3-0.5-0.6-0.7c-0.2-0.1-0.4-0.2-0.6-0.3c-0.2,0-0.5-0.1-0.7-0.1c-0.4,0-0.7,0-1,0.1c-0.3,0.1-0.6,0.2-1,0.4
				c0,0.1,0,0.2,0,0.3c0,0.1,0,0.2,0,0.3c0,0.7,0.1,1.2,0.2,1.6c0.1,0.4,0.3,0.7,0.6,0.9c0.2,0.2,0.4,0.3,0.6,0.4s0.5,0.1,0.7,0.1
				c0.6,0,1.1-0.2,1.4-0.6C532.7,294.3,532.9,293.8,532.9,293.1z"/>
			<path class="st9" d="M542.2,293.1c0,0.4-0.1,0.9-0.2,1.3c-0.2,0.4-0.4,0.7-0.7,1c-0.3,0.3-0.7,0.5-1.1,0.7
				c-0.4,0.2-0.9,0.2-1.5,0.2c-0.5,0-1-0.1-1.5-0.2c-0.5-0.1-0.9-0.2-1.2-0.4v-1.3h0.1c0.3,0.2,0.8,0.4,1.2,0.6
				c0.5,0.2,0.9,0.2,1.4,0.2c0.3,0,0.6,0,0.9-0.1s0.5-0.2,0.8-0.4c0.2-0.2,0.3-0.4,0.4-0.7c0.1-0.3,0.1-0.5,0.1-0.9
				c0-0.3-0.1-0.6-0.2-0.8c-0.1-0.2-0.3-0.4-0.5-0.5c-0.2-0.2-0.5-0.3-0.8-0.3c-0.3-0.1-0.7-0.1-1.1-0.1c-0.4,0-0.7,0-1.1,0.1
				c-0.3,0.1-0.6,0.1-0.9,0.2v-4.9h5.7v1.1h-4.5v2.5c0.2,0,0.4,0,0.6,0s0.4,0,0.5,0c0.5,0,1,0,1.3,0.1c0.4,0.1,0.7,0.2,1.1,0.5
				c0.3,0.2,0.6,0.5,0.8,0.9C542.1,292.1,542.2,292.5,542.2,293.1z"/>
			<path class="st9" d="M546.8,294.3l-1.8,4.2h-0.9l1.1-4.2H546.8z"/>
			<path class="st9" d="M555.4,293c0,1-0.3,1.7-0.9,2.4s-1.4,0.9-2.3,0.9c-0.5,0-0.9-0.1-1.3-0.2c-0.4-0.1-0.7-0.4-1-0.6
				c-0.4-0.4-0.6-0.8-0.8-1.4c-0.2-0.6-0.3-1.3-0.3-2.1c0-0.8,0.1-1.6,0.3-2.2c0.2-0.6,0.5-1.2,0.9-1.7c0.4-0.5,0.9-0.9,1.4-1.1
				c0.6-0.3,1.3-0.4,2.1-0.4c0.2,0,0.5,0,0.6,0c0.2,0,0.3,0.1,0.5,0.1v1.2h-0.1c-0.1-0.1-0.3-0.1-0.5-0.2c-0.2-0.1-0.5-0.1-0.7-0.1
				c-0.9,0-1.6,0.3-2.2,0.9c-0.5,0.6-0.9,1.3-0.9,2.3c0.4-0.2,0.7-0.4,1.1-0.5s0.7-0.2,1.2-0.2c0.4,0,0.8,0,1.1,0.1s0.6,0.2,0.9,0.4
				c0.4,0.3,0.7,0.6,0.8,1C555.3,292,555.4,292.4,555.4,293z M554.1,293.1c0-0.4-0.1-0.7-0.2-1c-0.1-0.3-0.3-0.5-0.6-0.7
				c-0.2-0.1-0.4-0.2-0.6-0.3c-0.2,0-0.5-0.1-0.7-0.1c-0.4,0-0.7,0-1,0.1c-0.3,0.1-0.6,0.2-1,0.4c0,0.1,0,0.2,0,0.3
				c0,0.1,0,0.2,0,0.3c0,0.7,0.1,1.2,0.2,1.6c0.1,0.4,0.3,0.7,0.6,0.9c0.2,0.2,0.4,0.3,0.6,0.4c0.2,0.1,0.5,0.1,0.7,0.1
				c0.6,0,1.1-0.2,1.4-0.6C554,294.3,554.1,293.8,554.1,293.1z"/>
			<path class="st9" d="M563,296.1h-5.1v-1h2v-6.3h-2v-0.9c0.3,0,0.6,0,0.9-0.1c0.3,0,0.5-0.1,0.7-0.2c0.2-0.1,0.3-0.2,0.5-0.4
				c0.1-0.2,0.2-0.4,0.2-0.7h1v8.5h1.9V296.1z"/>
			<path class="st9" d="M571.8,296.1h-6.4v-1.3c0.4-0.4,0.9-0.8,1.3-1.1s0.9-0.8,1.2-1.1c0.8-0.8,1.4-1.4,1.7-1.9
				c0.3-0.5,0.5-1,0.5-1.5c0-0.5-0.2-0.9-0.5-1.2c-0.3-0.3-0.8-0.4-1.4-0.4c-0.4,0-0.8,0.1-1.2,0.2c-0.4,0.1-0.9,0.3-1.3,0.6h-0.1
				V287c0.3-0.1,0.7-0.3,1.2-0.4c0.5-0.1,1-0.2,1.5-0.2c1,0,1.7,0.2,2.3,0.7c0.6,0.5,0.8,1.1,0.8,1.9c0,0.4,0,0.7-0.1,1
				c-0.1,0.3-0.2,0.6-0.4,0.9c-0.2,0.3-0.4,0.5-0.6,0.8c-0.2,0.3-0.5,0.5-0.8,0.8c-0.5,0.4-0.9,0.9-1.4,1.3s-0.9,0.8-1.4,1.2h5.1
				V296.1z"/>
			<path class="st9" d="M576.3,294.3l-1.8,4.2h-0.9l1.1-4.2H576.3z"/>
			<path class="st9" d="M584.3,296.1h-5.1v-1h2v-6.3h-2v-0.9c0.3,0,0.6,0,0.9-0.1c0.3,0,0.5-0.1,0.7-0.2c0.2-0.1,0.3-0.2,0.5-0.4
				s0.2-0.4,0.2-0.7h1v8.5h1.9V296.1z"/>
			<path class="st9" d="M593.1,290.8c0,0.8-0.1,1.6-0.3,2.2s-0.5,1.2-0.9,1.7c-0.4,0.5-0.9,0.9-1.4,1.1c-0.6,0.3-1.3,0.4-2,0.4
				c-0.2,0-0.4,0-0.6,0c-0.2,0-0.4-0.1-0.5-0.1v-1.2h0.1c0.1,0.1,0.3,0.1,0.5,0.2c0.2,0.1,0.5,0.1,0.7,0.1c0.9,0,1.7-0.3,2.2-0.8
				s0.8-1.3,0.9-2.3c-0.4,0.2-0.8,0.4-1.1,0.5c-0.3,0.1-0.7,0.2-1.1,0.2c-0.4,0-0.7,0-1.1-0.1c-0.3-0.1-0.6-0.2-0.9-0.4
				c-0.4-0.3-0.7-0.6-0.8-1c-0.2-0.4-0.3-0.9-0.3-1.4c0-1,0.3-1.8,1-2.4s1.4-0.9,2.3-0.9c0.5,0,0.9,0.1,1.3,0.2
				c0.4,0.1,0.7,0.4,1,0.6c0.4,0.4,0.6,0.8,0.8,1.4C593,289.2,593.1,289.9,593.1,290.8z M591.8,290.5c0-0.7-0.1-1.2-0.2-1.6
				c-0.1-0.4-0.3-0.7-0.6-0.9c-0.2-0.2-0.4-0.3-0.6-0.4c-0.2-0.1-0.5-0.1-0.7-0.1c-0.6,0-1.1,0.2-1.4,0.6c-0.4,0.4-0.5,0.9-0.5,1.6
				c0,0.4,0.1,0.7,0.2,1s0.3,0.5,0.6,0.7c0.2,0.1,0.4,0.2,0.6,0.3c0.2,0,0.5,0.1,0.8,0.1c0.3,0,0.7,0,1-0.1c0.3-0.1,0.7-0.2,1-0.4
				c0-0.1,0-0.2,0-0.3C591.8,290.8,591.8,290.6,591.8,290.5z"/>
			<path class="st9" d="M601.4,296.1H595v-1.3c0.4-0.4,0.9-0.8,1.3-1.1c0.4-0.4,0.9-0.8,1.2-1.1c0.8-0.8,1.4-1.4,1.7-1.9
				c0.3-0.5,0.5-1,0.5-1.5c0-0.5-0.2-0.9-0.5-1.2c-0.3-0.3-0.8-0.4-1.4-0.4c-0.4,0-0.8,0.1-1.3,0.2c-0.4,0.1-0.9,0.3-1.3,0.6h-0.1
				V287c0.3-0.1,0.7-0.3,1.2-0.4c0.5-0.1,1-0.2,1.5-0.2c1,0,1.7,0.2,2.3,0.7c0.5,0.5,0.8,1.1,0.8,1.9c0,0.4,0,0.7-0.1,1
				c-0.1,0.3-0.2,0.6-0.4,0.9c-0.2,0.3-0.4,0.5-0.6,0.8c-0.2,0.3-0.5,0.5-0.8,0.8c-0.5,0.4-0.9,0.9-1.4,1.3s-0.9,0.8-1.4,1.2h5.1
				V296.1z"/>
		</g>
		<g class="st8">
			<path class="st9" d="M513.7,306.6c0.8-0.8,1.8-1.1,3-1.1c1.2,0,2.2,0.4,3,1.2c0.9,0.8,1.3,1.9,1.3,3.3c0,1.4-0.4,2.5-1.3,3.4
				c-0.8,0.7-1.8,1.1-2.9,1.1c-1.2,0-2.2-0.4-3-1.2c-0.8-0.8-1.2-1.9-1.2-3.2C512.4,308.6,512.8,307.5,513.7,306.6z M514.6,313
				c0.5,0.7,1.2,1,2,1c0.8,0,1.4-0.3,2-1c0.5-0.6,0.8-1.7,0.8-3.1c0-1.4-0.3-2.4-0.8-3.1c-0.6-0.6-1.2-0.9-2-0.9c-0.8,0-1.4,0.3-2,1
				c-0.5,0.7-0.8,1.7-0.8,3C513.8,311.3,514.1,312.4,514.6,313z"/>
			<path class="st9" d="M524.7,308.4v0.5h-1.3l0,3.7c0,0.3,0,0.6,0.1,0.7c0.1,0.3,0.3,0.4,0.6,0.4c0.2,0,0.3,0,0.4-0.1
				c0.1-0.1,0.2-0.2,0.4-0.3l0.2,0.1l-0.1,0.2c-0.2,0.3-0.5,0.5-0.7,0.6c-0.2,0.1-0.5,0.2-0.7,0.2c-0.5,0-0.8-0.2-1-0.7
				c-0.1-0.2-0.1-0.6-0.1-1v-3.8h-0.7c0,0,0,0,0,0c0,0,0,0,0-0.1c0,0,0-0.1,0-0.1c0,0,0.1-0.1,0.2-0.2c0.3-0.2,0.5-0.4,0.6-0.6
				c0.1-0.2,0.4-0.5,0.9-1.2c0.1,0,0.1,0,0.1,0c0,0,0,0,0,0.1v1.6H524.7z"/>
			<path class="st9" d="M525.1,314.1c0.3,0,0.6-0.1,0.7-0.3c0.1-0.1,0.2-0.4,0.2-0.9v-6.1c0-0.2,0-0.4-0.1-0.5
				c-0.1-0.1-0.2-0.2-0.4-0.2c0,0-0.1,0-0.1,0c0,0-0.1,0-0.1,0V306c0.2-0.1,0.4-0.1,0.7-0.2c0.3-0.1,0.5-0.1,0.6-0.2l0.6-0.2l0,0
				v3.9c0.3-0.3,0.5-0.5,0.7-0.7c0.4-0.3,0.8-0.4,1.2-0.4c0.7,0,1.2,0.3,1.4,0.9c0.1,0.3,0.2,0.7,0.2,1.2v2.6c0,0.4,0.1,0.7,0.2,0.9
				c0.1,0.1,0.3,0.2,0.6,0.3v0.2h-2.7v-0.2c0.4-0.1,0.6-0.1,0.7-0.3c0.1-0.1,0.2-0.4,0.2-0.9v-2.6c0-0.4-0.1-0.7-0.2-1
				c-0.1-0.3-0.4-0.4-0.8-0.4c-0.3,0-0.6,0.1-1,0.4c-0.3,0.2-0.5,0.4-0.5,0.5v3.1c0,0.5,0.1,0.8,0.2,0.9c0.1,0.1,0.3,0.2,0.7,0.3
				v0.2h-2.8V314.1z"/>
			<path class="st9" d="M536,308.9c0.4,0.4,0.7,1,0.7,1.8h-4c0,1,0.3,1.7,0.7,2.1c0.4,0.4,0.9,0.7,1.4,0.7c0.4,0,0.8-0.1,1.1-0.3
				s0.6-0.6,0.8-1l0.2,0.1c-0.2,0.5-0.5,1-1,1.5c-0.5,0.5-1.1,0.7-1.7,0.7c-0.8,0-1.4-0.3-1.8-0.9c-0.4-0.6-0.7-1.3-0.7-2.1
				c0-0.9,0.3-1.6,0.8-2.2c0.5-0.6,1.2-0.9,2-0.9C535,308.3,535.6,308.5,536,308.9z M533,309.4c-0.1,0.2-0.2,0.5-0.3,0.9h2.7
				c0-0.4-0.1-0.7-0.2-0.9c-0.2-0.4-0.6-0.6-1-0.6C533.6,308.8,533.2,309,533,309.4z"/>
			<path class="st9" d="M537.3,314.1c0.4,0,0.6-0.1,0.8-0.2s0.2-0.3,0.2-0.7v-2.9c0-0.4,0-0.7-0.1-0.9s-0.2-0.3-0.4-0.3
				c0,0-0.1,0-0.2,0c-0.1,0-0.1,0-0.2,0V309c0.2-0.1,0.5-0.2,0.7-0.3s0.4-0.2,0.5-0.2c0.2-0.1,0.4-0.2,0.7-0.3c0,0,0,0,0.1,0
				c0,0,0,0.1,0,0.1v1c0.3-0.4,0.5-0.7,0.8-0.9c0.3-0.2,0.5-0.3,0.8-0.3c0.2,0,0.4,0.1,0.5,0.2s0.2,0.3,0.2,0.5
				c0,0.2-0.1,0.3-0.2,0.4s-0.2,0.2-0.4,0.2c-0.2,0-0.3-0.1-0.5-0.2c-0.2-0.1-0.3-0.2-0.4-0.2c-0.1,0-0.3,0.1-0.5,0.4
				s-0.3,0.5-0.3,0.7v2.9c0,0.4,0.1,0.6,0.3,0.8c0.2,0.1,0.5,0.2,0.8,0.2v0.2h-3.1V314.1z"/>
			<path class="st9" d="M545.7,311.7c0.2,0.6,0.5,1,0.8,1.4c0.5,0.6,1.2,0.9,1.9,0.9c0.4,0,0.8-0.1,1.1-0.4c0.3-0.3,0.5-0.6,0.5-1.1
				c0-0.4-0.2-0.8-0.5-1.1c-0.2-0.2-0.6-0.5-1.3-0.9l-1.1-0.7c-0.3-0.2-0.6-0.4-0.8-0.6c-0.4-0.4-0.6-0.9-0.6-1.4
				c0-0.7,0.2-1.2,0.7-1.6c0.4-0.4,1-0.7,1.7-0.7c0.3,0,0.7,0.1,1.1,0.2c0.4,0.1,0.7,0.2,0.7,0.2c0.2,0,0.3,0,0.3-0.1
				c0.1-0.1,0.1-0.2,0.1-0.3h0.3l0.3,2.8h-0.3c-0.2-0.8-0.6-1.4-1-1.7c-0.5-0.3-0.9-0.5-1.4-0.5c-0.4,0-0.7,0.1-0.9,0.3
				c-0.3,0.2-0.4,0.5-0.4,0.9c0,0.3,0.1,0.6,0.3,0.9c0.2,0.2,0.5,0.5,0.9,0.8l1.1,0.7c0.7,0.4,1.2,0.8,1.5,1.2
				c0.3,0.4,0.4,0.8,0.4,1.3c0,0.7-0.3,1.3-0.8,1.7c-0.5,0.5-1.2,0.7-2,0.7c-0.4,0-0.8-0.1-1.3-0.2c-0.4-0.2-0.7-0.2-0.8-0.2
				c-0.2,0-0.3,0-0.3,0.1c-0.1,0.1-0.1,0.2-0.1,0.3h-0.3l-0.4-2.8H545.7z"/>
			<path class="st9" d="M552.1,316.9c0.4,0,0.6-0.1,0.8-0.3c0.1-0.1,0.2-0.4,0.2-0.7v-6.1c0-0.3,0-0.5-0.1-0.6s-0.2-0.1-0.4-0.1
				c0,0-0.1,0-0.1,0s-0.1,0-0.2,0v-0.2l0.6-0.2c0,0,0.4-0.2,1.3-0.4c0,0,0,0,0,0c0,0,0,0,0,0.1v0.9c0.3-0.3,0.5-0.5,0.7-0.6
				c0.4-0.2,0.8-0.4,1.2-0.4c0.6,0,1.1,0.2,1.5,0.7c0.4,0.5,0.6,1.2,0.6,2c0,0.8-0.3,1.6-0.8,2.3c-0.5,0.7-1.1,1-1.9,1
				c-0.2,0-0.4,0-0.6-0.1c-0.3-0.1-0.5-0.3-0.7-0.5v2.1c0,0.4,0.1,0.7,0.2,0.8s0.4,0.2,0.9,0.2v0.2h-3.1V316.9z M554.6,313.7
				c0.2,0.1,0.5,0.2,0.8,0.2c0.5,0,0.8-0.2,1.2-0.7c0.3-0.5,0.5-1.1,0.5-1.9c0-0.8-0.2-1.4-0.5-1.7c-0.3-0.4-0.7-0.6-1.2-0.6
				c-0.3,0-0.6,0.1-0.9,0.3c-0.3,0.2-0.4,0.4-0.4,0.6v3.2C554.2,313.4,554.4,313.6,554.6,313.7z"/>
			<path class="st9" d="M563.1,308.9c0.4,0.4,0.7,1,0.7,1.8h-4c0,1,0.3,1.7,0.7,2.1c0.4,0.4,0.9,0.7,1.4,0.7c0.4,0,0.8-0.1,1.1-0.3
				s0.6-0.6,0.8-1l0.2,0.1c-0.2,0.5-0.5,1-1,1.5c-0.5,0.5-1.1,0.7-1.7,0.7c-0.8,0-1.4-0.3-1.8-0.9c-0.4-0.6-0.7-1.3-0.7-2.1
				c0-0.9,0.3-1.6,0.8-2.2c0.5-0.6,1.2-0.9,2-0.9C562.1,308.3,562.6,308.5,563.1,308.9z M560.1,309.4c-0.1,0.2-0.2,0.5-0.3,0.9h2.7
				c0-0.4-0.1-0.7-0.2-0.9c-0.2-0.4-0.6-0.6-1-0.6C560.7,308.8,560.3,309,560.1,309.4z"/>
			<path class="st9" d="M564.6,314.1c0.3,0,0.5-0.1,0.6-0.2c0.1-0.1,0.2-0.4,0.2-0.8v-3.2c0-0.3,0-0.5-0.1-0.6
				c-0.1-0.2-0.2-0.2-0.5-0.2c0,0-0.1,0-0.1,0s-0.1,0-0.1,0v-0.2c0.2-0.1,0.6-0.2,1.2-0.4l0.6-0.2c0,0,0,0,0.1,0c0,0,0,0.1,0,0.1
				v0.9c0.4-0.4,0.7-0.6,0.9-0.7c0.3-0.2,0.7-0.3,1-0.3c0.3,0,0.5,0.1,0.8,0.2c0.5,0.3,0.7,0.9,0.7,1.7v3c0,0.3,0.1,0.5,0.2,0.7
				c0.1,0.1,0.3,0.2,0.6,0.2v0.2h-2.7v-0.2c0.3,0,0.5-0.1,0.6-0.3c0.1-0.1,0.2-0.4,0.2-0.8v-2.7c0-0.4-0.1-0.7-0.2-0.9
				s-0.4-0.4-0.7-0.4c-0.2,0-0.5,0.1-0.8,0.3c-0.1,0.1-0.3,0.3-0.6,0.5v3.6c0,0.3,0.1,0.5,0.2,0.6c0.1,0.1,0.3,0.2,0.6,0.2v0.2h-2.8
				V314.1z"/>
			<path class="st9" d="M574.7,308.5c0.2,0.1,0.3,0.2,0.5,0.4v-2c0-0.3,0-0.4-0.1-0.5c-0.1-0.1-0.2-0.1-0.4-0.1c-0.1,0-0.1,0-0.1,0
				c0,0-0.1,0-0.3,0V306l0.5-0.1c0.2-0.1,0.4-0.1,0.6-0.2s0.4-0.1,0.5-0.2c0.1,0,0.2-0.1,0.3-0.1l0,0l0,0.7c0,0.2,0,0.5,0,0.7
				c0,0.3,0,0.5,0,0.8l0,5.2c0,0.3,0,0.5,0.1,0.6c0.1,0.1,0.2,0.2,0.5,0.2c0,0,0.1,0,0.1,0c0,0,0.1,0,0.1,0v0.2c0,0-0.3,0.1-0.9,0.3
				l-1,0.4l0-0.1v-0.8c-0.2,0.3-0.4,0.4-0.6,0.6c-0.3,0.2-0.7,0.3-1.1,0.3c-0.7,0-1.3-0.3-1.7-0.8s-0.7-1.2-0.7-1.9
				c0-0.9,0.3-1.7,0.8-2.4c0.5-0.7,1.2-1,2-1C574.2,308.3,574.5,308.3,574.7,308.5z M574.9,313.4c0.2-0.2,0.3-0.4,0.3-0.6v-2.7
				c0-0.5-0.1-0.9-0.4-1.2s-0.6-0.3-0.9-0.3c-0.5,0-0.9,0.2-1.2,0.7c-0.3,0.5-0.4,1.1-0.4,1.7c0,0.7,0.2,1.3,0.5,1.8
				c0.3,0.5,0.8,0.8,1.4,0.8C574.5,313.7,574.7,313.6,574.9,313.4z"/>
			<path class="st9" d="M577.6,314.1c0.5,0,0.7-0.1,0.9-0.2c0.1-0.1,0.2-0.4,0.2-0.9v-3c0-0.3,0-0.5-0.1-0.6
				c-0.1-0.2-0.2-0.3-0.4-0.3c0,0-0.1,0-0.1,0c0,0-0.2,0-0.4,0.1V309l0.3-0.1c0.7-0.2,1.3-0.4,1.5-0.5c0.1-0.1,0.2-0.1,0.2-0.1
				c0,0,0,0.1,0,0.1v4.6c0,0.5,0.1,0.8,0.2,0.9c0.1,0.1,0.4,0.2,0.8,0.2v0.2h-3.1V314.1z M578.6,305.6c0.1-0.1,0.3-0.2,0.5-0.2
				c0.2,0,0.3,0.1,0.5,0.2c0.1,0.1,0.2,0.3,0.2,0.5c0,0.2-0.1,0.3-0.2,0.5c-0.1,0.1-0.3,0.2-0.5,0.2c-0.2,0-0.3-0.1-0.5-0.2
				c-0.1-0.1-0.2-0.3-0.2-0.5C578.4,305.9,578.5,305.7,578.6,305.6z"/>
			<path class="st9" d="M581.2,314.1c0.3,0,0.5-0.1,0.6-0.2c0.1-0.1,0.2-0.4,0.2-0.8v-3.2c0-0.3,0-0.5-0.1-0.6
				c-0.1-0.2-0.2-0.2-0.5-0.2c0,0-0.1,0-0.1,0c0,0-0.1,0-0.1,0v-0.2c0.2-0.1,0.6-0.2,1.2-0.4l0.6-0.2c0,0,0,0,0.1,0c0,0,0,0.1,0,0.1
				v0.9c0.4-0.4,0.7-0.6,0.9-0.7c0.3-0.2,0.7-0.3,1-0.3c0.3,0,0.5,0.1,0.8,0.2c0.5,0.3,0.7,0.9,0.7,1.7v3c0,0.3,0.1,0.5,0.2,0.7
				c0.1,0.1,0.3,0.2,0.6,0.2v0.2h-2.7v-0.2c0.3,0,0.5-0.1,0.6-0.3c0.1-0.1,0.2-0.4,0.2-0.8v-2.7c0-0.4-0.1-0.7-0.2-0.9
				s-0.4-0.4-0.7-0.4c-0.2,0-0.5,0.1-0.8,0.3c-0.1,0.1-0.3,0.3-0.6,0.5v3.6c0,0.3,0.1,0.5,0.2,0.6c0.1,0.1,0.3,0.2,0.6,0.2v0.2h-2.8
				V314.1z"/>
			<path class="st9" d="M588.6,311.5c-0.2-0.3-0.3-0.7-0.3-1.1c0-0.5,0.2-1,0.6-1.4s1-0.7,1.7-0.7c0.3,0,0.6,0.1,1,0.2
				c0.4,0.1,0.7,0.2,1.1,0.2c0.1,0,0.2,0,0.4,0c0.2,0,0.3,0,0.4,0h0.1v0.5h-1.1c0.1,0.2,0.1,0.3,0.2,0.5c0.1,0.2,0.1,0.5,0.1,0.7
				c0,0.5-0.2,0.9-0.6,1.3c-0.4,0.4-0.9,0.6-1.6,0.6c-0.1,0-0.3,0-0.6-0.1c-0.1,0-0.3,0.1-0.5,0.3s-0.3,0.4-0.3,0.5
				c0,0.1,0.1,0.2,0.4,0.3c0.2,0,0.4,0.1,0.6,0.1c1.1,0,1.8,0.1,2.2,0.2c0.6,0.2,1,0.6,1,1.3c0,0.7-0.4,1.2-1.1,1.6
				c-0.7,0.4-1.5,0.6-2.3,0.6c-0.7,0-1.2-0.1-1.7-0.4s-0.6-0.6-0.6-0.9c0-0.2,0.1-0.3,0.2-0.4c0.1-0.1,0.3-0.4,0.6-0.7l0.4-0.4
				l0.1-0.1c-0.2-0.1-0.3-0.2-0.4-0.2c-0.2-0.1-0.3-0.3-0.3-0.5c0-0.2,0.1-0.3,0.2-0.5c0.1-0.2,0.5-0.5,0.9-0.9
				C589.1,312,588.8,311.8,588.6,311.5z M589.3,316.2c0.4,0.1,0.9,0.2,1.4,0.2c0.7,0,1.3-0.1,1.7-0.4c0.4-0.2,0.7-0.5,0.7-0.9
				c0-0.3-0.2-0.5-0.5-0.6c-0.2-0.1-0.6-0.1-1.3-0.1c-0.2,0-0.3,0-0.5,0c-0.2,0-0.3,0-0.5,0c-0.1,0-0.2,0-0.5-0.1s-0.4-0.1-0.5-0.1
				c-0.1,0-0.2,0.1-0.4,0.4c-0.2,0.3-0.3,0.5-0.3,0.7C588.7,315.8,588.9,316,589.3,316.2z M591.3,311.8c0.3-0.2,0.4-0.6,0.4-1.1
				c0-0.4-0.1-0.9-0.3-1.4c-0.2-0.5-0.5-0.8-1-0.8c-0.4,0-0.7,0.2-0.9,0.6c-0.1,0.2-0.1,0.5-0.1,0.8c0,0.5,0.1,1,0.4,1.4
				c0.2,0.4,0.6,0.6,1,0.6C591,312,591.2,312,591.3,311.8z"/>
		</g>
	</g>
</g>
<g>
	<g class="st8">
		<path class="st9" d="M240.7,276.2c0,1.1-0.5,2-1.4,2.8c-0.9,0.8-2.1,1.2-3.6,1.3v3.5H234v-3.5c-0.7,0-1.6-0.1-2.5-0.3
			c-0.9-0.2-1.7-0.4-2.2-0.6v-2.8h0.4c0.6,0.3,1.3,0.6,2,0.8s1.5,0.3,2.3,0.4v-2.6l-0.9-0.2c-0.6-0.1-1.1-0.3-1.6-0.5
			c-0.5-0.2-0.9-0.4-1.3-0.7c-0.4-0.3-0.6-0.7-0.8-1.1c-0.2-0.4-0.3-1-0.3-1.6c0-1,0.4-1.8,1.3-2.5c0.9-0.7,2.1-1.1,3.6-1.2v-2.3
			h1.7v2.2c0.6,0,1.3,0.1,2.1,0.3c0.8,0.1,1.4,0.3,1.9,0.5v2.8h-0.4c-0.5-0.3-1-0.5-1.6-0.7c-0.6-0.2-1.3-0.3-1.9-0.3v2.5l0.8,0.2
			c1.5,0.3,2.5,0.7,3.2,1.3C240.4,274.4,240.7,275.2,240.7,276.2z M234.2,272.1v-2.2c-0.4,0-0.8,0.1-1.1,0.3s-0.5,0.4-0.5,0.8
			c0,0.3,0.1,0.5,0.3,0.7C233.1,271.9,233.5,272,234.2,272.1z M237.2,276.6c0-0.4-0.2-0.7-0.5-0.8s-0.7-0.3-1-0.4v2.4
			c0.4-0.1,0.8-0.2,1.1-0.4C237.1,277.2,237.2,277,237.2,276.6z"/>
		<path class="st9" d="M261.4,275.5c0,0.7-0.1,1.4-0.4,2.1s-0.7,1.2-1.2,1.6c-0.6,0.5-1.3,0.9-2,1.1c-0.8,0.2-1.6,0.4-2.6,0.4
			c-1.2,0-2.1-0.1-2.9-0.3c-0.8-0.2-1.4-0.4-1.9-0.6v-3.2h0.4c0.6,0.3,1.2,0.6,1.9,0.9c0.7,0.2,1.4,0.3,2,0.3c0.4,0,0.8,0,1.3-0.1
			c0.5-0.1,0.8-0.3,1.1-0.5c0.2-0.2,0.4-0.4,0.5-0.6c0.1-0.2,0.2-0.5,0.2-1c0-0.3-0.1-0.6-0.2-0.9c-0.2-0.2-0.3-0.4-0.6-0.6
			c-0.3-0.2-0.8-0.4-1.3-0.4c-0.5-0.1-0.9-0.1-1.3-0.1c-0.6,0-1.1,0-1.7,0.1s-1,0.2-1.4,0.3h-0.4V266H261v2.8h-6.7v2.3
			c0.2,0,0.5,0,0.8,0c0.3,0,0.6,0,0.8,0c0.8,0,1.5,0.1,2.1,0.2c0.6,0.2,1.2,0.4,1.6,0.6c0.6,0.4,1,0.8,1.4,1.4
			C261.2,273.9,261.4,274.6,261.4,275.5z"/>
		<path class="st9" d="M275.7,273.2c0,1.2-0.1,2.3-0.3,3.3s-0.6,1.7-1,2.4c-0.5,0.6-1.1,1.1-1.8,1.4c-0.7,0.3-1.7,0.5-2.8,0.5
			c-1.1,0-2-0.2-2.8-0.5c-0.8-0.3-1.4-0.8-1.8-1.4c-0.5-0.6-0.8-1.4-1-2.4s-0.3-2-0.3-3.2c0-1.3,0.1-2.3,0.3-3.3
			c0.2-0.9,0.6-1.7,1-2.3c0.5-0.6,1.1-1.1,1.9-1.4c0.8-0.3,1.7-0.5,2.7-0.5c1.1,0,2,0.2,2.8,0.5c0.7,0.3,1.4,0.8,1.8,1.5
			c0.5,0.6,0.8,1.4,1,2.3C275.6,270.9,275.7,271.9,275.7,273.2z M272,273.2c0-1.7-0.2-3-0.5-3.7c-0.3-0.7-0.9-1.1-1.7-1.1
			c-0.8,0-1.4,0.4-1.7,1.1c-0.3,0.7-0.5,2-0.5,3.7c0,1.7,0.2,2.9,0.5,3.7c0.3,0.8,0.9,1.1,1.7,1.1s1.3-0.4,1.7-1.1
			C271.8,276.1,272,274.9,272,273.2z"/>
		<path class="st9" d="M288.5,273.6c0.3,0.3,0.6,0.6,0.8,0.9c0.2,0.4,0.3,0.8,0.3,1.4c0,0.7-0.1,1.3-0.4,1.9
			c-0.3,0.6-0.7,1.1-1.2,1.5c-0.5,0.4-1.2,0.7-1.9,0.9s-1.6,0.3-2.7,0.3c-1.2,0-2.2-0.1-3.1-0.3c-0.9-0.2-1.5-0.4-2.1-0.6v-3.2h0.4
			c0.6,0.3,1.2,0.6,2,0.9s1.5,0.4,2.1,0.4c0.4,0,0.8,0,1.2-0.1c0.4-0.1,0.8-0.2,1.1-0.4c0.2-0.2,0.4-0.4,0.6-0.6
			c0.1-0.2,0.2-0.6,0.2-1c0-0.4-0.1-0.7-0.3-1c-0.2-0.2-0.4-0.4-0.8-0.5c-0.3-0.1-0.7-0.2-1.1-0.2c-0.4,0-0.9,0-1.2,0h-0.8v-2.6h0.8
			c0.5,0,0.9,0,1.3,0s0.7-0.1,1-0.2c0.3-0.1,0.5-0.3,0.6-0.5s0.2-0.5,0.2-0.9c0-0.3-0.1-0.5-0.2-0.7c-0.1-0.2-0.3-0.3-0.6-0.4
			c-0.3-0.1-0.5-0.2-0.9-0.2c-0.3,0-0.6-0.1-0.9-0.1c-0.6,0-1.3,0.1-2,0.3c-0.7,0.2-1.4,0.5-2.1,0.9h-0.4v-3.1
			c0.5-0.2,1.2-0.4,2.2-0.6s1.8-0.3,2.8-0.3c0.9,0,1.7,0.1,2.4,0.2c0.7,0.2,1.2,0.4,1.7,0.6c0.5,0.3,0.9,0.7,1.2,1.2s0.4,1,0.4,1.6
			c0,0.8-0.2,1.5-0.7,2.1c-0.5,0.6-1.2,1-2,1.2v0.1c0.3,0,0.7,0.1,1,0.3C287.8,273.2,288.2,273.4,288.5,273.6z"/>
		<path class="st9" d="M296.8,276.6l-3.5,7.4h-2.2l1.9-7.4H296.8z"/>
		<path class="st9" d="M311.3,277h-2v3.4h-3.5V277h-7v-2.7l6.7-8.4h3.8v8.5h2V277z M305.8,274.4v-5.2l-4.2,5.2H305.8z"/>
		<path class="st9" d="M324.9,268.8l-6.5,11.5h-4.1l6.8-11.6h-7.4V266h11.3V268.8z"/>
		<path class="st9" d="M339,268.8l-6.5,11.5h-4.1l6.8-11.6h-7.4V266H339V268.8z"/>
		<path class="st9" d="M346.2,276.6l-3.5,7.4h-2.2l1.9-7.4H346.2z"/>
		<path class="st9" d="M359.6,280.4H350v-2.5h3v-7.6h-3v-2.3c0.5,0,0.9,0,1.3-0.1s0.8-0.2,1.1-0.3c0.3-0.2,0.6-0.4,0.8-0.6
			c0.2-0.3,0.3-0.6,0.3-1h3.2v11.9h3V280.4z"/>
		<path class="st9" d="M374.2,272.4c0,1.2-0.2,2.3-0.5,3.4c-0.3,1-0.8,1.9-1.4,2.6c-0.7,0.8-1.5,1.3-2.5,1.7c-1,0.4-2.2,0.6-3.5,0.6
			c-0.5,0-1,0-1.5-0.1s-0.9-0.1-1.1-0.2v-2.8h0.4c0.2,0.1,0.5,0.2,0.8,0.3c0.4,0.1,0.8,0.2,1.5,0.2c0.5,0,1-0.1,1.5-0.2
			c0.5-0.1,0.9-0.3,1.2-0.6c0.4-0.3,0.7-0.7,0.9-1.1c0.2-0.4,0.4-1,0.5-1.6c-0.6,0.3-1.1,0.6-1.6,0.7c-0.5,0.2-1.1,0.3-1.8,0.3
			c-0.5,0-1.1-0.1-1.6-0.2c-0.5-0.1-0.9-0.3-1.3-0.6c-0.5-0.4-1-0.9-1.3-1.5c-0.3-0.6-0.5-1.4-0.5-2.4c0-1.5,0.5-2.8,1.6-3.8
			c1.1-1,2.5-1.5,4.2-1.5c0.9,0,1.7,0.1,2.4,0.4s1.3,0.6,1.8,1.1c0.6,0.6,1,1.3,1.3,2.1C374.1,270.1,374.2,271.1,374.2,272.4z
			 M370.5,271.8c0-0.8-0.1-1.4-0.2-1.9s-0.4-0.9-0.6-1.2c-0.2-0.2-0.4-0.4-0.6-0.4c-0.2-0.1-0.5-0.1-0.8-0.1c-0.3,0-0.5,0-0.7,0.1
			c-0.2,0.1-0.4,0.2-0.7,0.5c-0.2,0.2-0.4,0.5-0.5,0.8c-0.1,0.3-0.2,0.7-0.2,1.2c0,0.5,0.1,0.8,0.2,1.1c0.1,0.3,0.3,0.5,0.6,0.7
			c0.2,0.2,0.5,0.3,0.8,0.4c0.3,0.1,0.6,0.1,1,0.1c0.3,0,0.6,0,0.9-0.1c0.3-0.1,0.6-0.2,0.8-0.2c0-0.1,0-0.2,0-0.3
			C370.5,272.3,370.5,272.1,370.5,271.8z"/>
		<path class="st9" d="M388.6,280.4h-11.3V278c0.9-0.6,1.7-1.3,2.6-2c0.9-0.7,1.6-1.3,2.1-1.8c0.8-0.8,1.3-1.4,1.7-2
			c0.3-0.6,0.5-1.1,0.5-1.7c0-0.7-0.2-1.2-0.6-1.5c-0.4-0.4-1-0.5-1.8-0.5c-0.6,0-1.2,0.1-1.9,0.4s-1.3,0.6-1.8,0.9h-0.3v-3.2
			c0.5-0.2,1.1-0.4,2-0.6c0.9-0.2,1.8-0.3,2.7-0.3c1.8,0,3.2,0.4,4.1,1.1c0.9,0.8,1.4,1.8,1.4,3.2c0,0.9-0.2,1.8-0.7,2.6
			s-1.1,1.7-2.1,2.5c-0.6,0.5-1.2,1-1.8,1.5c-0.6,0.5-1,0.8-1.3,1h6.5V280.4z"/>
	</g>
	<rect x="210.2" y="296.7" class="st10" width="197" height="76.5"/>
	<g class="st8">
		<path class="st9" d="M218.6,297.1h10.7l0.1,3.2H229c-0.2-1-0.5-1.7-0.8-2c-0.3-0.3-1.1-0.5-2.2-0.5h-1.1v9.7
			c0,0.7,0.1,1.2,0.3,1.4c0.2,0.2,0.7,0.3,1.5,0.3v0.4h-5.5v-0.4c0.8-0.1,1.3-0.2,1.5-0.4c0.2-0.2,0.3-0.7,0.3-1.5v-9.5H222
			c-1,0-1.8,0.2-2.1,0.5c-0.4,0.3-0.7,1-0.9,2h-0.5L218.6,297.1z"/>
		<path class="st9" d="M229.2,309.3c0.6,0,0.9-0.1,1.1-0.3s0.3-0.5,0.3-1v-4.2c0-0.6-0.1-1-0.2-1.3c-0.1-0.3-0.3-0.4-0.6-0.4
			c-0.1,0-0.1,0-0.2,0c-0.1,0-0.2,0-0.3,0.1v-0.3c0.3-0.1,0.7-0.2,1.1-0.4c0.4-0.1,0.6-0.2,0.8-0.3c0.3-0.1,0.6-0.2,0.9-0.4
			c0,0,0.1,0,0.1,0c0,0,0,0.1,0,0.2v1.5c0.4-0.5,0.8-1,1.1-1.3s0.7-0.5,1.1-0.5c0.3,0,0.6,0.1,0.8,0.3c0.2,0.2,0.3,0.4,0.3,0.7
			c0,0.3-0.1,0.5-0.2,0.6c-0.2,0.2-0.3,0.3-0.6,0.3c-0.2,0-0.5-0.1-0.7-0.3c-0.2-0.2-0.4-0.3-0.6-0.3c-0.2,0-0.5,0.2-0.8,0.5
			s-0.5,0.7-0.5,1.1v4.2c0,0.5,0.1,0.9,0.4,1.1c0.2,0.2,0.7,0.3,1.2,0.3v0.3h-4.5V309.3z"/>
		<path class="st9" d="M238.4,301.1v5.9c0,0.4,0.1,0.8,0.2,1c0.2,0.5,0.6,0.7,1.3,0.7c0.4,0,0.8-0.1,1.2-0.4
			c0.2-0.2,0.5-0.4,0.7-0.6v-5.1c0-0.5-0.1-0.8-0.3-0.9s-0.6-0.2-1.1-0.3v-0.3h3v6.5c0,0.4,0.1,0.7,0.2,0.9c0.2,0.2,0.5,0.2,1,0.2
			v0.3c-0.3,0.1-0.6,0.2-0.7,0.2c-0.2,0-0.4,0.1-0.8,0.3c-0.2,0.1-0.5,0.2-1.1,0.4c0,0,0,0-0.1,0c0,0,0-0.1,0-0.1v-1.5
			c-0.4,0.5-0.8,0.9-1.1,1.1c-0.5,0.4-1.1,0.6-1.7,0.6c-0.5,0-1-0.2-1.5-0.6c-0.5-0.4-0.7-1-0.7-1.9v-4.8c0-0.5-0.1-0.8-0.3-1
			c-0.1-0.1-0.4-0.2-0.9-0.2v-0.3H238.4z"/>
		<path class="st9" d="M245.2,309.4c0.5,0,0.8-0.1,1-0.2c0.2-0.2,0.4-0.5,0.4-1.1v-4.8c0-0.5-0.1-0.8-0.2-0.9
			c-0.1-0.1-0.3-0.2-0.6-0.2c-0.1,0-0.2,0-0.3,0c-0.1,0-0.1,0-0.2,0.1v-0.3l0.7-0.2c0.2-0.1,0.6-0.2,1.2-0.4
			c0.5-0.2,0.8-0.3,0.9-0.3s0,0,0.1,0c0,0,0,0.1,0,0.2v1.2c0.6-0.6,1.1-0.9,1.6-1.1c0.4-0.2,0.9-0.3,1.4-0.3c0.6,0,1.1,0.2,1.5,0.6
			c0.2,0.2,0.4,0.6,0.5,1c0.5-0.5,0.9-0.8,1.2-1c0.6-0.4,1.2-0.6,1.8-0.6c1,0,1.7,0.4,2,1.2c0.2,0.5,0.3,1.2,0.3,2.2v3.8
			c0,0.4,0.1,0.7,0.3,0.9c0.2,0.2,0.5,0.3,1,0.3v0.2h-4.2v-0.3c0.5,0,0.9-0.2,1.1-0.3c0.2-0.2,0.3-0.5,0.3-1v-4c0-0.6-0.1-1-0.2-1.3
			c-0.2-0.5-0.7-0.8-1.3-0.8c-0.4,0-0.8,0.1-1.2,0.4c-0.2,0.2-0.5,0.4-0.8,0.7v4.7c0,0.5,0.1,0.9,0.3,1.1s0.5,0.4,1.1,0.4v0.2h-4.2
			v-0.2c0.6-0.1,1-0.2,1.1-0.4c0.2-0.2,0.2-0.7,0.2-1.6v-2.6c0-0.9-0.1-1.6-0.2-2c-0.2-0.6-0.6-0.9-1.3-0.9c-0.4,0-0.7,0.1-1.1,0.3
			c-0.4,0.2-0.7,0.5-1,0.8v5c0,0.5,0.1,0.8,0.2,1s0.5,0.3,1.1,0.3v0.2h-4.2V309.4z"/>
		<path class="st9" d="M259.7,313.4c0.6,0,0.9-0.2,1.1-0.4s0.2-0.5,0.2-1v-8.9c0-0.5-0.1-0.8-0.2-0.9c-0.1-0.1-0.3-0.2-0.6-0.2
			c-0.1,0-0.1,0-0.2,0c-0.1,0-0.1,0-0.3,0v-0.3l0.9-0.3c0,0,0.6-0.2,1.9-0.6c0,0,0.1,0,0.1,0c0,0,0,0.1,0,0.1v1.2
			c0.4-0.4,0.8-0.7,1.1-0.9c0.6-0.3,1.1-0.5,1.7-0.5c0.8,0,1.6,0.4,2.2,1.1c0.6,0.7,0.9,1.7,0.9,3c0,1.2-0.4,2.3-1.1,3.3
			s-1.7,1.5-2.8,1.5c-0.3,0-0.6,0-0.9-0.1c-0.4-0.1-0.8-0.4-1.1-0.7v3c0,0.6,0.1,1,0.3,1.1s0.6,0.2,1.3,0.3v0.3h-4.6V313.4z
			 M263.3,308.8c0.3,0.2,0.7,0.3,1.1,0.3c0.7,0,1.2-0.3,1.7-1c0.5-0.7,0.7-1.6,0.7-2.8c0-1.1-0.2-2-0.7-2.5
			c-0.5-0.6-1.1-0.8-1.7-0.8c-0.5,0-0.9,0.1-1.2,0.4c-0.4,0.3-0.6,0.6-0.6,0.8v4.6C262.8,308.3,263,308.6,263.3,308.8z"/>
		<path class="st9" d="M278.6,301.1v0.7h-1.9l0,5.3c0,0.5,0,0.8,0.1,1.1c0.1,0.4,0.4,0.6,0.9,0.6c0.2,0,0.4-0.1,0.6-0.2
			s0.3-0.3,0.6-0.5l0.2,0.2l-0.2,0.3c-0.3,0.4-0.7,0.7-1,0.9c-0.4,0.2-0.7,0.3-1,0.3c-0.7,0-1.2-0.3-1.5-1c-0.1-0.4-0.2-0.8-0.2-1.5
			v-5.6h-1c0,0-0.1,0-0.1-0.1c0,0,0,0,0-0.1c0-0.1,0-0.1,0-0.1c0,0,0.1-0.1,0.3-0.2c0.4-0.4,0.7-0.6,0.9-0.9
			c0.2-0.2,0.6-0.8,1.3-1.7c0.1,0,0.1,0,0.1,0c0,0,0,0.1,0,0.1v2.3H278.6z"/>
		<path class="st9" d="M280.7,302.2c0.8-0.8,1.8-1.3,3-1.3c1.2,0,2.2,0.4,3,1.2s1.2,1.9,1.2,3.2c0,1.2-0.4,2.3-1.2,3.2
			c-0.8,0.9-1.8,1.4-3,1.4c-1.2,0-2.2-0.4-3-1.3c-0.8-0.9-1.2-2-1.2-3.3C279.5,304.1,279.9,303.1,280.7,302.2z M282.1,302
			c-0.6,0.6-0.9,1.5-0.9,2.9c0,1.1,0.2,2.1,0.7,3.1s1.2,1.4,2.1,1.4c0.7,0,1.2-0.3,1.6-1s0.6-1.5,0.6-2.5c0-1.1-0.2-2.1-0.7-3
			s-1.2-1.4-2.1-1.4C282.9,301.5,282.5,301.7,282.1,302z"/>
		<path class="st9" d="M293.3,301.1v0.7h-1.9l0,5.3c0,0.5,0,0.8,0.1,1.1c0.1,0.4,0.4,0.6,0.9,0.6c0.2,0,0.4-0.1,0.6-0.2
			s0.3-0.3,0.6-0.5l0.2,0.2l-0.2,0.3c-0.3,0.4-0.7,0.7-1,0.9c-0.4,0.2-0.7,0.3-1,0.3c-0.7,0-1.2-0.3-1.5-1c-0.1-0.4-0.2-0.8-0.2-1.5
			v-5.6h-1c0,0-0.1,0-0.1-0.1c0,0,0,0,0-0.1c0-0.1,0-0.1,0-0.1c0,0,0.1-0.1,0.3-0.2c0.4-0.4,0.7-0.6,0.9-0.9
			c0.2-0.2,0.6-0.8,1.3-1.7c0.1,0,0.1,0,0.1,0c0,0,0,0.1,0,0.1v2.3H293.3z"/>
		<path class="st9" d="M295.8,305.5c0.6-0.4,1.7-0.9,3.4-1.5v-0.8c0-0.6-0.1-1.1-0.2-1.3c-0.2-0.4-0.6-0.6-1.3-0.6
			c-0.3,0-0.6,0.1-0.9,0.2c-0.3,0.2-0.4,0.4-0.4,0.7c0,0.1,0,0.2,0,0.4c0,0.2,0,0.3,0,0.3c0,0.3-0.1,0.6-0.3,0.7
			c-0.1,0.1-0.3,0.1-0.5,0.1c-0.3,0-0.5-0.1-0.6-0.3c-0.1-0.2-0.2-0.4-0.2-0.6c0-0.4,0.3-0.9,0.8-1.4c0.5-0.5,1.3-0.7,2.3-0.7
			c1.2,0,2,0.4,2.4,1.2c0.2,0.4,0.3,1,0.3,1.9v3.7c0,0.4,0,0.6,0.1,0.7c0.1,0.2,0.2,0.4,0.5,0.4c0.1,0,0.3,0,0.4-0.1
			c0.1,0,0.3-0.1,0.5-0.3v0.5c-0.2,0.2-0.4,0.4-0.6,0.6c-0.3,0.2-0.7,0.4-1.1,0.4c-0.4,0-0.7-0.1-0.9-0.4c-0.2-0.3-0.3-0.6-0.3-1
			c-0.5,0.4-0.9,0.7-1.2,0.9c-0.6,0.3-1.1,0.5-1.6,0.5c-0.5,0-1-0.2-1.4-0.6s-0.6-0.8-0.6-1.4C294.4,306.9,294.9,306.1,295.8,305.5z
			 M299.1,304.5c-0.7,0.2-1.3,0.5-1.8,0.8c-0.9,0.5-1.3,1.2-1.3,1.9c0,0.6,0.2,1,0.6,1.2c0.2,0.2,0.5,0.3,0.8,0.3
			c0.4,0,0.8-0.1,1.2-0.3c0.4-0.2,0.6-0.5,0.6-0.9V304.5z"/>
		<path class="st9" d="M302.5,309.3c0.6-0.1,1-0.2,1.2-0.3s0.3-0.5,0.3-1v-9c0-0.4,0-0.7-0.1-0.8c-0.1-0.3-0.4-0.4-0.7-0.4
			c-0.1,0-0.2,0-0.3,0s-0.2,0-0.4,0.1v-0.3c0.8-0.2,1.8-0.5,3-0.9c0,0,0.1,0,0.1,0.1c0,0,0,0.1,0,0.2V308c0,0.5,0.1,0.9,0.3,1
			c0.2,0.2,0.6,0.3,1.1,0.3v0.3h-4.5V309.3z"/>
		<path class="st9" d="M313.1,306.7h0.3c0.1,0.7,0.3,1.2,0.6,1.6c0.4,0.7,1.1,1,1.9,1c0.5,0,0.8-0.1,1.1-0.4c0.3-0.3,0.4-0.6,0.4-1
			c0-0.3-0.1-0.5-0.2-0.7s-0.4-0.5-0.8-0.7l-1-0.6c-0.8-0.4-1.3-0.8-1.7-1.2c-0.4-0.4-0.5-0.9-0.5-1.5c0-0.7,0.2-1.3,0.7-1.7
			c0.5-0.4,1.1-0.7,1.9-0.7c0.3,0,0.7,0.1,1.1,0.2s0.6,0.2,0.7,0.2c0.1,0,0.2,0,0.2,0c0,0,0.1-0.1,0.1-0.1h0.2l0.1,2.6h-0.3
			c-0.1-0.6-0.3-1.1-0.5-1.4c-0.4-0.6-0.9-0.9-1.7-0.9c-0.4,0-0.8,0.1-1,0.4s-0.4,0.6-0.4,0.9c0,0.6,0.4,1.1,1.3,1.5l1.2,0.7
			c1.3,0.7,2,1.5,2,2.5c0,0.7-0.3,1.3-0.8,1.8c-0.5,0.5-1.3,0.7-2.1,0.7c-0.4,0-0.8-0.1-1.3-0.2s-0.7-0.2-0.8-0.2
			c-0.1,0-0.1,0-0.2,0.1c-0.1,0.1-0.1,0.1-0.1,0.2h-0.2V306.7z"/>
		<path class="st9" d="M319.5,313.4c0.6,0,0.9-0.2,1.1-0.4s0.2-0.5,0.2-1v-8.9c0-0.5-0.1-0.8-0.2-0.9c-0.1-0.1-0.3-0.2-0.6-0.2
			c-0.1,0-0.1,0-0.2,0c-0.1,0-0.1,0-0.3,0v-0.3l0.9-0.3c0,0,0.6-0.2,1.9-0.6c0,0,0.1,0,0.1,0c0,0,0,0.1,0,0.1v1.2
			c0.4-0.4,0.8-0.7,1.1-0.9c0.6-0.3,1.1-0.5,1.7-0.5c0.8,0,1.6,0.4,2.2,1.1c0.6,0.7,0.9,1.7,0.9,3c0,1.2-0.4,2.3-1.1,3.3
			s-1.7,1.5-2.8,1.5c-0.3,0-0.6,0-0.9-0.1c-0.4-0.1-0.8-0.4-1.1-0.7v3c0,0.6,0.1,1,0.3,1.1s0.6,0.2,1.3,0.3v0.3h-4.6V313.4z
			 M323.2,308.8c0.3,0.2,0.7,0.3,1.1,0.3c0.7,0,1.2-0.3,1.7-1c0.5-0.7,0.7-1.6,0.7-2.8c0-1.1-0.2-2-0.7-2.5
			c-0.5-0.6-1.1-0.8-1.7-0.8c-0.5,0-0.9,0.1-1.2,0.4c-0.4,0.3-0.6,0.6-0.6,0.8v4.6C322.6,308.3,322.9,308.6,323.2,308.8z"/>
		<path class="st9" d="M335.5,301.8c0.7,0.6,1,1.5,1,2.6h-5.9c0.1,1.4,0.4,2.5,1,3.1s1.3,1,2.1,1c0.6,0,1.2-0.2,1.6-0.5
			c0.4-0.3,0.9-0.8,1.2-1.4l0.3,0.1c-0.3,0.8-0.7,1.5-1.4,2.2c-0.7,0.7-1.5,1-2.5,1c-1.2,0-2.1-0.4-2.7-1.3c-0.6-0.9-0.9-1.9-0.9-3
			c0-1.2,0.4-2.3,1.1-3.2c0.7-0.9,1.7-1.3,2.9-1.3C334.1,300.9,334.9,301.2,335.5,301.8z M331.1,302.5c-0.2,0.3-0.3,0.8-0.4,1.3h3.9
			c-0.1-0.6-0.2-1.1-0.4-1.4c-0.3-0.5-0.8-0.8-1.5-0.8C332,301.6,331.5,301.9,331.1,302.5z"/>
		<path class="st9" d="M337.6,309.3c0.4-0.1,0.7-0.2,0.9-0.3s0.3-0.5,0.3-1.1v-4.7c0-0.4,0-0.7-0.1-0.8c-0.1-0.2-0.4-0.3-0.7-0.3
			c-0.1,0-0.1,0-0.2,0c-0.1,0-0.1,0-0.2,0v-0.3c0.3-0.1,0.8-0.3,1.8-0.6l0.9-0.3c0,0,0.1,0,0.1,0c0,0,0,0.1,0,0.1v1.4
			c0.6-0.5,1-0.9,1.3-1.1c0.5-0.3,1-0.5,1.5-0.5c0.4,0,0.8,0.1,1.1,0.4c0.7,0.5,1,1.3,1,2.5v4.3c0,0.4,0.1,0.8,0.3,1
			c0.2,0.2,0.5,0.3,0.9,0.3v0.3h-3.9v-0.3c0.4-0.1,0.8-0.2,0.9-0.4c0.2-0.2,0.3-0.6,0.3-1.2v-3.9c0-0.5-0.1-1-0.3-1.3
			s-0.6-0.5-1.1-0.5c-0.4,0-0.7,0.1-1.1,0.4c-0.2,0.1-0.5,0.4-0.8,0.7v5.2c0,0.4,0.1,0.7,0.3,0.9c0.2,0.2,0.5,0.2,0.9,0.2v0.3h-4
			V309.3z"/>
		<path class="st9" d="M347.1,309.3c0.7-0.1,1.1-0.2,1.2-0.3c0.2-0.2,0.3-0.6,0.3-1.3v-4.4c0-0.4,0-0.7-0.1-0.8
			c-0.1-0.3-0.3-0.4-0.6-0.4c-0.1,0-0.1,0-0.2,0c-0.1,0-0.3,0.1-0.6,0.1v-0.3l0.4-0.1c1.1-0.4,1.8-0.6,2.3-0.8
			c0.2-0.1,0.3-0.1,0.3-0.1c0,0,0,0.1,0,0.1v6.6c0,0.7,0.1,1.1,0.3,1.3c0.2,0.2,0.6,0.3,1.1,0.3v0.3h-4.5V309.3z M348.6,297
			c0.2-0.2,0.4-0.3,0.7-0.3c0.3,0,0.5,0.1,0.7,0.3c0.2,0.2,0.3,0.4,0.3,0.7c0,0.3-0.1,0.5-0.3,0.7c-0.2,0.2-0.4,0.3-0.7,0.3
			c-0.3,0-0.5-0.1-0.7-0.3c-0.2-0.2-0.3-0.4-0.3-0.7C348.3,297.4,348.4,297.2,348.6,297z"/>
		<path class="st9" d="M352.3,309.3c0.4-0.1,0.7-0.2,0.9-0.3s0.3-0.5,0.3-1.1v-4.7c0-0.4,0-0.7-0.1-0.8c-0.1-0.2-0.4-0.3-0.7-0.3
			c-0.1,0-0.1,0-0.2,0c-0.1,0-0.1,0-0.2,0v-0.3c0.3-0.1,0.8-0.3,1.8-0.6l0.9-0.3c0,0,0.1,0,0.1,0c0,0,0,0.1,0,0.1v1.4
			c0.6-0.5,1-0.9,1.3-1.1c0.5-0.3,1-0.5,1.5-0.5c0.4,0,0.8,0.1,1.1,0.4c0.7,0.5,1,1.3,1,2.5v4.3c0,0.4,0.1,0.8,0.3,1
			c0.2,0.2,0.5,0.3,0.9,0.3v0.3h-3.9v-0.3c0.4-0.1,0.8-0.2,0.9-0.4c0.2-0.2,0.3-0.6,0.3-1.2v-3.9c0-0.5-0.1-1-0.3-1.3
			s-0.6-0.5-1.1-0.5c-0.4,0-0.7,0.1-1.1,0.4c-0.2,0.1-0.5,0.4-0.8,0.7v5.2c0,0.4,0.1,0.7,0.3,0.9c0.2,0.2,0.5,0.2,0.9,0.2v0.3h-4
			V309.3z"/>
		<path class="st9" d="M363.2,305.5c-0.3-0.5-0.5-1-0.5-1.6c0-0.7,0.3-1.4,0.9-2c0.6-0.6,1.4-1,2.4-1c0.4,0,0.9,0.1,1.5,0.3
			c0.5,0.2,1.1,0.3,1.6,0.3c0.1,0,0.3,0,0.6,0c0.3,0,0.5,0,0.6,0h0.1v0.7h-1.6c0.1,0.3,0.2,0.5,0.3,0.7c0.1,0.4,0.2,0.7,0.2,1
			c0,0.7-0.3,1.3-0.9,1.9c-0.6,0.6-1.4,0.9-2.3,0.9c-0.2,0-0.4,0-0.8-0.1c-0.2,0-0.4,0.2-0.7,0.5c-0.3,0.3-0.4,0.5-0.4,0.7
			c0,0.2,0.2,0.3,0.6,0.4c0.3,0.1,0.6,0.1,0.9,0.1c1.6,0,2.7,0.1,3.2,0.3c0.9,0.3,1.4,0.9,1.4,1.9c0,1-0.5,1.7-1.6,2.3
			c-1.1,0.6-2.2,0.9-3.3,0.9c-1,0-1.8-0.2-2.4-0.6s-0.9-0.8-0.9-1.3c0-0.2,0.1-0.4,0.2-0.7c0.2-0.2,0.5-0.5,0.9-0.9l0.6-0.5l0.1-0.1
			c-0.3-0.1-0.5-0.2-0.6-0.3c-0.2-0.2-0.4-0.4-0.4-0.7c0-0.2,0.1-0.5,0.3-0.8c0.2-0.3,0.7-0.7,1.4-1.3
			C363.9,306.3,363.5,306,363.2,305.5z M364.2,312.4c0.6,0.2,1.2,0.3,2,0.3c1,0,1.9-0.2,2.5-0.5c0.6-0.4,1-0.8,1-1.3
			c0-0.4-0.3-0.7-0.8-0.8c-0.3-0.1-0.9-0.1-1.8-0.1c-0.2,0-0.5,0-0.7,0c-0.3,0-0.5,0-0.7,0c-0.1,0-0.4,0-0.7-0.1
			c-0.3,0-0.5-0.1-0.7-0.1c-0.1,0-0.3,0.2-0.5,0.6c-0.3,0.4-0.4,0.8-0.4,1.1C363.3,311.8,363.6,312.2,364.2,312.4z M367.1,306
			c0.4-0.3,0.6-0.8,0.6-1.5c0-0.6-0.1-1.2-0.4-2s-0.8-1.1-1.5-1.1c-0.6,0-1,0.3-1.2,0.9c-0.1,0.3-0.2,0.7-0.2,1.1
			c0,0.8,0.2,1.4,0.5,2c0.4,0.6,0.8,0.9,1.4,0.9C366.6,306.3,366.9,306.2,367.1,306z"/>
		<path class="st9" d="M377.3,302.2c0.8-0.8,1.8-1.3,3-1.3c1.2,0,2.2,0.4,3,1.2s1.2,1.9,1.2,3.2c0,1.2-0.4,2.3-1.2,3.2
			c-0.8,0.9-1.8,1.4-3,1.4c-1.2,0-2.2-0.4-3-1.3c-0.8-0.9-1.2-2-1.2-3.3C376.1,304.1,376.5,303.1,377.3,302.2z M378.7,302
			c-0.6,0.6-0.9,1.5-0.9,2.9c0,1.1,0.2,2.1,0.7,3.1s1.2,1.4,2.1,1.4c0.7,0,1.2-0.3,1.6-1s0.6-1.5,0.6-2.5c0-1.1-0.2-2.1-0.7-3
			s-1.2-1.4-2.1-1.4C379.5,301.5,379.1,301.7,378.7,302z"/>
		<path class="st9" d="M385.4,309.3c0.4-0.1,0.7-0.2,0.9-0.3s0.3-0.5,0.3-1.1v-4.7c0-0.4,0-0.7-0.1-0.8c-0.1-0.2-0.4-0.3-0.7-0.3
			c-0.1,0-0.1,0-0.2,0c-0.1,0-0.1,0-0.2,0v-0.3c0.3-0.1,0.8-0.3,1.8-0.6l0.9-0.3c0,0,0.1,0,0.1,0c0,0,0,0.1,0,0.1v1.4
			c0.6-0.5,1-0.9,1.3-1.1c0.5-0.3,1-0.5,1.5-0.5c0.4,0,0.8,0.1,1.1,0.4c0.7,0.5,1,1.3,1,2.5v4.3c0,0.4,0.1,0.8,0.3,1
			c0.2,0.2,0.5,0.3,0.9,0.3v0.3h-3.9v-0.3c0.4-0.1,0.8-0.2,0.9-0.4c0.2-0.2,0.3-0.6,0.3-1.2v-3.9c0-0.5-0.1-1-0.3-1.3
			s-0.6-0.5-1.1-0.5c-0.4,0-0.7,0.1-1.1,0.4c-0.2,0.1-0.5,0.4-0.8,0.7v5.2c0,0.4,0.1,0.7,0.3,0.9c0.2,0.2,0.5,0.2,0.9,0.2v0.3h-4
			V309.3z"/>
	</g>
	<g class="st8">
		<path class="st9" d="M228.1,321.8v0.7h-1.9l0,5.3c0,0.5,0,0.8,0.1,1.1c0.1,0.4,0.4,0.6,0.9,0.6c0.2,0,0.4-0.1,0.6-0.2
			s0.3-0.3,0.6-0.5l0.2,0.2l-0.2,0.3c-0.3,0.4-0.7,0.7-1,0.9c-0.4,0.2-0.7,0.3-1,0.3c-0.7,0-1.2-0.3-1.5-1c-0.1-0.4-0.2-0.8-0.2-1.5
			v-5.6h-1c0,0-0.1,0-0.1-0.1c0,0,0,0,0-0.1c0-0.1,0-0.1,0-0.1c0,0,0.1-0.1,0.3-0.2c0.4-0.4,0.7-0.6,0.9-0.9
			c0.2-0.2,0.6-0.8,1.3-1.7c0.1,0,0.1,0,0.1,0c0,0,0,0.1,0,0.1v2.3H228.1z"/>
		<path class="st9" d="M228.7,330c0.5-0.1,0.8-0.2,1-0.4s0.2-0.6,0.2-1.3v-8.9c0-0.3,0-0.6-0.1-0.8c-0.1-0.2-0.3-0.2-0.7-0.2
			c-0.1,0-0.1,0-0.2,0c-0.1,0-0.1,0-0.2,0v-0.3c0.3-0.1,0.6-0.2,1-0.3c0.4-0.1,0.7-0.2,0.8-0.2l0.9-0.3l0,0.1v5.7
			c0.4-0.4,0.7-0.8,1-1c0.5-0.4,1.1-0.6,1.8-0.6c1,0,1.7,0.4,2,1.3c0.2,0.4,0.3,1,0.3,1.7v3.8c0,0.7,0.1,1.1,0.2,1.3
			c0.2,0.2,0.5,0.3,0.9,0.4v0.3h-4V330c0.5-0.1,0.9-0.2,1-0.4s0.2-0.6,0.2-1.3v-3.7c0-0.6-0.1-1.1-0.3-1.4c-0.2-0.4-0.6-0.6-1.1-0.6
			c-0.5,0-0.9,0.2-1.4,0.5c-0.4,0.3-0.7,0.6-0.7,0.7v4.5c0,0.7,0.1,1.1,0.2,1.3c0.2,0.2,0.5,0.3,1,0.4v0.3h-4.1V330z"/>
		<path class="st9" d="M244.6,322.5c0.7,0.6,1,1.5,1,2.6h-5.9c0.1,1.4,0.4,2.5,1,3.1s1.3,1,2.1,1c0.6,0,1.2-0.2,1.6-0.5
			c0.4-0.3,0.9-0.8,1.2-1.4l0.3,0.1c-0.3,0.8-0.7,1.5-1.4,2.2c-0.7,0.7-1.5,1-2.5,1c-1.2,0-2.1-0.4-2.7-1.3c-0.6-0.9-0.9-1.9-0.9-3
			c0-1.2,0.4-2.3,1.1-3.2c0.7-0.9,1.7-1.3,2.9-1.3C243.2,321.6,244,321.9,244.6,322.5z M240.2,323.2c-0.2,0.3-0.3,0.8-0.4,1.3h3.9
			c-0.1-0.6-0.2-1.1-0.4-1.4c-0.3-0.5-0.8-0.8-1.5-0.8C241.1,322.3,240.6,322.6,240.2,323.2z"/>
		<path class="st9" d="M251.4,329.9c0.8-0.1,1.3-0.2,1.5-0.3c0.2-0.2,0.3-0.6,0.3-1.4v-8.4c0-0.7-0.1-1.1-0.3-1.3
			c-0.2-0.2-0.7-0.3-1.5-0.4v-0.4h5.6v0.4c-0.8,0-1.3,0.2-1.5,0.4c-0.2,0.2-0.3,0.6-0.3,1.3v8.4c0,0.7,0.1,1.2,0.3,1.4
			c0.2,0.2,0.7,0.3,1.5,0.3v0.4h-5.6V329.9z"/>
		<path class="st9" d="M257.8,330c0.4-0.1,0.7-0.2,0.9-0.3s0.3-0.5,0.3-1.1v-4.7c0-0.4,0-0.7-0.1-0.8c-0.1-0.2-0.4-0.3-0.7-0.3
			c-0.1,0-0.1,0-0.2,0c-0.1,0-0.1,0-0.2,0v-0.3c0.3-0.1,0.8-0.3,1.8-0.6l0.9-0.3c0,0,0.1,0,0.1,0c0,0,0,0.1,0,0.1v1.4
			c0.6-0.5,1-0.9,1.3-1.1c0.5-0.3,1-0.5,1.5-0.5c0.4,0,0.8,0.1,1.1,0.4c0.7,0.5,1,1.3,1,2.5v4.3c0,0.4,0.1,0.8,0.3,1
			c0.2,0.2,0.5,0.3,0.9,0.3v0.3h-3.9V330c0.4-0.1,0.8-0.2,0.9-0.4c0.2-0.2,0.3-0.6,0.3-1.2v-3.9c0-0.5-0.1-1-0.3-1.3
			s-0.6-0.5-1.1-0.5c-0.4,0-0.7,0.1-1.1,0.4c-0.2,0.1-0.5,0.4-0.8,0.7v5.2c0,0.4,0.1,0.7,0.3,0.9c0.2,0.2,0.5,0.2,0.9,0.2v0.3h-4
			V330z"/>
		<path class="st9" d="M267.2,330c0.7,0,1.1-0.2,1.3-0.4c0.2-0.2,0.3-0.7,0.3-1.3v-5.9h-1.6v-0.6h1.6c0-1,0.1-1.8,0.4-2.5
			c0.5-1.3,1.4-1.9,2.8-1.9c0.5,0,1,0.1,1.5,0.3c0.4,0.2,0.6,0.5,0.6,0.9c0,0.2-0.1,0.4-0.2,0.5c-0.1,0.2-0.3,0.2-0.5,0.2
			c-0.2,0-0.3-0.1-0.5-0.2s-0.3-0.3-0.5-0.6l-0.2-0.2c-0.1-0.1-0.2-0.2-0.3-0.3c-0.1-0.1-0.3-0.1-0.5-0.1c-0.5,0-0.8,0.2-0.9,0.7
			c-0.1,0.2-0.1,0.6-0.1,1v2.2h2.3v0.6h-2.3v5.9c0,0.7,0.1,1.1,0.3,1.3c0.2,0.2,0.7,0.3,1.5,0.4v0.3h-4.9V330z"/>
		<path class="st9" d="M273.5,330c0.6-0.1,1-0.2,1.2-0.3s0.3-0.5,0.3-1v-9c0-0.4,0-0.7-0.1-0.8c-0.1-0.3-0.4-0.4-0.7-0.4
			c-0.1,0-0.2,0-0.3,0s-0.2,0-0.4,0.1v-0.3c0.8-0.2,1.8-0.5,3-0.9c0,0,0.1,0,0.1,0.1c0,0,0,0.1,0,0.2v11.1c0,0.5,0.1,0.9,0.3,1
			c0.2,0.2,0.6,0.3,1.1,0.3v0.3h-4.5V330z"/>
		<path class="st9" d="M281.3,321.8v5.9c0,0.4,0.1,0.8,0.2,1c0.2,0.5,0.6,0.7,1.3,0.7c0.4,0,0.8-0.1,1.2-0.4
			c0.2-0.2,0.5-0.4,0.7-0.6v-5.1c0-0.5-0.1-0.8-0.3-0.9s-0.6-0.2-1.1-0.3v-0.3h3v6.5c0,0.4,0.1,0.7,0.2,0.9c0.2,0.2,0.5,0.2,1,0.2
			v0.3c-0.3,0.1-0.6,0.2-0.7,0.2c-0.2,0-0.4,0.1-0.8,0.3c-0.2,0.1-0.5,0.2-1.1,0.4c0,0,0,0-0.1,0c0,0,0-0.1,0-0.1v-1.5
			c-0.4,0.5-0.8,0.9-1.1,1.1c-0.5,0.4-1.1,0.6-1.7,0.6c-0.5,0-1-0.2-1.5-0.6c-0.5-0.4-0.7-1-0.7-1.9v-4.8c0-0.5-0.1-0.8-0.3-1
			c-0.1-0.1-0.4-0.2-0.9-0.2v-0.3H281.3z"/>
		<path class="st9" d="M294.5,322.5c0.7,0.6,1,1.5,1,2.6h-5.9c0.1,1.4,0.4,2.5,1,3.1s1.3,1,2.1,1c0.6,0,1.2-0.2,1.6-0.5
			c0.4-0.3,0.9-0.8,1.2-1.4l0.3,0.1c-0.3,0.8-0.7,1.5-1.4,2.2c-0.7,0.7-1.5,1-2.5,1c-1.2,0-2.1-0.4-2.7-1.3c-0.6-0.9-0.9-1.9-0.9-3
			c0-1.2,0.4-2.3,1.1-3.2c0.7-0.9,1.7-1.3,2.9-1.3C293.1,321.6,293.8,321.9,294.5,322.5z M290,323.2c-0.2,0.3-0.3,0.8-0.4,1.3h3.9
			c-0.1-0.6-0.2-1.1-0.4-1.4c-0.3-0.5-0.8-0.8-1.5-0.8C290.9,322.3,290.4,322.6,290,323.2z"/>
		<path class="st9" d="M296.6,330c0.4-0.1,0.7-0.2,0.9-0.3s0.3-0.5,0.3-1.1v-4.7c0-0.4,0-0.7-0.1-0.8c-0.1-0.2-0.4-0.3-0.7-0.3
			c-0.1,0-0.1,0-0.2,0c-0.1,0-0.1,0-0.2,0v-0.3c0.3-0.1,0.8-0.3,1.8-0.6l0.9-0.3c0,0,0.1,0,0.1,0c0,0,0,0.1,0,0.1v1.4
			c0.6-0.5,1-0.9,1.3-1.1c0.5-0.3,1-0.5,1.5-0.5c0.4,0,0.8,0.1,1.1,0.4c0.7,0.5,1,1.3,1,2.5v4.3c0,0.4,0.1,0.8,0.3,1
			c0.2,0.2,0.5,0.3,0.9,0.3v0.3h-3.9V330c0.4-0.1,0.8-0.2,0.9-0.4c0.2-0.2,0.3-0.6,0.3-1.2v-3.9c0-0.5-0.1-1-0.3-1.3
			s-0.6-0.5-1.1-0.5c-0.4,0-0.7,0.1-1.1,0.4c-0.2,0.1-0.5,0.4-0.8,0.7v5.2c0,0.4,0.1,0.7,0.3,0.9c0.2,0.2,0.5,0.2,0.9,0.2v0.3h-4
			V330z"/>
		<path class="st9" d="M312.4,322.2c0.6,0.4,0.8,0.8,0.8,1.3c0,0.2-0.1,0.4-0.2,0.6s-0.4,0.3-0.7,0.3c-0.2,0-0.4-0.1-0.6-0.2
			c-0.2-0.1-0.3-0.4-0.4-0.6l-0.1-0.4c-0.1-0.3-0.2-0.6-0.4-0.7c-0.2-0.1-0.5-0.2-0.8-0.2c-0.7,0-1.3,0.3-1.8,0.9s-0.7,1.4-0.7,2.4
			c0,0.9,0.3,1.8,0.8,2.5s1.3,1.1,2.2,1.1c0.6,0,1.2-0.2,1.7-0.6c0.3-0.2,0.6-0.6,1-1.1l0.3,0.2c-0.4,0.7-0.7,1.3-1.1,1.8
			c-0.7,0.8-1.6,1.2-2.6,1.2c-1,0-1.8-0.4-2.5-1.1s-1.1-1.8-1.1-3.1c0-1.3,0.4-2.4,1.2-3.3c0.8-0.9,1.8-1.4,3.1-1.4
			C311.2,321.6,311.8,321.8,312.4,322.2z"/>
		<path class="st9" d="M320.7,322.5c0.7,0.6,1,1.5,1,2.6h-5.9c0.1,1.4,0.4,2.5,1,3.1s1.3,1,2.1,1c0.6,0,1.2-0.2,1.6-0.5
			c0.4-0.3,0.9-0.8,1.2-1.4l0.3,0.1c-0.3,0.8-0.7,1.5-1.4,2.2c-0.7,0.7-1.5,1-2.5,1c-1.2,0-2.1-0.4-2.7-1.3c-0.6-0.9-0.9-1.9-0.9-3
			c0-1.2,0.4-2.3,1.1-3.2c0.7-0.9,1.7-1.3,2.9-1.3C319.3,321.6,320,321.9,320.7,322.5z M316.3,323.2c-0.2,0.3-0.3,0.8-0.4,1.3h3.9
			c-0.1-0.6-0.2-1.1-0.4-1.4c-0.3-0.5-0.8-0.8-1.5-0.8C317.2,322.3,316.6,322.6,316.3,323.2z"/>
		<path class="st9" d="M327.5,329.9c0.8-0.1,1.3-0.2,1.5-0.3c0.2-0.2,0.3-0.6,0.3-1.4v-8.4c0-0.7-0.1-1.1-0.3-1.3
			c-0.2-0.2-0.7-0.3-1.5-0.4v-0.4h5.6v0.4c-0.8,0-1.3,0.2-1.5,0.4c-0.2,0.2-0.3,0.6-0.3,1.3v8.4c0,0.7,0.1,1.2,0.3,1.4
			c0.2,0.2,0.7,0.3,1.5,0.3v0.4h-5.6V329.9z"/>
		<path class="st9" d="M333.8,330c0.4-0.1,0.7-0.2,0.9-0.3s0.3-0.5,0.3-1.1v-4.7c0-0.4,0-0.7-0.1-0.8c-0.1-0.2-0.4-0.3-0.7-0.3
			c-0.1,0-0.1,0-0.2,0c-0.1,0-0.1,0-0.2,0v-0.3c0.3-0.1,0.8-0.3,1.8-0.6l0.9-0.3c0,0,0.1,0,0.1,0c0,0,0,0.1,0,0.1v1.4
			c0.6-0.5,1-0.9,1.3-1.1c0.5-0.3,1-0.5,1.5-0.5c0.4,0,0.8,0.1,1.1,0.4c0.7,0.5,1,1.3,1,2.5v4.3c0,0.4,0.1,0.8,0.3,1
			c0.2,0.2,0.5,0.3,0.9,0.3v0.3h-3.9V330c0.4-0.1,0.8-0.2,0.9-0.4c0.2-0.2,0.3-0.6,0.3-1.2v-3.9c0-0.5-0.1-1-0.3-1.3
			s-0.6-0.5-1.1-0.5c-0.4,0-0.7,0.1-1.1,0.4c-0.2,0.1-0.5,0.4-0.8,0.7v5.2c0,0.4,0.1,0.7,0.3,0.9c0.2,0.2,0.5,0.2,0.9,0.2v0.3h-4
			V330z"/>
		<path class="st9" d="M348.7,321.9c0.2,0.1,0.5,0.3,0.7,0.5v-2.9c0-0.4,0-0.6-0.1-0.8s-0.3-0.2-0.6-0.2c-0.1,0-0.1,0-0.2,0
			c-0.1,0-0.2,0-0.4,0v-0.3l0.8-0.2c0.3-0.1,0.6-0.2,0.8-0.2s0.5-0.2,0.7-0.2c0.1,0,0.3-0.1,0.5-0.2l0.1,0l0,1c0,0.4,0,0.7,0,1.1
			c0,0.4,0,0.7,0,1.1l0,7.5c0,0.4,0,0.7,0.1,0.8c0.1,0.2,0.4,0.2,0.8,0.2c0.1,0,0.1,0,0.2,0c0.1,0,0.1,0,0.2,0v0.3
			c0,0-0.5,0.2-1.3,0.5l-1.4,0.5l-0.1-0.1v-1.1c-0.3,0.4-0.6,0.6-0.9,0.8c-0.4,0.3-1,0.4-1.6,0.4c-1,0-1.9-0.4-2.5-1.2s-1-1.7-1-2.8
			c0-1.3,0.4-2.5,1.2-3.4c0.8-1,1.7-1.4,2.9-1.4C347.9,321.6,348.3,321.7,348.7,321.9z M348.9,329.1c0.3-0.3,0.4-0.6,0.4-0.8v-4
			c0-0.8-0.2-1.4-0.6-1.7c-0.4-0.3-0.8-0.5-1.3-0.5c-0.8,0-1.4,0.3-1.8,1c-0.4,0.7-0.6,1.5-0.6,2.5c0,1,0.2,1.9,0.7,2.6
			c0.5,0.8,1.1,1.2,2.1,1.2C348.2,329.5,348.6,329.3,348.9,329.1z"/>
		<path class="st9" d="M355.3,321.8v5.9c0,0.4,0.1,0.8,0.2,1c0.2,0.5,0.6,0.7,1.3,0.7c0.4,0,0.8-0.1,1.2-0.4
			c0.2-0.2,0.5-0.4,0.7-0.6v-5.1c0-0.5-0.1-0.8-0.3-0.9s-0.6-0.2-1.1-0.3v-0.3h3v6.5c0,0.4,0.1,0.7,0.2,0.9c0.2,0.2,0.5,0.2,1,0.2
			v0.3c-0.3,0.1-0.6,0.2-0.7,0.2c-0.2,0-0.4,0.1-0.8,0.3c-0.2,0.1-0.5,0.2-1.1,0.4c0,0,0,0-0.1,0c0,0,0-0.1,0-0.1v-1.5
			c-0.4,0.5-0.8,0.9-1.1,1.1c-0.5,0.4-1.1,0.6-1.7,0.6c-0.5,0-1-0.2-1.5-0.6c-0.5-0.4-0.7-1-0.7-1.9v-4.8c0-0.5-0.1-0.8-0.3-1
			c-0.1-0.1-0.4-0.2-0.9-0.2v-0.3H355.3z"/>
		<path class="st9" d="M362.8,327.4h0.3c0.1,0.7,0.3,1.2,0.6,1.6c0.4,0.7,1.1,1,1.9,1c0.5,0,0.8-0.1,1.1-0.4c0.3-0.3,0.4-0.6,0.4-1
			c0-0.3-0.1-0.5-0.2-0.7s-0.4-0.5-0.8-0.7l-1-0.6c-0.8-0.4-1.3-0.8-1.7-1.2c-0.4-0.4-0.5-0.9-0.5-1.5c0-0.7,0.2-1.3,0.7-1.7
			c0.5-0.4,1.1-0.7,1.9-0.7c0.3,0,0.7,0.1,1.1,0.2s0.6,0.2,0.7,0.2c0.1,0,0.2,0,0.2,0c0,0,0.1-0.1,0.1-0.1h0.2l0.1,2.6h-0.3
			c-0.1-0.6-0.3-1.1-0.5-1.4c-0.4-0.6-0.9-0.9-1.7-0.9c-0.4,0-0.8,0.1-1,0.4s-0.4,0.6-0.4,0.9c0,0.6,0.4,1.1,1.3,1.5l1.2,0.7
			c1.3,0.7,2,1.5,2,2.5c0,0.7-0.3,1.3-0.8,1.8c-0.5,0.5-1.3,0.7-2.1,0.7c-0.4,0-0.8-0.1-1.3-0.2s-0.7-0.2-0.8-0.2
			c-0.1,0-0.1,0-0.2,0.1c-0.1,0.1-0.1,0.1-0.1,0.2h-0.2V327.4z"/>
		<path class="st9" d="M374,321.8v0.7h-1.9l0,5.3c0,0.5,0,0.8,0.1,1.1c0.1,0.4,0.4,0.6,0.9,0.6c0.2,0,0.4-0.1,0.6-0.2
			s0.3-0.3,0.6-0.5l0.2,0.2l-0.2,0.3c-0.3,0.4-0.7,0.7-1,0.9c-0.4,0.2-0.7,0.3-1,0.3c-0.7,0-1.2-0.3-1.5-1c-0.1-0.4-0.2-0.8-0.2-1.5
			v-5.6h-1c0,0-0.1,0-0.1-0.1c0,0,0,0,0-0.1c0-0.1,0-0.1,0-0.1c0,0,0.1-0.1,0.3-0.2c0.4-0.4,0.7-0.6,0.9-0.9
			c0.2-0.2,0.6-0.8,1.3-1.7c0.1,0,0.1,0,0.1,0c0,0,0,0.1,0,0.1v2.3H374z"/>
		<path class="st9" d="M374.5,330c0.6,0,0.9-0.1,1.1-0.3s0.3-0.5,0.3-1v-4.2c0-0.6-0.1-1-0.2-1.3c-0.1-0.3-0.3-0.4-0.6-0.4
			c-0.1,0-0.1,0-0.2,0c-0.1,0-0.2,0-0.3,0.1v-0.3c0.3-0.1,0.7-0.2,1.1-0.4c0.4-0.1,0.6-0.2,0.8-0.3c0.3-0.1,0.6-0.2,0.9-0.4
			c0,0,0.1,0,0.1,0c0,0,0,0.1,0,0.2v1.5c0.4-0.5,0.8-1,1.1-1.3s0.7-0.5,1.1-0.5c0.3,0,0.6,0.1,0.8,0.3c0.2,0.2,0.3,0.4,0.3,0.7
			c0,0.3-0.1,0.5-0.2,0.6c-0.2,0.2-0.3,0.3-0.6,0.3c-0.2,0-0.5-0.1-0.7-0.3c-0.2-0.2-0.4-0.3-0.6-0.3c-0.2,0-0.5,0.2-0.8,0.5
			s-0.5,0.7-0.5,1.1v4.2c0,0.5,0.1,0.9,0.4,1.1c0.2,0.2,0.7,0.3,1.2,0.3v0.3h-4.5V330z"/>
		<path class="st9" d="M381,321.8h3.9v0.3c-0.3,0-0.5,0-0.7,0.1c-0.3,0.1-0.4,0.2-0.4,0.5c0,0.1,0,0.2,0,0.3c0,0.1,0.1,0.2,0.2,0.4
			l2.1,4.6l1.8-4.7c0-0.1,0-0.2,0.1-0.3c0-0.2,0.1-0.3,0.1-0.4c0-0.2-0.1-0.3-0.2-0.4c-0.1-0.1-0.3-0.1-0.4-0.1l-0.3,0v-0.3h2.5v0.3
			c-0.3,0-0.4,0.1-0.6,0.3c-0.1,0.1-0.2,0.3-0.3,0.6l-2.9,7.7c-0.5,1.3-1,2.3-1.4,2.9s-1,0.9-1.8,0.9c-0.3,0-0.7-0.1-1-0.3
			c-0.3-0.2-0.5-0.4-0.5-0.8c0-0.2,0.1-0.4,0.3-0.6s0.4-0.2,0.7-0.2c0.2,0,0.4,0.1,0.7,0.2c0.3,0.1,0.5,0.2,0.7,0.2
			c0.3,0,0.7-0.4,1.1-1.3c0.4-0.8,0.6-1.4,0.6-1.7c0-0.1,0-0.1,0-0.2s0-0.1-0.1-0.2l-2.9-6.3c-0.2-0.5-0.4-0.8-0.5-0.9
			s-0.4-0.2-0.7-0.3V321.8z"/>
	</g>
</g>
</svg>
