<?xml version="1.0" encoding="utf-8"?>
<!-- Generator: Adobe Illustrator 26.2.1, SVG Export Plug-In . SVG Version: 6.00 Build 0)  -->
<svg version="1.1" id="Layer_1" xmlns="http://www.w3.org/2000/svg" xmlns:xlink="http://www.w3.org/1999/xlink" x="0px" y="0px"
	 viewBox="0 0 800 600" style="enable-background:new 0 0 800 600;" xml:space="preserve">
<style type="text/css">
	.st0{fill:#363636;}
	.st1{fill:none;stroke:#E6E6E6;stroke-width:3;}
	.st2{fill:#00B190;stroke:#00B190;}
	.st3{fill:none;stroke:#FFFFFF;stroke-width:1.5;}
	.st4{fill:#FFFFFF;}
	.st5{fill:none;}
	.st6{opacity:0;}
	.st7{enable-background:new    ;}
	.st8{fill:#00B190;}
</style>
<g id="Layer_2_00000150069184869209184400000013119580808846922904_">
	<rect id="backgorund" class="st0" width="800" height="600"/>
</g>
<path id="p_989" class="st1" d="M400,549.8c-136.7,0-247.5-110.8-247.5-247.5S263.3,54.9,400,54.9s247.5,110.8,247.5,247.5
	S536.7,549.8,400,549.8z"/>
<path id="p_762.7951817288568" class="st2" d="M418.3,341.8c-5.2,0-9.4-4.2-9.4-9.4s4.2-9.4,9.4-9.4l0,0c5.2,0,9.4,4.2,9.4,9.4
	C427.7,337.6,423.5,341.8,418.3,341.8L418.3,341.8z"/>
<g>
	<g>
		<path class="st3" d="M417.3,349c0,19.2,11.6,34.9,26.3,35.8"/>
		<g>
			<polygon class="st4" points="439.1,391.3 438.3,389.9 443.1,384.6 439,378.3 439.9,377.2 444.9,384.8 			"/>
		</g>
	</g>
</g>
<rect x="457.1" y="378.7" class="st5" width="139.9" height="77.5"/>
<g class="st6">
	<g class="st7">
		<path class="st4" d="M453.4,375.7h8.5l0.1,2.5h-0.4c-0.2-0.8-0.4-1.3-0.7-1.6c-0.3-0.2-0.8-0.4-1.7-0.4h-0.8v7.7
			c0,0.6,0.1,0.9,0.3,1.1c0.2,0.1,0.6,0.2,1.2,0.3v0.3h-4.4v-0.3c0.6,0,1-0.2,1.2-0.3s0.2-0.6,0.2-1.2v-7.5H456
			c-0.8,0-1.4,0.1-1.7,0.4c-0.3,0.2-0.5,0.8-0.7,1.6h-0.4L453.4,375.7z"/>
		<path class="st4" d="M462.4,385.4c0.4-0.1,0.7-0.2,0.8-0.3c0.1-0.1,0.2-0.5,0.2-1v-7c0-0.3,0-0.5-0.1-0.6
			c-0.1-0.1-0.2-0.2-0.5-0.2c-0.1,0-0.1,0-0.2,0c-0.1,0-0.1,0-0.2,0V376c0.2-0.1,0.5-0.1,0.8-0.2c0.3-0.1,0.5-0.2,0.7-0.2l0.7-0.2
			l0,0.1v4.5c0.3-0.4,0.6-0.6,0.8-0.8c0.4-0.3,0.9-0.4,1.4-0.4c0.8,0,1.3,0.3,1.6,1c0.2,0.4,0.2,0.8,0.2,1.4v3c0,0.5,0.1,0.9,0.2,1
			c0.1,0.2,0.4,0.3,0.7,0.3v0.2h-3.2v-0.2c0.4-0.1,0.7-0.2,0.8-0.3c0.1-0.1,0.2-0.5,0.2-1v-3c0-0.5-0.1-0.9-0.2-1.1
			c-0.2-0.3-0.5-0.4-0.9-0.4c-0.4,0-0.7,0.1-1.1,0.4s-0.5,0.5-0.5,0.5v3.6c0,0.5,0.1,0.9,0.2,1s0.4,0.2,0.8,0.3v0.2h-3.2V385.4z"/>
		<path class="st4" d="M475,379.5c0.5,0.5,0.8,1.2,0.8,2h-4.7c0,1.1,0.3,2,0.8,2.5c0.5,0.5,1,0.8,1.6,0.8c0.5,0,0.9-0.1,1.3-0.4
			s0.7-0.6,1-1.1l0.3,0.1c-0.2,0.6-0.6,1.2-1.1,1.7c-0.5,0.5-1.2,0.8-2,0.8c-0.9,0-1.6-0.3-2.1-1c-0.5-0.7-0.8-1.5-0.8-2.4
			c0-1,0.3-1.8,0.9-2.5s1.3-1.1,2.3-1.1C473.9,378.7,474.5,379,475,379.5z M471.5,380c-0.2,0.3-0.3,0.6-0.3,1h3.1
			c-0.1-0.5-0.1-0.9-0.3-1.1c-0.2-0.4-0.6-0.6-1.2-0.6C472.2,379.3,471.8,379.5,471.5,380z"/>
		<path class="st4" d="M484,378.9v0.5h-1.5l0,4.2c0,0.4,0,0.7,0.1,0.8c0.1,0.3,0.3,0.5,0.7,0.5c0.2,0,0.3,0,0.5-0.1
			c0.1-0.1,0.3-0.2,0.4-0.4l0.2,0.2l-0.2,0.2c-0.3,0.3-0.5,0.6-0.8,0.7s-0.6,0.2-0.8,0.2c-0.6,0-1-0.3-1.2-0.8
			c-0.1-0.3-0.2-0.7-0.2-1.2v-4.4h-0.8c0,0,0,0-0.1,0c0,0,0,0,0-0.1c0,0,0-0.1,0-0.1c0,0,0.1-0.1,0.2-0.2c0.3-0.3,0.6-0.5,0.7-0.7
			c0.1-0.2,0.5-0.6,1.1-1.4c0.1,0,0.1,0,0.1,0c0,0,0,0,0,0.1v1.8H484z"/>
		<path class="st4" d="M485.6,379.8c0.6-0.7,1.4-1,2.4-1c1,0,1.8,0.3,2.4,1s1,1.5,1,2.5c0,1-0.3,1.8-0.9,2.5s-1.4,1.1-2.4,1.1
			c-0.9,0-1.7-0.3-2.4-1s-1-1.6-1-2.6C484.7,381.2,485,380.4,485.6,379.8z M486.8,379.6c-0.5,0.4-0.7,1.2-0.7,2.3
			c0,0.9,0.2,1.7,0.6,2.4s0.9,1.1,1.6,1.1c0.5,0,1-0.3,1.3-0.8c0.3-0.5,0.4-1.2,0.4-2c0-0.8-0.2-1.6-0.6-2.4
			c-0.4-0.7-0.9-1.1-1.6-1.1C487.4,379.2,487.1,379.3,486.8,379.6z"/>
		<path class="st4" d="M495.6,378.9v0.5h-1.5l0,4.2c0,0.4,0,0.7,0.1,0.8c0.1,0.3,0.3,0.5,0.7,0.5c0.2,0,0.3,0,0.5-0.1
			c0.1-0.1,0.3-0.2,0.4-0.4l0.2,0.2l-0.2,0.2c-0.3,0.3-0.5,0.6-0.8,0.7s-0.6,0.2-0.8,0.2c-0.6,0-1-0.3-1.2-0.8
			c-0.1-0.3-0.2-0.7-0.2-1.2v-4.4h-0.8c0,0,0,0-0.1,0c0,0,0,0,0-0.1c0,0,0-0.1,0-0.1c0,0,0.1-0.1,0.2-0.2c0.3-0.3,0.6-0.5,0.7-0.7
			c0.1-0.2,0.5-0.6,1.1-1.4c0.1,0,0.1,0,0.1,0c0,0,0,0,0,0.1v1.8H495.6z"/>
		<path class="st4" d="M497.6,382.4c0.4-0.3,1.3-0.7,2.7-1.2v-0.6c0-0.5,0-0.8-0.1-1c-0.2-0.3-0.5-0.5-1-0.5c-0.2,0-0.5,0.1-0.7,0.2
			c-0.2,0.1-0.3,0.3-0.3,0.5c0,0.1,0,0.2,0,0.3c0,0.1,0,0.2,0,0.3c0,0.3-0.1,0.5-0.3,0.6c-0.1,0.1-0.2,0.1-0.4,0.1
			c-0.2,0-0.4-0.1-0.5-0.2c-0.1-0.1-0.2-0.3-0.2-0.5c0-0.3,0.2-0.7,0.6-1.1c0.4-0.4,1-0.6,1.9-0.6c0.9,0,1.6,0.3,1.9,0.9
			c0.2,0.3,0.3,0.8,0.3,1.5v2.9c0,0.3,0,0.5,0.1,0.6c0.1,0.2,0.2,0.3,0.4,0.3c0.1,0,0.2,0,0.3-0.1s0.2-0.1,0.4-0.2v0.4
			c-0.2,0.2-0.3,0.3-0.5,0.5c-0.3,0.2-0.6,0.3-0.8,0.3c-0.3,0-0.6-0.1-0.7-0.3c-0.1-0.2-0.2-0.5-0.2-0.8c-0.4,0.3-0.7,0.6-1,0.7
			c-0.4,0.3-0.9,0.4-1.3,0.4c-0.4,0-0.8-0.1-1.1-0.4c-0.3-0.3-0.5-0.7-0.5-1.1C496.5,383.5,496.9,382.9,497.6,382.4z M500.3,381.6
			c-0.6,0.2-1,0.4-1.4,0.6c-0.7,0.4-1.1,0.9-1.1,1.5c0,0.4,0.1,0.8,0.4,1c0.2,0.1,0.4,0.2,0.6,0.2c0.3,0,0.6-0.1,0.9-0.3
			c0.3-0.2,0.4-0.4,0.4-0.7V381.6z"/>
		<path class="st4" d="M503,385.4c0.5,0,0.8-0.1,0.9-0.3c0.2-0.1,0.2-0.4,0.2-0.8v-7.2c0-0.3,0-0.5-0.1-0.7
			c-0.1-0.2-0.3-0.3-0.6-0.3c-0.1,0-0.1,0-0.2,0c-0.1,0-0.2,0-0.3,0.1V376c0.7-0.2,1.5-0.4,2.4-0.7c0,0,0.1,0,0.1,0c0,0,0,0.1,0,0.2
			v8.8c0,0.4,0.1,0.7,0.2,0.8c0.1,0.1,0.4,0.2,0.9,0.2v0.2H503V385.4z"/>
		<path class="st4" d="M512.2,382.4c0.4-0.3,1.3-0.7,2.7-1.2v-0.6c0-0.5,0-0.8-0.1-1c-0.2-0.3-0.5-0.5-1-0.5c-0.2,0-0.5,0.1-0.7,0.2
			c-0.2,0.1-0.3,0.3-0.3,0.5c0,0.1,0,0.2,0,0.3c0,0.1,0,0.2,0,0.3c0,0.3-0.1,0.5-0.3,0.6c-0.1,0.1-0.2,0.1-0.4,0.1
			c-0.2,0-0.4-0.1-0.5-0.2c-0.1-0.1-0.2-0.3-0.2-0.5c0-0.3,0.2-0.7,0.6-1.1c0.4-0.4,1-0.6,1.9-0.6c0.9,0,1.6,0.3,1.9,0.9
			c0.2,0.3,0.3,0.8,0.3,1.5v2.9c0,0.3,0,0.5,0.1,0.6c0.1,0.2,0.2,0.3,0.4,0.3c0.1,0,0.2,0,0.3-0.1s0.2-0.1,0.4-0.2v0.4
			c-0.2,0.2-0.3,0.3-0.5,0.5c-0.3,0.2-0.6,0.3-0.8,0.3c-0.3,0-0.6-0.1-0.7-0.3c-0.1-0.2-0.2-0.5-0.2-0.8c-0.4,0.3-0.7,0.6-1,0.7
			c-0.4,0.3-0.9,0.4-1.3,0.4c-0.4,0-0.8-0.1-1.1-0.4c-0.3-0.3-0.5-0.7-0.5-1.1C511.1,383.5,511.5,382.9,512.2,382.4z M514.9,381.6
			c-0.6,0.2-1,0.4-1.4,0.6c-0.7,0.4-1.1,0.9-1.1,1.5c0,0.4,0.1,0.8,0.4,1c0.2,0.1,0.4,0.2,0.6,0.2c0.3,0,0.6-0.1,0.9-0.3
			c0.3-0.2,0.4-0.4,0.4-0.7V381.6z"/>
		<path class="st4" d="M517.5,385.4c0.4,0,0.6-0.1,0.8-0.2c0.2-0.1,0.3-0.4,0.3-0.8v-3.8c0-0.4,0-0.6-0.1-0.7
			c-0.1-0.1-0.3-0.2-0.5-0.2c-0.1,0-0.2,0-0.2,0c-0.1,0-0.1,0-0.2,0.1v-0.3l0.5-0.2c0.2-0.1,0.5-0.2,0.9-0.3s0.7-0.2,0.7-0.2
			s0,0,0,0s0,0.1,0,0.1v1c0.5-0.4,0.9-0.7,1.3-0.9c0.4-0.2,0.7-0.3,1.1-0.3c0.5,0,0.9,0.2,1.2,0.5c0.2,0.2,0.3,0.4,0.4,0.8
			c0.4-0.4,0.7-0.6,0.9-0.8c0.5-0.3,0.9-0.5,1.4-0.5c0.8,0,1.3,0.3,1.6,1c0.2,0.4,0.2,0.9,0.2,1.7v3c0,0.3,0.1,0.6,0.2,0.7
			c0.2,0.1,0.4,0.2,0.8,0.2v0.2h-3.3v-0.2c0.4,0,0.7-0.1,0.8-0.3c0.1-0.1,0.2-0.4,0.2-0.8v-3.2c0-0.5-0.1-0.8-0.2-1
			c-0.2-0.4-0.5-0.6-1.1-0.6c-0.3,0-0.6,0.1-0.9,0.3c-0.2,0.1-0.4,0.3-0.7,0.6v3.8c0,0.4,0.1,0.7,0.2,0.9c0.1,0.2,0.4,0.3,0.9,0.3
			v0.2h-3.4v-0.2c0.5-0.1,0.8-0.2,0.9-0.3s0.2-0.6,0.2-1.2v-2c0-0.8,0-1.3-0.1-1.5c-0.2-0.5-0.5-0.7-1-0.7c-0.3,0-0.6,0.1-0.9,0.2
			c-0.3,0.2-0.5,0.4-0.8,0.6v4c0,0.4,0.1,0.6,0.2,0.8c0.1,0.1,0.4,0.2,0.8,0.2v0.2h-3.3V385.4z"/>
		<path class="st4" d="M530.2,379.8c0.6-0.7,1.4-1,2.4-1c1,0,1.8,0.3,2.4,1s1,1.5,1,2.5c0,1-0.3,1.8-0.9,2.5s-1.4,1.1-2.4,1.1
			c-0.9,0-1.7-0.3-2.4-1s-1-1.6-1-2.6C529.3,381.2,529.6,380.4,530.2,379.8z M531.4,379.6c-0.5,0.4-0.7,1.2-0.7,2.3
			c0,0.9,0.2,1.7,0.6,2.4c0.4,0.8,0.9,1.1,1.6,1.1c0.5,0,1-0.3,1.3-0.8c0.3-0.5,0.4-1.2,0.4-2c0-0.8-0.2-1.6-0.6-2.4
			c-0.4-0.7-0.9-1.1-1.6-1.1C532,379.2,531.6,379.3,531.4,379.6z"/>
		<path class="st4" d="M538.7,378.8v4.7c0,0.3,0,0.6,0.1,0.8c0.2,0.4,0.5,0.6,1,0.6c0.3,0,0.7-0.1,1-0.3c0.2-0.1,0.4-0.3,0.5-0.5v-4
			c0-0.4-0.1-0.6-0.2-0.7s-0.4-0.2-0.9-0.2v-0.2h2.4v5.2c0,0.3,0.1,0.6,0.2,0.7c0.1,0.1,0.4,0.2,0.8,0.2v0.2
			c-0.3,0.1-0.5,0.1-0.6,0.2c-0.1,0-0.3,0.1-0.6,0.2c-0.1,0-0.4,0.1-0.8,0.3c0,0,0,0,0,0c0,0,0,0,0-0.1v-1.2
			c-0.3,0.4-0.6,0.7-0.9,0.9c-0.4,0.3-0.9,0.4-1.3,0.4c-0.4,0-0.8-0.2-1.2-0.5c-0.4-0.3-0.6-0.8-0.6-1.5V380c0-0.4-0.1-0.6-0.2-0.8
			c-0.1-0.1-0.3-0.1-0.7-0.2v-0.2H538.7z"/>
		<path class="st4" d="M544.2,385.4c0.3,0,0.6-0.1,0.7-0.3c0.1-0.1,0.2-0.4,0.2-0.9v-3.7c0-0.3,0-0.5-0.1-0.7
			c-0.1-0.2-0.3-0.3-0.6-0.3c0,0-0.1,0-0.1,0c0,0-0.1,0-0.2,0v-0.3c0.2-0.1,0.7-0.2,1.4-0.5l0.7-0.2c0,0,0.1,0,0.1,0
			c0,0,0,0.1,0,0.1v1.1c0.4-0.4,0.8-0.7,1.1-0.9c0.4-0.2,0.8-0.4,1.2-0.4c0.3,0,0.6,0.1,0.9,0.3c0.5,0.4,0.8,1,0.8,2v3.4
			c0,0.4,0.1,0.6,0.2,0.8c0.1,0.2,0.4,0.2,0.7,0.2v0.2H548v-0.2c0.4,0,0.6-0.1,0.7-0.3c0.1-0.1,0.2-0.5,0.2-1V381
			c0-0.4-0.1-0.8-0.2-1c-0.2-0.3-0.4-0.4-0.9-0.4c-0.3,0-0.6,0.1-0.9,0.3c-0.2,0.1-0.4,0.3-0.6,0.6v4.1c0,0.4,0.1,0.6,0.2,0.7
			c0.2,0.1,0.4,0.2,0.7,0.2v0.2h-3.2V385.4z"/>
		<path class="st4" d="M555.2,378.9v0.5h-1.5l0,4.2c0,0.4,0,0.7,0.1,0.8c0.1,0.3,0.3,0.5,0.7,0.5c0.2,0,0.3,0,0.5-0.1
			c0.1-0.1,0.3-0.2,0.4-0.4l0.2,0.2l-0.2,0.2c-0.3,0.3-0.5,0.6-0.8,0.7s-0.6,0.2-0.8,0.2c-0.6,0-1-0.3-1.2-0.8
			c-0.1-0.3-0.2-0.7-0.2-1.2v-4.4h-0.8c0,0,0,0-0.1,0c0,0,0,0,0-0.1c0,0,0-0.1,0-0.1c0,0,0.1-0.1,0.2-0.2c0.3-0.3,0.6-0.5,0.7-0.7
			c0.1-0.2,0.5-0.6,1.1-1.4c0.1,0,0.1,0,0.1,0c0,0,0,0,0,0.1v1.8H555.2z"/>
		<path class="st4" d="M560.6,379.8c0.6-0.7,1.4-1,2.4-1c1,0,1.8,0.3,2.4,1s1,1.5,1,2.5c0,1-0.3,1.8-0.9,2.5s-1.4,1.1-2.4,1.1
			c-0.9,0-1.7-0.3-2.4-1s-1-1.6-1-2.6C559.7,381.2,560,380.4,560.6,379.8z M561.8,379.6c-0.5,0.4-0.7,1.2-0.7,2.3
			c0,0.9,0.2,1.7,0.6,2.4s0.9,1.1,1.6,1.1c0.5,0,1-0.3,1.3-0.8c0.3-0.5,0.4-1.2,0.4-2c0-0.8-0.2-1.6-0.6-2.4
			c-0.4-0.7-0.9-1.1-1.6-1.1C562.4,379.2,562.1,379.3,561.8,379.6z"/>
		<path class="st4" d="M567.1,385.4c0.5,0,0.9-0.1,1-0.3c0.2-0.2,0.2-0.5,0.2-1.1v-4.7h-1.3v-0.5h1.3c0-0.8,0.1-1.4,0.3-2
			c0.4-1,1.1-1.5,2.2-1.5c0.4,0,0.8,0.1,1.2,0.3c0.3,0.2,0.5,0.4,0.5,0.7c0,0.2-0.1,0.3-0.2,0.4c-0.1,0.1-0.3,0.2-0.4,0.2
			c-0.1,0-0.3,0-0.4-0.1c-0.1-0.1-0.2-0.2-0.4-0.5l-0.1-0.2c-0.1-0.1-0.1-0.2-0.2-0.3c-0.1-0.1-0.2-0.1-0.4-0.1
			c-0.4,0-0.6,0.2-0.8,0.5c-0.1,0.2-0.1,0.5-0.1,0.8v1.7h1.8v0.5h-1.8v4.7c0,0.6,0.1,0.9,0.2,1.1c0.1,0.2,0.5,0.3,1.2,0.3v0.2h-3.9
			V385.4z"/>
	</g>
	<g class="st7">
		<path class="st4" d="M453.1,400.4c0.4,0,0.7-0.1,0.9-0.2c0.1-0.1,0.2-0.4,0.2-0.8v-3.3c0-0.5,0-0.8-0.1-1
			c-0.1-0.2-0.3-0.3-0.5-0.3c0,0-0.1,0-0.2,0c-0.1,0-0.2,0-0.3,0v-0.2c0.3-0.1,0.6-0.2,0.9-0.3c0.3-0.1,0.5-0.2,0.6-0.2
			c0.2-0.1,0.5-0.2,0.8-0.3c0,0,0.1,0,0.1,0c0,0,0,0.1,0,0.2v1.2c0.3-0.4,0.6-0.8,0.9-1c0.3-0.2,0.6-0.4,0.9-0.4
			c0.2,0,0.5,0.1,0.6,0.2c0.2,0.1,0.2,0.3,0.2,0.6c0,0.2-0.1,0.4-0.2,0.5c-0.1,0.1-0.3,0.2-0.5,0.2c-0.2,0-0.4-0.1-0.6-0.3
			c-0.2-0.2-0.3-0.3-0.4-0.3c-0.2,0-0.4,0.1-0.6,0.4c-0.2,0.3-0.4,0.6-0.4,0.9v3.3c0,0.4,0.1,0.7,0.3,0.9c0.2,0.2,0.5,0.2,1,0.2v0.2
			h-3.6V400.4z"/>
		<path class="st4" d="M463.3,394.5c0.5,0.5,0.8,1.2,0.8,2h-4.7c0,1.1,0.3,2,0.8,2.5c0.5,0.5,1,0.8,1.6,0.8c0.5,0,0.9-0.1,1.3-0.4
			s0.7-0.6,1-1.1l0.3,0.1c-0.2,0.6-0.6,1.2-1.1,1.7c-0.5,0.5-1.2,0.8-2,0.8c-0.9,0-1.6-0.3-2.1-1c-0.5-0.7-0.8-1.5-0.8-2.4
			c0-1,0.3-1.8,0.9-2.5s1.3-1.1,2.3-1.1C462.2,393.7,462.8,394,463.3,394.5z M459.8,395c-0.2,0.3-0.3,0.6-0.3,1h3.1
			c-0.1-0.5-0.1-0.9-0.3-1.1c-0.2-0.4-0.6-0.6-1.2-0.6C460.5,394.3,460.1,394.5,459.8,395z"/>
		<path class="st4" d="M465,400.4c0.5,0,0.8-0.1,0.9-0.3c0.2-0.1,0.2-0.4,0.2-0.8v-7.2c0-0.3,0-0.5-0.1-0.7
			c-0.1-0.2-0.3-0.3-0.6-0.3c-0.1,0-0.1,0-0.2,0c-0.1,0-0.2,0-0.3,0.1V391c0.7-0.2,1.5-0.4,2.4-0.7c0,0,0.1,0,0.1,0c0,0,0,0.1,0,0.2
			v8.8c0,0.4,0.1,0.7,0.2,0.8c0.1,0.1,0.4,0.2,0.9,0.2v0.2H465V400.4z"/>
		<path class="st4" d="M474.1,394.5c0.5,0.5,0.8,1.2,0.8,2h-4.7c0,1.1,0.3,2,0.8,2.5c0.5,0.5,1,0.8,1.6,0.8c0.5,0,0.9-0.1,1.3-0.4
			s0.7-0.6,1-1.1l0.3,0.1c-0.2,0.6-0.6,1.2-1.1,1.7c-0.5,0.5-1.2,0.8-2,0.8c-0.9,0-1.6-0.3-2.1-1c-0.5-0.7-0.8-1.5-0.8-2.4
			c0-1,0.3-1.8,0.9-2.5s1.3-1.1,2.3-1.1C473,393.7,473.6,394,474.1,394.5z M470.6,395c-0.2,0.3-0.3,0.6-0.3,1h3.1
			c-0.1-0.5-0.1-0.9-0.3-1.1c-0.2-0.4-0.6-0.6-1.2-0.6C471.4,394.3,470.9,394.5,470.6,395z"/>
		<path class="st4" d="M478.8,393.8v0.2c-0.3,0-0.4,0.1-0.5,0.1c-0.1,0-0.2,0.2-0.2,0.3c0,0.1,0,0.2,0,0.2c0,0.1,0.1,0.2,0.1,0.3
			l1.5,3.7l1.3-3.2c0.1-0.2,0.1-0.3,0.2-0.5c0.1-0.2,0.1-0.3,0.1-0.4c0-0.2-0.1-0.3-0.3-0.4c-0.1,0-0.3-0.1-0.4-0.1v-0.2h2.1v0.2
			c-0.2,0-0.4,0.1-0.5,0.2c-0.1,0.1-0.3,0.5-0.5,1l-2.1,5.3c0,0.1-0.1,0.2-0.1,0.2s-0.1,0.1-0.1,0.1c0,0-0.1,0-0.1-0.1
			c0-0.1-0.1-0.1-0.1-0.2l-2.2-5.4c-0.2-0.4-0.4-0.7-0.6-0.9c-0.1-0.1-0.3-0.1-0.5-0.2v-0.2H478.8z"/>
		<path class="st4" d="M484.7,397.4c0.4-0.3,1.3-0.7,2.7-1.2v-0.6c0-0.5,0-0.8-0.1-1c-0.2-0.3-0.5-0.5-1-0.5c-0.2,0-0.5,0.1-0.7,0.2
			c-0.2,0.1-0.3,0.3-0.3,0.5c0,0.1,0,0.2,0,0.3c0,0.1,0,0.2,0,0.3c0,0.3-0.1,0.5-0.3,0.6c-0.1,0.1-0.2,0.1-0.4,0.1
			c-0.2,0-0.4-0.1-0.5-0.2c-0.1-0.1-0.2-0.3-0.2-0.5c0-0.3,0.2-0.7,0.6-1.1c0.4-0.4,1-0.6,1.9-0.6c0.9,0,1.6,0.3,1.9,0.9
			c0.2,0.3,0.3,0.8,0.3,1.5v2.9c0,0.3,0,0.5,0.1,0.6c0.1,0.2,0.2,0.3,0.4,0.3c0.1,0,0.2,0,0.3-0.1s0.2-0.1,0.4-0.2v0.4
			c-0.2,0.2-0.3,0.3-0.5,0.5c-0.3,0.2-0.6,0.3-0.8,0.3c-0.3,0-0.6-0.1-0.7-0.3c-0.1-0.2-0.2-0.5-0.2-0.8c-0.4,0.3-0.7,0.6-1,0.7
			c-0.4,0.3-0.9,0.4-1.3,0.4c-0.4,0-0.8-0.1-1.1-0.4c-0.3-0.3-0.5-0.7-0.5-1.1C483.6,398.5,484,397.9,484.7,397.4z M487.4,396.6
			c-0.6,0.2-1,0.4-1.4,0.6c-0.7,0.4-1.1,0.9-1.1,1.5c0,0.4,0.1,0.8,0.4,1c0.2,0.1,0.4,0.2,0.6,0.2c0.3,0,0.6-0.1,0.9-0.3
			c0.3-0.2,0.4-0.4,0.4-0.7V396.6z"/>
		<path class="st4" d="M490,400.4c0.3,0,0.6-0.1,0.7-0.3c0.1-0.1,0.2-0.4,0.2-0.9v-3.7c0-0.3,0-0.5-0.1-0.7
			c-0.1-0.2-0.3-0.3-0.6-0.3c0,0-0.1,0-0.1,0c0,0-0.1,0-0.2,0v-0.3c0.2-0.1,0.7-0.2,1.4-0.5l0.7-0.2c0,0,0.1,0,0.1,0
			c0,0,0,0.1,0,0.1v1.1c0.4-0.4,0.8-0.7,1.1-0.9c0.4-0.2,0.8-0.4,1.2-0.4c0.3,0,0.6,0.1,0.9,0.3c0.5,0.4,0.8,1,0.8,2v3.4
			c0,0.4,0.1,0.6,0.2,0.8c0.1,0.2,0.4,0.2,0.7,0.2v0.2h-3.1v-0.2c0.4,0,0.6-0.1,0.7-0.3c0.1-0.1,0.2-0.5,0.2-1V396
			c0-0.4-0.1-0.8-0.2-1c-0.2-0.3-0.4-0.4-0.9-0.4c-0.3,0-0.6,0.1-0.9,0.3c-0.2,0.1-0.4,0.3-0.6,0.6v4.1c0,0.4,0.1,0.6,0.2,0.7
			c0.2,0.1,0.4,0.2,0.7,0.2v0.2H490V400.4z"/>
		<path class="st4" d="M501,393.9v0.5h-1.5l0,4.2c0,0.4,0,0.7,0.1,0.8c0.1,0.3,0.3,0.5,0.7,0.5c0.2,0,0.3,0,0.5-0.1
			c0.1-0.1,0.3-0.2,0.4-0.4l0.2,0.2l-0.2,0.2c-0.3,0.3-0.5,0.6-0.8,0.7s-0.6,0.2-0.8,0.2c-0.6,0-1-0.3-1.2-0.8
			c-0.1-0.3-0.2-0.7-0.2-1.2v-4.4h-0.8c0,0,0,0-0.1,0c0,0,0,0,0-0.1c0,0,0-0.1,0-0.1c0,0,0.1-0.1,0.2-0.2c0.3-0.3,0.6-0.5,0.7-0.7
			c0.1-0.2,0.5-0.6,1.1-1.4c0.1,0,0.1,0,0.1,0c0,0,0,0,0,0.1v1.8H501z"/>
		<path class="st4" d="M509,393.9v0.5h-1.5l0,4.2c0,0.4,0,0.7,0.1,0.8c0.1,0.3,0.3,0.5,0.7,0.5c0.2,0,0.3,0,0.5-0.1
			c0.1-0.1,0.3-0.2,0.4-0.4l0.2,0.2l-0.2,0.2c-0.3,0.3-0.5,0.6-0.8,0.7s-0.6,0.2-0.8,0.2c-0.6,0-1-0.3-1.2-0.8
			c-0.1-0.3-0.2-0.7-0.2-1.2v-4.4h-0.8c0,0,0,0-0.1,0c0,0,0,0,0-0.1c0,0,0-0.1,0-0.1c0,0,0.1-0.1,0.2-0.2c0.3-0.3,0.6-0.5,0.7-0.7
			c0.1-0.2,0.5-0.6,1.1-1.4c0.1,0,0.1,0,0.1,0c0,0,0,0,0,0.1v1.8H509z"/>
		<path class="st4" d="M509.4,400.4c0.4,0,0.7-0.1,0.9-0.2c0.1-0.1,0.2-0.4,0.2-0.8v-3.3c0-0.5,0-0.8-0.1-1
			c-0.1-0.2-0.3-0.3-0.5-0.3c0,0-0.1,0-0.2,0c-0.1,0-0.2,0-0.3,0v-0.2c0.3-0.1,0.6-0.2,0.9-0.3c0.3-0.1,0.5-0.2,0.6-0.2
			c0.2-0.1,0.5-0.2,0.8-0.3c0,0,0.1,0,0.1,0c0,0,0,0.1,0,0.2v1.2c0.3-0.4,0.6-0.8,0.9-1c0.3-0.2,0.6-0.4,0.9-0.4
			c0.2,0,0.5,0.1,0.6,0.2c0.2,0.1,0.2,0.3,0.2,0.6c0,0.2-0.1,0.4-0.2,0.5c-0.1,0.1-0.3,0.2-0.5,0.2c-0.2,0-0.4-0.1-0.6-0.3
			c-0.2-0.2-0.3-0.3-0.4-0.3c-0.2,0-0.4,0.1-0.6,0.4c-0.2,0.3-0.4,0.6-0.4,0.9v3.3c0,0.4,0.1,0.7,0.3,0.9c0.2,0.2,0.5,0.2,1,0.2v0.2
			h-3.6V400.4z"/>
		<path class="st4" d="M515.9,397.4c0.4-0.3,1.3-0.7,2.7-1.2v-0.6c0-0.5,0-0.8-0.1-1c-0.2-0.3-0.5-0.5-1-0.5c-0.2,0-0.5,0.1-0.7,0.2
			c-0.2,0.1-0.3,0.3-0.3,0.5c0,0.1,0,0.2,0,0.3c0,0.1,0,0.2,0,0.3c0,0.3-0.1,0.5-0.3,0.6c-0.1,0.1-0.2,0.1-0.4,0.1
			c-0.2,0-0.4-0.1-0.5-0.2c-0.1-0.1-0.2-0.3-0.2-0.5c0-0.3,0.2-0.7,0.6-1.1c0.4-0.4,1-0.6,1.9-0.6c0.9,0,1.6,0.3,1.9,0.9
			c0.2,0.3,0.3,0.8,0.3,1.5v2.9c0,0.3,0,0.5,0.1,0.6c0.1,0.2,0.2,0.3,0.4,0.3c0.1,0,0.2,0,0.3-0.1s0.2-0.1,0.4-0.2v0.4
			c-0.2,0.2-0.3,0.3-0.5,0.5c-0.3,0.2-0.6,0.3-0.8,0.3c-0.3,0-0.6-0.1-0.7-0.3c-0.1-0.2-0.2-0.5-0.2-0.8c-0.4,0.3-0.7,0.6-1,0.7
			c-0.4,0.3-0.9,0.4-1.3,0.4c-0.4,0-0.8-0.1-1.1-0.4c-0.3-0.3-0.5-0.7-0.5-1.1C514.8,398.5,515.2,397.9,515.9,397.4z M518.6,396.6
			c-0.6,0.2-1,0.4-1.4,0.6c-0.7,0.4-1.1,0.9-1.1,1.5c0,0.4,0.1,0.8,0.4,1c0.2,0.1,0.4,0.2,0.6,0.2c0.3,0,0.6-0.1,0.9-0.3
			c0.3-0.2,0.4-0.4,0.4-0.7V396.6z"/>
		<path class="st4" d="M521.2,400.4c0.3,0,0.6-0.1,0.7-0.3c0.1-0.1,0.2-0.4,0.2-0.9v-3.7c0-0.3,0-0.5-0.1-0.7
			c-0.1-0.2-0.3-0.3-0.6-0.3c0,0-0.1,0-0.1,0c0,0-0.1,0-0.2,0v-0.3c0.2-0.1,0.7-0.2,1.4-0.5l0.7-0.2c0,0,0.1,0,0.1,0
			c0,0,0,0.1,0,0.1v1.1c0.4-0.4,0.8-0.7,1.1-0.9c0.4-0.2,0.8-0.4,1.2-0.4c0.3,0,0.6,0.1,0.9,0.3c0.5,0.4,0.8,1,0.8,2v3.4
			c0,0.4,0.1,0.6,0.2,0.8c0.1,0.2,0.4,0.2,0.7,0.2v0.2h-3.1v-0.2c0.4,0,0.6-0.1,0.7-0.3c0.1-0.1,0.2-0.5,0.2-1V396
			c0-0.4-0.1-0.8-0.2-1c-0.2-0.3-0.4-0.4-0.9-0.4c-0.3,0-0.6,0.1-0.9,0.3c-0.2,0.1-0.4,0.3-0.6,0.6v4.1c0,0.4,0.1,0.6,0.2,0.7
			c0.2,0.1,0.4,0.2,0.7,0.2v0.2h-3.2V400.4z"/>
		<path class="st4" d="M529.2,398.3h0.2c0.1,0.6,0.3,1,0.5,1.3c0.3,0.5,0.8,0.8,1.5,0.8c0.4,0,0.7-0.1,0.9-0.3
			c0.2-0.2,0.3-0.5,0.3-0.8c0-0.2-0.1-0.4-0.2-0.6s-0.3-0.4-0.6-0.6l-0.8-0.5c-0.6-0.3-1-0.6-1.3-1c-0.3-0.3-0.4-0.7-0.4-1.2
			c0-0.5,0.2-1,0.6-1.3s0.9-0.5,1.5-0.5c0.3,0,0.5,0,0.9,0.1c0.3,0.1,0.5,0.1,0.5,0.1c0.1,0,0.2,0,0.2,0s0.1-0.1,0.1-0.1h0.2l0.1,2
			h-0.2c-0.1-0.5-0.2-0.8-0.4-1.1c-0.3-0.5-0.7-0.7-1.3-0.7c-0.3,0-0.6,0.1-0.8,0.3s-0.3,0.5-0.3,0.7c0,0.4,0.3,0.8,1,1.2l1,0.5
			c1,0.6,1.6,1.2,1.6,2c0,0.6-0.2,1-0.6,1.4s-1,0.5-1.7,0.5c-0.3,0-0.6,0-1-0.1c-0.4-0.1-0.6-0.1-0.7-0.1c-0.1,0-0.1,0-0.2,0.1
			c0,0-0.1,0.1-0.1,0.2h-0.2V398.3z"/>
		<path class="st4" d="M535.9,397.4c0.4-0.3,1.3-0.7,2.7-1.2v-0.6c0-0.5,0-0.8-0.1-1c-0.2-0.3-0.5-0.5-1-0.5c-0.2,0-0.5,0.1-0.7,0.2
			c-0.2,0.1-0.3,0.3-0.3,0.5c0,0.1,0,0.2,0,0.3c0,0.1,0,0.2,0,0.3c0,0.3-0.1,0.5-0.3,0.6c-0.1,0.1-0.2,0.1-0.4,0.1
			c-0.2,0-0.4-0.1-0.5-0.2c-0.1-0.1-0.2-0.3-0.2-0.5c0-0.3,0.2-0.7,0.6-1.1c0.4-0.4,1-0.6,1.9-0.6c0.9,0,1.6,0.3,1.9,0.9
			c0.2,0.3,0.3,0.8,0.3,1.5v2.9c0,0.3,0,0.5,0.1,0.6c0.1,0.2,0.2,0.3,0.4,0.3c0.1,0,0.2,0,0.3-0.1s0.2-0.1,0.4-0.2v0.4
			c-0.2,0.2-0.3,0.3-0.5,0.5c-0.3,0.2-0.6,0.3-0.8,0.3c-0.3,0-0.6-0.1-0.7-0.3c-0.1-0.2-0.2-0.5-0.2-0.8c-0.4,0.3-0.7,0.6-1,0.7
			c-0.4,0.3-0.9,0.4-1.3,0.4c-0.4,0-0.8-0.1-1.1-0.4c-0.3-0.3-0.5-0.7-0.5-1.1C534.8,398.5,535.2,397.9,535.9,397.4z M538.6,396.6
			c-0.6,0.2-1,0.4-1.4,0.6c-0.7,0.4-1.1,0.9-1.1,1.5c0,0.4,0.1,0.8,0.4,1c0.2,0.1,0.4,0.2,0.6,0.2c0.3,0,0.6-0.1,0.9-0.3
			c0.3-0.2,0.4-0.4,0.4-0.7V396.6z"/>
		<path class="st4" d="M546.3,394.2c0.4,0.3,0.7,0.7,0.7,1c0,0.2-0.1,0.3-0.2,0.4s-0.3,0.2-0.5,0.2c-0.2,0-0.3-0.1-0.5-0.2
			c-0.1-0.1-0.2-0.3-0.3-0.5l-0.1-0.4c-0.1-0.3-0.2-0.4-0.3-0.5c-0.2-0.1-0.4-0.2-0.6-0.2c-0.6,0-1,0.2-1.4,0.7
			c-0.4,0.5-0.6,1.1-0.6,1.9c0,0.7,0.2,1.4,0.6,2c0.4,0.6,1,0.9,1.7,0.9c0.5,0,1-0.2,1.4-0.5c0.2-0.2,0.5-0.5,0.8-0.9l0.2,0.1
			c-0.3,0.6-0.6,1.1-0.9,1.4c-0.6,0.7-1.3,1-2.1,1c-0.8,0-1.4-0.3-2-0.9s-0.9-1.4-0.9-2.4c0-1,0.3-1.9,1-2.6s1.4-1.1,2.4-1.1
			C545.3,393.7,545.8,393.9,546.3,394.2z"/>
		<path class="st4" d="M551.4,393.9v0.5h-1.5l0,4.2c0,0.4,0,0.7,0.1,0.8c0.1,0.3,0.3,0.5,0.7,0.5c0.2,0,0.3,0,0.5-0.1
			c0.1-0.1,0.3-0.2,0.4-0.4l0.2,0.2l-0.2,0.2c-0.3,0.3-0.5,0.6-0.8,0.7s-0.6,0.2-0.8,0.2c-0.6,0-1-0.3-1.2-0.8
			c-0.1-0.3-0.2-0.7-0.2-1.2v-4.4h-0.8c0,0,0,0-0.1,0c0,0,0,0,0-0.1c0,0,0-0.1,0-0.1c0,0,0.1-0.1,0.2-0.2c0.3-0.3,0.6-0.5,0.7-0.7
			c0.1-0.2,0.5-0.6,1.1-1.4c0.1,0,0.1,0,0.1,0c0,0,0,0,0,0.1v1.8H551.4z"/>
		<path class="st4" d="M552.1,400.4c0.5,0,0.9-0.1,1-0.3c0.1-0.1,0.2-0.5,0.2-1.1v-3.5c0-0.3,0-0.5-0.1-0.7
			c-0.1-0.2-0.2-0.3-0.5-0.3c-0.1,0-0.1,0-0.2,0c-0.1,0-0.2,0-0.4,0.1v-0.2l0.3-0.1c0.9-0.3,1.5-0.5,1.8-0.6
			c0.1-0.1,0.2-0.1,0.3-0.1c0,0,0,0.1,0,0.1v5.3c0,0.6,0.1,0.9,0.2,1c0.1,0.1,0.4,0.2,0.9,0.3v0.2h-3.6V400.4z M553.2,390.6
			c0.1-0.2,0.3-0.2,0.5-0.2c0.2,0,0.4,0.1,0.5,0.2c0.1,0.1,0.2,0.3,0.2,0.5c0,0.2-0.1,0.4-0.2,0.5c-0.1,0.1-0.3,0.2-0.5,0.2
			c-0.2,0-0.4-0.1-0.5-0.2c-0.1-0.1-0.2-0.3-0.2-0.5S553.1,390.8,553.2,390.6z"/>
		<path class="st4" d="M557.3,394.8c0.6-0.7,1.4-1,2.4-1c1,0,1.8,0.3,2.4,1s1,1.5,1,2.5c0,1-0.3,1.8-0.9,2.5s-1.4,1.1-2.4,1.1
			c-0.9,0-1.7-0.3-2.4-1s-1-1.6-1-2.6C556.3,396.2,556.6,395.4,557.3,394.8z M558.4,394.6c-0.5,0.4-0.7,1.2-0.7,2.3
			c0,0.9,0.2,1.7,0.6,2.4c0.4,0.8,0.9,1.1,1.6,1.1c0.5,0,1-0.3,1.3-0.8c0.3-0.5,0.4-1.2,0.4-2c0-0.8-0.2-1.6-0.6-2.4
			c-0.4-0.7-0.9-1.1-1.6-1.1C559,394.2,558.7,394.3,558.4,394.6z"/>
		<path class="st4" d="M563.7,400.4c0.3,0,0.6-0.1,0.7-0.3c0.1-0.1,0.2-0.4,0.2-0.9v-3.7c0-0.3,0-0.5-0.1-0.7
			c-0.1-0.2-0.3-0.3-0.6-0.3c0,0-0.1,0-0.1,0c0,0-0.1,0-0.2,0v-0.3c0.2-0.1,0.7-0.2,1.4-0.5l0.7-0.2c0,0,0.1,0,0.1,0
			c0,0,0,0.1,0,0.1v1.1c0.4-0.4,0.8-0.7,1.1-0.9c0.4-0.2,0.8-0.4,1.2-0.4c0.3,0,0.6,0.1,0.9,0.3c0.5,0.4,0.8,1,0.8,2v3.4
			c0,0.4,0.1,0.6,0.2,0.8c0.1,0.2,0.4,0.2,0.7,0.2v0.2h-3.1v-0.2c0.4,0,0.6-0.1,0.7-0.3c0.1-0.1,0.2-0.5,0.2-1V396
			c0-0.4-0.1-0.8-0.2-1c-0.2-0.3-0.4-0.4-0.9-0.4c-0.3,0-0.6,0.1-0.9,0.3c-0.2,0.1-0.4,0.3-0.6,0.6v4.1c0,0.4,0.1,0.6,0.2,0.7
			c0.2,0.1,0.4,0.2,0.7,0.2v0.2h-3.2V400.4z"/>
		<path class="st4" d="M571.7,398.3h0.2c0.1,0.6,0.3,1,0.5,1.3c0.3,0.5,0.8,0.8,1.5,0.8c0.4,0,0.7-0.1,0.9-0.3
			c0.2-0.2,0.3-0.5,0.3-0.8c0-0.2-0.1-0.4-0.2-0.6s-0.3-0.4-0.6-0.6l-0.8-0.5c-0.6-0.3-1-0.6-1.3-1s-0.4-0.7-0.4-1.2
			c0-0.5,0.2-1,0.6-1.3s0.9-0.5,1.5-0.5c0.3,0,0.5,0,0.9,0.1c0.3,0.1,0.5,0.1,0.5,0.1c0.1,0,0.2,0,0.2,0s0.1-0.1,0.1-0.1h0.2l0.1,2
			h-0.2c-0.1-0.5-0.2-0.8-0.4-1.1c-0.3-0.5-0.7-0.7-1.3-0.7c-0.3,0-0.6,0.1-0.8,0.3s-0.3,0.5-0.3,0.7c0,0.4,0.3,0.8,1,1.2l1,0.5
			c1,0.6,1.6,1.2,1.6,2c0,0.6-0.2,1-0.6,1.4c-0.4,0.4-1,0.5-1.7,0.5c-0.3,0-0.6,0-1-0.1c-0.4-0.1-0.6-0.1-0.7-0.1
			c-0.1,0-0.1,0-0.2,0.1c0,0-0.1,0.1-0.1,0.2h-0.2V398.3z"/>
	</g>
	<g class="st7">
		<path class="st4" d="M458.4,409.2c0.4,0.3,0.7,0.7,0.7,1c0,0.2-0.1,0.3-0.2,0.4s-0.3,0.2-0.5,0.2c-0.2,0-0.3-0.1-0.5-0.2
			c-0.1-0.1-0.2-0.3-0.3-0.5l-0.1-0.4c-0.1-0.3-0.2-0.4-0.3-0.5c-0.2-0.1-0.4-0.2-0.6-0.2c-0.6,0-1,0.2-1.4,0.7
			c-0.4,0.5-0.6,1.1-0.6,1.9c0,0.7,0.2,1.4,0.6,2c0.4,0.6,1,0.9,1.7,0.9c0.5,0,1-0.2,1.4-0.5c0.2-0.2,0.5-0.5,0.8-0.9l0.2,0.1
			c-0.3,0.6-0.6,1.1-0.9,1.4c-0.6,0.7-1.3,1-2.1,1c-0.8,0-1.4-0.3-2-0.9s-0.9-1.4-0.9-2.4c0-1,0.3-1.9,1-2.6s1.4-1.1,2.4-1.1
			C457.4,408.7,457.9,408.9,458.4,409.2z"/>
		<path class="st4" d="M461,409.8c0.6-0.7,1.4-1,2.4-1c1,0,1.8,0.3,2.4,1s1,1.5,1,2.5c0,1-0.3,1.8-0.9,2.5s-1.4,1.1-2.4,1.1
			c-0.9,0-1.7-0.3-2.4-1s-1-1.6-1-2.6C460.1,411.2,460.4,410.4,461,409.8z M462.2,409.6c-0.5,0.4-0.7,1.2-0.7,2.3
			c0,0.9,0.2,1.7,0.6,2.4s0.9,1.1,1.6,1.1c0.5,0,1-0.3,1.3-0.8c0.3-0.5,0.4-1.2,0.4-2c0-0.8-0.2-1.6-0.6-2.4
			c-0.4-0.7-0.9-1.1-1.6-1.1C462.8,409.2,462.5,409.3,462.2,409.6z"/>
		<path class="st4" d="M467.5,415.4c0.3,0,0.6-0.1,0.7-0.3c0.1-0.1,0.2-0.4,0.2-0.9v-3.7c0-0.3,0-0.5-0.1-0.7
			c-0.1-0.2-0.3-0.3-0.6-0.3c0,0-0.1,0-0.1,0c0,0-0.1,0-0.2,0v-0.3c0.2-0.1,0.7-0.2,1.4-0.5l0.7-0.2c0,0,0.1,0,0.1,0
			c0,0,0,0.1,0,0.1v1.1c0.4-0.4,0.8-0.7,1.1-0.9c0.4-0.2,0.8-0.4,1.2-0.4c0.3,0,0.6,0.1,0.9,0.3c0.5,0.4,0.8,1,0.8,2v3.4
			c0,0.4,0.1,0.6,0.2,0.8c0.1,0.2,0.4,0.2,0.7,0.2v0.2h-3.1v-0.2c0.4,0,0.6-0.1,0.7-0.3c0.1-0.1,0.2-0.5,0.2-1V411
			c0-0.4-0.1-0.8-0.2-1c-0.2-0.3-0.4-0.4-0.9-0.4c-0.3,0-0.6,0.1-0.9,0.3c-0.2,0.1-0.4,0.3-0.6,0.6v4.1c0,0.4,0.1,0.6,0.2,0.7
			c0.2,0.1,0.4,0.2,0.7,0.2v0.2h-3.2V415.4z"/>
		<path class="st4" d="M478.6,408.9v0.5h-1.5l0,4.2c0,0.4,0,0.7,0.1,0.8c0.1,0.3,0.3,0.5,0.7,0.5c0.2,0,0.3,0,0.5-0.1
			c0.1-0.1,0.3-0.2,0.4-0.4l0.2,0.2l-0.2,0.2c-0.3,0.3-0.5,0.6-0.8,0.7s-0.6,0.2-0.8,0.2c-0.6,0-1-0.3-1.2-0.8
			c-0.1-0.3-0.2-0.7-0.2-1.2v-4.4H475c0,0,0,0-0.1,0c0,0,0,0,0-0.1c0,0,0-0.1,0-0.1c0,0,0.1-0.1,0.2-0.2c0.3-0.3,0.6-0.5,0.7-0.7
			c0.1-0.2,0.5-0.6,1.1-1.4c0.1,0,0.1,0,0.1,0c0,0,0,0,0,0.1v1.8H478.6z"/>
		<path class="st4" d="M480.5,412.4c0.4-0.3,1.3-0.7,2.7-1.2v-0.6c0-0.5,0-0.8-0.1-1c-0.2-0.3-0.5-0.5-1-0.5c-0.2,0-0.5,0.1-0.7,0.2
			c-0.2,0.1-0.3,0.3-0.3,0.5c0,0.1,0,0.2,0,0.3c0,0.1,0,0.2,0,0.3c0,0.3-0.1,0.5-0.3,0.6c-0.1,0.1-0.2,0.1-0.4,0.1
			c-0.2,0-0.4-0.1-0.5-0.2c-0.1-0.1-0.2-0.3-0.2-0.5c0-0.3,0.2-0.7,0.6-1.1c0.4-0.4,1-0.6,1.9-0.6c0.9,0,1.6,0.3,1.9,0.9
			c0.2,0.3,0.3,0.8,0.3,1.5v2.9c0,0.3,0,0.5,0.1,0.6c0.1,0.2,0.2,0.3,0.4,0.3c0.1,0,0.2,0,0.3-0.1s0.2-0.1,0.4-0.2v0.4
			c-0.2,0.2-0.3,0.3-0.5,0.5c-0.3,0.2-0.6,0.3-0.8,0.3c-0.3,0-0.6-0.1-0.7-0.3c-0.1-0.2-0.2-0.5-0.2-0.8c-0.4,0.3-0.7,0.6-1,0.7
			c-0.4,0.3-0.9,0.4-1.3,0.4c-0.4,0-0.8-0.1-1.1-0.4c-0.3-0.3-0.5-0.7-0.5-1.1C479.5,413.5,479.8,412.9,480.5,412.4z M483.2,411.6
			c-0.6,0.2-1,0.4-1.4,0.6c-0.7,0.4-1.1,0.9-1.1,1.5c0,0.4,0.1,0.8,0.4,1c0.2,0.1,0.4,0.2,0.6,0.2c0.3,0,0.6-0.1,0.9-0.3
			c0.3-0.2,0.4-0.4,0.4-0.7V411.6z"/>
		<path class="st4" d="M485.9,415.4c0.5,0,0.9-0.1,1-0.3c0.1-0.1,0.2-0.5,0.2-1.1v-3.5c0-0.3,0-0.5-0.1-0.7
			c-0.1-0.2-0.2-0.3-0.5-0.3c-0.1,0-0.1,0-0.2,0c-0.1,0-0.2,0-0.4,0.1v-0.2l0.3-0.1c0.9-0.3,1.5-0.5,1.8-0.6
			c0.1-0.1,0.2-0.1,0.3-0.1c0,0,0,0.1,0,0.1v5.3c0,0.6,0.1,0.9,0.2,1c0.1,0.1,0.4,0.2,0.9,0.3v0.2h-3.6V415.4z M487,405.6
			c0.1-0.2,0.3-0.2,0.5-0.2c0.2,0,0.4,0.1,0.5,0.2c0.1,0.1,0.2,0.3,0.2,0.5c0,0.2-0.1,0.4-0.2,0.5c-0.1,0.1-0.3,0.2-0.5,0.2
			c-0.2,0-0.4-0.1-0.5-0.2c-0.1-0.1-0.2-0.3-0.2-0.5S486.9,405.8,487,405.6z"/>
		<path class="st4" d="M490,415.4c0.3,0,0.6-0.1,0.7-0.3c0.1-0.1,0.2-0.4,0.2-0.9v-3.7c0-0.3,0-0.5-0.1-0.7
			c-0.1-0.2-0.3-0.3-0.6-0.3c0,0-0.1,0-0.1,0c0,0-0.1,0-0.2,0v-0.3c0.2-0.1,0.7-0.2,1.4-0.5l0.7-0.2c0,0,0.1,0,0.1,0
			c0,0,0,0.1,0,0.1v1.1c0.4-0.4,0.8-0.7,1.1-0.9c0.4-0.2,0.8-0.4,1.2-0.4c0.3,0,0.6,0.1,0.9,0.3c0.5,0.4,0.8,1,0.8,2v3.4
			c0,0.4,0.1,0.6,0.2,0.8c0.1,0.2,0.4,0.2,0.7,0.2v0.2h-3.1v-0.2c0.4,0,0.6-0.1,0.7-0.3c0.1-0.1,0.2-0.5,0.2-1V411
			c0-0.4-0.1-0.8-0.2-1c-0.2-0.3-0.4-0.4-0.9-0.4c-0.3,0-0.6,0.1-0.9,0.3c-0.2,0.1-0.4,0.3-0.6,0.6v4.1c0,0.4,0.1,0.6,0.2,0.7
			c0.2,0.1,0.4,0.2,0.7,0.2v0.2H490V415.4z"/>
		<path class="st4" d="M497.5,415.4c0.5,0,0.9-0.1,1-0.3c0.1-0.1,0.2-0.5,0.2-1.1v-3.5c0-0.3,0-0.5-0.1-0.7
			c-0.1-0.2-0.2-0.3-0.5-0.3c-0.1,0-0.1,0-0.2,0c-0.1,0-0.2,0-0.4,0.1v-0.2l0.3-0.1c0.9-0.3,1.5-0.5,1.8-0.6
			c0.1-0.1,0.2-0.1,0.3-0.1c0,0,0,0.1,0,0.1v5.3c0,0.6,0.1,0.9,0.2,1c0.1,0.1,0.4,0.2,0.9,0.3v0.2h-3.6V415.4z M498.7,405.6
			c0.1-0.2,0.3-0.2,0.5-0.2c0.2,0,0.4,0.1,0.5,0.2c0.1,0.1,0.2,0.3,0.2,0.5c0,0.2-0.1,0.4-0.2,0.5c-0.1,0.1-0.3,0.2-0.5,0.2
			c-0.2,0-0.4-0.1-0.5-0.2c-0.1-0.1-0.2-0.3-0.2-0.5S498.5,405.8,498.7,405.6z"/>
		<path class="st4" d="M501.7,415.4c0.3,0,0.6-0.1,0.7-0.3c0.1-0.1,0.2-0.4,0.2-0.9v-3.7c0-0.3,0-0.5-0.1-0.7
			c-0.1-0.2-0.3-0.3-0.6-0.3c0,0-0.1,0-0.1,0c0,0-0.1,0-0.2,0v-0.3c0.2-0.1,0.7-0.2,1.4-0.5l0.7-0.2c0,0,0.1,0,0.1,0
			c0,0,0,0.1,0,0.1v1.1c0.4-0.4,0.8-0.7,1.1-0.9c0.4-0.2,0.8-0.4,1.2-0.4c0.3,0,0.6,0.1,0.9,0.3c0.5,0.4,0.8,1,0.8,2v3.4
			c0,0.4,0.1,0.6,0.2,0.8c0.1,0.2,0.4,0.2,0.7,0.2v0.2h-3.1v-0.2c0.4,0,0.6-0.1,0.7-0.3c0.1-0.1,0.2-0.5,0.2-1V411
			c0-0.4-0.1-0.8-0.2-1c-0.2-0.3-0.4-0.4-0.9-0.4c-0.3,0-0.6,0.1-0.9,0.3c-0.2,0.1-0.4,0.3-0.6,0.6v4.1c0,0.4,0.1,0.6,0.2,0.7
			c0.2,0.1,0.4,0.2,0.7,0.2v0.2h-3.2V415.4z"/>
		<path class="st4" d="M510.3,412.4c-0.2-0.4-0.4-0.8-0.4-1.3c0-0.6,0.2-1.1,0.7-1.6s1.1-0.8,1.9-0.8c0.4,0,0.7,0.1,1.2,0.3
			c0.4,0.2,0.8,0.3,1.2,0.3c0.1,0,0.3,0,0.5,0c0.2,0,0.4,0,0.5,0h0.1v0.6h-1.3c0.1,0.2,0.2,0.4,0.2,0.5c0.1,0.3,0.1,0.6,0.1,0.8
			c0,0.6-0.2,1.1-0.7,1.5c-0.5,0.5-1.1,0.7-1.9,0.7c-0.1,0-0.3,0-0.7-0.1c-0.1,0-0.3,0.1-0.6,0.4s-0.4,0.4-0.4,0.6
			c0,0.2,0.2,0.3,0.5,0.3c0.2,0,0.5,0.1,0.7,0.1c1.3,0,2.1,0.1,2.6,0.2c0.7,0.2,1.1,0.7,1.1,1.5c0,0.8-0.4,1.4-1.3,1.8
			c-0.9,0.5-1.7,0.7-2.6,0.7c-0.8,0-1.4-0.2-1.9-0.5c-0.5-0.3-0.7-0.7-0.7-1c0-0.2,0.1-0.3,0.2-0.5c0.1-0.2,0.4-0.4,0.7-0.8l0.5-0.4
			l0.1-0.1c-0.2-0.1-0.4-0.2-0.5-0.3c-0.2-0.2-0.3-0.3-0.3-0.5c0-0.2,0.1-0.4,0.3-0.6c0.2-0.2,0.5-0.6,1.1-1.1
			C510.9,413,510.5,412.7,510.3,412.4z M511.1,417.8c0.5,0.2,1,0.2,1.6,0.2c0.8,0,1.5-0.1,2-0.4c0.5-0.3,0.8-0.6,0.8-1
			c0-0.3-0.2-0.5-0.6-0.7c-0.3-0.1-0.7-0.1-1.4-0.1c-0.2,0-0.4,0-0.6,0c-0.2,0-0.4,0-0.5,0c-0.1,0-0.3,0-0.5-0.1
			c-0.2,0-0.4-0.1-0.5-0.1c-0.1,0-0.2,0.2-0.4,0.5c-0.2,0.3-0.3,0.6-0.3,0.9C510.4,417.4,510.6,417.7,511.1,417.8z M513.4,412.8
			c0.3-0.2,0.4-0.6,0.4-1.2c0-0.5-0.1-1-0.4-1.6c-0.2-0.6-0.6-0.9-1.2-0.9c-0.5,0-0.8,0.2-1,0.7c-0.1,0.2-0.1,0.5-0.1,0.9
			c0,0.6,0.1,1.1,0.4,1.6c0.3,0.5,0.7,0.7,1.1,0.7C513,413,513.2,412.9,513.4,412.8z"/>
		<path class="st4" d="M524,408.9v0.5h-1.5l0,4.2c0,0.4,0,0.7,0.1,0.8c0.1,0.3,0.3,0.5,0.7,0.5c0.2,0,0.3,0,0.5-0.1
			c0.1-0.1,0.3-0.2,0.4-0.4l0.2,0.2l-0.2,0.2c-0.3,0.3-0.5,0.6-0.8,0.7s-0.6,0.2-0.8,0.2c-0.6,0-1-0.3-1.2-0.8
			c-0.1-0.3-0.2-0.7-0.2-1.2v-4.4h-0.8c0,0,0,0-0.1,0c0,0,0,0,0-0.1c0,0,0-0.1,0-0.1c0,0,0.1-0.1,0.2-0.2c0.3-0.3,0.6-0.5,0.7-0.7
			c0.1-0.2,0.5-0.6,1.1-1.4c0.1,0,0.1,0,0.1,0c0,0,0,0,0,0.1v1.8H524z"/>
		<path class="st4" d="M524.5,415.4c0.4-0.1,0.7-0.2,0.8-0.3c0.1-0.1,0.2-0.5,0.2-1v-7c0-0.3,0-0.5-0.1-0.6
			c-0.1-0.1-0.2-0.2-0.5-0.2c-0.1,0-0.1,0-0.2,0c-0.1,0-0.1,0-0.2,0V406c0.2-0.1,0.5-0.1,0.8-0.2c0.3-0.1,0.5-0.2,0.7-0.2l0.7-0.2
			l0,0.1v4.5c0.3-0.4,0.6-0.6,0.8-0.8c0.4-0.3,0.9-0.4,1.4-0.4c0.8,0,1.3,0.3,1.6,1c0.2,0.4,0.2,0.8,0.2,1.4v3c0,0.5,0.1,0.9,0.2,1
			c0.1,0.2,0.4,0.3,0.7,0.3v0.2h-3.2v-0.2c0.4-0.1,0.7-0.2,0.8-0.3c0.1-0.1,0.2-0.5,0.2-1v-3c0-0.5-0.1-0.9-0.2-1.1
			c-0.2-0.3-0.5-0.4-0.9-0.4c-0.4,0-0.8,0.1-1.1,0.4s-0.5,0.5-0.5,0.5v3.6c0,0.5,0.1,0.9,0.2,1s0.4,0.2,0.8,0.3v0.2h-3.2V415.4z"/>
		<path class="st4" d="M537.1,409.5c0.5,0.5,0.8,1.2,0.8,2h-4.7c0,1.1,0.3,2,0.8,2.5c0.5,0.5,1,0.8,1.6,0.8c0.5,0,0.9-0.1,1.3-0.4
			s0.7-0.6,1-1.1l0.3,0.1c-0.2,0.6-0.6,1.2-1.1,1.7c-0.5,0.5-1.2,0.8-2,0.8c-0.9,0-1.6-0.3-2.1-1c-0.5-0.7-0.8-1.5-0.8-2.4
			c0-1,0.3-1.8,0.9-2.5s1.3-1.1,2.3-1.1C535.9,408.7,536.5,409,537.1,409.5z M533.6,410c-0.2,0.3-0.3,0.6-0.3,1h3.1
			c-0.1-0.5-0.1-0.9-0.3-1.1c-0.2-0.4-0.6-0.6-1.2-0.6C534.3,409.3,533.8,409.5,533.6,410z"/>
		<path class="st4" d="M542.3,415.4c0.5,0,0.8-0.1,0.9-0.2c0.1-0.1,0.2-0.4,0.2-0.8V407c0-0.3-0.1-0.6-0.2-0.7s-0.3-0.1-0.5-0.1
			c-0.1,0-0.2,0-0.2,0s-0.1,0-0.2,0v-0.2l0.7-0.2c0.5-0.1,0.9-0.3,1.3-0.4c0.2-0.1,0.3-0.1,0.4-0.1c0,0,0,0,0.1,0c0,0,0,0,0,0.1v6.2
			l2-1.8c0.1-0.1,0.2-0.2,0.3-0.3c0.1-0.1,0.1-0.1,0.1-0.2c0-0.1-0.1-0.2-0.2-0.2c-0.1,0-0.3-0.1-0.6-0.1v-0.2h3.1v0.2
			c-0.5,0-1,0.1-1.3,0.3c-0.3,0.2-1,0.7-1.9,1.6l-0.4,0.4l1.3,1.8c0.7,0.9,1.2,1.5,1.6,1.8c0.4,0.3,0.7,0.5,1.1,0.5v0.2h-3.3v-0.2
			l0.3,0c0.1,0,0.2,0,0.2-0.1s0.1-0.1,0.1-0.2c0-0.1,0-0.1,0-0.2c0,0-0.1-0.1-0.1-0.2l-2.3-3v2.7c0,0.3,0.1,0.6,0.4,0.7
			c0.1,0.1,0.4,0.1,0.8,0.1v0.2h-3.5V415.4z"/>
		<path class="st4" d="M555,409.5c0.5,0.5,0.8,1.2,0.8,2h-4.7c0,1.1,0.3,2,0.8,2.5c0.5,0.5,1,0.8,1.6,0.8c0.5,0,0.9-0.1,1.3-0.4
			s0.7-0.6,1-1.1l0.3,0.1c-0.2,0.6-0.6,1.2-1.1,1.7c-0.5,0.5-1.2,0.8-2,0.8c-0.9,0-1.6-0.3-2.1-1c-0.5-0.7-0.8-1.5-0.8-2.4
			c0-1,0.3-1.8,0.9-2.5s1.3-1.1,2.3-1.1C553.8,408.7,554.5,409,555,409.5z M551.5,410c-0.2,0.3-0.3,0.6-0.3,1h3.1
			c-0.1-0.5-0.1-0.9-0.3-1.1c-0.2-0.4-0.6-0.6-1.2-0.6C552.2,409.3,551.8,409.5,551.5,410z"/>
		<path class="st4" d="M556.6,408.9h3.1v0.2c-0.2,0-0.4,0-0.5,0.1c-0.2,0.1-0.3,0.2-0.3,0.4c0,0.1,0,0.1,0,0.2
			c0,0.1,0.1,0.2,0.1,0.3l1.7,3.7l1.4-3.7c0,0,0-0.1,0.1-0.3c0-0.1,0-0.2,0-0.3c0-0.1,0-0.2-0.1-0.3c-0.1-0.1-0.2-0.1-0.3-0.1
			l-0.2,0v-0.2h2v0.2c-0.2,0-0.4,0.1-0.5,0.2c-0.1,0.1-0.2,0.3-0.3,0.5l-2.3,6.1c-0.4,1.1-0.8,1.8-1.1,2.3s-0.8,0.7-1.4,0.7
			c-0.3,0-0.5-0.1-0.8-0.2s-0.4-0.4-0.4-0.7c0-0.2,0.1-0.4,0.2-0.5c0.1-0.1,0.3-0.2,0.5-0.2c0.1,0,0.3,0,0.6,0.1
			c0.2,0.1,0.4,0.1,0.5,0.1c0.3,0,0.6-0.3,0.9-1s0.4-1.1,0.4-1.3c0,0,0-0.1,0-0.2c0-0.1,0-0.1,0-0.2l-2.3-5
			c-0.2-0.4-0.3-0.6-0.4-0.7c-0.1-0.1-0.3-0.2-0.6-0.2V408.9z"/>
		<path class="st4" d="M570.9,409c-0.3,0-0.5,0.1-0.7,0.1c-0.1,0.1-0.2,0.2-0.2,0.4c0,0.1,0,0.2,0,0.3c0,0.1,0.1,0.2,0.1,0.4
			l1.3,3.5l1.3-3.2c0.1-0.1,0.1-0.3,0.2-0.5c0.1-0.2,0.1-0.4,0.1-0.5c0-0.2-0.1-0.3-0.2-0.4s-0.3-0.1-0.5-0.1v-0.2h1.9v0.2
			c-0.1,0-0.2,0.1-0.3,0.2c-0.1,0.1-0.2,0.3-0.3,0.7l-2.3,5.8c0,0,0,0.1-0.1,0.1s0,0-0.1,0c-0.1,0-0.1-0.1-0.1-0.1l-1.8-4.4
			l-1.8,4.4c0,0,0,0,0,0.1c0,0,0,0-0.1,0c-0.1,0-0.1-0.1-0.1-0.1l-2.2-5.4c-0.2-0.6-0.4-1-0.5-1.1c-0.1-0.1-0.2-0.2-0.5-0.2v-0.2
			h2.7v0.2c-0.2,0-0.4,0.1-0.5,0.1c-0.1,0.1-0.2,0.2-0.2,0.4c0,0.1,0.1,0.5,0.3,1.1c0.1,0.3,0.3,0.7,0.5,1.1l0.8,2l1.3-2.8l0-0.1
			c0-0.1-0.1-0.3-0.2-0.5c-0.1-0.3-0.2-0.5-0.3-0.7c-0.1-0.2-0.2-0.4-0.3-0.5c-0.1-0.1-0.3-0.1-0.5-0.2v-0.2h3.1V409z"/>
		<path class="st4" d="M576,409.8c0.6-0.7,1.4-1,2.4-1c1,0,1.8,0.3,2.4,1s1,1.5,1,2.5c0,1-0.3,1.8-0.9,2.5s-1.4,1.1-2.4,1.1
			c-0.9,0-1.7-0.3-2.4-1s-1-1.6-1-2.6C575.1,411.2,575.4,410.4,576,409.8z M577.2,409.6c-0.5,0.4-0.7,1.2-0.7,2.3
			c0,0.9,0.2,1.7,0.6,2.4s0.9,1.1,1.6,1.1c0.5,0,1-0.3,1.3-0.8c0.3-0.5,0.4-1.2,0.4-2c0-0.8-0.2-1.6-0.6-2.4
			c-0.4-0.7-0.9-1.1-1.6-1.1C577.8,409.2,577.5,409.3,577.2,409.6z"/>
		<path class="st4" d="M582.3,415.4c0.4,0,0.7-0.1,0.9-0.2c0.1-0.1,0.2-0.4,0.2-0.8v-3.3c0-0.5,0-0.8-0.1-1
			c-0.1-0.2-0.3-0.3-0.5-0.3c0,0-0.1,0-0.2,0c-0.1,0-0.2,0-0.3,0v-0.2c0.3-0.1,0.6-0.2,0.9-0.3s0.5-0.2,0.6-0.2
			c0.2-0.1,0.5-0.2,0.8-0.3c0,0,0.1,0,0.1,0c0,0,0,0.1,0,0.2v1.2c0.3-0.4,0.6-0.8,0.9-1s0.6-0.4,0.9-0.4c0.2,0,0.5,0.1,0.6,0.2
			c0.2,0.1,0.2,0.3,0.2,0.6c0,0.2-0.1,0.4-0.2,0.5c-0.1,0.1-0.3,0.2-0.5,0.2c-0.2,0-0.4-0.1-0.6-0.3c-0.2-0.2-0.3-0.3-0.4-0.3
			c-0.2,0-0.4,0.1-0.6,0.4c-0.2,0.3-0.4,0.6-0.4,0.9v3.3c0,0.4,0.1,0.7,0.3,0.9c0.2,0.2,0.5,0.2,1,0.2v0.2h-3.6V415.4z"/>
		<path class="st4" d="M591.7,408.9c0.2,0.1,0.4,0.2,0.6,0.4V407c0-0.3,0-0.5-0.1-0.6c-0.1-0.1-0.2-0.2-0.5-0.2c-0.1,0-0.1,0-0.2,0
			s-0.1,0-0.3,0V406l0.6-0.2c0.2-0.1,0.4-0.1,0.7-0.2s0.4-0.1,0.6-0.2c0.1,0,0.2-0.1,0.4-0.1l0,0l0,0.8c0,0.3,0,0.6,0,0.9
			c0,0.3,0,0.6,0,0.9l0,6c0,0.3,0,0.5,0.1,0.7s0.3,0.2,0.6,0.2c0.1,0,0.1,0,0.2,0c0.1,0,0.1,0,0.2,0v0.2c0,0-0.4,0.1-1.1,0.4
			l-1.1,0.4l-0.1-0.1v-0.9c-0.3,0.3-0.5,0.5-0.7,0.6c-0.4,0.2-0.8,0.3-1.2,0.3c-0.8,0-1.5-0.3-2-1c-0.5-0.6-0.8-1.4-0.8-2.2
			c0-1.1,0.3-2,0.9-2.7c0.6-0.8,1.4-1.1,2.3-1.1C591.1,408.7,591.4,408.8,591.7,408.9z M592,414.6c0.2-0.2,0.4-0.4,0.4-0.6v-3.1
			c0-0.6-0.2-1.1-0.5-1.3c-0.3-0.3-0.7-0.4-1-0.4c-0.6,0-1.1,0.3-1.4,0.8c-0.3,0.5-0.5,1.2-0.5,2c0,0.8,0.2,1.5,0.5,2.1
			c0.4,0.6,0.9,0.9,1.6,0.9C591.4,415,591.7,414.9,592,414.6z"/>
	</g>
	<g class="st7">
		<path class="st8" d="M455.6,421.5c0,0.1,0,0.2,0,0.3l-0.4,3h-0.3l-0.4-3c0-0.1,0-0.3,0-0.4s0-0.2,0-0.3c0-0.2,0.1-0.3,0.2-0.5
			c0.1-0.1,0.2-0.2,0.4-0.2c0.2,0,0.4,0.1,0.5,0.2c0.1,0.1,0.1,0.3,0.1,0.5C455.6,421.3,455.6,421.4,455.6,421.5z M457.1,424.8
			l-0.4-2.9c0-0.3-0.1-0.5-0.1-0.5c0-0.1,0-0.1,0-0.1c0-0.3,0.1-0.5,0.2-0.6c0.1-0.1,0.2-0.2,0.4-0.2c0.2,0,0.4,0.1,0.5,0.2
			c0.1,0.1,0.1,0.3,0.1,0.5c0,0,0,0.1,0,0.1s0,0.2-0.1,0.5l-0.3,3H457.1z"/>
	</g>
	<g class="st7">
		<path class="st8" d="M458.7,430.2c0.4,0,0.6-0.1,0.8-0.2c0.3-0.2,0.4-0.4,0.4-0.8v-7.4c0-0.4-0.1-0.7-0.4-0.8
			c-0.2-0.1-0.4-0.1-0.8-0.2v-0.4h4.6c1.9,0,3.3,0.5,4.2,1.5c0.9,0.9,1.3,2.1,1.3,3.6c0,1.4-0.4,2.5-1.3,3.4c-1,1.1-2.4,1.6-4.1,1.6
			h-4.7V430.2z M462.5,429.9c0.1,0.1,0.3,0.2,0.6,0.2c0.9,0,1.6-0.3,2.2-0.9c0.6-0.6,0.9-1.8,0.9-3.6c0-1.1-0.2-2-0.5-2.7
			c-0.5-1.2-1.3-1.8-2.5-1.8c-0.4,0-0.6,0.1-0.8,0.2c-0.1,0.1-0.1,0.3-0.1,0.6v7.4C462.4,429.5,462.4,429.8,462.5,429.9z"/>
		<path class="st8" d="M470.7,427.6c0.6-0.4,1.7-0.8,3.1-1.2v-1.1c0-0.4-0.1-0.8-0.3-1c-0.2-0.2-0.5-0.3-1-0.3
			c-0.3,0-0.5,0.1-0.7,0.2c-0.2,0.1-0.3,0.2-0.3,0.4c0,0.1,0,0.1,0,0.1c0,0,0,0.1,0.1,0.1l0.1,0.1c0.1,0.1,0.1,0.2,0.2,0.3
			c0,0.1,0.1,0.2,0.1,0.3c0,0.3-0.1,0.5-0.3,0.7c-0.2,0.2-0.4,0.2-0.7,0.2c-0.3,0-0.5-0.1-0.7-0.3c-0.2-0.2-0.3-0.4-0.3-0.7
			c0-0.6,0.3-1,0.8-1.4s1.2-0.5,2-0.5c0.8,0,1.6,0.2,2.1,0.5c0.6,0.3,0.8,0.9,0.8,1.8v3.6c0,0.1,0,0.2,0.1,0.3
			c0.1,0.1,0.1,0.1,0.2,0.1c0.1,0,0.1,0,0.2,0c0,0,0.1-0.1,0.2-0.2l0.2,0.3c-0.3,0.3-0.6,0.6-1,0.7c-0.2,0.1-0.5,0.1-0.7,0.1
			c-0.4,0-0.8-0.1-1-0.4c-0.1-0.1-0.2-0.4-0.3-0.7c-0.4,0.4-0.9,0.7-1.4,0.9c-0.3,0.1-0.6,0.2-0.9,0.2c-0.4,0-0.8-0.1-1.2-0.4
			c-0.4-0.3-0.5-0.7-0.5-1.2C469.7,428.5,470,428,470.7,427.6z M473.3,429.5c0.1-0.1,0.3-0.2,0.4-0.4v-2.2c-0.4,0.1-0.8,0.3-1.1,0.5
			c-0.5,0.4-0.8,0.8-0.8,1.4c0,0.3,0.1,0.6,0.2,0.7c0.1,0.2,0.3,0.3,0.5,0.3C472.8,429.8,473.1,429.7,473.3,429.5z"/>
		<path class="st8" d="M477.1,424.4V424c0.1-0.1,0.3-0.3,0.5-0.4c0.3-0.2,0.5-0.5,0.7-0.7c0.5-0.5,0.9-1,1.2-1.6h0.4v2.5h1.4v0.7
			h-1.4v4.5c0,0.2,0,0.4,0.1,0.5c0.1,0.2,0.3,0.3,0.5,0.3c0.2,0,0.4-0.1,0.5-0.2c0.1-0.1,0.3-0.3,0.4-0.6l0.4,0.2
			c-0.2,0.4-0.4,0.7-0.6,1c-0.4,0.5-1,0.7-1.6,0.7c-0.4,0-0.7-0.1-0.9-0.2c-0.5-0.3-0.8-0.7-0.8-1.4v-4.9H477.1z"/>
		<path class="st8" d="M483.2,427.6c0.6-0.4,1.7-0.8,3.1-1.2v-1.1c0-0.4-0.1-0.8-0.3-1c-0.2-0.2-0.5-0.3-1-0.3
			c-0.3,0-0.5,0.1-0.7,0.2c-0.2,0.1-0.3,0.2-0.3,0.4c0,0.1,0,0.1,0,0.1c0,0,0,0.1,0.1,0.1l0.1,0.1c0.1,0.1,0.1,0.2,0.2,0.3
			c0,0.1,0.1,0.2,0.1,0.3c0,0.3-0.1,0.5-0.3,0.7c-0.2,0.2-0.4,0.2-0.7,0.2c-0.3,0-0.5-0.1-0.7-0.3c-0.2-0.2-0.3-0.4-0.3-0.7
			c0-0.6,0.3-1,0.8-1.4s1.2-0.5,2-0.5c0.8,0,1.6,0.2,2.1,0.5c0.6,0.3,0.8,0.9,0.8,1.8v3.6c0,0.1,0,0.2,0.1,0.3
			c0.1,0.1,0.1,0.1,0.2,0.1c0.1,0,0.1,0,0.2,0c0,0,0.1-0.1,0.2-0.2l0.2,0.3c-0.3,0.3-0.6,0.6-1,0.7c-0.2,0.1-0.5,0.1-0.7,0.1
			c-0.4,0-0.8-0.1-1-0.4c-0.1-0.1-0.2-0.4-0.3-0.7c-0.4,0.4-0.9,0.7-1.4,0.9c-0.3,0.1-0.6,0.2-0.9,0.2c-0.4,0-0.8-0.1-1.2-0.4
			c-0.4-0.3-0.5-0.7-0.5-1.2C482.2,428.5,482.5,428,483.2,427.6z M485.8,429.5c0.1-0.1,0.3-0.2,0.4-0.4v-2.2
			c-0.4,0.1-0.8,0.3-1.1,0.5c-0.5,0.4-0.8,0.8-0.8,1.4c0,0.3,0.1,0.6,0.2,0.7c0.1,0.2,0.3,0.3,0.5,0.3
			C485.3,429.8,485.6,429.7,485.8,429.5z"/>
	</g>
	<g class="st7">
		<path class="st8" d="M488.3,421.5c0,0.1,0,0.2,0,0.3l-0.4,3h-0.3l-0.4-3c0-0.1,0-0.3,0-0.4s0-0.2,0-0.3c0-0.2,0.1-0.3,0.2-0.5
			c0.1-0.1,0.2-0.2,0.4-0.2c0.2,0,0.4,0.1,0.5,0.2c0.1,0.1,0.1,0.3,0.1,0.5C488.3,421.3,488.3,421.4,488.3,421.5z M489.8,424.8
			l-0.4-2.9c0-0.3-0.1-0.5-0.1-0.5c0-0.1,0-0.1,0-0.1c0-0.3,0.1-0.5,0.2-0.6c0.1-0.1,0.2-0.2,0.4-0.2c0.2,0,0.4,0.1,0.5,0.2
			c0.1,0.1,0.1,0.3,0.1,0.5c0,0,0,0.1,0,0.1s0,0.2-0.1,0.5l-0.3,3H489.8z"/>
	</g>
	<g class="st7">
		<path class="st4" d="M495.2,430.4c0.5,0,0.9-0.1,1-0.3c0.1-0.1,0.2-0.5,0.2-1.1v-3.5c0-0.3,0-0.5-0.1-0.7
			c-0.1-0.2-0.2-0.3-0.5-0.3c-0.1,0-0.1,0-0.2,0c-0.1,0-0.2,0-0.4,0.1v-0.2l0.3-0.1c0.9-0.3,1.5-0.5,1.8-0.6
			c0.1-0.1,0.2-0.1,0.3-0.1c0,0,0,0.1,0,0.1v5.3c0,0.6,0.1,0.9,0.2,1c0.1,0.1,0.4,0.2,0.9,0.3v0.2h-3.6V430.4z M496.4,420.6
			c0.1-0.2,0.3-0.2,0.5-0.2c0.2,0,0.4,0.1,0.5,0.2c0.1,0.1,0.2,0.3,0.2,0.5c0,0.2-0.1,0.4-0.2,0.5c-0.1,0.1-0.3,0.2-0.5,0.2
			c-0.2,0-0.4-0.1-0.5-0.2c-0.1-0.1-0.2-0.3-0.2-0.5S496.2,420.8,496.4,420.6z"/>
		<path class="st4" d="M499.9,428.3h0.2c0.1,0.6,0.3,1,0.5,1.3c0.3,0.5,0.8,0.8,1.5,0.8c0.4,0,0.7-0.1,0.9-0.3
			c0.2-0.2,0.3-0.5,0.3-0.8c0-0.2-0.1-0.4-0.2-0.6s-0.3-0.4-0.6-0.6l-0.8-0.5c-0.6-0.3-1-0.6-1.3-1c-0.3-0.3-0.4-0.7-0.4-1.2
			c0-0.5,0.2-1,0.6-1.3s0.9-0.5,1.5-0.5c0.3,0,0.5,0,0.9,0.1c0.3,0.1,0.5,0.1,0.5,0.1c0.1,0,0.2,0,0.2,0s0.1-0.1,0.1-0.1h0.2l0.1,2
			h-0.2c-0.1-0.5-0.2-0.8-0.4-1.1c-0.3-0.5-0.7-0.7-1.3-0.7c-0.3,0-0.6,0.1-0.8,0.3s-0.3,0.5-0.3,0.7c0,0.4,0.3,0.8,1,1.2l1,0.5
			c1,0.6,1.6,1.2,1.6,2c0,0.6-0.2,1-0.6,1.4s-1,0.5-1.7,0.5c-0.3,0-0.6,0-1-0.1c-0.4-0.1-0.6-0.1-0.7-0.1c-0.1,0-0.1,0-0.2,0.1
			c0,0-0.1,0.1-0.1,0.2h-0.2V428.3z"/>
		<path class="st4" d="M509.2,432.9c0.2,0.3,0.5,0.5,0.6,0.5c0.3,0,0.5-0.2,0.6-0.5c0.1-0.2,0.1-0.6,0.1-1.1c0-0.2,0-0.6,0-1.3v-4.8
			c0-0.3,0-0.6-0.1-0.7c-0.1-0.2-0.2-0.2-0.4-0.2c-0.1,0-0.2,0-0.3,0c-0.1,0-0.2,0.1-0.3,0.1v-0.2l0.6-0.2c0.2,0,0.3-0.1,0.6-0.2
			c0.2-0.1,0.5-0.2,0.7-0.3l0.4-0.2c0,0,0,0.1,0,0.1v6.8c0,0.8-0.1,1.5-0.3,2c-0.4,0.9-1.1,1.3-2.2,1.3c-0.4,0-0.7-0.1-1-0.2
			c-0.3-0.1-0.4-0.3-0.4-0.6c0-0.2,0.1-0.3,0.2-0.4c0.1-0.1,0.3-0.2,0.4-0.2C508.7,432.5,508.9,432.6,509.2,432.9z M510.6,420.6
			c0.1-0.2,0.3-0.2,0.5-0.2c0.2,0,0.4,0.1,0.5,0.2c0.1,0.2,0.2,0.3,0.2,0.5s-0.1,0.4-0.2,0.5c-0.1,0.1-0.3,0.2-0.5,0.2
			c-0.2,0-0.4-0.1-0.5-0.2c-0.1-0.1-0.2-0.3-0.2-0.5S510.4,420.8,510.6,420.6z"/>
		<path class="st4" d="M515.2,423.8v4.7c0,0.3,0,0.6,0.1,0.8c0.2,0.4,0.5,0.6,1,0.6c0.3,0,0.7-0.1,1-0.3c0.2-0.1,0.4-0.3,0.5-0.5v-4
			c0-0.4-0.1-0.6-0.2-0.7s-0.4-0.2-0.9-0.2v-0.2h2.4v5.2c0,0.3,0.1,0.6,0.2,0.7c0.1,0.1,0.4,0.2,0.8,0.2v0.2
			c-0.3,0.1-0.5,0.1-0.6,0.2c-0.1,0-0.3,0.1-0.6,0.2c-0.1,0-0.4,0.1-0.8,0.3c0,0,0,0,0,0c0,0,0,0,0-0.1v-1.2
			c-0.3,0.4-0.6,0.7-0.9,0.9c-0.4,0.3-0.9,0.4-1.3,0.4c-0.4,0-0.8-0.2-1.2-0.5c-0.4-0.3-0.6-0.8-0.6-1.5V425c0-0.4-0.1-0.6-0.2-0.8
			c-0.1-0.1-0.3-0.1-0.7-0.2v-0.2H515.2z"/>
		<path class="st4" d="M521.1,428.3h0.2c0.1,0.6,0.3,1,0.5,1.3c0.3,0.5,0.8,0.8,1.5,0.8c0.4,0,0.7-0.1,0.9-0.3
			c0.2-0.2,0.3-0.5,0.3-0.8c0-0.2-0.1-0.4-0.2-0.6s-0.3-0.4-0.6-0.6l-0.8-0.5c-0.6-0.3-1-0.6-1.3-1c-0.3-0.3-0.4-0.7-0.4-1.2
			c0-0.5,0.2-1,0.6-1.3s0.9-0.5,1.5-0.5c0.3,0,0.5,0,0.9,0.1c0.3,0.1,0.5,0.1,0.5,0.1c0.1,0,0.2,0,0.2,0s0.1-0.1,0.1-0.1h0.2l0.1,2
			h-0.2c-0.1-0.5-0.2-0.8-0.4-1.1c-0.3-0.5-0.7-0.7-1.3-0.7c-0.3,0-0.6,0.1-0.8,0.3s-0.3,0.5-0.3,0.7c0,0.4,0.3,0.8,1,1.2l1,0.5
			c1,0.6,1.6,1.2,1.6,2c0,0.6-0.2,1-0.6,1.4s-1,0.5-1.7,0.5c-0.3,0-0.6,0-1-0.1c-0.4-0.1-0.6-0.1-0.7-0.1c-0.1,0-0.1,0-0.2,0.1
			c0,0-0.1,0.1-0.1,0.2h-0.2V428.3z"/>
		<path class="st4" d="M530,423.9v0.5h-1.5l0,4.2c0,0.4,0,0.7,0.1,0.8c0.1,0.3,0.3,0.5,0.7,0.5c0.2,0,0.3,0,0.5-0.1
			c0.1-0.1,0.3-0.2,0.4-0.4l0.2,0.2l-0.2,0.2c-0.3,0.3-0.5,0.6-0.8,0.7s-0.6,0.2-0.8,0.2c-0.6,0-1-0.3-1.2-0.8
			c-0.1-0.3-0.2-0.7-0.2-1.2v-4.4h-0.8c0,0,0,0-0.1,0c0,0,0,0,0-0.1c0,0,0-0.1,0-0.1c0,0,0.1-0.1,0.2-0.2c0.3-0.3,0.6-0.5,0.7-0.7
			c0.1-0.2,0.5-0.6,1.1-1.4c0.1,0,0.1,0,0.1,0c0,0,0,0,0,0.1v1.8H530z"/>
		<path class="st4" d="M535,427.9c0.1,0.6,0.3,1.1,0.6,1.4c0.4,0.6,1.1,0.9,2,0.9V426c-1-0.6-1.6-1-1.9-1.3
			c-0.5-0.5-0.8-1.1-0.8-1.7c0-0.6,0.2-1.1,0.7-1.5s1.1-0.7,1.9-0.7v-0.9h0.5v0.9c0.4,0,0.9,0.1,1.3,0.2c0.5,0.1,0.8,0.3,1.1,0.6
			v1.7h-0.2c-0.1-0.6-0.4-1.1-0.8-1.5s-0.9-0.5-1.4-0.6v3.7c1.1,0.6,1.8,1,2.3,1.5s0.6,1,0.6,1.8c0,0.3,0,0.6-0.1,0.8
			c-0.1,0.4-0.4,0.8-0.7,1.1c-0.3,0.2-0.6,0.4-1,0.5s-0.7,0.2-1,0.2v1.3h-0.5v-1.3c-0.6,0-1.2-0.1-1.6-0.2c-0.3-0.1-0.7-0.3-1.2-0.5
			v-1.9H535z M537.5,421.1c-0.5,0.1-0.8,0.2-1.1,0.5c-0.3,0.3-0.4,0.6-0.4,1.1c0,0.4,0.2,0.8,0.6,1.2c0.3,0.2,0.6,0.5,0.9,0.7V421.1
			z M539.1,429.8c0.5-0.3,0.7-0.8,0.7-1.5c0-0.5-0.2-0.9-0.5-1.2c-0.2-0.2-0.6-0.5-1.2-0.9v4C538.5,430.1,538.8,430,539.1,429.8z"/>
		<path class="st4" d="M549.8,420.6C549.8,420.6,549.8,420.6,549.8,420.6l0,8.9c0,0.4,0.1,0.6,0.3,0.7c0.2,0.1,0.6,0.2,1.1,0.2v0.2
			h-4.1v-0.2c0.6,0,1-0.1,1.2-0.2c0.2-0.1,0.3-0.4,0.3-0.9v-6.8c0-0.2,0-0.4-0.1-0.5s-0.2-0.2-0.4-0.2c-0.1,0-0.3,0-0.5,0.1
			c-0.2,0.1-0.4,0.1-0.6,0.2v-0.2l2.7-1.4L549.8,420.6C549.8,420.6,549.8,420.6,549.8,420.6z"/>
		<path class="st4" d="M556,431.8c-0.4,0.4-0.7,0.7-1.2,0.9l-0.1-0.3c0.5-0.3,0.8-0.5,1-0.9c0.2-0.3,0.3-0.6,0.3-0.8
			c0-0.1,0-0.1-0.1-0.1s-0.1,0-0.1,0l-0.5,0.1c-0.2,0-0.4-0.1-0.6-0.2c-0.2-0.1-0.3-0.3-0.3-0.6c0-0.2,0.1-0.4,0.2-0.6
			s0.4-0.3,0.7-0.3c0.3,0,0.6,0.1,0.8,0.4c0.2,0.2,0.4,0.6,0.4,1C556.5,431,556.4,431.4,556,431.8z"/>
		<path class="st4" d="M561.1,420.6C561.1,420.6,561.1,420.6,561.1,420.6l0,8.9c0,0.4,0.1,0.6,0.3,0.7c0.2,0.1,0.6,0.2,1.1,0.2v0.2
			h-4.1v-0.2c0.6,0,1-0.1,1.2-0.2c0.2-0.1,0.3-0.4,0.3-0.9v-6.8c0-0.2,0-0.4-0.1-0.5s-0.2-0.2-0.4-0.2c-0.1,0-0.3,0-0.5,0.1
			c-0.2,0.1-0.4,0.1-0.6,0.2v-0.2l2.7-1.4L561.1,420.6C561.1,420.6,561.1,420.6,561.1,420.6z"/>
		<path class="st4" d="M570.3,429.7c-0.6,0.7-1.3,1.1-2.2,1.1c-0.9,0-1.6-0.4-2.3-1.2c-0.7-0.8-1.1-1.9-1.1-3.2
			c0-1.7,0.7-3.2,2.1-4.4c1.2-1,2.6-1.6,4.1-1.6l0,0.2c-0.6,0.1-1.1,0.3-1.6,0.5c-0.4,0.2-0.8,0.5-1.2,0.8c-0.4,0.4-0.7,0.8-1,1.3
			c-0.3,0.5-0.5,1.1-0.6,1.6c0.3-0.2,0.6-0.3,0.8-0.4c0.4-0.2,0.8-0.2,1.2-0.2c0.8,0,1.4,0.3,2,0.8c0.5,0.5,0.8,1.3,0.8,2.3
			C571.1,428.2,570.8,429,570.3,429.7z M569.5,426.1c-0.3-0.8-0.9-1.3-1.7-1.3c-0.8,0-1.3,0.2-1.5,0.7c-0.1,0.3-0.2,0.7-0.2,1.3
			c0,0.8,0.2,1.6,0.5,2.3c0.3,0.8,0.9,1.1,1.6,1.1c0.6,0,1-0.2,1.3-0.7c0.3-0.5,0.4-1.1,0.4-1.7
			C569.8,427.2,569.7,426.6,569.5,426.1z"/>
		<path class="st4" d="M573,424.4c-0.4-0.5-0.5-1-0.5-1.6c0-0.6,0.3-1.2,0.8-1.6c0.5-0.4,1.2-0.7,2.1-0.7c0.8,0,1.4,0.2,1.9,0.6
			s0.7,0.9,0.7,1.5c0,0.6-0.2,1.1-0.7,1.5c-0.3,0.3-0.7,0.6-1.3,0.9c0.8,0.6,1.4,1.2,1.8,1.6c0.4,0.5,0.5,1,0.5,1.6
			c0,0.7-0.3,1.3-0.8,1.8c-0.5,0.5-1.2,0.7-2.1,0.7c-0.8,0-1.5-0.2-2-0.7c-0.6-0.4-0.9-1-0.9-1.7c0-0.6,0.2-1.2,0.6-1.6
			c0.3-0.3,0.7-0.7,1.3-1.1C573.7,425.1,573.3,424.7,573,424.4z M576.7,429.9c0.3-0.3,0.4-0.7,0.4-1.2c0-0.5-0.2-1-0.5-1.3
			c-0.3-0.3-0.9-0.8-1.9-1.5c-0.4,0.3-0.7,0.6-0.9,1c-0.2,0.4-0.3,0.8-0.3,1.2c0,0.7,0.2,1.2,0.5,1.6c0.3,0.4,0.8,0.6,1.3,0.6
			C575.9,430.4,576.4,430.2,576.7,429.9z M576.4,424c0.3-0.4,0.5-0.8,0.5-1.4c0-0.5-0.1-0.9-0.4-1.2c-0.3-0.3-0.7-0.5-1.3-0.5
			c-0.4,0-0.8,0.1-1.1,0.4c-0.3,0.3-0.4,0.6-0.4,1c0,0.5,0.2,0.9,0.5,1.3c0.3,0.4,0.8,0.8,1.4,1.1
			C575.9,424.5,576.3,424.2,576.4,424z"/>
		<path class="st4" d="M582.3,431.8c-0.4,0.4-0.7,0.7-1.2,0.9l-0.1-0.3c0.5-0.3,0.8-0.5,1-0.9c0.2-0.3,0.3-0.6,0.3-0.8
			c0-0.1,0-0.1-0.1-0.1s-0.1,0-0.1,0l-0.5,0.1c-0.2,0-0.4-0.1-0.6-0.2c-0.2-0.1-0.3-0.3-0.3-0.6c0-0.2,0.1-0.4,0.2-0.6
			s0.4-0.3,0.7-0.3c0.3,0,0.6,0.1,0.8,0.4c0.2,0.2,0.4,0.6,0.4,1C582.8,431,582.6,431.4,582.3,431.8z"/>
		<path class="st4" d="M583.3,430.4c1.8-1.9,3-3.2,3.6-4.1c0.6-0.9,1-1.7,1-2.5c0-0.7-0.2-1.3-0.6-1.6s-0.9-0.6-1.4-0.6
			c-0.7,0-1.2,0.2-1.6,0.7c-0.2,0.3-0.4,0.7-0.7,1.2l-0.3-0.1c0.2-1.1,0.7-1.9,1.2-2.3c0.6-0.4,1.2-0.7,1.9-0.7c0.8,0,1.5,0.3,2,0.8
			c0.5,0.5,0.8,1.2,0.8,1.9c0,0.8-0.3,1.6-0.8,2.3c-0.6,0.7-1.8,2.1-3.6,4h3.4c0.5,0,0.8-0.1,1-0.2c0.2-0.1,0.4-0.4,0.6-0.8l0.2,0.1
			l-0.8,2h-5.9V430.4z"/>
		<path class="st4" d="M590.8,430.4c1.8-1.9,3-3.2,3.6-4.1c0.6-0.9,1-1.7,1-2.5c0-0.7-0.2-1.3-0.6-1.6s-0.9-0.6-1.4-0.6
			c-0.7,0-1.2,0.2-1.6,0.7c-0.2,0.3-0.4,0.7-0.7,1.2l-0.3-0.1c0.2-1.1,0.7-1.9,1.2-2.3c0.6-0.4,1.2-0.7,1.9-0.7c0.8,0,1.5,0.3,2,0.8
			c0.5,0.5,0.8,1.2,0.8,1.9c0,0.8-0.3,1.6-0.8,2.3c-0.6,0.7-1.8,2.1-3.6,4h3.4c0.5,0,0.8-0.1,1-0.2c0.2-0.1,0.4-0.4,0.6-0.8l0.2,0.1
			l-0.8,2h-5.9V430.4z"/>
		<path class="st4" d="M604,422.3c0.5,1,0.7,2,0.7,3.3c0,1-0.2,1.9-0.5,2.7c-0.6,1.6-1.6,2.4-3,2.4c-1,0-1.8-0.4-2.4-1.3
			c-0.7-0.9-1-2.2-1-3.8c0-1.3,0.2-2.3,0.7-3.3c0.6-1.2,1.5-1.9,2.8-1.9C602.5,420.5,603.4,421.1,604,422.3z M602.9,429.2
			c0.3-0.8,0.4-1.9,0.4-3.4c0-1.2-0.1-2.1-0.2-2.8c-0.3-1.3-0.9-2-1.7-2s-1.4,0.7-1.7,2c-0.2,0.7-0.2,1.7-0.2,2.9
			c0,1.1,0.1,2,0.2,2.7c0.3,1.2,0.9,1.9,1.8,1.9C602.2,430.3,602.7,429.9,602.9,429.2z"/>
	</g>
</g>
<rect x="448.4" y="377.4" class="st5" width="155.4" height="82.7"/>
<g class="st7">
	<path class="st4" d="M448.7,377.7h8.5l0.1,2.5h-0.4c-0.2-0.8-0.4-1.3-0.7-1.6c-0.3-0.2-0.8-0.4-1.7-0.4h-0.8v7.7
		c0,0.6,0.1,0.9,0.3,1.1c0.2,0.1,0.6,0.2,1.2,0.3v0.3h-4.4v-0.3c0.6,0,1-0.2,1.2-0.3s0.2-0.6,0.2-1.2v-7.5h-0.8
		c-0.8,0-1.4,0.1-1.7,0.4c-0.3,0.2-0.5,0.8-0.7,1.6h-0.4L448.7,377.7z"/>
	<path class="st4" d="M457.7,387.4c0.4-0.1,0.7-0.2,0.8-0.3c0.1-0.1,0.2-0.5,0.2-1v-7c0-0.3,0-0.5-0.1-0.6c-0.1-0.1-0.2-0.2-0.5-0.2
		c-0.1,0-0.1,0-0.2,0c-0.1,0-0.1,0-0.2,0v-0.3c0.2-0.1,0.5-0.1,0.8-0.2c0.3-0.1,0.5-0.2,0.7-0.2l0.7-0.2l0,0.1v4.5
		c0.3-0.4,0.6-0.6,0.8-0.8c0.4-0.3,0.9-0.4,1.4-0.4c0.8,0,1.3,0.3,1.6,1c0.2,0.4,0.2,0.8,0.2,1.4v3c0,0.5,0.1,0.9,0.2,1
		c0.1,0.2,0.4,0.3,0.7,0.3v0.2h-3.2v-0.2c0.4-0.1,0.7-0.2,0.8-0.3c0.1-0.1,0.2-0.5,0.2-1v-3c0-0.5-0.1-0.9-0.2-1.1
		c-0.2-0.3-0.5-0.4-0.9-0.4c-0.4,0-0.7,0.1-1.1,0.4s-0.5,0.5-0.5,0.5v3.6c0,0.5,0.1,0.9,0.2,1s0.4,0.2,0.8,0.3v0.2h-3.2V387.4z"/>
	<path class="st4" d="M470.3,381.5c0.5,0.5,0.8,1.2,0.8,2h-4.7c0,1.1,0.3,2,0.8,2.5c0.5,0.5,1,0.8,1.6,0.8c0.5,0,0.9-0.1,1.3-0.4
		s0.7-0.6,1-1.1l0.3,0.1c-0.2,0.6-0.6,1.2-1.1,1.7c-0.5,0.5-1.2,0.8-2,0.8c-0.9,0-1.6-0.3-2.1-1c-0.5-0.7-0.8-1.5-0.8-2.4
		c0-1,0.3-1.8,0.9-2.5s1.3-1.1,2.3-1.1C469.2,380.8,469.8,381,470.3,381.5z M466.8,382c-0.2,0.3-0.3,0.6-0.3,1h3.1
		c-0.1-0.5-0.1-0.9-0.3-1.1c-0.2-0.4-0.6-0.6-1.2-0.6C467.5,381.3,467.1,381.6,466.8,382z"/>
	<path class="st4" d="M479.3,380.9v0.5h-1.5l0,4.2c0,0.4,0,0.7,0.1,0.8c0.1,0.3,0.3,0.5,0.7,0.5c0.2,0,0.3,0,0.5-0.1
		c0.1-0.1,0.3-0.2,0.4-0.4l0.2,0.2l-0.2,0.2c-0.3,0.3-0.5,0.6-0.8,0.7s-0.6,0.2-0.8,0.2c-0.6,0-1-0.3-1.2-0.8
		c-0.1-0.3-0.2-0.7-0.2-1.2v-4.4h-0.8c0,0,0,0-0.1,0c0,0,0,0,0-0.1c0,0,0-0.1,0-0.1c0,0,0.1-0.1,0.2-0.2c0.3-0.3,0.6-0.5,0.7-0.7
		c0.1-0.2,0.5-0.6,1.1-1.4c0.1,0,0.1,0,0.1,0c0,0,0,0,0,0.1v1.8H479.3z"/>
	<path class="st4" d="M480.9,381.8c0.6-0.7,1.4-1,2.4-1c1,0,1.8,0.3,2.4,1s1,1.5,1,2.5c0,1-0.3,1.8-0.9,2.5s-1.4,1.1-2.4,1.1
		c-0.9,0-1.7-0.3-2.4-1s-1-1.6-1-2.6C480,383.3,480.3,382.5,480.9,381.8z M482.1,381.6c-0.5,0.4-0.7,1.2-0.7,2.3
		c0,0.9,0.2,1.7,0.6,2.4s0.9,1.1,1.6,1.1c0.5,0,1-0.3,1.3-0.8c0.3-0.5,0.4-1.2,0.4-2c0-0.8-0.2-1.6-0.6-2.4
		c-0.4-0.7-0.9-1.1-1.6-1.1C482.7,381.2,482.4,381.3,482.1,381.6z"/>
	<path class="st4" d="M491,380.9v0.5h-1.5l0,4.2c0,0.4,0,0.7,0.1,0.8c0.1,0.3,0.3,0.5,0.7,0.5c0.2,0,0.3,0,0.5-0.1
		c0.1-0.1,0.3-0.2,0.4-0.4l0.2,0.2l-0.2,0.2c-0.3,0.3-0.5,0.6-0.8,0.7s-0.6,0.2-0.8,0.2c-0.6,0-1-0.3-1.2-0.8
		c-0.1-0.3-0.2-0.7-0.2-1.2v-4.4h-0.8c0,0,0,0-0.1,0c0,0,0,0,0-0.1c0,0,0-0.1,0-0.1c0,0,0.1-0.1,0.2-0.2c0.3-0.3,0.6-0.5,0.7-0.7
		c0.1-0.2,0.5-0.6,1.1-1.4c0.1,0,0.1,0,0.1,0c0,0,0,0,0,0.1v1.8H491z"/>
	<path class="st4" d="M492.9,384.4c0.4-0.3,1.3-0.7,2.7-1.2v-0.6c0-0.5,0-0.8-0.1-1c-0.2-0.3-0.5-0.5-1-0.5c-0.2,0-0.5,0.1-0.7,0.2
		c-0.2,0.1-0.3,0.3-0.3,0.5c0,0.1,0,0.2,0,0.3c0,0.1,0,0.2,0,0.3c0,0.3-0.1,0.5-0.3,0.6c-0.1,0.1-0.2,0.1-0.4,0.1
		c-0.2,0-0.4-0.1-0.5-0.2c-0.1-0.1-0.2-0.3-0.2-0.5c0-0.3,0.2-0.7,0.6-1.1c0.4-0.4,1-0.6,1.9-0.6c0.9,0,1.6,0.3,1.9,0.9
		c0.2,0.3,0.3,0.8,0.3,1.5v2.9c0,0.3,0,0.5,0.1,0.6c0.1,0.2,0.2,0.3,0.4,0.3c0.1,0,0.2,0,0.3-0.1s0.2-0.1,0.4-0.2v0.4
		c-0.2,0.2-0.3,0.3-0.5,0.5c-0.3,0.2-0.6,0.3-0.8,0.3c-0.3,0-0.6-0.1-0.7-0.3c-0.1-0.2-0.2-0.5-0.2-0.8c-0.4,0.3-0.7,0.6-1,0.7
		c-0.4,0.3-0.9,0.4-1.3,0.4c-0.4,0-0.8-0.1-1.1-0.4c-0.3-0.3-0.5-0.7-0.5-1.1C491.9,385.5,492.2,384.9,492.9,384.4z M495.6,383.6
		c-0.6,0.2-1,0.4-1.4,0.6c-0.7,0.4-1.1,0.9-1.1,1.5c0,0.4,0.1,0.8,0.4,1c0.2,0.1,0.4,0.2,0.6,0.2c0.3,0,0.6-0.1,0.9-0.3
		c0.3-0.2,0.4-0.4,0.4-0.7V383.6z"/>
	<path class="st4" d="M498.3,387.4c0.5,0,0.8-0.1,0.9-0.3c0.2-0.1,0.2-0.4,0.2-0.8v-7.2c0-0.3,0-0.5-0.1-0.7
		c-0.1-0.2-0.3-0.3-0.6-0.3c-0.1,0-0.1,0-0.2,0c-0.1,0-0.2,0-0.3,0.1v-0.2c0.7-0.2,1.5-0.4,2.4-0.7c0,0,0.1,0,0.1,0c0,0,0,0.1,0,0.2
		v8.8c0,0.4,0.1,0.7,0.2,0.8c0.1,0.1,0.4,0.2,0.9,0.2v0.2h-3.5V387.4z"/>
	<path class="st4" d="M507.5,384.4c0.4-0.3,1.3-0.7,2.7-1.2v-0.6c0-0.5,0-0.8-0.1-1c-0.2-0.3-0.5-0.5-1-0.5c-0.2,0-0.5,0.1-0.7,0.2
		c-0.2,0.1-0.3,0.3-0.3,0.5c0,0.1,0,0.2,0,0.3c0,0.1,0,0.2,0,0.3c0,0.3-0.1,0.5-0.3,0.6c-0.1,0.1-0.2,0.1-0.4,0.1
		c-0.2,0-0.4-0.1-0.5-0.2c-0.1-0.1-0.2-0.3-0.2-0.5c0-0.3,0.2-0.7,0.6-1.1c0.4-0.4,1-0.6,1.9-0.6c0.9,0,1.6,0.3,1.9,0.9
		c0.2,0.3,0.3,0.8,0.3,1.5v2.9c0,0.3,0,0.5,0.1,0.6c0.1,0.2,0.2,0.3,0.4,0.3c0.1,0,0.2,0,0.3-0.1s0.2-0.1,0.4-0.2v0.4
		c-0.2,0.2-0.3,0.3-0.5,0.5c-0.3,0.2-0.6,0.3-0.8,0.3c-0.3,0-0.6-0.1-0.7-0.3c-0.1-0.2-0.2-0.5-0.2-0.8c-0.4,0.3-0.7,0.6-1,0.7
		c-0.4,0.3-0.9,0.4-1.3,0.4c-0.4,0-0.8-0.1-1.1-0.4c-0.3-0.3-0.5-0.7-0.5-1.1C506.4,385.5,506.8,384.9,507.5,384.4z M510.2,383.6
		c-0.6,0.2-1,0.4-1.4,0.6c-0.7,0.4-1.1,0.9-1.1,1.5c0,0.4,0.1,0.8,0.4,1c0.2,0.1,0.4,0.2,0.6,0.2c0.3,0,0.6-0.1,0.9-0.3
		c0.3-0.2,0.4-0.4,0.4-0.7V383.6z"/>
	<path class="st4" d="M512.8,387.5c0.4,0,0.6-0.1,0.8-0.2c0.2-0.1,0.3-0.4,0.3-0.8v-3.8c0-0.4,0-0.6-0.1-0.7
		c-0.1-0.1-0.3-0.2-0.5-0.2c-0.1,0-0.2,0-0.2,0c-0.1,0-0.1,0-0.2,0.1v-0.3l0.5-0.2c0.2-0.1,0.5-0.2,0.9-0.3s0.7-0.2,0.7-0.2s0,0,0,0
		s0,0.1,0,0.1v1c0.5-0.4,0.9-0.7,1.3-0.9c0.4-0.2,0.7-0.3,1.1-0.3c0.5,0,0.9,0.2,1.2,0.5c0.2,0.2,0.3,0.4,0.4,0.8
		c0.4-0.4,0.7-0.6,0.9-0.8c0.5-0.3,0.9-0.5,1.4-0.5c0.8,0,1.3,0.3,1.6,1c0.2,0.4,0.2,0.9,0.2,1.7v3c0,0.3,0.1,0.6,0.2,0.7
		c0.2,0.1,0.4,0.2,0.8,0.2v0.2h-3.3v-0.2c0.4,0,0.7-0.1,0.8-0.3c0.1-0.1,0.2-0.4,0.2-0.8v-3.2c0-0.5-0.1-0.8-0.2-1
		c-0.2-0.4-0.5-0.6-1.1-0.6c-0.3,0-0.6,0.1-0.9,0.3c-0.2,0.1-0.4,0.3-0.7,0.6v3.8c0,0.4,0.1,0.7,0.2,0.9c0.1,0.2,0.4,0.3,0.9,0.3
		v0.2h-3.4v-0.2c0.5-0.1,0.8-0.2,0.9-0.3s0.2-0.6,0.2-1.2v-2c0-0.8,0-1.3-0.1-1.5c-0.2-0.5-0.5-0.7-1-0.7c-0.3,0-0.6,0.1-0.9,0.2
		c-0.3,0.2-0.5,0.4-0.8,0.6v4c0,0.4,0.1,0.6,0.2,0.8c0.1,0.1,0.4,0.2,0.8,0.2v0.2h-3.3V387.5z"/>
	<path class="st4" d="M525.5,381.8c0.6-0.7,1.4-1,2.4-1c1,0,1.8,0.3,2.4,1s1,1.5,1,2.5c0,1-0.3,1.8-0.9,2.5s-1.4,1.1-2.4,1.1
		c-0.9,0-1.7-0.3-2.4-1s-1-1.6-1-2.6C524.6,383.3,524.9,382.5,525.5,381.8z M526.7,381.6c-0.5,0.4-0.7,1.2-0.7,2.3
		c0,0.9,0.2,1.7,0.6,2.4c0.4,0.8,0.9,1.1,1.6,1.1c0.5,0,1-0.3,1.3-0.8c0.3-0.5,0.4-1.2,0.4-2c0-0.8-0.2-1.6-0.6-2.4
		c-0.4-0.7-0.9-1.1-1.6-1.1C527.3,381.2,527,381.3,526.7,381.6z"/>
	<path class="st4" d="M534,380.9v4.7c0,0.3,0,0.6,0.1,0.8c0.2,0.4,0.5,0.6,1,0.6c0.3,0,0.7-0.1,1-0.3c0.2-0.1,0.4-0.3,0.5-0.5v-4
		c0-0.4-0.1-0.6-0.2-0.7s-0.4-0.2-0.9-0.2v-0.2h2.4v5.2c0,0.3,0.1,0.6,0.2,0.7c0.1,0.1,0.4,0.2,0.8,0.2v0.2
		c-0.3,0.1-0.5,0.1-0.6,0.2c-0.1,0-0.3,0.1-0.6,0.2c-0.1,0-0.4,0.1-0.8,0.3c0,0,0,0,0,0c0,0,0,0,0-0.1v-1.2
		c-0.3,0.4-0.6,0.7-0.9,0.9c-0.4,0.3-0.9,0.4-1.3,0.4c-0.4,0-0.8-0.2-1.2-0.5c-0.4-0.3-0.6-0.8-0.6-1.5V382c0-0.4-0.1-0.6-0.2-0.8
		c-0.1-0.1-0.3-0.1-0.7-0.2v-0.2H534z"/>
	<path class="st4" d="M539.5,387.4c0.3,0,0.6-0.1,0.7-0.3c0.1-0.1,0.2-0.4,0.2-0.9v-3.7c0-0.3,0-0.5-0.1-0.7
		c-0.1-0.2-0.3-0.3-0.6-0.3c0,0-0.1,0-0.1,0c0,0-0.1,0-0.2,0v-0.3c0.2-0.1,0.7-0.2,1.4-0.5l0.7-0.2c0,0,0.1,0,0.1,0c0,0,0,0.1,0,0.1
		v1.1c0.4-0.4,0.8-0.7,1.1-0.9c0.4-0.2,0.8-0.4,1.2-0.4c0.3,0,0.6,0.1,0.9,0.3c0.5,0.4,0.8,1,0.8,2v3.4c0,0.4,0.1,0.6,0.2,0.8
		c0.1,0.2,0.4,0.2,0.7,0.2v0.2h-3.1v-0.2c0.4,0,0.6-0.1,0.7-0.3c0.1-0.1,0.2-0.5,0.2-1V383c0-0.4-0.1-0.8-0.2-1
		c-0.2-0.3-0.4-0.4-0.9-0.4c-0.3,0-0.6,0.1-0.9,0.3c-0.2,0.1-0.4,0.3-0.6,0.6v4.1c0,0.4,0.1,0.6,0.2,0.7c0.2,0.1,0.4,0.2,0.7,0.2
		v0.2h-3.2V387.4z"/>
	<path class="st4" d="M550.5,380.9v0.5H549l0,4.2c0,0.4,0,0.7,0.1,0.8c0.1,0.3,0.3,0.5,0.7,0.5c0.2,0,0.3,0,0.5-0.1
		c0.1-0.1,0.3-0.2,0.4-0.4l0.2,0.2l-0.2,0.2c-0.3,0.3-0.5,0.6-0.8,0.7s-0.6,0.2-0.8,0.2c-0.6,0-1-0.3-1.2-0.8
		c-0.1-0.3-0.2-0.7-0.2-1.2v-4.4H547c0,0,0,0-0.1,0c0,0,0,0,0-0.1c0,0,0-0.1,0-0.1c0,0,0.1-0.1,0.2-0.2c0.3-0.3,0.6-0.5,0.7-0.7
		c0.1-0.2,0.5-0.6,1.1-1.4c0.1,0,0.1,0,0.1,0c0,0,0,0,0,0.1v1.8H550.5z"/>
	<path class="st4" d="M555.9,381.8c0.6-0.7,1.4-1,2.4-1c1,0,1.8,0.3,2.4,1s1,1.5,1,2.5c0,1-0.3,1.8-0.9,2.5s-1.4,1.1-2.4,1.1
		c-0.9,0-1.7-0.3-2.4-1s-1-1.6-1-2.6C555,383.3,555.3,382.5,555.9,381.8z M557.1,381.6c-0.5,0.4-0.7,1.2-0.7,2.3
		c0,0.9,0.2,1.7,0.6,2.4s0.9,1.1,1.6,1.1c0.5,0,1-0.3,1.3-0.8c0.3-0.5,0.4-1.2,0.4-2c0-0.8-0.2-1.6-0.6-2.4
		c-0.4-0.7-0.9-1.1-1.6-1.1C557.7,381.2,557.4,381.3,557.1,381.6z"/>
	<path class="st4" d="M562.4,387.4c0.5,0,0.9-0.1,1-0.3c0.2-0.2,0.2-0.5,0.2-1.1v-4.7h-1.3v-0.5h1.3c0-0.8,0.1-1.4,0.3-2
		c0.4-1,1.1-1.5,2.2-1.5c0.4,0,0.8,0.1,1.2,0.3c0.3,0.2,0.5,0.4,0.5,0.7c0,0.2-0.1,0.3-0.2,0.4c-0.1,0.1-0.3,0.2-0.4,0.2
		c-0.1,0-0.3,0-0.4-0.1c-0.1-0.1-0.2-0.2-0.4-0.5l-0.1-0.2c-0.1-0.1-0.1-0.2-0.2-0.3c-0.1-0.1-0.2-0.1-0.4-0.1
		c-0.4,0-0.6,0.2-0.8,0.5c-0.1,0.2-0.1,0.5-0.1,0.8v1.7h1.8v0.5h-1.8v4.7c0,0.6,0.1,0.9,0.2,1.1c0.1,0.2,0.5,0.3,1.2,0.3v0.2h-3.9
		V387.4z"/>
	<path class="st4" d="M570.9,387.4c0.4,0,0.7-0.1,0.9-0.2c0.1-0.1,0.2-0.4,0.2-0.8v-3.3c0-0.5,0-0.8-0.1-1c-0.1-0.2-0.3-0.3-0.5-0.3
		c0,0-0.1,0-0.2,0c-0.1,0-0.2,0-0.3,0v-0.2c0.3-0.1,0.6-0.2,0.9-0.3s0.5-0.2,0.6-0.2c0.2-0.1,0.5-0.2,0.8-0.3c0,0,0.1,0,0.1,0
		c0,0,0,0.1,0,0.2v1.2c0.3-0.4,0.6-0.8,0.9-1s0.6-0.4,0.9-0.4c0.2,0,0.5,0.1,0.6,0.2c0.2,0.1,0.2,0.3,0.2,0.6c0,0.2-0.1,0.4-0.2,0.5
		c-0.1,0.1-0.3,0.2-0.5,0.2c-0.2,0-0.4-0.1-0.6-0.3c-0.2-0.2-0.3-0.3-0.4-0.3c-0.2,0-0.4,0.1-0.6,0.4c-0.2,0.3-0.4,0.6-0.4,0.9v3.3
		c0,0.4,0.1,0.7,0.3,0.9c0.2,0.2,0.5,0.2,1,0.2v0.2h-3.6V387.4z"/>
	<path class="st4" d="M581.1,381.5c0.5,0.5,0.8,1.2,0.8,2h-4.7c0,1.1,0.3,2,0.8,2.5c0.5,0.5,1,0.8,1.6,0.8c0.5,0,0.9-0.1,1.3-0.4
		s0.7-0.6,1-1.1l0.3,0.1c-0.2,0.6-0.6,1.2-1.1,1.7c-0.5,0.5-1.2,0.8-2,0.8c-0.9,0-1.6-0.3-2.1-1c-0.5-0.7-0.8-1.5-0.8-2.4
		c0-1,0.3-1.8,0.9-2.5s1.3-1.1,2.3-1.1C580,380.8,580.6,381,581.1,381.5z M577.6,382c-0.2,0.3-0.3,0.6-0.3,1h3.1
		c-0.1-0.5-0.1-0.9-0.3-1.1c-0.2-0.4-0.6-0.6-1.2-0.6C578.3,381.3,577.9,381.6,577.6,382z"/>
	<path class="st4" d="M582.8,387.4c0.5,0,0.8-0.1,0.9-0.3c0.2-0.1,0.2-0.4,0.2-0.8v-7.2c0-0.3,0-0.5-0.1-0.7
		c-0.1-0.2-0.3-0.3-0.6-0.3c-0.1,0-0.1,0-0.2,0c-0.1,0-0.2,0-0.3,0.1v-0.2c0.7-0.2,1.5-0.4,2.4-0.7c0,0,0.1,0,0.1,0c0,0,0,0.1,0,0.2
		v8.8c0,0.4,0.1,0.7,0.2,0.8c0.1,0.1,0.4,0.2,0.9,0.2v0.2h-3.5V387.4z"/>
	<path class="st4" d="M591.9,381.5c0.5,0.5,0.8,1.2,0.8,2h-4.7c0,1.1,0.3,2,0.8,2.5c0.5,0.5,1,0.8,1.6,0.8c0.5,0,0.9-0.1,1.3-0.4
		s0.7-0.6,1-1.1l0.3,0.1c-0.2,0.6-0.6,1.2-1.1,1.7c-0.5,0.5-1.2,0.8-2,0.8c-0.9,0-1.6-0.3-2.1-1c-0.5-0.7-0.8-1.5-0.8-2.4
		c0-1,0.3-1.8,0.9-2.5s1.3-1.1,2.3-1.1C590.8,380.8,591.4,381,591.9,381.5z M588.4,382c-0.2,0.3-0.3,0.6-0.3,1h3.1
		c-0.1-0.5-0.1-0.9-0.3-1.1c-0.2-0.4-0.6-0.6-1.2-0.6C589.1,381.3,588.7,381.6,588.4,382z"/>
</g>
<g class="st7">
	<path class="st4" d="M594,383.8h3.7v0.9H594V383.8z"/>
</g>
<g class="st7">
	<path class="st4" d="M451.6,398.8v0.2c-0.3,0-0.4,0.1-0.5,0.1c-0.1,0-0.2,0.2-0.2,0.3c0,0.1,0,0.2,0,0.2c0,0.1,0.1,0.2,0.1,0.3
		l1.5,3.7l1.3-3.2c0.1-0.2,0.1-0.3,0.2-0.5c0.1-0.2,0.1-0.3,0.1-0.4c0-0.2-0.1-0.3-0.3-0.4c-0.1,0-0.3-0.1-0.4-0.1v-0.2h2.1v0.2
		c-0.2,0-0.4,0.1-0.5,0.2c-0.1,0.1-0.3,0.5-0.5,1l-2.1,5.3c0,0.1-0.1,0.2-0.1,0.2s-0.1,0.1-0.1,0.1c0,0-0.1,0-0.1-0.1
		c0-0.1-0.1-0.1-0.1-0.2l-2.2-5.4c-0.2-0.4-0.4-0.7-0.6-0.9c-0.1-0.1-0.3-0.1-0.5-0.2v-0.2H451.6z"/>
	<path class="st4" d="M457.5,402.4c0.4-0.3,1.3-0.7,2.7-1.2v-0.6c0-0.5,0-0.8-0.1-1c-0.2-0.3-0.5-0.5-1-0.5c-0.2,0-0.5,0.1-0.7,0.2
		c-0.2,0.1-0.3,0.3-0.3,0.5c0,0.1,0,0.2,0,0.3c0,0.1,0,0.2,0,0.3c0,0.3-0.1,0.5-0.3,0.6c-0.1,0.1-0.2,0.1-0.4,0.1
		c-0.2,0-0.4-0.1-0.5-0.2c-0.1-0.1-0.2-0.3-0.2-0.5c0-0.3,0.2-0.7,0.6-1.1c0.4-0.4,1-0.6,1.9-0.6c0.9,0,1.6,0.3,1.9,0.9
		c0.2,0.3,0.3,0.8,0.3,1.5v2.9c0,0.3,0,0.5,0.1,0.6c0.1,0.2,0.2,0.3,0.4,0.3c0.1,0,0.2,0,0.3-0.1s0.2-0.1,0.4-0.2v0.4
		c-0.2,0.2-0.3,0.3-0.5,0.5c-0.3,0.2-0.6,0.3-0.8,0.3c-0.3,0-0.6-0.1-0.7-0.3c-0.1-0.2-0.2-0.5-0.2-0.8c-0.4,0.3-0.7,0.6-1,0.7
		c-0.4,0.3-0.9,0.4-1.3,0.4c-0.4,0-0.8-0.1-1.1-0.4c-0.3-0.3-0.5-0.7-0.5-1.1C456.4,403.5,456.8,402.9,457.5,402.4z M460.2,401.6
		c-0.6,0.2-1,0.4-1.4,0.6c-0.7,0.4-1.1,0.9-1.1,1.5c0,0.4,0.1,0.8,0.4,1c0.2,0.1,0.4,0.2,0.6,0.2c0.3,0,0.6-0.1,0.9-0.3
		c0.3-0.2,0.4-0.4,0.4-0.7V401.6z"/>
	<path class="st4" d="M462.8,405.4c0.3,0,0.6-0.1,0.7-0.3c0.1-0.1,0.2-0.4,0.2-0.9v-3.7c0-0.3,0-0.5-0.1-0.7
		c-0.1-0.2-0.3-0.3-0.6-0.3c0,0-0.1,0-0.1,0c0,0-0.1,0-0.2,0v-0.3c0.2-0.1,0.7-0.2,1.4-0.5l0.7-0.2c0,0,0.1,0,0.1,0c0,0,0,0.1,0,0.1
		v1.1c0.4-0.4,0.8-0.7,1.1-0.9c0.4-0.2,0.8-0.4,1.2-0.4c0.3,0,0.6,0.1,0.9,0.3c0.5,0.4,0.8,1,0.8,2v3.4c0,0.4,0.1,0.6,0.2,0.8
		c0.1,0.2,0.4,0.2,0.7,0.2v0.2h-3.1v-0.2c0.4,0,0.6-0.1,0.7-0.3c0.1-0.1,0.2-0.5,0.2-1V401c0-0.4-0.1-0.8-0.2-1
		c-0.2-0.3-0.4-0.4-0.9-0.4c-0.3,0-0.6,0.1-0.9,0.3c-0.2,0.1-0.4,0.3-0.6,0.6v4.1c0,0.4,0.1,0.6,0.2,0.7c0.2,0.1,0.4,0.2,0.7,0.2
		v0.2h-3.2V405.4z"/>
	<path class="st4" d="M473.9,398.9v0.5h-1.5l0,4.2c0,0.4,0,0.7,0.1,0.8c0.1,0.3,0.3,0.5,0.7,0.5c0.2,0,0.3,0,0.5-0.1
		c0.1-0.1,0.3-0.2,0.4-0.4l0.2,0.2l-0.2,0.2c-0.3,0.3-0.5,0.6-0.8,0.7s-0.6,0.2-0.8,0.2c-0.6,0-1-0.3-1.2-0.8
		c-0.1-0.3-0.2-0.7-0.2-1.2v-4.4h-0.8c0,0,0,0-0.1,0c0,0,0,0,0-0.1c0,0,0-0.1,0-0.1c0,0,0.1-0.1,0.2-0.2c0.3-0.3,0.6-0.5,0.7-0.7
		c0.1-0.2,0.5-0.6,1.1-1.4c0.1,0,0.1,0,0.1,0c0,0,0,0,0,0.1v1.8H473.9z"/>
	<path class="st4" d="M481.8,398.9v0.5h-1.5l0,4.2c0,0.4,0,0.7,0.1,0.8c0.1,0.3,0.3,0.5,0.7,0.5c0.2,0,0.3,0,0.5-0.1
		c0.1-0.1,0.3-0.2,0.4-0.4l0.2,0.2l-0.2,0.2c-0.3,0.3-0.5,0.6-0.8,0.7s-0.6,0.2-0.8,0.2c-0.6,0-1-0.3-1.2-0.8
		c-0.1-0.3-0.2-0.7-0.2-1.2v-4.4h-0.8c0,0,0,0-0.1,0c0,0,0,0,0-0.1c0,0,0-0.1,0-0.1c0,0,0.1-0.1,0.2-0.2c0.3-0.3,0.6-0.5,0.7-0.7
		c0.1-0.2,0.5-0.6,1.1-1.4c0.1,0,0.1,0,0.1,0c0,0,0,0,0,0.1v1.8H481.8z"/>
	<path class="st4" d="M482.2,405.4c0.4,0,0.7-0.1,0.9-0.2c0.1-0.1,0.2-0.4,0.2-0.8v-3.3c0-0.5,0-0.8-0.1-1c-0.1-0.2-0.3-0.3-0.5-0.3
		c0,0-0.1,0-0.2,0c-0.1,0-0.2,0-0.3,0v-0.2c0.3-0.1,0.6-0.2,0.9-0.3s0.5-0.2,0.6-0.2c0.2-0.1,0.5-0.2,0.8-0.3c0,0,0.1,0,0.1,0
		c0,0,0,0.1,0,0.2v1.2c0.3-0.4,0.6-0.8,0.9-1s0.6-0.4,0.9-0.4c0.2,0,0.5,0.1,0.6,0.2c0.2,0.1,0.2,0.3,0.2,0.6c0,0.2-0.1,0.4-0.2,0.5
		c-0.1,0.1-0.3,0.2-0.5,0.2c-0.2,0-0.4-0.1-0.6-0.3c-0.2-0.2-0.3-0.3-0.4-0.3c-0.2,0-0.4,0.1-0.6,0.4c-0.2,0.3-0.4,0.6-0.4,0.9v3.3
		c0,0.4,0.1,0.7,0.3,0.9c0.2,0.2,0.5,0.2,1,0.2v0.2h-3.6V405.4z"/>
	<path class="st4" d="M488.7,402.4c0.4-0.3,1.3-0.7,2.7-1.2v-0.6c0-0.5,0-0.8-0.1-1c-0.2-0.3-0.5-0.5-1-0.5c-0.2,0-0.5,0.1-0.7,0.2
		c-0.2,0.1-0.3,0.3-0.3,0.5c0,0.1,0,0.2,0,0.3c0,0.1,0,0.2,0,0.3c0,0.3-0.1,0.5-0.3,0.6c-0.1,0.1-0.2,0.1-0.4,0.1
		c-0.2,0-0.4-0.1-0.5-0.2c-0.1-0.1-0.2-0.3-0.2-0.5c0-0.3,0.2-0.7,0.6-1.1c0.4-0.4,1-0.6,1.9-0.6c0.9,0,1.6,0.3,1.9,0.9
		c0.2,0.3,0.3,0.8,0.3,1.5v2.9c0,0.3,0,0.5,0.1,0.6c0.1,0.2,0.2,0.3,0.4,0.3c0.1,0,0.2,0,0.3-0.1s0.2-0.1,0.4-0.2v0.4
		c-0.2,0.2-0.3,0.3-0.5,0.5c-0.3,0.2-0.6,0.3-0.8,0.3c-0.3,0-0.6-0.1-0.7-0.3c-0.1-0.2-0.2-0.5-0.2-0.8c-0.4,0.3-0.7,0.6-1,0.7
		c-0.4,0.3-0.9,0.4-1.3,0.4c-0.4,0-0.8-0.1-1.1-0.4c-0.3-0.3-0.5-0.7-0.5-1.1C487.7,403.5,488,402.9,488.7,402.4z M491.4,401.6
		c-0.6,0.2-1,0.4-1.4,0.6c-0.7,0.4-1.1,0.9-1.1,1.5c0,0.4,0.1,0.8,0.4,1c0.2,0.1,0.4,0.2,0.6,0.2c0.3,0,0.6-0.1,0.9-0.3
		c0.3-0.2,0.4-0.4,0.4-0.7V401.6z"/>
	<path class="st4" d="M494.1,405.4c0.3,0,0.6-0.1,0.7-0.3c0.1-0.1,0.2-0.4,0.2-0.9v-3.7c0-0.3,0-0.5-0.1-0.7
		c-0.1-0.2-0.3-0.3-0.6-0.3c0,0-0.1,0-0.1,0c0,0-0.1,0-0.2,0v-0.3c0.2-0.1,0.7-0.2,1.4-0.5l0.7-0.2c0,0,0.1,0,0.1,0c0,0,0,0.1,0,0.1
		v1.1c0.4-0.4,0.8-0.7,1.1-0.9c0.4-0.2,0.8-0.4,1.2-0.4c0.3,0,0.6,0.1,0.9,0.3c0.5,0.4,0.8,1,0.8,2v3.4c0,0.4,0.1,0.6,0.2,0.8
		c0.1,0.2,0.4,0.2,0.7,0.2v0.2h-3.1v-0.2c0.4,0,0.6-0.1,0.7-0.3c0.1-0.1,0.2-0.5,0.2-1V401c0-0.4-0.1-0.8-0.2-1
		c-0.2-0.3-0.4-0.4-0.9-0.4c-0.3,0-0.6,0.1-0.9,0.3c-0.2,0.1-0.4,0.3-0.6,0.6v4.1c0,0.4,0.1,0.6,0.2,0.7c0.2,0.1,0.4,0.2,0.7,0.2
		v0.2h-3.2V405.4z"/>
	<path class="st4" d="M502.1,403.3h0.2c0.1,0.6,0.3,1,0.5,1.3c0.3,0.5,0.8,0.8,1.5,0.8c0.4,0,0.7-0.1,0.9-0.3
		c0.2-0.2,0.3-0.5,0.3-0.8c0-0.2-0.1-0.4-0.2-0.6s-0.3-0.4-0.6-0.6l-0.8-0.5c-0.6-0.3-1-0.6-1.3-1s-0.4-0.7-0.4-1.2
		c0-0.5,0.2-1,0.6-1.3s0.9-0.5,1.5-0.5c0.3,0,0.5,0,0.9,0.1c0.3,0.1,0.5,0.1,0.5,0.1c0.1,0,0.2,0,0.2,0s0.1-0.1,0.1-0.1h0.2l0.1,2
		h-0.2c-0.1-0.5-0.2-0.8-0.4-1.1c-0.3-0.5-0.7-0.7-1.3-0.7c-0.3,0-0.6,0.1-0.8,0.3s-0.3,0.5-0.3,0.7c0,0.4,0.3,0.8,1,1.2l1,0.5
		c1,0.6,1.6,1.2,1.6,2c0,0.6-0.2,1-0.6,1.4c-0.4,0.4-1,0.5-1.7,0.5c-0.3,0-0.6,0-1-0.1c-0.4-0.1-0.6-0.1-0.7-0.1
		c-0.1,0-0.1,0-0.2,0.1c0,0-0.1,0.1-0.1,0.2h-0.2V403.3z"/>
	<path class="st4" d="M508.7,402.4c0.4-0.3,1.3-0.7,2.7-1.2v-0.6c0-0.5,0-0.8-0.1-1c-0.2-0.3-0.5-0.5-1-0.5c-0.2,0-0.5,0.1-0.7,0.2
		c-0.2,0.1-0.3,0.3-0.3,0.5c0,0.1,0,0.2,0,0.3c0,0.1,0,0.2,0,0.3c0,0.3-0.1,0.5-0.3,0.6c-0.1,0.1-0.2,0.1-0.4,0.1
		c-0.2,0-0.4-0.1-0.5-0.2c-0.1-0.1-0.2-0.3-0.2-0.5c0-0.3,0.2-0.7,0.6-1.1c0.4-0.4,1-0.6,1.9-0.6c0.9,0,1.6,0.3,1.9,0.9
		c0.2,0.3,0.3,0.8,0.3,1.5v2.9c0,0.3,0,0.5,0.1,0.6c0.1,0.2,0.2,0.3,0.4,0.3c0.1,0,0.2,0,0.3-0.1s0.2-0.1,0.4-0.2v0.4
		c-0.2,0.2-0.3,0.3-0.5,0.5c-0.3,0.2-0.6,0.3-0.8,0.3c-0.3,0-0.6-0.1-0.7-0.3c-0.1-0.2-0.2-0.5-0.2-0.8c-0.4,0.3-0.7,0.6-1,0.7
		c-0.4,0.3-0.9,0.4-1.3,0.4c-0.4,0-0.8-0.1-1.1-0.4c-0.3-0.3-0.5-0.7-0.5-1.1C507.7,403.5,508,402.9,508.7,402.4z M511.4,401.6
		c-0.6,0.2-1,0.4-1.4,0.6c-0.7,0.4-1.1,0.9-1.1,1.5c0,0.4,0.1,0.8,0.4,1c0.2,0.1,0.4,0.2,0.6,0.2c0.3,0,0.6-0.1,0.9-0.3
		c0.3-0.2,0.4-0.4,0.4-0.7V401.6z"/>
	<path class="st4" d="M519.1,399.2c0.4,0.3,0.7,0.7,0.7,1c0,0.2-0.1,0.3-0.2,0.4s-0.3,0.2-0.5,0.2c-0.2,0-0.3-0.1-0.5-0.2
		c-0.1-0.1-0.2-0.3-0.3-0.5l-0.1-0.4c-0.1-0.3-0.2-0.4-0.3-0.5c-0.2-0.1-0.4-0.2-0.6-0.2c-0.6,0-1,0.2-1.4,0.7
		c-0.4,0.5-0.6,1.1-0.6,1.9c0,0.7,0.2,1.4,0.6,2c0.4,0.6,1,0.9,1.7,0.9c0.5,0,1-0.2,1.4-0.5c0.2-0.2,0.5-0.5,0.8-0.9l0.2,0.1
		c-0.3,0.6-0.6,1.1-0.9,1.4c-0.6,0.7-1.3,1-2.1,1c-0.8,0-1.4-0.3-2-0.9s-0.9-1.4-0.9-2.4c0-1,0.3-1.9,1-2.6s1.4-1.1,2.4-1.1
		C518.1,398.7,518.7,398.9,519.1,399.2z"/>
	<path class="st4" d="M524.3,398.9v0.5h-1.5l0,4.2c0,0.4,0,0.7,0.1,0.8c0.1,0.3,0.3,0.5,0.7,0.5c0.2,0,0.3,0,0.5-0.1
		c0.1-0.1,0.3-0.2,0.4-0.4l0.2,0.2l-0.2,0.2c-0.3,0.3-0.5,0.6-0.8,0.7s-0.6,0.2-0.8,0.2c-0.6,0-1-0.3-1.2-0.8
		c-0.1-0.3-0.2-0.7-0.2-1.2v-4.4h-0.8c0,0,0,0-0.1,0c0,0,0,0,0-0.1c0,0,0-0.1,0-0.1c0,0,0.1-0.1,0.2-0.2c0.3-0.3,0.6-0.5,0.7-0.7
		c0.1-0.2,0.5-0.6,1.1-1.4c0.1,0,0.1,0,0.1,0c0,0,0,0,0,0.1v1.8H524.3z"/>
	<path class="st4" d="M524.9,405.4c0.5,0,0.9-0.1,1-0.3c0.1-0.1,0.2-0.5,0.2-1.1v-3.5c0-0.3,0-0.5-0.1-0.7c-0.1-0.2-0.2-0.3-0.5-0.3
		c-0.1,0-0.1,0-0.2,0c-0.1,0-0.2,0-0.4,0.1v-0.2l0.3-0.1c0.9-0.3,1.5-0.5,1.8-0.6c0.1-0.1,0.2-0.1,0.3-0.1c0,0,0,0.1,0,0.1v5.3
		c0,0.6,0.1,0.9,0.2,1c0.1,0.1,0.4,0.2,0.9,0.3v0.2h-3.6V405.4z M526.1,395.6c0.1-0.2,0.3-0.2,0.5-0.2c0.2,0,0.4,0.1,0.5,0.2
		c0.1,0.1,0.2,0.3,0.2,0.5c0,0.2-0.1,0.4-0.2,0.5c-0.1,0.1-0.3,0.2-0.5,0.2c-0.2,0-0.4-0.1-0.5-0.2c-0.1-0.1-0.2-0.3-0.2-0.5
		S525.9,395.8,526.1,395.6z"/>
	<path class="st4" d="M530.1,399.8c0.6-0.7,1.4-1,2.4-1c1,0,1.8,0.3,2.4,1s1,1.5,1,2.5c0,1-0.3,1.8-0.9,2.5s-1.4,1.1-2.4,1.1
		c-0.9,0-1.7-0.3-2.4-1s-1-1.6-1-2.6C529.2,401.3,529.5,400.5,530.1,399.8z M531.3,399.6c-0.5,0.4-0.7,1.2-0.7,2.3
		c0,0.9,0.2,1.7,0.6,2.4s0.9,1.1,1.6,1.1c0.5,0,1-0.3,1.3-0.8c0.3-0.5,0.4-1.2,0.4-2c0-0.8-0.2-1.6-0.6-2.4
		c-0.4-0.7-0.9-1.1-1.6-1.1C531.9,399.2,531.5,399.3,531.3,399.6z"/>
	<path class="st4" d="M536.6,405.4c0.3,0,0.6-0.1,0.7-0.3c0.1-0.1,0.2-0.4,0.2-0.9v-3.7c0-0.3,0-0.5-0.1-0.7
		c-0.1-0.2-0.3-0.3-0.6-0.3c0,0-0.1,0-0.1,0c0,0-0.1,0-0.2,0v-0.3c0.2-0.1,0.7-0.2,1.4-0.5l0.7-0.2c0,0,0.1,0,0.1,0c0,0,0,0.1,0,0.1
		v1.1c0.4-0.4,0.8-0.7,1.1-0.9c0.4-0.2,0.8-0.4,1.2-0.4c0.3,0,0.6,0.1,0.9,0.3c0.5,0.4,0.8,1,0.8,2v3.4c0,0.4,0.1,0.6,0.2,0.8
		c0.1,0.2,0.4,0.2,0.7,0.2v0.2h-3.1v-0.2c0.4,0,0.6-0.1,0.7-0.3c0.1-0.1,0.2-0.5,0.2-1V401c0-0.4-0.1-0.8-0.2-1
		c-0.2-0.3-0.4-0.4-0.9-0.4c-0.3,0-0.6,0.1-0.9,0.3c-0.2,0.1-0.4,0.3-0.6,0.6v4.1c0,0.4,0.1,0.6,0.2,0.7c0.2,0.1,0.4,0.2,0.7,0.2
		v0.2h-3.2V405.4z"/>
	<path class="st4" d="M544.6,403.3h0.2c0.1,0.6,0.3,1,0.5,1.3c0.3,0.5,0.8,0.8,1.5,0.8c0.4,0,0.7-0.1,0.9-0.3
		c0.2-0.2,0.3-0.5,0.3-0.8c0-0.2-0.1-0.4-0.2-0.6s-0.3-0.4-0.6-0.6l-0.8-0.5c-0.6-0.3-1-0.6-1.3-1c-0.3-0.3-0.4-0.7-0.4-1.2
		c0-0.5,0.2-1,0.6-1.3s0.9-0.5,1.5-0.5c0.3,0,0.5,0,0.9,0.1c0.3,0.1,0.5,0.1,0.5,0.1c0.1,0,0.2,0,0.2,0s0.1-0.1,0.1-0.1h0.2l0.1,2
		h-0.2c-0.1-0.5-0.2-0.8-0.4-1.1c-0.3-0.5-0.7-0.7-1.3-0.7c-0.3,0-0.6,0.1-0.8,0.3s-0.3,0.5-0.3,0.7c0,0.4,0.3,0.8,1,1.2l1,0.5
		c1,0.6,1.6,1.2,1.6,2c0,0.6-0.2,1-0.6,1.4s-1,0.5-1.7,0.5c-0.3,0-0.6,0-1-0.1c-0.4-0.1-0.6-0.1-0.7-0.1c-0.1,0-0.1,0-0.2,0.1
		c0,0-0.1,0.1-0.1,0.2h-0.2V403.3z"/>
	<path class="st4" d="M558.7,399.2c0.4,0.3,0.7,0.7,0.7,1c0,0.2-0.1,0.3-0.2,0.4s-0.3,0.2-0.5,0.2c-0.2,0-0.3-0.1-0.5-0.2
		c-0.1-0.1-0.2-0.3-0.3-0.5l-0.1-0.4c-0.1-0.3-0.2-0.4-0.3-0.5c-0.2-0.1-0.4-0.2-0.6-0.2c-0.6,0-1,0.2-1.4,0.7
		c-0.4,0.5-0.6,1.1-0.6,1.9c0,0.7,0.2,1.4,0.6,2c0.4,0.6,1,0.9,1.7,0.9c0.5,0,1-0.2,1.4-0.5c0.2-0.2,0.5-0.5,0.8-0.9l0.2,0.1
		c-0.3,0.6-0.6,1.1-0.9,1.4c-0.6,0.7-1.3,1-2.1,1c-0.8,0-1.4-0.3-2-0.9s-0.9-1.4-0.9-2.4c0-1,0.3-1.9,1-2.6s1.4-1.1,2.4-1.1
		C557.7,398.7,558.2,398.9,558.7,399.2z"/>
	<path class="st4" d="M561.3,399.8c0.6-0.7,1.4-1,2.4-1c1,0,1.8,0.3,2.4,1s1,1.5,1,2.5c0,1-0.3,1.8-0.9,2.5s-1.4,1.1-2.4,1.1
		c-0.9,0-1.7-0.3-2.4-1s-1-1.6-1-2.6C560.4,401.3,560.7,400.5,561.3,399.8z M562.5,399.6c-0.5,0.4-0.7,1.2-0.7,2.3
		c0,0.9,0.2,1.7,0.6,2.4s0.9,1.1,1.6,1.1c0.5,0,1-0.3,1.3-0.8c0.3-0.5,0.4-1.2,0.4-2c0-0.8-0.2-1.6-0.6-2.4
		c-0.4-0.7-0.9-1.1-1.6-1.1C563.1,399.2,562.8,399.3,562.5,399.6z"/>
	<path class="st4" d="M567.8,405.4c0.3,0,0.6-0.1,0.7-0.3c0.1-0.1,0.2-0.4,0.2-0.9v-3.7c0-0.3,0-0.5-0.1-0.7
		c-0.1-0.2-0.3-0.3-0.6-0.3c0,0-0.1,0-0.1,0c0,0-0.1,0-0.2,0v-0.3c0.2-0.1,0.7-0.2,1.4-0.5l0.7-0.2c0,0,0.1,0,0.1,0c0,0,0,0.1,0,0.1
		v1.1c0.4-0.4,0.8-0.7,1.1-0.9c0.4-0.2,0.8-0.4,1.2-0.4c0.3,0,0.6,0.1,0.9,0.3c0.5,0.4,0.8,1,0.8,2v3.4c0,0.4,0.1,0.6,0.2,0.8
		c0.1,0.2,0.4,0.2,0.7,0.2v0.2h-3.1v-0.2c0.4,0,0.6-0.1,0.7-0.3c0.1-0.1,0.2-0.5,0.2-1V401c0-0.4-0.1-0.8-0.2-1
		c-0.2-0.3-0.4-0.4-0.9-0.4c-0.3,0-0.6,0.1-0.9,0.3c-0.2,0.1-0.4,0.3-0.6,0.6v4.1c0,0.4,0.1,0.6,0.2,0.7c0.2,0.1,0.4,0.2,0.7,0.2
		v0.2h-3.2V405.4z"/>
	<path class="st4" d="M578.8,398.9v0.5h-1.5l0,4.2c0,0.4,0,0.7,0.1,0.8c0.1,0.3,0.3,0.5,0.7,0.5c0.2,0,0.3,0,0.5-0.1
		c0.1-0.1,0.3-0.2,0.4-0.4l0.2,0.2l-0.2,0.2c-0.3,0.3-0.5,0.6-0.8,0.7s-0.6,0.2-0.8,0.2c-0.6,0-1-0.3-1.2-0.8
		c-0.1-0.3-0.2-0.7-0.2-1.2v-4.4h-0.8c0,0,0,0-0.1,0c0,0,0,0,0-0.1c0,0,0-0.1,0-0.1c0,0,0.1-0.1,0.2-0.2c0.3-0.3,0.6-0.5,0.7-0.7
		c0.1-0.2,0.5-0.6,1.1-1.4c0.1,0,0.1,0,0.1,0c0,0,0,0,0,0.1v1.8H578.8z"/>
	<path class="st4" d="M580.8,402.4c0.4-0.3,1.3-0.7,2.7-1.2v-0.6c0-0.5,0-0.8-0.1-1c-0.2-0.3-0.5-0.5-1-0.5c-0.2,0-0.5,0.1-0.7,0.2
		c-0.2,0.1-0.3,0.3-0.3,0.5c0,0.1,0,0.2,0,0.3c0,0.1,0,0.2,0,0.3c0,0.3-0.1,0.5-0.3,0.6c-0.1,0.1-0.2,0.1-0.4,0.1
		c-0.2,0-0.4-0.1-0.5-0.2c-0.1-0.1-0.2-0.3-0.2-0.5c0-0.3,0.2-0.7,0.6-1.1c0.4-0.4,1-0.6,1.9-0.6c0.9,0,1.6,0.3,1.9,0.9
		c0.2,0.3,0.3,0.8,0.3,1.5v2.9c0,0.3,0,0.5,0.1,0.6c0.1,0.2,0.2,0.3,0.4,0.3c0.1,0,0.2,0,0.3-0.1s0.2-0.1,0.4-0.2v0.4
		c-0.2,0.2-0.3,0.3-0.5,0.5c-0.3,0.2-0.6,0.3-0.8,0.3c-0.3,0-0.6-0.1-0.7-0.3c-0.1-0.2-0.2-0.5-0.2-0.8c-0.4,0.3-0.7,0.6-1,0.7
		c-0.4,0.3-0.9,0.4-1.3,0.4c-0.4,0-0.8-0.1-1.1-0.4c-0.3-0.3-0.5-0.7-0.5-1.1C579.7,403.5,580.1,402.9,580.8,402.4z M583.5,401.6
		c-0.6,0.2-1,0.4-1.4,0.6c-0.7,0.4-1.1,0.9-1.1,1.5c0,0.4,0.1,0.8,0.4,1c0.2,0.1,0.4,0.2,0.6,0.2c0.3,0,0.6-0.1,0.9-0.3
		c0.3-0.2,0.4-0.4,0.4-0.7V401.6z"/>
	<path class="st4" d="M586.1,405.4c0.5,0,0.9-0.1,1-0.3c0.1-0.1,0.2-0.5,0.2-1.1v-3.5c0-0.3,0-0.5-0.1-0.7c-0.1-0.2-0.2-0.3-0.5-0.3
		c-0.1,0-0.1,0-0.2,0c-0.1,0-0.2,0-0.4,0.1v-0.2l0.3-0.1c0.9-0.3,1.5-0.5,1.8-0.6c0.1-0.1,0.2-0.1,0.3-0.1c0,0,0,0.1,0,0.1v5.3
		c0,0.6,0.1,0.9,0.2,1c0.1,0.1,0.4,0.2,0.9,0.3v0.2h-3.6V405.4z M587.3,395.6c0.1-0.2,0.3-0.2,0.5-0.2c0.2,0,0.4,0.1,0.5,0.2
		c0.1,0.1,0.2,0.3,0.2,0.5c0,0.2-0.1,0.4-0.2,0.5c-0.1,0.1-0.3,0.2-0.5,0.2c-0.2,0-0.4-0.1-0.5-0.2c-0.1-0.1-0.2-0.3-0.2-0.5
		S587.2,395.8,587.3,395.6z"/>
	<path class="st4" d="M590.3,405.4c0.3,0,0.6-0.1,0.7-0.3c0.1-0.1,0.2-0.4,0.2-0.9v-3.7c0-0.3,0-0.5-0.1-0.7
		c-0.1-0.2-0.3-0.3-0.6-0.3c0,0-0.1,0-0.1,0c0,0-0.1,0-0.2,0v-0.3c0.2-0.1,0.7-0.2,1.4-0.5l0.7-0.2c0,0,0.1,0,0.1,0c0,0,0,0.1,0,0.1
		v1.1c0.4-0.4,0.8-0.7,1.1-0.9c0.4-0.2,0.8-0.4,1.2-0.4c0.3,0,0.6,0.1,0.9,0.3c0.5,0.4,0.8,1,0.8,2v3.4c0,0.4,0.1,0.6,0.2,0.8
		c0.1,0.2,0.4,0.2,0.7,0.2v0.2h-3.1v-0.2c0.4,0,0.6-0.1,0.7-0.3c0.1-0.1,0.2-0.5,0.2-1V401c0-0.4-0.1-0.8-0.2-1
		c-0.2-0.3-0.4-0.4-0.9-0.4c-0.3,0-0.6,0.1-0.9,0.3c-0.2,0.1-0.4,0.3-0.6,0.6v4.1c0,0.4,0.1,0.6,0.2,0.7c0.2,0.1,0.4,0.2,0.7,0.2
		v0.2h-3.2V405.4z"/>
</g>
<g class="st7">
	<path class="st4" d="M598.1,401.8h3.7v0.9h-3.7V401.8z"/>
</g>
<g class="st7">
	<path class="st4" d="M448.7,423.4c0.5,0,0.9-0.1,1-0.3c0.1-0.1,0.2-0.5,0.2-1.1v-3.5c0-0.3,0-0.5-0.1-0.7c-0.1-0.2-0.2-0.3-0.5-0.3
		c-0.1,0-0.1,0-0.2,0c-0.1,0-0.2,0-0.4,0.1v-0.2l0.3-0.1c0.9-0.3,1.5-0.5,1.8-0.6c0.1-0.1,0.2-0.1,0.3-0.1c0,0,0,0.1,0,0.1v5.3
		c0,0.6,0.1,0.9,0.2,1c0.1,0.1,0.4,0.2,0.9,0.3v0.2h-3.6V423.4z M449.9,413.6c0.1-0.2,0.3-0.2,0.5-0.2c0.2,0,0.4,0.1,0.5,0.2
		c0.1,0.1,0.2,0.3,0.2,0.5c0,0.2-0.1,0.4-0.2,0.5c-0.1,0.1-0.3,0.2-0.5,0.2c-0.2,0-0.4-0.1-0.5-0.2c-0.1-0.1-0.2-0.3-0.2-0.5
		S449.7,413.8,449.9,413.6z"/>
	<path class="st4" d="M452.8,423.4c0.3,0,0.6-0.1,0.7-0.3c0.1-0.1,0.2-0.4,0.2-0.9v-3.7c0-0.3,0-0.5-0.1-0.7
		c-0.1-0.2-0.3-0.3-0.6-0.3c0,0-0.1,0-0.1,0c0,0-0.1,0-0.2,0v-0.3c0.2-0.1,0.7-0.2,1.4-0.5l0.7-0.2c0,0,0.1,0,0.1,0c0,0,0,0.1,0,0.1
		v1.1c0.4-0.4,0.8-0.7,1.1-0.9c0.4-0.2,0.8-0.4,1.2-0.4c0.3,0,0.6,0.1,0.9,0.3c0.5,0.4,0.8,1,0.8,2v3.4c0,0.4,0.1,0.6,0.2,0.8
		c0.1,0.2,0.4,0.2,0.7,0.2v0.2h-3.1v-0.2c0.4,0,0.6-0.1,0.7-0.3c0.1-0.1,0.2-0.5,0.2-1V419c0-0.4-0.1-0.8-0.2-1
		c-0.2-0.3-0.4-0.4-0.9-0.4c-0.3,0-0.6,0.1-0.9,0.3c-0.2,0.1-0.4,0.3-0.6,0.6v4.1c0,0.4,0.1,0.6,0.2,0.7c0.2,0.1,0.4,0.2,0.7,0.2
		v0.2h-3.2V423.4z"/>
	<path class="st4" d="M461.5,420.4c-0.2-0.4-0.4-0.8-0.4-1.3c0-0.6,0.2-1.1,0.7-1.6s1.1-0.8,1.9-0.8c0.4,0,0.7,0.1,1.2,0.3
		c0.4,0.2,0.8,0.3,1.2,0.3c0.1,0,0.3,0,0.5,0c0.2,0,0.4,0,0.5,0h0.1v0.6h-1.3c0.1,0.2,0.2,0.4,0.2,0.5c0.1,0.3,0.1,0.6,0.1,0.8
		c0,0.6-0.2,1.1-0.7,1.5c-0.5,0.5-1.1,0.7-1.9,0.7c-0.1,0-0.3,0-0.7-0.1c-0.1,0-0.3,0.1-0.6,0.4s-0.4,0.4-0.4,0.6
		c0,0.2,0.2,0.3,0.5,0.3c0.2,0,0.5,0.1,0.7,0.1c1.3,0,2.1,0.1,2.6,0.2c0.7,0.2,1.1,0.7,1.1,1.5c0,0.8-0.4,1.4-1.3,1.8
		c-0.9,0.5-1.7,0.7-2.6,0.7c-0.8,0-1.4-0.2-1.9-0.5c-0.5-0.3-0.7-0.7-0.7-1c0-0.2,0.1-0.3,0.2-0.5c0.1-0.2,0.4-0.4,0.7-0.8l0.5-0.4
		l0.1-0.1c-0.2-0.1-0.4-0.2-0.5-0.3c-0.2-0.2-0.3-0.3-0.3-0.5c0-0.2,0.1-0.4,0.3-0.6c0.2-0.2,0.5-0.6,1.1-1.1
		C462,421,461.7,420.8,461.5,420.4z M462.2,425.9c0.5,0.2,1,0.2,1.6,0.2c0.8,0,1.5-0.1,2-0.4c0.5-0.3,0.8-0.6,0.8-1
		c0-0.3-0.2-0.5-0.6-0.7c-0.3-0.1-0.7-0.1-1.4-0.1c-0.2,0-0.4,0-0.6,0c-0.2,0-0.4,0-0.5,0c-0.1,0-0.3,0-0.5-0.1
		c-0.2,0-0.4-0.1-0.5-0.1c-0.1,0-0.2,0.2-0.4,0.5c-0.2,0.3-0.3,0.6-0.3,0.9C461.5,425.4,461.8,425.7,462.2,425.9z M464.6,420.8
		c0.3-0.2,0.4-0.6,0.4-1.2c0-0.5-0.1-1-0.4-1.6c-0.2-0.6-0.6-0.9-1.2-0.9c-0.5,0-0.8,0.2-1,0.7c-0.1,0.2-0.1,0.5-0.1,0.9
		c0,0.6,0.1,1.1,0.4,1.6c0.3,0.5,0.7,0.7,1.1,0.7C464.1,421,464.4,421,464.6,420.8z"/>
	<path class="st4" d="M475.1,416.9v0.5h-1.5l0,4.2c0,0.4,0,0.7,0.1,0.8c0.1,0.3,0.3,0.5,0.7,0.5c0.2,0,0.3,0,0.5-0.1
		c0.1-0.1,0.3-0.2,0.4-0.4l0.2,0.2l-0.2,0.2c-0.3,0.3-0.5,0.6-0.8,0.7s-0.6,0.2-0.8,0.2c-0.6,0-1-0.3-1.2-0.8
		c-0.1-0.3-0.2-0.7-0.2-1.2v-4.4h-0.8c0,0,0,0-0.1,0c0,0,0,0,0-0.1c0,0,0-0.1,0-0.1c0,0,0.1-0.1,0.2-0.2c0.3-0.3,0.6-0.5,0.7-0.7
		c0.1-0.2,0.5-0.6,1.1-1.4c0.1,0,0.1,0,0.1,0c0,0,0,0,0,0.1v1.8H475.1z"/>
	<path class="st4" d="M475.6,423.4c0.4-0.1,0.7-0.2,0.8-0.3c0.1-0.1,0.2-0.5,0.2-1v-7c0-0.3,0-0.5-0.1-0.6c-0.1-0.1-0.2-0.2-0.5-0.2
		c-0.1,0-0.1,0-0.2,0c-0.1,0-0.1,0-0.2,0v-0.3c0.2-0.1,0.5-0.1,0.8-0.2c0.3-0.1,0.5-0.2,0.7-0.2l0.7-0.2l0,0.1v4.5
		c0.3-0.4,0.6-0.6,0.8-0.8c0.4-0.3,0.9-0.4,1.4-0.4c0.8,0,1.3,0.3,1.6,1c0.2,0.4,0.2,0.8,0.2,1.4v3c0,0.5,0.1,0.9,0.2,1
		c0.1,0.2,0.4,0.3,0.7,0.3v0.2h-3.2v-0.2c0.4-0.1,0.7-0.2,0.8-0.3c0.1-0.1,0.2-0.5,0.2-1v-3c0-0.5-0.1-0.9-0.2-1.1
		c-0.2-0.3-0.5-0.4-0.9-0.4c-0.4,0-0.8,0.1-1.1,0.4s-0.5,0.5-0.5,0.5v3.6c0,0.5,0.1,0.9,0.2,1s0.4,0.2,0.8,0.3v0.2h-3.2V423.4z"/>
	<path class="st4" d="M488.2,417.5c0.5,0.5,0.8,1.2,0.8,2h-4.7c0,1.1,0.3,2,0.8,2.5c0.5,0.5,1,0.8,1.6,0.8c0.5,0,0.9-0.1,1.3-0.4
		s0.7-0.6,1-1.1l0.3,0.1c-0.2,0.6-0.6,1.2-1.1,1.7c-0.5,0.5-1.2,0.8-2,0.8c-0.9,0-1.6-0.3-2.1-1c-0.5-0.7-0.8-1.5-0.8-2.4
		c0-1,0.3-1.8,0.9-2.5s1.3-1.1,2.3-1.1C487.1,416.8,487.7,417,488.2,417.5z M484.7,418c-0.2,0.3-0.3,0.6-0.3,1h3.1
		c-0.1-0.5-0.1-0.9-0.3-1.1c-0.2-0.4-0.6-0.6-1.2-0.6C485.4,417.3,485,417.6,484.7,418z"/>
	<path class="st4" d="M493.4,423.5c0.5,0,0.8-0.1,0.9-0.2c0.1-0.1,0.2-0.4,0.2-0.8v-7.4c0-0.3-0.1-0.6-0.2-0.7s-0.3-0.1-0.5-0.1
		c-0.1,0-0.2,0-0.2,0s-0.1,0-0.2,0v-0.2l0.7-0.2c0.5-0.1,0.9-0.3,1.3-0.4c0.2-0.1,0.3-0.1,0.4-0.1c0,0,0,0,0.1,0c0,0,0,0,0,0.1v6.2
		l2-1.8c0.1-0.1,0.2-0.2,0.3-0.3c0.1-0.1,0.1-0.1,0.1-0.2c0-0.1-0.1-0.2-0.2-0.2c-0.1,0-0.3-0.1-0.6-0.1v-0.2h3.1v0.2
		c-0.5,0-1,0.1-1.3,0.3c-0.3,0.2-1,0.7-1.9,1.6l-0.4,0.4l1.3,1.8c0.7,0.9,1.2,1.5,1.6,1.8c0.4,0.3,0.7,0.5,1.1,0.5v0.2h-3.3v-0.2
		l0.3,0c0.1,0,0.2,0,0.2-0.1s0.1-0.1,0.1-0.2c0-0.1,0-0.1,0-0.2c0,0-0.1-0.1-0.1-0.2l-2.3-3v2.7c0,0.3,0.1,0.6,0.4,0.7
		c0.1,0.1,0.4,0.1,0.8,0.1v0.2h-3.5V423.5z"/>
	<path class="st4" d="M506.1,417.5c0.5,0.5,0.8,1.2,0.8,2h-4.7c0,1.1,0.3,2,0.8,2.5c0.5,0.5,1,0.8,1.6,0.8c0.5,0,0.9-0.1,1.3-0.4
		s0.7-0.6,1-1.1l0.3,0.1c-0.2,0.6-0.6,1.2-1.1,1.7c-0.5,0.5-1.2,0.8-2,0.8c-0.9,0-1.6-0.3-2.1-1c-0.5-0.7-0.8-1.5-0.8-2.4
		c0-1,0.3-1.8,0.9-2.5s1.3-1.1,2.3-1.1C505,416.8,505.6,417,506.1,417.5z M502.6,418c-0.2,0.3-0.3,0.6-0.3,1h3.1
		c-0.1-0.5-0.1-0.9-0.3-1.1c-0.2-0.4-0.6-0.6-1.2-0.6C503.3,417.3,502.9,417.6,502.6,418z"/>
	<path class="st4" d="M507.8,416.9h3.1v0.2c-0.2,0-0.4,0-0.5,0.1c-0.2,0.1-0.3,0.2-0.3,0.4c0,0.1,0,0.1,0,0.2c0,0.1,0.1,0.2,0.1,0.3
		l1.7,3.7l1.4-3.7c0,0,0-0.1,0.1-0.3c0-0.1,0-0.2,0-0.3c0-0.1,0-0.2-0.1-0.3c-0.1-0.1-0.2-0.1-0.3-0.1l-0.2,0v-0.2h2v0.2
		c-0.2,0-0.4,0.1-0.5,0.2c-0.1,0.1-0.2,0.3-0.3,0.5l-2.3,6.1c-0.4,1.1-0.8,1.8-1.1,2.3s-0.8,0.7-1.4,0.7c-0.3,0-0.5-0.1-0.8-0.2
		s-0.4-0.4-0.4-0.7c0-0.2,0.1-0.4,0.2-0.5c0.1-0.1,0.3-0.2,0.5-0.2c0.1,0,0.3,0,0.6,0.1c0.2,0.1,0.4,0.1,0.5,0.1
		c0.3,0,0.6-0.3,0.9-1s0.4-1.1,0.4-1.3c0,0,0-0.1,0-0.2c0-0.1,0-0.1,0-0.2l-2.3-5c-0.2-0.4-0.3-0.6-0.4-0.7
		c-0.1-0.1-0.3-0.2-0.6-0.2V416.9z"/>
	<path class="st4" d="M522,417c-0.3,0-0.5,0.1-0.7,0.1c-0.1,0.1-0.2,0.2-0.2,0.4c0,0.1,0,0.2,0,0.3c0,0.1,0.1,0.2,0.1,0.4l1.3,3.5
		l1.3-3.2c0.1-0.1,0.1-0.3,0.2-0.5c0.1-0.2,0.1-0.4,0.1-0.5c0-0.2-0.1-0.3-0.2-0.4s-0.3-0.1-0.5-0.1v-0.2h1.9v0.2
		c-0.1,0-0.2,0.1-0.3,0.2c-0.1,0.1-0.2,0.3-0.3,0.7l-2.3,5.8c0,0,0,0.1-0.1,0.1s0,0-0.1,0c-0.1,0-0.1-0.1-0.1-0.1l-1.8-4.4l-1.8,4.4
		c0,0,0,0,0,0.1c0,0,0,0-0.1,0c-0.1,0-0.1-0.1-0.1-0.1l-2.2-5.4c-0.2-0.6-0.4-1-0.5-1.1c-0.1-0.1-0.2-0.2-0.5-0.2v-0.2h2.7v0.2
		c-0.2,0-0.4,0.1-0.5,0.1c-0.1,0.1-0.2,0.2-0.2,0.4c0,0.1,0.1,0.5,0.3,1.1c0.1,0.3,0.3,0.7,0.5,1.1l0.8,2l1.3-2.8l0-0.1
		c0-0.1-0.1-0.3-0.2-0.5c-0.1-0.3-0.2-0.5-0.3-0.7c-0.1-0.2-0.2-0.4-0.3-0.5c-0.1-0.1-0.3-0.1-0.5-0.2v-0.2h3.1V417z"/>
	<path class="st4" d="M527.2,417.8c0.6-0.7,1.4-1,2.4-1c1,0,1.8,0.3,2.4,1s1,1.5,1,2.5c0,1-0.3,1.8-0.9,2.5s-1.4,1.1-2.4,1.1
		c-0.9,0-1.7-0.3-2.4-1s-1-1.6-1-2.6C526.3,419.3,526.6,418.5,527.2,417.8z M528.4,417.6c-0.5,0.4-0.7,1.2-0.7,2.3
		c0,0.9,0.2,1.7,0.6,2.4s0.9,1.1,1.6,1.1c0.5,0,1-0.3,1.3-0.8c0.3-0.5,0.4-1.2,0.4-2c0-0.8-0.2-1.6-0.6-2.4
		c-0.4-0.7-0.9-1.1-1.6-1.1C529,417.2,528.6,417.3,528.4,417.6z"/>
	<path class="st4" d="M533.4,423.4c0.4,0,0.7-0.1,0.9-0.2c0.1-0.1,0.2-0.4,0.2-0.8v-3.3c0-0.5,0-0.8-0.1-1c-0.1-0.2-0.3-0.3-0.5-0.3
		c0,0-0.1,0-0.2,0c-0.1,0-0.2,0-0.3,0v-0.2c0.3-0.1,0.6-0.2,0.9-0.3s0.5-0.2,0.6-0.2c0.2-0.1,0.5-0.2,0.8-0.3c0,0,0.1,0,0.1,0
		c0,0,0,0.1,0,0.2v1.2c0.3-0.4,0.6-0.8,0.9-1s0.6-0.4,0.9-0.4c0.2,0,0.5,0.1,0.6,0.2c0.2,0.1,0.2,0.3,0.2,0.6c0,0.2-0.1,0.4-0.2,0.5
		c-0.1,0.1-0.3,0.2-0.5,0.2c-0.2,0-0.4-0.1-0.6-0.3c-0.2-0.2-0.3-0.3-0.4-0.3c-0.2,0-0.4,0.1-0.6,0.4c-0.2,0.3-0.4,0.6-0.4,0.9v3.3
		c0,0.4,0.1,0.7,0.3,0.9c0.2,0.2,0.5,0.2,1,0.2v0.2h-3.6V423.4z"/>
	<path class="st4" d="M542.9,417c0.2,0.1,0.4,0.2,0.6,0.4v-2.3c0-0.3,0-0.5-0.1-0.6c-0.1-0.1-0.2-0.2-0.5-0.2c-0.1,0-0.1,0-0.2,0
		s-0.1,0-0.3,0v-0.2l0.6-0.2c0.2-0.1,0.4-0.1,0.7-0.2s0.4-0.1,0.6-0.2c0.1,0,0.2-0.1,0.4-0.1l0,0l0,0.8c0,0.3,0,0.6,0,0.9
		c0,0.3,0,0.6,0,0.9l0,6c0,0.3,0,0.5,0.1,0.7s0.3,0.2,0.6,0.2c0.1,0,0.1,0,0.2,0c0.1,0,0.1,0,0.2,0v0.2c0,0-0.4,0.1-1.1,0.4
		l-1.1,0.4l-0.1-0.1v-0.9c-0.3,0.3-0.5,0.5-0.7,0.6c-0.4,0.2-0.8,0.3-1.2,0.3c-0.8,0-1.5-0.3-2-1c-0.5-0.6-0.8-1.4-0.8-2.2
		c0-1.1,0.3-2,0.9-2.7c0.6-0.8,1.4-1.1,2.3-1.1C542.3,416.7,542.6,416.8,542.9,417z M543.1,422.7c0.2-0.2,0.4-0.4,0.4-0.6v-3.1
		c0-0.6-0.2-1.1-0.5-1.3c-0.3-0.3-0.7-0.4-1-0.4c-0.6,0-1.1,0.3-1.4,0.8c-0.3,0.5-0.5,1.2-0.5,2c0,0.8,0.2,1.5,0.5,2.1
		c0.4,0.6,0.9,0.9,1.6,0.9C542.6,423,542.9,422.9,543.1,422.7z"/>
</g>
<g class="st7">
	<path class="st8" d="M552.1,414.5c0,0.1,0,0.2,0,0.3l-0.4,3h-0.3l-0.4-3c0-0.1,0-0.3,0-0.4s0-0.2,0-0.3c0-0.2,0.1-0.3,0.2-0.5
		c0.1-0.1,0.2-0.2,0.4-0.2c0.2,0,0.4,0.1,0.5,0.2c0.1,0.1,0.1,0.3,0.1,0.5C552.1,414.3,552.1,414.4,552.1,414.5z M553.6,417.8
		l-0.4-2.9c0-0.3-0.1-0.5-0.1-0.5c0-0.1,0-0.1,0-0.1c0-0.3,0.1-0.5,0.2-0.6c0.1-0.1,0.2-0.2,0.4-0.2c0.2,0,0.4,0.1,0.5,0.2
		c0.1,0.1,0.1,0.3,0.1,0.5c0,0,0,0.1,0,0.1s0,0.2-0.1,0.5l-0.3,3H553.6z"/>
</g>
<g class="st7">
	<path class="st8" d="M556,423.3c0.4,0,0.6-0.1,0.8-0.2c0.3-0.2,0.4-0.4,0.4-0.8v-7.4c0-0.4-0.1-0.7-0.4-0.8
		c-0.2-0.1-0.4-0.1-0.8-0.2v-0.4h4.6c1.9,0,3.3,0.5,4.2,1.5c0.9,0.9,1.3,2.1,1.3,3.6c0,1.4-0.4,2.5-1.3,3.4c-1,1.1-2.4,1.6-4.1,1.6
		H556V423.3z M559.8,422.9c0.1,0.1,0.3,0.2,0.6,0.2c0.9,0,1.6-0.3,2.2-0.9c0.6-0.6,0.9-1.8,0.9-3.6c0-1.1-0.2-2-0.5-2.7
		c-0.5-1.2-1.3-1.8-2.5-1.8c-0.4,0-0.6,0.1-0.8,0.2c-0.1,0.1-0.1,0.3-0.1,0.6v7.4C559.7,422.6,559.8,422.8,559.8,422.9z"/>
	<path class="st8" d="M568,420.6c0.6-0.4,1.7-0.8,3.1-1.2v-1.1c0-0.4-0.1-0.8-0.3-1c-0.2-0.2-0.5-0.3-1-0.3c-0.3,0-0.5,0.1-0.7,0.2
		c-0.2,0.1-0.3,0.2-0.3,0.4c0,0.1,0,0.1,0,0.1c0,0,0,0.1,0.1,0.1l0.1,0.1c0.1,0.1,0.1,0.2,0.2,0.3c0,0.1,0.1,0.2,0.1,0.3
		c0,0.3-0.1,0.5-0.3,0.7c-0.2,0.2-0.4,0.2-0.7,0.2c-0.3,0-0.5-0.1-0.7-0.3c-0.2-0.2-0.3-0.4-0.3-0.7c0-0.6,0.3-1,0.8-1.4
		c0.5-0.3,1.2-0.5,2-0.5c0.8,0,1.6,0.2,2.1,0.5c0.6,0.3,0.8,0.9,0.8,1.8v3.6c0,0.1,0,0.2,0.1,0.3c0.1,0.1,0.1,0.1,0.2,0.1
		c0.1,0,0.1,0,0.2,0c0,0,0.1-0.1,0.2-0.2l0.2,0.3c-0.3,0.3-0.6,0.6-1,0.7c-0.2,0.1-0.5,0.1-0.7,0.1c-0.4,0-0.8-0.1-1-0.4
		c-0.1-0.1-0.2-0.4-0.3-0.7c-0.4,0.4-0.9,0.7-1.4,0.9c-0.3,0.1-0.6,0.2-0.9,0.2c-0.4,0-0.8-0.1-1.1-0.4c-0.4-0.3-0.5-0.7-0.5-1.2
		C567,421.6,567.3,421,568,420.6z M570.6,422.6c0.1-0.1,0.3-0.2,0.4-0.4V420c-0.4,0.1-0.8,0.3-1.1,0.5c-0.5,0.4-0.8,0.8-0.8,1.4
		c0,0.3,0.1,0.6,0.2,0.7c0.1,0.2,0.3,0.3,0.5,0.3C570.2,422.8,570.4,422.7,570.6,422.6z"/>
	<path class="st8" d="M574.4,417.4V417c0.1-0.1,0.3-0.3,0.5-0.4c0.3-0.2,0.5-0.5,0.7-0.7c0.5-0.5,0.9-1,1.2-1.6h0.4v2.5h1.4v0.7
		h-1.4v4.5c0,0.2,0,0.4,0.1,0.5c0.1,0.2,0.3,0.3,0.5,0.3c0.2,0,0.4-0.1,0.5-0.2c0.1-0.1,0.3-0.3,0.4-0.6l0.4,0.2
		c-0.2,0.4-0.4,0.7-0.6,1c-0.4,0.5-1,0.7-1.6,0.7c-0.4,0-0.7-0.1-0.9-0.2c-0.5-0.3-0.8-0.7-0.8-1.4v-4.9H574.4z"/>
	<path class="st8" d="M580.5,420.6c0.7-0.4,1.7-0.8,3.1-1.2v-1.1c0-0.4-0.1-0.8-0.3-1c-0.2-0.2-0.5-0.3-1-0.3
		c-0.3,0-0.5,0.1-0.7,0.2c-0.2,0.1-0.3,0.2-0.3,0.4c0,0.1,0,0.1,0,0.1c0,0,0,0.1,0.1,0.1l0.1,0.1c0.1,0.1,0.1,0.2,0.2,0.3
		c0,0.1,0.1,0.2,0.1,0.3c0,0.3-0.1,0.5-0.3,0.7c-0.2,0.2-0.4,0.2-0.7,0.2c-0.3,0-0.5-0.1-0.7-0.3c-0.2-0.2-0.3-0.4-0.3-0.7
		c0-0.6,0.3-1,0.8-1.4c0.5-0.3,1.2-0.5,2-0.5c0.8,0,1.6,0.2,2.1,0.5c0.6,0.3,0.8,0.9,0.8,1.8v3.6c0,0.1,0,0.2,0.1,0.3
		c0.1,0.1,0.1,0.1,0.2,0.1c0.1,0,0.1,0,0.2,0c0,0,0.1-0.1,0.2-0.2l0.2,0.3c-0.3,0.3-0.6,0.6-1,0.7c-0.2,0.1-0.5,0.1-0.7,0.1
		c-0.4,0-0.8-0.1-1-0.4c-0.1-0.1-0.2-0.4-0.3-0.7c-0.4,0.4-0.9,0.7-1.4,0.9c-0.3,0.1-0.6,0.2-0.9,0.2c-0.4,0-0.8-0.1-1.2-0.4
		c-0.4-0.3-0.5-0.7-0.5-1.2C579.5,421.6,579.8,421,580.5,420.6z M583.1,422.6c0.1-0.1,0.3-0.2,0.4-0.4V420c-0.4,0.1-0.8,0.3-1.1,0.5
		c-0.5,0.4-0.8,0.8-0.8,1.4c0,0.3,0.1,0.6,0.2,0.7c0.1,0.2,0.3,0.3,0.5,0.3C582.7,422.8,582.9,422.7,583.1,422.6z"/>
</g>
<g class="st7">
	<path class="st8" d="M589.1,414.5c0,0.1,0,0.2,0,0.3l-0.4,3h-0.3l-0.4-3c0-0.1,0-0.3,0-0.4s0-0.2,0-0.3c0-0.2,0.1-0.3,0.2-0.5
		c0.1-0.1,0.2-0.2,0.4-0.2c0.2,0,0.4,0.1,0.5,0.2c0.1,0.1,0.1,0.3,0.1,0.5C589.1,414.3,589.1,414.4,589.1,414.5z M590.6,417.8
		l-0.4-2.9c0-0.3-0.1-0.5-0.1-0.5c0-0.1,0-0.1,0-0.1c0-0.3,0.1-0.5,0.2-0.6c0.1-0.1,0.2-0.2,0.4-0.2c0.2,0,0.4,0.1,0.5,0.2
		c0.1,0.1,0.1,0.3,0.1,0.5c0,0,0,0.1,0,0.1s0,0.2-0.1,0.5l-0.3,3H590.6z"/>
</g>
<g class="st7">
</g>
<g class="st7">
	<path class="st4" d="M448.7,441.4c0.5,0,0.9-0.1,1-0.3c0.1-0.1,0.2-0.5,0.2-1.1v-3.5c0-0.3,0-0.5-0.1-0.7c-0.1-0.2-0.2-0.3-0.5-0.3
		c-0.1,0-0.1,0-0.2,0c-0.1,0-0.2,0-0.4,0.1v-0.2l0.3-0.1c0.9-0.3,1.5-0.5,1.8-0.6c0.1-0.1,0.2-0.1,0.3-0.1c0,0,0,0.1,0,0.1v5.3
		c0,0.6,0.1,0.9,0.2,1c0.1,0.1,0.4,0.2,0.9,0.3v0.2h-3.6V441.4z M449.9,431.6c0.1-0.2,0.3-0.2,0.5-0.2c0.2,0,0.4,0.1,0.5,0.2
		c0.1,0.1,0.2,0.3,0.2,0.5c0,0.2-0.1,0.4-0.2,0.5c-0.1,0.1-0.3,0.2-0.5,0.2c-0.2,0-0.4-0.1-0.5-0.2c-0.1-0.1-0.2-0.3-0.2-0.5
		S449.7,431.8,449.9,431.6z"/>
	<path class="st4" d="M453.3,439.3h0.2c0.1,0.6,0.3,1,0.5,1.3c0.3,0.5,0.8,0.8,1.5,0.8c0.4,0,0.7-0.1,0.9-0.3
		c0.2-0.2,0.3-0.5,0.3-0.8c0-0.2-0.1-0.4-0.2-0.6s-0.3-0.4-0.6-0.6l-0.8-0.5c-0.6-0.3-1-0.6-1.3-1c-0.3-0.3-0.4-0.7-0.4-1.2
		c0-0.5,0.2-1,0.6-1.3s0.9-0.5,1.5-0.5c0.3,0,0.5,0,0.9,0.1c0.3,0.1,0.5,0.1,0.5,0.1c0.1,0,0.2,0,0.2,0s0.1-0.1,0.1-0.1h0.2l0.1,2
		h-0.2c-0.1-0.5-0.2-0.8-0.4-1.1c-0.3-0.5-0.7-0.7-1.3-0.7c-0.3,0-0.6,0.1-0.8,0.3s-0.3,0.5-0.3,0.7c0,0.4,0.3,0.8,1,1.2l1,0.5
		c1,0.6,1.6,1.2,1.6,2c0,0.6-0.2,1-0.6,1.4s-1,0.5-1.7,0.5c-0.3,0-0.6,0-1-0.1c-0.4-0.1-0.6-0.1-0.7-0.1c-0.1,0-0.1,0-0.2,0.1
		c0,0-0.1,0.1-0.1,0.2h-0.2V439.3z"/>
	<path class="st4" d="M462.6,444c0.2,0.3,0.5,0.5,0.6,0.5c0.3,0,0.5-0.2,0.6-0.5c0.1-0.2,0.1-0.6,0.1-1.1c0-0.2,0-0.6,0-1.3v-4.8
		c0-0.3,0-0.6-0.1-0.7c-0.1-0.2-0.2-0.2-0.4-0.2c-0.1,0-0.2,0-0.3,0c-0.1,0-0.2,0.1-0.3,0.1v-0.2l0.6-0.2c0.2,0,0.3-0.1,0.6-0.2
		c0.2-0.1,0.5-0.2,0.7-0.3l0.4-0.2c0,0,0,0.1,0,0.1v6.8c0,0.8-0.1,1.5-0.3,2c-0.4,0.9-1.1,1.3-2.2,1.3c-0.4,0-0.7-0.1-1-0.2
		c-0.3-0.1-0.4-0.3-0.4-0.6c0-0.2,0.1-0.3,0.2-0.4c0.1-0.1,0.3-0.2,0.4-0.2C462.1,443.5,462.4,443.7,462.6,444z M464,431.6
		c0.1-0.2,0.3-0.2,0.5-0.2c0.2,0,0.4,0.1,0.5,0.2c0.1,0.2,0.2,0.3,0.2,0.5s-0.1,0.4-0.2,0.5c-0.1,0.1-0.3,0.2-0.5,0.2
		c-0.2,0-0.4-0.1-0.5-0.2c-0.1-0.1-0.2-0.3-0.2-0.5S463.9,431.8,464,431.6z"/>
	<path class="st4" d="M468.6,434.9v4.7c0,0.3,0,0.6,0.1,0.8c0.2,0.4,0.5,0.6,1,0.6c0.3,0,0.7-0.1,1-0.3c0.2-0.1,0.4-0.3,0.5-0.5v-4
		c0-0.4-0.1-0.6-0.2-0.7s-0.4-0.2-0.9-0.2v-0.2h2.4v5.2c0,0.3,0.1,0.6,0.2,0.7c0.1,0.1,0.4,0.2,0.8,0.2v0.2
		c-0.3,0.1-0.5,0.1-0.6,0.2c-0.1,0-0.3,0.1-0.6,0.2c-0.1,0-0.4,0.1-0.8,0.3c0,0,0,0,0,0c0,0,0,0,0-0.1v-1.2
		c-0.3,0.4-0.6,0.7-0.9,0.9c-0.4,0.3-0.9,0.4-1.3,0.4c-0.4,0-0.8-0.2-1.2-0.5c-0.4-0.3-0.6-0.8-0.6-1.5V436c0-0.4-0.1-0.6-0.2-0.8
		c-0.1-0.1-0.3-0.1-0.7-0.2v-0.2H468.6z"/>
	<path class="st4" d="M474.6,439.3h0.2c0.1,0.6,0.3,1,0.5,1.3c0.3,0.5,0.8,0.8,1.5,0.8c0.4,0,0.7-0.1,0.9-0.3
		c0.2-0.2,0.3-0.5,0.3-0.8c0-0.2-0.1-0.4-0.2-0.6s-0.3-0.4-0.6-0.6l-0.8-0.5c-0.6-0.3-1-0.6-1.3-1c-0.3-0.3-0.4-0.7-0.4-1.2
		c0-0.5,0.2-1,0.6-1.3s0.9-0.5,1.5-0.5c0.3,0,0.5,0,0.9,0.1c0.3,0.1,0.5,0.1,0.5,0.1c0.1,0,0.2,0,0.2,0s0.1-0.1,0.1-0.1h0.2l0.1,2
		h-0.2c-0.1-0.5-0.2-0.8-0.4-1.1c-0.3-0.5-0.7-0.7-1.3-0.7c-0.3,0-0.6,0.1-0.8,0.3s-0.3,0.5-0.3,0.7c0,0.4,0.3,0.8,1,1.2l1,0.5
		c1,0.6,1.6,1.2,1.6,2c0,0.6-0.2,1-0.6,1.4s-1,0.5-1.7,0.5c-0.3,0-0.6,0-1-0.1c-0.4-0.1-0.6-0.1-0.7-0.1c-0.1,0-0.1,0-0.2,0.1
		c0,0-0.1,0.1-0.1,0.2h-0.2V439.3z"/>
	<path class="st4" d="M483.5,434.9v0.5H482l0,4.2c0,0.4,0,0.7,0.1,0.8c0.1,0.3,0.3,0.5,0.7,0.5c0.2,0,0.3,0,0.5-0.1
		c0.1-0.1,0.3-0.2,0.4-0.4l0.2,0.2l-0.2,0.2c-0.3,0.3-0.5,0.6-0.8,0.7s-0.6,0.2-0.8,0.2c-0.6,0-1-0.3-1.2-0.8
		c-0.1-0.3-0.2-0.7-0.2-1.2v-4.4h-0.8c0,0,0,0-0.1,0c0,0,0,0,0-0.1c0,0,0-0.1,0-0.1c0,0,0.1-0.1,0.2-0.2c0.3-0.3,0.6-0.5,0.7-0.7
		c0.1-0.2,0.5-0.6,1.1-1.4c0.1,0,0.1,0,0.1,0c0,0,0,0,0,0.1v1.8H483.5z"/>
	<path class="st4" d="M488.5,438.9c0.1,0.6,0.3,1.1,0.6,1.4c0.4,0.6,1.1,0.9,2,0.9V437c-1-0.6-1.6-1-1.9-1.3
		c-0.5-0.5-0.8-1.1-0.8-1.7c0-0.6,0.2-1.1,0.7-1.5s1.1-0.7,1.9-0.7v-0.9h0.5v0.9c0.4,0,0.9,0.1,1.3,0.2c0.5,0.1,0.8,0.3,1.1,0.6v1.7
		h-0.2c-0.1-0.6-0.4-1.1-0.8-1.5s-0.9-0.5-1.4-0.6v3.7c1.1,0.6,1.8,1,2.3,1.5s0.6,1,0.6,1.8c0,0.3,0,0.6-0.1,0.8
		c-0.1,0.4-0.4,0.8-0.7,1.1c-0.3,0.2-0.6,0.4-1,0.5s-0.7,0.2-1,0.2v1.3H491v-1.3c-0.6,0-1.2-0.1-1.6-0.2c-0.3-0.1-0.7-0.3-1.2-0.5
		v-1.9H488.5z M491,432.1c-0.5,0.1-0.8,0.2-1.1,0.5c-0.3,0.3-0.4,0.6-0.4,1.1c0,0.4,0.2,0.8,0.6,1.2c0.3,0.2,0.6,0.5,0.9,0.7V432.1z
		 M492.5,440.8c0.5-0.3,0.7-0.8,0.7-1.5c0-0.5-0.2-0.9-0.5-1.2c-0.2-0.2-0.6-0.5-1.2-0.9v4C491.9,441.2,492.3,441,492.5,440.8z"/>
	<path class="st4" d="M503.3,431.6C503.3,431.6,503.3,431.7,503.3,431.6l0,8.9c0,0.4,0.1,0.6,0.3,0.7c0.2,0.1,0.6,0.2,1.1,0.2v0.2
		h-4.1v-0.2c0.6,0,1-0.1,1.2-0.2c0.2-0.1,0.3-0.4,0.3-0.9v-6.8c0-0.2,0-0.4-0.1-0.5s-0.2-0.2-0.4-0.2c-0.1,0-0.3,0-0.5,0.1
		c-0.2,0.1-0.4,0.1-0.6,0.2V433l2.7-1.4L503.3,431.6C503.3,431.6,503.3,431.6,503.3,431.6z"/>
	<path class="st4" d="M509.5,442.9c-0.4,0.4-0.7,0.7-1.2,0.9l-0.1-0.3c0.5-0.3,0.8-0.5,1-0.9c0.2-0.3,0.3-0.6,0.3-0.8
		c0-0.1,0-0.1-0.1-0.1s-0.1,0-0.1,0l-0.5,0.1c-0.2,0-0.4-0.1-0.6-0.2c-0.2-0.1-0.3-0.3-0.3-0.6c0-0.2,0.1-0.4,0.2-0.6
		s0.4-0.3,0.7-0.3c0.3,0,0.6,0.1,0.8,0.4c0.2,0.2,0.4,0.6,0.4,1C510,442,509.8,442.4,509.5,442.9z"/>
	<path class="st4" d="M514.5,431.6C514.5,431.6,514.5,431.7,514.5,431.6l0,8.9c0,0.4,0.1,0.6,0.3,0.7c0.2,0.1,0.6,0.2,1.1,0.2v0.2
		h-4.1v-0.2c0.6,0,1-0.1,1.2-0.2c0.2-0.1,0.3-0.4,0.3-0.9v-6.8c0-0.2,0-0.4-0.1-0.5s-0.2-0.2-0.4-0.2c-0.1,0-0.3,0-0.5,0.1
		c-0.2,0.1-0.4,0.1-0.6,0.2V433l2.7-1.4L514.5,431.6C514.5,431.6,514.5,431.6,514.5,431.6z"/>
	<path class="st4" d="M523.7,440.7c-0.6,0.7-1.3,1.1-2.2,1.1c-0.9,0-1.6-0.4-2.3-1.2c-0.7-0.8-1.1-1.9-1.1-3.2
		c0-1.7,0.7-3.2,2.1-4.4c1.2-1,2.6-1.6,4.1-1.6l0,0.2c-0.6,0.1-1.1,0.3-1.6,0.5c-0.4,0.2-0.8,0.5-1.2,0.8c-0.4,0.4-0.7,0.8-1,1.3
		c-0.3,0.5-0.5,1.1-0.6,1.6c0.3-0.2,0.6-0.3,0.8-0.4c0.4-0.2,0.8-0.2,1.2-0.2c0.8,0,1.4,0.3,2,0.8c0.5,0.5,0.8,1.3,0.8,2.3
		C524.6,439.2,524.3,440,523.7,440.7z M522.9,437.1c-0.3-0.8-0.9-1.3-1.7-1.3c-0.8,0-1.3,0.2-1.5,0.7c-0.1,0.3-0.2,0.7-0.2,1.3
		c0,0.8,0.2,1.6,0.5,2.3c0.3,0.8,0.9,1.1,1.6,1.1c0.6,0,1-0.2,1.3-0.7c0.3-0.5,0.4-1.1,0.4-1.7C523.2,438.2,523.1,437.7,522.9,437.1
		z"/>
	<path class="st4" d="M526.5,435.4c-0.4-0.5-0.5-1-0.5-1.6c0-0.6,0.3-1.2,0.8-1.6c0.5-0.4,1.2-0.7,2.1-0.7c0.8,0,1.4,0.2,1.9,0.6
		s0.7,0.9,0.7,1.5c0,0.6-0.2,1.1-0.7,1.5c-0.3,0.3-0.7,0.6-1.3,0.9c0.8,0.6,1.4,1.2,1.8,1.6c0.4,0.5,0.5,1,0.5,1.6
		c0,0.7-0.3,1.3-0.8,1.8c-0.5,0.5-1.2,0.7-2.1,0.7c-0.8,0-1.5-0.2-2-0.7c-0.6-0.4-0.9-1-0.9-1.7c0-0.6,0.2-1.2,0.6-1.6
		c0.3-0.3,0.7-0.7,1.3-1.1C527.2,436.1,526.7,435.7,526.5,435.4z M530.1,440.9c0.3-0.3,0.4-0.7,0.4-1.2c0-0.5-0.2-1-0.5-1.3
		c-0.3-0.3-0.9-0.8-1.9-1.5c-0.4,0.3-0.7,0.6-0.9,1c-0.2,0.4-0.3,0.8-0.3,1.2c0,0.7,0.2,1.2,0.5,1.6c0.3,0.4,0.8,0.6,1.3,0.6
		C529.4,441.4,529.8,441.2,530.1,440.9z M529.9,435c0.3-0.4,0.5-0.8,0.5-1.4c0-0.5-0.1-0.9-0.4-1.2c-0.3-0.3-0.7-0.5-1.3-0.5
		c-0.4,0-0.8,0.1-1.1,0.4c-0.3,0.3-0.4,0.6-0.4,1c0,0.5,0.2,0.9,0.5,1.3c0.3,0.4,0.8,0.8,1.4,1.1C529.4,435.5,529.7,435.2,529.9,435
		z"/>
	<path class="st4" d="M535.7,442.9c-0.4,0.4-0.7,0.7-1.2,0.9l-0.1-0.3c0.5-0.3,0.8-0.5,1-0.9c0.2-0.3,0.3-0.6,0.3-0.8
		c0-0.1,0-0.1-0.1-0.1s-0.1,0-0.1,0l-0.5,0.1c-0.2,0-0.4-0.1-0.6-0.2c-0.2-0.1-0.3-0.3-0.3-0.6c0-0.2,0.1-0.4,0.2-0.6
		s0.4-0.3,0.7-0.3c0.3,0,0.6,0.1,0.8,0.4c0.2,0.2,0.4,0.6,0.4,1C536.2,442,536.1,442.4,535.7,442.9z"/>
	<path class="st4" d="M536.8,441.5c1.8-1.9,3-3.2,3.6-4.1c0.6-0.9,1-1.7,1-2.5c0-0.7-0.2-1.3-0.6-1.6s-0.9-0.6-1.4-0.6
		c-0.7,0-1.2,0.2-1.6,0.7c-0.2,0.3-0.4,0.7-0.7,1.2l-0.3-0.1c0.2-1.1,0.7-1.9,1.2-2.3c0.6-0.4,1.2-0.7,1.9-0.7c0.8,0,1.5,0.3,2,0.8
		c0.5,0.5,0.8,1.2,0.8,1.9c0,0.8-0.3,1.6-0.8,2.3c-0.6,0.7-1.8,2.1-3.6,4h3.4c0.5,0,0.8-0.1,1-0.2c0.2-0.1,0.4-0.4,0.6-0.8l0.2,0.1
		l-0.8,2h-5.9V441.5z"/>
	<path class="st4" d="M544.3,441.5c1.8-1.9,3-3.2,3.6-4.1c0.6-0.9,1-1.7,1-2.5c0-0.7-0.2-1.3-0.6-1.6s-0.9-0.6-1.4-0.6
		c-0.7,0-1.2,0.2-1.6,0.7c-0.2,0.3-0.4,0.7-0.7,1.2l-0.3-0.1c0.2-1.1,0.7-1.9,1.2-2.3c0.6-0.4,1.2-0.7,1.9-0.7c0.8,0,1.5,0.3,2,0.8
		c0.5,0.5,0.8,1.2,0.8,1.9c0,0.8-0.3,1.6-0.8,2.3c-0.6,0.7-1.8,2.1-3.6,4h3.4c0.5,0,0.8-0.1,1-0.2c0.2-0.1,0.4-0.4,0.6-0.8l0.2,0.1
		l-0.8,2h-5.9V441.5z"/>
	<path class="st4" d="M557.5,433.3c0.5,1,0.7,2,0.7,3.3c0,1-0.2,1.9-0.5,2.7c-0.6,1.6-1.6,2.4-3,2.4c-1,0-1.8-0.4-2.4-1.3
		c-0.7-0.9-1-2.2-1-3.8c0-1.3,0.2-2.3,0.7-3.3c0.6-1.2,1.5-1.9,2.8-1.9C556,431.6,556.9,432.2,557.5,433.3z M556.4,440.2
		c0.3-0.8,0.4-1.9,0.4-3.4c0-1.2-0.1-2.1-0.2-2.8c-0.3-1.3-0.9-2-1.7-2s-1.4,0.7-1.7,2c-0.2,0.7-0.2,1.7-0.2,2.9
		c0,1.1,0.1,2,0.2,2.7c0.3,1.2,0.9,1.9,1.8,1.9C555.6,441.4,556.1,441,556.4,440.2z"/>
</g>
</svg>
