<?xml version="1.0" encoding="utf-8"?>
<!-- Generator: Adobe Illustrator 26.2.1, SVG Export Plug-In . SVG Version: 6.00 Build 0)  -->
<svg version="1.1" id="Layer_1" xmlns="http://www.w3.org/2000/svg" xmlns:xlink="http://www.w3.org/1999/xlink" x="0px" y="0px"
	 viewBox="0 0 800 600" style="enable-background:new 0 0 800 600;" xml:space="preserve">
<style type="text/css">
	.st0{fill:#363636;}
	.st1{fill:none;stroke:#E6E6E6;stroke-width:3;}
	.st2{fill:none;stroke:#00B190;}
	.st3{fill:#00B190;}
	.st4{fill:#0071DF;stroke:#0071DF;}
	.st5{fill:none;}
</style>
<g id="Layer_2_00000158708371863680285660000017816713093719128456_">
	<rect id="backgorund" class="st0" width="800" height="600"/>
</g>
<path id="p_989" class="st1" d="M400,549.8c-136.7,0-247.5-110.8-247.5-247.5S263.3,54.9,400,54.9s247.5,110.8,247.5,247.5
	S536.7,549.8,400,549.8z"/>
<path id="p_762.7951817288568" class="st2" d="M418.3,341.8c-5.2,0-9.4-4.2-9.4-9.4s4.2-9.4,9.4-9.4l0,0c5.2,0,9.4,4.2,9.4,9.4
	C427.7,337.6,423.5,341.8,418.3,341.8L418.3,341.8z"/>
<path id="p_763.5346414017791" class="st3" d="M421.5,339.2c-1.3,0-2.3-1-2.3-2.3s1-2.3,2.3-2.3s2.3,1,2.3,2.3
	S422.7,339.2,421.5,339.2z"/>
<path id="p_752.1049459131756" class="st3" d="M415.3,335.8c-2.5,0-4.6-2.1-4.6-4.6s2.1-4.6,4.6-4.6s4.6,2.1,4.6,4.6
	S417.8,335.8,415.3,335.8z"/>
<path id="p_759.4560699584389" class="st3" d="M423.7,333.5c-1.3,0-2.3-1-2.3-2.3s1-2.3,2.3-2.3s2.3,1,2.3,2.3
	S425,333.5,423.7,333.5z"/>
<path id="p_749.8836044427812" class="st3" d="M421.2,328c-0.7,0-1.3-0.6-1.3-1.3s0.6-1.3,1.3-1.3c0.7,0,1.3,0.6,1.3,1.3
	S421.9,328,421.2,328z"/>
<path id="p_743.5569096752089" class="st3" d="M418.2,325.7c-0.3,0-0.5-0.2-0.5-0.5s0.2-0.5,0.5-0.5s0.5,0.2,0.5,0.5
	S418.4,325.7,418.2,325.7z"/>
<path id="p_765.7835627334273" class="st4" d="M436.2,326.3c-13.3,0-24-10.7-24-24s10.7-24,24-24l0,0c13.3,0,24,10.7,24,24
	C460.2,315.6,449.5,326.3,436.2,326.3L436.2,326.3z"/>
<rect x="474.5" y="210.6" class="st5" width="145.5" height="97"/>
</svg>
