<?xml version="1.0" encoding="utf-8"?>
<!-- Generator: Adobe Illustrator 26.2.1, SVG Export Plug-In . SVG Version: 6.00 Build 0)  -->
<svg version="1.1" xmlns="http://www.w3.org/2000/svg" xmlns:xlink="http://www.w3.org/1999/xlink" x="0px" y="0px"
	 viewBox="0 0 415 43" style="enable-background:new 0 0 415 43;" xml:space="preserve">
<style type="text/css">
	.st0{display:none;}
	.st1{display:inline;}
	.st2{fill:#393939;}
	.st3{opacity:0.8;fill:#1C548B;}
	.st4{opacity:0.8;fill:#9C3C21;}
	.st5{opacity:0.8;fill:#197A68;}
	.st6{fill:#FFFFFF;}
	.st7{font-family:'Verdana';}
	.st8{font-size:15px;}
</style>
<g id="bg" class="st0">
	<g class="st1">
		<rect class="st2" width="415" height="43"/>
	</g>
</g>
<g id="Layer_1">
	<path class="st3" d="M26,35h-2c-6.6,0-12-5.4-12-12v-2c0-6.6,5.4-12,12-12h2c6.6,0,12,5.4,12,12v2C38,29.6,32.6,35,26,35z"/>
	<path class="st4" d="M160,35h-2c-6.6,0-12-5.4-12-12v-2c0-6.6,5.4-12,12-12h2c6.6,0,12,5.4,12,12v2C172,29.6,166.6,35,160,35z"/>
	<path class="st5" d="M352,35h-2c-6.6,0-12-5.4-12-12v-2c0-6.6,5.4-12,12-12h2c6.6,0,12,5.4,12,12v2C364,29.6,358.6,35,352,35z"/>
	<text transform="matrix(1 0 0 1 44 27.2026)" class="st6 st7 st8">Consulting</text>
	<text transform="matrix(1 0 0 1 178.1927 27.2024)" class="st6 st7 st8">Digital Advertising</text>
	<text transform="matrix(1 0 0 1 368.1927 27.2024)" class="st6 st7 st8">Data</text>
</g>
</svg>
