<?xml version="1.0" encoding="utf-8"?>
<!-- Generator: Adobe Illustrator 26.2.1, SVG Export Plug-In . SVG Version: 6.00 Build 0)  -->
<svg version="1.1" id="Layer_1" xmlns="http://www.w3.org/2000/svg" xmlns:xlink="http://www.w3.org/1999/xlink" x="0px" y="0px"
	 viewBox="0 0 800 600" style="enable-background:new 0 0 800 600;" xml:space="preserve">
<style type="text/css">
	.st0{fill:#363636;}
	.st1{fill:none;stroke:#E6E6E6;stroke-width:3;}
	.st2{opacity:0.2;fill:none;stroke:#00B190;enable-background:new    ;}
	.st3{opacity:0.2;fill:#00B190;enable-background:new    ;}
	.st4{fill:#0071DF;stroke:#0071DF;}
	.st5{fill:none;stroke:#FFFFFF;stroke-width:1.5;}
	.st6{fill:#FFFFFF;}
	.st7{fill:none;}
	.st8{font-family:'Times-Roman';}
	.st9{font-size:15px;}
	.st10{fill:#0071DF;}
	.st11{font-family:'Times-Bold';}
</style>
<g id="Layer_2_00000118383706124503141940000000158820169431077800_">
	<rect id="backgorund" class="st0" width="800" height="600"/>
</g>
<g>
	<path id="p_989" class="st1" d="M400,747.8c-246.1,0-445.5-199.4-445.5-445.5S153.9-143.1,400-143.1S845.5,56.4,845.5,302.4
		S646.1,747.8,400,747.8z"/>
	<path id="p_762.7951817288568" class="st2" d="M432.9,373.4c-9.4,0-16.9-7.6-16.9-16.9c0-9.4,7.6-16.9,16.9-16.9l0,0
		c9.4,0,16.9,7.6,16.9,16.9C449.9,365.8,442.3,373.4,432.9,373.4L432.9,373.4z"/>
	<path id="p_763.5346414017791" class="st3" d="M438.7,368.7c-2.3,0-4.1-1.8-4.1-4.1c0-2.3,1.8-4.1,4.1-4.1c2.3,0,4.1,1.8,4.1,4.1
		C442.8,366.9,440.9,368.7,438.7,368.7z"/>
	<path id="p_752.1049459131756" class="st3" d="M427.5,362.6c-4.5,0-8.3-3.8-8.3-8.3s3.8-8.3,8.3-8.3s8.3,3.8,8.3,8.3
		S432,362.6,427.5,362.6z"/>
	<path id="p_759.4560699584389" class="st3" d="M442.7,358.4c-2.3,0-4.1-1.8-4.1-4.1s1.8-4.1,4.1-4.1c2.3,0,4.1,1.8,4.1,4.1
		S445,358.4,442.7,358.4z"/>
	<path id="p_749.8836044427812" class="st3" d="M438.2,348.5c-1.3,0-2.3-1.1-2.3-2.3s1.1-2.3,2.3-2.3c1.3,0,2.3,1.1,2.3,2.3
		S439.4,348.5,438.2,348.5z"/>
	<path id="p_743.5569096752089" class="st3" d="M432.8,344.4c-0.5,0-0.9-0.4-0.9-0.9s0.4-0.9,0.9-0.9s0.9,0.4,0.9,0.9
		S433.1,344.4,432.8,344.4z"/>
	<path id="p_765.7835627334273" class="st4" d="M465.2,345.5c-23.9,0-43.2-19.3-43.2-43.2s19.3-43.2,43.2-43.2l0,0
		c23.9,0,43.2,19.3,43.2,43.2C508.4,326.2,489.1,345.5,465.2,345.5L465.2,345.5z"/>
</g>
<g>
	<g>
		<path class="st5" d="M499.1,218.4c-17.9,0.8-32.1,14.4-32.1,31"/>
		<g>
			<polygon class="st6" points="500.7,218.4 494.6,225 493.5,224 498.5,218.6 492.7,214 493.6,212.8 			"/>
		</g>
	</g>
</g>
<rect x="474.5" y="210.6" class="st7" width="145.5" height="97"/>
<rect x="508.9" y="210.4" class="st7" width="222.8" height="83.2"/>
<text transform="matrix(1 0 0 1 508.8662 220.6377)"><tspan x="0" y="0" class="st6 st8 st9">The Trump campaign spent a total of </tspan><tspan x="0" y="18" class="st6 st8 st9">$ 9,152,462 on data-driven related </tspan><tspan x="0" y="36" class="st10 st11 st9">consulting</tspan><tspan x="65.9" y="36" class="st6 st8 st9"> services</tspan></text>
</svg>
