<?xml version="1.0" encoding="utf-8"?>
<!-- Generator: Adobe Illustrator 26.2.1, SVG Export Plug-In . SVG Version: 6.00 Build 0)  -->
<svg version="1.1" xmlns="http://www.w3.org/2000/svg" xmlns:xlink="http://www.w3.org/1999/xlink" x="0px" y="0px"
	 viewBox="0 0 800 600" style="enable-background:new 0 0 800 600;" xml:space="preserve">
<style type="text/css">
	.st0{fill:#363636;}
	.st1{fill:none;stroke:#E6E6E6;stroke-width:3;}
	.st2{opacity:0.2;fill:none;stroke:#00B190;enable-background:new    ;}
	.st3{opacity:0.2;fill:#00B190;enable-background:new    ;}
	.st4{fill:#0071DF;}
	.st5{opacity:0.2;fill:#0071DF;enable-background:new    ;}
	.st6{fill:none;stroke:#0071DF;}
	.st7{fill:#FFFFFF;}
	.st8{font-family:'Times-Bold';}
	.st9{font-size:15px;}
	.st10{fill:none;}
	.st11{fill:#CCCCCC;}
	.st12{font-family:'Times-Italic';}
	.st13{font-size:12px;}
	.st14{font-family:'Times-BoldItalic';}
	.st15{font-size:18px;}
	.st16{fill:none;stroke:#FFFFFF;stroke-miterlimit:10;}
</style>
<g id="Layer_2">
	<g id="Layer_2_00000052083327661654814140000010730104940035045804_">
		<rect id="backgorund_00000055671890157702640530000014711668089973312645_" class="st0" width="800" height="600"/>
	</g>
</g>
<g id="Layer_1">
	<path id="p_989" class="st1" d="M400,1416.1c-615.1,0-1113.7-498.6-1113.7-1113.7S-215.1-811.4,400-811.4
		S1513.7-312.7,1513.7,302.3S1015.1,1416.1,400,1416.1z"/>
	<path id="p_762.7951817288568" class="st2" d="M482.4,479.7c-23.4,0-42.3-18.9-42.3-42.3s18.9-42.3,42.3-42.3l0,0
		c23.4,0,42.3,18.9,42.3,42.3C524.7,460.8,505.7,479.7,482.4,479.7L482.4,479.7z"/>
	<path id="p_763.5346414017791" class="st3" d="M496.6,468.3c-5.7,0-10.2-4.6-10.2-10.2s4.6-10.2,10.2-10.2
		c5.7,0,10.2,4.6,10.2,10.2S502.2,468.3,496.6,468.3z"/>
	<path id="p_752.1049459131756" class="st3" d="M468.7,453c-11.4,0-20.7-9.3-20.7-20.7s9.3-20.7,20.7-20.7s20.7,9.3,20.7,20.7
		S480.1,453,468.7,453z"/>
	<path id="p_759.4560699584389" class="st3" d="M506.7,442.7c-5.7,0-10.4-4.6-10.4-10.4S501,422,506.7,422s10.4,4.6,10.4,10.4
		S512.5,442.7,506.7,442.7z"/>
	<path id="p_749.8836044427812" class="st3" d="M495.4,417.9c-3.3,0-5.9-2.6-5.9-5.9s2.6-5.9,5.9-5.9s5.9,2.6,5.9,5.9
		S498.7,417.9,495.4,417.9z"/>
	<path id="p_743.5569096752089" class="st3" d="M481.8,407.7c-1.2,0-2.2-1-2.2-2.2s1-2.2,2.2-2.2s2.2,1,2.2,2.2
		S483,407.7,481.8,407.7z"/>
	<path id="p_736.9234809258031" class="st4" d="M526.4,338c-19.5,0-35.3-15.8-35.3-35.3s15.8-35.3,35.3-35.3s35.3,15.8,35.3,35.3
		S545.9,338,526.4,338z"/>
	<path id="p_755.683367322478" class="st5" d="M600.7,334.5c-17.6,0-31.9-14.3-31.9-31.9s14.3-31.9,31.9-31.9
		c17.6,0,31.9,14.3,31.9,31.9C632.6,320.3,618.3,334.5,600.7,334.5z"/>
	<path id="p_758.2352222835394" class="st4" d="M566.5,378.3c-13,0-23.5-10.5-23.5-23.5s10.5-23.5,23.5-23.5s23.5,10.5,23.5,23.5
		S579.5,378.3,566.5,378.3z"/>
	<path id="p_730.6730012227229" class="st5" d="M566.4,274.4c-11.8,0-21.5-9.6-21.5-21.4s9.6-21.5,21.4-21.5l0,0
		c11.8,0,21.5,9.6,21.5,21.4C587.9,264.8,578.3,274.4,566.4,274.4L566.4,274.4z"/>
	<path id="p_715.7005903537216" class="st4" d="M523.9,260.4c-8.1,0-14.6-6.6-14.6-14.6s6.6-14.6,14.6-14.6l0,0
		c8.1,0,14.6,6.6,14.6,14.6C538.6,253.8,532,260.4,523.9,260.4L523.9,260.4z"/>
	<path id="p_745.1577656089249" class="st4" d="M521.7,373.7c-8,0-14.5-6.5-14.5-14.5s6.5-14.5,14.5-14.5l0,0
		c8,0,14.5,6.5,14.5,14.5S529.7,373.7,521.7,373.7L521.7,373.7z"/>
	<path id="p_739.1395770597233" class="st4" d="M608.5,264.3c-7.5,0-13.7-6.1-13.7-13.7c0-7.5,6.1-13.7,13.7-13.7
		c7.5,0,13.7,6.1,13.7,13.7C622.1,258.2,616,264.3,608.5,264.3z"/>
	<path id="p_766.1892971586858" class="st5" d="M609.3,365.5c-6.8,0-12.4-5.5-12.4-12.4c0-6.8,5.5-12.4,12.4-12.4
		s12.4,5.5,12.4,12.4S616.2,365.5,609.3,365.5z"/>
	<path id="p_710.5847391957514" class="st5" d="M493.5,271.5c-6.5,0-11.8-5.3-11.8-11.8s5.3-11.8,11.8-11.8s11.8,5.3,11.8,11.8
		S500,271.5,493.5,271.5z"/>
	<path id="p_732.6194042806351" class="st5" d="M492.4,355.7c-6.3,0-11.4-5.1-11.4-11.4s5.1-11.4,11.4-11.4s11.4,5.1,11.4,11.4
		S498.7,355.7,492.4,355.7z"/>
	<path id="p_748.6396045899162" class="st5" d="M632.6,276c-4.8,0-8.7-3.9-8.7-8.7s3.9-8.7,8.7-8.7s8.7,3.9,8.7,8.7
		S637.4,276,632.6,276z"/>
	<path id="p_767.2166923165111" class="st5" d="M632.5,346.2c-4.7,0-8.5-3.8-8.5-8.5s3.8-8.5,8.5-8.5l0,0c4.7,0,8.5,3.8,8.5,8.5
		C641,342.4,637.2,346.2,632.5,346.2L632.5,346.2z"/>
	<path id="p_713.5549907627715" class="st5" d="M544.2,232c-4.5,0-8.2-3.7-8.2-8.2s3.7-8.2,8.2-8.2s8.2,3.7,8.2,8.2
		S548.7,232,544.2,232z"/>
	<path id="p_727.0863550931502" class="st5" d="M592.1,235.1c-4.3,0-7.9-3.5-7.9-7.9c0-4.3,3.5-7.9,7.9-7.9l0,0
		c4.3,0,7.9,3.5,7.9,7.9S596.5,235.1,592.1,235.1L592.1,235.1z"/>
	<path id="p_754.0385260170602" class="st5" d="M539.8,389.2c-4.1,0-7.4-3.3-7.4-7.4s3.3-7.4,7.4-7.4l0,0c4.1,0,7.4,3.3,7.4,7.4
		C547.2,385.9,543.9,389.2,539.8,389.2L539.8,389.2z"/>
	<path id="p_767.9131501845512" class="st5" d="M597.2,384.2c-4,0-7.3-3.3-7.3-7.3s3.3-7.3,7.3-7.3s7.3,3.3,7.3,7.3
		C604.5,380.9,601.2,384.2,597.2,384.2z"/>
	<path id="p_712.1631428853328" class="st5" d="M481.1,289.8c-4,0-7.2-3.2-7.2-7.2s3.2-7.2,7.2-7.2l0,0c4,0,7.2,3.2,7.2,7.2
		C488.3,286.6,485.1,289.8,481.1,289.8L481.1,289.8z"/>
	<path id="p_722.393748701205" class="st5" d="M481,328.6c-3.8,0-6.9-3.1-6.9-6.9s3.1-6.9,6.9-6.9l0,0c3.8,0,6.9,3.1,6.9,6.9
		S484.8,328.5,481,328.6L481,328.6z"/>
	<path id="p_756.179113075554" class="st5" d="M643.5,293.6c-3.7,0-6.7-3-6.7-6.7s3-6.7,6.7-6.7l0,0c3.7,0,6.7,3,6.7,6.7
		S647.2,293.6,643.5,293.6L643.5,293.6z"/>
	<path id="p_764.4760547899426" class="st5" d="M643.3,325.1c-3.6,0-6.6-3-6.6-6.6s3-6.6,6.6-6.6l0,0c3.6,0,6.6,3,6.6,6.6
		S647,325.1,643.3,325.1L643.3,325.1z"/>
	<path id="p_717.0199188472118" class="st5" d="M564.7,224.5c-3.4,0-6.1-2.7-6.1-6.1c0-3.4,2.7-6.1,6.1-6.1l0,0
		c3.4,0,6.1,2.7,6.1,6.1S568.1,224.5,564.7,224.5L564.7,224.5z"/>
	<path id="p_719.0276746349833" class="st5" d="M581.5,215.3c-3.3,0-6.1-2.7-6.1-6.1s2.7-6.1,6.1-6.1s6.1,2.7,6.1,6.1
		S584.9,215.3,581.5,215.3z"/>
	<path id="p_715.8654360467084" class="st5" d="M476.7,308.2c-3.3,0-5.9-2.6-5.9-5.9s2.6-5.9,5.9-5.9s5.9,2.6,5.9,5.9
		C482.6,305.5,480,308.2,476.7,308.2z"/>
	<path id="p_760.2555339377926" class="st5" d="M557.8,394.6c-2.9,0-5.2-2.3-5.2-5.2c0-2.9,2.3-5.2,5.2-5.2l0,0
		c2.9,0,5.2,2.3,5.2,5.2C563,392.3,560.7,394.6,557.8,394.6L557.8,394.6z"/>
	<path id="p_765.7581606623559" class="st5" d="M580.9,392.3c-2.8,0-5-2.2-5-5s2.2-5,5-5l0,0c2.8,0,5,2.2,5,5
		C585.9,390.1,583.7,392.3,580.9,392.3L580.9,392.3z"/>
	<path id="p_762.4174745880222" class="st5" d="M653,307.6c-2.7,0-4.8-2.2-4.8-4.8s2.2-4.8,4.8-4.8s4.8,2.2,4.8,4.8
		S655.7,307.6,653,307.6z"/>
	<path id="p_704.1305606759555" class="st5" d="M499.1,241.5c-2.6,0-4.7-2.1-4.7-4.7s2.1-4.7,4.7-4.7s4.7,2.1,4.7,4.7
		S501.7,241.5,499.1,241.5z"/>
	<path id="p_771.5970351522174" class="st5" d="M632.9,362.4c-2.5,0-4.6-2.1-4.6-4.6s2.1-4.6,4.6-4.6s4.6,2.1,4.6,4.6
		C637.5,360.4,635.4,362.4,632.9,362.4z"/>
	<path id="p_742.3574477750865" class="st5" d="M633.3,251.6c-2.4,0-4.4-2-4.4-4.4s2-4.4,4.4-4.4s4.4,2,4.4,4.4
		C637.6,249.7,635.7,251.6,633.3,251.6z"/>
	<path id="p_737.8642137138779" class="st5" d="M497,371c-2.4,0-4.3-1.9-4.3-4.3s1.9-4.3,4.3-4.3s4.3,1.9,4.3,4.3S499.4,371,497,371
		z"/>
	<path id="p_706.424273679859" class="st5" d="M525.2,224.1c-2.4,0-4.3-1.9-4.3-4.3c0-2.4,1.9-4.3,4.3-4.3l0,0
		c2.4,0,4.3,1.9,4.3,4.3C529.4,222.2,527.5,224.1,525.2,224.1L525.2,224.1z"/>
	<path id="p_730.7567454167595" class="st5" d="M611,230.1c-2.2,0-4.1-1.8-4.1-4s1.8-4.1,4-4.1l0,0c2.2,0,4.1,1.8,4.1,4
		C615,228.3,613.2,230.1,611,230.1L611,230.1z"/>
	<path id="p_771.5237452064868" class="st5" d="M615.4,379.6c-2.2,0-3.9-1.8-3.9-3.9c0-2.2,1.8-3.9,3.9-3.9l0,0
		c2.2,0,3.9,1.8,3.9,3.9C619.3,377.9,617.6,379.6,615.4,379.6L615.4,379.6z"/>
	<path id="p_749.0852019557859" class="st5" d="M521.7,388.6c-2.2,0-3.9-1.7-3.9-3.9s1.7-3.9,3.9-3.9l0,0c2.2,0,3.9,1.7,3.9,3.9
		C525.7,386.8,523.9,388.6,521.7,388.6L521.7,388.6z"/>
	<path id="p_765.8396598130706" class="st5" d="M570.5,403.1c-2.1,0-3.8-1.7-3.8-3.8s1.7-3.8,3.8-3.8s3.8,1.7,3.8,3.8
		S572.6,403.1,570.5,403.1z"/>
	<path id="p_769.9252307904112" class="st5" d="M651.4,337.6c-2.1,0-3.8-1.7-3.8-3.8c0-2.1,1.7-3.8,3.8-3.8l0,0
		c2.1,0,3.8,1.7,3.8,3.8C655.1,335.9,653.5,337.6,651.4,337.6L651.4,337.6z"/>
	<path id="p_753.4014693255094" class="st5" d="M651.5,275.1c-2,0-3.6-1.6-3.6-3.6s1.6-3.6,3.6-3.6l0,0c2,0,3.6,1.6,3.6,3.6
		S653.5,275.1,651.5,275.1L651.5,275.1z"/>
	<path id="p_704.75445829711" class="st5" d="M472.3,270.7c-2,0-3.6-1.6-3.6-3.6s1.6-3.6,3.6-3.6l0,0c2,0,3.6,1.6,3.6,3.6
		C475.9,269,474.3,270.7,472.3,270.7L472.3,270.7z"/>
	<path id="p_723.0151087170335" class="st5" d="M471.8,340.1c-2,0-3.5-1.6-3.5-3.5s1.6-3.5,3.5-3.5l0,0c2,0,3.5,1.6,3.5,3.5
		S473.8,340.1,471.8,340.1L471.8,340.1z"/>
	<path id="p_710.1303398599226" class="st5" d="M552.6,210.7c-1.9,0-3.4-1.5-3.4-3.4s1.5-3.4,3.4-3.4s3.4,1.5,3.4,3.4
		S554.5,210.7,552.6,210.7z"/>
	<path id="p_773.76857738835" class="st5" d="M628.7,374.8c-1.6,0-3-1.3-3-3s1.3-3,3-3c1.6,0,3,1.3,3,3S630.4,374.8,628.7,374.8z"/>
	<path id="p_715.3292524033452" class="st5" d="M466.4,316.4c-1.4,0-2.6-1.2-2.6-2.6s1.2-2.6,2.6-2.6s2.6,1.2,2.6,2.6
		S467.9,316.4,466.4,316.4z"/>
	<path id="p_709.2074822810471" class="st5" d="M466.6,293.2c-1.3,0-2.4-1.1-2.4-2.4s1.1-2.4,2.4-2.4s2.4,1.1,2.4,2.4
		S467.9,293.2,466.6,293.2z"/>
	<path id="p_736.803629434874" class="st5" d="M625.9,238c-1.3,0-2.3-1-2.3-2.3s1-2.3,2.3-2.3s2.3,1,2.3,2.3S627.2,238,625.9,238z"
		/>
	<path id="p_703.5466466371211" class="st5" d="M509.1,229.3c-1.1,0-1.9-0.9-1.9-1.9c0-1.1,0.9-1.9,1.9-1.9l0,0
		c1.1,0,1.9,0.9,1.9,1.9C511,228.5,510.1,229.3,509.1,229.3L509.1,229.3z"/>
	<path id="p_701.6724385974278" class="st5" d="M512.3,219c-1,0-1.9-0.8-1.9-1.9s0.8-1.9,1.9-1.9c1.1,0,1.9,0.8,1.9,1.9
		S513.3,219,512.3,219z"/>
	<path id="p_741.8095462262706" class="st5" d="M505.9,377c-0.7,0-1.3-0.6-1.3-1.3c0-0.7,0.6-1.3,1.3-1.3l0,0c0.7,0,1.3,0.6,1.3,1.3
		C507.2,376.4,506.6,377,505.9,377L505.9,377z"/>
	<path id="p_765.7835627334273" class="st6" d="M563,410.4c-59.7,0-108-48.3-108-108s48.3-108,108-108l0,0c59.7,0,108,48.3,108,108
		C671,362,622.7,410.4,563,410.4L563,410.4z"/>
	<g>
		<text transform="matrix(1 0 0 1 293.6045 59.3098)" class="st7 st8 st9">DataPier</text>
		<text transform="matrix(1 0 0 1 292.3953 76.3098)" class="st7 st8 st9">$ 368,300</text>
	</g>
	<g>
		<text transform="matrix(1 0 0 1 590.9722 130.1999)" class="st7 st8 st9">Revolution Field Strategies</text>
		<text transform="matrix(1 0 0 1 647.6285 147.1999)" class="st7 st8 st9">$ 320,000</text>
	</g>
	<text transform="matrix(1 0 0 1 405.4592 561.0864)" class="st7 st8 st9">Deloitte Transactions and Business Analytics LLP</text>
	<text transform="matrix(1 0 0 1 534.5001 578.0864)" class="st7 st8 st9">$ 947,424</text>
	<g>
		<text transform="matrix(1 0 0 1 152.0884 434.0864)" class="st7 st8 st9">America Rising Corporation</text>
		<text transform="matrix(1 0 0 1 213.7435 451.0864)" class="st7 st8 st9">$ 360,000</text>
	</g>
	<g>
		<rect x="94.5" y="89.7" class="st10" width="232.5" height="69.1"/>
		<text transform="matrix(1 0 0 1 94.5371 98.0723)" class="st11 st12 st13"> </text>
		<text transform="matrix(1 0 0 1 97.6371 98.0723)" class="st11 st14 st13">DataPier</text>
		<text transform="matrix(1 0 0 1 142.7371 98.0723)" class="st11 st12 st13"> is a leading provider of high-quality </text>
		<text transform="matrix(1 0 0 1 94.5371 112.4723)" class="st11 st12 st13">data solutions to Republican and conservative </text>
		<text transform="matrix(1 0 0 1 94.5371 126.8723)" class="st11 st12 st13">campaigns, political committees, and advocacy </text>
		<text transform="matrix(1 0 0 1 94.5371 141.2723)" class="st11 st12 st13">organizations</text>
		<text transform="matrix(1 0 0 1 163.9907 158.4531)" class="st11 st14 st15">”</text>
		<text transform="matrix(1 0 0 1 85.9907 89.4531)" class="st11 st14 st15">“</text>
	</g>
	<g>
		<rect x="60.5" y="325.7" class="st10" width="232.5" height="69.1"/>
		<text transform="matrix(1 0 0 1 60.5371 334.0723)" class="st11 st12 st13"> </text>
		<text transform="matrix(1 0 0 1 63.6371 334.0723)" class="st11 st14 st13">Diving into the numbers</text>
		<text transform="matrix(1 0 0 1 186.9907 352.4531)" class="st11 st14 st15">”</text>
		<text transform="matrix(1 0 0 1 51.9907 325.4531)" class="st11 st14 st15">“</text>
	</g>
	<g>
		<text transform="matrix(1 0 0 1 91.9907 568.4531)" class="st11 st14 st15">”</text>
		<text transform="matrix(1 0 0 1 17.9907 469.4531)" class="st11 st14 st15">“</text>
		<rect x="30" y="469.7" class="st10" width="252.9" height="98.7"/>
		<text transform="matrix(1 0 0 1 30.0479 477.9111)" class="st11 st12 st13">Our reports provide a full spectrum understanding </text>
		<text transform="matrix(1 0 0 1 30.0479 492.3111)" class="st11 st12 st13">of a candidate’s background utilizing legal docu</text>
		<text transform="matrix(1 0 0 1 266.2479 492.3111)" class="st11 st12 st13">-</text>
		<text transform="matrix(1 0 0 1 30.0479 506.7111)" class="st11 st12 st13">ments, personal financial disclosures, business </text>
		<text transform="matrix(1 0 0 1 30.0479 521.1111)" class="st11 st12 st13">records, news accounts, other open source or </text>
		<text transform="matrix(1 0 0 1 30.0479 535.5111)" class="st11 st12 st13">subscription-based datasets, as well as proprietary </text>
		<text transform="matrix(1 0 0 1 30.0479 549.9111)" class="st11 st12 st13">information</text>
	</g>
	<g>
		<g>
			<path class="st16" d="M603,234c0-56.7,10.3-88.8,28.9-90"/>
			<g>
				<polygon class="st7" points="629.1,148.6 628.3,147.9 631.5,144.2 627.6,141.2 628.2,140.4 633,144 				"/>
			</g>
		</g>
	</g>
	<g>
		<g>
			<path class="st16" d="M518,227c0-106.6-54.5-166.3-152.4-167"/>
			<g>
				<polygon class="st7" points="371,56 372.1,56.8 366.3,60 371.8,63.5 370.7,64.2 363.9,60 				"/>
			</g>
		</g>
	</g>
	<g>
		<g>
			<path class="st16" d="M501,363c-162.1,0-253.3,18.7-255.6,52.2"/>
			<g>
				<polygon class="st7" points="242.1,410.7 242.9,410 245.6,414.8 249.3,411.2 249.9,412 245.4,416.6 				"/>
			</g>
		</g>
	</g>
	<g>
		<g>
			<line class="st16" x1="487.5" y1="294.5" x2="269.8" y2="294.5"/>
			<g>
				<polygon class="st7" points="274.2,289.1 275.1,290 270.3,294.5 275.1,299 274.2,299.9 268.3,294.5 				"/>
			</g>
		</g>
	</g>
	<g>
		<text transform="matrix(1 0 0 1 145.3469 288.7993)" class="st7 st8 st9">Parscale Strategy</text>
		<text transform="matrix(1 0 0 1 165.741 305.7993)" class="st7 st8 st9">$ 2,142,889</text>
	</g>
	<g>
		<g>
			<line class="st16" x1="564.5" y1="384.5" x2="564.5" y2="539.4"/>
			<g>
				<polygon class="st7" points="560.4,536.1 561.1,535.4 564.5,539 567.9,535.4 568.6,536.1 564.5,540.5 				"/>
			</g>
		</g>
	</g>
</g>
</svg>
