<?xml version="1.0" encoding="utf-8"?>
<!-- Generator: Adobe Illustrator 26.2.1, SVG Export Plug-In . SVG Version: 6.00 Build 0)  -->
<svg version="1.1" id="Layer_1" xmlns="http://www.w3.org/2000/svg" xmlns:xlink="http://www.w3.org/1999/xlink" x="0px" y="0px"
	 viewBox="0 0 800 600" style="enable-background:new 0 0 800 600;" xml:space="preserve">
<style type="text/css">
	.st0{fill:#363636;}
	.st1{fill:none;stroke:#E6E6E6;stroke-width:3;}
	.st2{fill:none;stroke:#00B190;}
	.st3{fill:#00B190;}
	.st4{fill:#0071DF;}
	.st5{fill:none;stroke:#0071DF;}
	.st6{fill:#EA3F05;fill-opacity:0;}
	.st7{fill:none;stroke:#FFFFFF;stroke-width:1.5;stroke-miterlimit:10;}
	.st8{fill:#FFFFFF;}
	.st9{fill:none;}
	.st10{font-family:'Times-Roman';}
	.st11{font-size:15px;}
</style>
<g id="Layer_2_00000088100034308252214400000018201131868314015149_">
	<g id="Layer_2_00000020392511428631518660000011966861363460037251_">
		<rect id="backgorund_00000026163505409306668420000016670050918066018966_" class="st0" width="800" height="600"/>
	</g>
</g>
<g id="Layer_1_00000026137188442437867680000008650906721075802516_">
	<g id="Layer_1_00000126309223878423968800000016015965413076379578_">
		<g>
			<path id="p_989" class="st1" d="M400,669.9c-203,0-367.5-164.5-367.5-367.5S197-65.2,400-65.2S767.5,99.4,767.5,302.3
				S603,669.9,400,669.9z"/>
			<path id="p_762.7951817288568" class="st2" d="M427.2,360.9c-7.7,0-14-6.2-14-14s6.2-14,14-14l0,0c7.7,0,14,6.2,14,14
				S434.9,360.9,427.2,360.9L427.2,360.9z"/>
			<path id="p_763.5346414017791" class="st3" d="M431.9,357.1c-1.9,0-3.4-1.5-3.4-3.4s1.5-3.4,3.4-3.4s3.4,1.5,3.4,3.4
				S433.7,357.1,431.9,357.1z"/>
			<path id="p_752.1049459131756" class="st3" d="M422.7,352.1c-3.8,0-6.8-3.1-6.8-6.8c0-3.8,3.1-6.8,6.8-6.8s6.8,3.1,6.8,6.8
				S426.4,352.1,422.7,352.1z"/>
			<path id="p_759.4560699584389" class="st3" d="M435.2,348.7c-1.9,0-3.4-1.5-3.4-3.4s1.5-3.4,3.4-3.4s3.4,1.5,3.4,3.4
				S437.1,348.7,435.2,348.7z"/>
			<path id="p_749.8836044427812" class="st3" d="M431.5,340.5c-1.1,0-2-0.9-2-2s0.9-2,2-2s2,0.9,2,2
				C433.4,339.6,432.6,340.5,431.5,340.5z"/>
			<path id="p_743.5569096752089" class="st3" d="M427,337.1c-0.4,0-0.7-0.3-0.7-0.7c0-0.4,0.3-0.7,0.7-0.7c0.4,0,0.7,0.3,0.7,0.7
				C427.7,336.8,427.4,337.1,427,337.1z"/>
			<path id="p_736.9234809258031" class="st4" d="M441.7,314.1c-6.4,0-11.7-5.2-11.7-11.7c0-6.4,5.2-11.7,11.7-11.7
				s11.7,5.2,11.7,11.7C453.4,308.9,448.2,314.1,441.7,314.1z"/>
			<path id="p_755.683367322478" class="st4" d="M466.2,313c-5.8,0-10.5-4.7-10.5-10.5s4.7-10.5,10.5-10.5s10.5,4.7,10.5,10.5
				S472,313,466.2,313z"/>
			<path id="p_758.2352222835394" class="st4" d="M454.9,327.4c-4.3,0-7.8-3.5-7.8-7.8s3.5-7.8,7.8-7.8s7.8,3.5,7.8,7.8
				S459.2,327.4,454.9,327.4z"/>
			<path id="p_730.6730012227229" class="st4" d="M454.9,293.1c-3.9,0-7.1-3.2-7.1-7.1s3.2-7.1,7.1-7.1l0,0c3.9,0,7.1,3.2,7.1,7.1
				S458.8,293.1,454.9,293.1L454.9,293.1z"/>
			<path id="p_715.7005903537216" class="st4" d="M440.9,288.5c-2.7,0-4.8-2.2-4.8-4.8c0-2.7,2.2-4.8,4.8-4.8l0,0
				c2.7,0,4.8,2.2,4.8,4.8S443.6,288.5,440.9,288.5L440.9,288.5z"/>
			<path id="p_745.1577656089249" class="st4" d="M440.2,325.9c-2.6,0-4.8-2.1-4.8-4.8c0-2.6,2.1-4.8,4.8-4.8l0,0
				c2.6,0,4.8,2.1,4.8,4.8S442.8,325.9,440.2,325.9L440.2,325.9z"/>
			<path id="p_739.1395770597233" class="st4" d="M468.8,289.8c-2.5,0-4.5-2-4.5-4.5s2-4.5,4.5-4.5s4.5,2,4.5,4.5
				S471.3,289.8,468.8,289.8z"/>
			<path id="p_766.1892971586858" class="st4" d="M469.1,323.2c-2.3,0-4.1-1.8-4.1-4.1c0-2.3,1.8-4.1,4.1-4.1s4.1,1.8,4.1,4.1
				C473.2,321.4,471.3,323.2,469.1,323.2z"/>
			<path id="p_710.5847391957514" class="st4" d="M430.8,292.2c-2.2,0-3.9-1.7-3.9-3.9s1.7-3.9,3.9-3.9s3.9,1.7,3.9,3.9
				S433,292.2,430.8,292.2z"/>
			<path id="p_732.6194042806351" class="st4" d="M430.5,320c-2.1,0-3.8-1.7-3.8-3.8c0-2.1,1.7-3.8,3.8-3.8s3.8,1.7,3.8,3.8
				S432.6,320,430.5,320z"/>
			<path id="p_748.6396045899162" class="st4" d="M476.8,293.7c-1.6,0-2.9-1.3-2.9-2.9s1.3-2.9,2.9-2.9s2.9,1.3,2.9,2.9
				S478.3,293.7,476.8,293.7z"/>
			<path id="p_767.2166923165111" class="st4" d="M476.7,316.8c-1.5,0-2.8-1.3-2.8-2.8s1.3-2.8,2.8-2.8l0,0c1.5,0,2.8,1.3,2.8,2.8
				C479.5,315.6,478.3,316.8,476.7,316.8L476.7,316.8z"/>
			<path id="p_713.5549907627715" class="st4" d="M447.6,279.1c-1.5,0-2.7-1.2-2.7-2.7s1.2-2.7,2.7-2.7s2.7,1.2,2.7,2.7
				S449.1,279.1,447.6,279.1z"/>
			<path id="p_727.0863550931502" class="st4" d="M463.4,280.2c-1.4,0-2.6-1.2-2.6-2.6s1.2-2.6,2.6-2.6l0,0c1.4,0,2.6,1.2,2.6,2.6
				S464.8,280.2,463.4,280.2L463.4,280.2z"/>
			<path id="p_754.0385260170602" class="st4" d="M446.1,331c-1.3,0-2.4-1.1-2.4-2.4s1.1-2.4,2.4-2.4l0,0c1.3,0,2.4,1.1,2.4,2.4
				C448.6,329.9,447.5,331,446.1,331L446.1,331z"/>
			<path id="p_767.9131501845512" class="st4" d="M465.1,329.4c-1.3,0-2.4-1.1-2.4-2.4s1.1-2.4,2.4-2.4s2.4,1.1,2.4,2.4
				S466.4,329.4,465.1,329.4z"/>
			<path id="p_712.1631428853328" class="st4" d="M426.8,298.2c-1.3,0-2.4-1.1-2.4-2.4s1.1-2.4,2.4-2.4l0,0c1.3,0,2.4,1.1,2.4,2.4
				C429.1,297.1,428.1,298.2,426.8,298.2L426.8,298.2z"/>
			<path id="p_722.393748701205" class="st4" d="M426.7,311c-1.3,0-2.3-1-2.3-2.3s1-2.3,2.3-2.3l0,0c1.3,0,2.3,1,2.3,2.3
				S428,311,426.7,311L426.7,311z"/>
			<path id="p_756.179113075554" class="st4" d="M480.4,299.5c-1.2,0-2.2-1-2.2-2.2s1-2.2,2.2-2.2l0,0c1.2,0,2.2,1,2.2,2.2
				S481.6,299.5,480.4,299.5L480.4,299.5z"/>
			<path id="p_764.4760547899426" class="st4" d="M480.3,309.8c-1.2,0-2.2-1-2.2-2.2s1-2.2,2.2-2.2l0,0c1.2,0,2.2,1,2.2,2.2
				C482.5,308.9,481.5,309.8,480.3,309.8L480.3,309.8z"/>
			<path id="p_717.0199188472118" class="st4" d="M454.4,276.7c-1.1,0-2-0.9-2-2s0.9-2,2-2l0,0c1.1,0,2,0.9,2,2
				S455.5,276.7,454.4,276.7L454.4,276.7z"/>
			<path id="p_719.0276746349833" class="st4" d="M459.9,273.6c-1.1,0-2-0.9-2-2s0.9-2,2-2s2,0.9,2,2S461,273.6,459.9,273.6z"/>
			<path id="p_715.8654360467084" class="st4" d="M425.3,304.3c-1.1,0-2-0.9-2-2s0.9-2,2-2s2,0.9,2,2S426.4,304.3,425.3,304.3z"/>
			<path id="p_760.2555339377926" class="st4" d="M452.1,332.8c-0.9,0-1.7-0.8-1.7-1.7c0-0.9,0.8-1.7,1.7-1.7l0,0
				c0.9,0,1.7,0.8,1.7,1.7C453.8,332,453,332.8,452.1,332.8L452.1,332.8z"/>
			<path id="p_765.7581606623559" class="st4" d="M459.7,332c-0.9,0-1.7-0.7-1.7-1.7c0-0.9,0.7-1.7,1.7-1.7l0,0
				c0.9,0,1.7,0.7,1.7,1.7C461.4,331.3,460.6,332,459.7,332L459.7,332z"/>
			<path id="p_762.4174745880222" class="st4" d="M483.5,304.1c-0.9,0-1.6-0.7-1.6-1.6s0.7-1.6,1.6-1.6s1.6,0.7,1.6,1.6
				S484.4,304.1,483.5,304.1z"/>
			<path id="p_704.1305606759555" class="st4" d="M432.7,282.3c-0.9,0-1.6-0.7-1.6-1.6s0.7-1.6,1.6-1.6s1.6,0.7,1.6,1.6
				S433.6,282.3,432.7,282.3z"/>
			<path id="p_771.5970351522174" class="st4" d="M476.8,322.2c-0.8,0-1.5-0.7-1.5-1.5s0.7-1.5,1.5-1.5s1.5,0.7,1.5,1.5
				S477.7,322.2,476.8,322.2z"/>
			<path id="p_742.3574477750865" class="st4" d="M477,285.6c-0.8,0-1.4-0.6-1.4-1.4s0.6-1.4,1.4-1.4s1.4,0.6,1.4,1.4
				S477.8,285.6,477,285.6z"/>
			<path id="p_737.8642137138779" class="st4" d="M432,325c-0.8,0-1.4-0.6-1.4-1.4s0.6-1.4,1.4-1.4s1.4,0.6,1.4,1.4
				S432.8,325,432,325z"/>
			<path id="p_706.424273679859" class="st4" d="M441.3,276.5c-0.8,0-1.4-0.6-1.4-1.4s0.6-1.4,1.4-1.4l0,0c0.8,0,1.4,0.6,1.4,1.4
				C442.7,275.9,442.1,276.5,441.3,276.5L441.3,276.5z"/>
			<path id="p_730.7567454167595" class="st4" d="M469.6,278.5c-0.7,0-1.3-0.6-1.3-1.3s0.6-1.3,1.3-1.3l0,0c0.7,0,1.3,0.6,1.3,1.3
				C471,277.9,470.4,278.5,469.6,278.5L469.6,278.5z"/>
			<path id="p_771.5237452064868" class="st4" d="M471.1,327.9c-0.7,0-1.3-0.6-1.3-1.3c0-0.7,0.6-1.3,1.3-1.3l0,0
				c0.7,0,1.3,0.6,1.3,1.3S471.8,327.9,471.1,327.9L471.1,327.9z"/>
			<path id="p_749.0852019557859" class="st4" d="M440.2,330.8c-0.7,0-1.3-0.6-1.3-1.3c0-0.7,0.6-1.3,1.3-1.3l0,0
				c0.7,0,1.3,0.6,1.3,1.3S440.9,330.8,440.2,330.8L440.2,330.8z"/>
			<path id="p_765.8396598130706" class="st4" d="M456.3,335.6c-0.7,0-1.3-0.6-1.3-1.3c0-0.7,0.6-1.3,1.3-1.3c0.7,0,1.3,0.6,1.3,1.3
				C457.5,335,457,335.6,456.3,335.6z"/>
			<path id="p_769.9252307904112" class="st4" d="M483,314c-0.7,0-1.2-0.6-1.2-1.2c0-0.7,0.6-1.2,1.2-1.2l0,0c0.7,0,1.2,0.6,1.2,1.2
				S483.6,314,483,314L483,314z"/>
			<path id="p_753.4014693255094" class="st4" d="M483,293.4c-0.7,0-1.2-0.5-1.2-1.2s0.5-1.2,1.2-1.2l0,0c0.7,0,1.2,0.5,1.2,1.2
				C484.2,292.8,483.6,293.4,483,293.4L483,293.4z"/>
			<path id="p_704.75445829711" class="st4" d="M423.9,291.9c-0.7,0-1.2-0.5-1.2-1.2s0.5-1.2,1.2-1.2l0,0c0.7,0,1.2,0.5,1.2,1.2
				S424.5,291.9,423.9,291.9L423.9,291.9z"/>
			<path id="p_723.0151087170335" class="st4" d="M423.7,314.8c-0.6,0-1.2-0.5-1.2-1.2c0-0.6,0.5-1.2,1.2-1.2l0,0
				c0.6,0,1.2,0.5,1.2,1.2C424.9,314.3,424.4,314.8,423.7,314.8L423.7,314.8z"/>
			<path id="p_710.1303398599226" class="st4" d="M450.3,272.1c-0.6,0-1.1-0.5-1.1-1.1s0.5-1.1,1.1-1.1s1.1,0.5,1.1,1.1
				C451.5,271.6,451,272.1,450.3,272.1z"/>
			<path id="p_773.76857738835" class="st4" d="M475.5,326.2c-0.5,0-1-0.4-1-1s0.4-1,1-1s1,0.4,1,1S476,326.2,475.5,326.2z"/>
			<path id="p_715.3292524033452" class="st4" d="M421.9,307c-0.5,0-0.8-0.4-0.8-0.8c0-0.5,0.4-0.8,0.8-0.8c0.5,0,0.8,0.4,0.8,0.8
				C422.8,306.6,422.4,307,421.9,307z"/>
			<path id="p_709.2074822810471" class="st4" d="M422,299.3c-0.4,0-0.8-0.4-0.8-0.8s0.4-0.8,0.8-0.8s0.8,0.4,0.8,0.8
				C422.8,299,422.4,299.3,422,299.3z"/>
			<path id="p_736.803629434874" class="st4" d="M474.6,281.1c-0.4,0-0.8-0.3-0.8-0.8c0-0.4,0.3-0.8,0.8-0.8s0.8,0.3,0.8,0.8
				C475.3,280.8,475,281.1,474.6,281.1z"/>
			<path id="p_703.5466466371211" class="st4" d="M436,278.3c-0.3,0-0.6-0.3-0.6-0.6c0-0.3,0.3-0.6,0.6-0.6l0,0
				c0.3,0,0.6,0.3,0.6,0.6S436.3,278.3,436,278.3L436,278.3z"/>
			<path id="p_701.6724385974278" class="st4" d="M437.1,274.8c-0.3,0-0.6-0.3-0.6-0.6c0-0.3,0.3-0.6,0.6-0.6c0.3,0,0.6,0.3,0.6,0.6
				C437.7,274.6,437.4,274.8,437.1,274.8z"/>
			<path id="p_741.8095462262706" class="st4" d="M434.9,327c-0.2,0-0.4-0.2-0.4-0.4c0-0.2,0.2-0.4,0.4-0.4l0,0
				c0.2,0,0.4,0.2,0.4,0.4C435.4,326.8,435.2,327,434.9,327L434.9,327z"/>
			<path id="p_765.7835627334273" class="st5" d="M453.8,338c-19.7,0-35.6-16-35.7-35.6c0-19.7,16-35.6,35.6-35.7l0,0
				c19.7,0,35.6,16,35.7,35.6C489.4,322,473.5,338,453.8,338L453.8,338z"/>
		</g>
		<path id="p_706.7043493088528" class="st6" d="M227.6,490.6c-103.9,0-188.2-84.2-188.2-188.2c0-103.9,84.2-188.2,188.2-188.2h0.1
			c103.9,0,188.2,84.2,188.2,188.2S331.6,490.5,227.6,490.6C227.7,490.6,227.6,490.6,227.6,490.6z"/>
	</g>
</g>
<g>
	<g>
		<path class="st7" d="M455.7,259c0-18.5,15.6-33.6,35.1-34.4"/>
		<g>
			<polygon class="st8" points="486.3,231.2 485.2,230.2 490.2,224.8 484.4,220.2 485.4,219 492.4,224.6 			"/>
		</g>
	</g>
</g>
<rect x="499.3" y="217.3" class="st9" width="109.6" height="41.9"/>
<rect x="308.3" y="402.6" class="st9" width="109.6" height="41.9"/>
<g>
	<g>
		<path class="st7" d="M427.7,369.9c0,20.7-15.8,37.5-35.7,38.4"/>
		<g>
			<polygon class="st8" points="396.5,401.7 397.6,402.7 392.6,408.2 398.4,412.7 397.5,413.9 390.4,408.3 			"/>
		</g>
	</g>
</g>
<rect x="500.1" y="217.9" class="st9" width="124" height="37.6"/>
<text transform="matrix(1 0 0 1 500.0791 228.1094)"><tspan x="0" y="0" class="st8 st10 st11">Consulting spending </tspan><tspan x="0" y="18" class="st8 st10 st11">$9,152,462</tspan></text>
<rect x="297.1" y="401.4" class="st9" width="89" height="32.8"/>
<text transform="matrix(1 0 0 1 297.1499 411.6699)"><tspan x="0" y="0" class="st8 st10 st11">Data spending </tspan><tspan x="0" y="18" class="st8 st10 st11">$1,168,220</tspan></text>
</svg>
