<?xml version="1.0" encoding="utf-8"?>
<!-- Generator: Adobe Illustrator 26.1.0, SVG Export Plug-In . SVG Version: 6.00 Build 0)  -->
<svg version="1.1" xmlns="http://www.w3.org/2000/svg" xmlns:xlink="http://www.w3.org/1999/xlink" x="0px" y="0px"
	 viewBox="0 0 800 600" style="enable-background:new 0 0 800 600;" xml:space="preserve">
<style type="text/css">
	.st0{fill:#363636;}
	.st1{fill:#E6E6E6;}
	.st2{fill:#C1272D;}
	.st3{fill:#0000A7;}
	.st4{fill:#FFFFFF;}
	.st5{fill:none;}
	.st6{font-family:'Verdana-Bold';}
	.st7{font-size:120px;}
	.st8{letter-spacing:12;}
</style>
<g id="Layer_2">
	<g id="Layer_1_00000031174375475565778330000008174323079604141215_">
		<g id="Layer_2_00000049183698155922643360000009788704119052866236_">
			<rect id="backgorund_00000090980594169175793890000009759078189875683470_" class="st0" width="800" height="600"/>
		</g>
	</g>
</g>
<g id="Layer_1">
	<g id="Layer_3">
		<circle class="st1" cx="400" cy="302.4" r="247.5"/>
	</g>
	<g id="Layer_2_00000045582276682705326530000014495773453249644958_">
		<g>
			<path class="st2" d="M629.6,209.9C593,119,504,54.9,400,54.9s-193,64.1-229.6,155H629.6z"/>
			<path class="st3" d="M170.4,394.8c36.6,90.9,125.6,155,229.6,155s193-64.1,229.6-155H170.4z"/>
		</g>
	</g>
	<g>
		<polygon class="st4" points="400,84.3 412.8,110.2 441.3,114.3 420.6,134.5 425.5,162.9 400,149.4 374.5,162.9 379.4,134.5 
			358.7,114.3 387.2,110.2 		"/>
		<polygon class="st4" points="283.6,121 294.6,143.3 319.3,146.9 301.4,164.3 305.7,188.9 283.6,177.3 261.6,188.9 265.8,164.3 
			247.9,146.9 272.6,143.3 		"/>
		<polygon class="st4" points="513.6,121 524.6,143.3 549.3,146.9 531.4,164.3 535.7,188.9 513.6,177.3 491.6,188.9 495.8,164.3 
			477.9,146.9 502.6,143.3 		"/>
	</g>
	<g>
		<polygon class="st4" points="408,445.3 420.8,471.2 449.3,475.3 428.6,495.5 433.5,523.9 408,510.4 382.5,523.9 387.4,495.5 
			366.7,475.3 395.2,471.2 		"/>
		<polygon class="st4" points="291.6,420 302.6,442.3 327.3,445.9 309.4,463.3 313.7,487.9 291.6,476.3 269.6,487.9 273.8,463.3 
			255.9,445.9 280.6,442.3 		"/>
		<polygon class="st4" points="521.6,420 532.6,442.3 557.3,445.9 539.4,463.3 543.7,487.9 521.6,476.3 499.6,487.9 503.8,463.3 
			485.9,445.9 510.6,442.3 		"/>
	</g>
	<rect x="181.3" y="254.7" class="st5" width="437.4" height="95.4"/>
	<text transform="matrix(1 0 0 1 224.2892 343.2205)" class="st6 st7 st8">VOTE</text>
</g>
</svg>
