<?xml version="1.0" encoding="utf-8"?>
<!-- Generator: Adobe Illustrator 26.1.0, SVG Export Plug-In . SVG Version: 6.00 Build 0)  -->
<svg version="1.1" xmlns="http://www.w3.org/2000/svg" xmlns:xlink="http://www.w3.org/1999/xlink" x="0px" y="0px"
	 viewBox="0 0 800 600" style="enable-background:new 0 0 800 600;" xml:space="preserve">
<style type="text/css">
	.st0{fill:#363636;}
	.st1{fill:none;stroke:#E6E6E6;stroke-width:3;}
	.st2{fill:none;stroke:#288197;stroke-width:1.5;}
	.st3{opacity:0.2;fill:none;stroke:#EA3F05;}
	.st4{opacity:0.2;fill:none;stroke:#0071DF;}
	.st5{opacity:0.2;fill:none;stroke:#00B190;}
	.st6{opacity:0.2;fill:#EA3F05;}
	.st7{opacity:0.2;fill:#0071DF;}
	.st8{opacity:0.2;fill:#00B190;}
</style>
<g id="Layer_2">
	<g id="Layer_1_00000074443810901548375580000000704652430368636077_">
		<g id="Layer_2_00000119835287358818977800000010011345726236806834_">
			<g id="Layer_2_00000059296210884913143700000008049686614016952230_">
				
					<rect id="backgorund_00000166668763924785517830000009863370107206822024_" x="-1.1" y="0.1" class="st0" width="800" height="600"/>
			</g>
		</g>
	</g>
</g>
<g id="Layer_1">
	<g>
		<path id="p_989" class="st1" d="M400,615.5c-172.9,0-313.1-140.1-313.1-313.1S227.1-10.8,400-10.8s313.1,140.1,313.1,313.1
			S572.9,615.5,400,615.5z"/>
		<path id="p_767.6390129983421" class="st2" d="M284.5,496c-106.9,0-193.6-86.7-193.6-193.6s86.7-193.6,193.6-193.6
			s193.6,86.7,193.6,193.6S391.4,496,284.5,496z"/>
		<path id="p_706.7043493088528" class="st3" d="M253.1,462.7c-88.5,0-160.4-71.7-160.4-160.3S164.6,142,253,142c0,0,0,0,0.1,0
			c88.6,0,160.4,71.7,160.4,160.3S341.8,462.7,253.1,462.7L253.1,462.7z"/>
		<path id="p_765.7835627334273" class="st4" d="M445.9,332.7c-16.7,0-30.4-13.6-30.4-30.4c0-16.7,13.6-30.4,30.4-30.4l0,0
			c16.7,0,30.4,13.6,30.4,30.4C476.2,319.1,462.6,332.7,445.9,332.7L445.9,332.7z"/>
		<path id="p_762.7951817288568" class="st5" d="M423.1,352.2c-6.6,0-11.9-5.3-11.9-11.9c0-6.6,5.3-11.9,11.9-11.9l0,0
			c6.6,0,11.9,5.3,11.9,11.9C435.1,346.8,429.7,352.2,423.1,352.2L423.1,352.2z"/>
		<path id="p_689.9466261923606" class="st6" d="M245.2,452.8c-83,0-150.5-67.3-150.5-150.5s67.3-150.5,150.5-150.5l0,0
			c83.1,0,150.5,67.3,150.5,150.5S328.4,452.8,245.2,452.8L245.2,452.8z"/>
		<path id="p_704.8488990439379" class="st6" d="M404.6,309.2c-3.9,0-6.9-3.1-6.9-6.9s3.1-6.9,6.9-6.9c3.8,0,6.9,3.1,6.9,6.9
			C411.5,306.1,408.4,309.2,404.6,309.2z"/>
		<path id="p_707.3997194758008" class="st6" d="M400.2,316.4c-1.6,0-3-1.3-3-3s1.3-3,3-3l0,0c1.7,0,3,1.3,3,3
			C403.2,315.1,401.9,316.4,400.2,316.4L400.2,316.4z"/>
		<path id="p_686.5570471010649" class="st6" d="M400.1,294.4c-1.5,0-2.8-1.2-2.8-2.8c0-1.5,1.2-2.8,2.8-2.8c1.5,0,2.8,1.2,2.8,2.8
			C402.9,293.2,401.6,294.4,400.1,294.4z"/>
		<path id="p_736.9234809258031" class="st7" d="M435.5,312.3c-5.5,0-9.9-4.4-9.9-9.9s4.4-9.9,9.9-9.9s9.9,4.4,9.9,9.9
			S441,312.3,435.5,312.3z"/>
		<path id="p_755.683367322478" class="st7" d="M456.4,311.4c-5,0-9-4.1-9-9c0-5,4.1-9,9-9c4.9,0,9,4.1,9,9
			C465.5,307.4,461.4,311.4,456.4,311.4z"/>
		<path id="p_758.2352222835394" class="st7" d="M446.9,323.7c-3.6,0-6.6-3-6.6-6.6s3-6.6,6.6-6.6c3.6,0,6.6,3,6.6,6.6
			S450.5,323.7,446.9,323.7z"/>
		<path id="p_730.6730012227229" class="st7" d="M446.8,294.5c-3.3,0-6-2.8-6-6c0-3.3,2.8-6.1,6-6.1l0,0c3.3,0,6,2.8,6,6.1
			C452.8,291.7,450.2,294.5,446.8,294.5L446.8,294.5z"/>
		<path id="p_715.7005903537216" class="st7" d="M434.9,290.5c-2.3,0-4.1-1.9-4.1-4.1c0-2.2,1.9-4.1,4.1-4.1l0,0
			c2.3,0,4.1,1.9,4.1,4.1C438.9,288.7,437.1,290.5,434.9,290.5L434.9,290.5z"/>
		<path id="p_745.1577656089249" class="st7" d="M434.2,322.4c-2.2,0-4.1-1.9-4.1-4.1c0-2.2,1.9-4.1,4.1-4.1l0,0
			c2.2,0,4.1,1.9,4.1,4.1C438.3,320.6,436.5,322.4,434.2,322.4L434.2,322.4z"/>
		<path id="p_739.1395770597233" class="st7" d="M458.6,291.6c-2.1,0-3.8-1.8-3.8-3.9c0-2.1,1.8-3.8,3.8-3.8c2.1,0,3.9,1.8,3.9,3.8
			C462.5,289.9,460.7,291.6,458.6,291.6z"/>
		<path id="p_766.1892971586858" class="st7" d="M458.9,320.1c-1.9,0-3.5-1.5-3.5-3.5c0-2,1.5-3.5,3.5-3.5s3.5,1.5,3.5,3.5
			C462.4,318.6,460.7,320.1,458.9,320.1z"/>
		<path id="p_710.5847391957514" class="st7" d="M426.3,293.7c-1.9,0-3.3-1.5-3.3-3.3s1.5-3.3,3.3-3.3c1.8,0,3.3,1.5,3.3,3.3
			S428.2,293.7,426.3,293.7z"/>
		<path id="p_732.6194042806351" class="st7" d="M426,317.4c-1.8,0-3.2-1.4-3.2-3.2s1.4-3.2,3.2-3.2c1.8,0,3.2,1.4,3.2,3.2
			S427.7,317.4,426,317.4z"/>
		<path id="p_748.6396045899162" class="st7" d="M465.3,294.9c-1.3,0-2.4-1.1-2.4-2.4c0-1.3,1.1-2.4,2.4-2.4s2.4,1.1,2.4,2.4
			C467.8,293.8,466.8,294.9,465.3,294.9z"/>
		<path id="p_767.2166923165111" class="st7" d="M465.3,314.7c-1.3,0-2.4-1.1-2.4-2.4s1.1-2.4,2.4-2.4l0,0c1.3,0,2.4,1.1,2.4,2.4
			S466.7,314.7,465.3,314.7L465.3,314.7z"/>
		<path id="p_713.5549907627715" class="st7" d="M440.5,282.6c-1.3,0-2.3-1-2.3-2.3s1-2.3,2.3-2.3s2.3,1,2.3,2.3
			C442.8,281.5,441.8,282.6,440.5,282.6z"/>
		<path id="p_727.0863550931502" class="st7" d="M454,283.5c-1.2,0-2.2-1-2.2-2.2c0-1.2,1-2.2,2.2-2.2l0,0c1.2,0,2.2,1,2.2,2.2
			C456.2,282.5,455.2,283.5,454,283.5L454,283.5z"/>
		<path id="p_754.0385260170602" class="st7" d="M439.3,326.7c-1.1,0-2.1-0.9-2.1-2.1c0-1.1,0.9-2.1,2.1-2.1l0,0
			c1.1,0,2.1,0.9,2.1,2.1C441.4,325.8,440.5,326.7,439.3,326.7L439.3,326.7z"/>
		<path id="p_767.9131501845512" class="st7" d="M455.4,325.4c-1.1,0-2.1-0.9-2.1-2.1c0-1.1,0.9-2.1,2.1-2.1c1.1,0,2.1,0.9,2.1,2.1
			C457.5,324.4,456.5,325.4,455.4,325.4z"/>
		<path id="p_712.1631428853328" class="st7" d="M422.8,298.8c-1.1,0-2.1-0.9-2.1-2.1c0-1.1,0.9-2.1,2.1-2.1l0,0
			c1.1,0,2.1,0.9,2.1,2.1C424.9,297.9,423.9,298.8,422.8,298.8L422.8,298.8z"/>
		<path id="p_722.393748701205" class="st7" d="M422.8,309.7c-1.1,0-2-0.9-2-2c0-1.1,0.9-2,2-2l0,0c1.1,0,2,0.9,2,2
			C424.8,308.8,423.9,309.7,422.8,309.7L422.8,309.7z"/>
		<path id="p_756.179113075554" class="st7" d="M468.4,299.9c-1,0-1.9-0.9-1.9-1.9c0-1,0.9-1.9,1.9-1.9l0,0c1,0,1.9,0.9,1.9,1.9
			C470.3,299,469.5,299.9,468.4,299.9L468.4,299.9z"/>
		<path id="p_764.4760547899426" class="st7" d="M468.4,308.8c-1,0-1.9-0.9-1.9-1.9c0-1,0.9-1.9,1.9-1.9l0,0c1,0,1.9,0.9,1.9,1.9
			S469.4,308.8,468.4,308.8L468.4,308.8z"/>
		<path id="p_717.0199188472118" class="st7" d="M446.3,280.5c-1,0-1.8-0.8-1.8-1.8s0.8-1.8,1.8-1.8l0,0c1,0,1.8,0.8,1.8,1.8
			S447.3,280.5,446.3,280.5L446.3,280.5z"/>
		<path id="p_719.0276746349833" class="st7" d="M451,277.9c-1,0-1.7-0.8-1.7-1.6c0-1,0.8-1.6,1.7-1.6c1,0,1.6,0.8,1.6,1.6
			S452,277.9,451,277.9z"/>
		<path id="p_715.8654360467084" class="st7" d="M421.6,303.9c-0.9,0-1.6-0.8-1.6-1.6c0-0.9,0.8-1.6,1.6-1.6c0.9,0,1.7,0.8,1.7,1.6
			C423.2,303.2,422.4,303.9,421.6,303.9z"/>
		<path id="p_760.2555339377926" class="st7" d="M444.3,328.3c-0.8,0-1.4-0.7-1.4-1.4c0-0.8,0.7-1.4,1.4-1.4l0,0
			c0.8,0,1.4,0.7,1.4,1.4C445.9,327.6,445.2,328.3,444.3,328.3L444.3,328.3z"/>
		<path id="p_765.7581606623559" class="st7" d="M450.8,327.6c-0.8,0-1.4-0.7-1.4-1.4c0-0.8,0.7-1.4,1.4-1.4l0,0
			c0.8,0,1.4,0.7,1.4,1.4C452.2,327,451.6,327.6,450.8,327.6L450.8,327.6z"/>
		<path id="p_762.4174745880222" class="st7" d="M471.2,303.8c-0.8,0-1.3-0.7-1.3-1.3c0-0.8,0.7-1.3,1.3-1.3c0.8,0,1.3,0.7,1.3,1.3
			C472.5,303.2,471.8,303.8,471.2,303.8z"/>
		<path id="p_704.1305606759555" class="st7" d="M427.8,285.2c-0.8,0-1.3-0.6-1.3-1.3c0-0.8,0.5-1.3,1.3-1.3s1.3,0.6,1.3,1.3
			C429.1,284.7,428.6,285.2,427.8,285.2z"/>
		<path id="p_771.5970351522174" class="st7" d="M465.5,319.2c-0.7,0-1.3-0.5-1.3-1.3c0-0.7,0.6-1.3,1.3-1.3c0.7,0,1.3,0.5,1.3,1.3
			S466.2,319.2,465.5,319.2z"/>
		<path id="p_742.3574477750865" class="st7" d="M465.6,288.1c-0.7,0-1.2-0.5-1.2-1.2s0.5-1.2,1.2-1.2s1.2,0.6,1.2,1.2
			S466.2,288.1,465.6,288.1z"/>
		<path id="p_737.8642137138779" class="st7" d="M427.3,321.7c-0.7,0-1.2-0.6-1.2-1.2s0.6-1.2,1.2-1.2s1.2,0.5,1.2,1.2
			S427.9,321.7,427.3,321.7z"/>
		<path id="p_706.424273679859" class="st7" d="M435.2,280.3c-0.7,0-1.2-0.5-1.2-1.2s0.6-1.2,1.2-1.2l0,0c0.7,0,1.2,0.6,1.2,1.2
			C436.4,279.9,435.9,280.3,435.2,280.3L435.2,280.3z"/>
		<path id="p_730.7567454167595" class="st7" d="M459.3,282.1c-0.7,0-1.1-0.5-1.1-1.1c0-0.7,0.5-1.1,1.1-1.1l0,0
			c0.7,0,1.1,0.6,1.1,1.1C460.5,281.5,460,282.1,459.3,282.1L459.3,282.1z"/>
		<path id="p_771.5237452064868" class="st7" d="M460.5,324.1c-0.7,0-1.1-0.6-1.1-1.1c0-0.7,0.6-1.1,1.1-1.1l0,0
			c0.7,0,1.1,0.6,1.1,1.1S461.2,324.1,460.5,324.1L460.5,324.1z"/>
		<path id="p_749.0852019557859" class="st7" d="M434.2,326.6c-0.7,0-1.1-0.4-1.1-1.1s0.4-1.1,1.1-1.1l0,0c0.7,0,1.1,0.4,1.1,1.1
			C435.3,326.1,434.9,326.6,434.2,326.6L434.2,326.6z"/>
		<path id="p_765.8396598130706" class="st7" d="M448,330.7c-0.6,0-1.1-0.4-1.1-1.1c0-0.6,0.4-1.1,1.1-1.1c0.5,0,1.1,0.4,1.1,1.1
			C449,330.1,448.5,330.7,448,330.7z"/>
		<path id="p_769.9252307904112" class="st7" d="M470.6,312.3c-0.6,0-1.1-0.4-1.1-1.1c0-0.5,0.4-1.1,1.1-1.1l0,0
			c0.5,0,1.1,0.4,1.1,1.1C471.7,311.8,471.3,312.3,470.6,312.3L470.6,312.3z"/>
		<path id="p_753.4014693255094" class="st7" d="M470.7,294.7c-0.5,0-1-0.4-1-1c0-0.5,0.4-1,1-1l0,0c0.6,0,1,0.4,1,1
			C471.7,294.3,471.3,294.7,470.7,294.7L470.7,294.7z"/>
		<path id="p_704.75445829711" class="st7" d="M420.4,293.4c-0.6,0-1-0.4-1-1s0.4-1,1-1l0,0c0.5,0,1,0.4,1,1
			C421.3,292.9,420.9,293.4,420.4,293.4L420.4,293.4z"/>
		<path id="p_723.0151087170335" class="st7" d="M420.2,313c-0.5,0-1-0.4-1-1s0.4-1,1-1l0,0c0.6,0,1,0.4,1,1S420.8,313,420.2,313
			L420.2,313z"/>
		<path id="p_710.1303398599226" class="st7" d="M442.9,276.6c-0.5,0-1-0.4-1-1s0.4-1,1-1c0.6,0,1,0.4,1,1S443.5,276.6,442.9,276.6z
			"/>
		<path id="p_773.76857738835" class="st7" d="M464.4,322.8c-0.4,0-0.9-0.3-0.9-0.9c0-0.4,0.3-0.9,0.9-0.9c0.4,0,0.9,0.3,0.9,0.9
			C465.1,322.3,464.8,322.8,464.4,322.8z"/>
		<path id="p_715.3292524033452" class="st7" d="M418.7,306.3c-0.4,0-0.8-0.3-0.8-0.8c0-0.4,0.3-0.8,0.8-0.8c0.4,0,0.8,0.3,0.8,0.8
			C419.4,305.9,419,306.3,418.7,306.3z"/>
		<path id="p_709.2074822810471" class="st7" d="M418.7,299.8c-0.3,0-0.7-0.3-0.7-0.7c0-0.3,0.3-0.7,0.7-0.7s0.7,0.3,0.7,0.7
			C419.4,299.4,419.1,299.8,418.7,299.8z"/>
		<path id="p_736.803629434874" class="st7" d="M463.5,284.3c-0.3,0-0.7-0.3-0.7-0.7c0-0.3,0.3-0.7,0.7-0.7c0.3,0,0.7,0.3,0.7,0.7
			C464.1,283.9,463.9,284.3,463.5,284.3z"/>
		<path id="p_703.5466466371211" class="st7" d="M430.7,281.8c-0.3,0-0.6-0.2-0.6-0.6s0.2-0.5,0.6-0.5l0,0c0.3,0,0.5,0.2,0.5,0.5
			S430.9,281.8,430.7,281.8L430.7,281.8z"/>
		<path id="p_701.6724385974278" class="st7" d="M431.6,278.9c-0.3,0-0.5-0.2-0.5-0.5s0.2-0.5,0.5-0.5s0.6,0.2,0.6,0.5
			S431.9,278.9,431.6,278.9z"/>
		<path id="p_741.8095462262706" class="st7" d="M429.8,323.3c-0.2,0-0.3-0.2-0.3-0.3c0-0.2,0.2-0.3,0.3-0.3l0,0
			c0.2,0,0.3,0.2,0.3,0.3C430.1,323.2,429.9,323.3,429.8,323.3L429.8,323.3z"/>
		<path id="p_752.1049459131756" class="st8" d="M419.2,344.8c-3.2,0-5.8-2.6-5.8-5.8c0-3.2,2.6-5.8,5.8-5.8s5.8,2.6,5.8,5.8
			C425.1,342.1,422.5,344.8,419.2,344.8z"/>
		<path id="p_759.4560699584389" class="st8" d="M430,341.8c-1.7,0-3-1.3-3-3s1.3-3,3-3c1.6,0,3,1.3,3,3S431.6,341.8,430,341.8z"/>
		<path id="p_763.5346414017791" class="st8" d="M427.2,348.9c-1.5,0-2.9-1.3-2.9-2.9c0-1.5,1.3-2.9,2.9-2.9c1.5,0,2.9,1.3,2.9,2.9
			C430,347.6,428.7,348.9,427.2,348.9z"/>
		<path id="p_749.8836044427812" class="st8" d="M426.8,334.9c-0.9,0-1.6-0.8-1.6-1.6c0-0.9,0.8-1.6,1.6-1.6s1.6,0.8,1.6,1.6
			C428.5,334.1,427.7,334.9,426.8,334.9z"/>
		<path id="p_743.5569096752089" class="st8" d="M423,332c-0.3,0-0.7-0.3-0.7-0.7c0-0.3,0.3-0.7,0.7-0.7c0.3,0,0.7,0.3,0.7,0.7
			S423.3,332,423,332z"/>
	</g>
</g>
</svg>
