<?xml version="1.0" encoding="utf-8"?>
<!-- Generator: Adobe Illustrator 26.1.0, SVG Export Plug-In . SVG Version: 6.00 Build 0)  -->
<svg version="1.1" xmlns="http://www.w3.org/2000/svg" xmlns:xlink="http://www.w3.org/1999/xlink" x="0px" y="0px"
	 viewBox="0 0 800 600" style="enable-background:new 0 0 800 600;" xml:space="preserve">
<style type="text/css">
	.st0{fill:#363636;}
	.st1{opacity:0.2;fill:none;stroke:#00B190;enable-background:new    ;}
	.st2{opacity:0.2;fill:#EA3F05;enable-background:new    ;}
	.st3{opacity:0.2;fill:#0071DF;enable-background:new    ;}
	.st4{opacity:0.2;fill:#00B190;enable-background:new    ;}
	.st5{fill:#288197;stroke:#288197;stroke-width:1.5;}
	.st6{fill:none;stroke:#E6E6E6;stroke-width:3;}
	.st7{fill:#FFFFFF;}
	.st8{font-family:'Verdana-Bold';}
	.st9{font-size:19.8px;}
	.st10{fill:none;}
	.st11{font-family:'Times-Roman';}
	.st12{font-size:18.9px;}
</style>
<g id="Layer_2">
	<g id="Layer_3_00000060731047167680794220000014845704592168324750_">
		<g id="Layer_2_00000134218153568104495580000017888189410301901223_">
			<g id="Layer_1_00000099663924970637041040000017571507284291408793_">
				<g id="Layer_2_00000137122515416361888850000000553579347018848671_">
					<g id="Layer_2_00000160912438165169224760000015005302745502489491_">
						
							<rect id="backgorund_00000029732311992683323440000013031801331165680038_" x="0" y="-1" class="st0" width="800" height="600"/>
					</g>
				</g>
			</g>
		</g>
	</g>
</g>
<g id="Layer_1">
	<g id="Layer_2_00000108268927183326300270000016932906260037681846_">
	</g>
	<g id="Layer_1_00000183954035107114926500000001847892624246315649_">
		<path id="p_762.7951817288568" class="st1" d="M420.8,347.2c-5.9,0-10.7-4.8-10.7-10.7c0-5.9,4.8-10.7,10.7-10.7l0,0
			c5.9,0,10.7,4.8,10.7,10.7C431.6,342.3,426.7,347.2,420.8,347.2L420.8,347.2z"/>
		<path id="p_704.8488990439379" class="st2" d="M404.1,308.5c-3.5,0-6.2-2.8-6.2-6.2s2.8-6.2,6.2-6.2s6.2,2.8,6.2,6.2
			S407.6,308.5,404.1,308.5z"/>
		<path id="p_707.3997194758008" class="st2" d="M400.2,315c-1.4,0-2.7-1.2-2.7-2.7c0-1.5,1.2-2.7,2.7-2.7l0,0
			c1.5,0,2.7,1.2,2.7,2.7C402.9,313.8,401.7,315,400.2,315L400.2,315z"/>
		<path id="p_686.5570471010649" class="st2" d="M400.1,295.2c-1.4,0-2.5-1.1-2.5-2.5c0-1.4,1.1-2.5,2.5-2.5c1.4,0,2.5,1.1,2.5,2.5
			C402.6,294.1,401.4,295.2,400.1,295.2z"/>
		<path id="p_736.9234809258031" class="st3" d="M432,311.3c-5,0-8.9-4-8.9-8.9c0-4.9,4-8.9,8.9-8.9c4.9,0,8.9,4,8.9,8.9
			C440.9,307.3,436.9,311.3,432,311.3z"/>
		<path id="p_755.683367322478" class="st3" d="M450.8,310.5c-4.5,0-8.1-3.7-8.1-8.1c0-4.5,3.7-8.1,8.1-8.1c4.4,0,8.1,3.7,8.1,8.1
			C459,306.9,455.3,310.5,450.8,310.5z"/>
		<path id="p_758.2352222835394" class="st3" d="M442.2,321.6c-3.2,0-5.9-2.7-5.9-5.9c0-3.2,2.7-5.9,5.9-5.9c3.2,0,5.9,2.7,5.9,5.9
			C448.1,318.9,445.5,321.6,442.2,321.6z"/>
		<path id="p_730.6730012227229" class="st3" d="M442.1,295.3c-3,0-5.4-2.5-5.4-5.4c0-3,2.5-5.5,5.4-5.5l0,0c3,0,5.4,2.5,5.4,5.5
			C447.5,292.8,445.2,295.3,442.1,295.3L442.1,295.3z"/>
		<path id="p_715.7005903537216" class="st3" d="M431.4,291.7c-2.1,0-3.7-1.7-3.7-3.7s1.7-3.7,3.7-3.7l0,0c2.1,0,3.7,1.7,3.7,3.7
			C435,290.1,433.4,291.7,431.4,291.7L431.4,291.7z"/>
		<path id="p_745.1577656089249" class="st3" d="M430.8,320.4c-2,0-3.7-1.7-3.7-3.7s1.7-3.7,3.7-3.7l0,0c2,0,3.7,1.7,3.7,3.7
			C434.5,318.8,432.9,320.4,430.8,320.4L430.8,320.4z"/>
		<path id="p_739.1395770597233" class="st3" d="M452.7,292.7c-1.9,0-3.4-1.6-3.4-3.5c0-1.9,1.6-3.4,3.4-3.4c1.9,0,3.5,1.6,3.5,3.4
			C456.2,291.1,454.6,292.7,452.7,292.7z"/>
		<path id="p_766.1892971586858" class="st3" d="M453,318.3c-1.7,0-3.2-1.4-3.2-3.1c0-1.8,1.4-3.1,3.2-3.1c1.8,0,3.1,1.3,3.1,3.1
			C456.2,317,454.6,318.3,453,318.3z"/>
		<path id="p_710.5847391957514" class="st3" d="M423.7,294.6c-1.7,0-3-1.3-3-3s1.3-3,3-3s3,1.4,3,3S425.4,294.6,423.7,294.6z"/>
		<path id="p_732.6194042806351" class="st3" d="M423.4,315.9c-1.6,0-2.9-1.3-2.9-2.9s1.3-2.9,2.9-2.9c1.6,0,2.9,1.3,2.9,2.9
			S424.9,315.9,423.4,315.9z"/>
		<path id="p_748.6396045899162" class="st3" d="M458.8,295.6c-1.2,0-2.2-1-2.2-2.2c0-1.2,1-2.2,2.2-2.2s2.2,1,2.2,2.2
			C461,294.6,460.1,295.6,458.8,295.6z"/>
		<path id="p_767.2166923165111" class="st3" d="M458.8,313.5c-1.2,0-2.2-1-2.2-2.2s1-2.2,2.2-2.2l0,0c1.2,0,2.2,1,2.2,2.2
			S460,313.5,458.8,313.5L458.8,313.5z"/>
		<path id="p_713.5549907627715" class="st3" d="M436.5,284.6c-1.2,0-2.1-0.9-2.1-2.1c0-1.2,0.9-2.1,2.1-2.1c1.2,0,2.1,0.9,2.1,2.1
			C438.5,283.6,437.6,284.6,436.5,284.6z"/>
		<path id="p_727.0863550931502" class="st3" d="M448.6,285.4c-1.1,0-2-0.9-2-2s0.9-2,2-2l0,0c1.1,0,2,0.9,2,2
			S449.7,285.4,448.6,285.4L448.6,285.4z"/>
		<path id="p_754.0385260170602" class="st3" d="M435.4,324.3c-1,0-1.9-0.8-1.9-1.9c0-1,0.8-1.9,1.9-1.9l0,0c1,0,1.9,0.8,1.9,1.9
			C437.3,323.4,436.5,324.3,435.4,324.3L435.4,324.3z"/>
		<path id="p_767.9131501845512" class="st3" d="M449.9,323.1c-1,0-1.9-0.8-1.9-1.9c0-1,0.8-1.9,1.9-1.9c1,0,1.9,0.8,1.9,1.9
			C451.8,322.2,450.9,323.1,449.9,323.1z"/>
		<path id="p_712.1631428853328" class="st3" d="M420.5,299.1c-1,0-1.9-0.8-1.9-1.9c0-1,0.8-1.9,1.9-1.9l0,0c1,0,1.9,0.8,1.9,1.9
			S421.5,299.1,420.5,299.1L420.5,299.1z"/>
		<path id="p_722.393748701205" class="st3" d="M420.5,309c-1,0-1.8-0.8-1.8-1.8c0-1,0.8-1.8,1.8-1.8l0,0c1,0,1.8,0.8,1.8,1.8
			S421.5,309,420.5,309L420.5,309z"/>
		<path id="p_717.0199188472118" class="st3" d="M441.7,282.7c-0.9,0-1.6-0.7-1.6-1.6c0-0.9,0.7-1.6,1.6-1.6l0,0
			c0.9,0,1.6,0.7,1.6,1.6C443.3,282,442.6,282.7,441.7,282.7L441.7,282.7z"/>
		<path id="p_719.0276746349833" class="st3" d="M445.9,280.3c-0.9,0-1.5-0.7-1.5-1.4c0-0.9,0.7-1.4,1.5-1.4c0.9,0,1.4,0.7,1.4,1.4
			C447.3,279.6,446.8,280.3,445.9,280.3z"/>
		<path id="p_715.8654360467084" class="st3" d="M419.4,303.7c-0.8,0-1.4-0.7-1.4-1.4c0-0.8,0.7-1.4,1.4-1.4c0.8,0,1.5,0.7,1.5,1.4
			C420.9,303.1,420.2,303.7,419.4,303.7z"/>
		<path id="p_760.2555339377926" class="st3" d="M439.9,325.7c-0.7,0-1.3-0.6-1.3-1.3c0-0.7,0.6-1.3,1.3-1.3l0,0
			c0.7,0,1.3,0.6,1.3,1.3C441.3,325.1,440.7,325.7,439.9,325.7L439.9,325.7z"/>
		<path id="p_765.7581606623559" class="st3" d="M445.7,325.1c-0.7,0-1.3-0.6-1.3-1.3c0-0.7,0.6-1.3,1.3-1.3l0,0
			c0.7,0,1.3,0.6,1.3,1.3C447,324.5,446.4,325.1,445.7,325.1L445.7,325.1z"/>
		<path id="p_704.1305606759555" class="st3" d="M425,286.9c-0.7,0-1.2-0.5-1.2-1.2c0-0.7,0.4-1.2,1.2-1.2s1.2,0.5,1.2,1.2
			C426.2,286.5,425.7,286.9,425,286.9z"/>
		<path id="p_771.5970351522174" class="st3" d="M459,317.5c-0.6,0-1.2-0.5-1.2-1.2c0-0.6,0.5-1.2,1.2-1.2s1.2,0.4,1.2,1.2
			C460.1,317.1,459.6,317.5,459,317.5z"/>
		<path id="p_742.3574477750865" class="st3" d="M459,289.5c-0.6,0-1.1-0.5-1.1-1.1s0.5-1.1,1.1-1.1s1.1,0.5,1.1,1.1
			S459.6,289.5,459,289.5z"/>
		<path id="p_737.8642137138779" class="st3" d="M424.6,319.8c-0.6,0-1.1-0.5-1.1-1.1s0.5-1.1,1.1-1.1s1.1,0.5,1.1,1.1
			S425.1,319.8,424.6,319.8z"/>
		<path id="p_706.424273679859" class="st3" d="M431.7,282.5c-0.6,0-1.1-0.5-1.1-1.1s0.5-1.1,1.1-1.1l0,0c0.6,0,1.1,0.5,1.1,1.1
			C432.8,282.1,432.3,282.5,431.7,282.5L431.7,282.5z"/>
		<path id="p_730.7567454167595" class="st3" d="M453.4,284.1c-0.6,0-1-0.4-1-1c0-0.6,0.5-1,1-1l0,0c0.6,0,1,0.5,1,1
			C454.5,283.6,454,284.1,453.4,284.1L453.4,284.1z"/>
		<path id="p_771.5237452064868" class="st3" d="M454.5,321.9c-0.6,0-1-0.5-1-1c0-0.6,0.5-1,1-1l0,0c0.6,0,1,0.5,1,1
			C455.4,321.4,455.1,321.9,454.5,321.9L454.5,321.9z"/>
		<path id="p_749.0852019557859" class="st3" d="M430.8,324.2c-0.6,0-1-0.4-1-1s0.4-1,1-1l0,0c0.6,0,1,0.4,1,1
			C431.8,323.7,431.4,324.2,430.8,324.2L430.8,324.2z"/>
		<path id="p_765.8396598130706" class="st3" d="M443.2,327.9c-0.5,0-1-0.4-1-1c0-0.5,0.4-1,1-1c0.4,0,1,0.4,1,1
			C444.1,327.3,443.6,327.9,443.2,327.9z"/>
		<path id="p_704.75445829711" class="st3" d="M418.4,294.3c-0.5,0-0.9-0.4-0.9-0.9s0.4-0.9,0.9-0.9l0,0c0.5,0,0.9,0.4,0.9,0.9
			C419.2,293.8,418.8,294.3,418.4,294.3L418.4,294.3z"/>
		<path id="p_723.0151087170335" class="st3" d="M418.2,311.9c-0.5,0-0.9-0.4-0.9-0.9s0.4-0.9,0.9-0.9l0,0c0.5,0,0.9,0.4,0.9,0.9
			S418.7,311.9,418.2,311.9L418.2,311.9z"/>
		<path id="p_710.1303398599226" class="st3" d="M438.6,279.2c-0.4,0-0.9-0.4-0.9-0.9c0-0.5,0.4-0.9,0.9-0.9s0.9,0.4,0.9,0.9
			C439.5,278.8,439.1,279.2,438.6,279.2z"/>
		<path id="p_773.76857738835" class="st3" d="M458,320.8c-0.4,0-0.8-0.3-0.8-0.8c0-0.4,0.3-0.8,0.8-0.8c0.4,0,0.8,0.3,0.8,0.8
			C458.6,320.3,458.3,320.8,458,320.8z"/>
		<path id="p_715.3292524033452" class="st3" d="M416.8,305.9c-0.4,0-0.7-0.3-0.7-0.7c0-0.4,0.3-0.7,0.7-0.7c0.4,0,0.7,0.3,0.7,0.7
			C417.5,305.5,417.1,305.9,416.8,305.9z"/>
		<path id="p_709.2074822810471" class="st3" d="M416.8,300c-0.3,0-0.6-0.3-0.6-0.6c0-0.3,0.3-0.6,0.6-0.6s0.6,0.3,0.6,0.6
			C417.5,299.7,417.2,300,416.8,300z"/>
		<path id="p_736.803629434874" class="st3" d="M457.1,286.1c-0.3,0-0.6-0.3-0.6-0.6c0-0.3,0.3-0.6,0.6-0.6c0.3,0,0.6,0.3,0.6,0.6
			C457.7,285.7,457.5,286.1,457.1,286.1z"/>
		<path id="p_703.5466466371211" class="st3" d="M427.6,283.8c-0.3,0-0.5-0.2-0.5-0.5c0-0.4,0.2-0.5,0.5-0.5l0,0
			c0.3,0,0.5,0.2,0.5,0.5C428.1,283.6,427.8,283.8,427.6,283.8L427.6,283.8z"/>
		<path id="p_701.6724385974278" class="st3" d="M428.4,281.2c-0.3,0-0.5-0.2-0.5-0.5c0-0.3,0.2-0.4,0.5-0.4s0.5,0.2,0.5,0.4
			C429,281.1,428.7,281.2,428.4,281.2z"/>
		<path id="p_741.8095462262706" class="st3" d="M426.8,321.2c-0.2,0-0.3-0.2-0.3-0.3c0-0.2,0.2-0.3,0.3-0.3l0,0
			c0.2,0,0.3,0.2,0.3,0.3C427.1,321.1,426.9,321.2,426.8,321.2L426.8,321.2z"/>
		<path id="p_752.1049459131756" class="st4" d="M417.3,340.5c-2.9,0-5.2-2.3-5.2-5.2s2.3-5.2,5.2-5.2c2.9,0,5.2,2.3,5.2,5.2
			C422.6,338.1,420.2,340.5,417.3,340.5z"/>
		<path id="p_759.4560699584389" class="st4" d="M427,337.8c-1.5,0-2.7-1.2-2.7-2.7c0-1.5,1.2-2.7,2.7-2.7c1.4,0,2.7,1.2,2.7,2.7
			C429.7,336.7,428.4,337.8,427,337.8z"/>
		<path id="p_763.5346414017791" class="st4" d="M424.5,344.2c-1.4,0-2.6-1.2-2.6-2.6c0-1.4,1.2-2.6,2.6-2.6c1.4,0,2.6,1.2,2.6,2.6
			C427,343.1,425.8,344.2,424.5,344.2z"/>
		<path id="p_749.8836044427812" class="st4" d="M424.1,331.6c-0.8,0-1.4-0.7-1.4-1.4c0-0.8,0.7-1.4,1.4-1.4c0.7,0,1.4,0.7,1.4,1.4
			C425.6,330.9,424.9,331.6,424.1,331.6z"/>
		<path id="p_743.5569096752089" class="st4" d="M420.7,329c-0.3,0-0.6-0.3-0.6-0.6c0-0.3,0.3-0.6,0.6-0.6c0.3,0,0.6,0.3,0.6,0.6
			S421,329,420.7,329z"/>
		<g id="Layer_3">
			<path id="p_767.6390129983421_00000118397570328917944430000002949759489156791723_" class="st5" d="M308.7,455.4
				c-84.5,0-153-68.5-153-153s68.5-153,153-153s153,68.5,153,153S393.2,455.4,308.7,455.4z"/>
		</g>
		<path id="p_989" class="st6" d="M400,549.8c-136.7,0-247.5-110.7-247.5-247.5S263.3,54.8,400,54.8s247.5,110.7,247.5,247.5
			S536.7,549.8,400,549.8z"/>
		<g>
			<text transform="matrix(1 0 0 1 227.7783 280.3628)" class="st7 st8 st9">$ 503,477,192</text>
			<rect x="210.2" y="296.7" class="st10" width="197" height="76.5"/>
			<text transform="matrix(1 0 0 1 218.2642 309.5986)" class="st7 st11 st12">Trump total spening on </text>
			<text transform="matrix(1 0 0 1 223.3042 330.2988)" class="st7 st11 st12">the Influence Industry</text>
		</g>
	</g>
</g>
</svg>
