<?xml version="1.0" encoding="utf-8"?>
<!-- Generator: Adobe Illustrator 26.1.0, SVG Export Plug-In . SVG Version: 6.00 Build 0)  -->
<svg version="1.1" id="Layer_1" xmlns="http://www.w3.org/2000/svg" xmlns:xlink="http://www.w3.org/1999/xlink" x="0px" y="0px"
	 viewBox="0 0 800 600" style="enable-background:new 0 0 800 600;" xml:space="preserve">
<style type="text/css">
	.st0{fill:#363636;}
	.st1{fill:#E6E6E6;}
	.st2{fill:#000074;}
	.st3{fill:#AA272D;}
	.st4{fill:#FFFFFF;}
	.st5{fill:none;}
	.st6{fill:#C1272D;}
	.st7{font-family:'Verdana-Bold';}
	.st8{font-size:90px;}
	.st9{letter-spacing:4;}
	.st10{font-family:'Verdana-BoldItalic';}
	.st11{font-size:65px;}
	.st12{letter-spacing:1;}
</style>
<g id="Layer_1_00000129915823501276848260000010985882000580140213_">
	<g id="Layer_2_00000049183698155922643360000009788704119052866236_">
		<rect id="backgorund_00000090980594169175793890000009759078189875683470_" class="st0" width="800" height="600"/>
	</g>
</g>
<g id="Layer_3">
	<circle class="st1" cx="400" cy="302.4" r="247.5"/>
</g>
<path class="st2" d="M629.6,209.9C593,119,504,54.9,400,54.9s-193,64.1-229.6,155H629.6z"/>
<g>
	<path class="st3" d="M595.2,454.5H204.8c8.1,10.4,17,20.1,26.6,29h337.2C578.2,474.6,587.1,464.9,595.2,454.5z"/>
	<path class="st3" d="M611.1,431.5c7.1-11.6,13.3-23.9,18.5-36.7H170.4c5.2,12.8,11.4,25.1,18.5,36.7H611.1z"/>
	<path class="st3" d="M260.1,506.5c39.8,27.3,88,43.3,139.9,43.3s100.1-16,139.9-43.3H260.1z"/>
</g>
<g>
	<polygon class="st4" points="400,93.3 412.8,119.2 441.3,123.3 420.6,143.5 425.5,171.9 400,158.4 374.5,171.9 379.4,143.5 
		358.7,123.3 387.2,119.2 	"/>
	<polygon class="st4" points="283.6,130 294.6,152.3 319.3,155.9 301.4,173.3 305.7,197.9 283.6,186.3 261.6,197.9 265.8,173.3 
		247.9,155.9 272.6,152.3 	"/>
	<polygon class="st4" points="513.6,130 524.6,152.3 549.3,155.9 531.4,173.3 535.7,197.9 513.6,186.3 491.6,197.9 495.8,173.3 
		477.9,155.9 502.6,152.3 	"/>
</g>
<rect x="207.2" y="230" class="st5" width="385.5" height="157"/>
<rect x="297.6" y="320" class="st5" width="204.8" height="157"/>
<text transform="matrix(1 0 0 1 231.25 298.3994)" class="st6 st7 st8 st9">TRUMP </text>
<text transform="matrix(1 0 0 1 305.6782 369.3994)" class="st6 st10 st11 st12">2020</text>
</svg>
