<?xml version="1.0" encoding="utf-8"?>
<!-- Generator: Adobe Illustrator 26.1.0, SVG Export Plug-In . SVG Version: 6.00 Build 0)  -->
<svg version="1.1" id="Layer_1" xmlns="http://www.w3.org/2000/svg" xmlns:xlink="http://www.w3.org/1999/xlink" x="0px" y="0px"
	 viewBox="0 0 800 600" style="enable-background:new 0 0 800 600;" xml:space="preserve">
<style type="text/css">
	.st0{fill:#363636;}
	.st1{fill:#E6E6E6;stroke:#E6E6E6;}
	.st2{font-family:'Times-Roman';}
	.st3{font-size:19px;}
	.st4{font-family:'Verdana-Bold';}
	.st5{font-size:38px;}
</style>
<g id="Layer_2_00000153696696306275725170000012884067625248848776_">
	<rect id="backgorund_00000090980594169175793890000009759078189875683470_" class="st0" width="800" height="600"/>
</g>
<path id="p_989" class="st1" d="M400,549.8c-136.7,0-247.5-110.8-247.5-247.5S263.3,54.9,400,54.9s247.5,110.8,247.5,247.5
	S536.7,549.8,400,549.8z"/>
<g id="labels">
	<g transform="translate(250.18421362601012,296)">
	</g>
	<g transform="translate(400.3254877506067,296)">
	</g>
	<g transform="translate(396.22266688467016,306.38750415904497)">
	</g>
	<g transform="translate(396.0890808497775,285.8267239830691)">
	</g>
	<g transform="translate(429.48860549072367,296.0767910035446)">
	</g>
	<g transform="translate(449.15435825305343,296.0767910035446)">
	</g>
	<g transform="translate(440.1037732649312,309.90902775209275)">
	</g>
	<g transform="translate(440.0789089452851,282.9114587558951)">
	</g>
	<g transform="translate(428.82263419870424,280.9983467024985)">
	</g>
	<g transform="translate(428.24742161075363,311.0746994623902)">
	</g>
	<g transform="translate(451.2168529270932,282.30644378400075)">
	</g>
	<g transform="translate(451.4486372948276,309.46498050517795)">
	</g>
	<g transform="translate(420.7614936353966,284.6914549112353)">
	</g>
	<g transform="translate(420.4769262206667,307.11013480300653)">
	</g>
	<g transform="translate(457.6127602256106,286.7248851198008)">
	</g>
	<g transform="translate(457.5921034008367,305.37574296821083)">
	</g>
	<g transform="translate(434.18877392805365,275.2033027911761)">
	</g>
	<g transform="translate(446.88816946369667,276.1169372529137)">
	</g>
	<g transform="translate(433.03889233443897,317.0396564389484)">
	</g>
	<g transform="translate(448.23062752561543,315.7514281062604)">
	</g>
	<g transform="translate(417.4789391001218,290.76638151732055)">
	</g>
	<g transform="translate(417.45224488148574,301.1090557815613)">
	</g>
	<g transform="translate(460.49511926517107,291.9094663521698)">
	</g>
	<g transform="translate(460.45595359091,300.27248437857736)">
	</g>
	<g transform="translate(439.6358114194804,273.77001947227626)">
	</g>
	<g transform="translate(444.08802892532026,271.3342008846109)">
	</g>
	<g transform="translate(416.3210559750553,295.9784847470934)">
	</g>
	<g transform="translate(437.8092818963908,319.07516648866596)">
	</g>
	<g transform="translate(443.9201787802984,318.5080119696741)">
	</g>
	<g transform="translate(463.0202820674589,296.11864434196957)">
	</g>
	<g transform="translate(422.2469947996297,278.62921953627523)">
	</g>
	<g transform="translate(457.67838030222714,310.698997453994)">
	</g>
	<g transform="translate(457.7871125793733,281.41107865738127)">
	</g>
	<g transform="translate(421.69049593671394,313.0242087484287)">
	</g>
	<g transform="translate(429.15302893926446,274.1435647034746)">
	</g>
	<g transform="translate(451.8875729282957,275.7961890638986)">
	</g>
	<g transform="translate(453.0506101852854,315.42891958985865)">
	</g>
	<g transform="translate(428.2479229074065,317.8015366463934)">
	</g>
	<g transform="translate(441.16013178035297,321.6687469470637)">
	</g>
	<g transform="translate(462.5851060383725,304.3464240211923)">
	</g>
	<g transform="translate(462.607091579799,287.8354666117652)">
	</g>
	<g transform="translate(415.146737493871,286.6488096692936)">
	</g>
	<g transform="translate(415.0261863655234,305.04945540720473)">
	</g>
	<g transform="translate(436.41381547510565,270.8124542976596)">
	</g>
	<g transform="translate(456.586352941924,314.39927678414614)">
	</g>
	<g transform="translate(413.600345136872,299.0482988901225)">
	</g>
	<g transform="translate(413.6350364307069,292.93317176104335)">
	</g>
	<g transform="translate(455.8390948266098,278.35564759940974)">
	</g>
	<g transform="translate(424.8851319807268,276.1533263336687)">
	</g>
	<g transform="translate(425.7490810086788,273.4281780084472)">
	</g>
	<g transform="translate(424.04481174910217,315.4145896380321)">
	</g>
	<g transform="translate(414.19005132728796,330.4342609499286)">
	</g>
	<g transform="translate(424.2739721183361,330.4342609499286)">
	</g>
	<g transform="translate(421.5848521558432,337.237578984464)">
	</g>
	<g transform="translate(421.27419464532215,325.0435144728993)">
	</g>
	<g transform="translate(417.6590523332877,323.3098641688193)">
	</g>
	<g transform="translate(579.3917813667136,296)">
	</g>
</g>
<text transform="matrix(1 0 0 1 347.6504 322.8245)" class="st2 st3">Donald Trump </text>
<text transform="matrix(1 0 0 1 292.3504 343.8245)" class="st2 st3">2020 Presidential Campaign</text>
<text transform="matrix(1 0 0 1 335.1504 364.8245)" class="st2 st3">Overall Spending </text>
<text transform="matrix(1 0 0 1 244.6973 258.8355)" class="st4 st5">$ 769,089,384</text>
</svg>
