<?xml version="1.0" encoding="utf-8"?>
<!-- Generator: Adobe Illustrator 26.2.1, SVG Export Plug-In . SVG Version: 6.00 Build 0)  -->
<svg version="1.1" id="Layer_1" xmlns="http://www.w3.org/2000/svg" xmlns:xlink="http://www.w3.org/1999/xlink" x="0px" y="0px"
	 viewBox="0 0 800 600" style="enable-background:new 0 0 800 600;" xml:space="preserve">
<style type="text/css">
	.st0{fill:#363636;}
	.st1{fill:none;stroke:#E6E6E6;stroke-width:3;}
	.st2{fill:#00B190;stroke:#00B190;}
	.st3{fill:none;stroke:#FFFFFF;stroke-width:1.5;}
	.st4{fill:#FFFFFF;}
	.st5{fill:none;}
	.st6{opacity:0;}
	.st7{font-family:'Times-Roman';}
	.st8{font-size:15px;}
	.st9{fill:#00B190;}
	.st10{font-family:'Times-Bold';}
</style>
<g id="Layer_2_00000150069184869209184400000013119580808846922904_">
	<rect id="backgorund" class="st0" width="800" height="600"/>
</g>
<path id="p_989" class="st1" d="M400,549.8c-136.7,0-247.5-110.8-247.5-247.5S263.3,54.9,400,54.9s247.5,110.8,247.5,247.5
	S536.7,549.8,400,549.8z"/>
<path id="p_762.7951817288568" class="st2" d="M418.3,341.8c-5.2,0-9.4-4.2-9.4-9.4s4.2-9.4,9.4-9.4l0,0c5.2,0,9.4,4.2,9.4,9.4
	C427.7,337.6,423.5,341.8,418.3,341.8L418.3,341.8z"/>
<g>
	<g>
		<path class="st3" d="M417.3,349c0,19.2,11.6,34.9,26.3,35.8"/>
		<g>
			<polygon class="st4" points="439.1,391.3 438.3,389.9 443.1,384.6 439,378.3 439.9,377.2 444.9,384.8 			"/>
		</g>
	</g>
</g>
<rect x="457.1" y="378.7" class="st5" width="139.9" height="77.5"/>
<g class="st6">
	<text transform="matrix(1 0 0 1 453.0826 385.6161)" class="st4 st7 st8">The total amount of </text>
	<text transform="matrix(1 0 0 1 453.0826 400.6161)" class="st4 st7 st8">relevant transactions </text>
	<text transform="matrix(1 0 0 1 453.0826 415.6161)" class="st4 st7 st8">containing the keyword </text>
	<text transform="matrix(1 0 0 1 453.0826 430.6161)" class="st9 st7 st8">&quot;</text>
	<text transform="matrix(1 0 0 1 458.4826 430.6161)" class="st9 st10 st8">Data</text>
	<text transform="matrix(1 0 0 1 485.7826 430.6161)" class="st9 st7 st8">&quot;</text>
	<text transform="matrix(1 0 0 1 491.1826 430.6161)" class="st4 st7 st8"> is just $ 1,168,220</text>
</g>
<rect x="448.4" y="377.4" class="st5" width="155.4" height="82.7"/>
<text transform="matrix(1 0 0 1 448.3964 387.6457)"><tspan x="0" y="0" class="st4 st7 st8">The total amount of rele</tspan><tspan x="145" y="0" class="st4 st7 st8">-</tspan><tspan x="0" y="18" class="st4 st7 st8">vant transactions contain</tspan><tspan x="149.1" y="18" class="st4 st7 st8">-</tspan><tspan x="0" y="36" class="st4 st7 st8">ing the keyword </tspan><tspan x="101.2" y="36" class="st9 st7 st8">&quot;</tspan><tspan x="107.4" y="36" class="st9 st10 st8">Data</tspan><tspan x="138.2" y="36" class="st9 st7 st8">&quot;</tspan><tspan x="144.3" y="36" class="st4 st7 st8"> </tspan><tspan x="0" y="54" class="st4 st7 st8">is just $ 1,168,220</tspan></text>
</svg>
